<?xml version="1.0" standalone="no"?>
<!DOCTYPE svg PUBLIC "-//W3C//DTD SVG 20010904//EN"
 "http://www.w3.org/TR/2001/REC-SVG-20010904/DTD/svg10.dtd">
<svg version="1.0" xmlns="http://www.w3.org/2000/svg"
 width="700.000000pt" height="700.000000pt" viewBox="0 0 700.000000 700.000000"
 preserveAspectRatio="xMidYMid meet">
<metadata>
Created by potrace 1.14, written by Peter Selinger 2001-2017
</metadata>
<g transform="translate(0.000000,700.000000) scale(0.100000,-0.100000)"
fill="#000000" stroke="none">
<path d="M5916 6962 c-2 -1 -52 -11 -112 -22 -60 -11 -122 -22 -139 -25 -16
-3 -68 -12 -115 -21 -47 -8 -119 -22 -160 -30 -41 -8 -86 -16 -100 -19 -13 -3
-42 -7 -65 -11 -22 -3 -121 -21 -220 -39 -99 -19 -209 -39 -245 -45 -36 -7
-69 -13 -75 -14 -5 -2 -28 -6 -50 -10 -22 -4 -74 -14 -115 -21 -41 -8 -86 -16
-100 -19 -31 -5 -245 -44 -280 -51 -37 -7 -301 -56 -330 -61 -14 -3 -47 -9
-75 -14 -27 -5 -68 -12 -90 -16 -22 -3 -47 -7 -56 -10 -9 -2 -33 -7 -54 -9
-20 -3 -40 -7 -44 -9 -3 -2 -31 -7 -61 -11 -30 -4 -57 -8 -60 -10 -5 -3 -97
-20 -215 -40 -16 -3 -39 -7 -51 -10 -12 -3 -39 -7 -60 -10 -21 -4 -47 -8 -56
-11 -10 -3 -30 -7 -45 -10 -16 -2 -75 -13 -133 -24 -58 -10 -116 -21 -130 -24
-14 -2 -88 -15 -165 -29 -77 -15 -151 -28 -165 -31 -14 -2 -115 -21 -225 -41
-110 -20 -213 -39 -230 -42 -304 -47 -591 -256 -743 -541 -48 -91 -96 -229
-113 -327 -9 -53 -13 -492 -14 -1837 -1 -973 0 -1768 2 -1768 1 0 121 22 265
49 352 66 438 82 468 87 14 2 34 6 46 9 12 3 39 7 60 10 21 3 62 10 89 16 28
5 61 11 75 14 32 6 138 26 170 31 14 3 72 14 130 25 58 11 123 22 144 25 22 3
43 7 46 9 4 2 27 7 53 10 25 4 59 10 74 14 l28 7 0 1724 c0 1511 2 1723 15
1726 8 1 29 5 45 8 17 3 129 24 250 46 121 22 231 42 245 45 14 3 41 8 60 11
19 3 54 10 78 15 23 5 59 12 80 14 37 6 63 10 112 20 24 5 150 29 215 40 17 3
53 10 80 15 28 5 124 23 215 40 91 17 201 37 245 45 44 9 94 18 110 21 17 2
55 9 85 15 30 5 78 14 105 19 28 5 138 25 245 45 107 20 206 39 220 41 14 3
63 12 110 20 47 9 96 18 110 20 33 6 54 10 185 35 61 11 171 31 245 44 74 14
146 27 160 30 14 3 40 8 58 11 l32 6 0 429 0 429 -30 -2 c-17 -1 -32 -4 -34
-6z"/>
<path d="M5920 5240 c-48 -9 -89 -17 -130 -25 -24 -5 -159 -29 -225 -40 -16
-3 -50 -10 -75 -15 -25 -5 -83 -16 -130 -24 -47 -9 -96 -17 -110 -20 -20 -4
-196 -36 -335 -60 -16 -3 -41 -8 -55 -11 -14 -3 -61 -12 -105 -19 -229 -42
-411 -76 -421 -80 -8 -3 -10 -493 -10 -1717 1 -1128 -2 -1716 -9 -1724 -8 -11
-194 -50 -330 -70 -22 -4 -56 -10 -75 -15 -19 -5 -53 -11 -75 -15 -22 -3 -87
-14 -145 -25 -58 -11 -121 -22 -140 -25 -19 -3 -53 -10 -75 -15 -22 -5 -56
-11 -75 -14 -19 -3 -48 -8 -65 -11 -16 -3 -91 -17 -165 -31 -74 -13 -146 -26
-160 -29 -14 -3 -77 -14 -140 -26 -63 -11 -185 -33 -270 -49 -85 -17 -173 -32
-195 -35 -22 -4 -47 -8 -55 -10 -8 -2 -31 -7 -50 -10 -19 -3 -80 -15 -135 -25
-55 -11 -116 -22 -135 -25 -19 -3 -80 -14 -135 -25 -93 -18 -201 -38 -650
-120 -93 -16 -182 -33 -198 -36 l-27 -6 0 -430 0 -431 38 6 c20 3 136 24 257
47 214 41 241 46 288 54 125 22 165 30 247 46 52 10 115 21 140 25 25 3 52 8
60 10 12 4 182 35 535 99 17 3 41 8 55 11 14 3 77 14 140 25 111 20 306 56
460 85 41 8 91 17 110 20 19 3 96 17 170 31 74 15 146 28 160 30 14 3 50 9 80
15 30 6 66 12 80 15 26 5 272 49 325 58 28 5 43 8 105 21 14 2 36 6 50 9 30 5
375 69 520 96 125 23 154 28 200 36 244 40 426 123 586 268 161 145 302 401
329 596 3 25 9 54 12 65 8 23 10 3556 3 3554 -3 -1 -25 -5 -50 -9z"/>
</g>
</svg>
