<svg width="1366" height="395" viewBox="0 0 1366 395" fill="none" xmlns="http://www.w3.org/2000/svg"><g clip-path="url(#a)"><path transform="translate(0 .27)" fill="url(#b)" d="M0 0h1366v394.27H0z"/><path fill="url(#c)" d="M0 325.661h1366v68.877H0z"/><path d="M719.924 184.68v-42.373c0-3.677-1.384-7.204-3.846-9.805-2.463-2.6-5.803-4.061-9.285-4.061H588.591c-3.483 0-6.823 1.461-9.285 4.061-2.463 2.601-3.846 6.128-3.846 9.805v40.665" fill="url(#d)"/><path d="M653.23 40.973H485.393a9.486 9.486 0 0 0-9.486 9.486v95.072a9.486 9.486 0 0 0 9.486 9.486H653.23c5.238 0 9.485-4.247 9.485-9.486V50.459c0-5.24-4.247-9.486-9.485-9.486Z" fill="url(#e)"/><rect opacity=".1" x="484.191" y="143.54" width="3.698" height="5.407" rx="1" fill="#00033B"/><rect opacity=".1" x="489.489" y="143.54" width="3.698" height="5.407" rx="1" fill="#00033B"/><rect opacity=".1" x="494.787" y="143.54" width="3.698" height="5.407" rx="1" fill="#00033B"/><rect opacity=".1" x="500.085" y="143.54" width="3.698" height="5.407" rx="1" fill="#00033B"/><path opacity=".1" d="M583.772 155.148h-25.671a6.677 6.677 0 0 1-6.649-7.2l6.028-34.484a6.674 6.674 0 0 1 6.636-6.135h16.686a6.673 6.673 0 0 1 6.649 6.135l2.919 34.484a6.658 6.658 0 0 1-1.728 5.039 6.672 6.672 0 0 1-4.87 2.161Z" fill="#00033B"/><path opacity=".1" d="m579.794 176.332-24.123-20.149a6.667 6.667 0 0 1-6.303-4.49 6.671 6.671 0 0 1-.346-2.71l2.932-35.519a6.677 6.677 0 0 1 6.636-6.135h16.686a6.672 6.672 0 0 1 6.648 6.135l4.467 55.668a6.661 6.661 0 0 1-6.597 7.2Z" fill="#00033B"/><path d="M582.493 176.028h-25.671a6.689 6.689 0 0 1-2.674-.561 6.673 6.673 0 0 1-3.975-6.64l4.48-55.668a6.672 6.672 0 0 1 6.636-6.135h16.686a6.67 6.67 0 0 1 6.649 6.135l4.466 55.668a6.647 6.647 0 0 1-1.728 5.039 6.658 6.658 0 0 1-4.869 2.162Z" fill="url(#f)"/><path d="M403.668 202.675h558.653v156.023a6.378 6.378 0 0 1-6.374 6.375H410.076a6.377 6.377 0 0 1-6.374-6.375V202.675h-.034Z" fill="url(#g)"/><path opacity=".1" d="M403.668 202.675h558.653v8.456c0 .091-.672.179-1.867.244a88.465 88.465 0 0 1-4.507.101H410.076c-1.69 0-3.311-.036-4.507-.101-1.195-.065-1.867-.153-1.867-.244v-8.456h-.034Z" fill="#00033B"/><path d="M425.762 365.072h514.499v32.236a6.373 6.373 0 0 1-6.374 6.374H432.136a6.374 6.374 0 0 1-6.374-6.374v-32.236Z" fill="url(#h)"/><path opacity=".1" d="M425.762 365.073h514.499v4.168c0 .045-.618.088-1.719.12s-2.594.05-4.151.05H431.664c-1.557 0-3.05-.018-4.151-.05s-1.72-.075-1.72-.12v-4.168h-.031Z" fill="#00033B"/><path d="M970.755 176.335H395.244a4.472 4.472 0 0 0-4.473 4.473v17.393a4.473 4.473 0 0 0 4.473 4.473h575.511a4.473 4.473 0 0 0 4.473-4.473v-17.393a4.473 4.473 0 0 0-4.473-4.473Z" fill="url(#i)"/><path d="M970.755 204.393H395.244a6.193 6.193 0 0 1-6.181-6.192v-17.393a6.196 6.196 0 0 1 6.181-6.181h575.511a6.192 6.192 0 0 1 6.181 6.181v17.393a6.19 6.19 0 0 1-6.181 6.192Zm-575.511-26.351a2.763 2.763 0 0 0-2.555 1.708 2.763 2.763 0 0 0-.211 1.058v17.393a2.776 2.776 0 0 0 2.766 2.777h575.511a2.78 2.78 0 0 0 2.766-2.777v-17.393a2.762 2.762 0 0 0-1.707-2.555 2.768 2.768 0 0 0-1.059-.211H395.244Z" fill="url(#j)"/><path d="M875.75 170.598a4 4 0 0 1-4 4.046h-66.202a3.999 3.999 0 0 1-3.999-3.955l-.744-66.203a4 4 0 0 1 4-4.045h66.188a4 4 0 0 1 4 3.954l.757 66.203Z" fill="url(#k)"/><path d="M838.641 112.71a24.461 24.461 0 0 0-24.426 24.426 24.456 24.456 0 0 0 24.426 24.426 24.453 24.453 0 0 0 17.272-7.158 24.453 24.453 0 0 0 7.169-17.268 24.455 24.455 0 0 0-24.441-24.426Zm-18.054 27.003a18.135 18.135 0 0 1 2.161-11.465 1.544 1.544 0 0 1 2.33-.293l22.743 22.744a1.546 1.546 0 0 1 .17 1.857 1.536 1.536 0 0 1-.463.473 18.109 18.109 0 0 1-11.464 2.16 18.3 18.3 0 0 1-15.477-15.522v.046Zm31.617 6.619-22.76-22.759a1.55 1.55 0 0 1-.158-1.859c.12-.189.279-.349.467-.471a18.098 18.098 0 0 1 11.464-2.144 18.239 18.239 0 0 1 15.431 15.43 18.12 18.12 0 0 1-2.145 11.464 1.539 1.539 0 0 1-1.038.65 1.528 1.528 0 0 1-1.184-.311h-.077Z" fill="#fff"/><path opacity=".1" fill-rule="evenodd" clip-rule="evenodd" d="M922.206 228.7H761.155a6.647 6.647 0 0 0-6.647 6.647v27.892a6.647 6.647 0 0 0 6.647 6.648h161.051a6.648 6.648 0 0 0 6.648-6.648v-27.892a6.648 6.648 0 0 0-6.648-6.647Z" fill="#00033B"/><path d="M919.522 225.985h-161.05a6.647 6.647 0 0 0-6.648 6.647v27.893a6.647 6.647 0 0 0 6.648 6.647h161.05a6.647 6.647 0 0 0 6.648-6.647v-27.893a6.647 6.647 0 0 0-6.648-6.647Z" fill="url(#l)"/><path d="M768.188 238.607h6.139a9.942 9.942 0 0 1 5.435 1.122 3.72 3.72 0 0 1 1.631 3.249 4.075 4.075 0 0 1-.419 1.962c-.244.5-.603.936-1.048 1.272a3.71 3.71 0 0 1-1.287.644v.12a6.135 6.135 0 0 1 1.497.599 3.2 3.2 0 0 1 1.198 1.242c.356.682.522 1.448.479 2.216a4.497 4.497 0 0 1-1.797 3.773 7.8 7.8 0 0 1-4.896 1.377h-6.857l-.075-17.576Zm4.761 6.737h1.423a2.237 2.237 0 0 0 1.662-.494 1.495 1.495 0 0 0 .479-1.168c0-.988-.734-1.497-2.231-1.497h-1.333v3.159Zm0 3.473v3.698h1.677a2.316 2.316 0 0 0 1.722-.524c.333-.368.51-.851.494-1.347a1.87 1.87 0 0 0-.494-1.273 2.446 2.446 0 0 0-1.827-.554h-1.572ZM795.586 256.189l-.868-3.294h-5.704l-.899 3.294h-5.21l5.734-17.652h6.333l5.81 17.652h-5.196Zm-1.856-7.186-.764-2.89-.344-1.333c-.135-.583-.285-1.182-.434-1.796-.15-.614-.27-1.138-.345-1.497-.089.404-.194.898-.329 1.497-.135.599-.254 1.168-.404 1.752-.15.584-.255 1.063-.36 1.497l-.763 2.889 3.743-.119ZM810.02 242.251a2.998 2.998 0 0 0-2.635 1.378 6.646 6.646 0 0 0-.959 3.848 6.312 6.312 0 0 0 .944 3.772 3.37 3.37 0 0 0 2.919 1.303 7.662 7.662 0 0 0 2.261-.329 19.367 19.367 0 0 0 2.201-.779v4.012a10.58 10.58 0 0 1-2.396.749c-.848.165-1.711.245-2.575.24a8.689 8.689 0 0 1-4.701-1.138 6.739 6.739 0 0 1-2.665-3.159 11.813 11.813 0 0 1-.868-4.701c-.032-1.622.306-3.23.988-4.702a7.483 7.483 0 0 1 2.889-3.218 8.759 8.759 0 0 1 4.642-1.168 13.33 13.33 0 0 1 2.694.299 12.75 12.75 0 0 1 2.755.928l-1.497 3.758a12.616 12.616 0 0 0-1.946-.778 6.897 6.897 0 0 0-2.051-.315ZM833.272 256.19h-5.375l-3.474-6.722-1.392.838v5.884h-4.776v-17.577h4.776v7.636c.202-.4.432-.785.689-1.153.254-.389.509-.748.763-1.093l3.698-5.39h5.091l-5.54 7.876 5.54 9.701ZM853.002 250.843c.007.958-.246 1.9-.733 2.725a5.26 5.26 0 0 1-2.231 2.066 8.38 8.38 0 0 1-3.938.809c-.7.003-1.4-.037-2.096-.12a8.267 8.267 0 0 1-1.691-.359 12.64 12.64 0 0 1-1.632-.629v-4.237c.922.464 1.891.83 2.889 1.093.859.238 1.744.363 2.635.374a2.634 2.634 0 0 0 1.497-.359 1.134 1.134 0 0 0 .494-.944 1.27 1.27 0 0 0-.718-1.107 39.539 39.539 0 0 0-2.456-1.198 13.755 13.755 0 0 1-2.26-1.288 4.786 4.786 0 0 1-1.497-1.677 5.31 5.31 0 0 1-.524-2.485 4.716 4.716 0 0 1 .838-2.845 5.187 5.187 0 0 1 2.336-1.721 9.398 9.398 0 0 1 3.458-.584c1.046-.011 2.088.12 3.099.389.841.236 1.667.526 2.471.868l-1.498 3.668a16.375 16.375 0 0 0-2.23-.823 7.355 7.355 0 0 0-2.037-.299 2.226 2.226 0 0 0-1.347.314.95.95 0 0 0-.419.808 1.043 1.043 0 0 0 .314.749 4.3 4.3 0 0 0 1.078.704c.494.254 1.183.569 2.051.958.766.352 1.497.773 2.186 1.258a4.822 4.822 0 0 1 1.377 1.601c.373.707.573 1.492.584 2.291ZM872.197 247.369a11.982 11.982 0 0 1-.883 4.776 6.546 6.546 0 0 1-2.77 3.159 9.328 9.328 0 0 1-4.896 1.138 9.233 9.233 0 0 1-4.851-1.138 6.73 6.73 0 0 1-2.8-3.174 11.811 11.811 0 0 1-.898-4.776 11.41 11.41 0 0 1 .913-4.761 6.897 6.897 0 0 1 2.8-3.144 9.41 9.41 0 0 1 4.866-1.108 9.474 9.474 0 0 1 4.881 1.108 6.539 6.539 0 0 1 2.755 3.159c.615 1.511.916 3.131.883 4.761Zm-12.097 0a7.109 7.109 0 0 0 .823 3.743 3.002 3.002 0 0 0 2.725 1.363 2.893 2.893 0 0 0 2.755-1.363 7.487 7.487 0 0 0 .793-3.743 7.566 7.566 0 0 0-.793-3.757 2.855 2.855 0 0 0-2.725-1.378 2.997 2.997 0 0 0-2.77 1.378 7.486 7.486 0 0 0-.838 3.757h.03ZM891.794 247.37a11.976 11.976 0 0 1-.869 4.776 6.69 6.69 0 0 1-2.769 3.159 9.434 9.434 0 0 1-4.911 1.138 9.317 9.317 0 0 1-4.851-1.138 6.8 6.8 0 0 1-2.8-3.174 11.811 11.811 0 0 1-.898-4.776 11.645 11.645 0 0 1 .913-4.761 6.897 6.897 0 0 1 2.8-3.144 9.41 9.41 0 0 1 4.866-1.108 9.393 9.393 0 0 1 4.881 1.108 6.63 6.63 0 0 1 2.769 3.159 11.98 11.98 0 0 1 .869 4.761Zm-12.097 0a7.254 7.254 0 0 0 .823 3.743 2.997 2.997 0 0 0 2.725 1.362 2.892 2.892 0 0 0 2.755-1.362 7.285 7.285 0 0 0 .793-3.743 7.495 7.495 0 0 0-.793-3.758 2.865 2.865 0 0 0-2.725-1.377 2.907 2.907 0 0 0-2.755 1.377 7.244 7.244 0 0 0-.838 3.758h.015ZM911.722 256.19h-6.228l-6.438-12.381h-.09c0 .569.09 1.093.105 1.497.015.404 0 .958 0 1.497v9.417h-4.222v-17.607h6.213l6.408 12.217h.075c0-.569 0-1.063-.09-1.497-.09-.434 0-.913 0-1.407v-9.298h4.237l.03 17.562Z" fill="#fff"/><circle cx="569.632" cy="165.016" r="7.027" fill="url(#m)"/><path fill="url(#n)" d="M0 0h246.573v394.27H0z"/><path transform="rotate(-180 1366 394.27)" fill="url(#o)" d="M1366 394.27h246.573v394.27H1366z"/></g><defs><linearGradient id="d" x1="642.786" y1="42.787" x2="654.293" y2="297.783" gradientUnits="userSpaceOnUse"><stop offset=".278" stop-color="#fff"/><stop offset=".903" stop-color="#CDE2FF"/></linearGradient><linearGradient id="e" x1="607.944" y1="-59.371" x2="533.453" y2="235.281" gradientUnits="userSpaceOnUse"><stop offset=".184" stop-color="#fff"/><stop offset=".457" stop-color="#CDE2FF"/><stop offset=".915" stop-color="#87BAFF"/></linearGradient><linearGradient id="f" x1="569.632" y1="107.024" x2="569.632" y2="201.315" gradientUnits="userSpaceOnUse"><stop stop-color="#fff"/><stop offset=".29" stop-color="#CDE2FF"/><stop offset=".809" stop-color="#87BAFF"/></linearGradient><linearGradient id="g" x1="682.995" y1="144.84" x2="682.995" y2="407.074" gradientUnits="userSpaceOnUse"><stop offset=".039" stop-color="#CDE2FF"/><stop offset=".842" stop-color="#fff"/></linearGradient><linearGradient id="h" x1="683.012" y1="325.571" x2="683.011" y2="424.844" gradientUnits="userSpaceOnUse"><stop offset=".272" stop-color="#CDE2FF"/><stop offset=".661" stop-color="#fff"/></linearGradient><linearGradient id="i" x1="680.958" y1="101.319" x2="682.705" y2="235.48" gradientUnits="userSpaceOnUse"><stop stop-color="#87BAFF"/><stop offset=".949" stop-color="#fff"/></linearGradient><linearGradient id="j" x1="680.947" y1="89.854" x2="683.164" y2="241.46" gradientUnits="userSpaceOnUse"><stop stop-color="#87BAFF"/><stop offset=".949" stop-color="#fff"/></linearGradient><linearGradient id="k" x1="889.643" y1="44.895" x2="838.601" y2="158.419" gradientUnits="userSpaceOnUse"><stop stop-color="#fff"/><stop offset=".6" stop-color="#006DFF"/><stop offset="1" stop-color="#00033B"/></linearGradient><linearGradient id="l" x1="935.502" y1="145.216" x2="818.864" y2="304.544" gradientUnits="userSpaceOnUse"><stop stop-color="#fff"/><stop offset=".386" stop-color="#006DFF"/><stop offset=".974" stop-color="#00033B"/></linearGradient><linearGradient id="m" x1="569.632" y1="144.799" x2="569.632" y2="174.917" gradientUnits="userSpaceOnUse"><stop stop-color="#fff"/><stop offset="1" stop-color="#AED0FF"/></linearGradient><linearGradient id="n" x1="15.508" y1="221.019" x2="236.822" y2="218.132" gradientUnits="userSpaceOnUse"><stop offset=".085" stop-color="#fff"/><stop offset="1" stop-color="#fff" stop-opacity="0"/></linearGradient><linearGradient id="o" x1="1381.51" y1="615.288" x2="1602.82" y2="612.402" gradientUnits="userSpaceOnUse"><stop offset=".085" stop-color="#fff"/><stop offset="1" stop-color="#fff" stop-opacity="0"/></linearGradient><radialGradient id="b" cx="0" cy="0" r="1" gradientUnits="userSpaceOnUse" gradientTransform="matrix(16.03855 993.79359 -3443.13163 55.56772 666.961 -88.016)"><stop offset=".04" stop-color="#CDE2FF"/><stop offset=".383" stop-color="#F5F9FF"/><stop offset=".69" stop-color="#fff"/></radialGradient><radialGradient id="c" cx="0" cy="0" r="1" gradientUnits="userSpaceOnUse" gradientTransform="matrix(.00033 188.448 -3737.39 .00652 683 299.386)"><stop stop-color="#CDE2FF"/><stop offset=".467" stop-color="#fff"/></radialGradient><clipPath id="a"><path fill="#fff" transform="translate(0 .27)" d="M0 0h1366v394.27H0z"/></clipPath></defs></svg>