<svg width="1366" height="395" viewBox="0 0 1366 395" fill="none" xmlns="http://www.w3.org/2000/svg"><g clip-path="url(#a)"><path transform="translate(0 .54)" fill="url(#b)" d="M0 0h1366v394.27H0z"/><path fill="url(#c)" d="M0 325.931h1366v68.877H0z"/><path d="M868.532 308.56a2.113 2.113 0 0 1-1.066-.299l-32.023-20a1.723 1.723 0 0 1-.789-1.103 1.606 1.606 0 0 1 .294-1.291 1.9 1.9 0 0 1 1.204-.723c.491-.085.998.012 1.41.269l32.023 20.001c.332.207.583.505.716.853.134.347.142.724.024 1.075-.118.352-.355.66-.678.879a1.998 1.998 0 0 1-1.115.339Z" fill="#006ADD"/><circle cx="569.632" cy="165.286" r="7.027" fill="url(#d)"/><path d="M779.418 323.891a174.919 174.919 0 0 0-33.855-264.34 174.921 174.921 0 0 0-224.805 264.34h258.66Z" fill="#fff"/><path d="M733.972 167.231a1.493 1.493 0 0 1-1.42-1c-6.86-19.5-18.39-51.09-20.62-54.26a1.491 1.491 0 0 1-.69-1.07 1.483 1.483 0 0 1 .283-1.109 1.49 1.49 0 0 1 .987-.581c1.59-.23 2.32-.35 12.91 28.39 5 13.64 9.91 27.5 10 27.63a1.477 1.477 0 0 1-.176 1.373 1.47 1.47 0 0 1-1.234.627h-.04Z" fill="#00033B"/><path d="M770.782 149.574a1.647 1.647 0 0 1-.54-.221l-57.222-36.475a1.55 1.55 0 0 1-.626-.957c-.073-.38.009-.769.231-1.086.222-.317.565-.538.961-.619.396-.08.813-.014 1.166.186l57.276 36.476c.314.198.547.493.659.831.112.339.095.701-.047 1.023a1.483 1.483 0 0 1-.731.74c-.33.156-.71.196-1.075.113l-.052-.011Z" fill="#00033B"/><path d="M670.257 280.658c4.264-62.212 32.436-145.467 40.595-170.411.314-.963-.823-1.678-1.575-1C653.901 159.18 598.565 256.396 584.394 286.3c-.337.711.289 1.451 1.069 1.351 46.836-6.012 74.567-6.572 83.727-6.059a1.004 1.004 0 0 0 1.067-.934Z" fill="url(#e)"/><path d="M709.74 317.306a1.211 1.211 0 0 1-.454-.092l-70.454-30.402a1.462 1.462 0 0 1-.642-.798 1.77 1.77 0 0 1-.022-1.096c.108-.356.325-.653.608-.833.284-.18.615-.231.929-.144l70.436 30.392c.29.123.534.362.688.675.154.313.209.679.154 1.035a1.604 1.604 0 0 1-.451.908 1.198 1.198 0 0 1-.844.355h.052Z" fill="#00033B"/><path opacity=".1" d="M687.307 279.586c4.2-57.002 16.953-106.103 23.804-126.705.316-.951-.811-1.726-1.593-1.099-56.34 45.247-96.433 106.17-110.505 132.937-.372.708.233 1.509 1.028 1.417 48.271-5.578 76.822-6.09 86.206-5.611a1.011 1.011 0 0 0 1.06-.939Z" fill="#00033B"/><path d="M688.946 287.737c4.082-61.634 16.51-114.718 23.161-136.899.291-.97-.882-1.705-1.638-1.031-54.805 48.911-93.775 114.767-107.375 143.561-.336.711.278 1.476 1.059 1.376 46.835-6.012 74.566-6.572 83.726-6.059a1.014 1.014 0 0 0 1.067-.948Z" fill="url(#f)"/><path d="m713.721 172.483 61.15-28.15s16.63 96.9 67.29 141.89l-90.313 7.229-16.607 1.641-21.52 1.14v-123.75Z" fill="url(#g)"/><rect x="750.814" y="295.118" width="81.216" height="22.212" rx="1" transform="rotate(-2.59 750.814 295.118)" fill="url(#h)"/><rect x="747.888" y="288.884" width="86.508" height="6.94" rx="1" transform="rotate(-2.59 747.888 288.884)" fill="url(#i)"/><path fill-rule="evenodd" clip-rule="evenodd" d="M568.496 278.152a1.002 1.002 0 0 0-1.341.451 1.002 1.002 0 0 0 .451 1.341l57.238 28.413 1.837 3.784c5.169 10.685 12.639 19.82 21.76 26.609l8.4 6.27h187.55l17.68-16.615 19.22-4.492 12.29-24.478s-42.99 16.879-134.89 16.879c-80.262 0-123.225-7.724-132.819-9.68l-57.376-28.482Z" fill="url(#j)"/><path d="M767.631 315.271a5.34 5.34 0 1 0 0-10.68 5.34 5.34 0 0 0 0 10.68Z" fill="url(#k)"/><path d="M792.601 313.9a5.34 5.34 0 1 0 0-10.68 5.34 5.34 0 0 0 0 10.68Z" fill="url(#l)"/><path d="M816.341 313.142a5.34 5.34 0 1 0 0-10.68 5.34 5.34 0 0 0 0 10.68Z" fill="url(#m)"/><g opacity=".1"><path d="M709.74 374.735a1.211 1.211 0 0 0-.454.092l-70.454 30.402a1.462 1.462 0 0 0-.642.798 1.77 1.77 0 0 0-.022 1.096c.108.356.325.653.608.833.284.18.615.231.929.144l70.436-30.392c.29-.123.534-.362.688-.675.154-.313.209-.679.154-1.035a1.604 1.604 0 0 0-.451-.908 1.198 1.198 0 0 0-.844-.355h.052Z" fill="#006ADD"/><rect width="81.216" height="22.212" rx="1" transform="scale(1 -1) rotate(-2.591 -8400.927 -16799.652)" fill="url(#n)"/><path fill-rule="evenodd" clip-rule="evenodd" d="M568.496 413.889a1.002 1.002 0 0 1-1.341-.451 1.002 1.002 0 0 1 .451-1.341l57.238-28.413 1.837-3.784c5.169-10.685 12.639-19.82 21.76-26.609l8.4-6.27h187.55l17.68 16.615 19.22 4.492 12.29 24.478s-42.99-16.879-134.89-16.879c-80.262 0-123.225 7.724-132.819 9.68l-57.376 28.482Z" fill="url(#o)"/><path d="M639.552 365.954h217.601" stroke="#fff" stroke-linecap="round"/><path d="M767.631 376.77a5.34 5.34 0 1 1 0 10.68 5.34 5.34 0 0 1 0-10.68Z" fill="url(#p)"/><path d="M792.601 378.141a5.34 5.34 0 1 1 0 10.68 5.34 5.34 0 0 1 0-10.68Z" fill="url(#q)"/><path d="M816.341 378.899a5.34 5.34 0 1 1 0 10.68 5.34 5.34 0 0 1 0-10.68Z" fill="url(#r)"/></g><path fill-rule="evenodd" clip-rule="evenodd" d="M713.504 100.196a2.5 2.5 0 0 1 2.5 2.5v212.11a2.5 2.5 0 0 1-5 0v-212.11a2.5 2.5 0 0 1 2.5-2.5Z" fill="#00033B"/><path fill="url(#s)" d="M0 1.001h246.573v394.27H0z"/><path transform="rotate(-180 1366 395.271)" fill="url(#t)" d="M1366 395.271h246.573v394.27H1366z"/><path d="M636.267 323.334c43.762 12.678 182.546 9.624 221.59 3.851" stroke="#fff" stroke-linecap="round"/></g><defs><linearGradient id="d" x1="569.632" y1="145.069" x2="569.632" y2="175.187" gradientUnits="userSpaceOnUse"><stop stop-color="#fff"/><stop offset="1" stop-color="#AED0FF"/></linearGradient><linearGradient id="e" x1="583.652" y1="292.603" x2="721.434" y2="53.697" gradientUnits="userSpaceOnUse"><stop stop-color="#AED0FF"/><stop offset="1" stop-color="#fff"/></linearGradient><linearGradient id="f" x1="602.342" y1="299.697" x2="713.16" y2="114.003" gradientUnits="userSpaceOnUse"><stop stop-color="#AED0FF"/><stop offset="1" stop-color="#fff"/></linearGradient><linearGradient id="g" x1="777.941" y1="168.483" x2="777.941" y2="330.457" gradientUnits="userSpaceOnUse"><stop stop-color="#E6F0FF"/><stop offset="1" stop-color="#87BAFF"/></linearGradient><linearGradient id="h" x1="867.967" y1="347.216" x2="718.184" y2="257.372" gradientUnits="userSpaceOnUse"><stop offset=".13" stop-color="#87BAFF"/><stop offset=".534" stop-color="#CDE2FF"/><stop offset=".945" stop-color="#fff"/></linearGradient><linearGradient id="i" x1="737.478" y1="311.31" x2="901.389" y2="242.494" gradientUnits="userSpaceOnUse"><stop offset=".078" stop-color="#00033B"/><stop offset=".462" stop-color="#006DFF" stop-opacity=".964"/><stop offset=".705" stop-color="#fff"/></linearGradient><linearGradient id="j" x1="887.861" y1="383.51" x2="195.976" y2="88.933" gradientUnits="userSpaceOnUse"><stop offset=".13" stop-color="#00033B"/><stop offset=".495" stop-color="#006DFF" stop-opacity=".964"/><stop offset=".82" stop-color="#fff"/></linearGradient><linearGradient id="k" x1="767.631" y1="304.591" x2="767.631" y2="315.271" gradientUnits="userSpaceOnUse"><stop stop-color="#87BAFF"/><stop offset="1" stop-color="#006ADD" stop-opacity="0"/></linearGradient><linearGradient id="l" x1="792.601" y1="303.22" x2="792.601" y2="313.9" gradientUnits="userSpaceOnUse"><stop stop-color="#87BAFF"/><stop offset="1" stop-color="#006ADD" stop-opacity="0"/></linearGradient><linearGradient id="m" x1="816.341" y1="302.462" x2="816.341" y2="313.142" gradientUnits="userSpaceOnUse"><stop stop-color="#87BAFF"/><stop offset="1" stop-color="#006ADD" stop-opacity="0"/></linearGradient><linearGradient id="n" x1="41.177" y1="-17.04" x2="41.325" y2="48.568" gradientUnits="userSpaceOnUse"><stop offset=".197" stop-color="#006DFF" stop-opacity=".964"/><stop offset=".9" stop-color="#fff" stop-opacity="0"/></linearGradient><linearGradient id="o" x1="732.602" y1="465.37" x2="732.936" y2="267.553" gradientUnits="userSpaceOnUse"><stop offset=".197" stop-color="#006DFF" stop-opacity=".964"/><stop offset=".9" stop-color="#fff" stop-opacity="0"/></linearGradient><linearGradient id="p" x1="767.706" y1="395.643" x2="767.966" y2="364.1" gradientUnits="userSpaceOnUse"><stop offset=".197" stop-color="#006DFF" stop-opacity=".964"/><stop offset=".9" stop-color="#fff" stop-opacity="0"/></linearGradient><linearGradient id="q" x1="792.676" y1="397.014" x2="792.935" y2="365.471" gradientUnits="userSpaceOnUse"><stop offset=".197" stop-color="#006DFF" stop-opacity=".964"/><stop offset=".9" stop-color="#fff" stop-opacity="0"/></linearGradient><linearGradient id="r" x1="816.416" y1="397.772" x2="816.676" y2="366.229" gradientUnits="userSpaceOnUse"><stop offset=".197" stop-color="#006DFF" stop-opacity=".964"/><stop offset=".9" stop-color="#fff" stop-opacity="0"/></linearGradient><linearGradient id="s" x1="15.508" y1="222.019" x2="236.822" y2="219.133" gradientUnits="userSpaceOnUse"><stop offset=".085" stop-color="#fff"/><stop offset="1" stop-color="#fff" stop-opacity="0"/></linearGradient><linearGradient id="t" x1="1381.51" y1="616.289" x2="1602.82" y2="613.402" gradientUnits="userSpaceOnUse"><stop offset=".085" stop-color="#fff"/><stop offset="1" stop-color="#fff" stop-opacity="0"/></linearGradient><radialGradient id="b" cx="0" cy="0" r="1" gradientUnits="userSpaceOnUse" gradientTransform="matrix(8.89942 727.24855 -2519.65135 30.83326 658.062 -122.804)"><stop offset=".179" stop-color="#CDE2FF"/><stop offset=".517" stop-color="#F5F9FF"/><stop offset=".912" stop-color="#fff"/></radialGradient><radialGradient id="c" cx="0" cy="0" r="1" gradientUnits="userSpaceOnUse" gradientTransform="matrix(.00033 188.448 -3737.39 .00652 683 299.656)"><stop stop-color="#CDE2FF"/><stop offset=".467" stop-color="#fff"/></radialGradient><clipPath id="a"><path fill="#fff" transform="translate(0 .54)" d="M0 0h1366v394.27H0z"/></clipPath></defs></svg>