<svg width="1366" height="395" viewBox="0 0 1366 395" fill="none" xmlns="http://www.w3.org/2000/svg"><g clip-path="url(#a)"><path transform="translate(0 .08)" fill="url(#b)" d="M0 0h1366v394.27H0z"/><path fill="url(#c)" d="M0 255.471h1366v137.555H0z"/><path opacity=".05" fill="url(#d)" d="M564.721 344.693h27.911v29.264h-27.911z"/><path opacity=".05" fill="url(#e)" d="M773.368 344.693h27.911v29.264h-27.911z"/><g clip-path="url(#f)"><path d="m613.643 217.442-1.76 10.714-1.878 11.515-17.185 105.022h-28.099l17.185-105.022 1.878-11.515 1.748-10.714h28.111Z" fill="url(#g)"/><path d="m752.368 217.442 1.748 10.714 1.878 11.515 17.186 105.022h28.099l-17.174-105.022-1.89-11.515-1.748-10.714h-28.099Z" fill="url(#h)"/><path d="M612.616 187.89h-22.288l2.776-20.699h16.736l2.776 20.699Z" fill="url(#i)"/><path d="M622.243 152.392c0 11.432-9.296 20.698-20.765 20.698-11.469 0-20.764-9.266-20.764-20.698 0-11.433 9.295-20.699 20.764-20.699s20.765 9.266 20.765 20.699Z" fill="url(#j)"/><path opacity=".9" d="M616.963 149.307c2.102 11.091-7.465 20.628-18.58 18.52-6.212-1.177-11.22-6.169-12.402-12.362-2.102-11.091 7.465-20.628 18.58-18.521 6.212 1.178 11.22 6.17 12.402 12.363Z" fill="url(#k)"/><path d="M775.187 187.89h-22.276l2.764-20.699h16.748l2.764 20.699Z" fill="url(#l)"/><path d="M784.814 152.392c0 11.432-9.296 20.698-20.764 20.698-11.469 0-20.765-9.266-20.765-20.698 0-11.433 9.296-20.699 20.765-20.699 11.468 0 20.764 9.266 20.764 20.699Z" fill="url(#m)"/><path opacity=".9" d="M779.829 152.392c0 8.689-7.063 15.729-15.779 15.729-8.717 0-15.78-7.04-15.78-15.729s7.063-15.73 15.78-15.73c8.716 0 15.779 7.041 15.779 15.73Z" fill="url(#n)"/><path d="M815.464 177.34H550.536c-4.162 0-7.536 3.363-7.536 7.512v38.359c0 4.149 3.374 7.512 7.536 7.512h264.928c4.162 0 7.536-3.363 7.536-7.512v-38.359c0-4.149-3.374-7.512-7.536-7.512Z" fill="#F5F9FF"/><path d="m600.545 177.34-20.327 53.383h-30.19c-2.882 0-4.866-2.873-3.851-5.557l18.213-47.837h36.155v.011Z" fill="url(#o)"/><path d="m674.673 177.34-20.315 53.383H618.18l20.327-53.383h36.166Z" fill="url(#p)"/><path d="m748.79 177.34-20.328 53.383h-36.154l20.315-53.383h36.167Z" fill="url(#q)"/><path d="m820.626 183.333-18.036 47.39h-36.178l20.327-53.383h29.741c3.107 0 5.257 3.097 4.158 5.993h-.012Z" fill="url(#r)"/><path d="M811.65 280.079H554.351c-3.137 0-5.681 2.535-5.681 5.663v22.464c0 3.128 2.544 5.663 5.681 5.663H811.65c3.137 0 5.681-2.535 5.681-5.663v-22.464c0-3.128-2.544-5.663-5.681-5.663Z" fill="#fff"/><path d="m603.888 280.079-19.5 33.79h-30.403c-1.901 0-3.106-2.06-2.149-3.708l17.362-30.082h34.69Z" fill="url(#s)"/><path d="m675.016 280.079-19.501 33.79h-34.713l19.5-33.79h34.714Z" fill="url(#t)"/><path d="m746.12 280.079-19.5 33.79h-34.69l19.5-33.79h34.69Z" fill="url(#u)"/><path d="m814.945 284.082-17.197 29.787h-34.714l19.501-33.79h30.083c2.055 0 3.343 2.213 2.315 3.991l.012.012Z" fill="url(#v)"/></g><g clip-path="url(#w)"><path d="M478.457 229.693a1 1 0 0 0-.962.725l-29.329 102.486h66.008l-29.329-102.486a1 1 0 0 0-.962-.725h-5.426Z" fill="url(#x)"/><path d="m469.669 257.787-4.941 17.254h32.885l-4.931-17.254h-23.013ZM506.202 305.164l-4.859-17.087h-40.345l-5.017 17.087h50.221Z" fill="#fff"/><path d="M530.67 336.051h-99a1 1 0 0 0-1 1v6.642a1 1 0 0 0 1 1h99a1 1 0 0 0 1-1v-6.642a1 1 0 0 0-1-1Z" fill="url(#y)"/><path d="M520.729 336.051h-79.118l6.555-3.147h66.008l6.555 3.147Z" fill="url(#z)"/></g><path opacity=".05" fill="url(#A)" d="M430.67 344.693h101v29.264h-101z"/><path opacity=".05" fill="url(#B)" d="M834.33 344.693h101v29.264h-101z"/><g clip-path="url(#C)"><path d="M882.117 229.693a1 1 0 0 0-.962.725l-29.329 102.486h66.008l-29.329-102.486a1 1 0 0 0-.961-.725h-5.427Z" fill="url(#D)"/><path d="m873.329 257.787-4.941 17.254h32.886l-4.932-17.254h-23.013ZM909.862 305.164l-4.859-17.087h-40.345l-5.016 17.087h50.22Z" fill="#fff"/><path d="M934.33 336.051h-99a1 1 0 0 0-1 1v6.642a1 1 0 0 0 1 1h99a1 1 0 0 0 1-1v-6.642a1 1 0 0 0-1-1Z" fill="url(#E)"/><path d="M924.389 336.051h-79.118l6.555-3.147h66.008l6.555 3.147Z" fill="url(#F)"/></g><path fill="url(#G)" d="M-1-1.244h246.573v394.27H-1z"/><path transform="rotate(-180 1366 393.021)" fill="url(#H)" d="M1366 393.021h246.573v394.27H1366z"/></g><defs><linearGradient id="d" x1="580.809" y1="347.485" x2="580.744" y2="373.959" gradientUnits="userSpaceOnUse"><stop stop-color="#00033B"/><stop offset="1" stop-color="#fff" stop-opacity="0"/></linearGradient><linearGradient id="e" x1="789.456" y1="347.485" x2="789.391" y2="373.959" gradientUnits="userSpaceOnUse"><stop stop-color="#00033B"/><stop offset="1" stop-color="#fff" stop-opacity="0"/></linearGradient><linearGradient id="g" x1="589.182" y1="416.677" x2="584.005" y2="74.201" gradientUnits="userSpaceOnUse"><stop stop-color="#E2EEFF"/><stop offset=".342" stop-color="#B1D2FF"/><stop offset=".539" stop-color="#62A5FF"/></linearGradient><linearGradient id="h" x1="776.824" y1="503.137" x2="771.548" y2="69.48" gradientUnits="userSpaceOnUse"><stop offset=".427" stop-color="#B1D2FF"/><stop offset=".683" stop-color="#62A5FF"/></linearGradient><linearGradient id="i" x1="601.407" y1="219.655" x2="601.759" y2="35.725" gradientUnits="userSpaceOnUse"><stop stop-color="#F5F9FF"/><stop offset=".07" stop-color="#E2EEFF"/><stop offset=".22" stop-color="#B1D2FF"/><stop offset=".43" stop-color="#62A5FF"/><stop offset=".67" stop-color="#006DFF"/></linearGradient><linearGradient id="l" x1="763.99" y1="219.962" x2="764.342" y2="36.031" gradientUnits="userSpaceOnUse"><stop stop-color="#F5F9FF"/><stop offset=".07" stop-color="#E2EEFF"/><stop offset=".22" stop-color="#B1D2FF"/><stop offset=".43" stop-color="#62A5FF"/><stop offset=".67" stop-color="#006DFF"/></linearGradient><linearGradient id="o" x1="418.921" y1="338.153" x2="656.829" y2="135.756" gradientUnits="userSpaceOnUse"><stop offset=".527" stop-color="#202D66"/><stop offset=".796" stop-color="#006DFF"/></linearGradient><linearGradient id="p" x1="500.942" y1="286.94" x2="897.548" y2="93.722" gradientUnits="userSpaceOnUse"><stop offset=".247" stop-color="#202D66"/><stop offset=".489" stop-color="#006DFF"/></linearGradient><linearGradient id="x" x1="534.5" y1="209.782" x2="368.041" y2="379.937" gradientUnits="userSpaceOnUse"><stop stop-color="#CDE2FF"/><stop offset=".299" stop-color="#006DFF"/><stop offset=".867" stop-color="#00033B"/></linearGradient><linearGradient id="y" x1="424.152" y1="356.966" x2="590.762" y2="298.882" gradientUnits="userSpaceOnUse"><stop offset=".049" stop-color="#00033B"/><stop offset=".432" stop-color="#006DFF"/><stop offset="1" stop-color="#fff"/></linearGradient><linearGradient id="z" x1="455.157" y1="336.053" x2="504.481" y2="325.826" gradientUnits="userSpaceOnUse"><stop stop-color="#00033B"/><stop offset=".375" stop-color="#002B84"/><stop offset="1" stop-color="#006DFF"/></linearGradient><linearGradient id="A" x1="488.886" y1="347.485" x2="488.868" y2="373.959" gradientUnits="userSpaceOnUse"><stop stop-color="#00033B"/><stop offset="1" stop-color="#fff" stop-opacity="0"/></linearGradient><linearGradient id="B" x1="892.546" y1="347.485" x2="892.528" y2="373.959" gradientUnits="userSpaceOnUse"><stop stop-color="#00033B"/><stop offset="1" stop-color="#fff" stop-opacity="0"/></linearGradient><linearGradient id="D" x1="876.139" y1="189.643" x2="771.701" y2="379.937" gradientUnits="userSpaceOnUse"><stop stop-color="#CDE2FF"/><stop offset=".299" stop-color="#006DFF"/><stop offset=".867" stop-color="#00033B"/></linearGradient><linearGradient id="E" x1="827.812" y1="356.966" x2="994.422" y2="298.882" gradientUnits="userSpaceOnUse"><stop offset=".049" stop-color="#00033B"/><stop offset=".432" stop-color="#006DFF"/><stop offset="1" stop-color="#fff"/></linearGradient><linearGradient id="F" x1="858.817" y1="336.053" x2="908.141" y2="325.826" gradientUnits="userSpaceOnUse"><stop stop-color="#00033B"/><stop offset=".375" stop-color="#002B84"/><stop offset="1" stop-color="#006DFF"/></linearGradient><linearGradient id="G" x1="14.508" y1="219.774" x2="235.822" y2="216.887" gradientUnits="userSpaceOnUse"><stop offset=".085" stop-color="#fff"/><stop offset="1" stop-color="#fff" stop-opacity="0"/></linearGradient><linearGradient id="H" x1="1381.51" y1="614.039" x2="1602.82" y2="611.153" gradientUnits="userSpaceOnUse"><stop offset=".085" stop-color="#fff"/><stop offset="1" stop-color="#fff" stop-opacity="0"/></linearGradient><radialGradient id="b" cx="0" cy="0" r="1" gradientUnits="userSpaceOnUse" gradientTransform="rotate(88.746 373.247 286.69) scale(697.353 2416.07)"><stop offset=".134" stop-color="#CDE2FF"/><stop offset=".546" stop-color="#F5F9FF"/><stop offset=".912" stop-color="#fff"/></radialGradient><radialGradient id="c" cx="0" cy="0" r="1" gradientUnits="userSpaceOnUse" gradientTransform="matrix(0 376.351 -3737.39 0 683 202.997)"><stop stop-color="#CDE2FF"/><stop offset=".467" stop-color="#fff"/></radialGradient><radialGradient id="j" cx="0" cy="0" r="1" gradientUnits="userSpaceOnUse" gradientTransform="matrix(170.261 0 0 169.719 590.399 198.027)"><stop offset=".03" stop-color="#202D66"/><stop offset=".17" stop-color="#154299"/><stop offset=".3" stop-color="#0C54C5"/><stop offset=".43" stop-color="#0562E4"/><stop offset=".53" stop-color="#016AF8"/><stop offset=".6" stop-color="#006DFF"/></radialGradient><radialGradient id="k" cx="0" cy="0" r="1" gradientUnits="userSpaceOnUse" gradientTransform="matrix(15.78 0 0 15.7298 601.478 152.392)"><stop stop-color="#D3E5FF"/><stop offset=".11" stop-color="#DBE9FF"/><stop offset=".61" stop-color="#fff"/></radialGradient><radialGradient id="m" cx="0" cy="0" r="1" gradientUnits="userSpaceOnUse" gradientTransform="matrix(94.5262 0 0 94.2258 747.147 183.569)"><stop offset=".03" stop-color="#202D66"/><stop offset=".17" stop-color="#154299"/><stop offset=".3" stop-color="#0C54C5"/><stop offset=".43" stop-color="#0562E4"/><stop offset=".53" stop-color="#016AF8"/><stop offset=".6" stop-color="#006DFF"/></radialGradient><radialGradient id="n" cx="0" cy="0" r="1" gradientUnits="userSpaceOnUse" gradientTransform="matrix(15.78 0 0 15.7298 764.05 152.392)"><stop stop-color="#D3E5FF"/><stop offset=".11" stop-color="#DBE9FF"/><stop offset=".61" stop-color="#fff"/></radialGradient><radialGradient id="q" cx="0" cy="0" r="1" gradientUnits="userSpaceOnUse" gradientTransform="matrix(612.679 0 0 610.731 499.842 349.073)"><stop offset=".3" stop-color="#202D66"/><stop offset=".38" stop-color="#154299"/><stop offset=".45" stop-color="#0C54C5"/><stop offset=".51" stop-color="#0562E4"/><stop offset=".56" stop-color="#016AF8"/><stop offset=".6" stop-color="#006DFF"/></radialGradient><radialGradient id="r" cx="0" cy="0" r="1" gradientUnits="userSpaceOnUse" gradientTransform="rotate(-37.875 803.19 -807.879) scale(413.389 412.075)"><stop offset=".03" stop-color="#202D66"/><stop offset=".12" stop-color="#1D3170"/><stop offset=".27" stop-color="#173D8E"/><stop offset=".47" stop-color="#0D51BD"/><stop offset=".71" stop-color="#006DFF"/></radialGradient><radialGradient id="s" cx="0" cy="0" r="1" gradientUnits="userSpaceOnUse" gradientTransform="rotate(-22.6 1181.375 -1129.286) scale(226.906 226.184)"><stop offset=".03" stop-color="#202D66"/><stop offset=".1" stop-color="#1E306D"/><stop offset=".2" stop-color="#1A3881"/><stop offset=".33" stop-color="#1346A2"/><stop offset=".47" stop-color="#0959CF"/><stop offset=".6" stop-color="#006DFF"/></radialGradient><radialGradient id="t" cx="0" cy="0" r="1" gradientUnits="userSpaceOnUse" gradientTransform="matrix(299.595 0 0 298.643 590.128 361.659)"><stop offset=".03" stop-color="#202D66"/><stop offset=".13" stop-color="#1B367D"/><stop offset=".36" stop-color="#0E4FB8"/><stop offset=".6" stop-color="#006DFF"/></radialGradient><radialGradient id="u" cx="0" cy="0" r="1" gradientUnits="userSpaceOnUse" gradientTransform="matrix(299.595 0 0 298.643 590.128 361.659)"><stop offset=".29" stop-color="#202D66"/><stop offset=".42" stop-color="#154299"/><stop offset=".54" stop-color="#0C54C5"/><stop offset=".65" stop-color="#0562E4"/><stop offset=".75" stop-color="#016AF8"/><stop offset=".81" stop-color="#006DFF"/></radialGradient><radialGradient id="v" cx="0" cy="0" r="1" gradientUnits="userSpaceOnUse" gradientTransform="matrix(289.307 0 0 288.388 596.341 361.659)"><stop offset=".03" stop-color="#202D66"/><stop offset=".15" stop-color="#1E2F6B"/><stop offset=".3" stop-color="#1B367C"/><stop offset=".47" stop-color="#154196"/><stop offset=".66" stop-color="#0D51BC"/><stop offset=".86" stop-color="#0464EB"/><stop offset=".93" stop-color="#006DFF"/></radialGradient><clipPath id="a"><path fill="#fff" transform="translate(0 .08)" d="M0 0h1366v394.27H0z"/></clipPath><clipPath id="f"><path fill="#fff" transform="translate(543 131.693)" d="M0 0h280v213H0z"/></clipPath><clipPath id="w"><path fill="#fff" transform="translate(430.67 229.693)" d="M0 0h101v115H0z"/></clipPath><clipPath id="C"><path fill="#fff" transform="translate(834.33 229.693)" d="M0 0h101v115H0z"/></clipPath></defs></svg>