<svg width="1366" height="396" viewBox="0 0 1366 396" fill="none" xmlns="http://www.w3.org/2000/svg"><g clip-path="url(#a)"><path transform="translate(0 .81)" fill="url(#b)" d="M0 0h1366v394.27H0z"/><path fill="url(#c)" d="M0 256.201h1366v137.555H0z"/><path fill="url(#d)" d="M-1-.514h246.573v394.27H-1z"/><path transform="rotate(-180 1366 393.751)" fill="url(#e)" d="M1366 393.751h246.573v394.27H1366z"/><path opacity=".1" fill="url(#f)" d="M531.938 308.552h302.125v72.394H531.938z"/><g clip-path="url(#g)"><path d="M818.18 261.159V117.268c0-6.813-5.604-12.385-12.456-12.385H560.275c-6.853 0-12.456 5.572-12.456 12.385v143.891H818.18Z" fill="url(#h)"/><path d="M810.944 261.159V125.184c0-6.473-5.321-11.763-11.831-11.763H566.866c-6.49 0-11.831 5.29-11.831 11.763v135.975H810.944Z" fill="url(#i)"/><path d="m533.631 261.159 14.189-27.776h270.36l14.189 27.776H533.631Z" fill="url(#j)"/><path d="m541.834 257.011 9.977-19.5H814.19l9.976 19.5H541.834Z" fill="url(#k)"/><path d="M533.631 261.159v50.582c0 11.143 9.17 20.281 20.397 20.281h257.985c11.206 0 20.397-9.118 20.397-20.281v-50.582H533.631Z" fill="url(#l)"/><path d="M834.062 332.683v-23.748a22.472 22.472 0 0 0-6.893-1.102c-12.234 0-22.15 9.86-22.15 22.025 0 .962.08 1.904.201 2.845h28.842v-.02Z" fill="url(#m)"/><path d="M816.325 322.222c0-3.046 2.479-5.511 5.543-5.511 3.063 0 5.542 2.465 5.542 5.511 0 3.046-2.479 5.511-5.542 5.511-3.064 0-5.543-2.465-5.543-5.511Z" fill="#00033B"/><path d="M531.938 332.683v-23.748a22.463 22.463 0 0 1 6.893-1.102c12.234 0 22.15 9.86 22.15 22.025 0 .962-.081 1.904-.202 2.845h-28.841v-.02Z" fill="url(#n)"/><path d="M549.674 322.222c0-3.046-2.479-5.511-5.542-5.511-3.064 0-5.543 2.465-5.543 5.511 0 3.046 2.479 5.511 5.543 5.511 3.063 0 5.542-2.465 5.542-5.511ZM656.033 276.49h-10.582a2.612 2.612 0 0 0-2.62 2.605v6.533a2.613 2.613 0 0 0 2.62 2.606h10.582a2.613 2.613 0 0 0 2.62-2.606v-6.533a2.612 2.612 0 0 0-2.62-2.605ZM720.549 276.49h-10.581a2.612 2.612 0 0 0-2.62 2.605v6.533a2.613 2.613 0 0 0 2.62 2.606h10.581a2.613 2.613 0 0 0 2.62-2.606v-6.533a2.612 2.612 0 0 0-2.62-2.605Z" fill="#00033B"/><path d="M648.494 285.248c10.945 22.345 58.087 22.345 69.011 0 2.117-4.329-4.373-8.117-6.51-3.788-8.546 17.455-47.465 17.455-56.011 0-2.136-4.349-8.626-.541-6.51 3.788h.02Z" fill="url(#o)"/></g><g clip-path="url(#p)"><path d="M721.46 251.697c6.634-8.848 19.712-10.45 30.814-10.491 11.101-.041 22.348 1.9 33.215-.368 4.73-.987 9.599-2.764 14.256-1.487 5.923 1.625 9.425 7.607 11.628 13.299 4.933 12.746 6.486 26.51 7.66 40.119a837.723 837.723 0 0 1 2.553 41.454c.174 4.772.091 10.13-3.305 13.518-2.614 2.61-6.53 3.335-10.187 3.935-3.918.641-7.836 1.283-11.753 1.928-1.015.167-2.089.327-3.044-.048-1.131-.441-1.851-1.528-2.452-2.575-9.18-15.99-7.267-35.739-11.071-53.758-.196-.925-.475-1.943-1.291-2.429-.733-.437-1.66-.293-2.509-.169-12.078 1.763-24.932-4.102-31.442-14.343-2.473-3.893-4.092-8.328-7.041-11.881-5.328-6.408-17.026-11.552-21.149-11.241 1.77-1.374 3.704-3.578 5.118-5.463Z" fill="url(#q)"/><path opacity=".1" d="M768.387 295.017c2.529.27 5.087.237 7.613-.132.849-.123 1.776-.267 2.509.17.802.479 1.084 1.473 1.281 2.384.003-14.744-1.063-29.72-6.503-43.408a89.352 89.352 0 0 1-1.534 33.774c-.609 2.524-2.22 4.839-3.363 7.21l-.003.002ZM799.085 353.417l7.476-1.225c-.727-1.408-1.182-3.073-1.498-4.598l-7.615-36.674c-1.841 12.661 1.835 25.44 1.949 38.232.012 1.396-.058 2.864-.312 4.268v-.003ZM803.58 241.434c8.184 16.605 9.474 35.759 10.589 54.29.97 16.09 1.941 32.182 2.908 48.272.1 1.678.193 3.4-.037 5.054a9.526 9.526 0 0 0 1.264-1.048c3.396-3.388 3.479-8.746 3.305-13.518a837.796 837.796 0 0 0-2.552-41.454c-1.178-13.609-2.728-27.37-7.66-40.119-1.682-4.346-4.124-8.859-7.817-11.474v-.003Z" fill="#00033B"/></g><path opacity=".1" fill-rule="evenodd" clip-rule="evenodd" d="M529.046 179.947c23.724 29.06 65.847 36.824 98.681 16.651l.009-.018c35.801-22.004 46.987-68.84 24.983-104.64-22.004-35.802-68.84-46.987-104.641-24.984-32.977 20.28-45.041 61.609-29.548 95.987a79.69 79.69 0 0 0 4.565 8.654 74.373 74.373 0 0 0 5.951 8.35Zm26.425-100.952c29.159-17.918 67.309-8.812 85.227 20.347l.009.026c17.918 29.159 8.812 67.309-20.347 85.227-26.192 16.088-59.629 10.359-79.159-12.094a61.608 61.608 0 0 1-6.086-8.262 62.448 62.448 0 0 1-4.457-8.734c-11.488-27.664-1.513-60.335 24.813-76.51ZM478.595 187.49l39.934-24.542a79.432 79.432 0 0 0 4.565 8.654 74.336 74.336 0 0 0 5.951 8.35l-39.996 24.578c-4.491 2.759-10.439 1.33-13.198-3.161l-.416-.681c-2.759-4.491-1.33-10.439 3.16-13.198Z" fill="#00033B"/><path d="m514.489 156.99-39.933 24.542c-4.491 2.759-5.92 8.707-3.16 13.198l.415.682c2.76 4.49 8.708 5.919 13.198 3.16l39.996-24.578a74.373 74.373 0 0 1-5.951-8.35 79.69 79.69 0 0 1-4.565-8.654Z" fill="url(#r)"/><path d="M623.684 190.648c-32.834 20.173-74.957 12.409-98.681-16.651a74.373 74.373 0 0 1-5.951-8.35 79.69 79.69 0 0 1-4.565-8.654c-15.493-34.378-3.429-75.707 29.548-95.986 35.801-22.005 82.637-10.819 104.641 24.982 22.004 35.801 10.818 82.637-24.983 104.641l-.009.018Zm12.971-97.256c-17.918-29.159-56.068-38.265-85.227-20.347-26.326 16.175-36.301 48.846-24.813 76.51a62.393 62.393 0 0 0 4.457 8.734 61.608 61.608 0 0 0 6.086 8.262c19.53 22.453 52.967 28.182 79.159 12.094 29.159-17.918 38.265-56.068 20.347-85.226l-.009-.027Z" fill="url(#s)"/><path opacity=".6" d="M555.805 181.071c-30.516-15.488-42.699-52.782-27.211-83.298 15.488-30.516 52.782-42.699 83.298-27.21 30.516 15.488 42.699 52.781 27.211 83.297-15.488 30.517-52.782 42.699-83.298 27.211Z" fill="url(#t)"/></g><defs><linearGradient id="d" x1="14.508" y1="220.504" x2="235.822" y2="217.617" gradientUnits="userSpaceOnUse"><stop offset=".085" stop-color="#fff"/><stop offset="1" stop-color="#fff" stop-opacity="0"/></linearGradient><linearGradient id="e" x1="1381.51" y1="614.769" x2="1602.82" y2="611.883" gradientUnits="userSpaceOnUse"><stop offset=".085" stop-color="#fff"/><stop offset="1" stop-color="#fff" stop-opacity="0"/></linearGradient><linearGradient id="f" x1="683" y1="308.552" x2="683" y2="412.277" gradientUnits="userSpaceOnUse"><stop stop-color="#00033B"/><stop offset="1" stop-color="#fff" stop-opacity="0"/></linearGradient><linearGradient id="h" x1="625.505" y1="243.574" x2="744.313" y2="10.66" gradientUnits="userSpaceOnUse"><stop stop-color="#00033B"/><stop offset="1" stop-color="#006DFF"/></linearGradient><linearGradient id="i" x1="722.485" y1="9.793" x2="690.282" y2="304.125" gradientUnits="userSpaceOnUse"><stop offset=".229" stop-color="#fff"/><stop offset=".717" stop-color="#87BAFF"/></linearGradient><linearGradient id="j" x1="861.618" y1="151.726" x2="683.094" y2="261.312" gradientUnits="userSpaceOnUse"><stop stop-color="#fff"/><stop offset="1" stop-color="#CDE2FF"/></linearGradient><linearGradient id="k" x1="683" y1="222.823" x2="683" y2="257.011" gradientUnits="userSpaceOnUse"><stop stop-color="#006DFF"/><stop offset="1" stop-color="#00033B"/></linearGradient><linearGradient id="l" x1="683.02" y1="229.468" x2="683.02" y2="395.828" gradientUnits="userSpaceOnUse"><stop stop-color="#006DFF"/><stop offset=".842" stop-color="#00033B"/></linearGradient><linearGradient id="m" x1="827.552" y1="304.412" x2="819.554" y2="332.707" gradientUnits="userSpaceOnUse"><stop offset=".141" stop-color="#fff"/><stop offset=".803" stop-color="#CDE2FF"/></linearGradient><linearGradient id="n" x1="549.54" y1="312.183" x2="546.465" y2="332.704" gradientUnits="userSpaceOnUse"><stop stop-color="#fff"/><stop offset="1" stop-color="#CDE2FF"/></linearGradient><linearGradient id="o" x1="682.99" y1="283.629" x2="682.99" y2="302.006" gradientUnits="userSpaceOnUse"><stop stop-color="#F6FAFF"/><stop offset="1" stop-color="#CDE2FF"/></linearGradient><linearGradient id="q" x1="805.894" y1="216.374" x2="732.009" y2="368.192" gradientUnits="userSpaceOnUse"><stop stop-color="#fff"/><stop offset="1" stop-color="#87BAFF"/></linearGradient><linearGradient id="r" x1="396.439" y1="248.393" x2="620.727" y2="110.569" gradientUnits="userSpaceOnUse"><stop stop-color="#006DFF"/><stop offset=".39" stop-color="#104BAD"/><stop offset=".67" stop-color="#1B357A"/><stop offset=".81" stop-color="#202D66"/></linearGradient><linearGradient id="s" x1="418.435" y1="139.93" x2="728.984" y2="113.469" gradientUnits="userSpaceOnUse"><stop stop-color="#006DFF"/><stop offset=".39" stop-color="#104BAD"/><stop offset=".67" stop-color="#1B357A"/><stop offset=".81" stop-color="#202D66"/></linearGradient><radialGradient id="b" cx="0" cy="0" r="1" gradientUnits="userSpaceOnUse" gradientTransform="rotate(88.746 373.247 286.69) scale(697.353 2416.07)"><stop offset=".134" stop-color="#CDE2FF"/><stop offset=".546" stop-color="#F5F9FF"/><stop offset=".912" stop-color="#fff"/></radialGradient><radialGradient id="c" cx="0" cy="0" r="1" gradientUnits="userSpaceOnUse" gradientTransform="matrix(0 376.351 -3737.39 0 683 203.727)"><stop stop-color="#CDE2FF"/><stop offset=".467" stop-color="#fff"/></radialGradient><radialGradient id="t" cx="0" cy="0" r="1" gradientUnits="userSpaceOnUse" gradientTransform="rotate(33.49 82.836 1033.177) scale(108.521)"><stop stop-color="#fff" stop-opacity="0"/><stop offset=".06" stop-color="#fff" stop-opacity=".17"/><stop offset=".14" stop-color="#fff" stop-opacity=".39"/><stop offset=".22" stop-color="#fff" stop-opacity=".58"/><stop offset=".31" stop-color="#fff" stop-opacity=".73"/><stop offset=".39" stop-color="#fff" stop-opacity=".85"/><stop offset=".46" stop-color="#fff" stop-opacity=".93"/><stop offset=".54" stop-color="#fff" stop-opacity=".98"/><stop offset=".61" stop-color="#fff"/></radialGradient><clipPath id="a"><path fill="#fff" transform="translate(0 .81)" d="M0 0h1366v394.27H0z"/></clipPath><clipPath id="g"><path fill="#fff" transform="translate(531.938 104.883)" d="M0 0h302.125v227.8H0z"/></clipPath><clipPath id="p"><path fill="#fff" transform="rotate(-5.057 3121.71 -7975.325)" d="M0 0h99.155v116.251H0z"/></clipPath></defs></svg>