<svg width="1366" height="395" viewBox="0 0 1366 395" fill="none" xmlns="http://www.w3.org/2000/svg"><g clip-path="url(#a)"><g clip-path="url(#b)"><path fill="url(#c)" d="M0 0h1366v394.27H0z"/><path fill="url(#d)" d="M0 225.621h1366v30.535H0z"/><path opacity=".8" fill-rule="evenodd" clip-rule="evenodd" d="M346.605 396.209V256.156h8v140.053h-8Z" fill="url(#e)"/><path opacity=".8" fill-rule="evenodd" clip-rule="evenodd" d="M266.109 396.209V256.156h8v140.053h-8Z" fill="url(#f)"/><path opacity=".8" fill-rule="evenodd" clip-rule="evenodd" d="M185.614 396.209V256.156h8v140.053h-8Z" fill="url(#g)"/><path opacity=".8" fill-rule="evenodd" clip-rule="evenodd" d="M105.119 396.209V256.156h8v140.053h-8Z" fill="url(#h)"/><path opacity=".8" fill-rule="evenodd" clip-rule="evenodd" d="M24.623 396.209V256.156h8v140.053h-8Z" fill="url(#i)"/><path opacity=".8" fill-rule="evenodd" clip-rule="evenodd" d="M1333.97 396.209V256.156h8v140.053h-8Z" fill="url(#j)"/><path opacity=".8" fill-rule="evenodd" clip-rule="evenodd" d="M1253.47 396.209V256.156h8v140.053h-8Z" fill="url(#k)"/><path opacity=".8" fill-rule="evenodd" clip-rule="evenodd" d="M1172.98 396.209V256.156h8v140.053h-8Z" fill="url(#l)"/><path opacity=".8" fill-rule="evenodd" clip-rule="evenodd" d="M1092.48 396.209V256.156h8v140.053h-8Z" fill="url(#m)"/><path opacity=".8" fill-rule="evenodd" clip-rule="evenodd" d="M1011.99 396.209V256.156h8v140.053h-8Z" fill="url(#n)"/><path fill="url(#o)" d="M0 0h1366v231.253H0z"/><path d="M950.94-.179H415.06v394.27h535.88V-.179Z" fill="url(#p)"/><path d="M931.19-.179H445.487v394.27H931.19V-.179Z" fill="url(#q)"/><path d="M861.216 275.501H712.457c-5.523 0-10 4.477-10 10v109.928c0 5.523 4.477 10 10 10h148.759c5.523 0 10-4.477 10-10V285.501c0-5.523-4.477-10-10-10Z" fill="url(#r)"/><rect x="856.185" y="419.118" width="138.695" height="128.3" rx="8" transform="rotate(-180 856.185 419.118)" fill="url(#s)"/><path d="m856.045 297.028 14.754-13.41c0-5.391-5.539-7.617-8.308-8.056H713.129c-6.905-.423-9.535 5.195-9.986 8.056l15.424 13.41h137.478Z" fill="url(#t)"/><path d="M646.358 275.501H497.599c-5.523 0-10 4.477-10 10v109.928c0 5.523 4.477 10 10 10h148.759c5.523 0 10-4.477 10-10V285.501c0-5.523-4.477-10-10-10Z" fill="url(#u)"/><rect x="641.326" y="419.118" width="138.695" height="128.3" rx="8" transform="rotate(-180 641.326 419.118)" fill="url(#v)"/><path d="m641.187 297.028 14.753-13.41c0-5.391-5.538-7.617-8.307-8.056H498.27c-6.904-.423-9.534 5.195-9.986 8.056l15.425 13.41h137.478Z" fill="url(#w)"/><path opacity=".75" stroke="#CDE2FF" stroke-width="8" d="M449.47-9.378V458.55M927.939-9.378V458.55"/><path d="M497.598 115.337h148.759c5.523 0 10-4.477 10-10V-4.591c0-5.523-4.477-10-10-10H497.598c-5.523 0-10 4.477-10 10v109.928c0 5.523 4.477 10 10 10Z" fill="url(#x)"/><rect x="502.63" y="-28.28" width="138.695" height="128.3" rx="8" fill="url(#y)"/><path d="m502.77 93.81-14.754 13.41c0 5.39 5.538 7.617 8.307 8.056h149.363c6.904.423 9.534-5.195 9.986-8.056l-15.425-13.41H502.77Z" fill="url(#z)"/><path d="M714.7 115.337h148.759c5.523 0 10-4.477 10-10V-4.591c0-5.523-4.477-10-10-10H714.7c-5.523 0-10 4.477-10 10v109.928c0 5.523 4.477 10 10 10Z" fill="url(#A)"/><rect x="719.731" y="-28.28" width="138.695" height="128.3" rx="8" fill="url(#B)"/><path d="m719.871 93.81-14.754 13.41c0 5.39 5.539 7.617 8.308 8.056h149.362c6.905.423 9.535-5.195 9.986-8.056l-15.424-13.41H719.871Z" fill="url(#C)"/><g clip-path="url(#D)"><path d="M838.948 244.783a8.339 8.339 0 0 0-2.368-5.826 8.304 8.304 0 0 0-5.759-2.507l-.083-25.526a36.336 36.336 0 0 0-10.645-25.571 36.189 36.189 0 0 0-25.548-10.598h-.095a36.19 36.19 0 0 0-25.558 10.703 36.337 36.337 0 0 0-10.539 25.668l.071 25.49h-.083a8.306 8.306 0 0 0-5.881 2.441 8.343 8.343 0 0 0-2.437 5.893l.167 61.421c0 2.21.876 4.33 2.436 5.893a8.308 8.308 0 0 0 5.881 2.441l72.267-.19a8.316 8.316 0 0 0 5.941-2.465 8.214 8.214 0 0 0 2.376-5.893l-.143-61.374Zm-62.915-8.167-.071-25.49a18.662 18.662 0 0 1 5.412-13.181 18.59 18.59 0 0 1 13.124-5.499 18.603 18.603 0 0 1 13.113 5.448 18.672 18.672 0 0 1 5.47 13.125l.072 25.502-37.12.095Z" fill="#333" fill-opacity=".1"/><path d="M916.128 151.539H762.185c-3.964 0-7.177 3.219-7.177 7.191v43.967c0 3.971 3.213 7.191 7.177 7.191h153.943c3.963 0 7.177-3.22 7.177-7.191V158.73c0-3.972-3.214-7.191-7.177-7.191Z" fill="#333" fill-opacity=".1"/><path d="M913.128 149.539H759.185c-3.964 0-7.177 3.219-7.177 7.191v43.967c0 3.971 3.213 7.191 7.177 7.191h153.943c3.963 0 7.177-3.22 7.177-7.191V156.73c0-3.972-3.214-7.191-7.177-7.191Z" fill="url(#E)"/><path d="M974.265 168.79H877a4 4 0 0 0-4 4v12.418a4 4 0 0 0 4 4h97.265a4 4 0 0 0 4-4V172.79a4 4 0 0 0-4-4Z" fill="url(#F)"/><path fill-rule="evenodd" clip-rule="evenodd" d="M805.984 161.444a1.5 1.5 0 0 1 1.5-1.5H901.4a1.5 1.5 0 0 1 0 3h-93.916a1.5 1.5 0 0 1-1.5-1.5ZM768.913 196.685a1.5 1.5 0 0 1 1.5-1.5h114.745a1.5 1.5 0 1 1 0 3H770.413a1.5 1.5 0 0 1-1.5-1.5ZM890.93 196.685a1.5 1.5 0 0 1 1.5-1.5h8.971a1.5 1.5 0 1 1 0 3h-8.971a1.5 1.5 0 0 1-1.5-1.5ZM797.917 161.444a1.5 1.5 0 0 1 1.5-1.5h1.39a1.5 1.5 0 1 1 0 3h-1.39a1.5 1.5 0 0 1-1.5-1.5ZM768.913 161.444a1.5 1.5 0 0 1 1.5-1.5h22.683a1.5 1.5 0 0 1 0 3h-22.683a1.5 1.5 0 0 1-1.5-1.5Z" fill="#B7C5D9"/><path d="M800.166 168.79h14.46v20.43h-14.46a2.615 2.615 0 0 1-2.614-2.619v-15.192a2.615 2.615 0 0 1 2.614-2.619Z" fill="url(#G)"/><path d="M875.096 164.188h-53.302a5.674 5.674 0 0 0-5.668 5.679v18.276a5.674 5.674 0 0 0 5.668 5.679h53.302a5.673 5.673 0 0 0 5.668-5.679v-18.276a5.673 5.673 0 0 0-5.668-5.679Z" fill="url(#H)"/><path d="M964.719 149.539h-1.342a3.818 3.818 0 0 0-3.815 3.821v50.706a3.818 3.818 0 0 0 3.815 3.822h1.342a3.818 3.818 0 0 0 3.814-3.822V153.36a3.817 3.817 0 0 0-3.814-3.821Z" fill="#C3DDFA"/><path d="m768.915 237.39-.083-28.073a33.787 33.787 0 0 1 2.344-13.101 33.723 33.723 0 0 1 7.221-11.17 33.658 33.658 0 0 1 10.973-7.501 33.592 33.592 0 0 1 26.044-.069 33.66 33.66 0 0 1 11.012 7.442 33.716 33.716 0 0 1 7.28 11.132 33.792 33.792 0 0 1 2.414 13.088l.083 28.05m-12.524 0-.071-28.062a21.223 21.223 0 0 0-6.053-15.281 21.11 21.11 0 0 0-30.244.086 21.185 21.185 0 0 0-5.967 15.314l.071 28.05" fill="url(#I)"/><path d="m840.267 237.248-75.748.199a4.032 4.032 0 0 0-4.017 4.047l.169 64.897a4.032 4.032 0 0 0 4.039 4.025l75.747-.199a4.031 4.031 0 0 0 4.018-4.046l-.17-64.897a4.032 4.032 0 0 0-4.038-4.026Z" fill="url(#J)"/><path d="M802.982 168.802a3.083 3.083 0 0 1 2.2.906 3.108 3.108 0 0 1 .913 2.201v18.18a3.108 3.108 0 0 1-3.113 3.107h-2.175a3.099 3.099 0 0 1-2.193-.91 3.111 3.111 0 0 1-.908-2.197v-18.18a3.11 3.11 0 0 1 1.914-2.871c.377-.156.78-.236 1.187-.236h2.175Z" fill="url(#K)"/><path d="m807.473 275.321 10.575-10.596a3.518 3.518 0 0 0-.074-4.89 3.5 3.5 0 0 0-4.88-.074l-10.564 10.655-10.575-10.596a3.492 3.492 0 0 0-2.499-1.105 3.496 3.496 0 0 0-2.532 1.029 3.498 3.498 0 0 0-1.026 2.536 3.509 3.509 0 0 0 1.103 2.505l10.575 10.596-10.575 10.596a3.512 3.512 0 0 0-.952 2.46 3.511 3.511 0 0 0 3.451 3.458 3.498 3.498 0 0 0 2.455-.954l10.575-10.596 10.575 10.596a3.561 3.561 0 0 0 4.955 0 3.573 3.573 0 0 0 0-4.964l-10.587-10.656Z" fill="#006ADD"/><path d="M815.6 258.725a3.567 3.567 0 0 1 3.345 4.164 3.572 3.572 0 0 1-.861 1.789l-10.575 10.596 10.575 10.596a3.514 3.514 0 0 1-2.484 5.953 3.45 3.45 0 0 1-2.471-1.024l-10.575-10.596-10.575 10.596a3.522 3.522 0 0 1-2.5 1.105 3.501 3.501 0 0 1-3.301-2.193 3.508 3.508 0 0 1 .041-2.737c.19-.43.463-.818.805-1.14l10.575-10.596-10.575-10.596a3.517 3.517 0 0 1 1.085-5.813 3.51 3.51 0 0 1 3.87.848l10.551 10.739 10.575-10.596a3.478 3.478 0 0 1 2.472-1.036m0-3.571a6.974 6.974 0 0 0-4.991 2.083l-8.056 8.013-8.056-8.072a7.06 7.06 0 0 0-10.16-.168 7.106 7.106 0 0 0-1.555 2.352 7.11 7.11 0 0 0 .091 5.529c.385.868.939 1.65 1.631 2.299l8.056 8.072-8.056 8.072a7.092 7.092 0 0 0 .162 9.851 7.063 7.063 0 0 0 9.831.162l8.056-8.072 8.056 8.072a7.055 7.055 0 0 0 10.863-1.074 7.091 7.091 0 0 0 .664-6.64 7.06 7.06 0 0 0-1.534-2.299l-8.056-8.072 8.056-8.072a7.153 7.153 0 0 0-1.105-10.846 7.124 7.124 0 0 0-3.874-1.25l-.023.06Z" fill="#fff"/></g><path fill="url(#L)" d="M0 0h246.573v394.27H0z"/><path transform="rotate(-180 1366 394.27)" fill="url(#M)" d="M1366 394.27h246.573v394.27H1366z"/></g></g><defs><linearGradient id="c" x1="683" y1="0" x2="683" y2="471.227" gradientUnits="userSpaceOnUse"><stop offset=".533" stop-color="#CDE2FF"/><stop offset=".875" stop-color="#fff"/></linearGradient><linearGradient id="d" x1="683" y1="83.807" x2="683" y2="277.784" gradientUnits="userSpaceOnUse"><stop offset=".575" stop-color="#87BAFF"/><stop offset="1" stop-color="#fff"/></linearGradient><linearGradient id="e" x1="363.371" y1="318.764" x2="339.64" y2="322.14" gradientUnits="userSpaceOnUse"><stop stop-color="#87BAFF"/><stop offset=".873" stop-color="#CDE2FF" stop-opacity="0"/></linearGradient><linearGradient id="f" x1="282.874" y1="318.764" x2="259.144" y2="322.14" gradientUnits="userSpaceOnUse"><stop stop-color="#87BAFF"/><stop offset=".873" stop-color="#CDE2FF" stop-opacity="0"/></linearGradient><linearGradient id="g" x1="202.379" y1="318.764" x2="178.649" y2="322.14" gradientUnits="userSpaceOnUse"><stop stop-color="#87BAFF"/><stop offset=".873" stop-color="#CDE2FF" stop-opacity="0"/></linearGradient><linearGradient id="h" x1="121.884" y1="318.764" x2="98.154" y2="322.14" gradientUnits="userSpaceOnUse"><stop stop-color="#87BAFF"/><stop offset=".873" stop-color="#CDE2FF" stop-opacity="0"/></linearGradient><linearGradient id="i" x1="41.388" y1="318.764" x2="17.658" y2="322.14" gradientUnits="userSpaceOnUse"><stop stop-color="#87BAFF"/><stop offset=".873" stop-color="#CDE2FF" stop-opacity="0"/></linearGradient><linearGradient id="j" x1="1350.73" y1="318.764" x2="1327" y2="322.14" gradientUnits="userSpaceOnUse"><stop stop-color="#87BAFF"/><stop offset=".873" stop-color="#CDE2FF" stop-opacity="0"/></linearGradient><linearGradient id="k" x1="1270.24" y1="318.764" x2="1246.51" y2="322.14" gradientUnits="userSpaceOnUse"><stop stop-color="#87BAFF"/><stop offset=".873" stop-color="#CDE2FF" stop-opacity="0"/></linearGradient><linearGradient id="l" x1="1189.74" y1="318.764" x2="1166.01" y2="322.14" gradientUnits="userSpaceOnUse"><stop stop-color="#87BAFF"/><stop offset=".873" stop-color="#CDE2FF" stop-opacity="0"/></linearGradient><linearGradient id="m" x1="1109.25" y1="318.764" x2="1085.52" y2="322.14" gradientUnits="userSpaceOnUse"><stop stop-color="#87BAFF"/><stop offset=".873" stop-color="#CDE2FF" stop-opacity="0"/></linearGradient><linearGradient id="n" x1="1028.75" y1="318.764" x2="1005.02" y2="322.14" gradientUnits="userSpaceOnUse"><stop stop-color="#87BAFF"/><stop offset=".873" stop-color="#CDE2FF" stop-opacity="0"/></linearGradient><linearGradient id="p" x1="683" y1="-141.988" x2="683" y2="515.348" gradientUnits="userSpaceOnUse"><stop stop-color="#fff"/><stop offset=".551" stop-color="#B0D2F8"/><stop offset=".92" stop-color="#fff"/></linearGradient><linearGradient id="q" x1="688.339" y1="-121.857" x2="688.339" y2="484.947" gradientUnits="userSpaceOnUse"><stop offset=".07" stop-color="#fff"/><stop offset=".346" stop-color="#E3EEFF"/><stop offset=".549" stop-color="#CDE2FF"/><stop offset=".731" stop-color="#E3EEFF"/><stop offset=".963" stop-color="#fff" stop-opacity="0"/></linearGradient><linearGradient id="r" x1="786.836" y1="165.819" x2="786.836" y2="616.371" gradientUnits="userSpaceOnUse"><stop offset=".276" stop-color="#AED0FF"/><stop offset=".55" stop-color="#E3EEFF"/><stop offset=".697" stop-color="#fff" stop-opacity="0"/></linearGradient><linearGradient id="s" x1="925.532" y1="407.289" x2="925.532" y2="552.68" gradientUnits="userSpaceOnUse"><stop stop-color="#fff"/><stop offset=".863" stop-color="#CDE2FF"/></linearGradient><linearGradient id="t" x1="786.971" y1="452.998" x2="786.971" y2="215.678" gradientUnits="userSpaceOnUse"><stop offset=".571" stop-color="#fff"/><stop offset=".874" stop-color="#87BAFF"/></linearGradient><linearGradient id="u" x1="571.978" y1="165.819" x2="571.978" y2="616.371" gradientUnits="userSpaceOnUse"><stop offset=".276" stop-color="#AED0FF"/><stop offset=".55" stop-color="#E3EEFF"/><stop offset=".697" stop-color="#fff" stop-opacity="0"/></linearGradient><linearGradient id="v" x1="710.674" y1="407.289" x2="710.674" y2="552.68" gradientUnits="userSpaceOnUse"><stop stop-color="#fff"/><stop offset=".863" stop-color="#CDE2FF"/></linearGradient><linearGradient id="w" x1="572.112" y1="452.998" x2="572.112" y2="215.678" gradientUnits="userSpaceOnUse"><stop offset=".571" stop-color="#fff"/><stop offset=".874" stop-color="#87BAFF"/></linearGradient><linearGradient id="x" x1="571.978" y1="225.019" x2="571.978" y2="-225.533" gradientUnits="userSpaceOnUse"><stop offset=".276" stop-color="#AED0FF"/><stop offset=".55" stop-color="#E3EEFF"/><stop offset=".697" stop-color="#fff" stop-opacity="0"/></linearGradient><linearGradient id="y" x1="571.978" y1="-40.11" x2="571.978" y2="105.281" gradientUnits="userSpaceOnUse"><stop stop-color="#fff"/><stop offset=".863" stop-color="#CDE2FF"/></linearGradient><linearGradient id="z" x1="571.844" y1="63.225" x2="571.844" y2="115.299" gradientUnits="userSpaceOnUse"><stop stop-color="#fff"/><stop offset="1" stop-color="#CDE2FF"/></linearGradient><linearGradient id="A" x1="789.08" y1="225.019" x2="789.08" y2="-225.533" gradientUnits="userSpaceOnUse"><stop offset=".276" stop-color="#AED0FF"/><stop offset=".55" stop-color="#E3EEFF"/><stop offset=".697" stop-color="#fff" stop-opacity="0"/></linearGradient><linearGradient id="B" x1="789.079" y1="-40.11" x2="789.079" y2="105.281" gradientUnits="userSpaceOnUse"><stop stop-color="#fff"/><stop offset=".863" stop-color="#CDE2FF"/></linearGradient><linearGradient id="C" x1="788.945" y1="63.225" x2="788.945" y2="115.299" gradientUnits="userSpaceOnUse"><stop stop-color="#fff"/><stop offset="1" stop-color="#CDE2FF"/></linearGradient><linearGradient id="E" x1="785" y1="157" x2="920.305" y2="207.888" gradientUnits="userSpaceOnUse"><stop stop-color="#fff"/><stop offset="1" stop-color="#D9E9FF" stop-opacity="0"/></linearGradient><linearGradient id="F" x1="886.542" y1="166" x2="957.336" y2="191.881" gradientUnits="userSpaceOnUse"><stop stop-color="#006DFF"/><stop offset="1" stop-color="#012171"/></linearGradient><linearGradient id="G" x1="806.089" y1="168.79" x2="806.089" y2="189.22" gradientUnits="userSpaceOnUse"><stop stop-color="#B0D2F8"/><stop offset="1" stop-color="#006ADD"/></linearGradient><linearGradient id="H" x1="880.764" y1="193.822" x2="767" y2="138" gradientUnits="userSpaceOnUse"><stop stop-color="#B7C5D9"/><stop offset="1" stop-color="#F4F9FF"/></linearGradient><linearGradient id="I" x1="720.5" y1="99.5" x2="832" y2="254.5" gradientUnits="userSpaceOnUse"><stop stop-color="#fff"/><stop offset="1" stop-color="#C0D2EC"/></linearGradient><linearGradient id="J" x1="802.393" y1="237.348" x2="802.584" y2="310.317" gradientUnits="userSpaceOnUse"><stop stop-color="#006DFF"/><stop offset="1" stop-color="#022272"/></linearGradient><linearGradient id="K" x1="801.9" y1="168.802" x2="801.9" y2="193.196" gradientUnits="userSpaceOnUse"><stop stop-color="#B0D2F8"/><stop offset="1" stop-color="#006ADD"/></linearGradient><linearGradient id="L" x1="15.508" y1="221.018" x2="236.822" y2="218.132" gradientUnits="userSpaceOnUse"><stop offset=".085" stop-color="#fff"/><stop offset="1" stop-color="#fff" stop-opacity="0"/></linearGradient><linearGradient id="M" x1="1381.51" y1="615.288" x2="1602.82" y2="612.401" gradientUnits="userSpaceOnUse"><stop offset=".085" stop-color="#fff"/><stop offset="1" stop-color="#fff" stop-opacity="0"/></linearGradient><clipPath id="a"><path fill="#fff" d="M0 0h1366v394.27H0z"/></clipPath><clipPath id="b"><path fill="#fff" d="M0 0h1366v394.27H0z"/></clipPath><clipPath id="D"><path fill="#fff" transform="translate(750.047 147.753)" d="M0 0h230v167H0z"/></clipPath><radialGradient id="o" cx="0" cy="0" r="1" gradientUnits="userSpaceOnUse" gradientTransform="matrix(0 484.758 -2863.45 0 683 31.458)"><stop stop-color="#D9E9FF"/><stop offset=".581" stop-color="#fff"/></radialGradient></defs></svg>