<svg width="191" height="198" viewBox="0 0 191 198" fill="none" xmlns="http://www.w3.org/2000/svg">
<path d="M32.7394 100.931C23.7491 102.74 15.6307 107.517 9.69167 114.492C3.75261 121.466 0.338762 130.234 0 139.381V307.912V336L164.104 307.1C173.128 305.321 181.286 300.553 187.257 293.569C193.227 286.585 196.66 277.794 197 268.619V72L32.7394 100.931Z" fill="#006DFF"/>
<path d="M110.739 19.9312C101.749 21.7402 93.6307 26.5166 87.6917 33.4915C81.7526 40.4665 78.3388 49.2337 78 58.3809V226.912V255L242.104 226.1C251.128 224.321 259.286 219.553 265.257 212.569C271.227 205.585 274.66 196.794 275 187.619V-9L110.739 19.9312Z" fill="#006DFF"/>
</svg>
