<svg width="40" height="40" viewBox="0 0 40 40" fill="none" xmlns="http://www.w3.org/2000/svg"><path fill="#fff" d="M0 0h40v40H0z"/><rect x="4" y="5.2" width="32" height="29.6" rx="3.369" fill="url(#a)"/><g fill-rule="evenodd" clip-rule="evenodd" fill="#00033B"><path d="M23.305 21.854v11.88a3.482 3.482 0 0 1-3.482 3.482h-1.661a2.619 2.619 0 0 1-2.619-2.619h2.612v.002c0 .001 0 .002.002.003a.013.013 0 0 0 .002.002h1.664c.48 0 .87-.39.87-.87v-11.88h2.612Z"/><path d="m22.075 19.2 5.433 5.933a1.306 1.306 0 0 1-1.927 1.764l-3.549-3.876-3.731 3.897a1.306 1.306 0 0 1-1.887-1.806l5.661-5.912Z"/></g><path d="M4 8.497a3.369 3.369 0 0 1 3.369-3.369H32.68a3.369 3.369 0 0 1 3.369 3.37v3.978H4V8.497Z" fill="url(#b)"/><circle cx="8.12" cy="8.803" fill="#fff" r="1.409"/><circle cx="12.064" cy="8.803" fill="#fff" r="1.409"/><rect x="15.543" y="7.476" width="17.881" height="2.654" rx="1.327" fill="#fff"/><defs><linearGradient id="a" x1="-5.066" y1="41.529" x2="33.748" y2="11.157" gradientUnits="userSpaceOnUse"><stop stop-color="#CDE2FF"/><stop offset="1" stop-color="#F6FAFF"/></linearGradient><linearGradient id="b" x1="2.553" y1="16.39" x2="38.552" y2="8.802" gradientUnits="userSpaceOnUse"><stop stop-color="#00033B"/><stop offset="1" stop-color="#006DFF" stop-opacity=".964"/></linearGradient></defs></svg>