<svg width="40" height="40" viewBox="0 0 40 40" fill="none" xmlns="http://www.w3.org/2000/svg"><path fill="#fff" d="M0 0h40v40H0z"/><rect x="5" y="5" width="30" height="30" rx="3.369" fill="url(#a)"/><path d="M5 8.369A3.369 3.369 0 0 1 8.369 5H31.63A3.369 3.369 0 0 1 35 8.369v3.614H5V8.37Z" fill="url(#b)"/><circle cx="9.037" cy="8.607" r="1.295" fill="#fff"/><circle cx="12.662" cy="8.607" r="1.295" fill="#fff"/><rect x="15.858" y="7.388" width="16.432" height="2.439" rx="1.22" fill="#fff"/><path d="m31.154 30.234 3.775 3.497c.425.393.451 1.064.058 1.489l-.06.064a1.058 1.058 0 0 1-1.488.058l-3.78-3.502a8.177 8.177 0 0 0 1.495-1.606Z" fill="#00033B"/><path d="M20.631 31.461a7.183 7.183 0 0 0 10.734-1.107A7.184 7.184 0 1 0 20.63 31.46v.001Zm.59-9.246a5.85 5.85 0 0 1 8.267-.316 5.853 5.853 0 0 1-7.953 8.586 5.85 5.85 0 0 1-.316-8.268l.001-.002Z" fill="#00033B"/><defs><linearGradient id="a" x1="-3.5" y1="41.819" x2="35" y2="13.954" gradientUnits="userSpaceOnUse"><stop stop-color="#CDE2FF"/><stop offset="1" stop-color="#F6FAFF"/></linearGradient><linearGradient id="b" x1="3.645" y1="15.703" x2="37.386" y2="8.699" gradientUnits="userSpaceOnUse"><stop stop-color="#00033B"/><stop offset="1" stop-color="#006DFF" stop-opacity=".964"/></linearGradient></defs></svg>