<svg width="64" height="64" viewBox="0 0 64 64" fill="none" xmlns="http://www.w3.org/2000/svg"><path fill="#fff" d="M0 0h64v64H0z"/><path d="m12.185 49.32.82 2.79a7.47 7.47 0 0 0 5.56 5.19l3.72.81" stroke="#828EA3" stroke-width="2" stroke-linecap="round" stroke-linejoin="round"/><path d="M24.085 56.2h3a.87.87 0 0 1 .87.87v2.08a.87.87 0 0 1-.87.87h-3a1.8 1.8 0 0 1-1.8-1.8v-.24a1.8 1.8 0 0 1 1.8-1.78Z" fill="url(#a)"/><path d="M48.405 32.78c0-10.88-7.83-19.69-18.7-19.69s-18.71 8.81-18.71 19.69" stroke="#828EA3" stroke-width="2" stroke-linecap="round" stroke-linejoin="round"/><path d="M8.625 46.82c-3.29 0-5-2.29-5-5.12s1.69-5.12 5-5.12" fill="url(#b)"/><path d="M11.345 33.76h-.3a2.42 2.42 0 0 0-2.42 2.42V46.9a2.42 2.42 0 0 0 2.42 2.42h.3a2.42 2.42 0 0 0 2.42-2.42V36.18a2.42 2.42 0 0 0-2.42-2.42Z" fill="url(#c)"/><path d="M51.125 46.82c3.3 0 5-2.29 5-5.12s-1.68-5.12-5-5.12" fill="url(#d)"/><path d="M48.405 49.32h.3a2.42 2.42 0 0 0 2.42-2.42V36.18a2.42 2.42 0 0 0-2.42-2.42h-.3a2.42 2.42 0 0 0-2.42 2.42V46.9a2.42 2.42 0 0 0 2.42 2.42Z" fill="url(#e)" fill-opacity=".8"/><path d="M35.555 22.04v4l5.64-4h15.85a3.33 3.33 0 0 0 3.33-3.33V7.31a3.33 3.33 0 0 0-3.33-3.33h-21.49a3.33 3.33 0 0 0-3.33 3.33v11.4a3.329 3.329 0 0 0 3.33 3.33Z" stroke="#fff" stroke-width="4" stroke-miterlimit="10"/><path d="M35.555 22.04v4l5.64-4h15.85a3.33 3.33 0 0 0 3.33-3.33V7.31a3.33 3.33 0 0 0-3.33-3.33h-21.49a3.33 3.33 0 0 0-3.33 3.33v11.4a3.329 3.329 0 0 0 3.33 3.33Z" fill="url(#f)"/><g fill="#fff"><path d="M39.925 15.22a2.13 2.13 0 1 0 0-4.26 2.13 2.13 0 0 0 0 4.26ZM46.305 15.22a2.13 2.13 0 1 0 0-4.26 2.13 2.13 0 0 0 0 4.26ZM52.685 15.22a2.13 2.13 0 1 0 0-4.26 2.13 2.13 0 0 0 0 4.26Z"/></g><defs><linearGradient id="a" x1="22.285" y1="58.11" x2="27.955" y2="58.11" gradientUnits="userSpaceOnUse"><stop stop-color="#033596"/><stop offset="1" stop-color="#076AF3"/></linearGradient><linearGradient id="b" x1="6.125" y1="36.58" x2="6.125" y2="46.82" gradientUnits="userSpaceOnUse"><stop stop-color="#549DFF"/><stop offset="1" stop-color="#94C1FF"/></linearGradient><linearGradient id="c" x1="11.195" y1="49.32" x2="11.195" y2="33.76" gradientUnits="userSpaceOnUse"><stop stop-color="#03389A"/><stop offset="1" stop-color="#0B73FF"/></linearGradient><linearGradient id="d" x1="53.625" y1="36.58" x2="53.625" y2="46.82" gradientUnits="userSpaceOnUse"><stop stop-color="#549DFF"/><stop offset="1" stop-color="#94C1FF"/></linearGradient><linearGradient id="e" x1="48.555" y1="49.32" x2="48.555" y2="33.76" gradientUnits="userSpaceOnUse"><stop stop-color="#012376"/><stop offset="1" stop-color="#1278FF"/></linearGradient><linearGradient id="f" x1="60.375" y1="1" x2="30" y2="26.04" gradientUnits="userSpaceOnUse"><stop stop-color="#0771FF"/><stop offset="1" stop-color="#01267B"/></linearGradient></defs></svg>