<svg width="40" height="41" viewBox="0 0 40 41" fill="none" xmlns="http://www.w3.org/2000/svg"><path fill="#fff" d="M0 0h40v40H0z"/><path fill="#fff" d="M0 0h40v40H0z"/><path d="M19.48 33.082c7.224 0 13.08-5.856 13.08-13.08s-5.856-13.08-13.08-13.08c-7.223 0-13.08 5.856-13.08 13.08s5.857 13.08 13.08 13.08Z" fill="url(#a)"/><path d="M19.47 12a6 6 0 1 0 0-12 6 6 0 0 0 0 12Zm0-10a4 4 0 1 1 0 8 4 4 0 0 1 0-8Zm7.3 12.1-1.6-1.44a1.349 1.349 0 0 0-1.1-.33 1.34 1.34 0 0 0-1 .63l-3.63 5.9-3.61-5.91a1.36 1.36 0 0 0-1-.63 1.36 1.36 0 0 0-1 .35l-1.61 1.41a1.37 1.37 0 0 0-.46 1v10a1.36 1.36 0 0 0 1 1.31l1.32.37v3.91a1.38 1.38 0 0 0 .9 1.28l.91.33v6.39a1.36 1.36 0 0 0 1.36 1.35h4.6a1.35 1.35 0 0 0 1.35-1.35v-6.41l.89-.3a1.35 1.35 0 0 0 .92-1.28v-4.62a1 1 0 1 0-2 0v4.15l-.88.3a1.37 1.37 0 0 0-.93 1.29V38h-3.37v-6.17a1.35 1.35 0 0 0-.89-1.27l-.92-.33v-3.94a1.35 1.35 0 0 0-1-1.31l-1.33-.37v-9.25l.81-.71 3.8 6.15a1.34 1.34 0 0 0 1.15.65 1.36 1.36 0 0 0 1.16-.65l3.77-6.14.82.74v6.17l-4.23 1.79a1 1 0 0 0 .78 1.84l4.62-1.95A1.35 1.35 0 0 0 27.2 22v-6.89a1.361 1.361 0 0 0-.43-1.01Z" fill="url(#b)"/><defs><linearGradient id="a" x1="6.4" y1="35.703" x2="41.508" y2="6.922" gradientUnits="userSpaceOnUse"><stop offset=".113" stop-color="#CDE2FF"/><stop offset="1" stop-color="#fff"/></linearGradient><linearGradient id="b" x1="8.719" y1="35.499" x2="55.692" y2="-6.809" gradientUnits="userSpaceOnUse"><stop stop-color="#006DFF"/><stop offset="1" stop-color="#CDE2FF"/></linearGradient></defs></svg>