<svg width="64" height="64" viewBox="0 0 64 64" fill="none" xmlns="http://www.w3.org/2000/svg"><path fill="#fff" d="M0 0h64v64H0z"/><circle cx="32" cy="32" r="26.515" fill="url(#a)"/><circle cx="32" cy="32" r="20.405" fill="url(#b)"/><circle cx="32" cy="32" r="16.557" fill="url(#c)"/><circle cx="32" cy="32" r="6.95" fill="url(#d)"/><path d="M33.098 34.215c-.296-.837.566-1.616 1.37-1.237l18.142 8.556c.861.406.72 1.673-.209 1.88l-7.559 1.688a1 1 0 0 0-.73.66l-2.444 7.35c-.3.904-1.575.915-1.892.017l-6.678-18.914Z" fill="url(#e)" fill-opacity=".5"/><path d="M31.926 33.215c-.295-.837.566-1.616 1.37-1.237l18.142 8.556c.861.406.72 1.673-.209 1.88l-7.559 1.688a1 1 0 0 0-.73.66l-2.444 7.35c-.3.904-1.574.915-1.892.017l-6.678-18.914Z" fill="url(#f)"/><defs><linearGradient id="a" x1="-29.63" y1="74.598" x2="61.871" y2="17.705" gradientUnits="userSpaceOnUse"><stop stop-color="#CDE2FF"/><stop offset="1" stop-color="#fff"/></linearGradient><linearGradient id="b" x1="-15.429" y1="64.782" x2="80.433" y2="11.595" gradientUnits="userSpaceOnUse"><stop stop-color="#00033B"/><stop offset=".737" stop-color="#0051CB"/><stop offset="1" stop-color="#006DFF"/></linearGradient><linearGradient id="c" x1="-6.484" y1="58.6" x2="52.408" y2="23.592" gradientUnits="userSpaceOnUse"><stop offset=".328" stop-color="#CDE2FF"/><stop offset="1" stop-color="#fff"/></linearGradient><linearGradient id="d" x1="3.854" y1="51.036" x2="40.567" y2="28.47" gradientUnits="userSpaceOnUse"><stop offset=".328" stop-color="#00033B"/><stop offset="1" stop-color="#006DFF"/></linearGradient><linearGradient id="e" x1="32.3" y1="31.956" x2="74.175" y2="68.433" gradientUnits="userSpaceOnUse"><stop stop-color="#00033B"/><stop offset="1" stop-color="#F5F9FF"/></linearGradient><linearGradient id="f" x1="31.128" y1="30.956" x2="73.003" y2="67.433" gradientUnits="userSpaceOnUse"><stop stop-color="#006DFF"/><stop offset="1" stop-color="#F5F9FF"/></linearGradient></defs></svg>