<svg width="64" height="64" viewBox="0 0 64 64" fill="none" xmlns="http://www.w3.org/2000/svg"><path fill="#fff" d="M0 0h64v64H0z"/><path d="M8.153 17.514a3.245 3.245 0 1 0 .428-6.477 3.245 3.245 0 0 0-.428 6.477ZM8.153 29.33a3.245 3.245 0 1 0 .428-6.476 3.245 3.245 0 0 0-.428 6.476ZM8.153 41.146a3.245 3.245 0 1 0 .428-6.476 3.245 3.245 0 0 0-.428 6.476Z" fill="#BABDBE"/><path d="M8.153 52.962a3.245 3.245 0 1 0 .428-6.476 3.245 3.245 0 0 0-.428 6.477Z" fill="url(#a)"/><path d="m57.547 11.677-41.935.023c-.848 0-1.534 1.16-1.533 2.589 0 1.429.688 2.587 1.536 2.587l41.934-.023c.848 0 1.535-1.16 1.534-2.589 0-1.429-.689-2.587-1.536-2.587ZM57.547 23.493l-41.935.023c-.848 0-1.534 1.16-1.533 2.589 0 1.43.688 2.587 1.536 2.587l41.934-.023c.848 0 1.535-1.16 1.534-2.589 0-1.429-.689-2.587-1.536-2.587ZM57.547 35.31l-41.935.022c-.848 0-1.534 1.16-1.533 2.59 0 1.428.688 2.587 1.536 2.586l41.934-.023c.848 0 1.535-1.16 1.534-2.588 0-1.43-.689-2.588-1.536-2.587Z" fill="#BABDBE"/><path d="m57.547 47.126-41.935.023c-.848 0-1.534 1.159-1.533 2.588 0 1.43.688 2.588 1.536 2.587l41.934-.023c.848 0 1.535-1.16 1.534-2.588 0-1.43-.689-2.588-1.536-2.587Z" fill="url(#b)"/><defs><linearGradient id="a" x1="5.863" y1="51.799" x2="10.861" y2="47.649" gradientUnits="userSpaceOnUse"><stop offset=".19" stop-color="#202D66"/><stop offset=".33" stop-color="#1B357A"/><stop offset=".61" stop-color="#104BAD"/><stop offset="1" stop-color="#006DFF"/></linearGradient><linearGradient id="b" x1="22.995" y1="68.794" x2="59.978" y2="50.596" gradientUnits="userSpaceOnUse"><stop offset=".19" stop-color="#202D66"/><stop offset=".33" stop-color="#1B357A"/><stop offset=".61" stop-color="#104BAD"/><stop offset="1" stop-color="#006DFF"/></linearGradient></defs></svg>