<svg width="64" height="64" viewBox="0 0 64 64" fill="none" xmlns="http://www.w3.org/2000/svg"><path fill="#fff" d="M0 0h64v64H0z"/><path fill-rule="evenodd" clip-rule="evenodd" d="m17.456 7.13 29.14.035c1.096 0 1.99.898 1.99 1.993 0 1.101-.896 1.996-1.992 1.995l-29.14-.035a1.992 1.992 0 0 1-1.986-2c0-1.095.897-1.99 1.993-1.99l-.005.001Z" fill="url(#a)"/><path d="M45.552 11.153c.065.506.093 1.018.09 1.542-.01 9.268-11.395 12.344-12.38 17.907-.224 1.257-.224 1.619-.004 2.883.968 5.561 12.35 8.664 12.34 17.937a13.388 13.388 0 0 1-.094 1.54l-27.062-.03a11.638 11.638 0 0 1-.096-1.541c.011-9.267 11.401-12.345 12.386-17.908.228-1.263.223-1.624.004-2.882-.968-5.562-12.356-8.669-12.345-17.936.003-.524.039-1.038.104-1.542l27.062.029-.005.001Z" fill="url(#b)"/><path fill-rule="evenodd" clip-rule="evenodd" d="M42.88 17.568c-1.757 4.66-7.888 7.193-9.584 10.421-.893 1.45-1.093 2.805-1.329 3.881-.766-4.17-1.68-5.08-3.06-6.256-2.18-1.855-6.137-5.645-7.622-8.07l21.595.024Z" fill="url(#c)"/><path fill-rule="evenodd" clip-rule="evenodd" d="M21.245 51.11c1.757-4.658 7.887-7.192 9.584-10.42.893-1.45 1.092-2.805 1.328-3.881.767 4.17 1.68 5.08 3.06 6.256 2.18 1.855 6.138 5.645 7.622 8.07l-21.594-.024Z" fill="url(#d)"/><path fill-rule="evenodd" clip-rule="evenodd" d="m19.183 7.133 25.68.03a.768.768 0 0 0 .766-.762.772.772 0 0 0-.761-.766l-25.681-.03a.77.77 0 0 0-.766.762c0 .421.34.766.762.766Z" fill="url(#e)"/><path fill-rule="evenodd" clip-rule="evenodd" d="m17.398 56.839 29.141.035a1.997 1.997 0 0 0 1.992-1.995 1.997 1.997 0 0 0-1.99-1.993l-29.14-.035a1.997 1.997 0 0 0-1.994 1.99 2 2 0 0 0 1.986 1.999l.005-.001Z" fill="url(#f)"/><path fill-rule="evenodd" clip-rule="evenodd" d="m19.125 56.837 25.68.03a.765.765 0 0 1 .762.766.772.772 0 0 1-.766.761l-25.68-.029a.768.768 0 0 1-.762-.766c0-.42.344-.767.766-.762Z" fill="url(#g)"/><defs><radialGradient id="a" cx="0" cy="0" r="1" gradientUnits="userSpaceOnUse" gradientTransform="rotate(-10.844 299.891 67.188) scale(135.787)"><stop offset=".21" stop-color="#202D66"/><stop offset=".4" stop-color="#154299"/><stop offset=".59" stop-color="#0C54C5"/><stop offset=".76" stop-color="#0562E4"/><stop offset=".9" stop-color="#016AF8"/><stop offset="1" stop-color="#006DFF"/></radialGradient><radialGradient id="e" cx="0" cy="0" r="1" gradientUnits="userSpaceOnUse" gradientTransform="rotate(-10.843 360.586 256.404) scale(137.971)"><stop offset=".21" stop-color="#202D66"/><stop offset=".4" stop-color="#154299"/><stop offset=".59" stop-color="#0C54C5"/><stop offset=".76" stop-color="#0562E4"/><stop offset=".9" stop-color="#016AF8"/><stop offset="1" stop-color="#006DFF"/></radialGradient><radialGradient id="f" cx="0" cy="0" r="1" gradientUnits="userSpaceOnUse" gradientTransform="rotate(-10.844 299.89 67.192) scale(135.787)"><stop offset=".21" stop-color="#202D66"/><stop offset=".4" stop-color="#154299"/><stop offset=".59" stop-color="#0C54C5"/><stop offset=".76" stop-color="#0562E4"/><stop offset=".9" stop-color="#016AF8"/><stop offset="1" stop-color="#006DFF"/></radialGradient><radialGradient id="g" cx="0" cy="0" r="1" gradientUnits="userSpaceOnUse" gradientTransform="rotate(-10.843 360.584 256.407) scale(137.971)"><stop offset=".21" stop-color="#202D66"/><stop offset=".4" stop-color="#154299"/><stop offset=".59" stop-color="#0C54C5"/><stop offset=".76" stop-color="#0562E4"/><stop offset=".9" stop-color="#016AF8"/><stop offset="1" stop-color="#006DFF"/></radialGradient><linearGradient id="b" x1="-10.679" y1="40.212" x2="74.884" y2="23.822" gradientUnits="userSpaceOnUse"><stop stop-color="#046FFF"/><stop offset=".06" stop-color="#368BFF"/><stop offset=".12" stop-color="#63A5FF"/><stop offset=".18" stop-color="#8ABCFF"/><stop offset=".25" stop-color="#ABCFFF"/><stop offset=".31" stop-color="#C6DEFF"/><stop offset=".39" stop-color="#DBEAFF"/><stop offset=".48" stop-color="#E9F2FF"/><stop offset=".58" stop-color="#F2F7FF"/><stop offset=".74" stop-color="#F5F9FF"/></linearGradient><linearGradient id="c" x1="-13.769" y1="54.191" x2="72.88" y2="-9.067" gradientUnits="userSpaceOnUse"><stop offset=".422" stop-color="#202D66"/><stop offset=".67" stop-color="#1378FF"/></linearGradient><linearGradient id="d" x1="-.813" y1="71.94" x2="85.836" y2="8.682" gradientUnits="userSpaceOnUse"><stop offset=".278" stop-color="#202D66"/><stop offset=".504" stop-color="#006DFF"/><stop offset=".912" stop-color="#fff"/></linearGradient></defs></svg>