<svg width="40" height="40" viewBox="0 0 40 40" fill="none" xmlns="http://www.w3.org/2000/svg"><path fill="#fff" d="M0 0h40v40H0z"/><path d="M19.439 5.503a2.674 2.674 0 0 1 1.138 0c.944.204 3.082.694 6.548 1.587 1.857.48 3.225.842 4.2 1.102a2.664 2.664 0 0 1 1.97 2.725c-.128 2.184-.541 5.971-1.807 11.171-1.475 6.068-6.471 9.763-10.054 12.05a2.653 2.653 0 0 1-2.868 0c-3.577-2.287-8.578-5.982-10.053-12.05-1.266-5.195-1.674-8.987-1.807-11.17a2.663 2.663 0 0 1 1.97-2.726c.975-.26 2.342-.628 4.2-1.102 3.47-.893 5.604-1.383 6.548-1.587h.015Z" fill="url(#a)"/><path d="m27.021 16.805-2.243-2.22-6.762 6.836-2.482-2.456-2.223 2.245 4.728 4.677v-.003l.003.003 8.98-9.082Z" fill="#fff"/><defs><linearGradient id="a" x1="-15.897" y1="49.545" x2="86.033" y2="-43.281" gradientUnits="userSpaceOnUse"><stop offset=".255" stop-color="#202D66"/><stop offset=".525" stop-color="#006DFF"/></linearGradient></defs></svg>