<svg width="40" height="40" viewBox="0 0 40 40" fill="none" xmlns="http://www.w3.org/2000/svg"><path fill="#fff" d="M0 0h40v40H0z"/><path fill="url(#a)" d="M18.33 27.996h3.339v6.006H18.33z"/><path d="M18.459 24.386h3.082v3H18.46v-3Zm3.082-11.774-.454 9.931h-2.153l-.455-9.93h3.062Z" fill="#fff"/><path d="M33.6 9.64H6.4c-.717 0-1.298.58-1.298 1.298v18.03c0 .716.581 1.298 1.298 1.298h27.2c.718 0 1.299-.582 1.299-1.299v-18.03c0-.716-.581-1.298-1.299-1.298Z" fill="url(#b)"/><path d="M31.576 11.81H8.425c-.587 0-1.062.477-1.062 1.064v14.159c0 .587.475 1.063 1.062 1.063h23.151c.586 0 1.061-.476 1.061-1.063v-14.16c0-.586-.475-1.062-1.061-1.062Z" fill="url(#c)"/><rect x="9.939" y="18.746" width="20.123" height="2.769" rx="1.385" fill="#00033B"/><path d="M11.33 35.916a2.387 2.387 0 0 1 2.386-2.386h12.568a2.387 2.387 0 0 1 2.387 2.386H11.329Z" fill="#00033B"/><g clip-path="url(#d)"><path d="m12.58 34.46 14.816-.011c.783 0 1.417-.607 1.416-1.354l-.02-27.192c0-.747-.636-1.352-1.418-1.352l-14.817.01c-.782.001-1.416.607-1.416 1.354l.02 27.192c.001.747.636 1.353 1.419 1.352Z" fill="#006DFF"/><path d="m15.693 5.86 8.59.044c.01 1.596 1.292 2.895 2.863 2.901l.065-.006.155 22.017c-.021.003-.04-.003-.062-.005-1.571-.01-2.835 1.277-2.821 2.872.003.033.006.066.006.1l-8.6-.048c0-.033.004-.067.004-.1-.01-1.596-1.293-2.895-2.864-2.901l-.161-22.002c1.57.01 2.835-1.277 2.821-2.872h.004Z" fill="url(#e)"/><path d="M20.307 20.368c1.84-.176 3.183-1.742 3-3.5-.185-1.756-1.826-3.038-3.666-2.863-1.84.176-3.183 1.743-3 3.5.185 1.757 1.826 3.039 3.666 2.863Z" fill="#006DFF" fill-opacity=".964"/></g><defs><linearGradient id="a" x1="30.457" y1="23.03" x2="20" y2="31.692" gradientUnits="userSpaceOnUse"><stop stop-color="#006DFF" stop-opacity=".964"/><stop offset="1" stop-color="#00033B"/></linearGradient><linearGradient id="b" x1="79.641" y1="-31.66" x2="-57.569" y2="87.085" gradientUnits="userSpaceOnUse"><stop offset=".288" stop-color="#006DFF" stop-opacity=".964"/><stop offset=".566"/></linearGradient><linearGradient id="c" x1="37.544" y1="5.056" x2="-33.743" y2="41.209" gradientUnits="userSpaceOnUse"><stop stop-color="#fff"/><stop offset="1" stop-color="#87BAFF"/></linearGradient><linearGradient id="e" x1="1.623" y1="116.815" x2="52.865" y2="-67.721" gradientUnits="userSpaceOnUse"><stop stop-color="#006DFF"/><stop offset=".05" stop-color="#1B7CFF"/><stop offset=".15" stop-color="#4D99FF"/><stop offset=".25" stop-color="#7AB2FF"/><stop offset=".469" stop-color="#A0C8FF"/><stop offset=".664" stop-color="#BFDAFF"/><stop offset=".788" stop-color="#D6E7FF"/><stop offset="1" stop-color="#F5F9FF"/></linearGradient><clipPath id="d"><path fill="#fff" d="M9.57 4.082h20.862v17.433H9.57z"/></clipPath></defs></svg>