<svg width="64" height="64" viewBox="0 0 64 64" fill="none" xmlns="http://www.w3.org/2000/svg"><path fill="#fff" d="M0 0h64v64H0z"/><ellipse cx="32" cy="51.549" rx="18.143" ry="3.274" fill="url(#a)"/><path d="M48.482 26.296c-.27 7.162-10.322 19.48-14.593 24.398-.992 1.154-2.772 1.132-3.754-.022-4.368-5.177-14.895-18.411-14.625-25.627.345-9.103 8.014-16.211 17.117-15.855 9.103.345 16.211 8.014 15.855 17.117v-.01Z" fill="url(#b)"/><path d="M32 33.41a8.26 8.26 0 1 0 0-16.52 8.26 8.26 0 0 0 0 16.52Z" fill="#fff"/><defs><radialGradient id="b" cx="0" cy="0" r="1" gradientUnits="userSpaceOnUse" gradientTransform="rotate(135.705 27.032 18.613) scale(55.1174)"><stop stop-color="#006DFF"/><stop offset=".39" stop-color="#104BAD"/><stop offset=".67" stop-color="#1B357A"/><stop offset=".81" stop-color="#202D66"/></radialGradient><linearGradient id="a" x1="32" y1="51.549" x2="52.919" y2="57.034" gradientUnits="userSpaceOnUse"><stop stop-color="#D9E9FF"/><stop offset="1" stop-color="#fff"/></linearGradient></defs></svg>