<svg width="40" height="40" viewBox="0 0 40 40" fill="none" xmlns="http://www.w3.org/2000/svg"><path fill="#fff" d="M0 0h40v40H0z"/><path d="M19.636 4.75c-8.425.204-15.09 7.187-14.89 15.62.204 8.424 7.197 15.085 15.622 14.881 8.425-.204 15.086-7.197 14.89-15.619-.212-8.428-7.198-15.086-15.622-14.882Z" fill="url(#a)"/><path d="M19.685 6.87c-7.247.178-12.99 6.194-12.816 13.448.175 7.254 6.198 12.983 13.45 12.816 7.253-.175 12.982-6.198 12.811-13.442-.182-7.257-6.191-12.997-13.445-12.822Z" fill="url(#b)"/><path d="M19.443 26.418v-1.587c-.639-.01-1.23-.068-1.775-.172-.534-.116-1-.262-1.398-.44v-1.76c.398.189.89.361 1.476.518a7.706 7.706 0 0 0 1.697.268v-2.671c-.764-.273-1.382-.545-1.854-.817-.46-.283-.8-.602-1.02-.959-.21-.366-.315-.8-.315-1.303 0-.786.293-1.404.88-1.854.586-.461 1.356-.728 2.31-.802v-1.257h1.036v1.226c.576.02 1.11.089 1.603.204a7.19 7.19 0 0 1 1.414.456l-.613 1.555a7.725 7.725 0 0 0-1.21-.377 7.128 7.128 0 0 0-1.194-.204v2.608c.618.199 1.173.419 1.665.66.493.24.88.544 1.163.91.293.357.44.823.44 1.4 0 .753-.278 1.376-.833 1.869-.544.492-1.356.79-2.435.895v1.634h-1.037Zm0-7.76v-2.185c-.827.095-1.241.42-1.241.974 0 .294.094.53.283.707.188.178.508.346.958.503Zm1.037 4.524c.88-.126 1.32-.477 1.32-1.053a.82.82 0 0 0-.314-.675c-.2-.168-.535-.336-1.006-.503v2.23Z" fill="#fff"/><defs><radialGradient id="a" cx="0" cy="0" r="1" gradientUnits="userSpaceOnUse" gradientTransform="rotate(-23.035 161.458 19.347) scale(108.169)"><stop stop-color="#046FFF"/><stop offset=".07" stop-color="#368BFF"/><stop offset=".13" stop-color="#63A5FF"/><stop offset=".2" stop-color="#8ABCFF"/><stop offset=".27" stop-color="#ABCFFF"/><stop offset=".35" stop-color="#C6DEFF"/><stop offset=".44" stop-color="#DBEAFF"/><stop offset=".53" stop-color="#E9F2FF"/><stop offset=".65" stop-color="#F2F7FF"/><stop offset=".83" stop-color="#F5F9FF"/></radialGradient><radialGradient id="b" cx="0" cy="0" r="1" gradientUnits="userSpaceOnUse" gradientTransform="rotate(129.964 11.91 13.29) scale(33.2183)"><stop offset=".127" stop-color="#93C1FF"/><stop offset=".68" stop-color="#589FFF"/><stop offset=".86" stop-color="#1176FF"/><stop offset=".91" stop-color="#006DFF"/></radialGradient></defs></svg>