<svg width="40" height="40" viewBox="0 0 40 40" fill="none" xmlns="http://www.w3.org/2000/svg"><path fill="#fff" d="M0 0h40v40H0z"/><path d="M24.61 26.828a9.344 9.344 0 1 0 0-18.688 9.344 9.344 0 0 0 0 18.688Z" fill="#E6EBF2"/><path d="M24.61 26.828a9.344 9.344 0 1 0 0-18.688 9.344 9.344 0 0 0 0 18.688Z" fill="url(#a)"/><path d="M6.378 34.293h28.728a.792.792 0 0 1 .721.737.793.793 0 0 1-.792.792H4.92a.867.867 0 0 1-.278-.055h-.127a.27.27 0 0 1-.071-.063.508.508 0 0 1-.119-.103.453.453 0 0 1-.087-.127.707.707 0 0 1-.063-.135 1.124 1.124 0 0 1 0-.158V4.97a.792.792 0 1 1 1.585 0V32.21l3.669-6.182a.792.792 0 0 1 1.244-.15l1.585 1.585 2.568-4.161a.793.793 0 0 1 1.078-.27l1.434.793 1.022-1.03 1.26-1.229.983-.99.08-.056c.055-.024.055-.08.055-.08l3.471-3.502h-1.632a.793.793 0 1 1 0-1.585h3.55a.791.791 0 0 1 .301.063c.194.08.348.235.428.428a.79.79 0 0 1 .064.302v3.55a.792.792 0 1 1-1.585 0v-1.633l-3.503 3.503-.08.056c-.055.024-.055.079-.055.079l-1.094 1.086-1.125 1.173-1.458 1.458a.793.793 0 0 1-.96.119l-1.291-.745-2.694 4.358a.793.793 0 0 1-1.237.143l-1.545-1.585-3.915 6.586Z" fill="url(#b)"/><g><path d="m29.733 21.625 2.857 3.01a.853.853 0 0 1-.03 1.201l-.051.05a.853.853 0 0 1-1.201-.031l-2.862-3.015a6.592 6.592 0 0 0 1.287-1.215Z" fill="url(#c)"/><path d="m29.733 21.625 2.857 3.01a.853.853 0 0 1-.03 1.201l-.051.05a.853.853 0 0 1-1.201-.031l-2.862-3.015a6.592 6.592 0 0 0 1.287-1.215Z" fill="url(#d)"/><g><path d="M19.871 12.49a6.735 6.735 0 1 1 8.574 10.349 6.735 6.735 0 0 1-8.574-10.348Zm.657 8.664a5.487 5.487 0 1 0 7.956-7.552 5.487 5.487 0 0 0-7.954 7.55l-.002.002Z" fill="url(#e)"/><path d="M19.871 12.49a6.735 6.735 0 1 1 8.574 10.349 6.735 6.735 0 0 1-8.574-10.348Zm.657 8.664a5.487 5.487 0 1 0 7.956-7.552 5.487 5.487 0 0 0-7.954 7.55l-.002.002Z" fill="url(#f)"/></g></g><defs><linearGradient id="a" x1="2.892" y1="32.495" x2="35.137" y2="12.446" gradientUnits="userSpaceOnUse"><stop stop-color="#CDE2FF"/><stop offset="1" stop-color="#fff"/></linearGradient><linearGradient id="b" x1="36.172" y1="4.178" x2="-.327" y2="42.679" gradientUnits="userSpaceOnUse"><stop offset=".127" stop-color="#93C1FF"/><stop offset=".606" stop-color="#589FFF"/><stop offset=".806" stop-color="#1176FF"/><stop offset=".91" stop-color="#006DFF"/></linearGradient><linearGradient id="c" x1="37.754" y1="32.131" x2="21.707" y2="15.225" gradientUnits="userSpaceOnUse"><stop stop-color="#006DFF"/><stop offset=".39" stop-color="#104BAD"/><stop offset=".67" stop-color="#1B357A"/><stop offset=".81" stop-color="#202D66"/></linearGradient><linearGradient id="d" x1="31.284" y1="31.974" x2="28.375" y2="22.473" gradientUnits="userSpaceOnUse"><stop offset=".127" stop-color="#93C1FF"/><stop offset=".581" stop-color="#589FFF"/><stop offset=".86" stop-color="#1176FF"/><stop offset=".91" stop-color="#006DFF"/></linearGradient><linearGradient id="e" x1="38.34" y1="22.354" x2="12.373" y2="13.009" gradientUnits="userSpaceOnUse"><stop stop-color="#006DFF"/><stop offset=".39" stop-color="#104BAD"/><stop offset=".67" stop-color="#1B357A"/><stop offset=".81" stop-color="#202D66"/></linearGradient><linearGradient id="f" x1="16.622" y1="2.255" x2="19.79" y2="30.785" gradientUnits="userSpaceOnUse"><stop offset=".127" stop-color="#93C1FF"/><stop offset=".606" stop-color="#589FFF"/><stop offset=".806" stop-color="#1176FF"/><stop offset=".91" stop-color="#006DFF"/></linearGradient></defs></svg>