<svg width="64" height="64" viewBox="0 0 64 64" fill="none" xmlns="http://www.w3.org/2000/svg"><path fill="#fff" d="M0 0h64v64H0z"/><g clip-path="url(#a)"><path d="M44.283 9.146H15.571a2 2 0 0 0-2 2V29.89L32 41.934 50.426 29.89V14.767l-6.143-5.621Z" fill="url(#b)"/><path d="M13.571 29.89v21.412h36.855V29.89L31.999 41.934 13.57 29.889Z" fill="url(#c)"/><path d="m10.5 27.884 3.071 2.008v-4.017L10.5 27.884ZM53.497 27.884l-3.071-2.009v4.017l3.071-2.008Z" fill="#00033B"/><path d="M44.283 13.767a1 1 0 0 0 1 1h5.143l-6.143-5.621v4.62Z" fill="url(#d)"/><path d="M31.998 41.934 10.5 27.884v25.293c0 .249.108.487.3.664.19.174.451.274.724.274h40.948c.272 0 .532-.1.725-.274a.892.892 0 0 0 .3-.664V27.884L31.999 41.936v-.002Z" fill="url(#e)"/><path fill="#BABDBE" d="M17.268 18.136h29.449v1.339H17.268zM17.268 22.843h29.449v1.339H17.268zM17.268 27.551h29.449v1.339H17.268z"/></g><defs><radialGradient id="b" cx="0" cy="0" r="1" gradientUnits="userSpaceOnUse" gradientTransform="rotate(152.184 17.253 7.606) scale(106.017 73.2599)"><stop offset=".11" stop-color="#F5F9FF"/><stop offset=".23" stop-color="#F1F7FF"/><stop offset=".33" stop-color="#E7F1FF"/><stop offset=".42" stop-color="#D5E6FF"/><stop offset=".51" stop-color="#BCD8FF"/><stop offset=".59" stop-color="#9CC6FF"/><stop offset=".68" stop-color="#74AFFF"/><stop offset=".76" stop-color="#4594FF"/><stop offset=".84" stop-color="#1076FF"/><stop offset=".86" stop-color="#006DFF"/></radialGradient><radialGradient id="d" cx="0" cy="0" r="1" gradientUnits="userSpaceOnUse" gradientTransform="matrix(20.4758 -25.02599 17.78786 14.5537 39.133 25.497)"><stop offset=".11" stop-color="#F5F9FF"/><stop offset=".23" stop-color="#F1F7FF"/><stop offset=".33" stop-color="#E7F1FF"/><stop offset=".42" stop-color="#D5E6FF"/><stop offset=".51" stop-color="#BCD8FF"/><stop offset=".59" stop-color="#9CC6FF"/><stop offset=".68" stop-color="#74AFFF"/><stop offset=".76" stop-color="#4594FF"/><stop offset=".84" stop-color="#1076FF"/><stop offset=".86" stop-color="#006DFF"/></radialGradient><linearGradient id="c" x1="35.584" y1="13.75" x2="31.567" y2="49.658" gradientUnits="userSpaceOnUse"><stop stop-color="#fff"/><stop offset="1" stop-color="#fff"/></linearGradient><linearGradient id="e" x1="8.062" y1="70.322" x2="98.421" y2="-10.231" gradientUnits="userSpaceOnUse"><stop stop-color="#00033B"/><stop offset=".438" stop-color="#006DFF"/><stop offset=".964" stop-color="#fff"/></linearGradient><clipPath id="a"><path fill="#fff" transform="translate(10.5 9.145)" d="M0 0h43v45H0z"/></clipPath></defs></svg>