<svg width="40" height="40" viewBox="0 0 40 40" fill="none" xmlns="http://www.w3.org/2000/svg"><path fill="#fff" d="M0 0h40v40H0z"/><g clip-path="url(#a)"><path d="M4.073 7.067h25.294a2.593 2.593 0 0 1 2.593 2.594v15.032a2.593 2.593 0 0 1-2.593 2.594H4.073a2.593 2.593 0 0 1-2.593-2.594V9.661a2.593 2.593 0 0 1 2.593-2.594Z" fill="url(#b)"/><path d="M31.96 22.73H1.48v-4.002h30.48v4.002Z" fill="url(#c)"/><path d="M5.983 11.7h2.952c.585 0 1.06.474 1.06 1.059v2.952c0 .585-.475 1.059-1.06 1.059H5.983a1.059 1.059 0 0 1-1.059-1.059V12.76c0-.585.474-1.059 1.06-1.059Z" fill="#fff"/><path d="M30.054 12.083c.271-.058.55-.058.817 0a131.3 131.3 0 0 1 4.698 1.14c1.333.343 2.315.603 3.014.79a1.912 1.912 0 0 1 1.414 1.956c-.092 1.567-.388 4.284-1.297 8.016-1.058 4.354-4.643 7.006-7.214 8.646a1.903 1.903 0 0 1-2.058 0c-2.567-1.64-6.156-4.292-7.214-8.646-.908-3.728-1.201-6.449-1.296-8.016a1.91 1.91 0 0 1 1.413-1.956c.7-.187 1.681-.45 3.014-.79 2.49-.642 4.02-.993 4.698-1.14h.011Z" fill="url(#d)"/><path d="m35.823 20.043-1.714-1.697-5.168 5.225-1.897-1.877-1.7 1.716 3.614 3.575v-.003l.003.003 6.862-6.942Z" fill="#fff"/></g><defs><linearGradient id="b" x1="-38.897" y1="51.91" x2="65.604" y2=".392" gradientUnits="userSpaceOnUse"><stop offset=".11" stop-color="#006DFF"/><stop offset=".38" stop-color="#358BFF"/><stop offset=".757" stop-color="#B4D4FF"/></linearGradient><linearGradient id="c" x1="-7.76" y1="20.729" x2="47.688" y2="20.729" gradientUnits="userSpaceOnUse"><stop offset=".15" stop-color="#00033B"/><stop offset="1" stop-color="#006DFF"/></linearGradient><linearGradient id="d" x1="4.698" y1="43.687" x2="77.841" y2="-22.922" gradientUnits="userSpaceOnUse"><stop offset=".26" stop-color="#006DFF"/><stop offset=".505" stop-color="#202D66"/></linearGradient><clipPath id="a"><path fill="#fff" d="M0 0h40v40H0z"/></clipPath></defs></svg>