<svg width="200" height="200" viewBox="0 0 200 200" fill="none" xmlns="http://www.w3.org/2000/svg"><g clip-path="url(#a)"><path d="M106.73 76.05V53.26a29.052 29.052 0 0 0-8.61-20.35A28.981 28.981 0 0 0 77.7 24.5c-7.65 0-14.99 3.02-20.43 8.41a29.07 29.07 0 0 0-8.61 20.35v22.79m7.4 0V53.26c0-5.74 2.28-11.25 6.34-15.31a21.632 21.632 0 0 1 30.6 0c4.06 4.06 6.34 9.57 6.34 15.31v22.79" fill="#FFD12B"/><path d="M99.84 76.06h-1V53.27c0-5.65-2.2-10.96-6.19-14.96s-9.3-6.2-14.95-6.2c-5.65 0-10.96 2.2-14.95 6.2-3.99 4-6.19 9.31-6.19 14.96v22.79h-1V53.27c0-5.92 2.3-11.48 6.48-15.67 4.18-4.18 9.74-6.49 15.66-6.49s11.47 2.3 15.66 6.49c4.18 4.18 6.48 9.75 6.48 15.67v22.79Zm-50.68 0h-1V53.27c.08-7.84 3.19-15.2 8.76-20.71C62.48 27.04 69.86 24 77.7 24c7.84 0 15.21 3.04 20.78 8.55 5.57 5.51 8.68 12.87 8.76 20.71v22.79h-1V53.26c-.08-7.57-3.08-14.67-8.46-20C92.39 27.93 85.26 25 77.7 25c-7.56 0-14.7 2.93-20.08 8.26-5.38 5.33-8.38 12.43-8.46 20v22.8Z" fill="#000"/><path d="M118.73 76.05H36.66c-1.2 0-2.16.97-2.16 2.17v82.12c0 1.2.97 2.17 2.16 2.17h82.07c1.2 0 2.16-.97 2.16-2.17V78.21c0-1.2-.97-2.17-2.16-2.17v.01Z" fill="#9BA0A0"/><path d="M118.73 163H36.66c-1.47 0-2.66-1.2-2.66-2.67V78.21c0-1.47 1.19-2.67 2.66-2.67h82.07c1.47 0 2.66 1.2 2.66 2.67v82.12c0 1.47-1.2 2.67-2.66 2.67ZM36.66 76.55c-.92 0-1.66.75-1.66 1.67v82.12c0 .92.75 1.67 1.66 1.67h82.07c.92 0 1.66-.75 1.66-1.67V78.21c0-.92-.75-1.67-1.66-1.67H36.66v.01Z" fill="#000"/><path d="M115.7 76.05H40.77v86.45h74.92V76.05h.01Z" fill="#CCD1D1"/><path d="M116.2 163H40.27V75.55h75.92V163h.01Zm-74.92-1h73.92V76.55H41.27V162h.01Z" fill="#000"/><path d="M99.33 72.68s4.18 2.28 7.4 0v3.37h-7.4v-3.37ZM48.5 72.68s4.18 2.28 7.4 0v3.37h-7.4v-3.37Z" fill="#000"/><path d="M85.43 116.32c0-1.34-.38-2.66-1.08-3.8a7.232 7.232 0 0 0-2.93-2.66c-1.2-.59-2.55-.84-3.89-.71a7.11 7.11 0 0 0-3.67 1.45 7.17 7.17 0 0 0-2.35 3.17 7.155 7.155 0 0 0-.32 3.94 7.24 7.24 0 0 0 1.8 3.52c.92.98 2.09 1.69 3.39 2.03v11.83c.02.49.23.95.58 1.29.35.34.82.53 1.31.53.49 0 .96-.19 1.31-.53.35-.34.56-.8.58-1.29v-11.85a7.198 7.198 0 0 0 5.28-6.94l-.01.02Z" fill="#333"/><path d="M78.26 137.42c-.62 0-1.21-.24-1.66-.67a2.35 2.35 0 0 1-.73-1.63v-11.48a7.618 7.618 0 0 1-3.25-2.07 7.712 7.712 0 0 1-1.93-3.76 7.65 7.65 0 0 1 .35-4.21 7.743 7.743 0 0 1 2.52-3.4c1.14-.88 2.5-1.41 3.93-1.55a7.67 7.67 0 0 1 4.16.76 7.694 7.694 0 0 1 4.29 6.91c0 1.68-.56 3.33-1.57 4.66a7.783 7.783 0 0 1-3.71 2.65v11.48c-.02.64-.28 1.22-.73 1.65-.45.43-1.04.67-1.66.67l-.01-.01Zm-.02-27.81a6.687 6.687 0 0 0-6.27 4.34 6.656 6.656 0 0 0-.3 3.67c.24 1.23.82 2.36 1.68 3.27.85.91 1.95 1.57 3.15 1.89l.37.1v12.22c.01.34.17.68.43.93.52.5 1.41.5 1.93 0 .26-.25.41-.59.43-.95v-12.21l.37-.1c1.4-.39 2.66-1.24 3.54-2.4.88-1.16 1.37-2.6 1.37-4.06 0-1.25-.35-2.47-1.01-3.54a6.68 6.68 0 0 0-5.68-3.16h-.01Z" fill="#000"/><path d="M130.39 174.82c19.54 0 35.39-15.85 35.39-35.41 0-19.56-15.85-35.41-35.39-35.41S95 119.85 95 139.41c0 19.56 15.84 35.41 35.39 35.41Z" fill="#C43100"/><path d="M130.39 175.32c-19.79 0-35.89-16.11-35.89-35.91 0-19.8 16.1-35.91 35.89-35.91s35.89 16.11 35.89 35.91c0 19.8-16.1 35.91-35.89 35.91Zm0-70.82c-19.24 0-34.89 15.66-34.89 34.91 0 19.25 15.65 34.91 34.89 34.91 19.24 0 34.89-15.66 34.89-34.91 0-19.25-15.65-34.91-34.89-34.91Z" fill="#000"/><path d="M126 158.21c0 2.52 1.98 4.5 4.5 4.5s4.56-1.97 4.56-4.5c0-2.53-2.04-4.56-4.56-4.56-2.52 0-4.5 2.05-4.5 4.56Z" fill="#fff"/><path d="M130.5 163.21c-2.8 0-5-2.2-5-5s2.24-5.06 5-5.06 5.06 2.27 5.06 5.06c0 2.79-2.27 5-5.06 5Zm0-9.05c-2.24 0-4 1.78-4 4.06 0 2.28 1.75 4 4 4s4.06-1.76 4.06-4-1.82-4.06-4.06-4.06Z" fill="#000"/><path d="m127.72 150.46.35.26c.26.18.56.28.88.28h3.09c.31 0 .62-.1.88-.28l.35-.26c.35-.25.58-.64.62-1.07l3.05-31.56c.05-.53-.18-1.05-.62-1.36l-.26-.18a1.51 1.51 0 0 0-.88-.28h-9.39c-.31 0-.62.1-.88.28l-.26.18c-.43.31-.67.83-.62 1.36l3.05 31.56c.04.43.27.82.62 1.07h.02Z" fill="#fff"/><path d="M132.05 151.5h-3.09c-.42 0-.83-.13-1.17-.38l-.35-.25c-.47-.34-.77-.86-.82-1.43l-3.05-31.56c-.07-.71.25-1.4.82-1.81l.25-.18c.34-.25.75-.38 1.17-.38h9.39c.42 0 .83.13 1.17.38l.26.18c.57.41.89 1.11.82 1.81l-3.05 31.56c-.05.57-.35 1.09-.82 1.43l-.35.26c-.34.25-.75.38-1.17.38l-.01-.01Zm-6.24-35c-.21 0-.41.07-.58.19l-.25.18c-.29.21-.45.56-.41.91l3.05 31.56c.03.29.18.55.41.71l.35.25c.17.12.37.19.58.19h3.09c.21 0 .41-.07.59-.19l.35-.25c.23-.17.38-.43.41-.71l3.05-31.56c.03-.35-.12-.7-.41-.91l-.26-.18a1.03 1.03 0 0 0-.58-.19h-9.39Z" fill="#000"/></g><defs><clipPath id="a"><path fill="#fff" d="M34 24h132.28v151.32H34z"/></clipPath></defs></svg>