<svg width="200" height="200" viewBox="0 0 200 200" fill="none" xmlns="http://www.w3.org/2000/svg"><g clip-path="url(#a)"><path d="m39.67 28.51 81.51 2.74a6.28 6.28 0 0 1 6.07 6.51l-3.99 110.06c-.13 3.48-3.05 6.21-6.53 6.09l-81.51-2.74a6.28 6.28 0 0 1-6.07-6.51L33.14 34.6c.13-3.48 3.05-6.21 6.53-6.09Z" fill="#E0D8D4"/><path d="M116.95 154.42h-.23l-81.51-2.74a6.74 6.74 0 0 1-4.74-2.16 6.77 6.77 0 0 1-1.82-4.88l3.99-110.06c.14-3.75 3.33-6.71 7.05-6.57l81.51 2.74c1.82.06 3.5.83 4.74 2.15a6.77 6.77 0 0 1 1.82 4.88l-3.99 110.06c-.13 3.67-3.17 6.58-6.82 6.58ZM39.46 29c-3.11 0-5.7 2.48-5.82 5.61l-3.99 110.06c-.06 1.55.49 3.03 1.55 4.16a5.761 5.761 0 0 0 4.04 1.84l81.51 2.74c3.21.14 5.9-2.41 6.01-5.61l3.99-110.06c.06-1.55-.49-3.03-1.55-4.16a5.761 5.761 0 0 0-4.04-1.84l-81.5-2.73h-.2V29Z" fill="#000"/><path d="M111.36 22.5H29.81a6.31 6.31 0 0 0-6.31 6.31v110.12a6.31 6.31 0 0 0 6.31 6.31h81.55a6.31 6.31 0 0 0 6.31-6.31V28.81a6.31 6.31 0 0 0-6.31-6.31Z" fill="#fff"/><path d="M111.36 145.74H29.81c-3.75 0-6.81-3.05-6.81-6.81V28.81c0-3.76 3.05-6.81 6.81-6.81h81.56c3.75 0 6.81 3.05 6.81 6.81v110.13c0 3.75-3.05 6.81-6.81 6.81l-.01-.01ZM29.81 23C26.6 23 24 25.6 24 28.81v110.13c0 3.2 2.6 5.81 5.81 5.81h81.56c3.2 0 5.81-2.6 5.81-5.81V28.81c0-3.2-2.6-5.81-5.81-5.81H29.81Z" fill="#000"/><path d="M107.97 82.49c0 3.09-4.21 5.59-4.97 8.45-.79 2.95 1.58 7.22.09 9.8-1.52 2.62-6.41 2.69-8.54 4.82-2.13 2.13-2.2 7.02-4.82 8.54-2.59 1.5-6.85-.87-9.8-.09-2.86.76-5.35 4.97-8.45 4.97-3.1 0-5.59-4.21-8.45-4.97-2.95-.79-7.22 1.58-9.8.09-2.62-1.52-2.69-6.41-4.82-8.54-2.13-2.13-7.02-2.2-8.54-4.82-1.5-2.59.87-6.85.09-9.8-.76-2.86-4.97-5.35-4.97-8.45 0-3.1 4.21-5.59 4.97-8.45.79-2.95-1.58-7.22-.09-9.8 1.52-2.62 6.41-2.69 8.54-4.82 2.13-2.13 2.2-7.02 4.82-8.54 2.59-1.5 6.85.87 9.8.09 2.86-.76 5.35-4.97 8.45-4.97 3.1 0 5.59 4.21 8.45 4.97 2.95.79 7.22-1.58 9.8-.09 2.62 1.52 2.69 6.41 4.82 8.54 2.13 2.13 7.02 2.2 8.54 4.82 1.5 2.59-.87 6.85-.09 9.8.76 2.86 4.97 5.35 4.97 8.45Z" fill="#FF8C00"/><path d="M71.49 119.48c-1.91 0-3.53-1.38-5.1-2.71-1.19-1.01-2.32-1.97-3.47-2.27-1.22-.33-2.79-.05-4.3.22-1.99.36-4.04.73-5.62-.19-1.61-.93-2.32-2.91-3-4.83-.51-1.43-1.04-2.91-1.92-3.78-.87-.87-2.35-1.4-3.78-1.92-1.92-.69-3.9-1.4-4.83-3-.91-1.58-.55-3.64-.19-5.63.27-1.51.55-3.07.23-4.3-.31-1.16-1.26-2.28-2.27-3.47-1.33-1.57-2.71-3.2-2.71-5.11 0-1.91 1.38-3.53 2.71-5.1 1.01-1.19 1.97-2.32 2.27-3.47.33-1.23.05-2.79-.22-4.3-.36-1.99-.73-4.04.19-5.62.93-1.61 2.91-2.32 4.83-3 1.43-.51 2.91-1.04 3.78-1.92.87-.87 1.4-2.35 1.92-3.78.69-1.92 1.4-3.9 3.01-4.83 1.58-.91 3.64-.55 5.63-.19 1.51.27 3.07.55 4.3.23 1.16-.31 2.28-1.26 3.47-2.27 1.57-1.33 3.2-2.71 5.11-2.71 1.91 0 3.53 1.38 5.11 2.71 1.19 1.01 2.32 1.97 3.47 2.28 1.23.33 2.79.05 4.3-.22 1.99-.36 4.04-.73 5.62.19 1.61.93 2.32 2.91 3 4.83.51 1.43 1.04 2.91 1.92 3.78.87.87 2.35 1.4 3.78 1.92 1.92.69 3.9 1.4 4.83 3.01.92 1.58.55 3.64.19 5.63-.27 1.51-.55 3.07-.22 4.3.31 1.16 1.26 2.28 2.27 3.47 1.33 1.57 2.71 3.19 2.71 5.1 0 1.91-1.38 3.53-2.71 5.1-1.01 1.19-1.97 2.32-2.27 3.48-.33 1.23-.05 2.79.22 4.3.36 1.99.73 4.04-.19 5.62-.93 1.61-2.91 2.32-4.83 3-1.43.51-2.91 1.04-3.78 1.92-.87.87-1.4 2.35-1.92 3.78-.69 1.92-1.4 3.9-3.01 4.83-1.58.92-3.64.54-5.63.19-1.51-.27-3.07-.55-4.3-.22-1.16.31-2.28 1.26-3.47 2.27-1.57 1.33-3.2 2.71-5.11 2.71l-.02-.03Zm-9.86-6.13c.53 0 1.05.05 1.54.18 1.37.36 2.64 1.44 3.86 2.48 1.43 1.22 2.91 2.47 4.46 2.47 1.55 0 3.03-1.26 4.46-2.47 1.22-1.04 2.49-2.11 3.86-2.48 1.44-.38 3.11-.08 4.73.21 1.9.34 3.69.66 4.95-.07 1.29-.75 1.91-2.47 2.56-4.3.55-1.53 1.12-3.12 2.15-4.15 1.03-1.03 2.62-1.6 4.15-2.15 1.83-.66 3.56-1.28 4.3-2.56.73-1.26.41-3.05.07-4.94-.29-1.62-.59-3.3-.21-4.74.36-1.38 1.44-2.64 2.48-3.87 1.21-1.43 2.47-2.91 2.47-4.45s-1.26-3.02-2.47-4.46c-1.04-1.22-2.11-2.49-2.48-3.86-.38-1.44-.08-3.11.21-4.73.34-1.9.66-3.69-.07-4.95-.75-1.29-2.47-1.91-4.3-2.56-1.53-.55-3.12-1.12-4.15-2.15-1.03-1.03-1.6-2.62-2.15-4.15-.66-1.83-1.27-3.56-2.56-4.3-1.26-.73-3.05-.41-4.94-.07-1.62.29-3.3.59-4.74.21-1.37-.37-2.64-1.44-3.86-2.48-1.43-1.22-2.92-2.48-4.46-2.48s-3.02 1.26-4.46 2.47c-1.22 1.04-2.49 2.11-3.86 2.48-1.44.38-3.11.08-4.73-.21-1.9-.34-3.69-.66-4.95.07-1.29.75-1.91 2.47-2.56 4.3-.55 1.53-1.12 3.12-2.15 4.15-1.03 1.03-2.62 1.6-4.15 2.15-1.83.66-3.56 1.27-4.3 2.56-.73 1.26-.41 3.05-.07 4.94.29 1.62.59 3.3.21 4.74-.36 1.37-1.44 2.64-2.48 3.86-1.22 1.43-2.47 2.92-2.47 4.46s1.26 3.03 2.47 4.46c1.04 1.22 2.11 2.49 2.48 3.86.38 1.44.08 3.11-.21 4.73-.34 1.9-.66 3.69.07 4.95.75 1.29 2.47 1.91 4.3 2.56 1.53.55 3.12 1.12 4.15 2.15 1.03 1.03 1.6 2.62 2.15 4.15.66 1.83 1.28 3.56 2.56 4.3 1.26.73 3.05.41 4.94.07 1.07-.19 2.17-.39 3.2-.39v.01Z" fill="#000"/><path d="M71.49 110.25c15.332 0 27.76-12.428 27.76-27.76 0-15.331-12.428-27.76-27.76-27.76-15.331 0-27.76 12.429-27.76 27.76 0 15.332 12.429 27.76 27.76 27.76Z" fill="#FFB972"/><path d="M71.49 110.75c-15.58 0-28.26-12.68-28.26-28.26 0-15.58 12.68-28.26 28.26-28.26 15.58 0 28.26 12.68 28.26 28.26 0 15.58-12.68 28.26-28.26 28.26Zm0-55.52c-15.03 0-27.26 12.23-27.26 27.26 0 15.03 12.23 27.26 27.26 27.26 15.03 0 27.26-12.23 27.26-27.26 0-15.03-12.23-27.26-27.26-27.26Z" fill="#000"/><path d="m85.59 69.73.32-.38-.38-.32-2.97-2.51-.38-.32-.32.38L57.5 95.2l-.32.38.38.32 2.97 2.51.38.32.32-.38 24.36-28.62Zm-28.33 2.43c0 3.88 3.31 6.24 6.87 6.24s7-2.35 7-6.24-3.34-6.28-7-6.28-6.87 2.38-6.87 6.28Zm8.94 0c0 .67-.26 1.08-.61 1.34-.37.27-.9.41-1.47.41-.53 0-1.02-.13-1.37-.4-.33-.25-.58-.67-.58-1.35s.25-1.11.58-1.37c.35-.27.84-.41 1.37-.41.57 0 1.1.14 1.47.41.35.26.61.68.61 1.36v.01Zm5.35 20.72c0 3.88 3.31 6.24 6.87 6.24s7.02-2.35 7.02-6.24-3.36-6.28-7.02-6.28c-3.66 0-6.87 2.38-6.87 6.28Zm8.94 0c0 .67-.26 1.08-.61 1.34-.37.27-.9.41-1.47.41-.53 0-1.02-.13-1.37-.4-.33-.25-.58-.67-.58-1.35s.25-1.11.58-1.37c.35-.27.84-.41 1.37-.41.57 0 1.1.14 1.47.41.35.26.61.68.61 1.36v.01Z" fill="#fff"/><path d="M78.41 99.61c-3.57 0-7.37-2.36-7.37-6.74 0-4.38 3.79-6.78 7.37-6.78s7.52 2.38 7.52 6.78-3.87 6.74-7.52 6.74Zm0-12.52c-3.09 0-6.37 2.03-6.37 5.78 0 3.75 3.28 5.74 6.37 5.74 3.09 0 6.52-2.01 6.52-5.74 0-3.73-3.36-5.78-6.52-5.78ZM60.97 99.43l-4.49-3.8 25.65-30.15 4.49 3.8-25.65 30.15Zm-3.08-3.92 2.97 2.51L85.22 69.4l-2.97-2.51-24.36 28.62Zm20.53-.39c-.66 0-1.26-.18-1.68-.51-.51-.4-.77-.98-.77-1.74s.26-1.36.77-1.76c.87-.68 2.58-.64 3.44 0 .54.4.81.99.81 1.76s-.27 1.35-.81 1.74c-.44.33-1.07.51-1.77.51h.01Zm0-3.52c-.44 0-.82.11-1.06.3-.26.2-.38.52-.38.97 0 .45.12.75.38.95.52.4 1.72.37 2.24-.01.17-.13.4-.36.4-.94s-.23-.83-.41-.96c-.27-.2-.69-.31-1.17-.31ZM64.13 78.89c-3.57 0-7.37-2.36-7.37-6.74 0-4.38 3.79-6.78 7.37-6.78s7.5 2.38 7.5 6.78-3.86 6.74-7.5 6.74Zm0-12.52c-3.09 0-6.37 2.03-6.37 5.78 0 3.75 3.28 5.74 6.37 5.74 3.09 0 6.5-1.97 6.5-5.74 0-3.77-3.35-5.78-6.5-5.78Zm0 8.03c-.66 0-1.26-.18-1.68-.51-.51-.4-.77-.98-.77-1.74s.26-1.36.77-1.76c.87-.68 2.58-.64 3.44 0 .54.4.81.99.81 1.76s-.27 1.35-.81 1.74c-.44.33-1.07.51-1.77.51h.01Zm0-3.52c-.44 0-.82.11-1.06.3-.26.2-.38.52-.38.97 0 .45.12.75.38.95.52.41 1.71.37 2.24-.01.17-.13.4-.36.4-.94s-.23-.83-.41-.96c-.27-.2-.69-.31-1.17-.31ZM166.19 71.5H95.81a6.31 6.31 0 0 0-6.31 6.31v91.38a6.31 6.31 0 0 0 6.31 6.31h70.38a6.31 6.31 0 0 0 6.31-6.31V77.81a6.31 6.31 0 0 0-6.31-6.31Z" fill="#000"/><path d="M166.19 176H95.8c-3.75 0-6.81-3.05-6.81-6.81V77.81c0-3.75 3.05-6.81 6.81-6.81h70.39c3.75 0 6.81 3.05 6.81 6.81v91.39c0 3.75-3.05 6.81-6.81 6.81V176ZM95.81 72c-3.2 0-5.81 2.6-5.81 5.81v91.39c0 3.2 2.6 5.81 5.81 5.81h70.39c3.2 0 5.81-2.6 5.81-5.81V77.81c0-3.2-2.6-5.81-5.81-5.81H95.81Z" fill="#000"/><path d="M163 79.5H99a1.5 1.5 0 0 0-1.5 1.5v16a1.5 1.5 0 0 0 1.5 1.5h64a1.5 1.5 0 0 0 1.5-1.5V81a1.5 1.5 0 0 0-1.5-1.5Z" fill="#000"/><path d="M163 99H99c-1.1 0-2-.9-2-2V81c0-1.1.9-2 2-2h64c1.1 0 2 .9 2 2v16c0 1.1-.9 2-2 2ZM99 80c-.55 0-1 .45-1 1v16c0 .55.45 1 1 1h64c.55 0 1-.45 1-1V81c0-.55-.45-1-1-1H99ZM113 105.5H99a1.5 1.5 0 0 0-1.5 1.5v14a1.5 1.5 0 0 0 1.5 1.5h14a1.5 1.5 0 0 0 1.5-1.5v-14a1.5 1.5 0 0 0-1.5-1.5Z" fill="#000"/><path d="M113 123H99c-1.1 0-2-.9-2-2v-14c0-1.1.9-2 2-2h14c1.1 0 2 .9 2 2v14c0 1.1-.9 2-2 2Zm-14-17c-.55 0-1 .45-1 1v14c0 .55.45 1 1 1h14c.55 0 1-.45 1-1v-14c0-.55-.45-1-1-1H99ZM113 128.5H99a1.5 1.5 0 0 0-1.5 1.5v14a1.5 1.5 0 0 0 1.5 1.5h14a1.5 1.5 0 0 0 1.5-1.5v-14a1.5 1.5 0 0 0-1.5-1.5Z" fill="#000"/><path d="M113 146H99c-1.1 0-2-.9-2-2v-14c0-1.1.9-2 2-2h14c1.1 0 2 .9 2 2v14c0 1.1-.9 2-2 2Zm-14-17c-.55 0-1 .45-1 1v14c0 .55.45 1 1 1h14c.55 0 1-.45 1-1v-14c0-.55-.45-1-1-1H99ZM113 151.5H99a1.5 1.5 0 0 0-1.5 1.5v14a1.5 1.5 0 0 0 1.5 1.5h14a1.5 1.5 0 0 0 1.5-1.5v-14a1.5 1.5 0 0 0-1.5-1.5Z" fill="#000"/><path d="M113 169H99c-1.1 0-2-.9-2-2v-14c0-1.1.9-2 2-2h14c1.1 0 2 .9 2 2v14c0 1.1-.9 2-2 2Zm-14-17c-.55 0-1 .45-1 1v14c0 .55.45 1 1 1h14c.55 0 1-.45 1-1v-14c0-.55-.45-1-1-1H99ZM138 105.5h-14a1.5 1.5 0 0 0-1.5 1.5v14a1.5 1.5 0 0 0 1.5 1.5h14a1.5 1.5 0 0 0 1.5-1.5v-14a1.5 1.5 0 0 0-1.5-1.5Z" fill="#000"/><path d="M138 123h-14c-1.1 0-2-.9-2-2v-14c0-1.1.9-2 2-2h14c1.1 0 2 .9 2 2v14c0 1.1-.9 2-2 2Zm-14-17c-.55 0-1 .45-1 1v14c0 .55.45 1 1 1h14c.55 0 1-.45 1-1v-14c0-.55-.45-1-1-1h-14ZM138 128.5h-14a1.5 1.5 0 0 0-1.5 1.5v14a1.5 1.5 0 0 0 1.5 1.5h14a1.5 1.5 0 0 0 1.5-1.5v-14a1.5 1.5 0 0 0-1.5-1.5Z" fill="#000"/><path d="M138 146h-14c-1.1 0-2-.9-2-2v-14c0-1.1.9-2 2-2h14c1.1 0 2 .9 2 2v14c0 1.1-.9 2-2 2Zm-14-17c-.55 0-1 .45-1 1v14c0 .55.45 1 1 1h14c.55 0 1-.45 1-1v-14c0-.55-.45-1-1-1h-14ZM138 151.5h-14a1.5 1.5 0 0 0-1.5 1.5v14a1.5 1.5 0 0 0 1.5 1.5h14a1.5 1.5 0 0 0 1.5-1.5v-14a1.5 1.5 0 0 0-1.5-1.5Z" fill="#000"/><path d="M138 169h-14c-1.1 0-2-.9-2-2v-14c0-1.1.9-2 2-2h14c1.1 0 2 .9 2 2v14c0 1.1-.9 2-2 2Zm-14-17c-.55 0-1 .45-1 1v14c0 .55.45 1 1 1h14c.55 0 1-.45 1-1v-14c0-.55-.45-1-1-1h-14ZM163 105.5h-14a1.5 1.5 0 0 0-1.5 1.5v14a1.5 1.5 0 0 0 1.5 1.5h14a1.5 1.5 0 0 0 1.5-1.5v-14a1.5 1.5 0 0 0-1.5-1.5Z" fill="#000"/><path d="M163 123h-14c-1.1 0-2-.9-2-2v-14c0-1.1.9-2 2-2h14c1.1 0 2 .9 2 2v14c0 1.1-.9 2-2 2Zm-14-17c-.55 0-1 .45-1 1v14c0 .55.45 1 1 1h14c.55 0 1-.45 1-1v-14c0-.55-.45-1-1-1h-14ZM163 128.5h-14a1.5 1.5 0 0 0-1.5 1.5v37a1.5 1.5 0 0 0 1.5 1.5h14a1.5 1.5 0 0 0 1.5-1.5v-37a1.5 1.5 0 0 0-1.5-1.5Z" fill="#000"/><path d="M163 169h-14c-1.1 0-2-.9-2-2v-37c0-1.1.9-2 2-2h14c1.1 0 2 .9 2 2v37c0 1.1-.9 2-2 2Zm-14-40c-.55 0-1 .45-1 1v37c0 .55.45 1 1 1h14c.55 0 1-.45 1-1v-37c0-.55-.45-1-1-1h-14Z" fill="#000"/><path d="M169.19 74.5H98.81a6.31 6.31 0 0 0-6.31 6.31v91.38a6.31 6.31 0 0 0 6.31 6.31h70.38a6.31 6.31 0 0 0 6.31-6.31V80.81a6.31 6.31 0 0 0-6.31-6.31Z" fill="#CCD1D1"/><path d="M169.19 74.5H98.81a6.31 6.31 0 0 0-6.31 6.31v91.38a6.31 6.31 0 0 0 6.31 6.31h70.38a6.31 6.31 0 0 0 6.31-6.31V80.81a6.31 6.31 0 0 0-6.31-6.31Z" fill="#CCD1D1"/><path d="M169.19 179H98.8c-3.75 0-6.81-3.05-6.81-6.81V80.81c0-3.75 3.05-6.81 6.81-6.81h70.39c3.75 0 6.81 3.05 6.81 6.81v91.39c0 3.75-3.05 6.81-6.81 6.81V179ZM98.81 75c-3.2 0-5.81 2.6-5.81 5.81v91.39c0 3.2 2.6 5.81 5.81 5.81h70.39c3.2 0 5.81-2.6 5.81-5.81V80.81c0-3.2-2.6-5.81-5.81-5.81H98.81Z" fill="#000"/><path d="M166 82.5h-64a1.5 1.5 0 0 0-1.5 1.5v16a1.5 1.5 0 0 0 1.5 1.5h64a1.5 1.5 0 0 0 1.5-1.5V84a1.5 1.5 0 0 0-1.5-1.5Z" fill="#6D7272"/><path d="M166 102h-64c-1.1 0-2-.9-2-2V84c0-1.1.9-2 2-2h64c1.1 0 2 .9 2 2v16c0 1.1-.9 2-2 2Zm-64-19c-.55 0-1 .45-1 1v16c0 .55.45 1 1 1h64c.55 0 1-.45 1-1V84c0-.55-.45-1-1-1h-64Z" fill="#000"/><path d="M116 108.5h-14a1.5 1.5 0 0 0-1.5 1.5v14a1.5 1.5 0 0 0 1.5 1.5h14a1.5 1.5 0 0 0 1.5-1.5v-14a1.5 1.5 0 0 0-1.5-1.5Z" fill="#F5EEE8"/><path d="M116 126h-14c-1.1 0-2-.9-2-2v-14c0-1.1.9-2 2-2h14c1.1 0 2 .9 2 2v14c0 1.1-.9 2-2 2Zm-14-17c-.55 0-1 .45-1 1v14c0 .55.45 1 1 1h14c.55 0 1-.45 1-1v-14c0-.55-.45-1-1-1h-14Z" fill="#000"/><path d="M116 131.5h-14a1.5 1.5 0 0 0-1.5 1.5v14a1.5 1.5 0 0 0 1.5 1.5h14a1.5 1.5 0 0 0 1.5-1.5v-14a1.5 1.5 0 0 0-1.5-1.5Z" fill="#F5EEE8"/><path d="M116 149h-14c-1.1 0-2-.9-2-2v-14c0-1.1.9-2 2-2h14c1.1 0 2 .9 2 2v14c0 1.1-.9 2-2 2Zm-14-17c-.55 0-1 .45-1 1v14c0 .55.45 1 1 1h14c.55 0 1-.45 1-1v-14c0-.55-.45-1-1-1h-14Z" fill="#000"/><path d="M116 154.5h-14a1.5 1.5 0 0 0-1.5 1.5v14a1.5 1.5 0 0 0 1.5 1.5h14a1.5 1.5 0 0 0 1.5-1.5v-14a1.5 1.5 0 0 0-1.5-1.5Z" fill="#F5EEE8"/><path d="M116 172h-14c-1.1 0-2-.9-2-2v-14c0-1.1.9-2 2-2h14c1.1 0 2 .9 2 2v14c0 1.1-.9 2-2 2Zm-14-17c-.55 0-1 .45-1 1v14c0 .55.45 1 1 1h14c.55 0 1-.45 1-1v-14c0-.55-.45-1-1-1h-14Z" fill="#000"/><path d="M141 108.5h-14a1.5 1.5 0 0 0-1.5 1.5v14a1.5 1.5 0 0 0 1.5 1.5h14a1.5 1.5 0 0 0 1.5-1.5v-14a1.5 1.5 0 0 0-1.5-1.5Z" fill="#F5EEE8"/><path d="M141 126h-14c-1.1 0-2-.9-2-2v-14c0-1.1.9-2 2-2h14c1.1 0 2 .9 2 2v14c0 1.1-.9 2-2 2Zm-14-17c-.55 0-1 .45-1 1v14c0 .55.45 1 1 1h14c.55 0 1-.45 1-1v-14c0-.55-.45-1-1-1h-14Z" fill="#000"/><path d="M141 131.5h-14a1.5 1.5 0 0 0-1.5 1.5v14a1.5 1.5 0 0 0 1.5 1.5h14a1.5 1.5 0 0 0 1.5-1.5v-14a1.5 1.5 0 0 0-1.5-1.5Z" fill="#F5EEE8"/><path d="M141 149h-14c-1.1 0-2-.9-2-2v-14c0-1.1.9-2 2-2h14c1.1 0 2 .9 2 2v14c0 1.1-.9 2-2 2Zm-14-17c-.55 0-1 .45-1 1v14c0 .55.45 1 1 1h14c.55 0 1-.45 1-1v-14c0-.55-.45-1-1-1h-14Z" fill="#000"/><path d="M141 154.5h-14a1.5 1.5 0 0 0-1.5 1.5v14a1.5 1.5 0 0 0 1.5 1.5h14a1.5 1.5 0 0 0 1.5-1.5v-14a1.5 1.5 0 0 0-1.5-1.5Z" fill="#F5EEE8"/><path d="M141 172h-14c-1.1 0-2-.9-2-2v-14c0-1.1.9-2 2-2h14c1.1 0 2 .9 2 2v14c0 1.1-.9 2-2 2Zm-14-17c-.55 0-1 .45-1 1v14c0 .55.45 1 1 1h14c.55 0 1-.45 1-1v-14c0-.55-.45-1-1-1h-14Z" fill="#000"/><path d="M166 108.5h-14a1.5 1.5 0 0 0-1.5 1.5v14a1.5 1.5 0 0 0 1.5 1.5h14a1.5 1.5 0 0 0 1.5-1.5v-14a1.5 1.5 0 0 0-1.5-1.5Z" fill="#F5EEE8"/><path d="M166 126h-14c-1.1 0-2-.9-2-2v-14c0-1.1.9-2 2-2h14c1.1 0 2 .9 2 2v14c0 1.1-.9 2-2 2Zm-14-17c-.55 0-1 .45-1 1v14c0 .55.45 1 1 1h14c.55 0 1-.45 1-1v-14c0-.55-.45-1-1-1h-14Z" fill="#000"/><path d="M166 131.5h-14a1.5 1.5 0 0 0-1.5 1.5v37a1.5 1.5 0 0 0 1.5 1.5h14a1.5 1.5 0 0 0 1.5-1.5v-37a1.5 1.5 0 0 0-1.5-1.5Z" fill="#9BA0A0"/><path d="M166 172h-14c-1.1 0-2-.9-2-2v-37c0-1.1.9-2 2-2h14c1.1 0 2 .9 2 2v37c0 1.1-.9 2-2 2Zm-14-40c-.55 0-1 .45-1 1v37c0 .55.45 1 1 1h14c.55 0 1-.45 1-1v-37c0-.55-.45-1-1-1h-14Z" fill="#000"/></g><defs><clipPath id="a"><path fill="#fff" d="M23 22h153v157H23z"/></clipPath></defs></svg>