<svg width="200" height="200" viewBox="0 0 200 200" fill="none" xmlns="http://www.w3.org/2000/svg"><g clip-path="url(#a)"><path d="M140.75 46.92c-.07 6.57-1.45 14.43-4.38 21.56-3.01 7.31-7.64 13.8-14.11 17.35-4.1 2.25-7.42 4.18-9.73 6.05-2.3 1.86-3.7 3.74-3.76 5.92-.06 2.16 1.21 4.44 3.75 7.09 2.56 2.66 6.5 5.77 11.97 9.61 10.81 7.58 15.57 17.76 17.63 26.06 1.03 4.15 1.38 7.83 1.47 10.46a39.214 39.214 0 0 1-.03 3.76H56.24c0-.12-.01-.26-.01-.42-.02-.58-.03-1.42 0-2.49.06-2.13.27-5.13.9-8.61 1.25-6.97 4.12-15.84 10.63-23.51 3.24-3.83 7.28-6.75 11.13-9.25 1.07-.69 2.13-1.36 3.16-2 2.63-1.65 5.03-3.15 6.78-4.65 1.22-1.05 2.17-2.15 2.65-3.35.49-1.23.49-2.52-.13-3.92-.61-1.37-1.81-2.83-3.66-4.42-1.86-1.6-4.41-3.37-7.77-5.37-13.27-7.88-18.61-17.97-20.64-26.06a38.208 38.208 0 0 1-1.15-10.16c.03-1.27.13-2.29.21-2.99.03-.27.07-.49.09-.66h82.34-.02Z" fill="#fff"/><path d="M144.03 155.28H55.76l-.04-.9c-.02-.77-.02-1.64 0-2.51.05-1.96.26-5.06.9-8.68 1.15-6.41 3.94-15.73 10.74-23.75 3.41-4.03 7.6-6.98 11.24-9.35 1.05-.68 2.1-1.34 3.11-1.97 2.63-1.65 5.06-3.17 6.77-4.65 1.28-1.11 2.1-2.14 2.51-3.16.46-1.15.42-2.3-.12-3.53-.58-1.32-1.74-2.7-3.53-4.25-1.87-1.61-4.39-3.35-7.7-5.31C65.8 79 60.65 68.34 58.77 60.85a39.119 39.119 0 0 1-1.17-10.3c.03-1.33.14-2.39.22-3.04.03-.28.07-.5.09-.68l.07-.42h83.27v.5c-.08 7.17-1.69 15.1-4.43 21.74-3.39 8.23-8.34 14.31-14.33 17.6-4.18 2.3-7.43 4.2-9.65 6-2.38 1.93-3.52 3.69-3.57 5.55-.06 1.97 1.09 4.11 3.61 6.73 2.44 2.53 6.22 5.57 11.9 9.55.04.03.08.05.11.08l.3.21c11 7.9 15.55 18.51 17.42 26.06 1.07 4.33 1.4 8.13 1.49 10.57.05 1.38.03 2.47 0 3.14-.01.27-.02.5-.04.67l-.03.47Zm-87.31-1h86.37v-.18c.03-.65.05-1.72 0-3.06-.08-2.38-.41-6.12-1.46-10.36-1.85-7.48-6.38-18.03-17.43-25.77l-.41-.29c-5.51-3.88-9.21-6.87-11.63-9.39-2.72-2.82-3.96-5.19-3.89-7.45.06-2.17 1.31-4.17 3.94-6.3 2.28-1.85 5.57-3.77 9.8-6.1 5.78-3.17 10.58-9.09 13.88-17.1 2.63-6.38 4.2-13.95 4.34-20.87H58.85c0 .07-.02.14-.03.22-.08.63-.18 1.65-.21 2.94-.06 2.29.1 5.9 1.13 10.03 1.84 7.31 6.87 17.71 20.42 25.75 3.37 2 5.93 3.77 7.84 5.42 1.91 1.64 3.15 3.14 3.79 4.6.65 1.47.7 2.92.14 4.31-.47 1.17-1.38 2.33-2.79 3.54-1.77 1.53-4.23 3.07-6.84 4.7-1.07.67-2.11 1.32-3.15 2-3.58 2.32-7.69 5.23-11.02 9.15-6.66 7.85-9.4 16.99-10.52 23.28-.64 3.56-.83 6.61-.89 8.54-.03 1.04-.02 1.86 0 2.39Z" fill="#141414"/><path fill-rule="evenodd" clip-rule="evenodd" d="M76.39 82.64h47.15s.22.01-11.86 6.42c-10.68 4.95-10.13 16.47-10.13 16.47v11.27c5.33 1.51 29.51 8.7 34.73 16.09 3.58 5.07 4.88 16.15 4.82 22.04l-82.21.36s.63-14.15 3.77-21.18c4.32-9.66 29.78-15.84 36.32-17.28-.09-4.04-.21-8.38-.36-11.3-.36-6.86-2.03-10.22-10.73-15.86-8.7-5.64-11.49-7.03-11.49-7.03h-.01Z" fill="#FFB972"/><path d="M136.27 132.88c-5.22-7.4-29.4-14.58-34.73-16.09v-11.27S101 94 111.67 89.05c12.08-6.41 11.86-6.42 11.86-6.42H76.39s2.79 1.39 11.49 7.03c8.7 5.64 10.38 9 10.73 15.86.15 2.92.27 7.26.36 11.3-6.54 1.44-31.99 7.62-36.32 17.28-3.14 7.03-3.77 21.18-3.77 21.18l82.21-.36c.05-5.89-1.24-16.97-4.82-22.04Zm-76.25 20.16c.11-1.42.28-3.4.56-5.58.55-4.41 1.48-9.57 2.99-12.94.96-2.14 3.16-4.21 6.2-6.14 3.02-1.91 6.74-3.61 10.57-5.06 7.65-2.91 15.6-4.8 18.85-5.51l.8-.18-.02-.82c-.09-4.04-.21-8.4-.36-11.33-.18-3.5-.71-6.26-2.4-8.88-1.67-2.58-4.41-4.93-8.79-7.77-3.78-2.45-6.45-4.1-8.27-5.19h39.54c-1.75.95-4.42 2.38-8.49 4.53-5.61 2.62-8.29 6.98-9.55 10.65a21.13 21.13 0 0 0-1.03 4.73c-.06.61-.08 1.11-.09 1.45v12.54l.73.21c2.65.75 9.99 2.92 17.31 5.81 3.66 1.45 7.29 3.07 10.32 4.77 3.06 1.72 5.38 3.47 6.55 5.13 1.66 2.35 2.85 6.2 3.61 10.32.67 3.64.99 7.35 1.03 10.15l-80.15.35c.02-.34.05-.76.09-1.25v.01Z" fill="#141414"/><path d="M50.5 46.92V38.5h98.27v8.42H50.5Z" fill="#FF6842"/><path d="M149.27 47.42H50V38h99.27v9.42Zm-98.27-1h97.27V39H51v7.42Z" fill="#141414"/><path d="M50.5 162.29v-8.43h98.27v8.43H50.5Z" fill="#FF6842"/><path d="M149.27 162.79H50v-9.43h99.27v9.43Zm-98.27-1h97.27v-7.43H51v7.43Z" fill="#141414"/></g><defs><clipPath id="a"><path fill="#fff" d="M50 38h99.27v124.79H50z"/></clipPath></defs></svg>