<svg width="200" height="200" viewBox="0 0 200 200" fill="none" xmlns="http://www.w3.org/2000/svg"><g clip-path="url(#a)"><path d="m96.3 32.46 53.71 21.27-36.37 91.82-53.71-21.27L96.3 32.46Z" fill="#6E7B35"/><path d="m113.93 146.21-54.64-21.64 36.73-92.75 54.64 21.64-.18.46-36.55 92.28v.01Zm-53.34-22.2 52.78 20.9 36-90.89-52.79-20.91-36 90.89.01.01Z" fill="#000"/><path d="m71.22 113.48 25.92-65.44c2.03.8 4.291.77 6.301-.09 2-.86 3.58-2.49 4.39-4.51l26.31 10.42a8.225 8.225 0 0 0 4.62 10.67l-25.91 65.43c-1-.4-2.08-.59-3.16-.58-1.08.02-2.15.25-3.14.67-.99.43-1.89 1.05-2.64 1.82-.75.78-1.34 1.69-1.74 2.69l-26.31-10.42c.8-2.03.76-4.29-.1-6.29-.87-2-2.5-3.58-4.53-4.38l-.01.01Z" fill="#6E7B35"/><path d="M102.44 135.23 75.2 124.44l.18-.46c.76-1.92.72-4.02-.1-5.91a7.734 7.734 0 0 0-4.25-4.12l-.46-.18.18-.47 26.1-65.9.46.18c1.92.76 4.02.73 5.92-.09 1.9-.82 3.36-2.32 4.12-4.24l.18-.46 27.24 10.79-.18.46c-.76 1.92-.73 4.02.09 5.91a7.702 7.702 0 0 0 4.25 4.12l.46.18-26.28 66.36-.46-.18c-.94-.38-1.92-.56-2.97-.54-1.02.02-2.01.23-2.95.63-.94.4-1.77.98-2.48 1.71s-1.26 1.58-1.63 2.53l-.18.47Zm-25.96-11.36 25.41 10.07c.41-.89.96-1.69 1.65-2.4.8-.83 1.74-1.48 2.8-1.93 1.06-.46 2.18-.7 3.33-.71.99-.02 1.95.13 2.88.44l25.56-64.53a8.681 8.681 0 0 1-4.34-4.45 8.702 8.702 0 0 1-.28-6.21l-25.41-10.06a8.645 8.645 0 0 1-4.46 4.33c-1.99.86-4.17.95-6.21.27l-25.56 64.53c1.95.9 3.48 2.46 4.34 4.45.86 1.99.96 4.17.28 6.21l.01-.01Z" fill="#FFF5EE"/><path d="m63.77 28.55 57.42 6.34-10.78 98.18-57.42-6.34 10.78-98.18Z" fill="#6E7B35"/><path d="m110.85 133.62-58.41-6.45L63.33 28l58.41 6.45-10.89 99.17Zm-57.31-7.34 56.42 6.23 10.68-97.17-56.43-6.24-10.67 97.18Z" fill="#000"/><path d="m61.01 113.34 7.66-69.97a8.23 8.23 0 0 0 9.08-7.28l28.1 3.1c-.24 2.17.4 4.34 1.76 6.05a8.251 8.251 0 0 0 5.53 3.03l-7.66 69.97a8.23 8.23 0 0 0-9.08 7.28l-28.1-3.1c.24-2.17-.4-4.34-1.77-6.04a8.251 8.251 0 0 0-5.52-3.03v-.01Z" fill="#6E7B35"/><path d="m96.84 126.08-29.09-3.21.05-.5c.22-2.05-.37-4.07-1.66-5.68a7.713 7.713 0 0 0-5.19-2.85l-.5-.06 7.77-70.96.5.05c2.06.23 4.07-.36 5.68-1.65a7.691 7.691 0 0 0 2.85-5.18l.05-.5 29.09 3.21-.05.5a7.63 7.63 0 0 0 1.66 5.68 7.713 7.713 0 0 0 5.19 2.85l.5.05-7.77 70.96-.5-.05c-2.05-.23-4.07.36-5.68 1.65a7.691 7.691 0 0 0-2.85 5.18l-.05.5v.01Zm-28-4.1 27.13 3c.35-2.12 1.46-4 3.15-5.36a8.678 8.678 0 0 1 5.92-1.91l7.56-69a8.676 8.676 0 0 1-5.37-3.15 8.613 8.613 0 0 1-1.91-5.92l-27.13-3c-.35 2.12-1.46 4-3.15 5.36a8.613 8.613 0 0 1-5.92 1.91l-7.56 69c2.12.36 4.01 1.46 5.36 3.15a8.604 8.604 0 0 1 1.91 5.91l.01.01Z" fill="#FFF5EE"/><path d="m65.69 72.05 63.08 24.98c6.22 2.46 9.27 9.501 6.81 15.711l-20.61 52.04c-2.46 6.21-9.5 9.25-15.72 6.79l-63.08-24.98c-6.22-2.46-9.27-9.5-6.81-15.71l20.61-52.04c2.46-6.21 9.5-9.25 15.72-6.79Z" fill="#BCA89B"/><path d="M103.69 172.93c-1.54 0-3.11-.29-4.63-.89l-63.08-24.98c-3.13-1.24-5.6-3.63-6.93-6.72a12.492 12.492 0 0 1-.15-9.64l20.61-52.04c2.56-6.46 9.9-9.63 16.37-7.07l63.08 24.98c6.47 2.56 9.65 9.9 7.09 16.36l-20.61 52.04c-1.96 4.94-6.71 7.96-11.73 7.96h-.02ZM61.23 71.7c-4.62 0-9 2.78-10.8 7.33l-20.61 52.04c-1.14 2.88-1.09 6.03.14 8.88 1.23 2.84 3.5 5.04 6.38 6.18l63.08 24.98c5.95 2.36 12.71-.56 15.07-6.51l20.61-52.04c2.35-5.95-.57-12.7-6.53-15.06L65.49 72.52c-1.4-.55-2.85-.82-4.27-.82h.01Z" fill="#000"/><path d="m64.13 102.549-22.66-8.97a4.607 4.607 0 0 0-3.48.05 4.511 4.511 0 0 0-2.42 2.49l-3.28 8.29a4.48 4.48 0 0 0 .05 3.43 4.488 4.488 0 0 0 2.47 2.39l22.71 8.99c2.04.81 4.32.77 6.34-.1 2.02-.87 3.6-2.51 4.41-4.55l.51-1.28c.4-1.01.6-2.09.58-3.18a8.376 8.376 0 0 0-.68-3.16c-.43-1-1.06-1.9-1.84-2.66-.78-.76-1.7-1.35-2.72-1.75l.01.01Z" fill="#BCA89B"/><path d="M60.58 120.31c-1.09 0-2.19-.21-3.24-.62l-22.71-8.99a4.947 4.947 0 0 1-2.74-2.65 5.027 5.027 0 0 1-.06-3.81l3.28-8.29c.5-1.25 1.45-2.23 2.68-2.77 1.24-.53 2.61-.55 3.86-.06l22.66 8.97a8.7 8.7 0 0 1 2.88 1.86 8.759 8.759 0 0 1 2.05 9.54l-.51 1.28a8.68 8.68 0 0 1-4.68 4.82c-1.12.48-2.3.72-3.48.72h.01ZM39.8 93.75a4.035 4.035 0 0 0-3.75 2.55l-3.28 8.29c-.39.97-.37 2.08.05 3.05.42.98 1.2 1.73 2.19 2.12l22.71 8.99c1.93.76 4.05.73 5.96-.09a7.677 7.677 0 0 0 4.14-4.27l.51-1.28a7.763 7.763 0 0 0-.09-5.96c-.41-.94-.99-1.78-1.73-2.5-.74-.71-1.6-1.27-2.55-1.65L41.3 94.03c-.48-.19-.99-.29-1.49-.29l-.01.01Z" fill="#000"/><path d="m35.4 116.04 20 2.5-18-7.5-2 5Z" fill="#000"/><path d="M56.1 114.29a5.039 5.039 0 0 1-2.83-6.53c1.02-2.58 3.95-3.84 6.53-2.82a5.039 5.039 0 0 1 2.83 6.53c-1.02 2.58-3.95 3.84-6.53 2.82Z" fill="#F5EEE8"/><path d="M57.95 115.15c-.68 0-1.37-.12-2.03-.39a5.498 5.498 0 0 1-3.04-2.95 5.491 5.491 0 0 1-.07-4.23 5.532 5.532 0 0 1 7.18-3.1c2.84 1.12 4.23 4.34 3.11 7.18a5.53 5.53 0 0 1-5.15 3.49Zm0-10.06c-1.8 0-3.51 1.08-4.22 2.86-.45 1.12-.43 2.35.06 3.46a4.494 4.494 0 0 0 2.49 2.41c2.32.92 4.96-.22 5.88-2.54.92-2.32-.22-4.96-2.55-5.88-.55-.22-1.11-.32-1.67-.32l.01.01ZM144.716 86.476l-56.36 25.887a5.19 5.19 0 0 0-2.55 6.883l17.59 38.293a5.189 5.189 0 0 0 6.882 2.55l56.36-25.886a5.192 5.192 0 0 0 2.55-6.883l-17.589-38.293a5.19 5.19 0 0 0-6.883-2.55Z" fill="#000"/><path d="M108.13 161.05c-2.16 0-4.22-1.23-5.18-3.32l-17.59-38.29c-1.31-2.85-.05-6.24 2.8-7.55l56.35-25.88a5.696 5.696 0 0 1 7.55 2.8l17.59 38.28c1.31 2.85.06 6.24-2.8 7.55l-56.35 25.88c-.77.35-1.57.52-2.37.52v.01Zm-4.28-3.74a4.706 4.706 0 0 0 6.23 2.31l56.35-25.88a4.706 4.706 0 0 0 2.31-6.23l-17.59-38.28a4.637 4.637 0 0 0-2.63-2.44 4.614 4.614 0 0 0-3.59.14l-56.35 25.88a4.706 4.706 0 0 0-2.31 6.23l17.58 38.29v-.02Z" fill="#000"/><path d="m154.792 94.748-66.7 30.637 2.871 6.252L157.664 101l-2.872-6.252ZM127.639 140.036l-15.985 7.342.956 2.081 15.985-7.342-.956-2.081ZM144.305 132.386l-15.985 7.342.956 2.081 15.985-7.342-.956-2.081ZM160.985 124.724 145 132.065l.956 2.081 15.984-7.342-.955-2.08Z" fill="#000"/><path d="m147.245 87.268-56.359 25.887a5.19 5.19 0 0 0-2.55 6.883l17.589 38.293a5.19 5.19 0 0 0 6.883 2.55l56.359-25.886a5.19 5.19 0 0 0 2.55-6.883l-17.589-38.293a5.19 5.19 0 0 0-6.883-2.55Z" fill="#FF6842"/><path d="M110.65 161.851c-2.16 0-4.23-1.23-5.18-3.32l-17.59-38.29a5.696 5.696 0 0 1 2.8-7.55l56.35-25.88a5.73 5.73 0 0 1 4.36-.17c1.43.53 2.56 1.58 3.2 2.96l17.59 38.28c1.31 2.85.06 6.24-2.8 7.55l-56.35 25.88c-.77.35-1.58.52-2.37.52l-.01.02Zm-4.28-3.74a4.626 4.626 0 0 0 2.64 2.44c1.18.43 2.45.39 3.59-.14l56.35-25.88a4.706 4.706 0 0 0 2.31-6.23l-17.59-38.28a4.626 4.626 0 0 0-2.64-2.44 4.658 4.658 0 0 0-3.59.14L91.09 113.6a4.706 4.706 0 0 0-2.31 6.23l17.58 38.29.01-.01Z" fill="#000"/><path d="m157.316 95.553-66.7 30.636 2.87 6.252 66.701-30.636-2.871-6.252Z" fill="#000"/><path d="m130.168 140.828-15.984 7.342.955 2.081 15.985-7.342-.956-2.081ZM146.838 133.187l-15.984 7.342.955 2.081 15.985-7.342-.956-2.081ZM163.518 125.524l-15.985 7.342.956 2.081 15.985-7.342-.956-2.081Z" fill="#fff"/></g><defs><clipPath id="a"><path fill="#fff" d="M28 28h144.69v144.93H28z"/></clipPath></defs></svg>