<svg width="200" height="200" viewBox="0 0 200 200" fill="none" xmlns="http://www.w3.org/2000/svg"><path d="m133.608 24.677-1.796 3.721 14.17 6.839 1.796-3.721-14.17-6.839Z" fill="#FFB972"/><path fill-rule="evenodd" clip-rule="evenodd" d="m131.145 28.631 2.23-4.622 15.07 7.273-2.231 4.622-15.069-7.273Zm1.335-.466 13.269 6.404 1.361-2.82-13.269-6.404-1.361 2.82Z" fill="#231F20"/><path d="m148.219 32.945-16.006-7.725 3.004-4.358 14.546 7.02-1.544 5.063Z" fill="#FFB972"/><path fill-rule="evenodd" clip-rule="evenodd" d="m135.048 20.225 15.318 7.393-1.839 6.031-17.057-8.232 3.578-5.192Zm.337 1.273-2.429 3.526 14.955 7.218 1.249-4.096-13.775-6.648Z" fill="#231F20"/><path d="M132.332 89.158c.797-1.656 1.105-3.497.87-5.266-1.063-8.061-2.151-11.704.388-16.959l3.503-7.253-9.428-4.6-9.428-4.6-3.542 7.336c-2.533 5.255-6.056 6.668-13.028 10.857-1.526.917-2.78 2.308-3.579 3.957l-33.16 68.711c-2.138 4.436-.615 9.599 3.409 11.542l9.84 4.747 9.838 4.75c4.02 1.936 9.014-.078 11.153-4.514l33.167-68.71-.003.002Z" fill="#0A2B19"/><path fill-rule="evenodd" clip-rule="evenodd" d="m118.004 49.81 19.756 9.639-3.72 7.702c-2.097 4.34-1.646 7.49-.802 13.38.145 1.011.302 2.103.459 3.295m-15.693-34.015-.218.452Zm.464 1.339 17.958 8.76-3.286 6.806c-2.239 4.632-1.738 8.106-.888 13.994.145 1.006.3 2.083.454 3.247.221 1.668-.068 3.412-.825 4.984l-.498 1.034-32.665 67.673c-2.04 4.229-6.755 6.078-10.486 4.281m0 0-9.838-4.75-9.84-4.746c-3.735-1.804-5.215-6.646-3.175-10.875l33.159-68.71m34.906 14.74.337-.28-34.163 70.775c-2.239 4.643-7.512 6.822-11.82 4.747l-9.838-4.75-9.841-4.746c-4.312-2.083-5.88-7.569-3.64-12.21l33.159-68.711c.839-1.733 2.159-3.2 3.771-4.169 1.033-.62 1.987-1.179 2.87-1.696 5.133-3.006 7.874-4.61 9.965-8.95l3.542-7.335m15.658 37.324a9.679 9.679 0 0 0 .253-3.76Zm-18.299-29.555 3.323-6.882Z" fill="#231F20"/><path d="m127.667 55.081 9.429 4.6 3.32-6.885a45.796 45.796 0 0 0 4.164-14l.517-3.992-6.2-2.996-6.199-2.987-2.297 2.365a50.2 50.2 0 0 0-9.196 13.146l-2.968 6.15 9.428 4.6h.002Z" fill="#FFB972"/><path fill-rule="evenodd" clip-rule="evenodd" d="m132.59 28.215 6.523 3.143 6.526 3.152-.563 4.35a46.306 46.306 0 0 1-4.21 14.153l-3.538 7.338-9.798-4.78h-.003l-9.957-4.858 3.185-6.598a50.677 50.677 0 0 1 9.287-13.277l2.548-2.623Zm.215 1.213-2.045 2.107a49.673 49.673 0 0 0-9.105 13.015l-2.752 5.7 8.899 4.342h.003l9.058 4.42 3.102-6.433a45.287 45.287 0 0 0 4.119-13.848l.47-3.634-11.749-5.669Z" fill="#231F20"/><path d="M68.576 81.483a2.872 2.872 0 0 0-4.036-.454l-3.604 2.877-11.1 8.857a2.871 2.871 0 0 0-.453 4.036l7.066 8.855a2.871 2.871 0 0 0 4.036.454l11.1-8.858 3.604-2.875a2.871 2.871 0 0 0 .454-4.035l-7.067-8.857Z" fill="#D7E8EF"/><path fill-rule="evenodd" clip-rule="evenodd" d="M68.186 81.794a2.371 2.371 0 0 0-3.334-.374l-3.604 2.877-11.1 8.857a2.372 2.372 0 0 0-.374 3.333l7.066 8.855a2.371 2.371 0 0 0 3.333.375l11.1-8.858 3.604-2.875a2.372 2.372 0 0 0 .375-3.333l-7.066-8.856Zm-3.958-1.156a3.372 3.372 0 0 1 4.74.533l7.066 8.857a3.372 3.372 0 0 1-.533 4.738l-3.604 2.875-11.1 8.858a3.372 3.372 0 0 1-4.738-.533l-7.067-8.855a3.372 3.372 0 0 1 .533-4.739l14.703-11.734Z" fill="#231F20"/><path d="M107.549 82.108a2.871 2.871 0 0 0-4.035-.454l-3.605 2.875-11.1 8.858a2.872 2.872 0 0 0-.453 4.035l7.066 8.858a2.872 2.872 0 0 0 4.036.453l11.1-8.857 3.605-2.877a2.872 2.872 0 0 0 .453-4.035l-7.067-8.856Z" fill="#D7E8EF"/><path fill-rule="evenodd" clip-rule="evenodd" d="M107.158 82.42a2.372 2.372 0 0 0-3.333-.375l-3.604 2.875-11.1 8.858a2.372 2.372 0 0 0-.375 3.332l7.067 8.858a2.371 2.371 0 0 0 3.333.374l11.1-8.857 3.605-2.877a2.372 2.372 0 0 0 .374-3.333l-7.067-8.856Zm-3.956-1.157a3.372 3.372 0 0 1 4.738.533l7.067 8.856a3.371 3.371 0 0 1-.533 4.738l-3.604 2.877-11.1 8.857a3.37 3.37 0 0 1-4.739-.533l-7.066-8.857a3.372 3.372 0 0 1 .532-4.738l14.705-11.733Z" fill="#231F20"/><path d="m115.38 86.601-5.945 9.645a2.87 2.87 0 0 0 .937 3.951l9.645 5.945a2.87 2.87 0 0 0 3.951-.937l5.945-9.645a2.87 2.87 0 0 0-.937-3.951l-9.645-5.945a2.871 2.871 0 0 0-3.951.937Z" fill="#D7E8EF"/><path fill-rule="evenodd" clip-rule="evenodd" d="M110.109 100.623a3.372 3.372 0 0 1-1.101-4.64l5.946-9.644a3.371 3.371 0 0 1 4.639-1.1l9.645 5.944a3.372 3.372 0 0 1 1.101 4.64l-5.946 9.644a3.371 3.371 0 0 1-4.639 1.101l-9.645-5.945Zm-.249-4.114a2.37 2.37 0 0 0 .774 3.263l9.645 5.945a2.371 2.371 0 0 0 3.263-.774l5.945-9.645a2.37 2.37 0 0 0-.774-3.263l-9.645-5.946a2.371 2.371 0 0 0-3.263.775l-5.945 9.645Z" fill="#231F20"/><path d="m88.978 89.184-12.09-7.451a2.872 2.872 0 0 0-3.95.937l-5.945 9.645a2.872 2.872 0 0 0 .937 3.951l12.09 7.453 3.926 2.42a2.872 2.872 0 0 0 3.951-.938l5.945-9.646a2.871 2.871 0 0 0-.938-3.952l-3.926-2.419Z" fill="#D7E8EF"/><path fill-rule="evenodd" clip-rule="evenodd" d="M72.512 82.408a3.371 3.371 0 0 1 4.64-1.1l16.014 9.87a3.372 3.372 0 0 1 1.102 4.639l-5.945 9.646a3.373 3.373 0 0 1-4.64 1.102l-16.015-9.873a3.372 3.372 0 0 1-1.1-4.64l5.944-9.644Zm4.115-.25a2.372 2.372 0 0 0-3.264.775l-5.944 9.644a2.371 2.371 0 0 0 .774 3.263l16.015 9.873a2.372 2.372 0 0 0 3.264-.775l5.944-9.646a2.372 2.372 0 0 0-.774-3.263l-3.927-2.42-12.088-7.45Z" fill="#231F20"/><path d="m145.274 89.538-12.088-7.451a2.873 2.873 0 0 0-3.952.938l-5.944 9.645a2.872 2.872 0 0 0 .938 3.952l12.09 7.451 3.925 2.418a2.872 2.872 0 0 0 3.951-.938l5.944-9.644a2.87 2.87 0 0 0-.938-3.952l-3.926-2.42Z" fill="#D7E8EF"/><path fill-rule="evenodd" clip-rule="evenodd" d="M128.809 82.762a3.371 3.371 0 0 1 4.639-1.1l12.089 7.45 3.926 2.42a3.372 3.372 0 0 1 1.101 4.639l-5.945 9.644a3.371 3.371 0 0 1-4.638 1.102l-3.925-2.418-12.091-7.452a3.372 3.372 0 0 1-1.101-4.639l5.945-9.646Zm4.115-.25a2.372 2.372 0 0 0-3.264.775l-5.945 9.646a2.372 2.372 0 0 0 .775 3.263l12.091 7.452 3.924 2.417a2.371 2.371 0 0 0 3.263-.774l5.945-9.645a2.372 2.372 0 0 0-.775-3.263l-3.926-2.42-12.088-7.45Z" fill="#231F20"/><path d="m98.916 97.669-53.602.12 22.411 77.687h63.791l22.409-77.807H98.916Z" fill="#9BA0A0"/><path fill-rule="evenodd" clip-rule="evenodd" d="M98.916 97.169h55.674l-22.698 78.807H67.349L44.65 97.29l54.267-.121Zm0 1-52.938.118L68.1 174.976h63.038l22.122-76.807H98.916Z" fill="#231F20"/><path d="M131.514 179.62h-63.79c-2.89 0-2.645-4.146 0-4.146h63.79c2.649 0 2.881 4.146 0 4.146Z" fill="#CCD1D1"/><path fill-rule="evenodd" clip-rule="evenodd" d="M66.508 178.642c.238.27.622.478 1.216.478h63.79c.591 0 .975-.208 1.213-.478.246-.28.373-.669.361-1.081-.023-.831-.581-1.587-1.574-1.587h-63.79c-.992 0-1.551.757-1.576 1.588-.012.411.114.8.36 1.08Zm-1.36-1.11c.037-1.242.922-2.558 2.576-2.558h63.79c1.656 0 2.539 1.317 2.574 2.559.017.625-.173 1.272-.611 1.77-.446.506-1.113.817-1.963.817h-63.79c-.851 0-1.52-.31-1.967-.817-.438-.498-.627-1.146-.608-1.771Z" fill="#231F20"/><path d="M148.469 116.347H50.772c-4.425 0-4.05-4.146 0-4.146h97.697c4.057 0 4.413 4.146 0 4.146Z" fill="#CCD1D1"/><path fill-rule="evenodd" clip-rule="evenodd" d="M48.633 115.298c.413.306 1.105.549 2.139.549h97.697c1.03 0 1.721-.242 2.134-.549.406-.302.557-.668.543-1.002-.029-.654-.783-1.595-2.677-1.595H50.772c-1.891 0-2.65.942-2.68 1.596-.014.334.136.7.541 1.001Zm-1.54-1.046c.065-1.419 1.52-2.551 3.679-2.551h97.697c2.163 0 3.615 1.132 3.676 2.552.03.702-.304 1.372-.946 1.848-.634.47-1.554.746-2.73.746H50.772c-1.179 0-2.1-.276-2.735-.746-.642-.477-.975-1.147-.943-1.849Z" fill="#231F20"/><path d="M152.896 99.746h-106.6c-4.828 0-4.419-4.145 0-4.145h106.6c4.426 0 4.814 4.145 0 4.145Z" fill="#CCD1D1"/><path fill-rule="evenodd" clip-rule="evenodd" d="M43.92 98.685c.463.315 1.234.561 2.377.561h106.599c1.139 0 1.909-.246 2.372-.56.456-.31.608-.676.594-.99-.03-.624-.845-1.595-2.966-1.595h-106.6c-2.116 0-2.937.971-2.968 1.597-.015.313.136.678.591.987Zm-1.59-1.036c.07-1.447 1.664-2.548 3.967-2.548h106.599c2.305 0 3.897 1.1 3.965 2.55.033.722-.343 1.394-1.03 1.861-.68.462-1.667.734-2.935.734h-106.6c-1.27 0-2.259-.272-2.939-.734-.688-.468-1.063-1.14-1.027-1.863Z" fill="#231F20"/></svg>