<svg width="200" height="200" viewBox="0 0 200 200" fill="none" xmlns="http://www.w3.org/2000/svg"><g opacity=".5" clip-path="url(#a)"><path d="M149.25 42.5H28.4c-2.15 0-3.9 2.17-3.9 4.86v99.29c0 2.68 1.75 4.86 3.9 4.86h120.85c2.15 0 3.9-2.17 3.9-4.86V47.36c0-2.68-1.75-4.86-3.9-4.86Z" fill="#FFF5EE"/><path d="M149.25 152H28.4c-2.43 0-4.4-2.4-4.4-5.36V47.36C24 44.4 25.97 42 28.4 42h120.85c2.43 0 4.4 2.4 4.4 5.36v99.29c0 2.95-1.97 5.36-4.4 5.36V152ZM28.4 43c-1.87 0-3.4 1.95-3.4 4.36v99.29c0 2.4 1.53 4.36 3.4 4.36h120.85c1.88 0 3.4-1.95 3.4-4.36V47.36c0-2.4-1.53-4.36-3.4-4.36H28.4Z" fill="#141414"/><path d="M28.4 42.5h120.85c1.03 0 2.02.51 2.75 1.42.73.91 1.14 2.14 1.14 3.42V62.8H24.5V47.36c0-.64.1-1.27.29-1.86.19-.59.48-1.13.85-1.58.36-.45.79-.81 1.27-1.05.47-.24.98-.37 1.49-.37Z" fill="#FF6842"/><path d="M153.63 63.3H24V47.36c0-.7.11-1.37.32-2.02.22-.65.53-1.23.93-1.73.41-.51.89-.91 1.43-1.18.55-.28 1.14-.38 1.72-.42h120.85c1.18 0 2.32.58 3.14 1.6.81 1 1.25 2.33 1.25 3.74v15.96l-.01-.01ZM25 62.3h127.63V47.34c0-1.16-.38-2.3-1.03-3.11-.64-.79-1.48-1.23-2.36-1.23H28.4c-.44 0-.86.1-1.26.31-.41.21-.79.52-1.11.92a4.5 4.5 0 0 0-.76 1.42c-.18.54-.27 1.11-.27 1.7V62.3Z" fill="#141414"/><path d="m135.655 123.218-3.721 5.071 17.43 12.79 3.722-5.071-17.431-12.79Z" fill="#000"/><path d="m149.47 141.78-18.23-13.38 4.31-5.88 18.23 13.38-4.31 5.88Zm-16.84-13.59 16.62 12.2 3.13-4.26-16.62-12.2-3.13 4.26Z" fill="#000"/><path d="M144.561 133.645a5.36 5.36 0 0 1 7.492-1.15l21.035 15.434a5.36 5.36 0 0 1-6.342 8.643l-21.035-15.434a5.36 5.36 0 0 1-1.15-7.493Z" fill="#000"/><path d="M169.9 158.11a5.81 5.81 0 0 1-3.46-1.14l-21.04-15.44a5.86 5.86 0 0 1-2.33-3.83 5.82 5.82 0 0 1 1.07-4.36 5.821 5.821 0 0 1 3.83-2.33 5.81 5.81 0 0 1 4.36 1.07l21.04 15.43a5.86 5.86 0 0 1 2.33 3.83 5.82 5.82 0 0 1-1.07 4.36 5.821 5.821 0 0 1-3.83 2.33c-.3.05-.6.07-.9.07v.01Zm-21.01-26.16c-.25 0-.5.02-.75.06-1.28.2-2.41.88-3.18 1.93a4.853 4.853 0 0 0-.89 3.61c.2 1.28.88 2.41 1.93 3.18l21.04 15.44c1.05.77 2.33 1.08 3.61.89 1.28-.2 2.41-.88 3.18-1.93.77-1.05 1.08-2.33.89-3.61-.2-1.28-.88-2.41-1.93-3.18l-21.04-15.43a4.81 4.81 0 0 0-2.87-.94l.01-.02Z" fill="#000"/><path fill-rule="evenodd" clip-rule="evenodd" d="M136.06 127.98c-11.67 16.13-34.21 19.75-50.35 8.08-16.13-11.67-19.75-34.21-8.08-50.35 11.67-16.13 34.21-19.75 50.35-8.08 16.13 11.67 19.75 34.21 8.08 50.35Zm-7.52-5.2c-8.83 12.2-25.88 14.94-38.08 6.11-12.2-8.83-14.94-25.88-6.11-38.08 8.83-12.2 25.88-14.94 38.08-6.11 12.2 8.83 14.94 25.88 6.11 38.08Z" fill="#000"/><path d="m136.565 120.682-3.721 5.071 17.431 12.79 3.721-5.071-17.431-12.79Z" fill="#D9D9D9"/><path d="m150.38 139.24-18.23-13.38 4.31-5.88 18.23 13.38-4.31 5.88Zm-16.84-13.59 16.62 12.2 3.13-4.26-16.62-12.2-3.13 4.26Z" fill="#000"/><path d="M152.963 129.949a5.36 5.36 0 0 0-6.342 8.643l21.035 15.434a5.358 5.358 0 0 0 7.492-1.15 5.358 5.358 0 0 0-1.15-7.492l-21.035-15.435Z" fill="#6D7272"/><path d="M170.81 155.571a5.81 5.81 0 0 1-3.46-1.14l-21.04-15.44a5.86 5.86 0 0 1-2.33-3.83 5.82 5.82 0 0 1 1.07-4.36 5.821 5.821 0 0 1 3.83-2.33 5.81 5.81 0 0 1 4.36 1.07l21.04 15.43c2.6 1.91 3.17 5.59 1.26 8.19a5.86 5.86 0 0 1-4.73 2.4v.01Zm-21.01-26.16c-.25 0-.5.02-.75.06-1.28.2-2.41.88-3.18 1.93a4.853 4.853 0 0 0-.89 3.61c.2 1.28.88 2.41 1.93 3.18l21.04 15.44c1.05.77 2.33 1.08 3.61.89 1.28-.2 2.41-.88 3.18-1.93 1.58-2.16 1.12-5.21-1.04-6.79l-21.04-15.43c-.84-.62-1.84-.94-2.86-.94v-.02Z" fill="#000"/><path fill-rule="evenodd" clip-rule="evenodd" d="M136.97 125.44c-11.67 16.13-34.21 19.75-50.35 8.08-16.13-11.67-19.75-34.21-8.08-50.35 11.67-16.13 34.21-19.75 50.35-8.08 16.13 11.67 19.75 34.21 8.08 50.35Zm-7.52-5.2c-8.83 12.2-25.88 14.94-38.08 6.11-12.2-8.83-14.94-25.88-6.11-38.08 8.83-12.2 25.88-14.94 38.08-6.11 12.2 8.83 14.94 25.88 6.11 38.08Z" fill="#D9D9D9"/><path d="M136.97 125.44c11.67-16.13 8.06-38.68-8.08-50.35-16.13-11.67-38.68-8.06-50.35 8.08-11.67 16.14-8.06 38.68 8.08 50.35 16.13 11.67 38.68 8.06 50.35-8.08Zm-49.76 7.27c-15.69-11.35-19.2-33.27-7.85-48.95 11.35-15.69 33.27-19.2 48.95-7.85 15.69 11.35 19.2 33.27 7.85 48.95s-33.27 19.2-48.95 7.85Z" fill="#000"/><path d="M123.929 81.36c-12.65-9.15-30.32-6.32-39.47 6.33-9.15 12.651-6.32 30.321 6.33 39.471 12.65 9.15 30.32 6.32 39.47-6.33 9.15-12.65 6.32-30.32-6.33-39.47Zm5.52 38.891c-8.83 12.2-25.88 14.94-38.08 6.11-12.2-8.83-14.94-25.88-6.11-38.08 8.83-12.2 25.88-14.94 38.08-6.11 12.2 8.83 14.94 25.88 6.11 38.08Z" fill="#000"/><path opacity=".9" d="M107.43 131.35c15.061 0 27.27-12.21 27.27-27.27 0-15.061-12.209-27.27-27.27-27.27-15.06 0-27.27 12.209-27.27 27.27 0 15.06 12.21 27.27 27.27 27.27Z" fill="#fff"/></g><defs><clipPath id="a"><path fill="#fff" d="M24 42h152.68v116.11H24z"/></clipPath></defs></svg>