<svg width="200" height="200" viewBox="0 0 200 200" fill="none" xmlns="http://www.w3.org/2000/svg"><g clip-path="url(#a)"><path d="M100.59 138.72c21.58 0 39.09-17.28 39.09-38.61S122.17 61.5 100.59 61.5c-21.58 0-39.09 17.28-39.09 38.61s17.51 38.61 39.09 38.61Z" fill="#F87850"/><path d="M100.59 139.22c-21.83 0-39.59-17.55-39.59-39.11S78.76 61 100.59 61c21.83 0 39.59 17.54 39.59 39.11s-17.76 39.11-39.59 39.11Zm0-77.22C79.31 62 62 79.1 62 100.11c0 21.01 17.31 38.11 38.59 38.11 21.28 0 38.59-17.1 38.59-38.11 0-21.01-17.31-38.11-38.59-38.11Z" fill="#000"/><path d="m121.111 89.7.37-.36-.37-.36-4.4-4.29-.35-.34-.35.34-22.71 22.191-9.11-8.9-.35-.34-.35.34-4.4 4.29-.37.36.37.36 13.86 13.54.35.34.35-.34 27.46-26.82v-.01Z" fill="#fff"/><path d="m93.31 117.56-15.28-14.93 5.83-5.69 9.46 9.24 23.06-22.53 5.83 5.69-28.89 28.22h-.01Zm-13.85-14.94 13.86 13.54 27.45-26.82-4.4-4.29-23.06 22.53-9.46-9.24-4.4 4.29.01-.01Z" fill="#000"/><path d="M105.56 173.291v-22.5a50.44 50.44 0 0 0 15.59-4.19l11.26 19.51a72.68 72.68 0 0 1-26.84 7.18h-.01Z" fill="#FFCCB7"/><path d="M105.06 173.82v-23.49l.45-.04a49.77 49.77 0 0 0 15.43-4.15l.41-.19 11.75 20.37-.48.23a72.93 72.93 0 0 1-27.03 7.23l-.53.04Zm1-22.59v21.51c8.93-.68 17.55-2.99 25.64-6.86l-10.76-18.66a50.669 50.669 0 0 1-14.88 4v.01Z" fill="#000"/><path d="M95.27 150.79v22.5a72.511 72.511 0 0 1-26.81-7.18l11.25-19.5c4.82 2.15 10.06 3.63 15.56 4.18Z" fill="#FFA078"/><path d="m95.77 173.82-.53-.04c-9.42-.65-18.5-3.09-27-7.23l-.48-.23 11.74-20.36.41.18c4.96 2.22 10.15 3.61 15.41 4.14l.45.04v23.5Zm-26.61-7.93a71.635 71.635 0 0 0 25.61 6.85v-21.51c-5.07-.56-10.06-1.9-14.85-3.99l-10.76 18.65Z" fill="#000"/><path d="M95.26 50.04c-5.51.55-10.73 2.01-15.59 4.19L68.41 34.72c8.23-4.01 17.3-6.52 26.85-7.18v22.5Z" fill="#FF6842"/><path d="M79.47 54.87 67.72 34.5l.48-.23a72.74 72.74 0 0 1 27.03-7.23l.53-.04v23.49l-.45.05c-5.31.53-10.5 1.93-15.43 4.15l-.41.19v-.01ZM69.12 34.93l10.76 18.66c4.77-2.1 9.77-3.44 14.88-4V28.07c-8.94.68-17.56 2.99-25.64 6.86Z" fill="#000"/><path d="M54.22 79.7c-2.15 4.82-3.63 10.06-4.18 15.56h-22.5c.66-9.59 3.17-18.63 7.18-26.81l19.5 11.25Z" fill="#F87850"/><path d="M50.49 95.76H27l.04-.53c.65-9.44 3.08-18.53 7.23-27l.24-.48 20.36 11.74-.18.41c-2.22 4.97-3.61 10.15-4.14 15.41l-.05.45h-.01Zm-22.42-1h21.51c.56-5.06 1.9-10.06 3.99-14.85L34.92 69.15c-3.87 8.06-6.17 16.67-6.86 25.61h.01Z" fill="#000"/><path d="M121.12 54.22c-4.82-2.15-10.06-3.63-15.56-4.18v-22.5c9.56.66 18.63 3.17 26.81 7.18l-11.25 19.5Z" fill="#FFF5EE"/><path d="m121.33 54.86-.41-.18c-4.97-2.22-10.15-3.61-15.41-4.14l-.45-.05V27l.53.04c9.45.65 18.53 3.09 27 7.23l.48.24-11.74 20.36v-.01Zm-15.27-5.27c5.06.56 10.06 1.9 14.85 3.99l10.76-18.65c-8.05-3.87-16.67-6.17-25.61-6.86V49.59Z" fill="#000"/><path d="M34.71 132.4a72.68 72.68 0 0 1-7.18-26.84h22.5c.55 5.51 2 10.73 4.19 15.59l-19.51 11.26v-.01Z" fill="#F87850"/><path d="m34.5 133.1-.24-.48a72.866 72.866 0 0 1-7.22-27.03l-.04-.53h23.49l.05.45c.53 5.31 1.93 10.5 4.15 15.43l.19.41-20.37 11.75h-.01Zm-6.43-27.04c.68 8.94 2.99 17.56 6.86 25.64l18.66-10.76c-2.1-4.77-3.44-9.77-4-14.88H28.07Z" fill="#000"/><path d="m70.75 141.43-11.25 19.5c-7.73-5.21-14.39-11.91-19.63-19.64l19.5-11.25c3.17 4.37 7.01 8.21 11.38 11.39Z" fill="#FFA078"/><path d="m59.66 161.64-.44-.3c-7.78-5.25-14.43-11.9-19.77-19.77l-.3-.44 20.36-11.75.26.37c3.14 4.34 6.93 8.13 11.27 11.28l.36.26-11.74 20.35Zm-19.08-20.19c5.11 7.42 11.42 13.73 18.75 18.76l10.75-18.64c-4.15-3.07-7.8-6.72-10.86-10.87l-18.65 10.76.01-.01Z" fill="#000"/><path d="m141.43 130.08 19.5 11.25c-5.21 7.73-11.91 14.39-19.64 19.63l-11.25-19.5c4.37-3.17 8.21-7.01 11.39-11.38Z" fill="#FFCCB7"/><path d="m141.13 161.68-11.74-20.36.37-.26c4.33-3.14 8.13-6.93 11.28-11.27l.26-.36 20.35 11.74-.3.44c-5.25 7.78-11.9 14.43-19.77 19.77l-.44.3h-.01ZM130.7 141.6l10.76 18.65c7.42-5.11 13.72-11.41 18.76-18.75l-18.64-10.75c-3.07 4.15-6.72 7.8-10.87 10.86l-.01-.01Z" fill="#000"/><path d="M59.39 70.75 39.89 59.5c5.21-7.73 11.91-14.39 19.64-19.63l11.25 19.5a51.449 51.449 0 0 0-11.39 11.38Z" fill="#FF6842"/><path d="M59.53 71.4 39.18 59.66l.3-.44c5.25-7.78 11.9-14.43 19.77-19.77l.45-.3 11.74 20.36-.36.26A50.465 50.465 0 0 0 59.8 71.04l-.26.36h-.01ZM40.61 59.33l18.64 10.75c3.07-4.15 6.72-7.8 10.87-10.86L59.36 40.57c-7.42 5.11-13.72 11.41-18.76 18.75l.01.01Z" fill="#000"/><path d="M150.79 105.56h22.5c-.66 9.58-3.18 18.6-7.18 26.81l-19.5-11.25c2.15-4.82 3.63-10.06 4.18-15.56Z" fill="#FFE2D7"/><path d="m166.32 133.07-20.36-11.74.18-.41c2.22-4.97 3.61-10.15 4.14-15.41l.04-.45h23.49l-.04.53c-.65 9.42-3.08 18.5-7.23 27l-.23.48h.01Zm-19.08-12.16 18.65 10.76a71.842 71.842 0 0 0 6.85-25.61h-21.51c-.56 5.06-1.9 10.05-3.99 14.85Z" fill="#000"/><path d="M150.791 95.26c-.55-5.51-2.01-10.73-4.19-15.59l19.51-11.26c4 8.22 6.52 17.28 7.18 26.84h-22.5v.01Z" fill="#FFE2D7"/><path d="M173.82 95.76h-23.49l-.04-.45c-.53-5.31-1.93-10.5-4.15-15.43l-.19-.41 20.37-11.75.23.48c4.14 8.5 6.57 17.6 7.23 27.03l.04.53Zm-22.59-1h21.51a71.694 71.694 0 0 0-6.86-25.64l-18.66 10.76c2.1 4.77 3.44 9.77 4 14.88h.01Z" fill="#000"/><path d="m130.08 59.39 11.25-19.5c7.73 5.21 14.39 11.91 19.63 19.64l-19.5 11.25a51.449 51.449 0 0 0-11.38-11.39Z" fill="#FFF5EE"/><path d="m141.32 71.44-.26-.36a50.465 50.465 0 0 0-11.27-11.28l-.36-.26 11.74-20.35.44.3c7.78 5.25 14.43 11.9 19.77 19.77l.3.45-20.36 11.74v-.01Zm-10.58-12.19c4.15 3.07 7.8 6.72 10.86 10.87l18.65-10.76c-5.11-7.42-11.42-13.72-18.75-18.76l-10.75 18.64-.01.01Z" fill="#000"/></g><defs><clipPath id="a"><path fill="#fff" d="M27 27h146.82v146.82H27z"/></clipPath></defs></svg>