<svg width="200" height="200" viewBox="0 0 200 200" fill="none" xmlns="http://www.w3.org/2000/svg"><g clip-path="url(#a)"><path d="M98.34 156.72c32.49 0 58.84-26.01 58.84-58.11 0-32.1-26.35-58.11-58.84-58.11S39.5 66.51 39.5 98.61c0 32.1 26.35 58.11 58.84 58.11Z" fill="#000"/><path d="M98.34 157.22C65.62 157.22 39 130.93 39 98.61S65.62 40 98.34 40s59.34 26.29 59.34 58.61-26.62 58.61-59.34 58.61Zm0-116.22C66.17 41 40 66.84 40 98.61s26.17 57.61 58.34 57.61 58.34-25.84 58.34-57.61S130.51 41 98.34 41Z" fill="#000"/><path d="m129.18 82.69.37-.36-.37-.36-6.65-6.49-.35-.34-.35.34-34.51 33.711-13.95-13.63-.35-.34-.35.34-6.65 6.49-.37.36.37.36 20.94 20.46.35.34.35-.34 41.5-40.55.02.01Z" fill="#000"/><path d="m87.33 124.27-.7-.68-21.68-21.18 8.08-7.89 14.3 13.97 34.86-34.05 8.08 7.89-42.93 41.94h-.01Zm-20.95-21.86 20.94 20.46 41.5-40.55-6.65-6.49-34.86 34.06-14.3-13.97-6.65 6.49h.02Z" fill="#000"/><path d="M101.34 158.72c32.49 0 58.84-26.01 58.84-58.11 0-32.1-26.35-58.11-58.84-58.11S42.5 68.51 42.5 100.61c0 32.1 26.35 58.11 58.84 58.11Z" fill="#4B8151"/><path d="M101.34 159.22c-32.72 0-59.34-26.29-59.34-58.61S68.62 42 101.34 42s59.34 26.29 59.34 58.61-26.62 58.61-59.34 58.61Zm0-116.22C69.17 43 43 68.84 43 100.61s26.17 57.61 58.34 57.61 58.34-25.84 58.34-57.61S133.51 43 101.34 43Z" fill="#000"/><path d="m132.18 84.69.37-.36-.37-.36-6.65-6.49-.35-.34-.35.34-34.51 33.711-13.95-13.63-.35-.34-.35.34-6.65 6.49-.37.36.37.36 20.94 20.46.35.34.35-.34 41.5-40.55.02.01Z" fill="#fff"/><path d="m90.33 126.27-.7-.68-21.68-21.18 8.08-7.89 14.3 13.97 34.86-34.05 8.08 7.89-42.93 41.94h-.01Zm-20.95-21.86 20.94 20.46 41.5-40.55-6.65-6.49-34.86 34.06-14.3-13.97-6.65 6.49h.02Z" fill="#000"/></g><defs><clipPath id="a"><path fill="#fff" d="M39 40h121.68v119.22H39z"/></clipPath></defs></svg>