<svg width="200" height="200" viewBox="0 0 200 200" fill="none" xmlns="http://www.w3.org/2000/svg"><g clip-path="url(#a)"><path d="M43.36 92.06c-4.33-17.55 6.32-35.27 23.79-39.58 17.36-4.28 35 5.87 39.35 23.5 4.33 17.55-6.32 35.27-23.79 39.58-2.56.63-5.18.89-7.75.85a6.233 6.233 0 0 1-4.59 7.33l-8.46 2.09 2.1 8.5c.83 3.34-1.21 6.73-4.54 7.55l-8.46 2.09 1.49 6.06c1.16 4.69-1.69 9.43-6.36 10.59l-12.08 2.98c-4.67 1.15-9.4-1.72-10.56-6.41l-2.6-10.53c-.88-3.55-.31-7.27 1.57-10.4l22.64-37.69c.22-.39.24-.86.04-1.26-.77-1.69-1.39-3.44-1.85-5.23h.06v-.02Zm42.99-18.84c-.82-3.34-4.2-5.39-7.53-4.57-3.33.82-5.36 4.2-4.54 7.55.82 3.34 4.2 5.39 7.53 4.57 3.33-.82 5.36-4.2 4.54-7.55Z" fill="#FFF650"/><path d="M31.98 164.34a9.26 9.26 0 0 1-8.96-7.05l-2.6-10.53c-.91-3.69-.33-7.52 1.63-10.78l22.64-37.69c.13-.24.14-.54.02-.79a32.54 32.54 0 0 1-1.89-5.32l-.17-.68h.07c-1.9-8.4-.51-17.06 3.94-24.46 4.56-7.59 11.8-12.94 20.38-15.05 8.57-2.11 17.43-.84 24.93 3.59 7.57 4.47 12.9 11.67 15.03 20.28 4.39 17.79-6.45 35.82-24.15 40.19-2.3.57-4.75.86-7.28.87a6.69 6.69 0 0 1-5.06 7.31l-7.97 1.97 1.98 8.01c.89 3.61-1.31 7.27-4.9 8.15l-7.97 1.97 1.38 5.58c.59 2.4.22 4.88-1.05 7a9.15 9.15 0 0 1-5.68 4.19l-12.08 2.98a9.2 9.2 0 0 1-2.2.27l-.04-.01Zm11.98-71.73c.42 1.5.98 3 1.64 4.46.26.53.24 1.18-.06 1.72l-22.64 37.7a13.202 13.202 0 0 0-1.51 10.03l2.6 10.53c1.09 4.42 5.55 7.13 9.95 6.05l12.08-2.98c2.13-.52 3.92-1.85 5.06-3.74 1.13-1.89 1.47-4.1.94-6.24l-1.61-6.55 8.94-2.21c3.06-.75 4.93-3.87 4.17-6.94l-2.22-8.99 8.94-2.21c3.01-.74 4.86-3.7 4.22-6.74l-.13-.61h.62c2.65.04 5.22-.24 7.62-.83 17.17-4.24 27.68-21.72 23.42-38.98-2.06-8.34-7.23-15.32-14.56-19.65-7.27-4.3-15.86-5.53-24.18-3.48-8.32 2.05-15.34 7.24-19.76 14.6-4.42 7.36-5.72 16.02-3.66 24.38l.17.67h-.04v.01Zm36.35-11.16c-1.21 0-2.41-.33-3.47-.98a6.686 6.686 0 0 1-3.05-4.16c-.43-1.75-.16-3.56.77-5.1a6.667 6.667 0 0 1 4.13-3.06c1.74-.43 3.54-.15 5.08.78s2.62 2.41 3.05 4.16c.43 1.75.16 3.56-.77 5.1a6.667 6.667 0 0 1-4.13 3.06c-.53.13-1.07.2-1.61.2Zm0-12.49c-.46 0-.92.06-1.37.17a5.693 5.693 0 0 0-3.52 2.6 5.689 5.689 0 0 0-.65 4.34 5.707 5.707 0 0 0 2.6 3.54c1.31.79 2.84 1.03 4.32.67a5.657 5.657 0 0 0 3.52-2.6c.79-1.31 1.02-2.85.65-4.34a5.707 5.707 0 0 0-2.6-3.54c-.91-.55-1.92-.83-2.95-.83v-.01Z" fill="#000"/><path d="m64.324 104.296-31.837 52.63.856.517 31.836-52.63-.855-.517Z" fill="#000"/><path fill-rule="evenodd" clip-rule="evenodd" d="M132.79 51.02c4.15.4 7.81 2.89 9.72 6.59l36.99 71.69c3.11 6.03.74 13.43-5.28 16.54l-24.45 12.61c-6.03 3.11-13.43.75-16.54-5.28L96.24 81.48c-1.91-3.7-1.81-8.13.26-11.74l8.15-14.2c2.4-4.19 7.04-6.58 11.84-6.11l16.3 1.59Zm-10.81 9.2c-.82-3.34-4.2-5.39-7.53-4.57-3.33.82-5.36 4.2-4.54 7.55.82 3.34 4.2 5.39 7.53 4.57 3.33-.82 5.36-4.2 4.54-7.55Z" fill="#D7CBE4"/><path d="M114.21 54.68c-3.87.95-6.22 4.88-5.27 8.76.96 3.88 4.87 6.26 8.74 5.3 3.87-.95 6.22-4.88 5.27-8.76-.96-3.88-4.87-6.26-8.74-5.3Zm3.23 13.09c-3.33.82-6.7-1.23-7.53-4.57-.83-3.34 1.21-6.73 4.54-7.55 3.33-.82 6.7 1.23 7.53 4.57.83 3.34-1.21 6.73-4.54 7.55Z" fill="#000"/><path d="m179.5 129.3-36.99-71.69c-1.91-3.7-5.57-6.19-9.72-6.59l-16.3-1.59c-4.8-.47-9.44 1.92-11.84 6.11l-8.15 14.2a12.266 12.266 0 0 0-.26 11.74l36.99 71.69c3.11 6.03 10.52 8.39 16.54 5.28l24.45-12.61c6.03-3.11 8.39-10.52 5.28-16.54Zm-30.18 28.27c-5.54 2.86-12.34.68-15.2-4.85L97.13 81.03c-1.76-3.4-1.67-7.46.24-10.79l8.15-14.2c2.21-3.85 6.46-6.04 10.88-5.61l16.3 1.59c3.81.37 7.17 2.65 8.93 6.05l36.99 71.69c2.86 5.54.68 12.34-4.85 15.2l-24.45 12.61Z" fill="#000"/><path d="m138.115 65.603-31.617 16.319 36.82 71.338 31.617-16.319-36.82-71.338Z" fill="#fff"/><path d="M88.82 39.62c9.22-2.27 18.52 2.75 21.84 11.39l2.92-.92c-3.81-10.17-14.7-16.11-25.5-13.45-7.78 1.92-13.53 7.81-15.64 14.97 1.09-.09 2.18-.12 3.26-.1 2.02-5.71 6.79-10.33 13.11-11.89h.01ZM97.75 75.81c-7.38 1.82-14.81-1.03-19.19-6.67l-2.4 1.91c5.1 6.55 13.75 9.85 22.33 7.73 10.1-2.49 16.79-11.68 16.51-21.67v-1.85l-3.12.97c.72 8.94-5.12 17.35-14.12 19.56l-.01.02Z" fill="#000"/></g><defs><clipPath id="a"><path fill="#fff" d="M20 36h160.87v128.34H20z"/></clipPath></defs></svg>