<svg width="200" height="200" viewBox="0 0 200 200" fill="none" xmlns="http://www.w3.org/2000/svg"><path d="M169.748 61.653H48.902c-2.154 0-3.9 2.175-3.9 4.857v99.287c0 2.682 1.746 4.856 3.9 4.856h120.846c2.154 0 3.9-2.174 3.9-4.856V66.51c0-2.682-1.746-4.857-3.9-4.857Z" fill="#E0D8D4"/><path fill-rule="evenodd" clip-rule="evenodd" d="M48.902 62.153c-1.781 0-3.4 1.843-3.4 4.357v99.287c0 2.514 1.619 4.356 3.4 4.356h120.846c1.781 0 3.4-1.842 3.4-4.356V66.51c0-2.514-1.619-4.357-3.4-4.357H48.902Zm-4.4 4.357c0-2.85 1.873-5.357 4.4-5.357h120.846c2.527 0 4.4 2.506 4.4 5.357v99.287c0 2.85-1.873 5.356-4.4 5.356H48.902c-2.527 0-4.4-2.506-4.4-5.356V66.51Z" fill="#141414"/><path d="M55.002 75.653a4 4 0 1 0 0-8 4 4 0 0 0 0 8Z" fill="#E0D8D4"/><path fill-rule="evenodd" clip-rule="evenodd" d="M55.002 74.653a3 3 0 1 0 0-6 3 3 0 0 0 0 6Zm4-3a4 4 0 1 1-8 0 4 4 0 0 1 8 0Z" fill="#000"/><path d="M159.748 53.653H38.902c-2.154 0-3.9 2.175-3.9 4.857v99.287c0 2.682 1.746 4.856 3.9 4.856h120.846c2.154 0 3.9-2.174 3.9-4.856V58.51c0-2.682-1.746-4.857-3.9-4.857Z" fill="#000"/><path fill-rule="evenodd" clip-rule="evenodd" d="M38.902 54.153c-1.781 0-3.4 1.843-3.4 4.357v99.287c0 2.514 1.619 4.356 3.4 4.356h120.846c1.781 0 3.4-1.842 3.4-4.356V58.51c0-2.514-1.619-4.357-3.4-4.357H38.902Zm-4.4 4.357c0-2.85 1.873-5.357 4.4-5.357h120.846c2.527 0 4.4 2.506 4.4 5.357v99.287c0 2.85-1.873 5.356-4.4 5.356H38.902c-2.527 0-4.4-2.506-4.4-5.356V58.51Z" fill="#141414"/><path d="M38.902 53.653h120.846c1.031 0 2.021.51 2.75 1.419.729.908 1.139 2.14 1.139 3.424v15.459H35.002V58.51a5.892 5.892 0 0 1 .294-1.86c.196-.59.483-1.127.845-1.578a3.953 3.953 0 0 1 1.267-1.053 3.235 3.235 0 0 1 1.494-.366Z" fill="#000"/><path fill-rule="evenodd" clip-rule="evenodd" d="M38.9 54.153a2.735 2.735 0 0 0-1.264.311c-.406.209-.783.52-1.105.92a4.56 4.56 0 0 0-.76 1.422 5.392 5.392 0 0 0-.269 1.703v14.946h127.635V58.496c0-1.183-.378-2.3-1.029-3.111-.648-.807-1.501-1.232-2.36-1.232H38.9Zm.003-1a3.736 3.736 0 0 0-1.724.422 4.453 4.453 0 0 0-1.428 1.184 5.557 5.557 0 0 0-.93 1.733 6.388 6.388 0 0 0-.319 2.018" fill="#141414"/><path d="M45.002 67.653a4 4 0 1 0 0-8 4 4 0 0 0 0 8Z" fill="#000"/><path fill-rule="evenodd" clip-rule="evenodd" d="M45.002 66.653a3 3 0 1 0 0-6 3 3 0 0 0 0 6Zm4-3a4 4 0 1 1-8 0 4 4 0 0 1 8 0Z" fill="#000"/><path d="M58.002 67.653a4 4 0 1 0 0-8 4 4 0 0 0 0 8Z" fill="#000"/><path fill-rule="evenodd" clip-rule="evenodd" d="M58.002 66.653a3 3 0 1 0 0-6 3 3 0 0 0 0 6Zm4-3a4 4 0 1 1-8 0 4 4 0 0 1 8 0Z" fill="#000"/><path d="M71.002 67.653a4 4 0 1 0 0-8 4 4 0 0 0 0 8Z" fill="#000"/><path fill-rule="evenodd" clip-rule="evenodd" d="M71.002 66.653a3 3 0 1 0 0-6 3 3 0 0 0 0 6Zm4-3a4 4 0 1 1-8 0 4 4 0 0 1 8 0Z" fill="#000"/><path d="M54.533 102.064a5.544 5.544 0 1 0 .779-11.06 5.544 5.544 0 0 0-.779 11.06Z" fill="#000"/><path fill-rule="evenodd" clip-rule="evenodd" d="M54.603 101.067A4.544 4.544 0 1 0 55.24 92a4.544 4.544 0 0 0-.637 9.067Zm5.85-4.144a5.544 5.544 0 1 1-11.06-.778 5.544 5.544 0 0 1 11.06.778Z" fill="#000"/><path d="m147.005 93.776-76.902-.284a2.812 2.812 0 0 0-2.825 2.799 2.812 2.812 0 0 0 2.804 2.82l76.902.284a2.811 2.811 0 0 0 2.825-2.799 2.812 2.812 0 0 0-2.804-2.82Z" fill="#000"/><path fill-rule="evenodd" clip-rule="evenodd" d="m147.001 94.776-76.902-.284a1.812 1.812 0 0 0-1.821 1.803 1.812 1.812 0 0 0 1.808 1.816l76.902.284a1.811 1.811 0 0 0 1.821-1.803 1.812 1.812 0 0 0-1.808-1.816Zm-76.898-1.284 76.902.284a2.812 2.812 0 0 1 2.804 2.82 2.811 2.811 0 0 1-2.825 2.8l-76.902-.285a2.812 2.812 0 0 1-2.804-2.82 2.812 2.812 0 0 1 2.825-2.8Z" fill="#000"/><path d="M54.532 123.9a5.544 5.544 0 1 0 .779-11.06 5.544 5.544 0 0 0-.779 11.06Z" fill="#000"/><path fill-rule="evenodd" clip-rule="evenodd" d="M54.602 122.903a4.544 4.544 0 1 0 .637-9.067 4.544 4.544 0 0 0-.637 9.067Zm5.85-4.145a5.544 5.544 0 1 1-11.06-.776 5.544 5.544 0 0 1 11.06.776Z" fill="#000"/><path d="m147.004 115.612-76.902-.284a2.812 2.812 0 0 0-2.825 2.799 2.812 2.812 0 0 0 2.804 2.82l76.902.284a2.81 2.81 0 0 0 2.825-2.799 2.812 2.812 0 0 0-2.804-2.82Z" fill="#000"/><path fill-rule="evenodd" clip-rule="evenodd" d="m147 116.612-76.902-.284a1.812 1.812 0 0 0-1.821 1.803 1.813 1.813 0 0 0 1.808 1.816l76.902.284a1.811 1.811 0 0 0 1.821-1.803 1.812 1.812 0 0 0-1.808-1.816Zm-76.898-1.284 76.902.284a2.812 2.812 0 0 1 2.804 2.82 2.81 2.81 0 0 1-2.825 2.799l-76.902-.284a2.812 2.812 0 0 1-2.804-2.82 2.812 2.812 0 0 1 2.825-2.799Z" fill="#000"/><path d="M54.532 145.736a5.544 5.544 0 1 0 .779-11.06 5.544 5.544 0 0 0-.779 11.06Z" fill="#000"/><path fill-rule="evenodd" clip-rule="evenodd" d="M54.602 144.739a4.544 4.544 0 1 0 .637-9.067 4.544 4.544 0 0 0-.637 9.067Zm5.85-4.145a5.544 5.544 0 1 1-11.06-.776 5.544 5.544 0 0 1 11.06.776Z" fill="#000"/><path d="m147.004 137.448-76.902-.284a2.812 2.812 0 0 0-2.825 2.799 2.812 2.812 0 0 0 2.804 2.82l76.902.284a2.81 2.81 0 0 0 2.825-2.799 2.812 2.812 0 0 0-2.804-2.82Z" fill="#000"/><path fill-rule="evenodd" clip-rule="evenodd" d="m147 138.448-76.902-.284a1.812 1.812 0 0 0-1.821 1.803 1.813 1.813 0 0 0 1.808 1.816l76.902.284a1.811 1.811 0 0 0 1.821-1.803 1.812 1.812 0 0 0-1.808-1.816Zm-76.898-1.284 76.902.284a2.812 2.812 0 0 1 2.804 2.82 2.81 2.81 0 0 1-2.825 2.799l-76.902-.284a2.812 2.812 0 0 1-2.804-2.82 2.812 2.812 0 0 1 2.825-2.799Z" fill="#000"/><path d="M157.748 51.653H36.902c-2.154 0-3.9 2.175-3.9 4.857v99.287c0 2.682 1.746 4.856 3.9 4.856h120.846c2.154 0 3.9-2.174 3.9-4.856V56.51c0-2.682-1.746-4.857-3.9-4.857Z" fill="#FFF5EE" stroke="#141414" stroke-miterlimit="10"/><path d="M36.902 51.653h120.846c1.031 0 2.021.51 2.75 1.419.729.908 1.139 2.14 1.139 3.424v15.459H33.002V56.51a5.892 5.892 0 0 1 .294-1.86c.196-.59.483-1.127.845-1.578a3.953 3.953 0 0 1 1.267-1.053 3.235 3.235 0 0 1 1.494-.366Z" fill="#000"/><path fill-rule="evenodd" clip-rule="evenodd" d="M36.9 52.153a2.735 2.735 0 0 0-1.264.311c-.406.209-.783.52-1.105.92a4.56 4.56 0 0 0-.76 1.422 5.392 5.392 0 0 0-.269 1.703v14.946h127.635V56.496c0-1.183-.378-2.3-1.029-3.111-.648-.807-1.501-1.232-2.36-1.232H36.9Z" fill="#FF6842"/><path d="M46.502 61.653a3.5 3.5 0 1 1-7 0 3.5 3.5 0 0 1 7 0ZM59.502 61.653a3.5 3.5 0 1 1-7 0 3.5 3.5 0 0 1 7 0ZM72.502 61.653a3.5 3.5 0 1 1-7 0 3.5 3.5 0 0 1 7 0Z" fill="#fff" stroke="#000"/><path d="M52.533 100.064a5.544 5.544 0 1 0 .779-11.06 5.544 5.544 0 0 0-.779 11.06Z" fill="#BCA89B"/><path fill-rule="evenodd" clip-rule="evenodd" d="M52.603 99.067A4.544 4.544 0 1 0 53.241 90a4.544 4.544 0 0 0-.638 9.066Zm5.85-4.144a5.544 5.544 0 1 1-11.06-.778 5.544 5.544 0 0 1 11.06.778Z" fill="#000"/><path d="m145.005 91.776-76.902-.284a2.812 2.812 0 0 0-2.825 2.799 2.812 2.812 0 0 0 2.804 2.82l76.902.284a2.811 2.811 0 0 0 2.825-2.799 2.812 2.812 0 0 0-2.804-2.82Z" fill="#BCA89B"/><path fill-rule="evenodd" clip-rule="evenodd" d="m145.001 92.776-76.902-.284a1.812 1.812 0 0 0-1.821 1.803 1.812 1.812 0 0 0 1.808 1.816l76.902.284a1.811 1.811 0 0 0 1.821-1.803 1.812 1.812 0 0 0-1.808-1.816Zm-76.898-1.284 76.902.284a2.812 2.812 0 0 1 2.804 2.82 2.811 2.811 0 0 1-2.825 2.8l-76.902-.285a2.812 2.812 0 0 1-2.804-2.82 2.812 2.812 0 0 1 2.825-2.8Z" fill="#000"/><path d="M52.532 121.9a5.544 5.544 0 1 0 .779-11.06 5.544 5.544 0 0 0-.779 11.06Z" fill="#BCA89B"/><path fill-rule="evenodd" clip-rule="evenodd" d="M52.602 120.903a4.544 4.544 0 1 0 .637-9.067 4.544 4.544 0 0 0-.637 9.067Zm5.85-4.145a5.544 5.544 0 1 1-11.06-.776 5.544 5.544 0 0 1 11.06.776Z" fill="#000"/><path d="m145.004 113.612-76.902-.284a2.812 2.812 0 0 0-2.825 2.799 2.812 2.812 0 0 0 2.804 2.82l76.902.284a2.81 2.81 0 0 0 2.825-2.799 2.812 2.812 0 0 0-2.804-2.82Z" fill="#BCA89B"/><path fill-rule="evenodd" clip-rule="evenodd" d="m145 114.612-76.902-.284a1.812 1.812 0 0 0-1.821 1.803 1.813 1.813 0 0 0 1.808 1.816l76.902.284a1.811 1.811 0 0 0 1.821-1.803 1.812 1.812 0 0 0-1.808-1.816Zm-76.898-1.284 76.902.284a2.812 2.812 0 0 1 2.804 2.82 2.81 2.81 0 0 1-2.825 2.799l-76.902-.284a2.812 2.812 0 0 1-2.804-2.82 2.812 2.812 0 0 1 2.825-2.799Z" fill="#000"/><path d="M52.532 143.736a5.544 5.544 0 1 0 .779-11.06 5.544 5.544 0 0 0-.779 11.06Z" fill="#BCA89B"/><path fill-rule="evenodd" clip-rule="evenodd" d="M52.602 142.739a4.544 4.544 0 1 0 .637-9.067 4.544 4.544 0 0 0-.637 9.067Zm5.85-4.145a5.544 5.544 0 1 1-11.06-.776 5.544 5.544 0 0 1 11.06.776Z" fill="#000"/><path d="m145.004 135.448-76.902-.284a2.812 2.812 0 0 0-2.825 2.799 2.812 2.812 0 0 0 2.804 2.82l76.902.284a2.81 2.81 0 0 0 2.825-2.799 2.812 2.812 0 0 0-2.804-2.82Z" fill="#BCA89B"/><path fill-rule="evenodd" clip-rule="evenodd" d="m145 136.448-76.902-.284a1.812 1.812 0 0 0-1.821 1.803 1.813 1.813 0 0 0 1.808 1.816l76.902.284a1.811 1.811 0 0 0 1.821-1.803 1.812 1.812 0 0 0-1.808-1.816Zm-76.898-1.284 76.902.284a2.812 2.812 0 0 1 2.804 2.82 2.81 2.81 0 0 1-2.825 2.799l-76.902-.284a2.812 2.812 0 0 1-2.804-2.82 2.812 2.812 0 0 1 2.825-2.799Z" fill="#000"/></svg>