<svg width="200" height="200" viewBox="0 0 200 200" fill="none" xmlns="http://www.w3.org/2000/svg"><path d="M33.15 36.34h126.516c1.817 0 3.292 1.76 3.292 3.928v93.072H29.86V40.268c0-2.168 1.475-3.928 3.292-3.928h-.002Z" fill="#CCD1D1"/><path fill-rule="evenodd" clip-rule="evenodd" d="M33.152 36.84c-1.462 0-2.792 1.45-2.792 3.428v92.572h132.098V40.268c0-1.978-1.33-3.428-2.792-3.428H33.152Zm0-1h126.514c2.172 0 3.792 2.07 3.792 4.428v93.572H29.36V40.268c0-2.357 1.619-4.426 3.79-4.428h.002Z" fill="#000"/><path d="M153.86 45.37h-115v73.247h115V45.371Z" fill="#F5EEE8"/><path fill-rule="evenodd" clip-rule="evenodd" d="M38.36 44.87h116v74.247h-116V44.871Zm1 1v72.247h114V45.871h-114Z" fill="#000"/><path d="M153.86 45.34h-115v9h115v-9Z" fill="#FF6842"/><path fill-rule="evenodd" clip-rule="evenodd" d="M38.36 44.84h116v10h-116v-10Zm1 1v8h114v-8h-114Z" fill="#000"/><path d="M91.86 71.34h-48v45h48v-45ZM148.86 71.34h-51v17h51v-17ZM148.86 93.34h-51v23h51v-23ZM43.36 52.34a2.5 2.5 0 1 0 0-5 2.5 2.5 0 0 0 0 5Z" fill="#fff"/><path fill-rule="evenodd" clip-rule="evenodd" d="M43.36 51.34a1.5 1.5 0 1 0 0-3 1.5 1.5 0 0 0 0 3Zm2.5-1.5a2.5 2.5 0 1 1-5 0 2.5 2.5 0 0 1 5 0Z" fill="#000"/><path d="M51.36 52.34a2.5 2.5 0 1 0 0-5 2.5 2.5 0 0 0 0 5Z" fill="#fff"/><path fill-rule="evenodd" clip-rule="evenodd" d="M51.36 51.34a1.5 1.5 0 1 0 0-3 1.5 1.5 0 0 0 0 3Zm2.5-1.5a2.5 2.5 0 1 1-5 0 2.5 2.5 0 0 1 5 0Z" fill="#000"/><path d="M59.36 52.34a2.5 2.5 0 1 0 0-5 2.5 2.5 0 0 0 0 5Z" fill="#fff"/><path fill-rule="evenodd" clip-rule="evenodd" d="M59.36 51.34a1.5 1.5 0 1 0 0-3 1.5 1.5 0 0 0 0 3Zm2.5-1.5a2.5 2.5 0 1 1-5 0 2.5 2.5 0 0 1 5 0Z" fill="#000"/><path d="M153.86 64.34h-115v1h115v-1ZM56.86 60.34h-16v1h16v-1ZM76.86 60.34h-16v1h16v-1ZM95.86 60.34h-15v1h15v-1ZM115.86 60.34h-16v1h16v-1ZM135.86 60.34h-16v1h16v-1Z" fill="#000"/><path d="M172.307 150.34H21.411c-1.822 0-3.53-3.075-4.584-8.243l-.803-3.941c-.412-2.02.002-4.816.715-4.816h160.242c.713 0 1.128 2.796.716 4.816l-.804 3.941c-1.052 5.168-2.761 8.243-4.583 8.243h-.003Z" fill="#CCD1D1"/><path fill-rule="evenodd" clip-rule="evenodd" d="M16.454 135.064c-.134.903-.133 2.047.06 2.992l.803 3.941c.522 2.559 1.199 4.564 1.95 5.917.774 1.39 1.529 1.926 2.144 1.926H172.31c.615 0 1.37-.536 2.143-1.926.752-1.353 1.429-3.358 1.95-5.917l.804-3.941c.193-.945.193-2.089.059-2.992-.067-.453-.164-.815-.27-1.049a.85.85 0 0 0-.098-.175H16.822a.92.92 0 0 0-.098.175c-.105.234-.203.596-.27 1.049Zm-.324-1.95a.855.855 0 0 1 .61-.274H176.98c.267 0 .472.134.61.274.135.139.237.314.317.489.159.353.274.816.348 1.314.148 1.001.15 2.264-.069 3.339l-.804 3.941c-.531 2.609-1.235 4.725-2.056 6.203-.8 1.439-1.811 2.44-3.017 2.44H21.411c-1.207 0-2.218-1.001-3.017-2.44-.822-1.478-1.525-3.594-2.056-6.203m0 0-.804-3.941c-.22-1.075-.218-2.338-.069-3.339.074-.498.189-.961.348-1.314.08-.175.181-.35.317-.489" fill="#000"/><path d="M147.75 161.159c19.269 0 34.889-15.629 34.889-34.909s-15.62-34.91-34.889-34.91c-19.269 0-34.89 15.63-34.89 34.91 0 19.28 15.621 34.909 34.89 34.909Z" fill="#000"/><path fill-rule="evenodd" clip-rule="evenodd" d="M183.639 126.25c0 19.832-16.068 35.909-35.889 35.909-19.822 0-35.89-16.077-35.89-35.909 0-19.832 16.068-35.91 35.89-35.91 19.821 0 35.889 16.078 35.889 35.91Zm-1 0c0 19.28-15.62 34.909-34.889 34.909-19.269 0-34.89-15.629-34.89-34.909s15.621-34.91 34.89-34.91 34.889 15.63 34.889 34.91Z" fill="#000"/><path fill-rule="evenodd" clip-rule="evenodd" d="m169.61 115.257-27.75 28.503-15-15.42 4.864-5.336 9.388 9.503 22.886-23.167 5.612 5.917Z" fill="#000"/><path fill-rule="evenodd" clip-rule="evenodd" d="m164.004 108.622 6.298 6.64-28.443 29.215-15.686-16.125 5.536-6.074 9.402 9.518 22.893-23.174Zm-.015 1.437-22.878 23.16-9.373-9.489-4.192 4.599 14.314 14.714 27.055-27.79-4.926-5.194Z" fill="#000"/><path d="M148.75 163.159c19.269 0 34.889-15.629 34.889-34.909s-15.62-34.91-34.889-34.91c-19.269 0-34.89 15.63-34.89 34.91 0 19.28 15.621 34.909 34.89 34.909Z" fill="#4B8151"/><path fill-rule="evenodd" clip-rule="evenodd" d="M184.639 128.25c0 19.832-16.068 35.909-35.889 35.909-19.822 0-35.89-16.077-35.89-35.909 0-19.832 16.068-35.91 35.89-35.91 19.821 0 35.889 16.078 35.889 35.91Zm-1 0c0 19.28-15.62 34.909-34.889 34.909-19.269 0-34.89-15.629-34.89-34.909s15.621-34.91 34.89-34.91 34.889 15.63 34.889 34.91Z" fill="#000"/><path fill-rule="evenodd" clip-rule="evenodd" d="m170.61 117.257-27.75 28.503-15-15.42 4.864-5.336 9.388 9.503 22.886-23.167 5.612 5.917Z" fill="#fff"/><path fill-rule="evenodd" clip-rule="evenodd" d="m165.004 110.622 6.298 6.64-28.443 29.215-15.686-16.125 5.536-6.074 9.402 9.518 22.893-23.174Zm-.015 1.437-22.878 23.16-9.373-9.489-4.192 4.599 14.314 14.714 27.055-27.79-4.926-5.194Z" fill="#000"/></svg>