<svg width="200" height="200" viewBox="0 0 200 200" fill="none" xmlns="http://www.w3.org/2000/svg"><path d="M42.24 83.295a4.273 4.273 0 0 0 3.88 2.85c8.27.32 15.89 5.61 18.78 13.91 2.89 8.3.21 17.17-6.07 22.57-1.34 1.15-1.85 2.99-1.28 4.63l1.86 5.33a4.25 4.25 0 0 0 5.41 2.61l100.881-35.14a4.25 4.25 0 0 0 2.61-5.41l-19.18-55.03a4.25 4.25 0 0 0-5.41-2.61l-100.87 35.14c-2.21.76-3.37 3.18-2.61 5.4l2.01 5.75" fill="#F5EEE8"/><path d="M63.43 135.925c-1.97 0-3.81-1.23-4.49-3.18l-1.86-5.33c-.64-1.85-.08-3.88 1.42-5.18 6.36-5.47 8.68-14.12 5.92-22.03-2.76-7.92-9.95-13.25-18.33-13.57-1.98-.08-3.68-1.32-4.33-3.18l-2.01-5.75c-.85-2.48.46-5.18 2.92-6.03l100.89-35.15c2.48-.86 5.19.45 6.04 2.92l19.17 55.03c.86 2.48-.45 5.19-2.92 6.04l-100.86 35.15c-.52.18-1.04.26-1.56.26Zm-20.71-52.8c.51 1.47 1.86 2.45 3.42 2.51 8.79.34 16.34 5.93 19.23 14.24 2.89 8.3.45 17.38-6.22 23.12-1.19 1.03-1.64 2.63-1.13 4.09l1.86 5.33c.67 1.95 2.81 2.98 4.77 2.3l100.88-35.13c1.95-.67 2.98-2.81 2.3-4.77l-19.17-55.04a3.748 3.748 0 0 0-4.77-2.3L43.01 72.615c-1.94.67-2.98 2.81-2.31 4.76l2.01 5.75h.01Z" fill="#141414"/><path d="m42.41 87.765-1.02-6.01a4.246 4.246 0 0 1 3.47-4.89l105.31-17.87c2.31-.39 4.5 1.17 4.89 3.47l9.76 57.47c.39 2.31-1.17 4.51-3.47 4.89l-105.31 17.87c-2.31.39-4.51-1.17-4.89-3.47l-.94-5.56c-.3-1.72.51-3.45 2.02-4.36 7.08-4.28 11.21-12.59 9.74-21.25-1.47-8.66-8.1-15.14-16.2-16.85-1.73-.36-3.06-1.72-3.35-3.45l-.01.01Z" fill="#E0D8D4"/><path d="M55.33 143.255c-2.28 0-4.29-1.64-4.68-3.95l-.94-5.56c-.33-1.91.58-3.86 2.26-4.87 7.17-4.33 10.91-12.47 9.51-20.74-1.4-8.26-7.61-14.72-15.81-16.44-1.95-.41-3.42-1.92-3.74-3.85l-1.02-6.01c-.43-2.58 1.31-5.04 3.88-5.47l105.31-17.87c2.59-.44 5.04 1.31 5.47 3.88l9.75 57.46c.21 1.25-.08 2.51-.81 3.54a4.696 4.696 0 0 1-3.07 1.93l-105.32 17.87c-.27.04-.53.07-.79.07v.01Zm95.56-83.82c-.21 0-.42.02-.62.05L44.95 77.355c-2.03.34-3.41 2.28-3.07 4.32l1.02 6.01a3.75 3.75 0 0 0 2.96 3.04c8.61 1.81 15.12 8.58 16.59 17.25 1.47 8.67-2.45 17.21-9.98 21.76-1.33.8-2.05 2.34-1.79 3.84l.94 5.56c.34 2.03 2.28 3.41 4.32 3.07l105.31-17.87a3.7 3.7 0 0 0 2.42-1.52c.58-.82.81-1.81.64-2.8l-9.75-57.46a3.758 3.758 0 0 0-3.69-3.12h.02Z" fill="#141414"/><path d="M146.88 153.735v-.5c2.14 0 3.87-1.73 3.87-3.87l.05-59.03c0-2.14-1.73-3.87-3.87-3.87l-107.56-.09c-2.14 0-3.87 1.73-3.87 3.87v6.72c0 1.61.98 3.05 2.48 3.61 7.83 2.97 13.4 10.55 13.39 19.42m0 0h-.5Zm0 0h-.5Zm0 0c0 8.87-5.58 16.43-13.42 19.4-1.5.57-2.49 2.01-2.49 3.61v6.26c0 2.15 1.73 3.87 3.86 3.87l107.56.09v.5" fill="#FFCCB7"/><path d="M147.38 153.735h-1l-107.06-.09c-2.41 0-4.36-1.96-4.36-4.37v-6.26c0-1.8 1.13-3.44 2.81-4.08 7.78-2.95 13.03-10.48 13.1-18.77v-.3c-.05-8.31-5.28-15.86-13.06-18.81-1.67-.63-2.8-2.27-2.8-4.08v-6.72c0-2.41 1.96-4.37 4.37-4.37l107.56.09c2.41 0 4.37 1.96 4.37 4.37l-.05 59.03c0 2.24-1.7 4.1-3.87 4.34v.03l-.01-.01Zm-95.51-33.73c0 8.77-5.52 16.75-13.74 19.87-1.3.49-2.17 1.75-2.17 3.14v6.26a3.37 3.37 0 0 0 3.36 3.37l107.56.09c1.86 0 3.37-1.51 3.37-3.37l.05-59.03c0-1.86-1.51-3.37-3.37-3.37l-107.56-.09c-1.86 0-3.37 1.51-3.37 3.37v6.72c0 1.39.87 2.66 2.15 3.14 8.21 3.11 13.72 11.11 13.71 19.89l.01.01Z" fill="#141414"/><path d="M71.26 85.915v1.86h1.16v-1.86h-1.16Zm.08 54.6h.92v-3.77h-.92v3.77Zm0-15.08h.92v-3.77h-.92v3.77Zm0 7.54h.92v-3.77h-.92v3.77Zm0 15.08h.92v-3.77h-.92v3.77Zm0-45.24h.92v-3.77h-.92v3.77Zm0-7.54h.92v-3.76h-.92v3.76Zm0 22.62h.92v-3.77h-.92v3.77Zm0-7.54h.92v-3.77h-.92v3.77Zm0 43.31h.92v-1.86h-.92v1.86Z" fill="#202D66"/><path d="M140.959 119.785c0 2.25-3.06 4.06-3.61 6.14-.57 2.15 1.15 5.24.06 7.12-1.1 1.9-4.65 1.95-6.2 3.5-1.55 1.55-1.6 5.1-3.5 6.2-1.88 1.09-4.97-.63-7.12-.06-2.07.55-3.89 3.61-6.14 3.61-2.25 0-4.06-3.06-6.14-3.61-2.14-.58-5.24 1.15-7.12.06-1.9-1.1-1.95-4.65-3.5-6.2-1.55-1.54-5.1-1.6-6.2-3.5-1.09-1.88.63-4.97.06-7.12-.55-2.07-3.61-3.89-3.61-6.14 0-2.25 3.06-4.06 3.61-6.14.57-2.14-1.15-5.24-.06-7.12 1.1-1.9 4.65-1.95 6.2-3.5 1.55-1.55 1.6-5.1 3.5-6.2 1.88-1.09 4.97.63 7.12.06 2.08-.55 3.89-3.61 6.14-3.61 2.25 0 4.06 3.06 6.14 3.61 2.15.57 5.24-1.15 7.12-.06 1.9 1.1 1.95 4.65 3.5 6.2 1.54 1.55 5.1 1.6 6.2 3.5 1.09 1.88-.63 4.97-.06 7.12.55 2.08 3.61 3.89 3.61 6.14Z" fill="#FF6842"/><path d="M114.459 146.785c-1.44 0-2.64-1.02-3.79-2-.85-.72-1.66-1.41-2.47-1.62-.86-.23-1.98-.03-3.06.17-1.47.26-2.99.54-4.18-.15-1.21-.7-1.73-2.17-2.24-3.58-.38-1.07-.75-2.08-1.36-2.7-.61-.61-1.67-.99-2.7-1.36-1.42-.51-2.88-1.03-3.58-2.24-.69-1.19-.42-2.71-.15-4.18.19-1.08.39-2.2.17-3.06-.22-.81-.9-1.62-1.62-2.47-.98-1.16-2-2.36-2-3.8s1.02-2.64 2-3.8c.72-.85 1.41-1.66 1.62-2.47.23-.86.03-1.98-.17-3.07-.26-1.47-.54-2.99.15-4.18.7-1.21 2.17-1.74 3.58-2.24 1.07-.38 2.08-.75 2.7-1.36.61-.61.99-1.67 1.36-2.7.51-1.42 1.03-2.88 2.24-3.58 1.19-.69 2.71-.42 4.18-.15 1.08.19 2.2.39 3.06.17.81-.22 1.62-.9 2.47-1.62 1.16-.98 2.36-2 3.8-2s2.64 1.02 3.8 2c.85.72 1.66 1.41 2.47 1.62.86.23 1.98.03 3.07-.17 1.47-.26 2.99-.54 4.18.15 1.21.7 1.74 2.17 2.24 3.58.38 1.07.75 2.08 1.36 2.7.61.61 1.67.99 2.7 1.36 1.42.51 2.88 1.03 3.58 2.24.69 1.19.42 2.71.15 4.18-.19 1.08-.39 2.2-.17 3.06.22.81.9 1.62 1.62 2.47.98 1.16 2 2.36 2 3.79 0 1.44-1.02 2.63-2 3.79-.73.85-1.41 1.66-1.62 2.47-.23.86-.03 1.98.17 3.07.26 1.47.54 2.99-.15 4.18-.7 1.21-2.17 1.74-3.58 2.24-1.07.38-2.08.75-2.7 1.36-.62.61-.99 1.67-1.36 2.7-.51 1.42-1.03 2.88-2.24 3.58-1.19.69-2.71.42-4.18.15-1.08-.19-2.2-.39-3.06-.17-.81.22-1.61.9-2.46 1.62-1.16.98-2.36 2-3.8 2l-.03.02Zm-7.16-4.73c.4 0 .78.04 1.15.14 1.03.27 1.96 1.06 2.86 1.83 1.02.87 2.08 1.76 3.15 1.76 1.07 0 2.13-.9 3.15-1.77.9-.76 1.83-1.55 2.86-1.83 1.07-.29 2.31-.07 3.5.15 1.35.24 2.63.47 3.5-.04.89-.52 1.34-1.75 1.8-3.05.41-1.13.82-2.3 1.59-3.07.77-.77 1.94-1.19 3.07-1.59 1.3-.47 2.54-.91 3.05-1.8.5-.87.28-2.15.03-3.5-.21-1.19-.44-2.42-.15-3.5.27-1.03 1.06-1.96 1.83-2.86.87-1.02 1.76-2.08 1.76-3.14 0-1.07-.9-2.13-1.76-3.15-.76-.9-1.55-1.83-1.83-2.86-.29-1.07-.06-2.3.15-3.5.24-1.35.47-2.63-.03-3.5-.52-.89-1.75-1.33-3.05-1.8-1.13-.4-2.3-.82-3.07-1.59-.77-.77-1.19-1.94-1.59-3.07-.47-1.3-.91-2.54-1.8-3.05-.87-.51-2.15-.28-3.5-.03-1.19.21-2.43.43-3.5.15-1.03-.28-1.96-1.06-2.86-1.83-1.02-.87-2.08-1.77-3.15-1.77-1.07 0-2.13.9-3.15 1.76-.9.76-1.83 1.55-2.86 1.83-1.07.28-2.3.07-3.49-.15-1.35-.24-2.63-.47-3.5.04-.89.52-1.33 1.75-1.8 3.05-.4 1.13-.82 2.3-1.59 3.07-.77.77-1.94 1.19-3.07 1.59-1.3.47-2.54.91-3.05 1.8-.51.87-.28 2.15-.03 3.5.21 1.19.44 2.42.15 3.5-.27 1.03-1.06 1.96-1.83 2.86-.87 1.02-1.76 2.08-1.76 3.15 0 1.07.9 2.13 1.76 3.15.76.9 1.55 1.83 1.83 2.86.29 1.07.07 2.31-.15 3.5-.24 1.35-.47 2.63.04 3.5.52.89 1.75 1.33 3.05 1.8 1.13.41 2.3.82 3.07 1.59.77.77 1.19 1.94 1.59 3.07.47 1.3.91 2.54 1.8 3.05.87.51 2.15.28 3.5.03.78-.14 1.59-.28 2.35-.28h-.02Z" fill="#000"/><path d="M134.413 121.434c.912-11.024-7.285-20.701-18.31-21.613-11.025-.912-20.701 7.285-21.613 18.31-.913 11.025 7.285 20.701 18.31 21.613 11.024.913 20.701-7.285 21.613-18.31Z" fill="#FF6842"/><path d="M114.461 140.315c-11.32 0-20.53-9.21-20.53-20.53s9.21-20.53 20.53-20.53 20.53 9.21 20.53 20.53-9.21 20.53-20.53 20.53Zm0-40.05c-10.77 0-19.53 8.76-19.53 19.53 0 10.77 8.76 19.53 19.53 19.53 10.77 0 19.53-8.76 19.53-19.53 0-10.77-8.76-19.53-19.53-19.53Z" fill="#000"/><path d="m124.81 110.605.33-.38-.38-.32-2.15-1.82-.38-.32-.32.38-17.69 20.79-.33.38.38.32 2.15 1.82.38.32.32-.38 17.69-20.79Zm-20.82 1.67c0 2.91 2.49 4.67 5.12 4.67s5.22-1.75 5.22-4.67-2.51-4.7-5.22-4.7-5.12 1.77-5.12 4.7Zm6.49 0c0 .45-.17.7-.38.86-.24.18-.59.27-.99.27-.37 0-.69-.09-.91-.26-.2-.16-.36-.41-.36-.87s.17-.73.37-.89c.22-.17.54-.26.91-.26.4 0 .75.09.99.27.22.16.39.42.39.88h-.02Zm3.88 15.05c0 2.91 2.49 4.67 5.12 4.67s5.23-1.74 5.23-4.67c0-2.93-2.53-4.7-5.23-4.7-2.7 0-5.12 1.77-5.12 4.7Zm6.49 0c0 .45-.17.7-.39.86-.24.18-.59.27-.99.27-.37 0-.69-.09-.91-.26-.2-.16-.36-.41-.36-.87s.16-.73.37-.89c.22-.17.54-.26.91-.26.4 0 .75.1.99.27.22.16.39.42.39.88h-.01Z" fill="#fff"/><path d="M119.49 132.495c-2.73 0-5.62-1.81-5.62-5.17s2.9-5.2 5.62-5.2 5.73 1.82 5.73 5.2-2.95 5.17-5.73 5.17Zm0-9.37c-2.24 0-4.62 1.47-4.62 4.2 0 2.73 2.38 4.17 4.62 4.17s4.73-1.46 4.73-4.17-2.44-4.2-4.73-4.2Zm-12.64 9.35-3.68-3.12.65-.76 18.33-21.55 3.68 3.12-18.99 22.31h.01Zm-2.27-3.23 2.16 1.82 17.69-20.79-2.15-1.82-17.69 20.79h-.01Zm14.91-.28c-.48 0-.91-.13-1.22-.37-.37-.29-.56-.71-.56-1.27s.19-.99.56-1.28c.63-.49 1.87-.47 2.5 0 .39.29.59.72.59 1.28s-.2.98-.59 1.27c-.32.24-.78.37-1.28.37Zm0-2.29c-.25 0-.47.06-.6.16-.05.04-.17.14-.17.49s.12.44.17.48c.28.21 1.01.19 1.29-.01.09-.07.18-.17.18-.46 0-.34-.13-.44-.18-.48-.15-.11-.4-.18-.69-.18Zm-10.38-9.23c-2.73 0-5.62-1.81-5.62-5.17s2.9-5.2 5.62-5.2 5.72 1.82 5.72 5.2-2.95 5.17-5.72 5.17Zm0-9.37c-2.24 0-4.62 1.47-4.62 4.2 0 2.73 2.38 4.17 4.62 4.17s4.72-1.43 4.72-4.17-2.43-4.2-4.72-4.2Zm0 5.83c-.48 0-.91-.13-1.22-.37-.37-.29-.56-.72-.56-1.27s.19-.99.56-1.28c.62-.49 1.88-.46 2.5 0 .39.29.59.72.59 1.28s-.2.98-.59 1.27c-.32.24-.78.37-1.28.37Zm0-2.29c-.25 0-.47.06-.6.16-.05.04-.18.14-.18.49 0 .3.09.41.17.48.27.21 1.01.19 1.29-.02.09-.07.18-.17.18-.46 0-.34-.13-.44-.18-.48-.15-.11-.4-.18-.69-.18l.01.01Z" fill="#000"/><path d="m153.67 76.505-1.04 3.51c-.53 1.78-.53 3.69.01 5.47.54 1.78 1.6 3.36 3.04 4.55l2.82 2.33c.91.75.13 2.21-1 1.88l-3.51-1.04a9.522 9.522 0 0 0-5.47.02c-1.78.54-3.36 1.6-4.55 3.03l-2.33 2.82c-.75.91-2.21.14-1.88-1l1.05-3.51c.53-1.78.52-3.69-.02-5.47a9.529 9.529 0 0 0-3.03-4.55l-2.82-2.33c-.91-.75-.13-2.21 1-1.88l3.51 1.04c1.78.53 3.68.52 5.46-.02 1.78-.54 3.36-1.6 4.54-3.03l2.33-2.82c.75-.91 2.21-.13 1.88 1h.01Z" fill="#FFF650"/><path d="M140.84 99.975c-.25 0-.51-.06-.76-.19-.68-.36-1-1.11-.78-1.85l1.05-3.51c.5-1.7.5-3.49-.02-5.18a8.99 8.99 0 0 0-2.88-4.31l-2.82-2.33c-.6-.49-.75-1.28-.39-1.97.36-.68 1.11-1 1.85-.77l3.51 1.04c1.69.5 3.48.5 5.18-.02a8.967 8.967 0 0 0 4.3-2.87l2.33-2.82c.49-.6 1.29-.75 1.97-.39.68.36.99 1.11.77 1.85l-1.04 3.51a8.96 8.96 0 0 0 .01 5.18 8.99 8.99 0 0 0 2.88 4.31l2.82 2.33c.6.49.75 1.28.39 1.97s-1.11 1-1.85.77l-3.51-1.04c-1.7-.5-3.48-.5-5.18.02a9.042 9.042 0 0 0-4.31 2.87l-2.33 2.82c-.32.38-.75.58-1.21.58h.02Zm-5.21-19.18c-.24 0-.41.15-.5.31-.11.2-.13.5.14.72l2.82 2.33a9.987 9.987 0 0 1 3.22 10.55l-1.05 3.51c-.1.34.08.57.29.68.21.11.5.13.72-.14l2.33-2.82a9.899 9.899 0 0 1 4.79-3.19c1.88-.57 3.87-.58 5.75-.02l3.51 1.04c.34.1.57-.08.68-.29.11-.2.13-.5-.14-.73l-2.82-2.33a9.987 9.987 0 0 1-3.22-10.55l1.04-3.51c.1-.34-.08-.57-.28-.68-.2-.11-.5-.13-.73.14l-2.33 2.82a9.87 9.87 0 0 1-4.78 3.19c-1.88.57-3.87.58-5.75.02l-3.51-1.04a.68.68 0 0 0-.19-.03l.01.02Z" fill="#141414"/></svg>