<svg width="200" height="200" viewBox="0 0 200 200" fill="none" xmlns="http://www.w3.org/2000/svg"><g clip-path="url(#a)"><path d="M98.49 170.231a72.52 72.52 0 0 0 40.07-11.99c11.86-7.83 21.12-18.97 26.58-32.01a70.795 70.795 0 0 0 4.14-41.24c-2.77-13.85-9.63-26.57-19.71-36.56-10.08-9.99-22.92-16.79-36.9-19.55a72.763 72.763 0 0 0-41.66 4.05c-13.18 5.4-24.44 14.55-32.36 26.28A70.901 70.901 0 0 0 26.5 98.87c-.01 18.91 7.57 37.06 21.07 50.44 13.5 13.38 31.82 20.91 50.92 20.92Z" fill="#000"/><path d="M98.57 170.73h-.09c-19.37-.01-37.58-7.49-51.27-21.06-13.69-13.58-21.22-31.62-21.21-50.8 0-14.27 4.23-28.08 12.24-39.94 8-11.86 19.27-21.01 32.58-26.46 13.32-5.46 27.82-6.86 41.95-4.08 14.13 2.79 26.98 9.6 37.16 19.69 10.18 10.09 17.04 22.82 19.84 36.82 2.8 14 1.36 28.36-4.17 41.53-5.53 13.17-14.78 24.32-26.77 32.23-11.96 7.9-25.88 12.07-40.26 12.07ZM98.53 28c-9.33 0-18.59 1.81-27.33 5.4-13.13 5.38-24.24 14.4-32.14 26.1C31.17 71.19 27 84.8 27 98.87c-.01 18.92 7.42 36.7 20.92 50.09 13.5 13.39 31.46 20.76 50.57 20.78h.09c14.18 0 27.91-4.11 39.71-11.9 11.82-7.8 20.95-18.79 26.4-31.78 5.45-12.99 6.87-27.15 4.11-40.95-2.76-13.8-9.53-26.35-19.57-36.3-10.04-9.95-22.71-16.67-36.65-19.42-4.66-.92-9.36-1.38-14.04-1.38l-.01-.01Z" fill="#000"/><path d="M98.49 160.71c12.36.01 24.44-3.6 34.72-10.39 10.28-6.79 18.3-16.44 23.04-27.74a61.21 61.21 0 0 0 3.58-35.74c-2.4-12-8.35-23.03-17.08-31.68-8.73-8.66-19.86-14.55-31.98-16.95a63.055 63.055 0 0 0-36.1 3.51C63.25 46.4 53.49 54.33 46.63 64.5A61.377 61.377 0 0 0 36.1 98.87c0 8.12 1.6 16.16 4.74 23.66 3.13 7.5 7.73 14.32 13.52 20.06A62.408 62.408 0 0 0 74.61 156a63.081 63.081 0 0 0 23.89 4.72l-.01-.01Z" fill="#000"/><path d="M98.56 161.21h-.07c-8.31 0-16.41-1.6-24.08-4.75A62.65 62.65 0 0 1 54 142.94c-5.87-5.82-10.46-12.62-13.63-20.22a61.628 61.628 0 0 1-4.78-23.85c0-12.38 3.67-24.36 10.62-34.65 6.95-10.29 16.72-18.23 28.27-22.96s24.13-5.95 36.39-3.54c12.26 2.42 23.4 8.33 32.24 17.08 8.83 8.75 14.79 19.8 17.22 31.94 2.43 12.14 1.18 24.6-3.61 36.03s-12.82 21.1-23.22 27.96c-10.38 6.85-22.46 10.47-34.93 10.47l-.01.01Zm-.04-123.7c-8.08 0-16.09 1.57-23.66 4.67-11.36 4.66-20.98 12.47-27.82 22.59-6.83 10.12-10.45 21.91-10.45 34.09 0 8.09 1.58 15.99 4.7 23.46 3.12 7.48 7.64 14.17 13.41 19.9a61.592 61.592 0 0 0 20.08 13.3c7.55 3.1 15.52 4.68 23.7 4.68h.07c12.27 0 24.16-3.56 34.38-10.31 10.23-6.76 18.14-16.27 22.85-27.52 4.71-11.25 5.94-23.5 3.55-35.45-2.39-11.94-8.25-22.81-16.94-31.43-8.69-8.62-19.66-14.43-31.73-16.81-4.03-.8-8.1-1.19-12.15-1.19l.01.02Z" fill="#000"/><path d="M98.44 149.87c10.18.01 20.13-2.97 28.6-8.57a51.162 51.162 0 0 0 18.98-22.88c3.9-9.32 4.93-19.57 2.95-29.47a50.9 50.9 0 0 0-14.07-26.13c-7.19-7.14-16.36-12-26.34-13.97a51.904 51.904 0 0 0-29.74 2.89 51.407 51.407 0 0 0-23.1 18.78 50.66 50.66 0 0 0-4.78 47.85 50.857 50.857 0 0 0 11.14 16.54 51.434 51.434 0 0 0 16.68 11.06 51.652 51.652 0 0 0 19.68 3.89v.01Z" fill="#000"/><path d="M98.51 150.37h-.07c-6.86 0-13.54-1.32-19.87-3.93a51.675 51.675 0 0 1-16.84-11.17 51.302 51.302 0 0 1-11.25-16.71 50.905 50.905 0 0 1-3.94-19.7c0-10.22 3.03-20.12 8.76-28.62s13.8-15.06 23.33-18.97a52.178 52.178 0 0 1 30.02-2.92c10.11 2 19.31 6.88 26.6 14.11a51.227 51.227 0 0 1 14.21 26.39c2.01 10.03.98 20.32-2.98 29.76-3.96 9.44-10.58 17.43-19.16 23.1-8.56 5.66-18.52 8.65-28.81 8.65v.01Zm-.04-102.01c-6.64 0-13.23 1.29-19.46 3.85-9.35 3.83-17.26 10.27-22.88 18.6a50.014 50.014 0 0 0-8.59 28.06c0 6.66 1.3 13.16 3.86 19.32a50.14 50.14 0 0 0 11.03 16.38c4.75 4.71 10.31 8.4 16.52 10.95a51.041 51.041 0 0 0 19.49 3.85h.07c10.09 0 19.86-2.93 28.26-8.48 8.41-5.56 14.91-13.4 18.79-22.65a49.873 49.873 0 0 0 2.92-29.18 50.207 50.207 0 0 0-13.93-25.87 50.964 50.964 0 0 0-26.09-13.84 51.18 51.18 0 0 0-9.99-.98v-.01Z" fill="#D7E8EF"/><path d="m128.681 73.1.02-.02c.27-.28.4-.67.38-1.05-.02-.39-.18-.76-.43-1.05-.26-.29-.61-.5-.99-.56-.38-.07-.78.01-1.09.25 0 0-.02.01-.02.02l-27.35 22.99c-.78-.27-1.6-.31-2.36-.11-.86.23-1.58.75-2.06 1.49-.47.74-.66 1.64-.55 2.56.11.91.5 1.8 1.12 2.53a4.84 4.84 0 0 0 2.32 1.52c.89.26 1.81.22 2.62-.11.81-.34 1.46-.96 1.82-1.77.33-.72.42-1.53.28-2.34l26.27-24.33.02-.02Z" fill="#000"/><path d="M98.84 102.33c-.44 0-.88-.06-1.31-.19-.97-.28-1.88-.88-2.56-1.68-.68-.8-1.12-1.79-1.24-2.79-.12-1.04.1-2.06.63-2.88.54-.84 1.37-1.45 2.35-1.71.76-.2 1.57-.19 2.37.03l27.14-22.81c.47-.35.99-.47 1.53-.38a2.24 2.24 0 0 1 1.84 2.08c.02.54-.16 1.05-.52 1.42l-.38-.32.34.37-26.08 24.15c.09.83-.03 1.64-.36 2.36-.42.92-1.16 1.63-2.09 2.02-.51.21-1.07.32-1.64.32l-.02.01Zm-1.02-8.39c-.29 0-.58.04-.85.11-.73.19-1.36.65-1.76 1.28-.4.63-.57 1.42-.48 2.23.09.81.45 1.61 1.01 2.26.55.65 1.29 1.13 2.07 1.36.78.23 1.6.19 2.29-.1a2.97 2.97 0 0 0 1.56-1.52c.28-.62.37-1.33.25-2.05-.03-.17.03-.34.15-.45l26.27-24.33.01-.01c.05-.06.1-.12.13-.19a.492.492 0 0 1-.39-.47v-.02c0-.23.15-.42.37-.48a1.51 1.51 0 0 0-.18-.26c-.19-.21-.43-.35-.7-.4a.85.85 0 0 0-.71.16L99.51 94.05c-.13.11-.32.15-.48.09-.4-.14-.81-.21-1.21-.21v.01Z" fill="#000"/><path d="M100.08 48.97v-.02c-.03-.42-.2-.82-.5-1.12a1.565 1.565 0 0 0-2.24 0c-.29.3-.47.7-.5 1.12v.02l-.82 45.1c-.74.52-1.31 1.26-1.65 2.12-.38.96-.46 2.02-.23 3.03.23 1.01.76 1.91 1.52 2.57.76.66 1.7 1.03 2.68 1.05.98.02 1.94-.31 2.72-.94a4.83 4.83 0 0 0 1.61-2.51c.27-1 .23-2.06-.12-3.04-.31-.89-.86-1.65-1.58-2.2l-.91-45.2.02.02Z" fill="#000"/><path d="M98.44 103.35h-.1a4.713 4.713 0 0 1-3-1.18c-.83-.72-1.42-1.73-1.68-2.84a5.7 5.7 0 0 1 .25-3.32c.35-.88.91-1.63 1.62-2.19l.81-44.86c.04-.6.27-1.11.64-1.49.79-.8 2.15-.8 2.94 0 .38.38.6.89.64 1.44v.05l.9 44.97c.7.59 1.24 1.38 1.56 2.28.37 1.06.42 2.24.13 3.33-.29 1.1-.93 2.08-1.78 2.77-.84.68-1.89 1.05-2.94 1.05l.01-.01Zm.02-55.5c-.28 0-.55.12-.76.33-.21.21-.33.5-.35.8l-.82 45.1c0 .16-.08.31-.21.4-.66.46-1.17 1.12-1.47 1.9-.34.86-.41 1.83-.2 2.73.21.9.69 1.72 1.36 2.31.67.58 1.51.91 2.36.93.87.03 1.71-.28 2.39-.83.69-.55 1.2-1.35 1.44-2.25.24-.9.2-1.87-.1-2.74-.28-.8-.77-1.48-1.42-1.97a.535.535 0 0 1-.2-.39l-.91-45.2c0-.13-.04-.26-.08-.38-.2.12-.46.1-.63-.07-.1-.1-.14-.22-.14-.35 0-.09.03-.19.08-.27a.974.974 0 0 0-.34-.06v.01Z" fill="#000"/><path d="M101.49 172.23a72.52 72.52 0 0 0 40.07-11.99c11.86-7.83 21.12-18.97 26.58-32.01a70.714 70.714 0 0 0 4.14-41.24c-2.77-13.85-9.63-26.57-19.71-36.56-10.08-9.99-22.92-16.79-36.9-19.55a72.763 72.763 0 0 0-41.66 4.05c-13.18 5.4-24.44 14.55-32.36 26.28a70.901 70.901 0 0 0-12.15 39.66c-.01 18.91 7.57 37.06 21.07 50.44 13.5 13.38 31.82 20.91 50.92 20.92Z" fill="#FFB972"/><path d="M101.57 172.73h-.09c-19.37-.01-37.58-7.49-51.27-21.06-13.69-13.57-21.23-31.61-21.22-50.8 0-14.27 4.23-28.08 12.24-39.94S60.5 39.92 73.82 34.46a73.033 73.033 0 0 1 41.94-4.07c14.13 2.79 26.98 9.6 37.16 19.69 10.18 10.09 17.04 22.82 19.84 36.82 2.8 14 1.36 28.36-4.17 41.53-5.53 13.17-14.78 24.32-26.77 32.23-11.96 7.9-25.88 12.07-40.26 12.07h.01ZM101.53 30c-9.33 0-18.59 1.81-27.33 5.4-13.13 5.38-24.24 14.4-32.14 26.1-7.89 11.69-12.07 25.31-12.07 39.38-.01 18.92 7.42 36.7 20.92 50.09 13.5 13.39 31.46 20.76 50.57 20.78h.09c14.18 0 27.91-4.11 39.71-11.9 11.82-7.8 20.95-18.79 26.4-31.78 5.45-12.99 6.87-27.15 4.11-40.95-2.76-13.8-9.53-26.35-19.57-36.3-10.04-9.95-22.71-16.67-36.65-19.42-4.66-.92-9.36-1.38-14.04-1.38V30Z" fill="#000"/><path d="M101.49 162.71c12.36.01 24.44-3.6 34.72-10.39 10.28-6.79 18.3-16.44 23.04-27.74a61.209 61.209 0 0 0 3.58-35.74c-2.4-12-8.35-23.03-17.08-31.68-8.73-8.66-19.86-14.55-31.98-16.95a63.056 63.056 0 0 0-36.1 3.51C66.25 48.4 56.49 56.33 49.63 66.5a61.377 61.377 0 0 0-10.53 34.37c0 8.12 1.6 16.16 4.74 23.66 3.13 7.5 7.73 14.32 13.52 20.06A62.408 62.408 0 0 0 77.61 158a63.082 63.082 0 0 0 23.89 4.72l-.01-.01Z" fill="#F5EEE8"/><path d="M101.56 163.21h-.07c-8.31 0-16.41-1.6-24.08-4.75A62.65 62.65 0 0 1 57 144.94c-5.87-5.82-10.46-12.62-13.63-20.22a61.628 61.628 0 0 1-4.78-23.85c0-12.38 3.67-24.36 10.62-34.65 6.95-10.29 16.72-18.23 28.27-22.96s24.13-5.95 36.39-3.54c12.26 2.42 23.4 8.33 32.24 17.08 8.83 8.75 14.79 19.8 17.22 31.94 2.43 12.14 1.18 24.6-3.61 36.03s-12.82 21.1-23.22 27.96c-10.38 6.85-22.46 10.47-34.93 10.47l-.01.01Zm-.04-123.7c-8.08 0-16.09 1.57-23.66 4.67-11.36 4.66-20.98 12.47-27.82 22.59-6.83 10.12-10.45 21.91-10.45 34.09 0 8.09 1.58 15.99 4.7 23.46 3.12 7.48 7.64 14.17 13.41 19.9a61.592 61.592 0 0 0 20.08 13.3 62.09 62.09 0 0 0 23.7 4.68h.07c12.28 0 24.16-3.56 34.38-10.31 10.23-6.76 18.14-16.27 22.85-27.52 4.71-11.25 5.94-23.5 3.55-35.45-2.39-11.94-8.25-22.81-16.94-31.43-8.69-8.62-19.66-14.43-31.73-16.81-4.03-.8-8.1-1.19-12.15-1.19l.01.02Z" fill="#000"/><path d="M101.44 151.87c10.18.01 20.13-2.97 28.6-8.57a51.162 51.162 0 0 0 18.98-22.88c3.9-9.32 4.93-19.57 2.95-29.47a50.9 50.9 0 0 0-14.07-26.13c-7.19-7.14-16.36-12-26.34-13.97a51.904 51.904 0 0 0-29.74 2.89 51.407 51.407 0 0 0-23.1 18.78 50.659 50.659 0 0 0-4.78 47.85 50.857 50.857 0 0 0 11.14 16.54 51.434 51.434 0 0 0 16.68 11.06 51.652 51.652 0 0 0 19.68 3.89v.01Z" fill="#D7E8EF"/><path d="M101.51 152.37h-.07c-6.85 0-13.54-1.32-19.87-3.93a51.675 51.675 0 0 1-16.84-11.17 51.302 51.302 0 0 1-11.25-16.71 50.905 50.905 0 0 1-3.94-19.7c0-10.22 3.03-20.12 8.76-28.62s13.8-15.06 23.33-18.97a52.178 52.178 0 0 1 30.02-2.92c10.11 2 19.31 6.88 26.6 14.11a51.227 51.227 0 0 1 14.21 26.39c2.01 10.03.98 20.32-2.98 29.76-3.96 9.44-10.58 17.43-19.16 23.1-8.56 5.66-18.52 8.65-28.81 8.65v.01Zm-.04-102.01c-6.64 0-13.23 1.29-19.46 3.85-9.35 3.83-17.26 10.27-22.88 18.6a50.014 50.014 0 0 0-8.59 28.06c0 6.66 1.3 13.16 3.86 19.32a50.14 50.14 0 0 0 11.03 16.38c4.75 4.71 10.31 8.4 16.52 10.95a51.041 51.041 0 0 0 19.49 3.85c10.1.05 19.91-2.92 28.32-8.48 8.41-5.56 14.91-13.4 18.79-22.65a49.873 49.873 0 0 0 2.92-29.18 50.207 50.207 0 0 0-13.93-25.87 50.964 50.964 0 0 0-26.09-13.84 51.18 51.18 0 0 0-9.99-.98l.01-.01Z" fill="#D7E8EF"/><path d="m131.681 75.1.02-.02c.27-.28.4-.67.38-1.05-.02-.39-.18-.76-.43-1.05-.26-.29-.61-.5-.99-.56-.38-.07-.78.01-1.09.25 0 0-.02.01-.02.02l-27.35 22.99a4.06 4.06 0 0 0-2.36-.11c-.86.23-1.58.75-2.06 1.49-.47.74-.66 1.64-.55 2.56.11.91.5 1.8 1.12 2.53a4.84 4.84 0 0 0 2.32 1.52c.89.26 1.81.22 2.62-.11.81-.34 1.46-.96 1.82-1.77.33-.72.42-1.53.28-2.34l26.27-24.33.02-.02Z" fill="#FF6842"/><path d="M101.84 104.33c-.44 0-.88-.06-1.31-.19-.97-.28-1.88-.88-2.56-1.68a5.35 5.35 0 0 1-1.24-2.79c-.12-1.04.1-2.06.63-2.88.54-.84 1.37-1.45 2.35-1.71.76-.2 1.58-.19 2.37.03l27.14-22.81c.47-.35.99-.47 1.53-.38a2.24 2.24 0 0 1 1.84 2.08c.02.54-.16 1.05-.52 1.42l-.38-.32.34.37-26.08 24.15c.09.83-.03 1.64-.36 2.36-.42.92-1.16 1.63-2.09 2.02-.51.21-1.07.32-1.64.32l-.02.01Zm-1.02-8.39c-.29 0-.58.04-.85.11-.73.19-1.36.65-1.76 1.28-.4.63-.57 1.42-.48 2.23.09.81.45 1.61 1.01 2.26.55.65 1.29 1.14 2.07 1.36.78.23 1.6.19 2.29-.1a2.97 2.97 0 0 0 1.56-1.52c.28-.62.37-1.33.25-2.05-.03-.17.03-.34.15-.45l26.27-24.33.01-.01c.05-.06.1-.12.13-.19a.492.492 0 0 1-.39-.47v-.02c0-.23.15-.42.37-.48a1.51 1.51 0 0 0-.18-.26c-.19-.21-.43-.35-.7-.4a.85.85 0 0 0-.71.16l-27.35 22.99c-.13.11-.32.15-.48.09-.4-.14-.81-.21-1.21-.21v.01Z" fill="#000"/><path d="M103.08 50.97v-.02c-.03-.42-.2-.82-.5-1.12a1.565 1.565 0 0 0-2.24 0c-.29.3-.47.7-.5 1.12v.02l-.82 45.1c-.74.52-1.31 1.26-1.65 2.12-.38.96-.46 2.02-.23 3.03.23 1.01.76 1.91 1.52 2.57.76.66 1.7 1.03 2.68 1.05.98.02 1.94-.31 2.72-.94a4.83 4.83 0 0 0 1.61-2.51c.27-1 .23-2.06-.12-3.04-.31-.89-.86-1.65-1.58-2.2l-.91-45.2.02.02Z" fill="#FF6842"/><path d="M101.44 105.35h-.1a4.711 4.711 0 0 1-3-1.18c-.83-.72-1.42-1.73-1.68-2.84a5.7 5.7 0 0 1 .25-3.32c.35-.88.91-1.63 1.62-2.19l.81-44.86c.04-.6.27-1.11.64-1.49.79-.8 2.15-.81 2.94 0 .37.38.6.89.64 1.44v.05l.9 44.97c.7.59 1.24 1.38 1.56 2.28.37 1.06.42 2.24.13 3.33-.29 1.1-.93 2.08-1.78 2.77-.84.68-1.89 1.05-2.94 1.05l.01-.01Zm.02-55.5c-.28 0-.55.12-.76.33-.21.21-.33.5-.35.8l-.82 45.1c0 .16-.08.31-.21.4-.66.46-1.17 1.12-1.47 1.9-.34.86-.41 1.83-.2 2.73.21.9.69 1.72 1.36 2.31.67.58 1.51.91 2.36.93.83.04 1.7-.27 2.39-.83.69-.55 1.2-1.35 1.44-2.25.24-.9.2-1.87-.1-2.74-.28-.8-.77-1.48-1.42-1.97a.535.535 0 0 1-.2-.39l-.91-45.2.5-.01h-.5c0-.13-.04-.25-.08-.37-.19.13-.46.1-.63-.07-.1-.1-.14-.22-.14-.35 0-.09.03-.19.08-.27a.974.974 0 0 0-.34-.06v.01Z" fill="#000"/></g><defs><clipPath id="a"><path fill="#fff" d="M26 27h148.16v145.73H26z"/></clipPath></defs></svg>