<svg width="200" height="200" viewBox="0 0 200 200" fill="none" xmlns="http://www.w3.org/2000/svg"><g clip-path="url(#a)"><path d="m83.82 40.51 81.509 2.74a6.28 6.28 0 0 1 6.07 6.51l-3.99 110.06c-.13 3.48-3.05 6.21-6.53 6.09l-81.51-2.74a6.28 6.28 0 0 1-6.07-6.51L77.29 46.6c.13-3.48 3.05-6.21 6.53-6.09Z" fill="#E0D8D4"/><path d="M161.1 166.42h-.23l-81.51-2.74a6.74 6.74 0 0 1-4.74-2.16 6.77 6.77 0 0 1-1.82-4.88l3.99-110.06c.14-3.75 3.32-6.71 7.05-6.57l81.51 2.74c1.82.06 3.5.83 4.74 2.15a6.77 6.77 0 0 1 1.82 4.88l-3.99 110.06c-.13 3.67-3.17 6.58-6.82 6.58ZM83.61 41c-3.11 0-5.7 2.48-5.82 5.61L73.8 156.67c-.06 1.55.49 3.03 1.55 4.16a5.761 5.761 0 0 0 4.04 1.84l81.51 2.74c3.21.13 5.9-2.41 6.02-5.61l3.99-110.06c.06-1.55-.49-3.03-1.55-4.16a5.761 5.761 0 0 0-4.04-1.84L83.81 41h-.2Z" fill="#000"/><path d="M155.509 34.5h-81.55a6.31 6.31 0 0 0-6.31 6.31v110.12a6.31 6.31 0 0 0 6.31 6.31h81.55a6.31 6.31 0 0 0 6.31-6.31V40.81a6.31 6.31 0 0 0-6.31-6.31Z" fill="#fff"/><path d="M155.51 157.74H73.95c-3.75 0-6.81-3.05-6.81-6.81V40.81c0-3.75 3.05-6.81 6.81-6.81h81.56c3.75 0 6.81 3.05 6.81 6.81v110.13c0 3.75-3.05 6.81-6.81 6.81v-.01ZM73.95 35c-3.2 0-5.81 2.6-5.81 5.81v110.13c0 3.2 2.6 5.81 5.81 5.81h81.56c3.2 0 5.81-2.6 5.81-5.81V40.81c0-3.2-2.6-5.81-5.81-5.81H73.95Z" fill="#000"/><path fill-rule="evenodd" clip-rule="evenodd" d="M146.66 63.48H80.4v-.98h66.26v.98ZM146.66 84.12H80.4v-.98h66.26v.98ZM146.66 104.76H80.4v-.98h66.26v.98ZM146.66 125.4H80.4v-.98h66.26v.98Z" fill="#CCD1D1"/><path d="M134.92 99.44c0-1.06 1.01-2.04 2.42-2.04h6.4c1.4 0 2.41.97 2.41 2.04v25.46h-11.23V99.44Z" fill="#FF6842"/><path d="M146.66 125.4h-12.23V99.44c0-1.4 1.31-2.54 2.92-2.54h6.4c1.61 0 2.91 1.14 2.91 2.54v25.96Zm-11.23-1h10.23V99.44c0-.74-.73-1.54-1.91-1.54h-6.4c-1.18 0-1.92.8-1.92 1.54v24.96Z" fill="#000"/><path d="M117.59 73.87c0-1.09.94-2.02 2.17-2.02h5.87c1.23 0 2.17.93 2.17 2.02v51.03h-10.21V73.87Z" fill="#FF6842"/><path d="M128.31 125.4H117.1V73.87c0-1.39 1.2-2.52 2.67-2.52h5.87c1.47 0 2.67 1.13 2.67 2.52v51.53Zm-10.21-1h9.21V73.87c0-.84-.75-1.52-1.67-1.52h-5.87c-.92 0-1.67.68-1.67 1.52v50.53Z" fill="#000"/><path d="M99.25 91.54c0-1.04 1.01-2.01 2.41-2.01h6.4c1.41 0 2.41.97 2.41 2.01v33.36H99.24V91.54h.01Z" fill="#FF6842"/><path d="M110.98 125.4H98.75V91.54c0-1.38 1.31-2.51 2.92-2.51h6.4c1.61 0 2.92 1.12 2.92 2.51v33.86h-.01Zm-11.23-1h10.23V91.54c0-.72-.73-1.51-1.92-1.51h-6.4c-1.18 0-1.92.78-1.92 1.51v32.86h.01Z" fill="#000"/><path d="M81.92 116.12c0-1.13.88-2.01 1.93-2.01h5.34c1.05 0 1.93.88 1.93 2.01v8.78h-9.19v-8.78h-.01Z" fill="#FF6842"/><path d="M91.61 125.4H81.42v-9.28c0-1.38 1.09-2.51 2.43-2.51h5.34c1.34 0 2.43 1.12 2.43 2.51v9.28h-.01Zm-9.19-1h8.19v-8.28c0-.83-.64-1.51-1.43-1.51h-5.34c-.79 0-1.43.68-1.43 1.51v8.28h.01Z" fill="#000"/><path d="m59.533 120.979-13.107 17.194 5.002 3.813 13.108-17.193-5.003-3.814Z" fill="#D9D9D9"/><path d="m51.52 142.68-5.79-4.42 13.71-17.99 5.79 4.42-13.71 17.99Zm-4.39-4.61 4.2 3.2 12.5-16.39-4.2-3.2-12.5 16.39Z" fill="#000"/><path d="M53.93 133.49c-2.35-1.79-5.72-1.34-7.51 1.01L30.6 155.25c-1.79 2.35-1.34 5.72 1.01 7.51s5.72 1.34 7.51-1.01L54.94 141c1.79-2.35 1.34-5.72-1.01-7.51Z" fill="#6D7272"/><path d="M34.85 164.36c-1.28 0-2.51-.41-3.54-1.2a5.81 5.81 0 0 1-2.25-3.88c-.21-1.55.2-3.09 1.15-4.33l15.82-20.75a5.862 5.862 0 0 1 8.21-1.11 5.862 5.862 0 0 1 1.11 8.21l-15.82 20.75a5.772 5.772 0 0 1-3.88 2.25c-.27.04-.53.05-.79.05l-.01.01Zm15.83-31.47c-1.47 0-2.92.66-3.87 1.91L31 155.55a4.833 4.833 0 0 0-.95 3.6c.17 1.29.84 2.43 1.87 3.21a4.79 4.79 0 0 0 3.6.95c1.29-.17 2.43-.84 3.22-1.87l15.82-20.75c1.62-2.13 1.21-5.19-.92-6.81-.88-.67-1.91-.99-2.94-.99h-.02Z" fill="#000"/><path fill-rule="evenodd" clip-rule="evenodd" d="M60.48 125.66c15.76 12.18 38.4 9.28 50.58-6.48s9.28-38.4-6.48-50.58-38.4-9.28-50.58 6.48-9.28 38.4 6.48 50.58Zm5.74-7.11c11.92 9.21 29.04 7.02 38.25-4.9s7.02-29.04-4.9-38.25-29.04-7.02-38.25 4.9-7.02 29.04 4.9 38.25Z" fill="#D9D9D9"/><path d="M100.19 74.61c-12.35-9.55-30.11-7.28-39.65 5.08-9.55 12.35-7.28 30.11 5.08 39.65 12.35 9.55 30.11 7.28 39.65-5.08s7.28-30.11-5.08-39.65Zm4.29 39.04c-9.21 11.92-26.34 14.11-38.25 4.9-11.92-9.21-14.11-26.34-4.9-38.25 9.21-11.92 26.34-14.11 38.25-4.9 11.92 9.21 14.11 26.34 4.9 38.25Z" fill="#000"/><path d="M104.58 68.61C88.82 56.43 66.18 59.33 54 75.09s-9.28 38.4 6.48 50.58 38.4 9.28 50.58-6.48 9.28-38.4-6.48-50.58Zm-43.49 56.26c-15.32-11.84-18.14-33.86-6.3-49.18s33.86-18.14 49.18-6.3 18.14 33.86 6.3 49.18-33.86 18.14-49.18 6.3Z" fill="#000"/><path opacity=".5" d="M82.79 124.09c15.06 0 27.27-12.209 27.27-27.27S97.85 69.55 82.79 69.55c-15.061 0-27.27 12.209-27.27 27.27s12.209 27.27 27.27 27.27Z" fill="#fff"/></g><defs><clipPath id="a"><path fill="#fff" d="M29 34h142.91v132.42H29z"/></clipPath></defs></svg>