<svg width="200" height="200" viewBox="0 0 200 200" fill="none" xmlns="http://www.w3.org/2000/svg"><g clip-path="url(#a)"><path d="M103.53 148.19H43.66v-9.74c0-1.23 1.16-2.33 2.68-2.33h54.5c1.54 0 2.68 1.1 2.68 2.33v9.74h.01Z" fill="#BCA89B"/><path d="M104.03 148.69H43.16v-10.24c0-1.56 1.43-2.83 3.18-2.83h54.5c1.75 0 3.18 1.27 3.18 2.83v10.24h.01Zm-59.87-1h58.87v-9.24c0-1.01-.98-1.83-2.18-1.83h-54.5c-1.18 0-2.18.84-2.18 1.83v9.24h-.01Z" fill="#000"/><path d="M34.17 147.96h78.86c1.47 0 2.67 1.21 2.67 2.71v14.44c0 1.5-1.21 2.71-2.67 2.71H34.17c-1.47 0-2.67-1.21-2.67-2.71v-14.44c0-1.5 1.21-2.71 2.67-2.71Z" fill="#7C7166"/><path d="M113.04 168.32H34.17c-1.75 0-3.17-1.44-3.17-3.21v-14.44c0-1.77 1.42-3.21 3.17-3.21h78.86c1.75 0 3.17 1.44 3.17 3.21v14.44c0 1.77-1.42 3.21-3.17 3.21h.01Zm-78.87-19.86c-1.2 0-2.17.99-2.17 2.21v14.44c0 1.22.97 2.21 2.17 2.21h78.86c1.2 0 2.17-.99 2.17-2.21v-14.44c0-1.22-.97-2.21-2.17-2.21H34.17Z" fill="#000"/><path d="M140.83 62.15c.54.6.83 1.29.88 1.92.06.63-.13 1.16-.49 1.49l-12.34 11.38-18.13 16.74-12.29 11.351c-.36.33-.89.46-1.5.35-.61-.11-1.26-.47-1.79-1.06l-21.76-24.2c-.54-.6-.83-1.29-.88-1.92-.05-.63.13-1.16.49-1.49l12.29-11.35 18.13-16.74 12.34-11.38c.36-.33.89-.46 1.5-.35.61.11 1.26.47 1.79 1.06l21.76 24.2Z" fill="#7C7166"/><path d="M97.39 105.91c-.17 0-.34-.02-.51-.05-.76-.14-1.5-.57-2.08-1.22l-21.76-24.2c-.58-.65-.94-1.43-1.01-2.21-.07-.78.16-1.45.64-1.9l42.77-39.46c.49-.44 1.17-.61 1.93-.47s1.5.57 2.08 1.22l21.76 24.2c.58.65.94 1.43 1.01 2.21.07.77-.16 1.45-.64 1.9L98.82 105.4c-.37.34-.86.52-1.42.52l-.01-.01Zm19.47-68.56c-.3 0-.56.09-.74.26L73.36 77.08c-.25.23-.37.62-.33 1.08.05.55.32 1.15.76 1.63l21.76 24.2c.43.48.98.81 1.51.9.44.08.82 0 1.07-.22l42.76-39.47c.25-.23.37-.62.33-1.08-.05-.56-.32-1.15-.76-1.63l-21.76-24.2c-.43-.48-.98-.81-1.51-.91-.11-.02-.22-.03-.33-.03Z" fill="#000"/><path d="M69.88 82.02c-.63-.71-.63-1.78-.02-2.48l.14-.13.46-.43c.74-.69 1.91-.64 2.59.12l23.31 25.93c.68.75.63 1.93-.12 2.62l-.46.43c-.74.69-1.91.64-2.59-.12L69.87 82.02h.01Z" fill="#7C7166"/><path d="M94.55 109.07h-.11c-.62-.03-1.2-.3-1.62-.77L69.5 82.36c-.8-.89-.81-2.24-.02-3.15l.64-.6c.46-.42 1.06-.65 1.68-.61.62.03 1.2.3 1.62.77l23.31 25.93c.86.96.79 2.45-.15 3.33l-.46.43c-.43.4-.99.62-1.57.62v-.01Zm-24.3-27.38 23.32 25.94c.24.27.57.42.92.44.35.02.69-.11.96-.35l.46-.43c.55-.5.59-1.37.09-1.92L72.69 79.44a1.321 1.321 0 0 0-1.88-.09l-.61.56c-.42.48-.41 1.26.05 1.78Z" fill="#000"/><path d="m67.06 82.71.45-.42c.75-.69 1.91-.64 2.59.12l23.31 25.92c.68.76.63 1.93-.12 2.62l-.45.42c-.75.69-1.91.64-2.59-.12L66.94 85.33a1.87 1.87 0 0 1 .12-2.62Z" fill="#7C7166"/><path d="M91.6 112.36h-.11c-.62-.03-1.2-.3-1.62-.77L66.56 85.67c-.86-.96-.79-2.45.15-3.33l.45-.42a2.32 2.32 0 0 1 3.3.16L93.77 108c.86.96.79 2.45-.15 3.33l-.45.42c-.43.4-.99.62-1.57.62v-.01ZM67.39 83.08A1.37 1.37 0 0 0 67.3 85l23.31 25.92c.24.27.57.42.92.44.35.01.69-.11.96-.35l.45-.42c.55-.51.59-1.37.09-1.92L69.72 82.75a1.316 1.316 0 0 0-1.88-.09l-.45.42Z" fill="#000"/><path d="M121.82 35.03c-.63-.71-.63-1.78-.02-2.48l.14-.13.46-.43c.74-.69 1.91-.64 2.59.12l23.32 25.93c.68.75.63 1.93-.12 2.62l-.46.43c-.74.69-1.91.64-2.59-.12l-23.32-25.93v-.01Z" fill="#7C7166"/><path d="M146.5 62.07h-.11c-.62-.03-1.2-.3-1.62-.77l-23.32-25.93c-.8-.89-.81-2.25-.02-3.15l.64-.6c.46-.43 1.05-.65 1.68-.61.62.03 1.2.3 1.62.77l23.32 25.93c.86.96.79 2.45-.15 3.33l-.46.43c-.43.4-.99.62-1.57.62l-.01-.02Zm-24.3-27.38 23.32 25.93c.24.27.57.42.92.44.36.01.69-.11.96-.35l.46-.43c.55-.5.59-1.37.09-1.92l-23.32-25.92c-.24-.27-.57-.42-.92-.44-.34-.02-.69.11-.96.35l-.61.56c-.41.47-.41 1.27.05 1.78h.01Z" fill="#000"/><path d="m118.059 34.99.46-.43c.74-.69 1.91-.64 2.59.12l23.31 25.93c.68.75.63 1.93-.12 2.62l-.46.43c-.74.69-1.91.64-2.59-.12l-23.31-25.93a1.87 1.87 0 0 1 .12-2.62Z" fill="#7C7166"/><path d="M142.6 64.65h-.11c-.62-.03-1.2-.3-1.62-.77l-23.31-25.93c-.86-.96-.79-2.45.15-3.33l.46-.43c.46-.42 1.07-.65 1.68-.61.62.03 1.2.3 1.62.77l23.31 25.93c.86.96.79 2.45-.15 3.33l-.46.43c-.43.4-.99.62-1.57.62v-.01Zm-22.85-30.07c-.33 0-.65.12-.89.35l-.46.43a1.37 1.37 0 0 0-.09 1.92l23.31 25.93a1.321 1.321 0 0 0 1.88.09l.46-.43c.55-.5.59-1.37.09-1.92l-23.31-25.93c-.24-.27-.57-.42-.92-.44H119.75Z" fill="#000"/><path d="m161.59 138.09-33.89-37.7 6.14-5.67 33.89 37.7-6.14 5.67Z" fill="#7C7166"/><path d="M161.56 138.8 127 100.36l6.88-6.35 34.56 38.44-6.88 6.34v.01Zm-33.16-38.38 33.22 36.96 5.41-4.99-33.22-36.96-5.4 4.99h-.01Z" fill="#000"/><path d="m167.62 136.09-2.4 2.21c-1.04.95-2.63.88-3.56-.17l-1.13-1.26 6.14-5.67 1.12 1.25c.94 1.05.87 2.68-.16 3.63l-.01.01Z" fill="#BCA89B"/><path d="M163.51 139.47h-.15c-.8-.04-1.54-.39-2.08-1l-1.46-1.62 6.88-6.35 1.46 1.62c1.12 1.26 1.04 3.2-.2 4.33l-2.4 2.21c-.57.52-1.29.8-2.04.8l-.01.01Zm-2.29-2.56.8.89c.36.4.86.64 1.39.67.55.03 1.06-.16 1.46-.53l2.4-2.21c.83-.76.89-2.08.13-2.93l-.78-.87-5.41 4.99.01-.01Z" fill="#000"/><path d="m134.52 94.73-6.91 6.379a2.49 2.49 0 0 1-3.56-.17l-9.34-10.39 10.64-9.82 9.33 10.38c.9 1 .88 2.52-.02 3.49l-.15.13h.01Z" fill="#BCA89B"/><path d="M125.91 102.27h-.15c-.81-.04-1.55-.39-2.09-1L114 90.51l11.38-10.5 9.67 10.76c1.06 1.18 1.04 3.01-.02 4.16l-7.08 6.54c-.56.52-1.28.8-2.04.8ZM115.4 90.58l9.01 10.03c.36.4.86.64 1.39.67.54.02 1.06-.16 1.46-.53l7.05-6.51c.69-.75.7-1.99-.01-2.78l-9-10.01-9.91 9.14.01-.01Z" fill="#000"/><path d="m84.44 65.91 21.09-19.46 25.74 28.64-21.09 19.46-25.74-28.64Z" fill="#BCA89B"/><path d="M110.15 95.26 83.74 65.88l21.82-20.14 26.41 29.38-21.82 20.14ZM85.14 65.94l25.08 27.89 20.35-18.79-25.08-27.89-20.35 18.79Z" fill="#000"/></g><defs><clipPath id="a"><path fill="#fff" d="M31 31h137.94v137.32H31z"/></clipPath></defs></svg>