<svg width="200" height="200" viewBox="0 0 200 200" fill="none" xmlns="http://www.w3.org/2000/svg"><g clip-path="url(#a)"><path fill-rule="evenodd" clip-rule="evenodd" d="M163.98 127.46v34.17c0 4.42-3.58 8-8 8H73.26c-4.42 0-8-3.58-8-8V62.62c0-4.42 3.58-8 8-8h82.72c4.42 0 8 3.58 8 8v64.84Z" fill="#E0D8D4"/><path d="M163.98 127.46v-.5c-.28 0-.5.22-.5.5h.5Zm0 0v.5c.28 0 .5-.22.5-.5h-.5Zm-98.72-5.75v-.5c-.28 0-.5.22-.5.5h.5Zm0 0v.5c.28 0 .5-.22.5-.5h-.5Zm99.22 39.92v-34.17h-1v34.17h1Zm-8.5 8.5c4.69 0 8.5-3.81 8.5-8.5h-1c0 4.14-3.36 7.5-7.5 7.5v1Zm-82.72 0h82.72v-1H73.26v1Zm-8.5-8.5c0 4.69 3.81 8.5 8.5 8.5v-1c-4.14 0-7.5-3.36-7.5-7.5h-1Zm0-39.92v39.92h1v-39.92h-1Zm0-59.09v59.09h1V62.62h-1Zm8.5-8.5c-4.69 0-8.5 3.81-8.5 8.5h1c0-4.14 3.36-7.5 7.5-7.5v-1Zm82.72 0H73.26v1h82.72v-1Zm8.5 8.5c0-4.69-3.81-8.5-8.5-8.5v1c4.14 0 7.5 3.36 7.5 7.5h1Zm0 64.84V62.62h-1v64.84h1Z" fill="#000"/><path fill-rule="evenodd" clip-rule="evenodd" d="M148.72 116.84v34.17c0 4.42-3.58 8-8 8H58c-4.42 0-8-3.58-8-8V52c0-4.42 3.58-8 8-8h82.72c4.42 0 8 3.58 8 8v64.84Z" fill="#E0D8D4"/><path d="M148.72 116.84v-.5c-.28 0-.5.22-.5.5h.5Zm0 0v.5c.28 0 .5-.22.5-.5h-.5ZM50 111.09v-.5c-.28 0-.5.22-.5.5h.5Zm0 0v.5c.28 0 .5-.22.5-.5H50Zm99.22 39.92v-34.17h-1v34.17h1Zm-8.5 8.5c4.69 0 8.5-3.81 8.5-8.5h-1c0 4.14-3.36 7.5-7.5 7.5v1Zm-82.72 0h82.72v-1H58v1Zm-8.5-8.5c0 4.69 3.81 8.5 8.5 8.5v-1c-4.14 0-7.5-3.36-7.5-7.5h-1Zm0-39.92v39.92h1v-39.92h-1Zm0-59.09v59.09h1V52h-1Zm8.5-8.5c-4.69 0-8.5 3.81-8.5 8.5h1c0-4.14 3.36-7.5 7.5-7.5v-1Zm82.72 0H58v1h82.72v-1Zm8.5 8.5c0-4.69-3.81-8.5-8.5-8.5v1c4.14 0 7.5 3.36 7.5 7.5h1Zm0 64.84V52h-1v64.84h1Z" fill="#000"/><path d="M137.5 104.5h-102V37c0-4.14 3.36-7.5 7.5-7.5h87c4.14 0 7.5 3.36 7.5 7.5v67.5Z" fill="#FF6842"/><path d="M138 105H35V37c0-4.41 3.59-8 8-8h87c4.41 0 8 3.59 8 8v68Zm-102-1h101V37c0-3.86-3.14-7-7-7H43c-3.86 0-7 3.14-7 7v67Z" fill="#000"/><path fill-rule="evenodd" clip-rule="evenodd" d="M66.96 70.03V46.7H63v36.29h3.96v-9.01H107V83h3.96V60.98c0-4.74-3.84-8.58-8.58-8.58H85v17.62H66.96v.01ZM107 60.99v9.04H88.96V56.37h13.42c2.55 0 4.62 2.07 4.62 4.62ZM73.59 61c0-1.34 1.08-2.42 2.42-2.42 1.34 0 2.42 1.08 2.42 2.42 0 1.34-1.08 2.42-2.42 2.42-1.34 0-2.42-1.08-2.42-2.42Zm2.42-6.38c-3.52 0-6.38 2.86-6.38 6.38s2.86 6.38 6.38 6.38 6.38-2.86 6.38-6.38-2.86-6.38-6.38-6.38Z" fill="#fff"/><path d="M66.96 46.7h.5v-.5h-.5v.5Zm0 23.33h-.5v.5h.5v-.5ZM63 46.7v-.5h-.5v.5h.5Zm0 36.29h-.5v.5h.5v-.5Zm3.96 0v.5h.5v-.5h-.5Zm0-9.01v-.5h-.5v.5h.5Zm40.04 0h.5v-.5h-.5v.5Zm0 9.02h-.5v.5h.5V83Zm3.96 0v.5h.5V83h-.5Zm0-12.98h.5v-.5h-.5v.5Zm0 0h-.5v.5h.5v-.5ZM85.01 52.4v-.5h-.5v.5h.5Zm0 17.62v.5h.5v-.5h-.5Zm21.99 0v.5h.5v-.5h-.5Zm-18.04 0h-.5v.5h.5v-.5Zm0-13.66v-.5h-.5v.5h.5Zm-22.5-9.67v23.33h1V46.69h-1Zm-3.46.5h3.96v-1H63v1Zm.5 35.79V46.7h-1v36.29h1v-.01Zm3.46-.5H63v1h3.96v-1Zm-.5-8.51v9.01h1v-9.01h-1Zm40.54-.5H66.96v1H107v-1Zm.5 9.52v-9.02h-1v9.02h1Zm3.46-.5H107v1h3.96v-1Zm-.5-12.48v12.98h1V70.01h-1Zm-.01-9.04v9.04h1v-9.04h-1Zm-8.08-8.08c4.46 0 8.08 3.62 8.08 8.08h1a9.08 9.08 0 0 0-9.08-9.08v1Zm-17.38 0h17.38v-1H84.99v1Zm.5 17.12V52.39h-1v17.62h1Zm-18.54.5h18.04v-1H66.95v1Zm40.54-.5v-9.04h-1v9.04h1Zm-18.54.5h18.04v-1H88.95v1Zm-.5-14.16v13.66h1V56.35h-1Zm13.92-.5H88.95v1h13.42v-1Zm5.12 5.12c0-2.83-2.29-5.12-5.12-5.12v1a4.12 4.12 0 0 1 4.12 4.12h1ZM76 58.06c-1.61 0-2.92 1.31-2.92 2.92h1c0-1.06.86-1.92 1.92-1.92v-1Zm2.92 2.92c0-1.61-1.31-2.92-2.92-2.92v1c1.06 0 1.92.86 1.92 1.92h1ZM76 63.9c1.61 0 2.92-1.31 2.92-2.92h-1c0 1.06-.86 1.92-1.92 1.92v1Zm-2.92-2.92c0 1.61 1.31 2.92 2.92 2.92v-1a1.92 1.92 0 0 1-1.92-1.92h-1Zm-2.96 0c0-3.25 2.63-5.88 5.88-5.88v-1a6.88 6.88 0 0 0-6.88 6.88h1ZM76 66.86c-3.25 0-5.88-2.63-5.88-5.88h-1c0 3.8 3.08 6.88 6.88 6.88v-1Zm5.88-5.88c0 3.25-2.63 5.88-5.88 5.88v1c3.8 0 6.88-3.08 6.88-6.88h-1ZM76 55.1c3.25 0 5.88 2.63 5.88 5.88h1c0-3.8-3.08-6.88-6.88-6.88v1Z" fill="#000"/><path d="M35.5 99.5h102V141c0 4.14-3.36 7.5-7.5 7.5H43c-4.14 0-7.5-3.36-7.5-7.5V99.5Z" fill="#fff"/><path d="M130 149H43c-4.41 0-8-3.59-8-8V99h103v42c0 4.41-3.59 8-8 8Zm-94-49v41c0 3.86 3.14 7 7 7h87c3.86 0 7-3.14 7-7v-41H36Z" fill="#000"/><path d="M115 114.5H59c-.28 0-.5-.22-.5-.5s.22-.5.5-.5h56c.28 0 .5.22.5.5s-.22.5-.5.5ZM115 124.5H59c-.28 0-.5-.22-.5-.5s.22-.5.5-.5h56c.28 0 .5.22.5.5s-.22.5-.5.5ZM115 134.5H59c-.28 0-.5-.22-.5-.5s.22-.5.5-.5h56c.28 0 .5.22.5.5s-.22.5-.5.5Z" fill="#000"/></g><defs><clipPath id="a"><path fill="#fff" d="M35 29h129.48v141.13H35z"/></clipPath></defs></svg>