<svg width="200" height="200" viewBox="0 0 200 200" fill="none" xmlns="http://www.w3.org/2000/svg"><g clip-path="url(#a)"><path d="M98.5 169.51c39.76 0 72-32.24 72-72s-32.24-72.01-72-72.01-72 32.24-72 72 32.24 72 72 72v.01Z" fill="#000"/><path d="M98.5 170.01c-39.98 0-72.5-32.53-72.5-72.51C26 57.52 58.52 25 98.5 25S171 57.52 171 97.5 138.48 170 98.5 170v.01ZM98.5 26C59.07 26 27 58.08 27 97.5S59.07 169 98.5 169 170 136.92 170 97.5 137.92 26 98.5 26Z" fill="#000"/><path d="M98.11 160.08c34.78 0 62.97-28.19 62.97-62.97s-28.19-62.97-62.97-62.97-62.97 28.19-62.97 62.97 28.19 62.97 62.97 62.97Z" fill="#000"/><path d="M98.11 160.58c-35 0-63.47-28.47-63.47-63.47s28.47-63.47 63.47-63.47 63.47 28.47 63.47 63.47-28.47 63.47-63.47 63.47Zm0-125.94c-34.45 0-62.47 28.02-62.47 62.47s28.02 62.47 62.47 62.47 62.47-28.02 62.47-62.47-28.03-62.47-62.47-62.47Z" fill="#000"/><path d="M94.81 58.36h7.18v9.48c11.94 1.07 22.12 7.82 22.12 18.42v.75h-16.33v-.64c0-3.16-2.62-5.03-5.78-5.73V91.3c9.59 1.55 22.97 4.93 22.97 17.35 0 12.42-11.08 17.24-22.97 18.1v10.6h-7.18v-10.6c-12.05-1.02-22.65-7.18-22.65-18.31v-.96h16.49v.75c0 3.16 2.25 4.98 6.16 5.68v-11.25c-10.28-1.82-21.85-5.94-21.85-17.19 0-10.55 9.59-16.55 21.85-17.62v-9.48l-.01-.01Zm-5.62 26.72c0 2.3 2.14 3.69 5.62 4.71v-9.21c-3 .54-5.62 1.87-5.62 4.5Zm19.65 24.04c0-2.73-2.09-4.07-6.85-5.14v10.01c3.69-.48 6.85-2.03 6.85-4.87Z" fill="#000"/><path fill-rule="evenodd" clip-rule="evenodd" d="M93.58 57.13h9.65v9.6c5.73.69 11.06 2.66 15.06 5.77 4.28 3.34 7.06 8.01 7.06 13.76v1.98h-18.8v-1.88c0-1.86-1.25-3.27-3.31-4.08v7.96c4.61.79 10.04 2.06 14.46 4.57 4.82 2.74 8.51 7.05 8.51 13.82 0 6.4-3.01 11.07-7.56 14.2-4.22 2.9-9.73 4.48-15.41 5.03v10.7h-9.65v-10.72c-5.77-.64-11.22-2.46-15.34-5.49-4.42-3.25-7.31-7.93-7.31-13.95v-2.2H89.9v1.98c0 1.25.43 2.15 1.2 2.84.58.52 1.4.95 2.49 1.28v-8.66c-4.9-.93-10.11-2.43-14.21-5.05-4.44-2.83-7.64-7.03-7.64-13.17 0-5.7 2.61-10.19 6.82-13.35 3.92-2.94 9.19-4.73 15.03-5.38v-9.6l-.01.04Zm1.23 10.71c-12.26 1.07-21.85 7.07-21.85 17.62 0 11.25 11.57 15.37 21.85 17.19v11.25c-.43-.08-.84-.17-1.23-.27-3.14-.84-4.92-2.59-4.92-5.4v-.75H72.17v1.23c.17 10.97 10.7 17.03 22.65 18.04v10.6H102v-10.6c11.89-.86 22.97-6.21 22.97-18.1S111.58 92.85 102 91.3V80.64c.42.09.84.21 1.23.34 2.58.88 4.55 2.65 4.55 5.39v.64h16.33v-1.24c-.31-10.32-10.35-16.88-22.11-17.94v-9.48h-7.18v9.48l-.01.01Zm0 21.96v-9.21c-.42.08-.83.17-1.23.27-2.45.66-4.39 1.97-4.39 4.22 0 2.02 1.64 3.33 4.39 4.31.39.14.8.27 1.23.4v.01Zm-1.23-7.65c-.79.24-1.46.54-1.99.92-.78.55-1.17 1.2-1.17 2.02 0 .69.29 1.29 1.03 1.87.51.4 1.22.78 2.12 1.13v-5.94h.01Zm8.41 21.84V114c.42-.05.83-.12 1.23-.21 3.14-.65 5.62-2.15 5.62-4.67s-1.73-3.81-5.62-4.84c-.39-.1-.8-.2-1.23-.3v.01Zm1.23 1.58v6.97c1.16-.26 2.16-.64 2.91-1.12 1.01-.65 1.47-1.4 1.47-2.28 0-.97-.33-1.61-1.13-2.19-.69-.5-1.74-.95-3.26-1.37l.01-.01Z" fill="#000"/><path d="M101.5 173.51c39.76 0 72-32.24 72-72s-32.24-72.01-72-72.01-72 32.24-72 72 32.24 72 72 72v.01Z" fill="#FFC700"/><path d="M101.5 174.01c-39.98 0-72.5-32.53-72.5-72.51C29 61.52 61.52 29 101.5 29S174 61.52 174 101.5 141.48 174 101.5 174v.01Zm0-144.01C62.07 30 30 62.08 30 101.5S62.07 173 101.5 173s71.5-32.08 71.5-71.5S140.92 30 101.5 30Z" fill="#000"/><path d="M101.11 164.08c34.78 0 62.97-28.19 62.97-62.97s-28.19-62.97-62.97-62.97-62.97 28.19-62.97 62.97 28.19 62.97 62.97 62.97Z" fill="#FFC700"/><path d="M101.11 164.58c-35 0-63.47-28.47-63.47-63.47s28.47-63.47 63.47-63.47 63.47 28.47 63.47 63.47-28.47 63.47-63.47 63.47Zm0-125.94c-34.45 0-62.47 28.02-62.47 62.47s28.02 62.47 62.47 62.47 62.47-28.02 62.47-62.47-28.03-62.47-62.47-62.47Z" fill="#000"/><path d="M97.81 62.36h7.18v9.48c11.94 1.07 22.12 7.82 22.12 18.42v.75h-16.33v-.64c0-3.16-2.62-5.03-5.78-5.73V95.3c9.59 1.55 22.97 4.93 22.97 17.35 0 12.42-11.08 17.24-22.97 18.1v10.6h-7.18v-10.6c-12.05-1.02-22.65-7.18-22.65-18.31v-.96h16.49v.75c0 3.16 2.25 4.98 6.16 5.68v-11.25c-10.28-1.82-21.85-5.94-21.85-17.19 0-10.55 9.59-16.55 21.85-17.62v-9.48l-.01-.01Zm-5.62 26.72c0 2.3 2.14 3.69 5.62 4.71v-9.21c-3 .54-5.62 1.87-5.62 4.5Zm19.65 24.04c0-2.73-2.09-4.07-6.85-5.14v10.01c3.69-.48 6.85-2.03 6.85-4.87Z" fill="#FFFEB3"/><path fill-rule="evenodd" clip-rule="evenodd" d="M96.58 61.13h9.65v9.6c5.73.69 11.06 2.66 15.06 5.77 4.28 3.34 7.06 8.01 7.06 13.76v1.98h-18.8v-1.88c0-1.86-1.25-3.27-3.31-4.08v7.96c4.61.79 10.04 2.06 14.46 4.57 4.82 2.74 8.51 7.05 8.51 13.82 0 6.4-3.01 11.07-7.56 14.2-4.22 2.9-9.73 4.48-15.41 5.03v10.7h-9.65v-10.72c-5.77-.64-11.22-2.46-15.34-5.49-4.42-3.25-7.31-7.93-7.31-13.95v-2.2H92.9v1.98c0 1.25.43 2.15 1.2 2.84.58.52 1.4.95 2.49 1.28v-8.66c-4.9-.93-10.11-2.43-14.21-5.05-4.44-2.83-7.64-7.03-7.64-13.17 0-5.7 2.61-10.19 6.82-13.35 3.92-2.94 9.19-4.73 15.03-5.38v-9.6l-.01.04Zm1.23 10.71c-12.26 1.07-21.85 7.07-21.85 17.62 0 11.25 11.57 15.37 21.85 17.19v11.25c-.43-.08-.84-.17-1.23-.27-3.14-.84-4.92-2.59-4.92-5.4v-.75H75.17v1.23c.17 10.97 10.7 17.03 22.65 18.04v10.6H105v-10.6c11.89-.86 22.97-6.21 22.97-18.1S114.58 96.85 105 95.3V84.64c.42.09.84.21 1.23.34 2.58.88 4.55 2.65 4.55 5.39v.64h16.33v-1.23C126.8 79.46 116.76 72.9 105 71.84v-9.48h-7.18v9.48h-.01Zm0 21.96v-9.21c-.42.08-.83.17-1.23.27-2.45.66-4.39 1.97-4.39 4.22 0 2.02 1.64 3.33 4.39 4.31.39.14.8.27 1.23.4v.01Zm-1.23-7.65c-.79.24-1.46.54-1.99.92-.78.55-1.17 1.2-1.17 2.02 0 .69.29 1.29 1.03 1.87.51.4 1.22.78 2.12 1.13v-5.94h.01Zm8.41 21.84V118c.42-.05.83-.12 1.23-.21 3.14-.65 5.62-2.15 5.62-4.67s-1.73-3.81-5.62-4.84c-.39-.1-.8-.2-1.23-.3v.01Zm1.23 1.58v6.97c1.16-.26 2.16-.64 2.91-1.12 1.01-.65 1.47-1.4 1.47-2.28 0-.97-.33-1.61-1.13-2.19-.69-.5-1.74-.95-3.26-1.37l.01-.01Z" fill="#000"/></g><defs><clipPath id="a"><path fill="#fff" d="M26 25h148v149.01H26z"/></clipPath></defs></svg>