<svg width="200" height="200" viewBox="0 0 200 200" fill="none" xmlns="http://www.w3.org/2000/svg"><g opacity=".5" clip-path="url(#a)"><path d="m59.45 94.72-1.06 6.54-9.64 59.28H33.8l9.62-59.14 1.06-6.54.93-5.71h14.95l-.9 5.56-.01.01Z" fill="#FFF5EE"/><path d="M49.13 161H33.26l11.75-72.29h15.87L49.13 161Zm-14.8-.91h14.04l11.46-70.48H45.79l-11.46 70.48Z" fill="#141414"/><path d="M59.5 96h-15l-1 7.5c5.55-4.26 8.78-3.92 14.5 0l1.5-7.5Z" fill="#000"/><path d="m42.84 104.63 1.22-9.13h16.05l-1.77 8.84-.62-.43c-5.78-3.96-8.77-3.96-13.91-.02l-.96.74h-.01Zm7.66-4.71c2.15 0 4.37.92 7.15 2.75l1.23-6.17H44.93l-.79 5.9c2.34-1.65 4.31-2.48 6.35-2.48h.01ZM51 143H36.94l-.94 8c5.2-4.54 8.23-4.18 13.59 0l1.41-8Z" fill="#000"/><path d="m35.35 152.23 1.14-9.73h15.1l-1.65 9.41-.66-.51c-5.38-4.2-8.17-4.2-12.96-.02l-.98.85h.01Zm7.22-4.98c2.02 0 4.11.95 6.67 2.86l1.16-6.6H37.38l-.74 6.31c2.15-1.71 4.01-2.57 5.93-2.57Z" fill="#000"/><path d="M166.31 160.55h-14.95l-9.64-59.28-1.07-6.54-.9-5.56h14.95l.92 5.71 1.06 6.54 9.62 59.14.01-.01Z" fill="#FFF5EE"/><path d="M166.84 161h-15.87l-.06-.38-11.69-71.91h15.87l2.05 12.63 9.71 59.66h-.01Zm-15.1-.91h14.03l-11.46-70.48h-14.03l1.88 11.58 9.58 58.9Z" fill="#141414"/><path d="m58.35 60.62 1.44 10.86H48.24l1.44-10.86h8.67Z" fill="#FFF5EE"/><path d="M60.31 71.92H47.73l1.56-11.76h9.45l1.56 11.76h.01Zm-11.55-.91h10.51l-1.32-9.95h-7.87l-1.32 9.95Z" fill="#141414"/><path d="M53.73 40.45c6.11 0 11.09 4.87 11.27 10.96v.35c0 6.24-5.05 11.31-11.27 11.31s-11.27-5.06-11.27-11.31c0-6.25 5.04-11.31 11.27-11.31Z" fill="#FFB972"/><path d="M53.73 63.52C47.26 63.52 42 58.24 42 51.76 42 45.28 47.26 40 53.73 40c6.47 0 11.53 5.01 11.72 11.4v.36c0 6.48-5.26 11.76-11.73 11.76h.01Zm0-22.62c-5.97 0-10.83 4.87-10.83 10.86 0 5.99 4.85 10.86 10.82 10.86 5.97 0 10.82-4.87 10.82-10.86v-.35c-.18-5.89-4.93-10.51-10.82-10.51h.01Z" fill="#141414"/><path d="M61.55 52c0 4.17-3.38 7.54-7.55 7.54s-7.55-3.38-7.55-7.54A7.55 7.55 0 0 1 54 44.45c4.18 0 7.55 3.38 7.55 7.55Z" fill="#FFFEB3"/><path d="M54 60c-4.41 0-8-3.59-8-8s3.59-8 8-8 8 3.59 8 8-3.59 8-8 8Zm0-15.09c-3.91 0-7.09 3.18-7.09 7.1A7.09 7.09 0 0 0 54 59.1c3.91 0 7.1-3.18 7.1-7.09 0-3.92-3.18-7.1-7.1-7.1Z" fill="#141414"/><path d="M141 96h15l1 7.5c-5.55-4.26-8.78-3.92-14.5 0L141 96Z" fill="#000"/><path d="m157.66 104.63-.96-.74c-5.14-3.94-8.13-3.94-13.91.02l-.62.43-1.77-8.84h16.05l1.22 9.13h-.01Zm-16.04-8.13 1.23 6.17c5.43-3.57 8.7-3.66 13.5-.27l-.79-5.9h-13.95.01ZM149 143h14.06l.94 8c-5.2-4.54-8.23-4.18-13.59 0l-1.41-8Z" fill="#000"/><path d="m164.65 152.23-.98-.85c-4.79-4.18-7.57-4.18-12.96.02l-.66.51-1.65-9.41h15.1l1.14 9.73h.01Zm-15.05-8.73 1.16 6.6c5-3.71 8.17-3.81 12.6-.29l-.74-6.31H149.6Z" fill="#000"/><path d="m150.139 60.62 1.44 10.86h-11.55l1.44-10.86h8.67Z" fill="#FFF5EE"/><path d="M152.1 71.92h-12.58l1.56-11.76h9.45l1.56 11.76h.01Zm-11.55-.91h10.51l-1.32-9.95h-7.87l-1.32 9.95Z" fill="#141414"/><path d="M157.09 51.76c0 6.24-5.05 11.31-11.27 11.31s-11.28-5.06-11.28-11.31c0-6.25 5.05-11.31 11.27-11.31s11.27 5.06 11.27 11.31h.01Z" fill="#FFB972"/><path d="M145.81 63.52c-6.47 0-11.73-5.28-11.73-11.76 0-6.48 5.27-11.76 11.73-11.76 6.46 0 11.73 5.28 11.73 11.76 0 6.48-5.26 11.76-11.73 11.76Zm0-22.62c-5.97 0-10.82 4.87-10.82 10.86 0 5.99 4.85 10.86 10.82 10.86 5.97 0 10.82-4.87 10.82-10.86 0-5.99-4.85-10.86-10.82-10.86Z" fill="#141414"/><path d="M145.73 40.45c6.11 0 11.08 4.87 11.27 10.96v.35c0 6.24-5.05 11.31-11.27 11.31s-11.27-5.06-11.27-11.31c0-6.25 5.04-11.31 11.27-11.31Z" fill="#FFB972"/><path d="M145.73 63.52c-6.47 0-11.73-5.28-11.73-11.76 0-6.48 5.26-11.76 11.73-11.76 6.47 0 11.53 5.01 11.72 11.4v.36c0 6.48-5.26 11.76-11.73 11.76h.01Zm0-22.62c-5.97 0-10.83 4.87-10.83 10.86 0 5.99 4.85 10.86 10.82 10.86 5.97 0 10.82-4.87 10.82-10.86v-.35c-.18-5.89-4.93-10.51-10.82-10.51h.01Z" fill="#141414"/><path d="M153.55 52c0 4.17-3.38 7.54-7.55 7.54s-7.55-3.38-7.55-7.54 3.38-7.55 7.55-7.55a7.55 7.55 0 0 1 7.55 7.55Z" fill="#FFFEB3"/><path d="M146 60c-4.41 0-8-3.59-8-8s3.59-8 8-8 8 3.59 8 8-3.59 8-8 8Zm0-15.09c-3.91 0-7.09 3.18-7.09 7.1A7.09 7.09 0 0 0 146 59.1c3.91 0 7.09-3.18 7.09-7.09 0-3.92-3.18-7.1-7.09-7.1Z" fill="#141414"/><path d="M21.45 95.79V66.37h157.2v29.42H21.45Z" fill="#FFF5EE"/><path d="M179.1 96.24H21V65.91h158.1v30.33Zm-157.19-.9H178.2V66.83H21.91v28.51Z" fill="#141414"/><path d="M33.39 66.37h19.45L41.71 95.8H22.26l11.13-29.43Z" fill="#FF5B48"/><path d="M42.02 96.24H21.6l11.47-30.33h20.42L42.02 96.24Zm-19.11-.91h18.48l10.79-28.52H33.7L22.91 95.34v-.01Z" fill="#141414"/><path d="M75.24 66.37h19.45L83.56 95.8H64.11l11.13-29.43Z" fill="#FF5B48"/><path d="M83.87 96.24H63.45l11.47-30.33h20.42L83.87 96.24Zm-19.11-.91h18.49l10.79-28.52H75.55L64.76 95.33Z" fill="#141414"/><path d="M117.09 66.37h19.45L125.41 95.8h-19.45l11.13-29.43Z" fill="#FF5B48"/><path d="M125.72 96.24H105.3l11.47-30.33h20.42l-11.47 30.33Zm-19.11-.91h18.48l10.79-28.52H117.4l-10.79 28.52Z" fill="#141414"/><path d="M158.941 66.37h19.46l-11.13 29.43h-19.46l11.13-29.43Z" fill="#FF5B48"/><path d="M167.58 96.24h-20.43l11.47-30.33h20.43l-11.48 30.33h.01Zm-19.12-.91h18.49l10.79-28.52h-18.49l-10.79 28.52Z" fill="#141414"/><path d="M24.66 143.02v-18.29h150.79v18.29H24.66Z" fill="#FFF5EE"/><path d="M175.9 143.48H24.2v-19.19h151.7v19.19Zm-150.79-.91H175v-17.38H25.11v17.38Z" fill="#141414"/><path d="M36.06 124.73h18.55l-10.49 18.29H25.56l10.49-18.29h.01Z" fill="#FF5B48"/><path d="M44.37 143.47H24.78l11.01-19.19h19.59l-11.01 19.19Zm-18.03-.91h17.5l9.97-17.38H36.32l-9.97 17.38h-.01Z" fill="#141414"/><path d="M76.21 124.73h18.56l-10.49 18.29H65.73l10.49-18.29h-.01Z" fill="#FF5B48"/><path d="M84.53 143.47h-19.6l11.01-19.19h19.6l-11.01 19.19Zm-18.03-.91h17.51l9.97-17.38H76.47l-9.97 17.38Z" fill="#141414"/><path d="M116.37 124.73h18.55l-10.49 18.29h-18.55l10.49-18.29Z" fill="#FF5B48"/><path d="M124.68 143.47h-19.59l11.01-19.19h19.59l-11.01 19.19Zm-18.03-.91h17.5l9.97-17.38h-17.5l-9.97 17.38Z" fill="#141414"/><path d="M156.52 124.73h18.55l-10.49 18.29h-18.55l10.49-18.29Z" fill="#FF5B48"/><path d="M164.84 143.47h-19.59l11.01-19.19h19.59l-11.01 19.19Zm-18.03-.91h17.51l9.97-17.38h-17.51l-9.97 17.38Z" fill="#141414"/></g><defs><clipPath id="a"><path fill="#fff" d="M21 40h158.1v121H21z"/></clipPath></defs></svg>