<svg width="200" height="200" viewBox="0 0 200 200" fill="none" xmlns="http://www.w3.org/2000/svg"><g opacity=".5" clip-path="url(#a)"><path d="M131.97 93.28c0-2.44 1.71-4.29 3.69-4.29h9.21c1.98 0 3.69 1.86 3.69 4.29v67.83h-16.59V93.28Z" fill="#FFCCB7"/><path d="M149.06 161.61h-17.59V93.28c0-2.64 1.88-4.79 4.19-4.79h9.21c2.31 0 4.19 2.15 4.19 4.79v68.33Zm-16.59-1h15.59V93.28c0-2.09-1.43-3.79-3.19-3.79h-9.21c-1.76 0-3.19 1.7-3.19 3.79v67.33Z" fill="#333"/><path d="M23.5 108.67c0-2.44 1.71-4.29 3.69-4.29h9.21c1.98 0 3.69 1.86 3.69 4.29v52.44H23.5v-52.44Z" fill="#FFCCB7"/><path d="M40.59 161.61H23v-52.94c0-2.64 1.88-4.79 4.19-4.79h9.21c2.31 0 4.19 2.15 4.19 4.79v52.94Zm-16.59-1h15.59v-51.94c0-2.09-1.43-3.79-3.19-3.79h-9.21c-1.76 0-3.19 1.7-3.19 3.79v51.94Z" fill="#333"/><path d="M105.12 43.77c0-2.45 1.62-4.27 3.43-4.27h8.63c1.81 0 3.43 1.82 3.43 4.27v116.79h-15.49V43.77Z" fill="#FF6842"/><path d="M121.12 161.06h-16.5V43.77c0-2.63 1.76-4.77 3.93-4.77h8.63c2.17 0 3.93 2.14 3.93 4.77v117.29h.01Zm-15.5-1h14.5V43.77c0-2.08-1.31-3.77-2.93-3.77h-8.63c-1.62 0-2.93 1.69-2.93 3.77v116.29h-.01Z" fill="#333"/><path d="M78.28 65.5c0-1.46.42-2.76 1.06-3.68.65-.92 1.49-1.43 2.37-1.43h8.63c.88 0 1.72.51 2.37 1.43.65.92 1.06 2.22 1.06 3.68v95.61H78.28V65.5Z" fill="#F87850"/><path d="M94.28 161.61H77.79V65.5c0-1.5.41-2.91 1.15-3.97s1.73-1.64 2.78-1.64h8.63c1.05 0 2.04.58 2.78 1.64.74 1.06 1.15 2.47 1.15 3.97v96.11Zm-15.49-1h14.49V65.5c0-1.29-.34-2.5-.97-3.39-.55-.78-1.25-1.22-1.96-1.22h-8.63c-.71 0-1.41.43-1.96 1.22-.63.89-.97 2.1-.97 3.39v95.11Z" fill="#333"/><path d="M159.91 77.86c0-2.42 1.71-4.28 3.69-4.28h9.21c1.98 0 3.69 1.85 3.69 4.28v82.7h-16.6v-82.7h.01Z" fill="#FFA078"/><path d="M177 161.06h-17.59v-83.2c0-2.63 1.88-4.78 4.19-4.78h9.21c2.31 0 4.19 2.14 4.19 4.78v83.2Zm-16.59-1H176v-82.2c0-2.08-1.43-3.78-3.19-3.78h-9.21c-1.76 0-3.19 1.69-3.19 3.78v82.2Z" fill="#333"/><path d="M51.44 76.76c0-2.46 1.62-4.28 3.43-4.28h8.63c1.81 0 3.43 1.82 3.43 4.28v84.35H51.44V76.76Z" fill="#FFA078"/><path d="M67.44 161.61H50.95V76.76c0-2.63 1.76-4.78 3.93-4.78h8.63c2.17 0 3.93 2.14 3.93 4.78v84.85Zm-15.49-1h14.49V76.76c0-2.08-1.31-3.78-2.93-3.78h-8.63c-1.62 0-2.93 1.69-2.93 3.78v83.85Z" fill="#333"/></g><defs><clipPath id="a"><path fill="#fff" d="M23 39h154v122.61H23z"/></clipPath></defs></svg>