<svg width="200" height="200" viewBox="0 0 200 200" fill="none" xmlns="http://www.w3.org/2000/svg"><g clip-path="url(#a)"><path d="M150.25 39.5H29.4c-2.15 0-3.9 2.17-3.9 4.86v99.29c0 2.68 1.75 4.86 3.9 4.86h120.85c2.15 0 3.9-2.17 3.9-4.86V44.36c0-2.68-1.75-4.86-3.9-4.86Z" fill="#FFF5EE"/><path d="M150.25 149H29.4c-2.43 0-4.4-2.4-4.4-5.36V44.36C25 41.4 26.97 39 29.4 39h120.85c2.43 0 4.4 2.4 4.4 5.36v99.29c0 2.95-1.97 5.36-4.4 5.36V149ZM29.4 40c-1.87 0-3.4 1.95-3.4 4.36v99.29c0 2.4 1.53 4.36 3.4 4.36h120.85c1.88 0 3.4-1.95 3.4-4.36V44.36c0-2.4-1.53-4.36-3.4-4.36H29.4Z" fill="#141414"/><path d="M29.4 39.5h120.85c1.03 0 2.02.51 2.75 1.42.73.91 1.14 2.14 1.14 3.42V59.8H25.5V44.36c0-.64.1-1.27.29-1.86.2-.59.48-1.13.85-1.58.36-.45.79-.81 1.27-1.05.47-.24.98-.37 1.49-.37Z" fill="#FF6842"/><path d="M154.63 60.3H25V44.36c0-.69.11-1.37.32-2.02.22-.65.53-1.23.93-1.73.41-.51.89-.91 1.43-1.18.55-.28 1.15-.41 1.72-.42h120.84c1.18 0 2.32.58 3.14 1.61.81 1 1.25 2.33 1.25 3.74v15.96-.02ZM26 59.3h127.63V44.34c0-1.16-.38-2.3-1.03-3.11-.64-.79-1.48-1.23-2.36-1.23H29.4c-.43.03-.86.1-1.26.31-.41.21-.79.52-1.11.92a4.5 4.5 0 0 0-.76 1.42 5.4 5.4 0 0 0-.27 1.7V59.3Z" fill="#141414"/><path d="M39 49.5c0 1.93-1.57 3.5-3.5 3.5S32 51.43 32 49.5s1.57-3.5 3.5-3.5 3.5 1.57 3.5 3.5Z" fill="#fff"/><path d="M35.5 53.5c-2.21 0-4-1.79-4-4s1.79-4 4-4 4 1.79 4 4-1.79 4-4 4Zm0-7c-1.65 0-3 1.35-3 3s1.35 3 3 3 3-1.35 3-3-1.35-3-3-3Z" fill="#000"/><path d="M52 49.5c0 1.93-1.57 3.5-3.5 3.5S45 51.43 45 49.5s1.57-3.5 3.5-3.5 3.5 1.57 3.5 3.5Z" fill="#fff"/><path d="M48.5 53.5c-2.21 0-4-1.79-4-4s1.79-4 4-4 4 1.79 4 4-1.79 4-4 4Zm0-7c-1.65 0-3 1.35-3 3s1.35 3 3 3 3-1.35 3-3-1.35-3-3-3Z" fill="#000"/><path d="M65 49.5c0 1.93-1.57 3.5-3.5 3.5S58 51.43 58 49.5s1.57-3.5 3.5-3.5 3.5 1.57 3.5 3.5Z" fill="#fff"/><path d="M61.5 53.5c-2.21 0-4-1.79-4-4s1.79-4 4-4 4 1.79 4 4-1.79 4-4 4Zm0-7c-1.65 0-3 1.35-3 3s1.35 3 3 3 3-1.35 3-3-1.35-3-3-3ZM137.39 158.82c19.55 0 35.39-15.85 35.39-35.41 0-19.56-15.84-35.41-35.39-35.41S102 103.85 102 123.41c0 19.56 15.84 35.41 35.39 35.41Z" fill="#000"/><path d="M137.39 159.32c-19.79 0-35.89-16.11-35.89-35.91 0-19.8 16.1-35.91 35.89-35.91s35.89 16.11 35.89 35.91c0 19.8-16.1 35.91-35.89 35.91Zm0-70.82c-19.24 0-34.89 15.66-34.89 34.91 0 19.25 15.65 34.91 34.89 34.91 19.24 0 34.89-15.66 34.89-34.91 0-19.25-15.65-34.91-34.89-34.91Z" fill="#000"/><path d="M133 142.21c0 2.52 1.98 4.5 4.5 4.5s4.56-1.97 4.56-4.5c0-2.53-2.04-4.56-4.56-4.56-2.52 0-4.5 2.05-4.5 4.56Z" fill="#000"/><path d="M137.5 147.21c-2.8 0-5-2.2-5-5s2.24-5.06 5-5.06 5.06 2.27 5.06 5.06c0 2.79-2.27 5-5.06 5Zm0-9.05c-2.24 0-4 1.78-4 4.06 0 2.28 1.76 4 4 4s4.06-1.76 4.06-4-1.82-4.06-4.06-4.06ZM134.72 134.46l.35.26c.25.18.56.28.88.28h3.09c.32 0 .62-.1.88-.28l.35-.26c.35-.25.57-.64.62-1.07l3.05-31.56c.05-.53-.18-1.05-.62-1.36l-.26-.18a1.51 1.51 0 0 0-.88-.28h-9.39c-.31 0-.62.1-.88.28l-.26.18c-.43.31-.67.83-.62 1.36l3.05 31.56c.04.43.27.82.62 1.07h.02Z" fill="#000"/><path d="M139.05 135.5h-3.09c-.42 0-.83-.13-1.17-.38l-.35-.25c-.47-.33-.77-.86-.82-1.43l-3.05-31.56c-.07-.7.25-1.4.82-1.81l.26-.18c.34-.24.75-.38 1.17-.38h9.39c.42 0 .83.13 1.17.38l.26.18a2 2 0 0 1 .82 1.82l-3.05 31.56c-.06.58-.36 1.1-.82 1.43l-.35.26c-.34.25-.75.38-1.17.38l-.02-.02Zm-6.24-35c-.21 0-.42.07-.58.19l-.26.18c-.29.21-.45.55-.41.91l3.05 31.56c.03.29.18.55.41.71l.35.25c.17.12.37.19.58.19h3.09c.21 0 .41-.07.58-.19l.36-.26c.23-.17.38-.43.41-.72l3.05-31.56c.04-.35-.12-.7-.41-.91l-.25-.18a1.03 1.03 0 0 0-.58-.19h-9.39v.02Z" fill="#000"/><path d="M138.39 160.82c19.55 0 35.39-15.85 35.39-35.41 0-19.56-15.84-35.41-35.39-35.41S103 105.85 103 125.41c0 19.56 15.84 35.41 35.39 35.41Z" fill="#C43100"/><path d="M138.39 161.32c-19.79 0-35.89-16.11-35.89-35.91 0-19.8 16.1-35.91 35.89-35.91s35.89 16.11 35.89 35.91c0 19.8-16.1 35.91-35.89 35.91Zm0-70.82c-19.24 0-34.89 15.66-34.89 34.91 0 19.25 15.65 34.91 34.89 34.91 19.24 0 34.89-15.66 34.89-34.91 0-19.25-15.65-34.91-34.89-34.91Z" fill="#000"/><path d="M134 144.21c0 2.52 1.98 4.5 4.5 4.5s4.56-1.97 4.56-4.5c0-2.53-2.04-4.56-4.56-4.56-2.52 0-4.5 2.05-4.5 4.56Z" fill="#fff"/><path d="M138.5 149.21c-2.8 0-5-2.2-5-5s2.24-5.06 5-5.06 5.06 2.27 5.06 5.06c0 2.79-2.27 5-5.06 5Zm0-9.05c-2.24 0-4 1.78-4 4.06 0 2.28 1.76 4 4 4s4.06-1.76 4.06-4-1.82-4.06-4.06-4.06Z" fill="#000"/><path d="m135.72 136.46.35.26c.25.18.56.28.88.28h3.09c.32 0 .62-.1.88-.28l.35-.26c.35-.25.57-.64.62-1.07l3.05-31.56c.05-.53-.18-1.05-.62-1.36l-.26-.18a1.51 1.51 0 0 0-.88-.28h-9.39c-.31 0-.62.1-.88.28l-.26.18c-.43.31-.67.83-.62 1.36l3.05 31.56c.04.43.27.82.62 1.07h.02Z" fill="#fff"/><path d="M140.05 137.5h-3.09c-.42 0-.83-.13-1.17-.38l-.35-.25c-.47-.33-.77-.86-.82-1.43l-3.05-31.56c-.07-.71.25-1.4.82-1.81l.26-.18c.33-.24.75-.38 1.17-.38h9.39c.42 0 .83.13 1.17.38l.25.18a2 2 0 0 1 .82 1.82l-3.05 31.56c-.06.58-.36 1.1-.82 1.43l-.35.26c-.34.25-.75.38-1.17.38l-.01-.02Zm-6.24-35c-.21 0-.42.07-.58.19l-.26.18c-.29.21-.44.55-.41.91l3.05 31.56c.03.29.18.55.41.71l.35.25c.17.12.37.19.58.19h3.09c.21 0 .41-.07.58-.19l.36-.26c.23-.17.38-.43.41-.72l3.05-31.56c.04-.35-.12-.7-.41-.91l-.25-.18a1.03 1.03 0 0 0-.58-.19h-9.39v.02Z" fill="#000"/></g><defs><clipPath id="a"><path fill="#fff" d="M25 39h149.28v122.32H25z"/></clipPath></defs></svg>