<svg width="200" height="200" viewBox="0 0 200 200" fill="none" xmlns="http://www.w3.org/2000/svg"><g clip-path="url(#a)"><path d="M120.68 49.49H27.15c-3.68 0-6.66 2.98-6.66 6.66v58.79c0 3.67 2.98 6.65 6.65 6.65h93.53c3.67 0 6.65-2.98 6.65-6.65V56.15c0-3.67-2.98-6.65-6.65-6.65l.01-.01Z" fill="#FF6842"/><path d="M120.68 122.08H27.15c-3.94 0-7.15-3.21-7.15-7.15V56.15c0-3.94 3.21-7.15 7.15-7.15h93.53c3.94 0 7.15 3.21 7.15 7.15v58.79c0 3.94-3.21 7.15-7.15 7.15v-.01ZM27.15 49.99c-3.4 0-6.16 2.76-6.16 6.16v58.79a6.17 6.17 0 0 0 6.16 6.16h93.53c3.4 0 6.16-2.76 6.16-6.16V56.15c0-3.4-2.76-6.16-6.16-6.16H27.15Z" fill="#141414"/><path d="M127.33 60.54H20.49v11.02h106.84V60.54Z" fill="#141414"/><path d="M81.35 81.34H34.28v7.11h47.06v-7.11h.01Z" fill="#fff"/><path d="M176.9 132.86v.05c-.04 1.33-1.35 2.58-3.64 3.67-5.34 2.55-16 4.25-28.27 4.18-12.41-.07-23.15-1.91-28.4-4.56-2.2-1.11-3.45-2.36-3.43-3.67.02-4.45 14.31-7.99 31.92-7.91 17.6.08 31.86 3.77 31.83 8.23l-.01.01Z" fill="#FFB972"/><path d="M145.64 141.26h-.65c-12.14-.07-23.11-1.83-28.62-4.61-2.48-1.24-3.73-2.63-3.71-4.12.03-5.35 16.49-8.5 32.42-8.4 14.74.07 27.58 2.7 31.23 6.39.74.75 1.11 1.54 1.11 2.35v.06c-.04 1.51-1.37 2.89-3.93 4.11-5.5 2.62-16.12 4.24-27.84 4.24l-.01-.02Zm-1.21-16.14c-18.42 0-30.75 3.8-30.77 7.41-.01 1.06 1.08 2.18 3.16 3.22 5.39 2.71 16.19 4.44 28.18 4.51h.65c11.57 0 22.03-1.57 27.4-4.14 2.17-1.03 3.33-2.15 3.36-3.23l.5-.04h-.5c0-.54-.27-1.09-.82-1.64-3.42-3.46-16.26-6.02-30.52-6.09h-.64Z" fill="#000"/><path d="M145.01 137.15c12.32.06 22.31-2.02 22.32-4.64.01-2.63-9.96-4.81-22.28-4.87-12.32-.06-22.31 2.02-22.32 4.64-.01 2.63 9.96 4.81 22.27 4.87h.01Z" fill="#FFB972"/><path d="M145.52 137.65h-.51c-11.05-.06-22.79-1.96-22.77-5.37.02-3.36 11.42-5.14 22.32-5.14h.51c5.99.03 11.62.56 15.86 1.49 4.59 1 6.92 2.31 6.91 3.89-.02 3.36-11.41 5.14-22.31 5.14l-.01-.01Zm-1.02-9.51c-13.18 0-21.26 2.39-21.27 4.15 0 1.78 8.27 4.3 21.78 4.37 13.49.06 21.81-2.37 21.82-4.14 0-.72-1.6-1.92-6.12-2.9-4.17-.91-9.73-1.43-15.66-1.46h-.56l.01-.02Z" fill="#000"/><path d="m176.901 132.9.04 10.27c-.02 4.45-14.6 7.99-32.21 7.89-17.6-.09-31.57-3.77-31.54-8.22l-.04-10.32c-.02 1.31 1.23 2.56 3.43 3.67 5.27 2.65 15.99 4.49 28.4 4.56 12.27.06 22.93-1.64 28.27-4.18 2.29-1.09 3.61-2.34 3.64-3.67h.01Z" fill="#FFB972"/><path d="M145.43 151.569h-.69c-18.29-.1-32.07-3.85-32.04-8.72l-.04-10.24v-.08h1v.07c.02 1.04 1.11 2.14 3.16 3.16 5.41 2.71 16.21 4.44 28.18 4.5 11.78.06 22.58-1.52 28.05-4.14 2.17-1.03 3.33-2.15 3.36-3.23h1l.04 10.29c-.02 3.08-5.39 5.04-9.89 6.14-5.98 1.46-13.81 2.26-22.12 2.26l-.01-.01Zm-31.77-16.8.03 8.07c-.02 3.65 12.45 7.62 31.05 7.72 8.5.03 16.51-.75 22.57-2.23 5.71-1.39 9.12-3.33 9.13-5.17l-.03-8.12c-.66.7-1.64 1.36-2.94 1.97-5.6 2.67-16.52 4.27-28.49 4.23-12.12-.06-23.09-1.83-28.62-4.61-1.18-.59-2.08-1.22-2.7-1.87v.01Z" fill="#000"/><path d="m119.331 137.357-.143 10.469 1 .014.143-10.469-1-.014ZM128.839 139.932l-.141 10.349 1 .014.141-10.349-1-.014ZM140.092 140.694l-.141 10.319 1 .013.141-10.319-1-.013ZM151.353 140.661l-.135 9.909 1 .014.135-9.909-1-.014ZM162.811 139.144l-.14 10.309 1 .014.14-10.309-1-.014ZM173.041 136.57l-.14 10.249 1 .014.14-10.249-1-.014Z" fill="#000"/><path d="M173.32 115.4v.05c-.04 1.33-1.35 2.58-3.64 3.67-5.34 2.55-16 4.25-28.27 4.18-12.41-.07-23.15-1.91-28.4-4.56-2.2-1.11-3.45-2.36-3.43-3.67.02-4.45 14.31-7.99 31.92-7.91 17.6.08 31.86 3.77 31.83 8.23l-.01.01Z" fill="#FFB972"/><path d="M142.06 123.81h-.65c-12.14-.07-23.11-1.83-28.62-4.61-2.48-1.25-3.73-2.63-3.71-4.12.03-5.35 16.5-8.49 32.42-8.4 14.74.07 27.58 2.7 31.23 6.39.74.75 1.11 1.53 1.11 2.34v.05c-.04 1.52-1.37 2.9-3.93 4.12-5.5 2.62-16.12 4.23-27.84 4.23h-.01Zm-1.21-16.14c-18.42 0-30.75 3.8-30.77 7.41-.01 1.06 1.08 2.17 3.16 3.22 5.39 2.71 16.19 4.44 28.18 4.51h.65c11.57 0 22.03-1.57 27.4-4.14 2.17-1.03 3.33-2.15 3.36-3.23l.5-.04h-.5c0-.54-.27-1.09-.82-1.64-3.42-3.46-16.26-6.02-30.52-6.09h-.64Z" fill="#000"/><path d="M141.43 119.701c12.32.06 22.31-2.02 22.32-4.64.01-2.63-9.96-4.81-22.28-4.87-12.32-.06-22.31 2.02-22.32 4.64-.01 2.63 9.96 4.81 22.27 4.87h.01Z" fill="#FFB972"/><path d="M141.93 120.2h-.51c-11.05-.06-22.79-1.96-22.77-5.37.02-3.36 11.42-5.14 22.32-5.14h.51c5.99.03 11.62.56 15.86 1.49 4.59 1 6.92 2.31 6.91 3.89-.02 3.36-11.42 5.14-22.32 5.14v-.01Zm-.5-1h.56c13.18 0 21.26-2.39 21.27-4.15 0-.72-1.6-1.92-6.12-2.9-4.17-.91-9.73-1.43-15.66-1.46-13.53-.09-21.81 2.37-21.82 4.14 0 1.78 8.27 4.3 21.78 4.37h-.01Z" fill="#000"/><path d="m173.321 115.45.04 10.27c-.02 4.45-14.6 7.99-32.21 7.89-17.6-.09-31.57-3.77-31.54-8.22l-.04-10.32c-.02 1.31 1.23 2.56 3.43 3.67 5.27 2.65 15.99 4.49 28.4 4.56 12.27.06 22.93-1.64 28.27-4.18 2.29-1.09 3.61-2.34 3.64-3.67h.01Z" fill="#FFB972"/><path d="M141.84 134.12h-.69c-18.29-.1-32.07-3.85-32.04-8.72l-.04-10.24v-.08h1v.07c.02 1.04 1.11 2.14 3.16 3.16 5.41 2.71 16.21 4.44 28.18 4.5h.65c11.57 0 22.03-1.57 27.4-4.14 2.17-1.03 3.33-2.15 3.36-3.23h1l.04 10.29c-.02 3.08-5.39 5.04-9.89 6.14-5.98 1.46-13.82 2.26-22.13 2.26v-.01Zm-31.76-16.8.03 8.07c-.02 3.65 12.45 7.62 31.05 7.72 8.5.03 16.51-.75 22.57-2.23 5.71-1.39 9.12-3.33 9.13-5.17l-.03-8.12c-.66.7-1.64 1.36-2.94 1.97-5.6 2.67-16.51 4.29-28.49 4.23-12.12-.06-23.09-1.83-28.62-4.61-1.18-.59-2.08-1.22-2.7-1.87v.01Z" fill="#000"/><path d="m115.754 119.909-.143 10.469 1 .014.143-10.469-1-.014ZM125.262 122.484l-.141 10.339 1 .014.141-10.339-1-.014ZM136.505 123.236l-.141 10.319 1 .013.141-10.319-1-.013ZM147.766 123.224l-.135 9.909 1 .013.135-9.909-1-.013ZM159.224 121.697l-.14 10.309 1 .013.14-10.309-1-.013ZM169.464 119.122l-.14 10.249 1 .014.14-10.249-1-.014Z" fill="#000"/><path d="M179.939 99.94v.05c-.04 1.33-1.35 2.58-3.64 3.67-5.34 2.55-16 4.25-28.27 4.18-12.41-.07-23.15-1.91-28.4-4.56-2.2-1.11-3.45-2.36-3.43-3.67.02-4.45 14.31-7.99 31.92-7.91 17.6.08 31.86 3.77 31.84 8.23l-.02.01Z" fill="#FFB972"/><path d="M148.67 108.35h-.65c-12.14-.07-23.11-1.83-28.62-4.61-2.48-1.25-3.73-2.63-3.71-4.12.03-5.29 16.11-8.4 31.85-8.4h.57c8.55.04 16.6.93 22.65 2.49 4.43 1.15 9.7 3.16 9.68 6.24v.06c-.04 1.51-1.37 2.89-3.93 4.11-5.5 2.62-16.12 4.24-27.84 4.24v-.01Zm-1.22-16.14c-18.41 0-30.75 3.8-30.77 7.41-.01 1.06 1.08 2.18 3.16 3.22 5.39 2.71 16.19 4.44 28.18 4.51h.65c11.57 0 22.03-1.57 27.4-4.14 2.17-1.03 3.33-2.15 3.36-3.23l.5-.04h-.5c0-1.85-3.33-3.82-8.93-5.27-5.98-1.55-13.93-2.42-22.4-2.46h-.65Z" fill="#000"/><path d="M148.041 104.24c12.32.06 22.31-2.02 22.32-4.64.01-2.63-9.96-4.81-22.27-4.87-12.32-.06-22.31 2.02-22.32 4.64-.01 2.63 9.96 4.81 22.28 4.87h-.01Z" fill="#FFB972"/><path d="M148.6 104.74h-.55c-5.99-.03-11.62-.56-15.86-1.48-4.59-1-6.92-2.31-6.91-3.89 0-1.58 2.34-2.86 6.95-3.82 4.25-.88 9.88-1.36 15.88-1.32 5.99.03 11.62.56 15.87 1.48 4.59 1 6.92 2.31 6.91 3.89-.01 1.58-2.34 2.86-6.95 3.82-4.12.86-9.54 1.32-15.33 1.32h-.01Zm-1.05-9.51c-5.72 0-11.07.46-15.12 1.3-4.53.94-6.15 2.12-6.15 2.84 0 .72 1.6 1.92 6.12 2.9 4.17.91 9.73 1.43 15.66 1.46 5.9.04 11.49-.43 15.67-1.3 4.53-.94 6.15-2.12 6.15-2.84 0-.72-1.6-1.92-6.12-2.9-4.17-.91-9.73-1.43-15.66-1.46h-.55Z" fill="#000"/><path d="m179.93 99.99.04 10.27c-.02 4.45-14.6 7.99-32.21 7.89-17.61-.1-31.57-3.77-31.54-8.22l-.04-10.32c-.02 1.31 1.23 2.56 3.43 3.67 5.27 2.64 16 4.49 28.4 4.56 12.27.06 22.93-1.64 28.27-4.18 2.29-1.09 3.61-2.34 3.64-3.67h.01Z" fill="#FFB972"/><path d="M148.45 118.66h-.69c-18.29-.1-32.07-3.85-32.04-8.72l-.04-10.24v-.09h1v.07c.03 1.04 1.12 2.13 3.16 3.16 5.41 2.71 16.21 4.44 28.18 4.5h.65c11.57 0 22.03-1.57 27.4-4.14 2.17-1.03 3.33-2.15 3.36-3.23h1l.04 10.29c-.02 3.08-5.39 5.04-9.89 6.14-5.98 1.46-13.82 2.26-22.13 2.26Zm-31.76-16.8.03 8.07c-.02 3.65 12.45 7.62 31.05 7.72 8.5.04 16.51-.75 22.57-2.23 5.71-1.39 9.12-3.33 9.13-5.17l-.03-8.12c-.66.7-1.64 1.36-2.94 1.97-5.6 2.67-16.51 4.27-28.49 4.23-12.12-.06-23.09-1.83-28.62-4.61-1.18-.59-2.08-1.22-2.7-1.87v.01Z" fill="#000"/><path d="m122.365 104.45-.142 10.469 1 .014.142-10.469-1-.014ZM131.873 107.035l-.141 10.339 1 .014.141-10.339-1-.014ZM143.116 107.776l-.14 10.319.999.013.141-10.319-1-.013ZM154.387 107.754l-.135 9.909 1 .014.135-9.909-1-.014ZM165.836 106.237l-.141 10.309 1 .014.141-10.31-1-.013ZM176.085 103.662l-.14 10.249 1 .014.14-10.249-1-.014Z" fill="#000"/><path d="M125.92 132.52v.05c-.04 1.33-1.35 2.58-3.64 3.67-5.34 2.55-16 4.25-28.27 4.18-12.41-.07-23.15-1.91-28.4-4.56-2.2-1.11-3.45-2.36-3.43-3.67.02-4.45 14.31-7.99 31.92-7.91 17.6.08 31.86 3.77 31.83 8.23l-.01.01Z" fill="#FFB972"/><path d="M94.66 140.92h-.65c-12.14-.07-23.11-1.83-28.63-4.61-2.48-1.25-3.73-2.63-3.71-4.12.03-5.35 16.49-8.49 32.42-8.4 14.73.07 27.57 2.7 31.23 6.39.74.75 1.11 1.54 1.11 2.35v.06c-.04 1.51-1.36 2.89-3.93 4.11-5.5 2.62-16.12 4.24-27.84 4.24v-.02Zm-1.21-16.14c-18.42 0-30.76 3.8-30.77 7.41-.01 1.06 1.08 2.17 3.16 3.22 5.39 2.71 16.19 4.44 28.18 4.51 11.82.07 22.58-1.52 28.05-4.14 2.17-1.03 3.33-2.15 3.36-3.23l.5-.04h-.5c0-.54-.27-1.09-.82-1.64-3.42-3.46-16.26-6.02-30.52-6.09h-.64Z" fill="#000"/><path d="M94.03 136.82c12.32.06 22.31-2.02 22.32-4.64.01-2.63-9.96-4.81-22.27-4.87-12.32-.06-22.31 2.02-22.32 4.64-.01 2.63 9.96 4.81 22.27 4.87Z" fill="#FFB972"/><path d="M94.58 137.32h-.55c-11.05-.06-22.79-1.96-22.77-5.37 0-1.58 2.35-2.86 6.95-3.82 4.25-.88 9.89-1.35 15.88-1.32 5.99.03 11.62.56 15.86 1.49 4.59 1 6.92 2.31 6.91 3.89-.01 1.58-2.34 2.86-6.95 3.82-4.12.86-9.54 1.32-15.32 1.32l-.01-.01Zm-1.05-9.51c-5.72 0-11.07.46-15.13 1.3-4.53.94-6.15 2.12-6.15 2.84 0 1.78 8.27 4.3 21.78 4.37 5.93.03 11.49-.43 15.67-1.3 4.53-.94 6.15-2.12 6.15-2.84 0-.72-1.6-1.92-6.12-2.91-4.17-.91-9.73-1.43-15.66-1.46h-.54Z" fill="#000"/><path d="m125.92 132.57.04 10.27c-.02 4.45-14.6 7.99-32.21 7.89-17.6-.09-31.57-3.77-31.54-8.22l-.04-10.32c-.02 1.31 1.23 2.56 3.43 3.67 5.27 2.64 15.99 4.49 28.4 4.56 12.27.06 22.93-1.64 28.27-4.18 2.29-1.09 3.61-2.34 3.64-3.67h.01Z" fill="#FFB972"/><path d="M94.45 151.24h-.7c-18.29-.1-32.07-3.85-32.04-8.72l-.04-10.24v-.08h1v.07c.02 1.04 1.11 2.13 3.16 3.16 5.41 2.71 16.21 4.44 28.18 4.5 11.82.05 22.58-1.52 28.05-4.14 2.17-1.03 3.33-2.15 3.36-3.23h1l.04 10.29c-.01 3.08-5.39 5.04-9.89 6.14-5.98 1.46-13.81 2.26-22.12 2.26v-.01Zm-31.77-16.8.03 8.07c-.02 3.65 12.45 7.62 31.05 7.72 8.51.04 16.51-.75 22.58-2.23 5.71-1.39 9.12-3.33 9.13-5.17l-.03-8.12c-.66.7-1.64 1.36-2.94 1.97-5.6 2.67-16.5 4.29-28.49 4.23-12.12-.06-23.09-1.83-28.62-4.61-1.18-.59-2.08-1.22-2.7-1.87l-.01.01Z" fill="#000"/><path d="m68.347 137.018-.143 10.469 1 .014.143-10.469-1-.014ZM77.855 139.593l-.141 10.349 1 .014.14-10.349-1-.014ZM89.108 140.354l-.14 10.319 1 .013.14-10.319-1-.013ZM100.379 140.322l-.135 9.909 1 .014.135-9.909-1-.014ZM111.828 138.815l-.14 10.309.999.014.141-10.309-1-.014ZM122.077 136.23l-.139 10.249.999.014.14-10.249-1-.014Z" fill="#000"/><path d="M134.42 115.52v.05c-.04 1.33-1.35 2.58-3.64 3.67-5.34 2.55-16 4.25-28.27 4.18-12.41-.07-23.15-1.91-28.4-4.56-2.2-1.11-3.45-2.35-3.43-3.67.02-4.45 14.31-7.99 31.92-7.91 17.6.08 31.86 3.77 31.83 8.23l-.01.01Z" fill="#FFB972"/><path d="M103.16 123.92h-.65c-12.14-.07-23.11-1.83-28.63-4.61-2.48-1.25-3.73-2.63-3.71-4.12.03-5.35 16.51-8.46 32.42-8.4 8.55.04 16.6.93 22.65 2.49 4.43 1.14 9.7 3.16 9.68 6.24v.06c-.04 1.51-1.37 2.89-3.93 4.11-5.5 2.62-16.12 4.24-27.84 4.24l.01-.01Zm-1.21-16.14c-18.42 0-30.76 3.8-30.77 7.41-.01 1.06 1.08 2.17 3.16 3.22 5.39 2.71 16.19 4.44 28.18 4.51h.65c11.57 0 22.03-1.57 27.4-4.14 2.17-1.03 3.33-2.15 3.36-3.23l.5-.04h-.5c.01-1.85-3.33-3.82-8.93-5.27-5.98-1.54-13.93-2.42-22.4-2.46h-.65Z" fill="#000"/><path d="M102.53 119.82c12.32.06 22.31-2.02 22.32-4.64.01-2.63-9.96-4.81-22.27-4.87-12.32-.06-22.31 2.02-22.32 4.64-.01 2.63 9.96 4.81 22.27 4.87Z" fill="#FFB972"/><path d="M103.04 120.32h-.51c-11.05-.06-22.79-1.96-22.77-5.37.02-3.36 11.42-5.14 22.32-5.14h.51c11.05.06 22.79 1.96 22.77 5.37-.02 3.36-11.41 5.14-22.31 5.14h-.01Zm-1.02-9.51c-13.18 0-21.26 2.39-21.26 4.15 0 1.78 8.27 4.3 21.78 4.37 13.5.08 21.81-2.37 21.82-4.14 0-1.78-8.27-4.3-21.78-4.37h-.56v-.01Z" fill="#000"/><path d="m134.42 115.57.04 10.27c-.02 4.45-14.6 7.99-32.21 7.89-17.6-.09-31.57-3.77-31.54-8.22l-.04-10.32c-.02 1.31 1.23 2.56 3.43 3.67 5.27 2.64 15.99 4.49 28.4 4.56 12.27.06 22.93-1.64 28.27-4.18 2.29-1.09 3.6-2.34 3.64-3.67h.01Z" fill="#FFB972"/><path d="M102.94 134.24h-.69c-18.29-.1-32.07-3.85-32.04-8.72l-.04-10.24v-.08h1v.07c.02 1.04 1.11 2.13 3.16 3.16 5.41 2.71 16.21 4.44 28.18 4.5 11.85.06 22.58-1.52 28.05-4.14 2.17-1.03 3.33-2.15 3.36-3.23h1l.04 10.29c-.02 3.08-5.39 5.04-9.89 6.14-5.98 1.46-13.82 2.26-22.13 2.26v-.01Zm-31.76-16.8.03 8.07c-.02 3.65 12.45 7.62 31.05 7.72 8.5.04 16.51-.75 22.58-2.23 5.71-1.39 9.12-3.33 9.13-5.17l-.03-8.12c-.66.7-1.64 1.36-2.94 1.97-5.6 2.67-16.51 4.28-28.49 4.23-12.12-.06-23.09-1.83-28.62-4.61-1.18-.59-2.08-1.22-2.7-1.87l-.01.01Z" fill="#000"/><path d="m76.854 120.027-.142 10.469 1 .014.142-10.469-1-.014ZM86.353 122.602l-.141 10.339 1 .014.14-10.339-1-.014ZM97.615 123.354l-.14 10.319 1 .013.14-10.319-1-.013ZM108.876 123.331l-.135 9.909 1 .014.135-9.909-1-.014ZM120.335 121.815l-.141 10.309 1 .014.141-10.309-1-.014ZM130.574 119.23l-.139 10.249.999.014.14-10.249-1-.014Z" fill="#000"/></g><defs><clipPath id="a"><path fill="#fff" d="M20 49h160.48v102.57H20z"/></clipPath></defs></svg>