<svg width="200" height="200" viewBox="0 0 200 200" fill="none" xmlns="http://www.w3.org/2000/svg"><g clip-path="url(#a)"><path d="m95.25 56.26-3.529 101.058a6.31 6.31 0 0 0 6.086 6.526l71.417 2.494a6.31 6.31 0 0 0 6.526-6.086l3.529-101.058a6.31 6.31 0 0 0-6.086-6.527l-71.416-2.494a6.31 6.31 0 0 0-6.527 6.087Z" fill="#E0D8D4"/><path d="M169.46 166.84h-.24l-71.43-2.49a6.74 6.74 0 0 1-4.74-2.16 6.727 6.727 0 0 1-1.82-4.88l3.53-101.07c.06-1.82.83-3.5 2.16-4.74a6.785 6.785 0 0 1 4.88-1.82l71.43 2.49c1.82.06 3.5.83 4.74 2.16a6.727 6.727 0 0 1 1.82 4.88l-3.53 101.07a6.74 6.74 0 0 1-2.16 4.74 6.785 6.785 0 0 1-4.64 1.83v-.01ZM101.55 50.67c-1.47 0-2.87.55-3.95 1.56a5.761 5.761 0 0 0-1.84 4.04l-3.53 101.07c-.05 1.55.5 3.03 1.56 4.16a5.761 5.761 0 0 0 4.04 1.84l71.43 2.49c1.54.06 3.03-.5 4.16-1.56a5.761 5.761 0 0 0 1.84-4.04l3.53-101.07c.05-1.55-.5-3.03-1.56-4.16a5.761 5.761 0 0 0-4.04-1.84l-71.43-2.49h-.21Z" fill="#000"/><path d="M164.43 44.58H92.97a6.31 6.31 0 0 0-6.31 6.31v101.12a6.31 6.31 0 0 0 6.31 6.31h71.46a6.31 6.31 0 0 0 6.31-6.31V50.89a6.31 6.31 0 0 0-6.31-6.31Z" fill="#fff"/><path d="M164.44 158.82H92.97c-3.75 0-6.81-3.05-6.81-6.81V50.88c0-3.75 3.05-6.81 6.81-6.81h71.47c3.75 0 6.81 3.05 6.81 6.81v101.13c0 3.75-3.05 6.81-6.81 6.81ZM92.97 45.08c-3.2 0-5.81 2.6-5.81 5.81v101.13c0 3.2 2.6 5.81 5.81 5.81h71.47c3.2 0 5.81-2.6 5.81-5.81V50.88c0-3.2-2.6-5.81-5.81-5.81H92.97v.01Z" fill="#000"/><path d="M148.21 82.5c0-3.76 3.05-6.81 6.81-6.81h15.23v75.79h-22.04V82.5Z" fill="#D7E8EF"/><path d="M140.18 86.64H98.11c-.28 0-.5-.22-.5-.5s.22-.5.5-.5h42.07c.28 0 .5.22.5.5s-.22.5-.5.5ZM163.15 86.64h-9.09c-.28 0-.5-.22-.5-.5s.22-.5.5-.5h9.09c.28 0 .5.22.5.5s-.22.5-.5.5Z" fill="#000"/><path d="M137.09 64.85H100.6c-.28 0-.5-.22-.5-.5s.22-.5.5-.5h36.49c.28 0 .5.22.5.5s-.22.5-.5.5Z" fill="#4B8151"/><path d="M140.18 96.85H98.11c-.28 0-.5-.22-.5-.5s.22-.5.5-.5h42.07c.28 0 .5.22.5.5s-.22.5-.5.5ZM163.15 96.85h-9.09c-.28 0-.5-.22-.5-.5s.22-.5.5-.5h9.09c.28 0 .5.22.5.5s-.22.5-.5.5ZM140.18 107.06H98.11c-.28 0-.5-.22-.5-.5s.22-.5.5-.5h42.07c.28 0 .5.22.5.5s-.22.5-.5.5ZM140.18 117.27H98.11c-.28 0-.5-.22-.5-.5s.22-.5.5-.5h42.07c.28 0 .5.22.5.5s-.22.5-.5.5ZM140.18 127.11H98.11c-.28 0-.5-.22-.5-.5s.22-.5.5-.5h42.07c.28 0 .5.22.5.5s-.22.5-.5.5ZM140.18 137.32H98.11c-.28 0-.5-.22-.5-.5s.22-.5.5-.5h42.07c.28 0 .5.22.5.5s-.22.5-.5.5ZM163.15 107.06h-9.09c-.28 0-.5-.22-.5-.5s.22-.5.5-.5h9.09c.28 0 .5.22.5.5s-.22.5-.5.5ZM163.15 117.27h-9.09c-.28 0-.5-.22-.5-.5s.22-.5.5-.5h9.09c.28 0 .5.22.5.5s-.22.5-.5.5ZM163.15 127.11h-9.09c-.28 0-.5-.22-.5-.5s.22-.5.5-.5h9.09c.28 0 .5.22.5.5s-.22.5-.5.5ZM69.68 38.33l38.171 15.12-25.84 65.25-38.17-15.12 25.84-65.25Z" fill="#000"/><path d="m82.29 119.35-39.1-15.49L69.4 37.68l39.1 15.49-.18.46-26.03 65.71v.01Zm-37.8-16.05 37.24 14.75 25.47-64.32-37.24-14.75-25.47 64.32Z" fill="#000"/><path d="m51.85 95.91 18.42-46.5c1.44.57 3.05.55 4.48-.07a5.878 5.878 0 0 0 3.12-3.21l18.7 7.41a5.82 5.82 0 0 0 .07 4.47 5.91 5.91 0 0 0 3.21 3.12l-18.42 46.5a5.93 5.93 0 0 0-2.24-.41c-.77.01-1.53.17-2.23.48-.7.3-1.34.74-1.88 1.29-.54.55-.95 1.2-1.24 1.91l-18.7-7.41c.57-1.44.54-3.05-.07-4.47a5.846 5.846 0 0 0-3.22-3.11Z" fill="#000"/><path d="m74.12 111.55-19.63-7.77.18-.46c.52-1.33.5-2.78-.07-4.09a5.336 5.336 0 0 0-2.94-2.85l-.46-.18 18.79-47.44.46.18c1.33.53 2.78.5 4.09-.06a5.318 5.318 0 0 0 2.85-2.93l.18-.46 19.63 7.77-.18.46a5.32 5.32 0 0 0 .06 4.09 5.336 5.336 0 0 0 2.94 2.85l.46.18-18.78 47.43-.46-.18c-.66-.26-1.36-.38-2.05-.38-.7.01-1.39.16-2.04.44-.65.28-1.22.68-1.72 1.18a5.32 5.32 0 0 0-1.13 1.75l-.18.46v.01Zm-18.35-8.34 17.81 7.05c.29-.6.67-1.14 1.14-1.62.58-.6 1.27-1.07 2.04-1.41.77-.33 1.58-.51 2.42-.52.68 0 1.33.08 1.96.28l18.06-45.6a6.302 6.302 0 0 1-3.03-3.18c-.61-1.4-.69-2.94-.24-4.38l-17.81-7.05a6.302 6.302 0 0 1-3.18 3.03c-1.4.6-2.94.69-4.39.24L52.49 95.66c1.36.66 2.42 1.78 3.03 3.18.61 1.4.69 2.94.25 4.38v-.01Z" fill="#FFF5EE"/><path d="m46.56 35.55 40.8 4.51-7.66 69.76-40.8-4.51 7.66-69.76Z" fill="#000"/><path d="m80.14 110.37-41.8-4.62L46.12 35l41.8 4.62-7.77 70.76-.01-.01Zm-40.69-5.5 39.81 4.4 7.55-68.77L47 36.1l-7.55 68.77Z" fill="#000"/><path d="m44.6 95.8 5.45-49.72c1.54.17 3.09-.28 4.3-1.25a5.801 5.801 0 0 0 2.15-3.92l19.97 2.21a5.855 5.855 0 0 0 5.18 6.46L76.2 99.3c-1.54-.17-3.09.28-4.3 1.249a5.801 5.801 0 0 0-2.15 3.92l-19.97-2.21c.17-1.54-.28-3.09-1.26-4.3a5.853 5.853 0 0 0-3.92-2.16Z" fill="#000"/><path d="m70.19 105.01-20.96-2.32.05-.5c.15-1.42-.25-2.81-1.15-3.93a5.342 5.342 0 0 0-3.59-1.97l-.5-.06 5.55-50.71.5.05a5.347 5.347 0 0 0 5.9-4.72l.05-.5L77 42.67l-.05.5a5.28 5.28 0 0 0 1.15 3.93c.9 1.11 2.17 1.81 3.59 1.97l.5.05-5.55 50.71-.5-.05c-1.42-.16-2.82.25-3.93 1.14a5.342 5.342 0 0 0-1.97 3.59l-.05.5Zm-19.88-3.2 19.01 2.1a6.29 6.29 0 0 1 2.26-3.76 6.294 6.294 0 0 1 4.17-1.39L81.09 50a6.28 6.28 0 0 1-3.77-2.27 6.34 6.34 0 0 1-1.4-4.17l-19.01-2.1a6.29 6.29 0 0 1-2.26 3.76 6.296 6.296 0 0 1-4.17 1.39l-5.34 48.76a6.28 6.28 0 0 1 3.77 2.27 6.315 6.315 0 0 1 1.4 4.16v.01Z" fill="#FFF5EE"/><path d="m47.92 66.46 44.82 17.75c4.42 1.75 6.59 6.75 4.84 11.16l-14.65 36.98c-1.75 4.42-6.75 6.57-11.17 4.82l-44.82-17.74c-4.42-1.75-6.59-6.75-4.84-11.16l14.65-36.98a8.59 8.59 0 0 1 11.17-4.82v-.01Z" fill="#000"/><path d="M74.93 138.29c-1.11 0-2.25-.21-3.35-.64L26.76 119.9c-4.67-1.85-6.97-7.15-5.12-11.81l14.65-36.98c.9-2.26 2.62-4.04 4.85-5 2.23-.96 4.71-1 6.97-.11l44.82 17.75c2.26.9 4.04 2.62 5.01 4.85.97 2.23 1.01 4.7.11 6.96L83.4 132.54c-1.41 3.57-4.85 5.75-8.47 5.75ZM44.75 66.35c-1.09 0-2.18.22-3.21.67a8.058 8.058 0 0 0-4.32 4.45l-14.65 36.98c-1.64 4.15.4 8.87 4.56 10.52l44.82 17.75c4.16 1.64 8.88-.39 10.52-4.54L97.12 95.2c.8-2.01.76-4.21-.1-6.2a8.045 8.045 0 0 0-4.46-4.32L47.74 66.93c-.97-.38-1.98-.57-2.99-.57v-.01Z" fill="#000"/><path d="m46.81 88.14-16.1-6.38c-.8-.32-1.68-.3-2.47.04-.79.34-1.4.98-1.72 1.77l-2.33 5.89c-.31.79-.3 1.66.04 2.44.34.78.97 1.39 1.75 1.7l16.14 6.39c1.45.57 3.07.55 4.5-.07a5.866 5.866 0 0 0 3.13-3.23l.36-.91c.29-.72.43-1.49.41-2.26-.01-.77-.18-1.54-.48-2.24-.31-.71-.75-1.35-1.31-1.89-.56-.54-1.21-.96-1.93-1.25h.01Z" fill="#000"/><path d="M44.29 100.91c-.8 0-1.59-.15-2.36-.45l-16.14-6.39a3.65 3.65 0 0 1-2.03-1.96 3.63 3.63 0 0 1-.04-2.82l2.33-5.89c.37-.92 1.07-1.65 1.98-2.05.91-.39 1.93-.41 2.85-.04l16.1 6.38c.78.31 1.49.77 2.09 1.35a6.45 6.45 0 0 1 1.42 2.05 6.414 6.414 0 0 1 .07 4.89l-.36.91a6.359 6.359 0 0 1-3.4 3.51c-.81.35-1.67.53-2.53.53l.02-.02ZM29.52 82.04c-.37 0-.73.08-1.08.23-.67.29-1.18.82-1.45 1.5l-2.33 5.89c-.26.67-.25 1.4.03 2.05.29.66.81 1.17 1.48 1.43l16.14 6.39c1.34.53 2.8.51 4.12-.06a5.343 5.343 0 0 0 2.87-2.96l.36-.91c.26-.66.39-1.36.38-2.07a5.35 5.35 0 0 0-1.64-3.78 5.33 5.33 0 0 0-1.77-1.14l-16.1-6.38a2.74 2.74 0 0 0-1.01-.19Z" fill="#000"/><path d="m25.44 99.47 2-5 15 5.5-17-.5ZM41.11 96.49a3.57 3.57 0 0 1-2.01-4.64c.73-1.84 2.8-2.73 4.64-2a3.57 3.57 0 0 1 2.01 4.64 3.565 3.565 0 0 1-4.64 2Z" fill="#000"/><path d="M42.43 97.24c-.51 0-1.02-.1-1.5-.29a4.08 4.08 0 0 1-2.29-5.29c.83-2.09 3.2-3.11 5.29-2.29a4.08 4.08 0 0 1 2.29 5.29 4.042 4.042 0 0 1-2.17 2.24c-.52.22-1.07.34-1.62.34Zm-1.13-1.22c.76.3 1.6.29 2.35-.04.75-.33 1.33-.92 1.64-1.69.62-1.57-.15-3.36-1.73-3.99-1.58-.63-3.37.15-3.99 1.72-.62 1.57.15 3.36 1.73 3.99v.01Z" fill="#000"/><path d="m69.68 36.33 38.171 15.12-25.84 65.25-38.17-15.12 25.84-65.25Z" fill="#6E7B35"/><path d="m82.29 117.35-39.1-15.49L69.4 35.68l39.1 15.49-.18.46-26.03 65.71v.01Zm-37.8-16.05 37.24 14.75 25.47-64.32-37.24-14.75-25.47 64.32Z" fill="#000"/><path d="m51.85 93.91 18.42-46.5c1.44.57 3.05.55 4.48-.07a5.878 5.878 0 0 0 3.12-3.21l18.7 7.41a5.82 5.82 0 0 0 .07 4.47 5.91 5.91 0 0 0 3.21 3.12l-18.42 46.5a5.93 5.93 0 0 0-2.24-.41c-.77.01-1.53.17-2.23.48-.7.3-1.34.74-1.88 1.29-.54.55-.95 1.2-1.24 1.91l-18.7-7.41c.57-1.44.54-3.05-.07-4.47a5.846 5.846 0 0 0-3.22-3.11Z" fill="#6E7B35"/><path d="m74.12 109.55-19.63-7.77.18-.46c.52-1.33.5-2.78-.07-4.09a5.336 5.336 0 0 0-2.94-2.85l-.46-.18 18.79-47.44.46.18c1.33.53 2.78.5 4.09-.06a5.318 5.318 0 0 0 2.85-2.93l.18-.46 19.63 7.77-.18.46a5.32 5.32 0 0 0 .06 4.09 5.336 5.336 0 0 0 2.94 2.85l.46.18-18.78 47.43-.46-.18c-.66-.26-1.36-.38-2.05-.38-.7.01-1.39.16-2.04.44-.65.28-1.22.68-1.72 1.18a5.32 5.32 0 0 0-1.13 1.75l-.18.46v.01Zm-18.35-8.34 17.81 7.05c.29-.6.67-1.14 1.14-1.62.58-.6 1.27-1.07 2.04-1.41.77-.33 1.58-.51 2.42-.52.68 0 1.33.08 1.96.28l18.06-45.6a6.302 6.302 0 0 1-3.03-3.18c-.61-1.4-.69-2.94-.24-4.38l-17.81-7.05a6.302 6.302 0 0 1-3.18 3.03c-1.4.6-2.94.69-4.39.24L52.49 93.66c1.36.66 2.42 1.78 3.03 3.18.61 1.4.69 2.94.25 4.38v-.01Z" fill="#FFF5EE"/><path d="m46.56 33.55 40.8 4.51-7.66 69.76-40.8-4.51 7.66-69.76Z" fill="#6E7B35"/><path d="m80.14 108.37-41.8-4.62L46.12 33l41.8 4.62-7.77 70.76-.01-.01Zm-40.69-5.5 39.81 4.4 7.55-68.77L47 34.1l-7.55 68.77Z" fill="#000"/><path d="m44.6 93.8 5.45-49.72c1.54.17 3.09-.28 4.3-1.25a5.801 5.801 0 0 0 2.15-3.92l19.97 2.21a5.855 5.855 0 0 0 5.18 6.46L76.2 97.3c-1.54-.17-3.09.28-4.3 1.25a5.8 5.8 0 0 0-2.15 3.919l-19.97-2.21c.17-1.54-.28-3.09-1.26-4.3a5.853 5.853 0 0 0-3.92-2.16Z" fill="#6E7B35"/><path d="m70.19 103.01-20.96-2.32.05-.5c.15-1.42-.25-2.81-1.15-3.93a5.342 5.342 0 0 0-3.59-1.97l-.5-.06 5.55-50.71.5.05a5.347 5.347 0 0 0 5.9-4.72l.05-.5L77 40.67l-.05.5a5.28 5.28 0 0 0 1.15 3.93c.9 1.11 2.17 1.81 3.59 1.97l.5.05-5.55 50.71-.5-.05c-1.42-.16-2.82.25-3.93 1.14a5.343 5.343 0 0 0-1.97 3.58l-.05.5v.01Zm-19.88-3.2 19.01 2.1a6.29 6.29 0 0 1 2.26-3.76 6.296 6.296 0 0 1 4.17-1.39L81.09 48a6.28 6.28 0 0 1-3.77-2.27 6.34 6.34 0 0 1-1.4-4.17l-19.01-2.1a6.29 6.29 0 0 1-2.26 3.76 6.35 6.35 0 0 1-4.17 1.39l-5.34 48.76a6.28 6.28 0 0 1 3.77 2.27 6.314 6.314 0 0 1 1.4 4.16v.01Z" fill="#FFF5EE"/><path d="m47.92 64.46 44.82 17.75c4.42 1.75 6.59 6.75 4.84 11.16l-14.65 36.98c-1.75 4.42-6.75 6.58-11.17 4.83l-44.82-17.75c-4.42-1.75-6.59-6.75-4.84-11.16l14.65-36.98a8.59 8.59 0 0 1 11.17-4.82v-.01Z" fill="#BCA89B"/><path d="M74.93 136.29c-1.11 0-2.25-.21-3.35-.64L26.76 117.9c-4.67-1.85-6.97-7.15-5.12-11.81l14.65-36.98c.9-2.26 2.62-4.04 4.85-5 2.23-.97 4.71-1 6.97-.11l44.82 17.75c2.26.9 4.04 2.62 5.01 4.85.97 2.23 1.01 4.7.11 6.96L83.4 130.54c-1.41 3.57-4.85 5.75-8.47 5.75ZM44.75 64.35c-1.09 0-2.18.22-3.21.67a8.058 8.058 0 0 0-4.32 4.45l-14.65 36.98c-1.64 4.15.4 8.87 4.56 10.52l44.82 17.75c4.16 1.64 8.88-.39 10.52-4.54L97.12 93.2c.8-2.01.76-4.21-.1-6.2a8.045 8.045 0 0 0-4.46-4.32L47.74 64.93c-.97-.38-1.98-.57-2.99-.57v-.01Z" fill="#000"/><path d="m46.81 86.14-16.1-6.38c-.8-.32-1.68-.3-2.47.04-.79.34-1.4.98-1.72 1.77l-2.33 5.89c-.31.79-.3 1.66.04 2.44.34.78.97 1.39 1.75 1.7l16.14 6.39c1.45.57 3.07.55 4.5-.07a5.866 5.866 0 0 0 3.13-3.23l.36-.91c.29-.72.43-1.49.41-2.26-.01-.77-.18-1.54-.48-2.24-.31-.71-.75-1.35-1.31-1.89-.56-.54-1.21-.96-1.93-1.25h.01Z" fill="#BCA89B"/><path d="M44.29 98.91c-.8 0-1.59-.15-2.36-.45l-16.14-6.39a3.65 3.65 0 0 1-2.03-1.96 3.63 3.63 0 0 1-.04-2.82l2.33-5.89c.37-.92 1.07-1.65 1.98-2.05.91-.39 1.93-.41 2.85-.04l16.1 6.38c.78.31 1.49.77 2.09 1.35a6.45 6.45 0 0 1 1.42 2.05 6.414 6.414 0 0 1 .07 4.89l-.36.91a6.36 6.36 0 0 1-3.4 3.51c-.81.35-1.67.53-2.53.53l.02-.02ZM29.52 80.04c-.37 0-.73.08-1.08.23-.67.29-1.18.82-1.45 1.5l-2.33 5.89c-.26.67-.25 1.4.03 2.05.29.66.81 1.17 1.48 1.43l16.14 6.39c1.34.53 2.8.51 4.12-.06a5.343 5.343 0 0 0 2.87-2.96l.36-.91c.26-.66.39-1.36.38-2.07a5.35 5.35 0 0 0-1.64-3.78 5.33 5.33 0 0 0-1.77-1.14l-16.1-6.38a2.74 2.74 0 0 0-1.01-.19Z" fill="#000"/><path d="m25.44 97.47 2-5 15 5.5-17-.5Z" fill="#000"/><path d="M41.11 94.49a3.57 3.57 0 0 1-2.01-4.64c.73-1.84 2.8-2.73 4.64-2a3.57 3.57 0 0 1 2.01 4.64 3.573 3.573 0 0 1-4.64 2Z" fill="#F5EEE8"/><path d="M42.43 95.24c-.51 0-1.02-.1-1.5-.29a4.08 4.08 0 0 1-2.29-5.29c.83-2.09 3.2-3.11 5.29-2.29a4.08 4.08 0 0 1 2.29 5.29 4.042 4.042 0 0 1-2.17 2.24c-.52.22-1.07.34-1.62.34Zm-1.13-1.22c.76.3 1.6.29 2.35-.04.75-.33 1.33-.92 1.64-1.69.62-1.57-.15-3.36-1.73-3.99-1.58-.63-3.37.15-3.99 1.72-.62 1.57.15 3.36 1.73 3.99v.01ZM97.23 103.858l-35.419 20.211a5.19 5.19 0 0 0-1.935 7.08l13.208 23.147a5.19 5.19 0 0 0 7.08 1.936l35.419-20.211a5.19 5.19 0 0 0 1.936-7.08l-13.208-23.147a5.19 5.19 0 0 0-7.08-1.936Z" fill="#000"/><path d="M77.61 157.41c-.5 0-1.01-.07-1.51-.2a5.63 5.63 0 0 1-3.44-2.67l-13.2-23.14a5.693 5.693 0 0 1-.55-4.33 5.63 5.63 0 0 1 2.67-3.44l35.41-20.21c2.73-1.55 6.21-.6 7.77 2.12l13.2 23.14c.75 1.32.95 2.86.55 4.33a5.63 5.63 0 0 1-2.67 3.44l-35.41 20.21c-.87.5-1.84.75-2.81.75h-.01Zm22.19-53.74c-.79 0-1.59.2-2.32.62L62.07 124.5a4.652 4.652 0 0 0-2.2 2.84c-.33 1.21-.17 2.48.45 3.56l13.2 23.14a4.652 4.652 0 0 0 2.84 2.2c1.21.33 2.48.17 3.56-.45l35.41-20.21a4.697 4.697 0 0 0 1.75-6.4l-13.2-23.14a4.685 4.685 0 0 0-4.09-2.37h.01Z" fill="#000"/><path d="m106.24 108.158-45.303 25.851 2.423 4.247 45.303-25.851-2.423-4.247ZM89.843 141.904 78.986 148.1l.808 1.415 10.857-6.195-.808-1.416ZM101.171 135.438l-10.857 6.195.808 1.416 10.857-6.196-.808-1.415ZM112.492 128.977l-10.857 6.195.808 1.416 10.856-6.196-.807-1.415Z" fill="#000"/><path d="m97.24 101.861-35.42 20.211a5.19 5.19 0 0 0-1.935 7.08l13.208 23.147a5.19 5.19 0 0 0 7.08 1.936l35.419-20.211a5.19 5.19 0 0 0 1.935-7.08l-13.208-23.147a5.19 5.19 0 0 0-7.08-1.936Z" fill="#FF6842"/><path d="M77.61 155.41c-.5 0-1.01-.07-1.51-.2a5.63 5.63 0 0 1-3.44-2.67l-13.2-23.14a5.693 5.693 0 0 1-.55-4.33 5.63 5.63 0 0 1 2.67-3.44l35.41-20.2c2.73-1.56 6.21-.6 7.77 2.12l13.2 23.14c.75 1.32.95 2.86.55 4.33a5.63 5.63 0 0 1-2.67 3.44l-35.41 20.21c-.87.5-1.84.75-2.81.75l-.01-.01Zm22.19-53.74c-.79 0-1.59.2-2.32.62L62.07 122.5a4.652 4.652 0 0 0-2.2 2.84c-.33 1.21-.17 2.48.45 3.56l13.2 23.14a4.652 4.652 0 0 0 2.84 2.2c1.21.33 2.48.17 3.56-.45l35.41-20.21a4.697 4.697 0 0 0 1.75-6.4l-13.2-23.14a4.685 4.685 0 0 0-4.09-2.37h.01Z" fill="#000"/><path d="m106.239 106.161-45.304 25.851 2.424 4.247 45.303-25.851-2.423-4.247Z" fill="#000"/><path d="m89.841 139.897-10.857 6.195.808 1.416 10.857-6.196-.808-1.415ZM101.17 133.441l-10.856 6.195.807 1.415 10.857-6.195-.808-1.415ZM112.491 126.98l-10.857 6.195.808 1.416 10.856-6.196-.807-1.415Z" fill="#fff"/></g><defs><clipPath id="a"><path fill="#fff" d="M21 33h158.79v133.84H21z"/></clipPath></defs></svg>