<svg width="200" height="200" viewBox="0 0 200 200" fill="none" xmlns="http://www.w3.org/2000/svg"><g clip-path="url(#a)"><path d="M150.25 39.5H29.4c-2.15 0-3.9 2.17-3.9 4.86v99.29c0 2.68 1.75 4.86 3.9 4.86h120.85c2.15 0 3.9-2.17 3.9-4.86V44.36c0-2.68-1.75-4.86-3.9-4.86Z" fill="#FFF5EE"/><path d="M150.25 149H29.4c-2.43 0-4.4-2.4-4.4-5.36V44.36C25 41.4 26.97 39 29.4 39h120.85c2.43 0 4.4 2.4 4.4 5.36v99.29c0 2.95-1.97 5.36-4.4 5.36V149ZM29.4 40c-1.87 0-3.4 1.95-3.4 4.36v99.29c0 2.4 1.53 4.36 3.4 4.36h120.85c1.88 0 3.4-1.95 3.4-4.36V44.36c0-2.4-1.53-4.36-3.4-4.36H29.4Z" fill="#141414"/><path d="M29.4 39.5h120.85c1.03 0 2.02.51 2.75 1.42.73.91 1.14 2.14 1.14 3.42V59.8H25.5V44.36c0-.64.1-1.27.29-1.86.19-.59.48-1.13.85-1.58.36-.45.79-.81 1.27-1.05.47-.24.98-.37 1.49-.37Z" fill="#FF6842"/><path d="M154.63 60.3H25V44.36c0-.7.11-1.37.32-2.02.22-.65.53-1.23.93-1.73.41-.51.89-.91 1.43-1.18.55-.28 1.11-.39 1.72-.42h120.85c1.18 0 2.32.58 3.14 1.6.81 1 1.25 2.33 1.25 3.74v15.96l-.01-.01ZM26 59.3h127.63V44.34c0-1.16-.38-2.3-1.03-3.11-.64-.79-1.48-1.23-2.36-1.23H29.4c-.47 0-.86.1-1.26.31-.41.21-.79.52-1.11.92a4.5 4.5 0 0 0-.76 1.42c-.18.54-.27 1.11-.27 1.7V59.3Z" fill="#141414"/><path d="M39 49.5c0 1.93-1.57 3.5-3.5 3.5S32 51.43 32 49.5s1.57-3.5 3.5-3.5 3.5 1.57 3.5 3.5Z" fill="#fff"/><path d="M35.5 53.5c-2.21 0-4-1.79-4-4s1.79-4 4-4 4 1.79 4 4-1.79 4-4 4Zm0-7c-1.65 0-3 1.35-3 3s1.35 3 3 3 3-1.35 3-3-1.35-3-3-3Z" fill="#000"/><path d="M52 49.5c0 1.93-1.57 3.5-3.5 3.5S45 51.43 45 49.5s1.57-3.5 3.5-3.5 3.5 1.57 3.5 3.5Z" fill="#fff"/><path d="M48.5 53.5c-2.21 0-4-1.79-4-4s1.79-4 4-4 4 1.79 4 4-1.79 4-4 4Zm0-7c-1.65 0-3 1.35-3 3s1.35 3 3 3 3-1.35 3-3-1.35-3-3-3Z" fill="#000"/><path d="M65 49.5c0 1.93-1.57 3.5-3.5 3.5S58 51.43 58 49.5s1.57-3.5 3.5-3.5 3.5 1.57 3.5 3.5Z" fill="#fff"/><path d="M61.5 53.5c-2.21 0-4-1.79-4-4s1.79-4 4-4 4 1.79 4 4-1.79 4-4 4Zm0-7c-1.65 0-3 1.35-3 3s1.35 3 3 3 3-1.35 3-3-1.35-3-3-3Z" fill="#000"/><path d="M50.45 82.73a5.055 5.055 0 0 1-5.39 4.68 5.055 5.055 0 0 1-4.68-5.39c.2-2.78 2.61-4.87 5.39-4.68 2.78.2 4.87 2.61 4.68 5.39Z" fill="#FFF5EE"/><path d="M45.42 87.92c-.13 0-.26 0-.39-.01a5.543 5.543 0 1 1 .78-11.06c3.05.21 5.36 2.87 5.14 5.92-.2 2.92-2.65 5.16-5.53 5.16v-.01Zm0-10.09a4.55 4.55 0 0 0-4.53 4.23 4.537 4.537 0 0 0 4.21 4.85c2.5.17 4.68-1.71 4.85-4.21.18-2.5-1.71-4.68-4.21-4.85-.11 0-.22-.01-.32-.01v-.01Z" fill="#000"/><path d="m60.6 79.84 76.9.28c1.28 0 2.31 1.04 2.31 2.32 0 1.27-1.04 2.31-2.32 2.3l-76.9-.28c-1.28 0-2.31-1.04-2.31-2.32 0-1.27 1.04-2.31 2.32-2.3Z" fill="#FFF5EE"/><path d="m137.49 85.24-76.9-.28c-.75 0-1.46-.3-1.99-.83s-.82-1.24-.82-1.99c0-1.55 1.27-2.8 2.81-2.8h.01l76.9.28c.75 0 1.46.3 1.99.83a2.799 2.799 0 0 1-.01 3.97c-.53.53-1.24.82-1.98.82h-.01Zm-76.9-4.9c-1 0-1.81.81-1.81 1.8 0 .48.19.94.53 1.28.34.34.8.53 1.28.54l76.9.28c.48 0 .94-.19 1.28-.53.34-.34.53-.79.54-1.28 0-.48-.18-.94-.53-1.28-.34-.34-.8-.53-1.28-.54l-76.9-.28-.01.01Z" fill="#000"/><path d="M50.45 104.57a5.055 5.055 0 0 1-5.39 4.68 5.055 5.055 0 0 1-4.68-5.39c.2-2.78 2.61-4.87 5.39-4.68 2.78.2 4.87 2.61 4.68 5.39Z" fill="#FFF5EE"/><path d="M45.42 109.76c-.13 0-.26 0-.39-.01a5.49 5.49 0 0 1-3.8-1.9 5.485 5.485 0 0 1-1.34-4.02c.1-1.48.78-2.83 1.89-3.8a5.486 5.486 0 0 1 4.02-1.34c1.48.1 2.83.78 3.8 1.89a5.471 5.471 0 0 1 1.34 4.02 5.561 5.561 0 0 1-5.53 5.16h.01Zm-.01-10.09c-1.09 0-2.14.39-2.97 1.11-.92.8-1.47 1.9-1.55 3.11a4.57 4.57 0 0 0 1.1 3.3c.8.92 1.9 1.47 3.11 1.55 2.5.18 4.68-1.71 4.85-4.21a4.57 4.57 0 0 0-1.1-3.3c-.8-.92-1.9-1.47-3.11-1.55-.11 0-.22-.01-.33-.01Z" fill="#000"/><path d="m60.6 101.67 76.899.28c1.28 0 2.31 1.04 2.31 2.32 0 1.27-1.04 2.31-2.32 2.3l-76.9-.28c-1.28 0-2.31-1.04-2.31-2.32 0-1.27 1.04-2.31 2.32-2.3Z" fill="#FFF5EE"/><path d="M137.49 107.08h-.01l-76.9-.28c-.75 0-1.46-.3-1.99-.83a2.799 2.799 0 0 1 .01-3.97c.53-.53 1.23-.82 1.98-.82h.01l76.9.28c.75 0 1.46.3 1.99.83s.82 1.24.82 1.99c0 1.55-1.27 2.8-2.81 2.8Zm-76.9-4.9c-.48 0-.94.19-1.28.53-.34.34-.53.79-.54 1.28 0 .48.19.94.53 1.28.34.34.8.53 1.28.54l76.9.28c.97 0 1.82-.81 1.82-1.8 0-.48-.18-.94-.53-1.28-.34-.34-.8-.53-1.28-.54l-76.9-.28v-.01Z" fill="#000"/><path d="M50.45 126.41a5.055 5.055 0 0 1-5.39 4.68 5.055 5.055 0 0 1-4.68-5.39c.2-2.78 2.61-4.87 5.39-4.68 2.78.2 4.87 2.61 4.68 5.39Z" fill="#FFF5EE"/><path d="M45.43 131.6c-.13 0-.26 0-.4-.01-3.05-.22-5.36-2.87-5.14-5.92.1-1.48.78-2.83 1.89-3.8a5.58 5.58 0 0 1 4.02-1.35c3.05.22 5.36 2.87 5.14 5.92-.1 1.48-.78 2.83-1.89 3.8a5.525 5.525 0 0 1-3.63 1.36h.01Zm-.01-10.09c-1.09 0-2.14.39-2.97 1.11-.92.8-1.47 1.9-1.55 3.11-.18 2.5 1.72 4.67 4.21 4.85 1.21.09 2.38-.31 3.3-1.1.92-.79 1.47-1.9 1.55-3.11.18-2.5-1.72-4.67-4.21-4.85-.11 0-.22-.01-.33-.01Z" fill="#000"/><path d="m60.6 123.51 76.899.28c1.28 0 2.31 1.04 2.31 2.32 0 1.27-1.04 2.31-2.32 2.3l-76.9-.28c-1.28 0-2.31-1.04-2.31-2.32 0-1.27 1.04-2.31 2.32-2.3Z" fill="#FFF5EE"/><path d="M137.49 128.91h-.01l-76.9-.28c-.75 0-1.46-.3-1.99-.83s-.82-1.24-.82-1.99c0-1.55 1.27-2.8 2.81-2.8h.01l76.9.28c.75 0 1.46.3 1.99.83s.82 1.24.82 1.99c0 1.55-1.27 2.8-2.81 2.8Zm-76.9-4.9c-1 0-1.81.81-1.81 1.8 0 .48.19.94.53 1.28.34.34.8.53 1.28.54l76.9.28c1 0 1.81-.81 1.81-1.8 0-.48-.18-.94-.53-1.28-.34-.34-.8-.53-1.28-.54l-76.9-.28Z" fill="#000"/><path d="M136.39 158.82c19.55 0 35.39-15.85 35.39-35.41 0-19.56-15.85-35.41-35.39-35.41S101 103.85 101 123.41c0 19.56 15.84 35.41 35.39 35.41Z" fill="#000"/><path d="M136.39 159.32c-19.79 0-35.89-16.11-35.89-35.91 0-19.8 16.1-35.91 35.89-35.91s35.89 16.11 35.89 35.91c0 19.8-16.1 35.91-35.89 35.91Zm0-70.82c-19.24 0-34.89 15.66-34.89 34.91 0 19.25 15.65 34.91 34.89 34.91 19.24 0 34.89-15.66 34.89-34.91 0-19.25-15.65-34.91-34.89-34.91Z" fill="#000"/><path d="M131.53 131.6v.5H140v-.5c0-2.97 1.94-4.98 4.34-7.36 2.67-2.63 5.67-5.72 5.67-10.8 0-4.15-1.5-7.28-4.01-9.37-2.5-2.08-5.95-3.08-9.78-3.08-3.83 0-7.39 1-9.99 3.28-2.62 2.29-4.21 5.83-4.21 10.75v.5h9.72v-.5c0-2.21.47-3.76 1.25-4.74.77-.96 1.89-1.46 3.37-1.46 1.39 0 2.37.37 3.01 1.01.64.64 1 1.63 1 3.03 0 2.34-1.5 4.31-3.42 6.6-2.51 2.96-5.41 6.57-5.41 12.13l-.01.01Zm-.89 8.76c0 3.11 2.47 5.64 5.54 5.64s5.51-2.53 5.51-5.64-2.47-5.61-5.51-5.61c-3.04 0-5.54 2.53-5.54 5.61Z" fill="#000"/><path d="M136.18 146.5c-3.33 0-6.04-2.75-6.04-6.14 0-3.39 2.71-6.11 6.04-6.11s6.02 2.74 6.02 6.11-2.7 6.14-6.02 6.14Zm0-11.24c-2.78 0-5.04 2.29-5.04 5.11 0 2.82 2.26 5.14 5.04 5.14 2.78 0 5.02-2.3 5.02-5.14s-2.25-5.11-5.02-5.11Zm4.32-2.65h-9.47v-1c0-5.94 3.33-9.86 5.53-12.45 1.87-2.24 3.3-4.13 3.3-6.28 0-1.21-.29-2.11-.86-2.68-.57-.57-1.46-.86-2.66-.86-1.33 0-2.3.42-2.98 1.27-.76.95-1.14 2.44-1.14 4.43v1H121.5v-1c0-4.83 1.48-8.58 4.38-11.13 2.55-2.23 6.12-3.41 10.32-3.41s7.58 1.1 10.1 3.19c2.75 2.28 4.2 5.66 4.2 9.75 0 5.42-3.36 8.73-5.81 11.15-2.15 2.14-4.19 4.17-4.19 7.01v1.01Zm-8.47-1h7.47c0-3.26 2.18-5.42 4.49-7.72 2.46-2.43 5.52-5.45 5.52-10.44 0-3.79-1.33-6.9-3.83-8.98-2.33-1.94-5.6-2.96-9.46-2.96-3.86 0-7.3 1.09-9.67 3.16-2.68 2.35-4.04 5.84-4.04 10.38h8.72c0-2.22.46-3.92 1.36-5.05.87-1.09 2.14-1.65 3.77-1.65 1.47 0 2.6.39 3.37 1.15.76.77 1.15 1.91 1.15 3.39 0 2.49-1.53 4.52-3.54 6.92-2.79 3.29-5.3 6.66-5.3 11.81l-.01-.01Z" fill="#000"/><path d="M138.39 160.82c19.55 0 35.39-15.85 35.39-35.41 0-19.56-15.85-35.41-35.39-35.41S103 105.85 103 125.41c0 19.56 15.84 35.41 35.39 35.41Z" fill="#FFA078"/><path d="M138.39 161.32c-19.79 0-35.89-16.11-35.89-35.91 0-19.8 16.1-35.91 35.89-35.91s35.89 16.11 35.89 35.91c0 19.8-16.1 35.91-35.89 35.91Zm0-70.82c-19.24 0-34.89 15.66-34.89 34.91 0 19.25 15.65 34.91 34.89 34.91 19.24 0 34.89-15.66 34.89-34.91 0-19.25-15.65-34.91-34.89-34.91Z" fill="#000"/><path d="M133.53 133.6v.5H142v-.5c0-2.97 1.94-4.98 4.34-7.36 2.67-2.63 5.67-5.72 5.67-10.8 0-4.15-1.5-7.28-4.01-9.37-2.5-2.08-5.95-3.08-9.78-3.08-3.83 0-7.39 1-9.99 3.28-2.62 2.29-4.21 5.83-4.21 10.75v.5h9.72v-.5c0-2.21.47-3.76 1.25-4.74.77-.96 1.89-1.46 3.37-1.46 1.39 0 2.37.37 3.01 1.01.64.64 1 1.63 1 3.03 0 2.34-1.5 4.31-3.42 6.6-2.51 2.96-5.41 6.57-5.41 12.13l-.01.01Zm-.89 8.76c0 3.11 2.47 5.64 5.54 5.64s5.51-2.53 5.51-5.64-2.47-5.61-5.51-5.61c-3.04 0-5.54 2.53-5.54 5.61Z" fill="#fff"/><path d="M138.18 148.5c-3.33 0-6.04-2.75-6.04-6.14 0-3.39 2.71-6.11 6.04-6.11s6.02 2.74 6.02 6.11-2.7 6.14-6.02 6.14Zm0-11.24c-2.78 0-5.04 2.29-5.04 5.11 0 2.82 2.26 5.14 5.04 5.14 2.78 0 5.02-2.3 5.02-5.14s-2.25-5.11-5.02-5.11Zm4.32-2.65h-9.47v-1c0-5.94 3.33-9.86 5.53-12.45 1.87-2.24 3.3-4.13 3.3-6.28 0-1.21-.29-2.11-.86-2.68-.57-.57-1.46-.86-2.66-.86-1.33 0-2.3.42-2.98 1.27-.76.95-1.14 2.44-1.14 4.43v1H123.5v-1c0-4.83 1.48-8.58 4.38-11.13 2.55-2.23 6.12-3.41 10.32-3.41s7.58 1.1 10.1 3.19c2.75 2.28 4.2 5.66 4.2 9.75 0 5.42-3.36 8.73-5.81 11.15-2.15 2.14-4.19 4.17-4.19 7.01v1.01Zm-8.47-1h7.47c0-3.26 2.18-5.42 4.49-7.72 2.46-2.43 5.52-5.45 5.52-10.44 0-3.79-1.33-6.9-3.83-8.98-2.33-1.94-5.6-2.96-9.46-2.96-3.86 0-7.3 1.09-9.67 3.16-2.68 2.35-4.04 5.84-4.04 10.38h8.72c0-2.22.46-3.92 1.36-5.05.87-1.09 2.14-1.65 3.77-1.65 1.47 0 2.6.39 3.37 1.15.76.77 1.15 1.91 1.15 3.39 0 2.49-1.53 4.52-3.54 6.92-2.79 3.29-5.3 6.66-5.3 11.81l-.01-.01Z" fill="#000"/></g><defs><clipPath id="a"><path fill="#fff" d="M25 39h149.28v122.32H25z"/></clipPath></defs></svg>