<svg width="200" height="200" viewBox="0 0 200 200" fill="none" xmlns="http://www.w3.org/2000/svg">
<path d="M123.474 29.7899L36.2649 26.8538C32.7839 26.7366 29.8597 29.4633 29.7336 32.9441L25.4787 150.419C25.3526 153.9 28.0723 156.816 31.5534 156.934L118.762 159.87C122.243 159.987 125.167 157.26 125.294 153.779L129.549 36.3046C129.675 32.8239 126.955 29.9071 123.474 29.7899Z" fill="#E0D8D4" stroke="black"/>
<path d="M113.069 20.5H25.8066C22.3236 20.5 19.5 23.3236 19.5 26.8066V144.352C19.5 147.835 22.3236 150.659 25.8066 150.659H113.069C116.552 150.659 119.376 147.835 119.376 144.352V26.8066C119.376 23.3236 116.552 20.5 113.069 20.5Z" fill="white" stroke="black"/>
<path d="M29.6729 41.5234H109.31" stroke="#E0D8D4"/>
<path d="M66.2767 121.547H29.835V138.29H66.2767V121.547Z" fill="#F5EEE8"/>
<path d="M66.2767 98.8945H29.835V115.638H66.2767V98.8945Z" fill="#F5EEE8"/>
<path d="M66.2767 76.2422H29.835V92.9857H66.2767V76.2422Z" fill="#F5EEE8"/>
<path d="M66.2767 53.5898H29.835V70.3333H66.2767V53.5898Z" fill="#F5EEE8"/>
<path d="M108.627 121.547H72.1855V138.29H108.627V121.547Z" fill="#F5EEE8"/>
<path d="M108.627 98.8945H72.1855V115.638H108.627V98.8945Z" fill="#F5EEE8"/>
<path d="M108.627 76.2422H72.1855V92.9857H108.627V76.2422Z" fill="#F5EEE8"/>
<path d="M108.627 53.5898H72.1855V70.3333H108.627V53.5898Z" fill="#F5EEE8"/>
<path d="M144.166 104.519C123.153 104.519 106.119 121.563 106.119 142.588C106.119 163.612 123.153 180.656 144.166 180.656C165.179 180.656 182.213 163.612 182.213 142.588C182.213 121.563 165.179 104.519 144.166 104.519Z" fill="black" stroke="black"/>
<path fill-rule="evenodd" clip-rule="evenodd" d="M148.067 139.268V124.197H140.534V139.268H125.467V146.801H140.534V161.863H148.067V146.801H163.133V139.268H148.067Z" fill="black"/>
<path d="M148.067 124.197H148.567V123.697H148.067V124.197ZM148.067 139.268H147.567V139.768H148.067V139.268ZM140.534 124.197V123.697H140.034V124.197H140.534ZM140.534 139.268V139.768H141.034V139.268H140.534ZM125.467 139.268V138.768H124.967V139.268H125.467ZM125.467 146.801H124.967V147.301H125.467V146.801ZM140.534 146.801H141.034V146.301H140.534V146.801ZM140.534 161.863H140.034V162.363H140.534V161.863ZM148.067 161.863V162.363H148.567V161.863H148.067ZM148.067 146.801V146.301H147.567V146.801H148.067ZM163.133 146.801V147.301H163.633V146.801H163.133ZM163.133 139.268H163.633V138.768H163.133V139.268ZM147.567 124.197V139.268H148.567V124.197H147.567ZM140.534 124.697H148.067V123.697H140.534V124.697ZM141.034 139.268V124.197H140.034V139.268H141.034ZM125.467 139.768H140.534V138.768H125.467V139.768ZM125.967 146.801V139.268H124.967V146.801H125.967ZM140.534 146.301H125.467V147.301H140.534V146.301ZM141.034 161.863V146.801H140.034V161.863H141.034ZM148.067 161.363H140.534V162.363H148.067V161.363ZM147.567 146.801V161.863H148.567V146.801H147.567ZM163.133 146.301H148.067V147.301H163.133V146.301ZM162.633 139.268V146.801H163.633V139.268H162.633ZM148.067 139.768H163.133V138.768H148.067V139.768Z" fill="black"/>
<path d="M142.014 102.367C121.001 102.367 103.967 119.411 103.967 140.435C103.967 161.46 121.001 178.504 142.014 178.504C163.027 178.504 180.061 161.46 180.061 140.435C180.061 119.411 163.027 102.367 142.014 102.367Z" fill="#D7E8EF" stroke="black"/>
<path fill-rule="evenodd" clip-rule="evenodd" d="M145.915 137.116V122.045H138.381V137.116H123.314V144.649H138.381V159.711H145.915V144.649H160.98V137.116H145.915Z" fill="white"/>
<path d="M145.915 122.045H146.415V121.545H145.915V122.045ZM145.915 137.116H145.415V137.616H145.915V137.116ZM138.381 122.045V121.545H137.881V122.045H138.381ZM138.381 137.116V137.616H138.881V137.116H138.381ZM123.314 137.116V136.616H122.814V137.116H123.314ZM123.314 144.649H122.814V145.149H123.314V144.649ZM138.381 144.649H138.881V144.149H138.381V144.649ZM138.381 159.711H137.881V160.211H138.381V159.711ZM145.915 159.711V160.211H146.415V159.711H145.915ZM145.915 144.649V144.149H145.415V144.649H145.915ZM160.98 144.649V145.149H161.48V144.649H160.98ZM160.98 137.116H161.48V136.616H160.98V137.116ZM145.415 122.045V137.116H146.415V122.045H145.415ZM138.381 122.545H145.915V121.545H138.381V122.545ZM138.881 137.116V122.045H137.881V137.116H138.881ZM123.314 137.616H138.381V136.616H123.314V137.616ZM123.814 144.649V137.116H122.814V144.649H123.814ZM138.381 144.149H123.314V145.149H138.381V144.149ZM138.881 159.711V144.649H137.881V159.711H138.881ZM145.915 159.211H138.381V160.211H145.915V159.211ZM145.415 144.649V159.711H146.415V144.649H145.415ZM160.98 144.149H145.915V145.149H160.98V144.149ZM160.48 137.116V144.649H161.48V137.116H160.48ZM145.915 137.616H160.98V136.616H145.915V137.616Z" fill="black"/>
</svg>
