<svg width="200" height="200" viewBox="0 0 200 200" fill="none" xmlns="http://www.w3.org/2000/svg"><g clip-path="url(#a)"><path d="M146.75 42.49H36.35c-4.34 0-7.86 3.52-7.86 7.86v69.39a7.85 7.85 0 0 0 7.85 7.85h110.4c4.34 0 7.85-3.51 7.85-7.85V50.35a7.85 7.85 0 0 0-7.85-7.85l.01-.01Z" fill="#FF6842"/><path d="M146.75 128.08H36.35c-4.6 0-8.35-3.74-8.35-8.34V50.35c0-4.61 3.75-8.35 8.35-8.35h110.4c4.6 0 8.35 3.74 8.35 8.35v69.39c0 4.6-3.75 8.34-8.35 8.34ZM36.35 42.99c-4.06 0-7.36 3.3-7.36 7.36v69.39c0 4.06 3.3 7.36 7.36 7.36h110.4c4.06 0 7.36-3.3 7.36-7.36V50.35c0-4.06-3.3-7.36-7.36-7.36H36.35Z" fill="#141414"/><path d="M154.6 55.53H28.49v13.01H154.6V55.53Z" fill="#141414"/><path d="M100.32 80.07H44.77v8.39h55.55v-8.39Z" fill="#fff"/><path d="M133.38 155.81c19.54 0 35.39-15.85 35.39-35.41 0-19.56-15.85-35.41-35.39-35.41s-35.39 15.85-35.39 35.41c0 19.56 15.84 35.41 35.39 35.41Z" fill="#000"/><path d="M133.38 156.31c-19.79 0-35.89-16.11-35.89-35.91 0-19.8 16.1-35.91 35.89-35.91s35.89 16.11 35.89 35.91c0 19.8-16.1 35.91-35.89 35.91Zm0-70.82c-19.24 0-34.89 15.66-34.89 34.91 0 19.25 15.65 34.91 34.89 34.91 19.24 0 34.89-15.66 34.89-34.91 0-19.25-15.65-34.91-34.89-34.91Z" fill="#000"/><path fill-rule="evenodd" clip-rule="evenodd" d="M129.76 123.49v14h7v-14h14v-7h-14v-14h-7v14h-14v7h14Z" fill="#000"/><path d="M129.76 137.49h-.5v.5h.5v-.5Zm0-14h.5v-.5h-.5v.5Zm7 14v.5h.5v-.5h-.5Zm0-14v-.5h-.5v.5h.5Zm14 0v.5h.5v-.5h-.5Zm0-7h.5v-.5h-.5v.5Zm-14 0h-.5v.5h.5v-.5Zm0-14h.5v-.5h-.5v.5Zm-7 0v-.5h-.5v.5h.5Zm0 14v.5h.5v-.5h-.5Zm-14 0v-.5h-.5v.5h.5Zm0 7h-.5v.5h.5v-.5Zm14.5 14v-14h-1v14h1Zm6.5-.5h-7v1h7v-1Zm-.5-13.5v14h1v-14h-1Zm14.5-.5h-14v1h14v-1Zm-.5-6.5v7h1v-7h-1Zm-13.5.5h14v-1h-14v1Zm-.5-14.5v14h1v-14h-1Zm-6.5.5h7v-1h-7v1Zm.5 13.5v-14h-1v14h1Zm-14.5.5h14v-1h-14v1Zm.5 6.5v-7h-1v7h1Zm13.5-.5h-14v1h14v-1Z" fill="#000"/><path d="M135.38 157.81c19.54 0 35.39-15.85 35.39-35.41 0-19.56-15.85-35.41-35.39-35.41s-35.39 15.85-35.39 35.41c0 19.56 15.84 35.41 35.39 35.41Z" fill="#D7E8EF"/><path d="M135.38 158.31c-19.79 0-35.89-16.11-35.89-35.91 0-19.8 16.1-35.91 35.89-35.91s35.89 16.11 35.89 35.91c0 19.8-16.1 35.91-35.89 35.91Zm0-70.82c-19.24 0-34.89 15.66-34.89 34.91 0 19.25 15.65 34.91 34.89 34.91 19.24 0 34.89-15.66 34.89-34.91 0-19.25-15.65-34.91-34.89-34.91Z" fill="#000"/><path fill-rule="evenodd" clip-rule="evenodd" d="M131.76 125.49v14h7v-14h14v-7h-14v-14h-7v14h-14v7h14Z" fill="#fff"/><path d="M131.76 139.49h-.5v.5h.5v-.5Zm0-14h.5v-.5h-.5v.5Zm7 14v.5h.5v-.5h-.5Zm0-14v-.5h-.5v.5h.5Zm14 0v.5h.5v-.5h-.5Zm0-7h.5v-.5h-.5v.5Zm-14 0h-.5v.5h.5v-.5Zm0-14h.5v-.5h-.5v.5Zm-7 0v-.5h-.5v.5h.5Zm0 14v.5h.5v-.5h-.5Zm-14 0v-.5h-.5v.5h.5Zm0 7h-.5v.5h.5v-.5Zm14.5 14v-14h-1v14h1Zm6.5-.5h-7v1h7v-1Zm-.5-13.5v14h1v-14h-1Zm14.5-.5h-14v1h14v-1Zm-.5-6.5v7h1v-7h-1Zm-13.5.5h14v-1h-14v1Zm-.5-14.5v14h1v-14h-1Zm-6.5.5h7v-1h-7v1Zm.5 13.5v-14h-1v14h1Zm-14.5.5h14v-1h-14v1Zm.5 6.5v-7h-1v7h1Zm13.5-.5h-14v1h14v-1Z" fill="#000"/></g><defs><clipPath id="a"><path fill="#fff" d="M28 42h143.27v116.31H28z"/></clipPath></defs></svg>