<svg width="200" height="200" viewBox="0 0 200 200" fill="none" xmlns="http://www.w3.org/2000/svg"><g clip-path="url(#a)"><path d="M160.06 26.5H57.36c-3.31 0-6 2.69-6 6v118.8c0 3.31 2.69 6 6 6h102.7c3.31 0 6-2.69 6-6V32.5c0-3.31-2.69-6-6-6Z" fill="#E0D8D4"/><path d="M160.06 157.8H57.36c-3.58 0-6.5-2.92-6.5-6.5V32.5c0-3.58 2.92-6.5 6.5-6.5h102.7c3.58 0 6.5 2.92 6.5 6.5v118.8c0 3.58-2.92 6.5-6.5 6.5ZM57.36 27a5.51 5.51 0 0 0-5.5 5.5v118.8c0 3.03 2.47 5.5 5.5 5.5h102.7c3.03 0 5.5-2.47 5.5-5.5V32.5c0-3.03-2.47-5.5-5.5-5.5H57.36Z" fill="#010202"/><path d="M116.26 54.67a7.55 7.55 0 0 1-7.55 7.55 7.55 7.55 0 0 1-7.55-7.55 7.55 7.55 0 0 1 7.55-7.55 7.55 7.55 0 0 1 7.55 7.55Z" fill="#E0D8D4"/><path d="M108.71 62.72c-4.44 0-8.05-3.61-8.05-8.05 0-4.44 3.61-8.05 8.05-8.05 4.44 0 8.05 3.61 8.05 8.05 0 4.44-3.61 8.05-8.05 8.05Zm0-15.1c-3.89 0-7.05 3.16-7.05 7.05 0 3.89 3.16 7.05 7.05 7.05 3.89 0 7.05-3.16 7.05-7.05 0-3.89-3.16-7.05-7.05-7.05Z" fill="#000"/><path d="M142.2 43.46H39.5c-3.31 0-6 2.69-6 6v118.8c0 3.31 2.69 6 6 6h102.7c3.31 0 6-2.69 6-6V49.46c0-3.31-2.69-6-6-6Z" fill="#fff"/><path d="M142.2 174.76H39.5c-3.58 0-6.5-2.92-6.5-6.5V49.46c0-3.58 2.92-6.5 6.5-6.5h102.7c3.58 0 6.5 2.92 6.5 6.5v118.8c0 3.58-2.92 6.5-6.5 6.5ZM39.5 43.96a5.51 5.51 0 0 0-5.5 5.5v118.8c0 3.03 2.47 5.5 5.5 5.5h102.7c3.03 0 5.5-2.47 5.5-5.5V49.46c0-3.03-2.47-5.5-5.5-5.5H39.5Z" fill="#010202"/><path d="M47.55 54.03h86.6c3.04 0 5.5 2.46 5.5 5.5v82.58c0 3.04-2.46 5.5-5.5 5.5h-86.6c-3.04 0-5.5-2.46-5.5-5.5V59.53c0-3.04 2.46-5.5 5.5-5.5Z" fill="#FF6842"/><path fill-rule="evenodd" clip-rule="evenodd" d="M111.35 86.64c2.31-3.99 8.07-3.99 10.38 0l17.61 30.38c.53.91.81 1.95.81 3.01v22.08c0 3.31-2.69 6-6 6h-86.6c-3.31 0-6-2.69-6-6v-18.68c0-1.07.28-2.11.82-3.03l14.52-24.81c2.32-3.96 8.05-3.96 10.36 0l14.33 24.55c2.32 3.98 8.07 3.97 10.37-.02l19.4-33.5v.02Z" fill="#FFC7D8"/><path d="M98.4 71.64a7.55 7.55 0 0 1-7.55 7.55 7.55 7.55 0 0 1-7.55-7.55 7.55 7.55 0 0 1 7.55-7.55 7.55 7.55 0 0 1 7.55 7.55Z" fill="#fff"/><path d="M90.85 79.69c-4.44 0-8.05-3.61-8.05-8.05 0-4.44 3.61-8.05 8.05-8.05 4.44 0 8.05 3.61 8.05 8.05 0 4.44-3.61 8.05-8.05 8.05Zm0-15.1c-3.89 0-7.05 3.16-7.05 7.05 0 3.89 3.16 7.05 7.05 7.05 3.89 0 7.05-3.16 7.05-7.05 0-3.89-3.16-7.05-7.05-7.05Z" fill="#000"/><path d="M134.15 148.1h-86.6c-3.31 0-6-2.69-6-6V59.53c0-3.31 2.69-6 6-6h86.6c3.31 0 6 2.69 6 6v82.58c0 3.31-2.69 6-6 6v-.01Zm-86.6-93.57c-2.76 0-5 2.24-5 5v82.58c0 2.76 2.24 5 5 5h86.6c2.76 0 5-2.24 5-5V59.53c0-2.76-2.24-5-5-5h-86.6Z" fill="#000"/></g><defs><clipPath id="a"><path fill="#fff" d="M33 26h133.56v148.76H33z"/></clipPath></defs></svg>