<svg width="200" height="200" viewBox="0 0 200 200" fill="none" xmlns="http://www.w3.org/2000/svg"><g clip-path="url(#a)"><path fill-rule="evenodd" clip-rule="evenodd" d="M180.21 76.39v12.22c0 4.42-3.58 8-8 8H61.5c-4.42 0-8-3.58-8-8V49.5c0-4.42 3.58-8 8-8h110.7c4.42 0 8 3.58 8 8v26.89h.01Z" fill="#E0D8D4"/><path d="M180.2 76.39v-.5c-.28 0-.5.22-.5.5h.5Zm0 0v.5c.28 0 .5-.22.5-.5h-.5ZM53.49 73.66v-.5c-.28 0-.5.22-.5.5h.5Zm0 0v.5c.28 0 .5-.22.5-.5h-.5Zm127.22 14.95V76.39h-1v12.22h1Zm-8.5 8.5a8.5 8.5 0 0 0 8.5-8.5h-1c0 4.14-3.36 7.5-7.5 7.5v1Zm-110.7 0h110.7v-1H61.5v1h.01Zm-8.5-8.5c0 4.69 3.81 8.5 8.5 8.5v-1c-4.14 0-7.5-3.36-7.5-7.5h-1Zm0-14.95v14.95h1V73.66h-1Zm.01-24.15v24.15h1V49.5h-1v.01ZM61.51 41c-4.69 0-8.5 3.81-8.5 8.5h1c0-4.14 3.36-7.5 7.5-7.5v-1Zm110.7 0H61.51v1h110.7v-1Zm8.5 8.5c0-4.69-3.81-8.5-8.5-8.5v1c4.14 0 7.5 3.36 7.5 7.5h1Zm0 26.89V49.5h-1v26.89h1Z" fill="#000"/><path d="m117.74 55.29 47.71.27c.26 0 .56.16.81.56.26.39.43.96.43 1.61 0 .65-.18 1.22-.43 1.61-.26.39-.56.55-.82.55l-47.71-.27c-.26 0-.56-.16-.82-.56-.25-.39-.43-.96-.43-1.61 0-.65.18-1.22.43-1.61.26-.39.56-.55.82-.55h.01Z" fill="#BCA89B"/><path d="m165.44 60.39-47.71-.27c-.27 0-.79-.11-1.23-.79-.33-.5-.51-1.17-.51-1.89 0-.71.18-1.38.52-1.88.45-.68.94-.76 1.24-.77l47.71.27c.27 0 .79.11 1.23.79.33.51.51 1.18.51 1.89s-.19 1.38-.52 1.88c-.44.67-.96.77-1.23.77h-.01Zm-47.7-4.6c-.08 0-.24.08-.4.33-.22.34-.35.82-.35 1.33 0 .51.12 1 .34 1.34.16.24.31.33.4.33l47.71.27s.24-.08.4-.33c.22-.34.35-.82.35-1.33 0-.51-.12-1-.35-1.34-.16-.24-.31-.33-.4-.33l-47.71-.27h.01Z" fill="#000"/><path d="m117.74 66.67 47.71.27c.26 0 .56.16.81.56.26.39.43.96.43 1.61 0 .65-.18 1.22-.43 1.61-.26.39-.56.55-.82.55L117.73 71c-.26 0-.56-.16-.82-.56-.25-.39-.43-.96-.43-1.61 0-.65.18-1.22.43-1.61.26-.39.56-.55.82-.55h.01Z" fill="#BCA89B"/><path d="m165.44 71.77-47.71-.27c-.27 0-.79-.11-1.23-.79-.33-.5-.51-1.17-.51-1.89 0-.71.18-1.38.52-1.88.45-.68.94-.75 1.24-.77l47.71.27c.27 0 .79.11 1.23.79.33.51.51 1.18.51 1.89s-.19 1.38-.52 1.88c-.44.67-.96.77-1.23.77h-.01Zm-47.7-4.6c-.08 0-.24.08-.4.33-.22.34-.35.82-.35 1.33 0 .51.12 1 .34 1.34.16.24.31.33.4.33l47.71.27s.24-.08.4-.33c.22-.34.35-.82.35-1.33 0-.51-.12-1-.35-1.34-.16-.24-.31-.33-.4-.33l-47.71-.27h.01Z" fill="#000"/><path d="m117.74 78.05 47.71.27c.26 0 .56.16.81.56.26.39.43.96.43 1.61 0 .65-.18 1.22-.43 1.61-.26.39-.56.55-.82.55l-47.71-.27c-.26 0-.56-.16-.82-.56-.25-.39-.43-.96-.43-1.61 0-.65.18-1.22.43-1.61.26-.39.56-.55.82-.55h.01Z" fill="#BCA89B"/><path d="m165.44 83.15-47.71-.27c-.27 0-.79-.11-1.23-.79-.33-.5-.51-1.17-.51-1.89 0-.71.18-1.38.52-1.88.45-.68.94-.8 1.24-.77l47.71.27c.27 0 .79.11 1.23.79.33.51.51 1.18.51 1.89s-.19 1.38-.52 1.88c-.44.67-.96.77-1.23.77h-.01Zm-47.7-4.6c-.08 0-.24.08-.4.33-.22.34-.35.82-.35 1.33 0 .51.12 1 .34 1.34.16.24.31.33.4.33l47.71.27c.08 0 .24-.08.4-.33.22-.34.35-.82.35-1.33 0-.51-.12-1-.35-1.34-.16-.24-.31-.33-.4-.33l-47.71-.27h.01Z" fill="#000"/><path d="M88.1 90.77c11.504 0 20.83-9.326 20.83-20.83 0-11.504-9.326-20.83-20.83-20.83-11.505 0-20.83 9.326-20.83 20.83 0 11.504 9.325 20.83 20.83 20.83Z" fill="#BCA89B"/><path d="M88.1 91.27c-11.76 0-21.33-9.57-21.33-21.33 0-11.76 9.57-21.33 21.33-21.33 11.76 0 21.33 9.57 21.33 21.33 0 11.76-9.57 21.33-21.33 21.33Zm0-41.65c-11.21 0-20.33 9.12-20.33 20.33 0 11.21 9.12 20.33 20.33 20.33 11.21 0 20.33-9.12 20.33-20.33 0-11.21-9.12-20.33-20.33-20.33Z" fill="#000"/><path fill-rule="evenodd" clip-rule="evenodd" d="M78.89 71.98V61.42H77.1v16.42h1.79v-4.07h18.12v4.08h1.79v-9.96c0-2.14-1.74-3.88-3.88-3.88h-7.86v7.97h-8.17ZM97 67.89v4.09h-8.16V65.8h6.07c1.15 0 2.09.94 2.09 2.09Zm-15.12 0c0-.6.49-1.09 1.09-1.09.6 0 1.09.49 1.09 1.09 0 .6-.49 1.09-1.09 1.09-.6 0-1.09-.49-1.09-1.09ZM82.97 65c-1.59 0-2.89 1.29-2.89 2.89s1.29 2.89 2.89 2.89 2.89-1.29 2.89-2.89S84.57 65 82.97 65Z" fill="#BCA89B"/><path fill-rule="evenodd" clip-rule="evenodd" d="M146.21 137.39v12.22c0 4.42-3.58 8-8 8H27.5c-4.42 0-8-3.58-8-8V110.51c0-4.42 3.58-8 8-8h110.7c4.42 0 8 3.58 8 8v26.89l.01-.01Z" fill="#E0D8D4"/><path d="M146.2 137.39v-.5c-.28 0-.5.22-.5.5h.5Zm0 0v.5c.28 0 .5-.22.5-.5h-.5Zm-126.7-2.74v-.5c-.28 0-.5.22-.5.5h.5Zm0 0v.5c.28 0 .5-.22.5-.5h-.5Zm127.2 14.96v-12.22h-1v12.22h1Zm-8.5 8.5c4.69 0 8.5-3.81 8.5-8.5h-1c0 4.14-3.36 7.5-7.5 7.5v1Zm-110.7 0h110.7v-1H27.5v1Zm-8.5-8.5c0 4.69 3.81 8.5 8.5 8.5v-1c-4.14 0-7.5-3.36-7.5-7.5h-1Zm0-14.95v14.95h1v-14.95h-1Zm0-24.16v24.15h1V110.5h-1Zm8.5-8.5c-4.69 0-8.5 3.81-8.5 8.5h1c0-4.14 3.36-7.5 7.5-7.5v-1Zm110.7 0H27.51v1h110.7v-1h-.01Zm8.5 8.5c0-4.69-3.81-8.5-8.5-8.5v1c4.14 0 7.5 3.36 7.5 7.5h1Zm0 26.89V110.5h-1v26.89h1Z" fill="#000"/><path d="m83.74 116.29 47.71.27c.26 0 .56.16.82.56.25.39.43.96.43 1.61 0 .65-.18 1.22-.43 1.61-.26.39-.56.55-.82.55l-47.71-.27c-.26 0-.56-.16-.82-.56-.25-.39-.43-.96-.43-1.61 0-.65.18-1.22.43-1.61.26-.39.56-.55.82-.55Z" fill="#BCA89B"/><path d="m131.44 121.39-47.71-.27c-.27 0-.79-.1-1.23-.79-.33-.51-.51-1.18-.51-1.89s.19-1.38.52-1.88c.44-.67.96-.77 1.23-.77l47.71.27c.27 0 .79.11 1.23.79.33.5.51 1.17.51 1.89 0 .71-.19 1.38-.52 1.88-.45.67-.96.77-1.23.77Zm-47.7-4.6c-.08 0-.24.09-.4.33-.22.34-.35.82-.35 1.33 0 .51.12 1 .35 1.34.16.24.31.33.4.33l47.71.27c.08 0 .24-.08.4-.33.22-.33.35-.82.35-1.33 0-.51-.12-1-.35-1.34-.16-.25-.31-.33-.4-.33l-47.71-.27Z" fill="#000"/><path d="m83.74 127.67 47.71.27c.26 0 .56.16.82.56.25.39.43.96.43 1.61 0 .65-.18 1.22-.43 1.61-.26.39-.56.55-.82.55L83.74 132c-.26 0-.56-.16-.82-.56-.25-.39-.43-.96-.43-1.61 0-.65.18-1.22.43-1.61.26-.39.56-.55.82-.55Z" fill="#BCA89B"/><path d="m131.44 132.77-47.71-.27c-.27 0-.79-.1-1.23-.79-.33-.51-.51-1.18-.51-1.89s.19-1.38.52-1.88c.45-.68.92-.77 1.24-.77l47.71.27c.27 0 .79.11 1.23.79.33.5.51 1.17.51 1.89s-.19 1.38-.52 1.88c-.44.67-.96.77-1.23.77h-.01Zm-47.7-4.6c-.08 0-.24.09-.4.33-.22.34-.35.82-.35 1.33 0 .51.12 1 .35 1.34.16.24.31.33.4.33l47.71.27c.08 0 .24-.08.4-.33.22-.33.35-.82.35-1.33 0-.51-.12-1-.35-1.34-.16-.25-.31-.33-.4-.33l-47.71-.27Z" fill="#000"/><path d="m83.74 139.05 47.71.27c.26 0 .56.16.82.56.25.39.43.96.43 1.61 0 .65-.18 1.22-.43 1.61-.26.39-.56.55-.82.55l-47.71-.27c-.26 0-.56-.16-.82-.56-.25-.39-.43-.96-.43-1.61 0-.65.18-1.22.43-1.61.26-.39.56-.55.82-.55Z" fill="#BCA89B"/><path d="m131.44 144.15-47.71-.27c-.27 0-.79-.1-1.23-.79-.33-.5-.51-1.17-.51-1.88s.19-1.38.52-1.88c.45-.68.92-.79 1.24-.77l47.71.27c.27 0 .79.11 1.23.79.33.5.51 1.17.51 1.89s-.19 1.38-.52 1.88c-.45.67-.96.77-1.23.77l-.01-.01Zm-47.7-4.6c-.08 0-.24.08-.4.33-.22.34-.35.82-.35 1.33 0 .51.12 1 .34 1.34.16.24.31.33.4.33l47.71.27c.09 0 .24-.09.4-.33.22-.33.35-.82.35-1.33 0-.51-.12-1-.35-1.34-.16-.25-.31-.33-.4-.33l-47.71-.27h.01Z" fill="#000"/><path d="M54.1 151.77c11.504 0 20.83-9.326 20.83-20.83 0-11.504-9.326-20.83-20.83-20.83-11.505 0-20.83 9.326-20.83 20.83 0 11.504 9.325 20.83 20.83 20.83Z" fill="#BCA89B"/><path d="M54.1 152.27c-11.76 0-21.33-9.57-21.33-21.33 0-11.76 9.57-21.33 21.33-21.33 11.76 0 21.33 9.57 21.33 21.33 0 11.76-9.57 21.33-21.33 21.33Zm0-41.65c-11.21 0-20.33 9.12-20.33 20.33 0 11.21 9.12 20.33 20.33 20.33 11.21 0 20.33-9.12 20.33-20.33 0-11.21-9.12-20.33-20.33-20.33Z" fill="#000"/><path fill-rule="evenodd" clip-rule="evenodd" d="M44.89 132.98v-10.56H43.1v16.42h1.79v-4.07h18.12v4.08h1.79v-9.96c0-2.14-1.74-3.88-3.88-3.88h-7.86v7.97h-8.17ZM63 128.89v4.09h-8.16v-6.18h6.07c1.15 0 2.09.94 2.09 2.09Zm-15.12 0c0-.6.49-1.09 1.09-1.09.6 0 1.09.49 1.09 1.09 0 .6-.49 1.09-1.09 1.09-.6 0-1.09-.49-1.09-1.09Zm1.09-2.89c-1.59 0-2.89 1.29-2.89 2.89s1.29 2.89 2.89 2.89 2.89-1.29 2.89-2.89-1.29-2.89-2.89-2.89Z" fill="#BCA89B"/><path fill-rule="evenodd" clip-rule="evenodd" d="M165.5 125.5v9.49c0 4.74-3.96 8.58-8.85 8.58h-4.76l5.99 5.8c.5.49.5 1.28 0 1.76-.5.49-1.32.49-1.82 0l-8.18-7.93c-.5-.49-.5-1.28 0-1.76l8.18-7.93c.5-.49 1.32-.49 1.82 0s.5 1.28 0 1.76l-5.99 5.8h4.76c3.47 0 6.28-2.73 6.28-6.09v-9.49h2.57v.01Z" fill="#FF6842"/><path d="M156.97 152c-.46 0-.91-.17-1.26-.5l-8.18-7.93a1.718 1.718 0 0 1 0-2.48l8.18-7.93c.69-.67 1.82-.67 2.51 0a1.718 1.718 0 0 1 0 2.48l-5.1 4.94h3.52c3.19 0 5.78-2.51 5.78-5.59V125h3.57v9.99c0 5.01-4.2 9.08-9.35 9.08h-3.52l5.1 4.94a1.718 1.718 0 0 1 0 2.48c-.35.34-.8.5-1.26.5l.01.01Zm0-18.35c-.2 0-.41.08-.56.22l-8.18 7.93c-.14.14-.22.33-.22.52s.08.38.23.52l8.18 7.93c.31.3.81.3 1.12 0a.714.714 0 0 0 .01-1.04l-6.87-6.66h5.99c4.61 0 8.35-3.62 8.35-8.08V126h-1.57v8.99c0 3.63-3.04 6.59-6.78 6.59h-5.99l6.87-6.66c.14-.14.22-.33.22-.52s-.08-.38-.22-.52a.794.794 0 0 0-.56-.22l-.02-.01Z" fill="#FF6842"/><path fill-rule="evenodd" clip-rule="evenodd" d="M34.5 74.5v-9.49c0-4.74 3.96-8.58 8.85-8.58h4.76l-5.99-5.8c-.5-.49-.5-1.28 0-1.76.5-.49 1.32-.49 1.82 0l8.18 7.93c.5.49.5 1.28 0 1.76l-8.18 7.93c-.5.49-1.32.49-1.82 0s-.5-1.28 0-1.76l5.99-5.8h-4.76c-3.47 0-6.28 2.73-6.28 6.09v9.49H34.5v-.01Z" fill="#FF6842"/><path d="M37.57 75H34v-9.99c0-5.01 4.2-9.08 9.35-9.08h3.52l-5.1-4.94a1.718 1.718 0 0 1 0-2.48c.69-.67 1.82-.67 2.51 0l8.18 7.93a1.718 1.718 0 0 1 0 2.48l-8.18 7.93c-.69.67-1.82.67-2.51 0a1.718 1.718 0 0 1 0-2.48l5.1-4.94h-3.52c-3.19 0-5.78 2.51-5.78 5.59v9.99V75ZM35 74h1.57v-8.99c0-3.63 3.04-6.59 6.78-6.59h5.99l-6.87 6.66c-.15.14-.22.33-.22.52s.08.38.22.52c.31.3.81.3 1.12 0l8.18-7.93c.15-.14.22-.33.22-.52s-.08-.38-.22-.52l-8.18-7.93a.81.81 0 0 0-1.12 0c-.15.14-.22.33-.22.52s.08.38.22.52l6.87 6.66h-5.99C38.74 56.92 35 60.55 35 65v9Z" fill="#FF6842"/><path fill-rule="evenodd" clip-rule="evenodd" d="M167.11 107.13v13.81c0 4.42-3.58 8-8 8H40.5c-4.42 0-8-3.58-8-8V77.51c0-4.42 3.58-8 8-8h118.6c4.42 0 8 3.58 8 8v29.63l.01-.01Z" fill="#FFF5EE"/><path d="M167.1 107.13v-.5c-.28 0-.5.22-.5.5h.5Zm0 0v.5c.28 0 .5-.22.5-.5h-.5Zm-134.61-2.95v-.5c-.28 0-.5.22-.5.5h.5Zm0 0v.5c.28 0 .5-.22.5-.5h-.5Zm135.1 16.76v-13.81h-1v13.81h1Zm-8.5 8.5c4.69 0 8.5-3.81 8.5-8.5h-1c0 4.14-3.36 7.5-7.5 7.5v1Zm-118.6 0h118.6v-1H40.5v1h-.01Zm-8.5-8.5c0 4.69 3.81 8.5 8.5 8.5v-1c-4.14 0-7.5-3.36-7.5-7.5h-1Zm0-16.75v16.75h1v-16.75h-1ZM32 77.51v26.68h1V77.51h-1Zm8.5-8.5c-4.69 0-8.5 3.81-8.5 8.5h1c0-4.14 3.36-7.5 7.5-7.5v-1Zm118.6 0H40.51v1h118.6v-1h-.01Zm8.5 8.5a8.5 8.5 0 0 0-8.5-8.5v1c4.14 0 7.5 3.36 7.5 7.5h1Zm0 29.63V77.51h-1v29.63h1Z" fill="#000"/><path d="m99.73 84.33 51.45.29c.3 0 .63.19.91.62s.47 1.05.46 1.76c-.01.71-.19 1.33-.47 1.76-.28.43-.62.61-.91.61l-51.45-.29c-.3 0-.63-.19-.91-.62s-.47-1.05-.47-1.76.19-1.33.47-1.76c.28-.43.62-.61.92-.61Z" fill="#BCA89B"/><path d="m151.17 89.87-51.45-.29c-.29 0-.85-.11-1.33-.85-.35-.54-.55-1.27-.55-2.03 0-.77.2-1.49.56-2.03.48-.73 1.03-.81 1.33-.83l51.45.29c.29 0 .85.11 1.33.85.35.54.55 1.27.54 2.03 0 .77-.2 1.49-.56 2.03-.48.73-1.04.84-1.33.84l.01-.01Zm-51.45-5.04c-.15 0-.33.14-.49.39-.25.37-.39.91-.39 1.48s.14 1.11.38 1.49c.16.25.35.39.5.39l51.45.29c.15 0 .33-.14.49-.39.25-.37.39-.91.39-1.48s-.14-1.11-.38-1.49c-.16-.25-.35-.39-.5-.39l-51.45-.29Z" fill="#000"/><path d="m99.73 96.6 51.45.29c.3 0 .63.19.91.62s.47 1.05.46 1.76c0 .71-.19 1.331-.47 1.761-.28.43-.62.61-.91.61l-51.45-.29c-.3 0-.63-.19-.91-.62s-.47-1.05-.47-1.76.19-1.33.47-1.76c.28-.43.62-.61.92-.61Z" fill="#BCA89B"/><path d="m151.17 102.14-51.45-.29c-.29 0-.85-.11-1.33-.85-.35-.54-.55-1.27-.55-2.04s.2-1.49.56-2.03c.48-.73 1.03-.84 1.34-.83l51.45.29c.29 0 .85.11 1.33.85.35.54.55 1.27.54 2.03 0 .77-.2 1.49-.56 2.03-.48.73-1.04.83-1.33.83v.01ZM99.72 97.1c-.15 0-.33.14-.49.39-.25.38-.39.91-.39 1.48s.14 1.11.38 1.49c.16.25.35.39.5.39l51.45.29c.15 0 .33-.14.49-.39.25-.37.39-.91.39-1.48s-.14-1.11-.38-1.49c-.16-.25-.35-.39-.5-.39l-51.45-.29Z" fill="#000"/><path d="m99.73 108.88 51.45.29c.3 0 .63.19.91.62s.47 1.05.46 1.76c0 .71-.19 1.33-.47 1.76-.28.43-.62.61-.91.61l-51.45-.29c-.3 0-.63-.19-.91-.62s-.47-1.05-.47-1.76.19-1.33.47-1.76c.28-.43.62-.61.92-.61Z" fill="#BCA89B"/><path d="m151.17 114.42-51.45-.29c-.29 0-.85-.11-1.33-.85-.35-.54-.55-1.27-.55-2.03 0-.77.2-1.49.56-2.03.48-.73 1.03-.86 1.33-.83l51.45.29c.29 0 .85.11 1.33.85.36.55.55 1.27.55 2.04s-.2 1.49-.56 2.03c-.48.73-1.04.83-1.33.83v-.01Zm-51.45-5.04c-.15 0-.33.14-.49.39-.25.37-.39.91-.39 1.48s.14 1.11.38 1.49c.16.25.35.39.5.39l51.45.29c.15 0 .33-.14.49-.39.25-.38.39-.92.39-1.48 0-.56-.14-1.11-.38-1.49-.16-.25-.34-.39-.5-.39l-51.45-.29Z" fill="#000"/><path d="M67.77 122.67c12.426 0 22.5-10.074 22.5-22.5 0-12.427-10.074-22.5-22.5-22.5-12.427 0-22.5 10.073-22.5 22.5 0 12.426 10.073 22.5 22.5 22.5Z" fill="#FFE2D7"/><path d="M67.77 123.17c-12.68 0-23-10.32-23-23s10.32-23 23-23 23 10.32 23 23-10.32 23-23 23Zm0-45c-12.13 0-22 9.87-22 22s9.87 22 22 22 22-9.87 22-22-9.87-22-22-22Z" fill="#000"/><path fill-rule="evenodd" clip-rule="evenodd" d="M57.83 102.37V90.98H55.9v17.71h1.93v-4.39h19.54v4.4h1.93V97.96c0-2.31-1.87-4.19-4.19-4.19h-8.48v8.6h-8.8Zm19.54-4.41v4.41h-8.8V95.7h6.55c1.24 0 2.25 1.01 2.25 2.25v.01Zm-16.3 0c0-.65.53-1.18 1.18-1.18.65 0 1.18.53 1.18 1.18 0 .65-.53 1.18-1.18 1.18-.65 0-1.18-.53-1.18-1.18Zm1.18-3.11c-1.72 0-3.11 1.39-3.11 3.11s1.39 3.11 3.11 3.11 3.11-1.39 3.11-3.11-1.39-3.11-3.11-3.11Z" fill="#000"/></g><defs><clipPath id="a"><path fill="#fff" d="M19 41h161.71v117.11H19z"/></clipPath></defs></svg>