<svg width="200" height="200" viewBox="0 0 200 200" fill="none" xmlns="http://www.w3.org/2000/svg"><g clip-path="url(#a)"><path d="m41.488 38.146-4.103 117.488a7.42 7.42 0 0 0 7.157 7.675l83.029 2.899a7.42 7.42 0 0 0 7.674-7.156l4.103-117.489a7.42 7.42 0 0 0-7.156-7.674l-83.03-2.9a7.42 7.42 0 0 0-7.674 7.157Z" fill="#E0D8D4"/><path d="M127.83 166.71h-.28l-83.03-2.9a7.827 7.827 0 0 1-5.51-2.51 7.886 7.886 0 0 1-2.12-5.67L41 38.14c.07-2.11.97-4.07 2.51-5.51a7.844 7.844 0 0 1 5.67-2.12l83.03 2.9c4.36.15 7.78 3.82 7.63 8.18l-4.1 117.49c-.15 4.27-3.67 7.64-7.9 7.64l-.01-.01ZM48.9 31.49c-1.76 0-3.42.66-4.72 1.86a6.903 6.903 0 0 0-2.2 4.82l-4.1 117.49a6.85 6.85 0 0 0 1.86 4.96 6.922 6.922 0 0 0 4.82 2.2l83.03 2.9c1.86.07 3.61-.59 4.96-1.86a6.903 6.903 0 0 0 2.2-4.82l4.1-117.49c.13-3.82-2.86-7.03-6.68-7.16l-83.03-2.9h-.25.01Z" fill="#000"/><path d="M121.99 24.49H38.91a7.42 7.42 0 0 0-7.42 7.42v117.56a7.42 7.42 0 0 0 7.42 7.42h83.08a7.42 7.42 0 0 0 7.42-7.42V31.91a7.42 7.42 0 0 0-7.42-7.42Z" fill="#fff"/><path d="M121.99 157.38H38.91c-4.36 0-7.91-3.55-7.91-7.91V31.91c0-4.36 3.55-7.91 7.91-7.91h83.08c4.36 0 7.91 3.55 7.91 7.91v117.56c0 4.36-3.55 7.91-7.91 7.91ZM38.91 24.99c-3.81 0-6.92 3.11-6.92 6.92v117.56c0 3.82 3.11 6.92 6.92 6.92h83.08c3.82 0 6.92-3.11 6.92-6.92V31.91c0-3.82-3.11-6.92-6.92-6.92H38.91Z" fill="#000"/><path d="M103.13 68.66c0-4.37 3.54-7.91 7.91-7.91h17.71v88.1h-25.62V68.66Z" fill="#D7E8EF"/><path d="M93.8 73.39H44.89a.49.49 0 0 1 0-.98H93.8a.49.49 0 0 1 0 .98ZM120.49 73.39h-10.57a.49.49 0 0 1 0-.98h10.57a.49.49 0 0 1 0 .98Z" fill="#000"/><path d="M90.2 48.06H47.79a.49.49 0 0 1 0-.98h42.42a.49.49 0 0 1 0 .98h-.01Z" fill="#4B8151"/><path d="M93.8 85.26H44.89a.49.49 0 0 1 0-.98H93.8a.49.49 0 0 1 0 .98ZM120.49 85.26h-10.57a.49.49 0 0 1 0-.98h10.57a.49.49 0 0 1 0 .98ZM93.8 97.13H44.89a.49.49 0 0 1 0-.98H93.8a.49.49 0 0 1 0 .98ZM93.8 109H44.89a.49.49 0 0 1 0-.98H93.8a.49.49 0 0 1 0 .98ZM93.8 120.43H44.89a.49.49 0 0 1 0-.98H93.8a.49.49 0 0 1 0 .98ZM93.8 132.3H44.89a.49.49 0 0 1 0-.98H93.8a.49.49 0 0 1 0 .98ZM120.49 97.13h-10.57a.49.49 0 0 1 0-.98h10.57a.49.49 0 0 1 0 .98ZM120.49 109h-10.57a.49.49 0 0 1 0-.98h10.57a.49.49 0 0 1 0 .98ZM120.49 120.43h-10.57a.49.49 0 0 1 0-.98h10.57a.49.49 0 0 1 0 .98Z" fill="#000"/><path d="M162.68 117.32H86.24c-3 0-5.44 2.43-5.44 5.44v48.04c0 3 2.43 5.44 5.44 5.44h76.43c3 0 5.44-2.43 5.44-5.44v-48.04c0-3-2.43-5.44-5.44-5.44h.01Z" fill="#FF6842"/><path d="M162.68 176.73H86.24c-3.27 0-5.93-2.66-5.93-5.93v-48.04c0-3.27 2.66-5.93 5.93-5.93h76.43c3.27 0 5.93 2.66 5.93 5.93v48.04c0 3.27-2.66 5.93-5.93 5.93h.01Zm-76.43-58.91c-2.73 0-4.94 2.22-4.94 4.94v48.04a4.95 4.95 0 0 0 4.94 4.94h76.43c2.73 0 4.94-2.22 4.94-4.94v-48.04a4.95 4.95 0 0 0-4.94-4.94H86.24h.01Z" fill="#141414"/><path d="M168.11 126.35h-87.3v9.01h87.31v-9.01h-.01Z" fill="#141414"/><path d="M130.53 143.34H92.07v5.81h38.46v-5.81Z" fill="#fff"/><path d="M127.241 84.85c13.88 0 25.14-11.25 25.14-25.14s-11.26-25.14-25.14-25.14-25.14 11.25-25.14 25.14 11.25 25.14 25.14 25.14Z" fill="#212323"/><path d="M127.24 85.34c-14.13 0-25.63-11.5-25.63-25.63 0-14.13 11.5-25.63 25.63-25.63 14.13 0 25.63 11.5 25.63 25.63 0 14.13-11.5 25.63-25.63 25.63Zm0-50.27c-13.59 0-24.64 11.05-24.64 24.64s11.06 24.64 24.64 24.64 24.64-11.05 24.64-24.64-11.06-24.64-24.64-24.64Z" fill="#000"/><path d="M128.55 82.63c13.77 0 24.94-11.16 24.94-24.94 0-13.78-11.16-24.94-24.94-24.94-13.78 0-24.94 11.16-24.94 24.94 0 13.78 11.16 24.94 24.94 24.94Z" fill="#4B8151"/><path d="M128.55 83.12c-14.02 0-25.43-11.41-25.43-25.43s11.41-25.43 25.43-25.43 25.43 11.41 25.43 25.43-11.41 25.43-25.43 25.43Zm0-49.87c-13.48 0-24.44 10.96-24.44 24.44s10.97 24.44 24.44 24.44 24.44-10.96 24.44-24.44-10.96-24.44-24.44-24.44Z" fill="#000"/><path d="m141.669 51.13.35-.35-.35-.35-2.79-2.75-.35-.34-.35.34-14.26 14.1-5.64-5.58-.35-.34-.35.34-2.78 2.75-.36.35.36.35 8.78 8.68.35.34.35-.34 17.39-17.2Z" fill="#fff"/><path d="M123.94 69.37 113.76 59.3l4.19-4.15 5.99 5.93 14.61-14.45 4.19 4.15-18.79 18.59h-.01Zm-8.78-10.07 8.78 8.68 17.39-17.2-2.78-2.75-14.6 14.45-5.99-5.93-2.78 2.75h-.02Z" fill="#000"/></g><defs><clipPath id="a"><path fill="#fff" d="M31 24h137.61v152.73H31z"/></clipPath></defs></svg>