<svg width="200" height="200" viewBox="0 0 200 200" fill="none" xmlns="http://www.w3.org/2000/svg"><g clip-path="url(#a)"><g filter="url(#b)"><rect x="91.287" y="25.652" width="73.714" height="37.963" rx="2.921" fill="#FEDFC0"/><rect x="91.748" y="26.113" width="72.793" height="37.041" rx="2.46" stroke="#FFA078" stroke-width=".921"/></g><g filter="url(#c)"><rect x="36.002" y="25.652" width="50.627" height="37.97" rx="2.921" fill="#DCF0CB"/><rect x="36.463" y="26.113" width="49.705" height="37.048" rx="2.46" stroke="#66B37D" stroke-width=".921"/></g><g filter="url(#d)"><rect x="36.739" y="70.624" width="20.64" height="37.226" rx="2.184" stroke="#429BFF" stroke-width="1.474" stroke-dasharray="1.84 1.84"/></g><rect x="62.263" y="70.551" width="102.279" height="104.121" rx="6.911" fill="#CCD1D1"/><rect x="62.263" y="70.551" width="102.279" height="104.121" rx="6.911" fill="#fff" fill-opacity=".8"/><path fill-rule="evenodd" clip-rule="evenodd" d="M76.346 79.954h2.269v-1.135h1.134v1.135h2.268v-1.135h1.135v1.135h2.835V92.43H72.376V79.954h2.836v-1.135h1.134v1.135Zm8.507 4.537H73.51v6.805h11.343v-6.805Zm-9.641-3.403H73.51v2.269h11.343v-2.27h-1.701v1.135h-1.135v-1.134H79.75v1.134h-1.134v-1.134h-2.269v1.134h-1.134v-1.134Zm2.813 4.469v1.134h-3.403v-1.134h3.403Z" fill="#333"/><path d="M82.38 88.87v-1.135h-5.036v1.134h5.036Z" fill="#333"/><path d="M99.1 82.863h55.038v5.529H99.1v-5.529Z" fill="#D9D9D9"/><g clip-path="url(#e)" fill-rule="evenodd" clip-rule="evenodd" fill="#333"><path d="M73.246 103.433v11.025h-1.203v-11.025h1.203Z"/><path d="M85.41 111.722H72.647v-1.202h13.966v3.942H85.41v-2.74Z"/><path d="M78.726 105.168h5.278a2.606 2.606 0 0 1 2.606 2.606v3.341h-1.203v-3.341c0-.775-.628-1.403-1.403-1.403h-4.076v4.388h-1.202v-5.591ZM75.993 107.042a.735.735 0 1 0 0 1.47.735.735 0 0 0 0-1.47Zm-1.938.735a1.937 1.937 0 1 1 3.875-.001 1.937 1.937 0 0 1-3.875.001Z"/></g><path d="M99.1 106.493h29.485v5.529H99.1v-5.529Z" fill="#D9D9D9"/><path fill-rule="evenodd" clip-rule="evenodd" d="M79.332 134.271a5.177 5.177 0 0 1-2.143-2.101c-.505-.913-.738-1.972-.738-3.142 0-.249.021-.519.06-.807.027-.211.062-.42.104-.625a4.481 4.481 0 0 0-.855.703 5.331 5.331 0 0 0-1.096 1.709 5.36 5.36 0 0 0-.39 2.026c0 .755.134 1.427.39 2.027m1.086 1.569a4.632 4.632 0 0 1-1.085-1.569Zm-.606.641a5.522 5.522 0 0 1-1.29-1.863c-.307-.721-.461-1.512-.461-2.374 0-.818.151-1.603.454-2.355a6.205 6.205 0 0 1 1.275-1.988 5.256 5.256 0 0 1 1.907-1.286.914.914 0 0 1 .218-.059 1.27 1.27 0 0 1 .159-.015c.123 0 .214.038.273.114.06.076.09.153.09.231a.826.826 0 0 1-.067.302 3.697 3.697 0 0 0-.181.599 8.295 8.295 0 0 0-.137.76c-.035.26-.052.49-.052.691 0 1.053.21 1.959.628 2.716a4.297 4.297 0 0 0 1.785 1.749c.771.409 1.684.613 2.739.613.35 0 .688-.032 1.016-.095.328-.064.605-.133.832-.206.113-.034.207-.051.28-.051.084 0 .166.033.244.099a.34.34 0 0 1 .119.275 1.427 1.427 0 0 1-.066.368 4.785 4.785 0 0 1-1.158 1.723 6.077 6.077 0 0 1-4.261 1.694 6.6 6.6 0 0 1-2.41-.43 5.883 5.883 0 0 1-1.936-1.212Zm8.594-1.409-.07.014c-.386.075-.78.111-1.184.111-1.169 0-2.23-.227-3.152-.716m4.406.591a4.204 4.204 0 0 1-.602.726 5.196 5.196 0 0 1-3.646 1.444 5.743 5.743 0 0 1-2.09-.37 5.015 5.015 0 0 1-1.65-1.032" fill="#333"/><path d="M99.1 129.947h29.485v5.529H99.1v-5.529Z" fill="#D9D9D9"/><rect x="71.018" y="147.491" width="84.771" height="16.586" rx="8.293" fill="#FF6842"/><rect x="62.263" y="70.551" width="102.279" height="104.121" rx="6.911" stroke="#000" stroke-width=".921"/></g><defs><filter id="b" x="89.34" y="24.679" width="77.608" height="41.857" filterUnits="userSpaceOnUse" color-interpolation-filters="sRGB"><feFlood flood-opacity="0" result="BackgroundImageFix"/><feColorMatrix in="SourceAlpha" values="0 0 0 0 0 0 0 0 0 0 0 0 0 0 0 0 0 0 127 0" result="hardAlpha"/><feOffset dy=".974"/><feGaussianBlur stdDeviation=".974"/><feColorMatrix values="0 0 0 0 0.898039 0 0 0 0 0.909804 0 0 0 0 0.909804 0 0 0 0.54 0"/><feBlend in2="BackgroundImageFix" result="effect1_dropShadow_20973_1578"/><feBlend in="SourceGraphic" in2="effect1_dropShadow_20973_1578" result="shape"/></filter><filter id="c" x="34.055" y="24.679" width="54.521" height="41.864" filterUnits="userSpaceOnUse" color-interpolation-filters="sRGB"><feFlood flood-opacity="0" result="BackgroundImageFix"/><feColorMatrix in="SourceAlpha" values="0 0 0 0 0 0 0 0 0 0 0 0 0 0 0 0 0 0 127 0" result="hardAlpha"/><feOffset dy=".974"/><feGaussianBlur stdDeviation=".974"/><feColorMatrix values="0 0 0 0 0.898039 0 0 0 0 0.909804 0 0 0 0 0.909804 0 0 0 0.54 0"/><feBlend in2="BackgroundImageFix" result="effect1_dropShadow_20973_1578"/><feBlend in="SourceGraphic" in2="effect1_dropShadow_20973_1578" result="shape"/></filter><filter id="d" x="34.055" y="68.913" width="26.009" height="42.594" filterUnits="userSpaceOnUse" color-interpolation-filters="sRGB"><feFlood flood-opacity="0" result="BackgroundImageFix"/><feColorMatrix in="SourceAlpha" values="0 0 0 0 0 0 0 0 0 0 0 0 0 0 0 0 0 0 127 0" result="hardAlpha"/><feOffset dy=".974"/><feGaussianBlur stdDeviation=".974"/><feColorMatrix values="0 0 0 0 0.898039 0 0 0 0 0.909804 0 0 0 0 0.909804 0 0 0 0.54 0"/><feBlend in2="BackgroundImageFix" result="effect1_dropShadow_20973_1578"/><feBlend in="SourceGraphic" in2="effect1_dropShadow_20973_1578" result="shape"/></filter><clipPath id="a"><path fill="#fff" d="M0 0h200v200H0z"/></clipPath><clipPath id="e"><path fill="#fff" d="M71.018 101.091h16.334v16.334H71.018z"/></clipPath></defs></svg>