<svg width="200" height="200" viewBox="0 0 200 200" fill="none" xmlns="http://www.w3.org/2000/svg"><g clip-path="url(#a)"><path d="M164.5 65.22h-137v71.49c0 4.42 3.58 8 8 8h121c4.42 0 8-3.58 8-8V65.22Z" fill="#F5EEE8"/><path d="M156.5 145.21h-121c-4.69 0-8.5-3.81-8.5-8.5V64.72h138v71.99c0 4.69-3.81 8.5-8.5 8.5ZM28 65.72v70.99c0 4.14 3.36 7.5 7.5 7.5h121c4.14 0 7.5-3.36 7.5-7.5V65.72H28Z" fill="#010101"/><path d="M156.5 45.91h-121c-4.42 0-8 3.58-8 8v13h137v-13c0-4.42-3.58-8-8-8Z" fill="#D7E8EF"/><path d="M165 67.41H27v-13.5c0-4.69 3.81-8.5 8.5-8.5h121c4.69 0 8.5 3.81 8.5 8.5v13.5Zm-137-1h136v-12.5c0-4.14-3.36-7.5-7.5-7.5h-121c-4.14 0-7.5 3.36-7.5 7.5v12.5Z" fill="#010101"/><path d="M67.25 33.5H53.3v25.51h13.95V33.5Z" fill="#D7E8EF"/><path d="M67.75 59.51H52.8V33h14.95v26.51Zm-13.95-1h12.95V34H53.8v24.51Z" fill="#010101"/><path d="M138.57 33.5h-13.95v25.51h13.95V33.5Z" fill="#D7E8EF"/><path d="M139.07 59.51h-14.95V33h14.95v26.51Zm-13.95-1h12.95V34h-12.95v24.51Z" fill="#010101"/><path d="M95.01 78.89H40.47v12.83h54.55V78.89h-.01Z" fill="#FF662C"/><path d="M95.51 92.21H39.97V78.38h55.55v13.83h-.01Zm-54.55-1h53.55V79.38H40.97v11.83h-.01Z" fill="#010101"/><path d="M62.03 117.37H40.47v12.83h21.56v-12.83Z" fill="#FF662C"/><path d="M62.53 130.7H39.97v-13.83h22.56v13.83Zm-21.56-1h20.56v-11.83H40.97v11.83Z" fill="#010101"/><path d="M152.38 117.37h-35.94v12.83h35.94v-12.83Z" fill="#FF662C"/><path d="M152.88 130.7h-36.94v-13.83h36.94v13.83Zm-35.94-1h34.94v-11.83h-34.94v11.83Z" fill="#010101"/><path d="M130.53 98.06H75.98v12.83h54.55V98.06Z" fill="#fff"/><path d="M131.03 111.39H75.48V97.56h55.55v13.83Zm-54.55-1h53.55V98.56H76.48v11.83Z" fill="#010101"/><path d="m78.27 137.071-.13 27.25-8.95-.12-16.9-13.63 17.02-13.51h8.95l.01.01Z" fill="#000"/><path d="m78.64 164.83-9.63-.13-17.52-14.13 17.65-14h9.63l-.13 28.26Zm-9.27-1.12 8.27.11.12-26.25h-8.27l-16.4 13.01 16.27 13.13h.01Z" fill="#000"/><path d="M60.09 144.38v12.47l-7.79-6.24 7.79-6.23Z" fill="#000"/><path d="m60.59 157.89-9.09-7.27 9.09-7.27v14.55-.01Zm-7.49-7.27 6.49 5.19v-10.39l-6.49 5.19v.01ZM154.07 164.26l-75.62-.13.05-27.13 75.62.13-.05 27.13Z" fill="#000"/><path d="m154.57 164.77-76.62-.14.05-28.13 76.62.13-.05 28.13v.01Zm-75.62-1.13 74.62.13.05-26.13-74.62-.13-.05 26.13Z" fill="#000"/><path d="M157.84 164.26h-3.91v-27.15h3.92c7.23-.12 13.13 5.43 13.13 12.42v2.18c0 6.87-5.77 12.55-13.14 12.55Z" fill="#000"/><path d="M157.84 164.76h-4.41v-28.15h4.41c3.7-.04 7.22 1.31 9.82 3.86 2.46 2.42 3.82 5.64 3.82 9.06v2.17c0 7.2-6.12 13.05-13.64 13.05v.01Zm-3.41-1h3.41c6.97 0 12.64-5.41 12.64-12.05v-2.17c0-3.15-1.25-6.12-3.52-8.35-2.4-2.36-5.65-3.61-9.1-3.58h-3.43v26.15Z" fill="#000"/><path d="M145.91 155.2H86.67v1h59.24v-1ZM145.91 145.7H86.67v1h59.24v-1Z" fill="#010101"/><path d="m80.52 139.08-.13 27.25-8.95-.12-16.9-13.63 17.02-13.51h8.95l.01.01Z" fill="#FFF1E2"/><path d="m80.89 166.84-9.63-.13-17.52-14.13 17.65-14h9.63l-.13 28.26Zm-9.27-1.12 8.27.11.12-26.25h-8.27l-16.4 13.01 16.27 13.13h.01Z" fill="#000"/><path d="M62.33 146.4v12.47l-7.79-6.23 7.79-6.24Z" fill="#484B4B"/><path d="m62.83 159.91-9.09-7.27 9.09-7.28v14.55Zm-7.49-7.27 6.49 5.19v-10.39l-6.49 5.2Z" fill="#000"/><path d="m156.31 166.28-75.62-.13.05-27.13 75.62.13-.05 27.13Z" fill="#FFD12B"/><path d="m156.81 166.78-76.62-.14.05-28.13 76.62.14-.05 28.13Zm-75.62-1.13 74.62.13.05-26.13-74.62-.13-.05 26.13Z" fill="#000"/><path d="M160.09 166.28h-3.91v-27.15h3.92c7.23-.12 13.13 5.43 13.13 12.42v2.18c0 6.87-5.77 12.55-13.14 12.55Z" fill="#FFC9D8"/><path d="M160.09 166.78h-4.41v-28.15h4.41c3.73-.04 7.22 1.31 9.82 3.86 2.46 2.42 3.82 5.64 3.82 9.06v2.18c0 7.2-6.12 13.05-13.64 13.05Zm-3.41-1h3.41c6.97 0 12.64-5.41 12.64-12.05v-2.18c0-3.15-1.25-6.12-3.52-8.35-2.35-2.31-5.49-3.58-8.87-3.58h-3.66v26.16Z" fill="#000"/><path d="M148.14 157.22H88.91v1h59.23v-1ZM148.14 147.71H88.91v1h59.23v-1Z" fill="#010101"/></g><defs><clipPath id="a"><path fill="#fff" d="M27 33h146.72v133.84H27z"/></clipPath></defs></svg>