<svg width="200" height="200" viewBox="0 0 200 200" fill="none" xmlns="http://www.w3.org/2000/svg"><g clip-path="url(#a)"><path d="M72.77 28.5c-29.6 0-53.27 20.27-53.27 45.13 0 12.43 5.92 23.78 15.6 31.89l-12.1 10c-.27.27-.54.54-.54.81v1.08c0 .27.27.54.54.81s.54.27 1.08.27h48.7c29.33 0 53.27-20.27 53.27-45.13.27-24.58-23.67-44.85-53.27-44.85l-.01-.01Z" fill="#000"/><path d="M72.78 119h-48.7c-.57 0-1.02 0-1.43-.42-.32-.32-.69-.69-.69-1.17v-1.08c0-.48.36-.84.69-1.17l11.68-9.65C24.44 97.04 19 85.74 19 73.63 19 48.47 43.12 28 72.77 28h.21c15.98.06 31 6.01 41.23 16.36 8.07 8.16 12.45 18.46 12.33 29.01 0 25.16-24.12 45.63-53.77 45.63h.01Zm-.21-90C43.56 29.1 20 49.08 20 73.63c0 11.99 5.48 23.18 15.43 31.51l.46.39-12.57 10.38c-.1.11-.34.34-.36.44v1.07c.02.09.26.32.39.46.11.11.19.12.73.12h48.7c29.1 0 52.77-20.02 52.77-44.63.11-10.29-4.16-20.34-12.04-28.3-10.1-10.21-24.94-16.06-40.73-16.06h-.21V29Z" fill="#000"/><path d="M87.17 65.95h6.53v-6.18H76.36v-6.94h-6.39v6.94H52.89v6.18h6.42c2.27 6.16 5.15 11.48 8.9 15.91-4.29 3.21-9.51 5.57-15.73 7.22l-.75.2.49.6c1.02 1.25 2.65 3.76 3.24 5.03l.18.4.42-.13c6.54-2.07 12.14-4.9 16.84-8.65 4.61 3.86 10.24 6.73 17.17 8.56l.38.1.19-.35c.81-1.51 2.48-3.97 3.69-5.15l.66-.64-.9-.2c-6.37-1.45-11.7-3.89-16.06-7.18 3.83-4.29 6.86-9.49 9.14-15.72Zm-7.19 0c-1.72 4.42-3.96 8.16-6.77 11.32-2.97-3.27-5.3-7.07-7.03-11.32h13.8Z" fill="#000"/><path d="m55.37 95.93-.37-.8c-.55-1.2-2.15-3.68-3.17-4.92l-.98-1.2 1.5-.4c6.06-1.61 11.02-3.85 15.14-6.82-3.43-4.16-6.23-9.18-8.52-15.32H52.4v-7.18h17.08v-6.94h7.39v6.94h17.34v7.18h-6.68c-2.22 5.96-5.09 10.92-8.75 15.15 4.3 3.15 9.49 5.43 15.43 6.77l1.79.41-1.32 1.28c-1.13 1.1-2.77 3.49-3.6 5.03l-.37.69-.76-.2c-6.76-1.79-12.34-4.54-17.06-8.4-4.63 3.62-10.09 6.39-16.68 8.48l-.84.27v-.02Zm-2.76-6.36c1.08 1.31 2.71 3.86 3.3 5.14 6.63-2.1 12.08-4.9 16.68-8.56l.32-.25.31.26c4.66 3.91 10.22 6.68 16.98 8.46.86-1.6 2.55-4.07 3.78-5.27-6.28-1.43-11.75-3.87-16.25-7.27l-.43-.33.36-.4c3.82-4.29 6.78-9.38 9.04-15.56l.12-.33h6.38v-5.18H75.86v-6.94h-5.39v6.94H53.39v5.18h6.27l.12.33c2.36 6.38 5.24 11.54 8.81 15.76l.34.41-.43.32c-4.3 3.21-9.5 5.6-15.9 7.3l.01-.01Zm20.62-11.55-.37-.41c-2.94-3.24-5.34-7.1-7.12-11.47l-.28-.69h15.28l-.27.68c-1.74 4.49-3.99 8.24-6.86 11.47l-.37.42h-.01Zm-6.28-11.57c1.63 3.79 3.73 7.17 6.28 10.07 2.47-2.88 4.46-6.19 6.04-10.07H66.95Z" fill="#000"/><path d="M74.77 30.5c-29.6 0-53.27 20.27-53.27 45.13 0 12.43 5.92 23.78 15.6 31.89l-12.1 10c-.27.27-.54.54-.54.81v1.08c0 .27.27.54.54.81s.54.27 1.08.27h48.7c29.33 0 53.27-20.27 53.27-45.13.27-24.59-23.67-44.86-53.27-44.86h-.01Z" fill="#FFF5EE"/><path d="M74.78 121h-48.7c-.57 0-1.02 0-1.43-.42-.32-.32-.69-.69-.69-1.17v-1.08c0-.48.36-.84.69-1.17l11.68-9.65C26.44 99.03 21 87.73 21 75.62 21 50.47 45.12 30 74.77 30h.21c15.98.06 31 6.01 41.23 16.36 8.07 8.16 12.45 18.46 12.33 29.01 0 25.16-24.12 45.63-53.77 45.63h.01Zm-.21-90C45.56 31.1 22 51.08 22 75.63c0 11.99 5.48 23.18 15.43 31.51l.46.39-12.57 10.38c-.1.11-.34.34-.36.44v1.07c.02.09.26.32.39.46.11.11.19.12.73.12h48.7c29.1 0 52.77-20.02 52.77-44.63.11-10.29-4.16-20.34-12.04-28.3-10.1-10.21-24.94-16.06-40.73-16.06h-.21V31Z" fill="#000"/><path d="M89.17 67.95h6.53v-6.18H78.36v-6.94h-6.39v6.94H54.89v6.18h6.42c2.27 6.16 5.15 11.48 8.9 15.91-4.29 3.21-9.51 5.57-15.73 7.22l-.75.2.49.6c1.02 1.25 2.65 3.76 3.24 5.03l.18.4.42-.13c6.54-2.07 12.14-4.9 16.84-8.65 4.61 3.86 10.24 6.73 17.17 8.56l.38.1.19-.35c.81-1.51 2.48-3.97 3.69-5.15l.66-.64-.9-.2c-6.37-1.45-11.7-3.89-16.06-7.18 3.83-4.29 6.86-9.49 9.14-15.72Zm-7.19 0c-1.72 4.42-3.96 8.16-6.77 11.32-2.97-3.27-5.3-7.07-7.03-11.32h13.8Z" fill="#fff"/><path d="m57.37 97.93-.37-.8c-.55-1.2-2.15-3.68-3.17-4.92l-.98-1.2 1.5-.4c6.06-1.61 11.02-3.85 15.14-6.82-3.43-4.16-6.23-9.18-8.52-15.32H54.4v-7.18h17.08v-6.94h7.39v6.94h17.34v7.18h-6.68c-2.22 5.96-5.09 10.92-8.75 15.15 4.3 3.15 9.49 5.43 15.43 6.77l1.79.41-1.32 1.28c-1.13 1.1-2.77 3.49-3.6 5.03l-.37.69-.76-.2c-6.76-1.79-12.34-4.54-17.06-8.4-4.63 3.62-10.09 6.39-16.68 8.48l-.84.27v-.02Zm-2.76-6.36c1.08 1.31 2.71 3.86 3.3 5.14 6.63-2.1 12.08-4.9 16.68-8.56l.32-.25.31.26c4.66 3.91 10.22 6.68 16.98 8.46.86-1.6 2.55-4.07 3.78-5.27-6.28-1.43-11.75-3.87-16.25-7.27l-.43-.33.36-.4c3.82-4.29 6.78-9.38 9.04-15.56l.12-.33h6.38v-5.18H77.86v-6.94h-5.39v6.94H55.39v5.18h6.27l.12.33c2.36 6.38 5.24 11.54 8.81 15.76l.34.41-.43.32c-4.3 3.21-9.5 5.6-15.9 7.3l.01-.01Zm20.62-11.55-.37-.41c-2.94-3.24-5.34-7.1-7.12-11.47l-.28-.69h15.28l-.27.68c-1.74 4.49-3.99 8.24-6.86 11.47l-.37.42h-.01Zm-6.28-11.57c1.63 3.79 3.73 7.17 6.28 10.07 2.47-2.88 4.46-6.19 6.04-10.07H68.95Z" fill="#000"/><path d="M123.5 76.5c30.56 0 55 20.92 55 46.59 0 12.83-6.11 24.55-16.11 32.92l12.49 10.32c.28.28.56.56.56.84v1.12c0 .28-.28.56-.56.84-.28.28-.56.28-1.11.28H123.5c-30.28 0-55-20.92-55-46.59-.28-25.39 24.44-46.31 55-46.31v-.01Z" fill="#000"/><path d="M173.77 169.91H123.5c-30.6 0-55.5-21.13-55.5-47.09-.12-10.88 4.4-21.52 12.73-29.93 10.57-10.68 26.07-16.83 42.56-16.88h.21c30.6 0 55.5 21.13 55.5 47.09 0 12.5-5.62 24.17-15.83 32.92l12.03 9.94c.37.36.74.74.74 1.22v1.12c0 .49-.37.86-.7 1.19-.42.43-.86.43-1.47.43v-.01ZM123.5 77c-16.3 0-31.63 6.04-42.06 16.58-8.14 8.23-12.55 18.6-12.44 29.22 0 25.42 24.45 46.1 54.5 46.1h50.27c.56 0 .64-.01.76-.13.15-.15.39-.39.42-.5v-1.11c-.02-.09-.27-.34-.41-.49L161.62 156l.46-.39c10.27-8.6 15.93-20.16 15.93-32.54 0-25.36-24.33-46-54.29-46.09h-.21l-.01.02Z" fill="#000"/><path d="m136.69 145.03.12.32h9.32l-.27-.68-17.38-43.79-.13-.32h-9.7l-.12.32-17.38 43.79-.27.68h8.95l.12-.32 4-10.41h18.81l3.94 10.41h-.01Zm-13.25-34.95 6.52 17.22h-13.14l6.63-17.22h-.01Z" fill="#000"/><path d="M146.87 145.85h-10.4l-4.06-10.73h-18.12l-4.12 10.73h-10.03l18.18-45.79h10.38l18.18 45.79h-.01Zm-9.71-1h8.24l-17.38-43.79H119l-17.38 43.79h7.87l4.12-10.73h19.5l4.06 10.73h-.01Zm-6.48-17.05h-14.6l7.36-19.13 7.24 19.13Zm-13.14-1h11.69l-5.8-15.32-5.89 15.32Z" fill="#000"/><path d="M126.06 78.59c30.55 0 54.99 20.92 54.99 46.59 0 12.83-6.11 24.55-16.11 32.92l12.5 10.32c.28.28.56.56.56.84v1.12c0 .28-.28.56-.56.84-.28.28-.56.28-1.11.28h-50.27c-30.28 0-55-20.92-55-46.59-.28-25.39 24.44-46.31 55-46.31v-.01Z" fill="#FF6842"/><path d="M176.32 172h-50.27c-30.6 0-55.5-21.13-55.5-47.09-.12-10.88 4.4-21.52 12.73-29.93 10.57-10.68 26.07-16.83 42.56-16.88h.21c30.6 0 55.5 21.13 55.5 47.09 0 12.5-5.62 24.17-15.83 32.92l12.03 9.94c.37.36.74.74.74 1.22v1.12c0 .49-.37.86-.7 1.19-.42.43-.86.43-1.47.43V172Zm-50.27-92.91c-16.31 0-31.64 6.04-42.06 16.58-8.14 8.23-12.55 18.6-12.44 29.22 0 25.42 24.45 46.1 54.5 46.1h50.27c.56 0 .64-.01.76-.13.14-.14.39-.39.41-.5v-1.11c-.02-.09-.28-.35-.41-.49l-12.92-10.67.46-.39c10.27-8.6 15.93-20.16 15.93-32.54 0-25.36-24.33-46-54.29-46.09h-.21v.02Z" fill="#000"/><path d="m139.241 147.111.12.32h9.32l-.27-.68-17.38-43.79-.13-.32h-9.7l-.13.32-17.38 43.79-.27.68h8.95l.12-.32 4-10.41h18.81l3.93 10.41h.01Zm-13.25-34.95 6.52 17.22h-13.14l6.63-17.22h-.01Z" fill="#fff"/><path d="M149.42 147.94h-10.4l-4.06-10.73h-18.12l-4.12 10.73h-10.03l18.18-45.79h10.38l18.18 45.79h-.01Zm-9.71-1h8.24l-17.38-43.79h-9.03l-17.38 43.79h7.87l4.12-10.73h19.5l4.06 10.73Zm-6.48-17.05h-14.6l7.36-19.13 7.24 19.13Zm-13.14-1h11.69l-5.8-15.32-5.89 15.32Z" fill="#000"/></g><defs><clipPath id="a"><path fill="#fff" d="M19 28h162.55v144H19z"/></clipPath></defs></svg>