<svg width="200" height="200" viewBox="0 0 200 200" fill="none" xmlns="http://www.w3.org/2000/svg">
<path d="M87.53 34.4814C87.5541 26.7621 93.8306 20.5211 101.554 20.5451C109.276 20.5692 115.514 26.8493 115.49 34.5686C115.466 42.2879 109.186 48.529 101.466 48.5049C93.7471 48.4809 87.506 42.2007 87.53 34.4814ZM94.8699 34.5043C94.8584 38.1727 97.8209 41.1537 101.489 41.1651C105.158 41.1765 108.139 38.2141 108.15 34.5457C108.161 30.8774 105.199 27.8964 101.531 27.885C97.8623 27.8735 94.8813 30.836 94.8699 34.5043Z" fill="#FFD12B" stroke="black"/>
<path d="M122.769 151.539C122.731 163.729 112.818 173.58 100.629 173.542C88.4389 173.504 78.5879 163.591 78.6259 151.401C78.6639 139.211 88.5765 129.36 100.766 129.399C112.956 129.437 122.807 139.349 122.769 151.539Z" fill="#FFD12B" stroke="black"/>
<path d="M123.001 151H78.501L79.001 154H122.501L123.001 151Z" fill="black" stroke="black"/>
<path d="M159.98 126.027L159.98 126.028C163.78 129.518 167.079 132.752 166.931 138.033C166.745 144.621 161.367 148.992 155.178 150.447L155.178 150.447C153.084 150.94 150.902 151.12 148.733 151.113L100.698 150.963L52.6623 150.814C50.4936 150.807 48.313 150.613 46.222 150.107L46.2218 150.107C40.0417 148.614 34.6879 144.209 34.5459 137.62L34.046 137.631L34.5459 137.62C34.4316 132.338 37.7505 129.129 41.5647 125.658C48.4662 119.391 51.8237 111.179 53.7328 102.461C55.0288 96.5421 55.665 90.3388 56.2806 84.3362C56.5692 81.5232 56.8531 78.7542 57.1984 76.0793C59.9435 54.819 70.9167 44.5844 81.1733 39.6394C86.3141 37.1609 91.2873 36.0063 94.977 35.4719C96.821 35.2048 98.342 35.093 99.3996 35.048C99.9284 35.0254 100.341 35.0196 100.62 35.0193C100.76 35.0191 100.866 35.0204 100.937 35.0217C100.972 35.0223 100.998 35.0229 101.015 35.0234L101.034 35.024L101.038 35.0241L101.039 35.0241L101.039 35.0241L101.056 35.0247L101.072 35.0242L101.072 35.0242L101.073 35.0242L101.077 35.0241L101.096 35.0237C101.113 35.0233 101.139 35.0228 101.175 35.0224C101.245 35.0216 101.351 35.021 101.491 35.022C101.77 35.024 102.183 35.0324 102.711 35.0583C103.769 35.11 105.289 35.2312 107.131 35.5098C110.817 36.0672 115.783 37.2528 120.909 39.7633C131.134 44.7722 142.043 55.075 144.656 76.352C144.984 79.029 145.251 81.7997 145.522 84.6145C146.1 90.6208 146.698 96.8279 147.957 102.754C149.811 111.485 153.118 119.718 159.98 126.027Z" fill="#FFD12B" stroke="black"/>
<path d="M153.785 118.4L47.8196 118.07C50.601 113.527 52.3633 108.465 53.5714 103.2L148.126 103.495C149.298 108.767 151.032 113.84 153.785 118.4Z" fill="#FFA078" stroke="black"/>
<path d="M136.085 68.6924C147.453 68.6924 156.669 59.4709 156.669 48.0962C156.669 36.7215 147.453 27.5 136.085 27.5C124.716 27.5 115.5 36.7215 115.5 48.0962C115.5 59.4709 124.716 68.6924 136.085 68.6924Z" fill="#FF6842" stroke="black"/>
<path d="M133.348 58.9226C133.348 60.4886 134.582 61.7234 136.148 61.7234C137.705 61.7234 138.984 60.4984 138.984 58.9226C138.984 57.3566 137.714 56.0869 136.148 56.0869C134.573 56.0869 133.348 57.3665 133.348 58.9226Z" fill="#FF6842" stroke="black"/>
<path d="M132.242 35.8103L133.971 53.717C134.01 54.118 134.22 54.4829 134.547 54.7184C134.785 54.89 135.071 54.9823 135.365 54.9823H136.936C137.229 54.9823 137.516 54.89 137.754 54.7184C138.081 54.4829 138.29 54.118 138.329 53.717L140.059 35.8103C140.103 35.3578 139.903 34.9162 139.534 34.6506C139.316 34.4939 139.055 34.4097 138.787 34.4097H133.513C133.245 34.4097 132.984 34.4939 132.767 34.6506C132.398 34.9162 132.198 35.3578 132.242 35.8103Z" fill="#FF6842" stroke="black"/>
<path d="M136.662 69.8467C148.031 69.8467 157.246 60.6252 157.246 49.2505C157.246 37.8758 148.031 28.6543 136.662 28.6543C125.293 28.6543 116.077 37.8758 116.077 49.2505C116.077 60.6252 125.293 69.8467 136.662 69.8467Z" fill="#FF6842" stroke="black"/>
</svg>
