<svg width="200" height="200" viewBox="0 0 200 200" fill="none" xmlns="http://www.w3.org/2000/svg"><g clip-path="url(#a)"><path d="M150.25 39.5H29.4c-2.15 0-3.9 2.17-3.9 4.86v99.29c0 2.68 1.75 4.86 3.9 4.86h120.85c2.15 0 3.9-2.17 3.9-4.86V44.36c0-2.68-1.75-4.86-3.9-4.86Z" fill="#FFF5EE"/><path d="M150.25 149H29.4c-2.43 0-4.4-2.4-4.4-5.36V44.36C25 41.4 26.97 39 29.4 39h120.85c2.43 0 4.4 2.4 4.4 5.36v99.29c0 2.95-1.97 5.36-4.4 5.36V149ZM29.4 40c-1.87 0-3.4 1.95-3.4 4.36v99.29c0 2.4 1.53 4.36 3.4 4.36h120.85c1.88 0 3.4-1.95 3.4-4.36V44.36c0-2.4-1.53-4.36-3.4-4.36H29.4Z" fill="#6D7272"/><path d="M29.4 39.5h120.85c1.03 0 2.02.51 2.75 1.42.73.91 1.14 2.14 1.14 3.42V59.8H25.5V44.36c0-.64.1-1.27.29-1.86.2-.59.48-1.13.85-1.58.36-.45.79-.81 1.27-1.05.47-.24.98-.37 1.49-.37Z" fill="#FAAF9C"/><path d="M154.63 60.3H25V44.36c0-.7.11-1.37.32-2.02.22-.65.53-1.23.93-1.73.41-.51.89-.91 1.43-1.18.55-.28 1.12-.38 1.72-.42h120.84c1.18 0 2.32.58 3.14 1.6.81 1 1.25 2.33 1.25 3.74v15.96-.01ZM26 59.3h127.63V44.34c0-1.16-.38-2.3-1.03-3.11-.64-.79-1.48-1.23-2.36-1.23H29.4c-.47.01-.86.1-1.26.31-.41.21-.79.52-1.11.92a4.5 4.5 0 0 0-.76 1.42c-.18.54-.27 1.11-.27 1.7V59.3Z" fill="#6D7272"/><path d="M39 49.5c0 1.93-1.57 3.5-3.5 3.5S32 51.43 32 49.5s1.57-3.5 3.5-3.5 3.5 1.57 3.5 3.5Z" fill="#fff"/><path d="M35.5 53.5c-2.21 0-4-1.79-4-4s1.79-4 4-4 4 1.79 4 4-1.79 4-4 4Zm0-7c-1.65 0-3 1.35-3 3s1.35 3 3 3 3-1.35 3-3-1.35-3-3-3Z" fill="#6D7272"/><path d="M52 49.5c0 1.93-1.57 3.5-3.5 3.5S45 51.43 45 49.5s1.57-3.5 3.5-3.5 3.5 1.57 3.5 3.5Z" fill="#fff"/><path d="M48.5 53.5c-2.21 0-4-1.79-4-4s1.79-4 4-4 4 1.79 4 4-1.79 4-4 4Zm0-7c-1.65 0-3 1.35-3 3s1.35 3 3 3 3-1.35 3-3-1.35-3-3-3Z" fill="#6D7272"/><path d="M65 49.5c0 1.93-1.57 3.5-3.5 3.5S58 51.43 58 49.5s1.57-3.5 3.5-3.5 3.5 1.57 3.5 3.5Z" fill="#fff"/><path d="M61.5 53.5c-2.21 0-4-1.79-4-4s1.79-4 4-4 4 1.79 4 4-1.79 4-4 4Zm0-7c-1.65 0-3 1.35-3 3s1.35 3 3 3 3-1.35 3-3-1.35-3-3-3Z" fill="#6D7272"/><path d="M50.45 82.73a5.055 5.055 0 0 1-5.39 4.68 5.055 5.055 0 0 1-4.68-5.39c.2-2.78 2.61-4.87 5.39-4.68 2.78.2 4.87 2.61 4.68 5.39Z" fill="#FAE1D6"/><path d="M45.42 87.92c-.13 0-.26 0-.39-.01a5.543 5.543 0 0 1-5.14-5.92 5.537 5.537 0 0 1 5.92-5.14c1.48.1 2.83.78 3.8 1.89a5.471 5.471 0 0 1 1.34 4.02c-.2 2.92-2.65 5.16-5.53 5.16Zm0-10.09a4.55 4.55 0 0 0-4.53 4.23 4.537 4.537 0 0 0 4.21 4.85c2.5.17 4.68-1.71 4.85-4.21.18-2.5-1.72-4.68-4.21-4.85-.11 0-.22-.01-.32-.01v-.01Z" fill="#6D7272"/><path d="m60.6 79.84 76.9.28c1.28 0 2.31 1.04 2.31 2.32 0 1.27-1.04 2.31-2.32 2.3l-76.9-.28c-1.28 0-2.31-1.04-2.31-2.32 0-1.27 1.04-2.31 2.32-2.3Z" fill="#FAE1D6"/><path d="m137.49 85.24-76.9-.28c-.75 0-1.46-.3-1.99-.83s-.82-1.24-.82-1.99c0-1.55 1.24-2.83 2.83-2.8l76.9.28c.75 0 1.46.3 1.99.83s.82 1.24.82 1.99c0 1.54-1.27 2.8-2.81 2.8h-.02Zm-76.9-4.9c-1 0-1.81.81-1.82 1.8 0 .48.19.94.53 1.28.34.34.8.53 1.28.54l76.9.28c1 0 1.81-.81 1.81-1.8 0-.48-.18-.94-.53-1.28-.34-.34-.8-.53-1.28-.54l-76.9-.28h.01Z" fill="#6D7272"/><path d="M50.45 104.57a5.055 5.055 0 0 1-5.39 4.68 5.055 5.055 0 0 1-4.68-5.39c.2-2.78 2.61-4.87 5.39-4.68 2.78.2 4.87 2.61 4.68 5.39Z" fill="#FAE1D6"/><path d="M45.42 109.76c-.13 0-.26 0-.39-.01a5.543 5.543 0 0 1-5.14-5.92 5.537 5.537 0 0 1 5.92-5.14c1.48.1 2.83.78 3.8 1.89a5.485 5.485 0 0 1 1.34 4.02 5.561 5.561 0 0 1-5.53 5.16Zm0-10.09a4.55 4.55 0 0 0-4.53 4.23 4.537 4.537 0 0 0 4.21 4.85c2.5.18 4.68-1.71 4.85-4.21a4.57 4.57 0 0 0-1.1-3.3c-.8-.92-1.9-1.47-3.11-1.55-.11 0-.22-.01-.32-.01v-.01Z" fill="#6D7272"/><path d="m60.6 101.67 76.9.28c1.28 0 2.31 1.04 2.31 2.32 0 1.27-1.04 2.31-2.32 2.3l-76.9-.28c-1.28 0-2.31-1.04-2.31-2.32 0-1.27 1.04-2.31 2.32-2.3Z" fill="#FAE1D6"/><path d="M137.49 107.08h-.01l-76.9-.28a2.81 2.81 0 0 1 .01-5.62h.01l76.9.28c.75 0 1.46.3 1.99.83s.82 1.24.82 1.99c0 1.55-1.27 2.8-2.81 2.8h-.01Zm-76.9-4.9c-1 0-1.81.81-1.81 1.8 0 1 .81 1.81 1.81 1.82l76.9.28c.97 0 1.82-.81 1.82-1.8 0-.48-.18-.94-.53-1.28-.34-.34-.8-.53-1.28-.54l-76.9-.28h-.01Z" fill="#6D7272"/><path d="M50.45 126.41a5.055 5.055 0 0 1-5.39 4.68 5.055 5.055 0 0 1-4.68-5.39c.19-2.78 2.61-4.87 5.39-4.68 2.78.2 4.87 2.61 4.68 5.39Z" fill="#FAE1D6"/><path d="M45.42 131.6c-.13 0-.26 0-.39-.01-1.48-.1-2.83-.78-3.8-1.89a5.495 5.495 0 0 1-1.34-4.03c.21-3.05 2.87-5.34 5.92-5.14 3.05.21 5.36 2.87 5.14 5.92a5.561 5.561 0 0 1-5.53 5.16v-.01Zm0-10.09a4.55 4.55 0 0 0-3.43 7.53c.79.92 1.9 1.47 3.11 1.55 2.5.18 4.68-1.71 4.85-4.21.18-2.5-1.72-4.68-4.21-4.85-.11 0-.22-.01-.32-.01v-.01Z" fill="#6D7272"/><path d="m60.6 123.51 76.899.28c1.28 0 2.31 1.04 2.31 2.32 0 1.27-1.04 2.31-2.32 2.3l-76.9-.28c-1.28 0-2.31-1.04-2.31-2.32 0-1.27 1.04-2.31 2.32-2.3Z" fill="#FAE1D6"/><path d="M137.49 128.91h-.01l-76.9-.28c-.75 0-1.46-.3-1.99-.83a2.799 2.799 0 0 1 .01-3.97c.53-.53 1.2-.83 1.99-.82l76.9.28c.75 0 1.46.3 1.99.83s.82 1.24.82 1.99-.3 1.46-.83 1.98c-.53.53-1.23.82-1.98.82Zm-76.9-4.9c-.48 0-.94.19-1.28.53-.34.34-.53.79-.54 1.28 0 .48.19.94.53 1.28.34.34.8.53 1.28.54l76.9.28c.48 0 .94-.19 1.28-.53.34-.34.53-.79.54-1.28 0-.48-.18-.94-.53-1.28-.34-.34-.8-.53-1.28-.54l-76.9-.28Z" fill="#6D7272"/><path d="M136.39 158.82c19.55 0 35.39-15.85 35.39-35.41 0-19.56-15.85-35.41-35.39-35.41S101 103.85 101 123.41c0 19.56 15.84 35.41 35.39 35.41Z" fill="#6D7272"/><path d="M136.39 159.32c-19.79 0-35.89-16.11-35.89-35.91 0-19.8 16.1-35.91 35.89-35.91s35.89 16.11 35.89 35.91c0 19.8-16.1 35.91-35.89 35.91Zm0-70.82c-19.24 0-34.89 15.66-34.89 34.91 0 19.25 15.65 34.91 34.89 34.91 19.24 0 34.89-15.66 34.89-34.91 0-19.25-15.65-34.91-34.89-34.91Z" fill="#6D7272"/><path fill-rule="evenodd" clip-rule="evenodd" d="m158.25 112.42-27.75 28.5-15-15.42 4.86-5.34 9.39 9.5 22.89-23.17 5.61 5.92v.01Z" fill="#6D7272"/><path d="m130.5 141.64-15.69-16.13 5.54-6.07 9.4 9.52 22.89-23.17 6.3 6.64-28.44 29.21Zm-14.31-16.15 14.31 14.71 27.06-27.79-4.93-5.19-22.88 23.16-9.37-9.49-4.19 4.6Z" fill="#6D7272"/><path d="M138.39 160.82c19.55 0 35.39-15.85 35.39-35.41 0-19.56-15.85-35.41-35.39-35.41S103 105.85 103 125.41c0 19.56 15.84 35.41 35.39 35.41Z" fill="#BEE2C2"/><path d="M138.39 161.32c-19.79 0-35.89-16.11-35.89-35.91 0-19.8 16.1-35.91 35.89-35.91s35.89 16.11 35.89 35.91c0 19.8-16.1 35.91-35.89 35.91Zm0-70.82c-19.24 0-34.89 15.66-34.89 34.91 0 19.25 15.65 34.91 34.89 34.91 19.24 0 34.89-15.66 34.89-34.91 0-19.25-15.65-34.91-34.89-34.91Z" fill="#6D7272"/><path fill-rule="evenodd" clip-rule="evenodd" d="m160.25 114.42-27.75 28.5-15-15.42 4.86-5.34 9.39 9.5 22.89-23.17 5.61 5.92v.01Z" fill="#fff"/><path d="m132.5 143.64-15.69-16.13 5.54-6.07 9.4 9.52 22.89-23.17 6.3 6.64-28.44 29.21Zm-14.31-16.15 14.31 14.71 27.06-27.79-4.93-5.19-22.88 23.16-9.37-9.49-4.19 4.6Z" fill="#6D7272"/></g><defs><clipPath id="a"><path fill="#fff" d="M25 39h149.28v122.32H25z"/></clipPath></defs></svg>