<svg width="200" height="200" viewBox="0 0 200 200" fill="none" xmlns="http://www.w3.org/2000/svg"><g clip-path="url(#a)"><path d="M123.451 141.61V36.01c0-4.15-3.36-7.51-7.51-7.51h-66.37c-4.15 0-7.51 3.36-7.51 7.51v105.6c0 4.15 3.36 7.51 7.51 7.51h66.38c4.15 0 7.51-3.36 7.51-7.51h-.01Z" fill="#FF6842"/><path d="M115.94 149.61H49.57c-4.41 0-8-3.59-8-8.01V36.01c-.01-4.42 3.58-8.01 8-8.01h66.38c4.41 0 8 3.59 8 8.01v105.6c0 4.42-3.59 8.01-8 8.01l-.01-.01ZM49.57 28.99c-3.87 0-7.02 3.15-7.02 7.02v105.6c0 3.87 3.15 7.02 7.02 7.02h66.38c3.87 0 7.02-3.15 7.02-7.02V36.01c0-3.87-3.15-7.02-7.02-7.02H49.57Z" fill="#141414"/><path d="M110.98 149.12V28.49H98.53v120.62h12.45v.01Z" fill="#141414"/><path d="M87.5 97.19V44.05h-8.03v53.14h8.03Z" fill="#fff"/><path d="m47.19 69.8 72.55-.12c7.16-.01 12.97 6.11 12.98 13.66l.11 63.311c.01 7.56-5.78 13.7-12.93 13.71l-72.55.12c-7.16.01-12.97-6.11-12.98-13.66l-.11-63.3c-.01-7.56 5.78-13.7 12.93-13.71v-.01Z" fill="#BCA89B"/><path d="M47.31 160.98c-3.59 0-6.97-1.47-9.51-4.15-2.54-2.67-3.94-6.23-3.95-10.01l-.1-63.3c0-3.78 1.38-7.35 3.92-10.03 2.54-2.69 5.92-4.17 9.52-4.18l72.55-.12h.02c7.41 0 13.45 6.35 13.46 14.16l.11 63.3c0 3.78-1.38 7.35-3.92 10.03-2.54 2.69-5.92 4.17-9.52 4.18l-72.55.12h-.03Zm-.13-90.68c-3.32 0-6.44 1.38-8.79 3.87-2.35 2.5-3.65 5.81-3.64 9.34l.1 63.3c0 3.53 1.31 6.84 3.67 9.33 2.35 2.47 5.47 3.84 8.78 3.84h.02l72.55-.12c3.32 0 6.44-1.38 8.79-3.87 2.35-2.5 3.65-5.81 3.64-9.34l-.11-63.3c-.01-7.26-5.6-13.17-12.46-13.17h-.02l-72.55.12h.02Z" fill="#000"/><path d="m60.19 102.51-27.56.05a5.14 5.14 0 0 0-5.13 5.14l.02 10.08a5.073 5.073 0 0 0 5.08 5.06l27.62-.05c2.48 0 4.87-.99 6.62-2.75a9.345 9.345 0 0 0 2.73-6.62v-1.56c0-1.23-.25-2.45-.72-3.58a9.193 9.193 0 0 0-2.04-3.04 9.427 9.427 0 0 0-3.04-2.03 9.418 9.418 0 0 0-3.59-.71l.01.01Z" fill="#BCA89B"/><path d="M32.59 123.34c-1.48 0-2.88-.58-3.93-1.62a5.54 5.54 0 0 1-1.64-3.93L27 107.7a5.637 5.637 0 0 1 5.62-5.65l27.56-.05c1.29-.04 2.57.25 3.78.75s2.28 1.21 3.21 2.13c.92.92 1.64 2 2.14 3.2.5 1.2.75 2.47.75 3.77v1.56c0 2.63-1.02 5.11-2.88 6.98a9.856 9.856 0 0 1-6.97 2.9l-27.62.05Zm27.6-20.33-27.56.05c-1.24 0-2.4.49-3.28 1.36A4.63 4.63 0 0 0 28 107.7l.02 10.08c0 1.22.48 2.37 1.35 3.23.86.86 2.01 1.33 3.23 1.33h.01l27.62-.05c2.37 0 4.6-.93 6.27-2.6a8.811 8.811 0 0 0 2.59-6.27v-1.56c0-1.17-.23-2.31-.68-3.39a8.746 8.746 0 0 0-1.93-2.87c-.83-.83-1.8-1.47-2.88-1.92-1.08-.45-2.25-.66-3.4-.67h-.01Z" fill="#000"/><path d="M56.67 118.21c-3.14 0-5.7-2.54-5.7-5.68 0-3.14 2.54-5.69 5.68-5.69 3.14 0 5.7 2.54 5.7 5.68 0 3.14-2.54 5.69-5.68 5.69Z" fill="#F5EEE8"/><path d="M56.66 118.71c-3.41 0-6.19-2.77-6.19-6.17 0-1.65.64-3.21 1.81-4.38a6.15 6.15 0 0 1 4.38-1.82h.01c1.65 0 3.2.64 4.37 1.8a6.144 6.144 0 0 1 1.82 4.37c0 1.65-.64 3.21-1.81 4.38a6.144 6.144 0 0 1-4.37 1.82h-.02Zm0-1c1.39 0 2.69-.54 3.67-1.52a5.1 5.1 0 0 0 1.51-3.67c0-1.38-.54-2.69-1.53-3.66a5.177 5.177 0 0 0-3.66-1.51c-1.39 0-2.69.54-3.67 1.52a5.1 5.1 0 0 0-1.51 3.67c0 2.86 2.33 5.18 5.19 5.18v-.01ZM33.99 130.99l21.5-8.5h-21.5v8.5ZM134.38 168.81c19.54 0 35.39-15.85 35.39-35.41 0-19.56-15.85-35.41-35.39-35.41s-35.39 15.85-35.39 35.41c0 19.56 15.84 35.41 35.39 35.41Z" fill="#000"/><path d="M134.38 169.31c-19.79 0-35.89-16.11-35.89-35.91 0-19.8 16.1-35.91 35.89-35.91s35.89 16.11 35.89 35.91c0 19.8-16.1 35.91-35.89 35.91Zm0-70.82c-19.24 0-34.89 15.66-34.89 34.91 0 19.25 15.65 34.91 34.89 34.91 19.24 0 34.89-15.66 34.89-34.91 0-19.25-15.65-34.91-34.89-34.91Z" fill="#000"/><path fill-rule="evenodd" clip-rule="evenodd" d="m156.24 122.41-27.75 28.5-15-15.42 4.86-5.34 9.39 9.5 22.89-23.17 5.61 5.92v.01Z" fill="#000"/><path d="M128.49 151.63 112.8 135.5l5.54-6.07 9.4 9.52 22.89-23.17 6.3 6.64-28.44 29.21Zm-14.31-16.15 14.31 14.71 27.06-27.79-4.93-5.19-22.88 23.16-9.37-9.49-4.19 4.6Z" fill="#000"/><path d="M136.11 170.81c19.55 0 35.39-15.85 35.39-35.41 0-19.56-15.84-35.41-35.39-35.41s-35.39 15.85-35.39 35.41c0 19.56 15.84 35.41 35.39 35.41Z" fill="#4B8151"/><path d="M136.11 171.31c-19.79 0-35.89-16.11-35.89-35.91 0-19.8 16.1-35.91 35.89-35.91S172 115.6 172 135.4c0 19.8-16.1 35.91-35.89 35.91Zm0-70.82c-19.24 0-34.89 15.66-34.89 34.91 0 19.25 15.65 34.91 34.89 34.91 19.24 0 34.89-15.66 34.89-34.91 0-19.25-15.65-34.91-34.89-34.91Z" fill="#000"/><path fill-rule="evenodd" clip-rule="evenodd" d="m157.97 124.41-27.75 28.5-15-15.42 4.86-5.34 9.39 9.5 22.89-23.17 5.61 5.92v.01Z" fill="#fff"/><path d="m130.23 153.63-15.69-16.13 5.54-6.07 9.4 9.52 22.89-23.17 6.3 6.64-28.44 29.21Zm-14.31-16.15 14.31 14.71 27.06-27.79-4.93-5.19-22.88 23.16-9.37-9.49-4.19 4.6Z" fill="#000"/></g><defs><clipPath id="a"><path fill="#fff" d="M27 28h145v143.31H27z"/></clipPath></defs></svg>