<svg width="200" height="200" viewBox="0 0 200 200" fill="none" xmlns="http://www.w3.org/2000/svg"><g clip-path="url(#a)"><path fill-rule="evenodd" clip-rule="evenodd" d="M49.57 43.91c-3.63 0-6.57 2.94-6.57 6.57v98.94c0 3.63 2.94 6.57 6.57 6.57h25.42v-.03c2.69-.41 4.67-2.37 6.59-4.27 2.01-1.99 3.95-3.91 6.56-3.91 2.81-.18 5.28 2.25 7.57 4.51 1.92 1.89 3.72 3.67 5.49 3.67v.03h50.03c3.63 0 6.57-2.94 6.57-6.57V50.48c0-3.63-2.94-6.57-6.57-6.57H49.57Z" fill="#fff"/><path fill-rule="evenodd" clip-rule="evenodd" d="M102.02 156h49.21c3.63 0 6.57-2.94 6.57-6.57V50.48c0-3.63-2.94-6.57-6.57-6.57H49.57c-3.63 0-6.57 2.94-6.57 6.57v98.94c0 3.63 2.94 6.57 6.57 6.57h25.42v-.03c2.69-.41 4.67-2.37 6.59-4.27 2.01-1.99 3.95-3.91 6.56-3.91 2.81-.18 5.28 2.25 7.57 4.51 1.92 1.89 3.72 3.67 5.49 3.67m-13.08-9c-1.51 0-2.8.57-3.95 1.35-1.12.77-2.16 1.79-3.14 2.76l-.03.03c-1.96 1.94-3.76 3.68-6.14 4.04l-.12.02H49.57c-3.18 0-5.75-2.57-5.75-5.75V50.48c0-3.18 2.57-5.75 5.75-5.75h101.66a5.75 5.75 0 0 1 5.75 5.75v98.94a5.75 5.75 0 0 1-5.75 5.75h-49.21v-.03h-.82c-.62 0-1.33-.31-2.2-.96-.86-.64-1.74-1.51-2.72-2.47l-.03-.03c-1.13-1.11-2.36-2.32-3.67-3.23-1.32-.91-2.82-1.58-4.48-1.49h.02Zm13.91 9.02h-.82v-.03" fill="#000"/><path d="M96.33 162.65a8.23 8.23 0 0 1-8.23 8.23c-4.55 0-8.23-3.68-8.23-8.23 0-4.55 3.68-8.23 8.23-8.23 4.55 0 8.23 3.68 8.23 8.23Z" fill="#FFCCB7"/><path d="M88.1 171.38c-4.81 0-8.73-3.92-8.73-8.73 0-4.81 3.91-8.73 8.73-8.73s8.73 3.92 8.73 8.73c0 4.81-3.91 8.73-8.73 8.73Zm0-16.45c-4.26 0-7.73 3.47-7.73 7.73s3.47 7.73 7.73 7.73 7.73-3.47 7.73-7.73-3.47-7.73-7.73-7.73Z" fill="#000"/><path fill-rule="evenodd" clip-rule="evenodd" d="M146.67 75.67H54.14v-.82h92.53v.82ZM146.67 52.98H54.14v-.82h92.53v.82ZM146.67 98.32H54.14v-.82h92.53v.82ZM146.67 120.95H54.14v-.82h92.53v.82ZM146.67 143.61H54.14v-.82h92.53v.82Z" fill="#CCD1D1"/><path fill-rule="evenodd" clip-rule="evenodd" d="M87.72 94.9V72.76h.56V94.9h-.56Z" fill="#000"/><path d="M88.53 95.15h-1.06V72.51h1.06v22.64Zm-.56-.5h.06V73.01h-.06v21.64Z" fill="#000"/><path d="M131.65 105.75c0-1.77 1.43-3.2 3.2-3.2h8.12c1.77 0 3.2 1.43 3.2 3.2v37.34h-14.51v-37.34h-.01Z" fill="#FF6842"/><path d="M146.66 143.6h-15.51v-37.84c0-2.04 1.66-3.7 3.7-3.7h8.12c2.04 0 3.7 1.66 3.7 3.7v37.84h-.01Zm-14.51-1h13.51v-36.84c0-1.49-1.21-2.7-2.7-2.7h-8.12c-1.49 0-2.7 1.21-2.7 2.7v36.84h.01Z" fill="#000"/><path d="M105.98 68c0-1.77 1.43-3.2 3.2-3.2h8.12c1.77 0 3.2 1.43 3.2 3.2v75.1h-14.51V68h-.01Z" fill="#FF6842"/><path d="M120.99 143.6h-15.51V68c0-2.04 1.66-3.7 3.7-3.7h8.12c2.04 0 3.7 1.66 3.7 3.7v75.6h-.01Zm-14.51-1h13.51V68c0-1.49-1.21-2.7-2.7-2.7h-8.12c-1.49 0-2.7 1.21-2.7 2.7v74.6h.01Z" fill="#000"/><path d="M80.84 93.67c0-1.77 1.43-3.2 3.2-3.2h8.12c1.77 0 3.2 1.43 3.2 3.2v49.43H80.85V93.67h-.01Z" fill="#FF6842"/><path d="M95.85 143.6H80.34V93.67c0-2.04 1.66-3.7 3.7-3.7h8.12c2.04 0 3.7 1.66 3.7 3.7v49.93h-.01Zm-14.51-1h13.51V93.67c0-1.49-1.21-2.7-2.7-2.7h-8.12c-1.49 0-2.7 1.21-2.7 2.7v48.93h.01Z" fill="#000"/><path d="M55.16 129.93c0-1.77 1.43-3.2 3.2-3.2h8.12c1.77 0 3.2 1.43 3.2 3.2v13.17H55.17v-13.17h-.01Z" fill="#FF6842"/><path d="M70.18 143.6H54.67v-13.67c0-2.04 1.66-3.7 3.7-3.7h8.12c2.04 0 3.7 1.66 3.7 3.7v13.67h-.01Zm-14.51-1h13.51v-12.67c0-1.49-1.21-2.7-2.7-2.7h-8.12c-1.49 0-2.7 1.21-2.7 2.7v12.67h.01Z" fill="#000"/><path d="M53.96 31.25c0-.96.78-1.75 1.75-1.75h65.72c.96 0 1.75.78 1.75 1.75v45.5c0 .96-.78 1.75-1.75 1.75H55.71c-.96 0-1.75-.78-1.75-1.75v-45.5Z" fill="#fff"/><path d="M121.42 78.99H55.71c-1.24 0-2.25-1.01-2.25-2.25V31.25c0-1.24 1.01-2.25 2.25-2.25h65.72c1.24 0 2.25 1.01 2.25 2.25v45.5c0 1.24-1.01 2.25-2.25 2.25l-.01-.01ZM55.71 30c-.69 0-1.25.56-1.25 1.25v45.5c0 .69.56 1.25 1.25 1.25h65.72c.69 0 1.25-.56 1.25-1.25v-45.5c0-.69-.56-1.25-1.25-1.25H55.71Z" fill="#000"/><path d="M82.82 65.82c-1.33 0-2.29-.82-2.29-2.36v-2.23H71.9c-1.75 0-2.92-1.09-2.92-2.71 0-.99.29-1.89 1.01-3.16 1.59-2.86 3.9-6.38 6.42-10.12 1.6-2.45 2.78-3.26 4.73-3.26 2.45 0 3.99 1.33 3.99 3.5v11.89h1.32c1.28 0 1.99.8 1.99 1.94s-.72 1.93-1.99 1.93h-1.32v2.23c0 1.54-.98 2.36-2.31 2.36v-.01Zm-2.2-8.33V45.84h-.1c-3.3 4.76-5.44 8.02-7.32 11.52v.13h7.42ZM99.84 66c-5.53 0-9.38-2.78-9.38-6.79 0-3.05 2.25-5.29 5.41-5.9v-.1c-2.73-.67-4.57-2.65-4.57-5.17 0-3.59 3.53-6.22 8.55-6.22 5.02 0 8.53 2.61 8.53 6.24 0 2.49-1.83 4.46-4.54 5.15v.1c3.16.63 5.39 2.87 5.39 5.92 0 4.01-3.87 6.77-9.38 6.77h-.01Zm0-14.25c2.18 0 3.75-1.32 3.75-3.21s-1.57-3.22-3.75-3.22c-2.18 0-3.75 1.32-3.75 3.22 0 1.9 1.56 3.21 3.75 3.21Zm0 10.72c2.55 0 4.32-1.51 4.32-3.61 0-2.1-1.76-3.58-4.32-3.58-2.56 0-4.33 1.49-4.33 3.58s1.78 3.61 4.33 3.61Z" fill="#000"/></g><defs><clipPath id="a"><path fill="#fff" d="M43 29h114.8v142.38H43z"/></clipPath></defs></svg>