<svg width="200" height="200" viewBox="0 0 200 200" fill="none" xmlns="http://www.w3.org/2000/svg"><g clip-path="url(#a)"><path d="M144.87 57.55H20.5v90.95c0 4.42 3.58 8 8 8h108.37c4.42 0 8-3.58 8-8V57.55Z" fill="#F5EEE8"/><path d="M136.87 157H28.5c-4.69 0-8.5-3.81-8.5-8.5V57.05h125.37v91.45c0 4.69-3.81 8.5-8.5 8.5ZM21 58.05v90.45c0 4.14 3.36 7.5 7.5 7.5h108.37c4.14 0 7.5-3.36 7.5-7.5V58.05H21Z" fill="#010101"/><path d="M136.87 39.76H28.5c-4.42 0-8 3.58-8 8v11.06h124.37V47.76c0-4.42-3.58-8-8-8Z" fill="#D7E8EF"/><path d="M145.37 59.33H20V47.77c0-4.69 3.81-8.5 8.5-8.5h108.37c4.69 0 8.5 3.81 8.5 8.5v11.56ZM21 58.33h123.37V47.77c0-4.14-3.36-7.5-7.5-7.5H28.5c-4.14 0-7.5 3.36-7.5 7.5v10.56Z" fill="#010101"/><path d="M56.58 28.5H43.91v23.16h12.67V28.5Z" fill="#D7E8EF"/><path d="M57.08 52.16H43.41V28h13.67v24.16Zm-12.67-1h11.67V29H44.41v22.16Z" fill="#010101"/><path d="M121.33 28.5h-12.67v23.16h12.67V28.5Z" fill="#D7E8EF"/><path d="M121.83 52.16h-13.67V28h13.67v24.16Zm-12.67-1h11.67V29h-11.67v22.16Z" fill="#010101"/><path d="M49.37 70.26H35.21c-1.1 0-2 .9-2 2v14.16c0 1.1.9 2 2 2h14.16c1.1 0 2-.9 2-2V72.26c0-1.1-.9-2-2-2Z" fill="#fff"/><path d="M49.37 88.92H35.21a2.5 2.5 0 0 1-2.5-2.5V72.26a2.5 2.5 0 0 1 2.5-2.5h14.16a2.5 2.5 0 0 1 2.5 2.5v14.16a2.5 2.5 0 0 1-2.5 2.5ZM35.21 70.76c-.83 0-1.5.67-1.5 1.5v14.16c0 .83.67 1.5 1.5 1.5h14.16c.83 0 1.5-.67 1.5-1.5V72.26c0-.83-.67-1.5-1.5-1.5H35.21Z" fill="#010101"/><path d="M49.37 97.49H35.21c-1.1 0-2 .9-2 2v14.16c0 1.1.9 2 2 2h14.16c1.1 0 2-.9 2-2V99.49c0-1.1-.9-2-2-2Z" fill="#fff"/><path d="M49.37 116.15H35.21a2.5 2.5 0 0 1-2.5-2.5V99.49a2.5 2.5 0 0 1 2.5-2.5h14.16a2.5 2.5 0 0 1 2.5 2.5v14.16a2.5 2.5 0 0 1-2.5 2.5ZM35.21 97.99c-.83 0-1.5.67-1.5 1.5v14.16c0 .83.67 1.5 1.5 1.5h14.16c.83 0 1.5-.67 1.5-1.5V99.49c0-.83-.67-1.5-1.5-1.5H35.21Z" fill="#010101"/><path d="M49.37 124.729H35.21c-1.1 0-2 .9-2 2v14.16c0 1.1.9 2 2 2h14.16c1.1 0 2-.9 2-2v-14.16c0-1.1-.9-2-2-2Z" fill="#FF6842"/><path d="M49.37 143.38H35.21a2.5 2.5 0 0 1-2.5-2.5v-14.16a2.5 2.5 0 0 1 2.5-2.5h14.16a2.5 2.5 0 0 1 2.5 2.5v14.16a2.5 2.5 0 0 1-2.5 2.5Zm-14.16-18.16c-.83 0-1.5.67-1.5 1.5v14.16c0 .83.67 1.5 1.5 1.5h14.16c.83 0 1.5-.67 1.5-1.5v-14.16c0-.83-.67-1.5-1.5-1.5H35.21Z" fill="#010101"/><path d="M76.6 70.26H62.44c-1.1 0-2 .9-2 2v14.16c0 1.1.9 2 2 2H76.6c1.1 0 2-.9 2-2V72.26c0-1.1-.9-2-2-2Z" fill="#FF6842"/><path d="M76.6 88.92H62.44a2.5 2.5 0 0 1-2.5-2.5V72.26a2.5 2.5 0 0 1 2.5-2.5H76.6a2.5 2.5 0 0 1 2.5 2.5v14.16a2.5 2.5 0 0 1-2.5 2.5ZM62.44 70.76c-.83 0-1.5.67-1.5 1.5v14.16c0 .83.67 1.5 1.5 1.5H76.6c.83 0 1.5-.67 1.5-1.5V72.26c0-.83-.67-1.5-1.5-1.5H62.44Z" fill="#010101"/><path d="M76.6 97.49H62.44c-1.1 0-2 .9-2 2v14.16c0 1.1.9 2 2 2H76.6c1.1 0 2-.9 2-2V99.49c0-1.1-.9-2-2-2Z" fill="#fff"/><path d="M76.6 116.15H62.44a2.5 2.5 0 0 1-2.5-2.5V99.49a2.5 2.5 0 0 1 2.5-2.5H76.6a2.5 2.5 0 0 1 2.5 2.5v14.16a2.5 2.5 0 0 1-2.5 2.5ZM62.44 97.99c-.83 0-1.5.67-1.5 1.5v14.16c0 .83.67 1.5 1.5 1.5H76.6c.83 0 1.5-.67 1.5-1.5V99.49c0-.83-.67-1.5-1.5-1.5H62.44Z" fill="#010101"/><path d="M76.6 124.729H62.44c-1.1 0-2 .9-2 2v14.16c0 1.1.9 2 2 2H76.6c1.1 0 2-.9 2-2v-14.16c0-1.1-.9-2-2-2Z" fill="#fff"/><path d="M76.6 143.38H62.44a2.5 2.5 0 0 1-2.5-2.5v-14.16a2.5 2.5 0 0 1 2.5-2.5H76.6a2.5 2.5 0 0 1 2.5 2.5v14.16a2.5 2.5 0 0 1-2.5 2.5Zm-14.16-18.16c-.83 0-1.5.67-1.5 1.5v14.16c0 .83.67 1.5 1.5 1.5H76.6c.83 0 1.5-.67 1.5-1.5v-14.16c0-.83-.67-1.5-1.5-1.5H62.44Z" fill="#010101"/><path d="M103.83 70.26H89.67c-1.1 0-2 .9-2 2v14.16c0 1.1.9 2 2 2h14.16c1.1 0 2-.9 2-2V72.26c0-1.1-.9-2-2-2Z" fill="#fff"/><path d="M103.83 88.92H89.67a2.5 2.5 0 0 1-2.5-2.5V72.26a2.5 2.5 0 0 1 2.5-2.5h14.16a2.5 2.5 0 0 1 2.5 2.5v14.16a2.5 2.5 0 0 1-2.5 2.5ZM89.67 70.76c-.83 0-1.5.67-1.5 1.5v14.16c0 .83.67 1.5 1.5 1.5h14.16c.83 0 1.5-.67 1.5-1.5V72.26c0-.83-.67-1.5-1.5-1.5H89.67Z" fill="#010101"/><path d="M103.83 97.49H89.67c-1.1 0-2 .9-2 2v14.16c0 1.1.9 2 2 2h14.16c1.1 0 2-.9 2-2V99.49c0-1.1-.9-2-2-2Z" fill="#FF6842"/><path d="M103.83 116.15H89.67a2.5 2.5 0 0 1-2.5-2.5V99.49a2.5 2.5 0 0 1 2.5-2.5h14.16a2.5 2.5 0 0 1 2.5 2.5v14.16a2.5 2.5 0 0 1-2.5 2.5ZM89.67 97.99c-.83 0-1.5.67-1.5 1.5v14.16c0 .83.67 1.5 1.5 1.5h14.16c.83 0 1.5-.67 1.5-1.5V99.49c0-.83-.67-1.5-1.5-1.5H89.67Z" fill="#010101"/><path d="M103.83 124.729H89.67c-1.1 0-2 .9-2 2v14.16c0 1.1.9 2 2 2h14.16c1.1 0 2-.9 2-2v-14.16c0-1.1-.9-2-2-2Z" fill="#fff"/><path d="M103.83 143.38H89.67a2.5 2.5 0 0 1-2.5-2.5v-14.16a2.5 2.5 0 0 1 2.5-2.5h14.16a2.5 2.5 0 0 1 2.5 2.5v14.16a2.5 2.5 0 0 1-2.5 2.5Zm-14.16-18.16c-.83 0-1.5.67-1.5 1.5v14.16c0 .83.67 1.5 1.5 1.5h14.16c.83 0 1.5-.67 1.5-1.5v-14.16c0-.83-.67-1.5-1.5-1.5H89.67Z" fill="#010101"/><path d="M131.07 70.26h-14.16c-1.1 0-2 .9-2 2v14.16c0 1.1.9 2 2 2h14.16c1.1 0 2-.9 2-2V72.26c0-1.1-.9-2-2-2Z" fill="#fff"/><path d="M131.07 88.92h-14.16a2.5 2.5 0 0 1-2.5-2.5V72.26a2.5 2.5 0 0 1 2.5-2.5h14.16a2.5 2.5 0 0 1 2.5 2.5v14.16a2.5 2.5 0 0 1-2.5 2.5Zm-14.16-18.16c-.83 0-1.5.67-1.5 1.5v14.16c0 .83.67 1.5 1.5 1.5h14.16c.83 0 1.5-.67 1.5-1.5V72.26c0-.83-.67-1.5-1.5-1.5h-14.16Z" fill="#010101"/><path d="M131.07 97.49h-14.16c-1.1 0-2 .9-2 2v14.16c0 1.1.9 2 2 2h14.16c1.1 0 2-.9 2-2V99.49c0-1.1-.9-2-2-2Z" fill="#fff"/><path d="M131.07 116.15h-14.16a2.5 2.5 0 0 1-2.5-2.5V99.49a2.5 2.5 0 0 1 2.5-2.5h14.16a2.5 2.5 0 0 1 2.5 2.5v14.16a2.5 2.5 0 0 1-2.5 2.5Zm-14.16-18.16c-.83 0-1.5.67-1.5 1.5v14.16c0 .83.67 1.5 1.5 1.5h14.16c.83 0 1.5-.67 1.5-1.5V99.49c0-.83-.67-1.5-1.5-1.5h-14.16Z" fill="#010101"/><path d="M133.07 124.729h-18.16v18.16h18.16v-18.16Z" fill="#fff"/><path d="M133.57 143.38h-19.16v-19.16h19.16v19.16Zm-18.16-1h17.16v-17.16h-17.16v17.16Z" fill="#010101"/><path d="M141.48 169.46c20.42 0 36.98-16.56 36.98-36.98 0-20.42-16.56-36.98-36.98-36.98-20.42 0-36.98 16.56-36.98 36.98 0 20.42 16.56 36.98 36.98 36.98Z" fill="#000"/><path d="M141.48 169.96c-20.67 0-37.48-16.81-37.48-37.48C104 111.81 120.81 95 141.48 95c20.67 0 37.48 16.81 37.48 37.48 0 20.67-16.81 37.48-37.48 37.48Zm0-73.96C121.37 96 105 112.36 105 132.48c0 20.12 16.36 36.48 36.48 36.48 20.12 0 36.48-16.37 36.48-36.48 0-20.11-16.36-36.48-36.48-36.48Z" fill="#000"/><path d="M141.28 164.619c17.86 0 32.34-14.48 32.34-32.34 0-17.86-14.48-32.34-32.34-32.34-17.86 0-32.34 14.48-32.34 32.34 0 17.86 14.48 32.34 32.34 32.34Z" fill="#000"/><path d="M141.28 165.11c-18.11 0-32.84-14.73-32.84-32.84 0-18.11 14.73-32.84 32.84-32.84 18.11 0 32.84 14.73 32.84 32.84 0 18.11-14.73 32.84-32.84 32.84Zm0-64.68c-17.56 0-31.84 14.28-31.84 31.84 0 17.56 14.28 31.84 31.84 31.84 17.56 0 31.84-14.28 31.84-31.84 0-17.56-14.28-31.84-31.84-31.84Z" fill="#000"/><path d="M139.58 112.37h3.68v4.87c6.13.55 11.36 4.02 11.36 9.46v.39h-8.39v-.33c0-1.62-1.35-2.59-2.97-2.94v5.47c4.92.8 11.8 2.53 11.8 8.91 0 6.38-5.69 8.86-11.8 9.3v5.44h-3.68v-5.44c-6.19-.52-11.63-3.69-11.63-9.41v-.49h8.47v.38c0 1.62 1.15 2.56 3.16 2.92v-5.78c-5.28-.93-11.22-3.05-11.22-8.83 0-5.42 4.92-8.5 11.22-9.05v-4.87Zm-2.89 13.72c0 1.18 1.1 1.9 2.89 2.42v-4.73c-1.54.28-2.89.96-2.89 2.31Zm10.09 12.35c0-1.4-1.07-2.09-3.52-2.64v5.14c1.9-.25 3.52-1.05 3.52-2.5Z" fill="#000"/><path fill-rule="evenodd" clip-rule="evenodd" d="M138.95 111.74h4.95v4.93c2.94.35 5.68 1.36 7.73 2.97 2.2 1.71 3.62 4.12 3.62 7.07v1.02h-9.66v-.96c0-.96-.64-1.68-1.7-2.09v4.09c2.36.41 5.16 1.06 7.43 2.35 2.47 1.41 4.37 3.62 4.37 7.1 0 3.29-1.55 5.69-3.88 7.29-2.16 1.49-5 2.3-7.91 2.58v5.5h-4.95v-5.5c-2.96-.33-5.76-1.26-7.88-2.82-2.27-1.67-3.75-4.07-3.75-7.16v-1.13h9.74V138c0 .64.22 1.1.62 1.46.3.27.72.49 1.28.66v-4.45c-2.52-.48-5.19-1.25-7.3-2.59-2.28-1.45-3.92-3.61-3.92-6.76 0-2.93 1.34-5.23 3.5-6.86 2.01-1.51 4.72-2.43 7.72-2.77v-4.93l-.01-.02Zm.63 5.5c-6.3.55-11.22 3.63-11.22 9.05 0 5.78 5.94 7.89 11.22 8.83v5.78c-.22-.04-.43-.09-.63-.14-1.61-.43-2.53-1.33-2.53-2.77v-.39h-8.47v.63c.09 5.63 5.49 8.75 11.63 9.27v5.45h3.69v-5.45c6.11-.44 11.8-3.19 11.8-9.3 0-6.11-6.88-8.11-11.8-8.91v-5.47c.22.05.43.11.63.18 1.33.45 2.34 1.36 2.34 2.77v.33h8.39v-.64c-.16-5.3-5.32-8.67-11.35-9.21v-4.87h-3.69v4.87l-.01-.01Zm0 11.28v-4.73c-.22.04-.43.09-.63.14-1.26.34-2.25 1.01-2.25 2.17 0 1.04.84 1.71 2.25 2.22.2.07.41.14.63.2Zm-.63-3.93c-.4.12-.75.28-1.02.47-.4.28-.6.62-.6 1.04 0 .36.15.66.53.96.26.21.63.4 1.09.58v-3.05Zm4.32 11.22v5.14c.21-.03.43-.06.63-.11 1.61-.33 2.89-1.11 2.89-2.4 0-1.29-.89-1.96-2.89-2.49-.2-.05-.41-.1-.63-.15v.01Zm.63.81v3.58c.59-.13 1.11-.33 1.5-.58.52-.34.76-.72.76-1.17 0-.5-.17-.83-.58-1.13-.35-.26-.89-.49-1.67-.7h-.01Z" fill="#000"/><path d="M143.48 171.46c20.42 0 36.98-16.56 36.98-36.98 0-20.42-16.56-36.98-36.98-36.98-20.42 0-36.98 16.56-36.98 36.98 0 20.42 16.56 36.98 36.98 36.98Z" fill="#FFC700"/><path d="M143.48 171.96c-20.67 0-37.48-16.81-37.48-37.48C106 113.81 122.81 97 143.48 97c20.67 0 37.48 16.81 37.48 37.48 0 20.67-16.81 37.48-37.48 37.48Zm0-73.96C123.37 98 107 114.36 107 134.48c0 20.12 16.36 36.48 36.48 36.48 20.12 0 36.48-16.37 36.48-36.48 0-20.11-16.36-36.48-36.48-36.48Z" fill="#000"/><path d="M143.28 166.619c17.86 0 32.34-14.48 32.34-32.34 0-17.86-14.48-32.34-32.34-32.34-17.86 0-32.34 14.48-32.34 32.34 0 17.86 14.48 32.34 32.34 32.34Z" fill="#FFC700"/><path d="M143.28 167.11c-18.11 0-32.84-14.73-32.84-32.84 0-18.11 14.73-32.84 32.84-32.84 18.11 0 32.84 14.73 32.84 32.84 0 18.11-14.73 32.84-32.84 32.84Zm0-64.68c-17.56 0-31.84 14.28-31.84 31.84 0 17.56 14.28 31.84 31.84 31.84 17.56 0 31.84-14.28 31.84-31.84 0-17.56-14.28-31.84-31.84-31.84Z" fill="#000"/><path d="M141.58 114.37h3.68v4.87c6.13.55 11.36 4.02 11.36 9.46v.39h-8.39v-.33c0-1.62-1.35-2.58-2.97-2.94v5.47c4.92.8 11.8 2.53 11.8 8.91 0 6.38-5.69 8.86-11.8 9.3v5.44h-3.68v-5.44c-6.19-.52-11.63-3.69-11.63-9.41v-.49h8.47v.38c0 1.62 1.15 2.56 3.16 2.92v-5.78c-5.28-.93-11.22-3.05-11.22-8.83 0-5.42 4.92-8.5 11.22-9.05v-4.87Zm-2.89 13.72c0 1.18 1.1 1.9 2.89 2.42v-4.73c-1.54.28-2.89.96-2.89 2.31Zm10.09 12.35c0-1.4-1.07-2.09-3.52-2.64v5.14c1.9-.25 3.52-1.05 3.52-2.5Z" fill="#FFFEB3"/><path fill-rule="evenodd" clip-rule="evenodd" d="M140.95 113.74h4.95v4.93c2.94.35 5.68 1.36 7.73 2.97 2.2 1.71 3.62 4.12 3.62 7.07v1.02h-9.66v-.96c0-.96-.64-1.68-1.7-2.09v4.09c2.37.41 5.16 1.06 7.43 2.35 2.47 1.41 4.37 3.62 4.37 7.1 0 3.29-1.55 5.69-3.88 7.29-2.16 1.49-5 2.3-7.91 2.58v5.5h-4.95v-5.5c-2.96-.33-5.76-1.26-7.88-2.82-2.27-1.67-3.75-4.07-3.75-7.16v-1.13h9.74V140c0 .64.22 1.1.62 1.46.3.27.72.49 1.28.66v-4.45c-2.52-.48-5.19-1.25-7.3-2.59-2.28-1.45-3.92-3.61-3.92-6.76 0-2.93 1.34-5.23 3.5-6.86 2.01-1.51 4.72-2.43 7.72-2.77v-4.93l-.01-.02Zm.63 5.5c-6.3.55-11.22 3.63-11.22 9.05 0 5.78 5.94 7.89 11.22 8.83v5.78c-.22-.04-.43-.09-.63-.14-1.61-.43-2.53-1.33-2.53-2.77v-.39h-8.47v.63c.09 5.63 5.49 8.75 11.63 9.27v5.45h3.69v-5.45c6.11-.44 11.8-3.19 11.8-9.3 0-6.11-6.88-8.11-11.8-8.91v-5.47c.22.05.43.11.63.18 1.33.45 2.34 1.36 2.34 2.77v.33h8.39v-.63c-.16-5.3-5.32-8.67-11.35-9.21v-4.87h-3.69v4.87l-.01-.02Zm0 11.28v-4.73c-.22.04-.43.09-.63.14-1.26.34-2.25 1.01-2.25 2.17 0 1.04.84 1.71 2.25 2.22.2.07.41.14.63.2Zm-.63-3.93c-.4.12-.75.28-1.02.47-.4.28-.6.62-.6 1.04 0 .36.15.66.53.96.26.21.63.4 1.09.58v-3.05Zm4.32 11.22v5.14c.21-.03.43-.06.63-.11 1.61-.33 2.89-1.11 2.89-2.4 0-1.29-.89-1.96-2.89-2.49-.2-.05-.41-.1-.63-.15v.01Zm.63.81v3.58c.59-.13 1.11-.33 1.5-.58.52-.34.76-.72.76-1.17 0-.5-.17-.83-.58-1.13-.36-.26-.89-.49-1.67-.7h-.01Z" fill="#000"/></g><defs><clipPath id="a"><path fill="#fff" d="M20 28h160.96v143.96H20z"/></clipPath></defs></svg>