<svg width="200" height="200" viewBox="0 0 200 200" fill="none" xmlns="http://www.w3.org/2000/svg"><path fill-rule="evenodd" clip-rule="evenodd" d="M180.982 135.617h-.005v11.624a8 8 0 0 1-8 8H66.017a8 8 0 0 1-8-8v-14.275h.006v-23.208a8 8 0 0 1 8-8h106.959a8 8 0 0 1 8 8v25.859Z" fill="#BCA89B"/><path fill-rule="evenodd" clip-rule="evenodd" d="M57.523 109.758a8.5 8.5 0 0 1 8.5-8.5h106.959a8.5 8.5 0 0 1 8.5 8.5v25.859a.436.436 0 0 1-.005.072v11.552a8.5 8.5 0 0 1-8.5 8.5H66.017a8.5 8.5 0 0 1-8.5-8.5v-14.275c0-.024.002-.049.006-.072v-23.136Zm.995 23.28v14.203a7.5 7.5 0 0 0 7.5 7.5h106.959a7.5 7.5 0 0 0 7.5-7.5v-11.624c0-.025.002-.049.005-.073v-25.786a7.5 7.5 0 0 0-7.5-7.5H66.022a7.5 7.5 0 0 0-7.5 7.5v23.208a.492.492 0 0 1-.004.072Z" fill="#000"/><path d="M127.262 117.281h1.993v2.691c3.315.304 6.14 2.219 6.14 5.229v.213h-4.535v-.182c0-.897-.728-1.429-1.605-1.627v3.025c2.661.441 6.378 1.399 6.378 4.925 0 3.375-3.078 4.895-6.378 5.138v3.01h-1.993v-3.01c-3.345-.288-6.289-2.037-6.289-5.198v-.274h4.579v.213c0 .897.625 1.413 1.71 1.611v-3.192c-2.855-.517-6.066-1.688-6.066-4.88 0-2.995 2.661-4.697 6.066-5.001v-2.691Zm-1.561 7.586c0 .653.595 1.049 1.561 1.337v-2.614c-.833.152-1.561.532-1.561 1.277Zm5.457 6.825c0-.775-.58-1.155-1.903-1.459v2.842c1.025-.136 1.903-.577 1.903-1.383Z" fill="#7C7166"/><path fill-rule="evenodd" clip-rule="evenodd" d="M126.262 116.281h3.993v2.817c1.474.262 2.853.828 3.937 1.692 1.321 1.053 2.203 2.557 2.203 4.411v1.213h-3.867c.489.18.969.396 1.417.658 1.485.865 2.688 2.276 2.688 4.483 0 2.046-.956 3.562-2.376 4.561-1.137.801-2.554 1.264-4.002 1.474v3.113h-3.993v-3.127c-1.478-.243-2.885-.767-4-1.606-1.37-1.03-2.289-2.539-2.289-4.475v-1.274h4.676a9.271 9.271 0 0 1-2.037-.967c-1.375-.897-2.416-2.273-2.416-4.281 0-1.836.833-3.293 2.147-4.303 1.069-.821 2.437-1.335 3.919-1.579v-2.81Zm1 3.691c-3.405.304-6.066 2.006-6.066 5.001 0 3.192 3.211 4.363 6.066 4.88v3.192c-.398-.072-.734-.188-1-.349-.459-.279-.71-.694-.71-1.262v-.213h-4.579v.274c0 .251.018.493.054.726.416 2.704 3.155 4.207 6.235 4.472v3.01h1.993v-3.01c3.3-.243 6.378-1.763 6.378-5.138 0-3.526-3.717-4.484-6.378-4.925v-3.025c.375.085.724.231 1 .441.367.279.605.673.605 1.186v.182h4.535v-.213c0-.271-.023-.534-.067-.787-.446-2.555-3.057-4.165-6.073-4.442v-2.691h-1.993v2.691Zm0 6.232v-2.614c-.373.068-.725.182-1 .354-.339.211-.561.511-.561.923 0 .38.202.674.561.909.258.169.597.308 1 .428Zm1.993 4.029v2.842a3.817 3.817 0 0 0 1-.261c.536-.233.903-.601.903-1.122 0-.541-.283-.89-.903-1.154a6.048 6.048 0 0 0-1-.305Z" fill="#000"/><path d="M145.374 117.281h1.993v2.691c3.316.304 6.141 2.219 6.141 5.229v.213h-4.535v-.182c0-.897-.729-1.429-1.606-1.627v3.025c2.661.441 6.379 1.399 6.379 4.925 0 3.375-3.078 4.895-6.379 5.138v3.01h-1.993v-3.01c-3.345-.288-6.289-2.037-6.289-5.198v-.274h4.58v.213c0 .897.624 1.413 1.709 1.611v-3.192c-2.854-.517-6.066-1.688-6.066-4.88 0-2.995 2.661-4.697 6.066-5.001v-2.691Zm-1.561 7.586c0 .653.595 1.049 1.561 1.337v-2.614c-.832.152-1.561.532-1.561 1.277Zm5.457 6.825c0-.775-.58-1.155-1.903-1.459v2.842c1.026-.136 1.903-.577 1.903-1.383Z" fill="#7C7166"/><path fill-rule="evenodd" clip-rule="evenodd" d="M144.374 116.281h3.993v2.817c1.474.262 2.853.828 3.937 1.692 1.321 1.053 2.204 2.557 2.204 4.411v1.213h-3.868c.489.18.969.396 1.418.658 1.485.865 2.688 2.276 2.688 4.483 0 2.046-.956 3.562-2.376 4.561-1.138.801-2.555 1.264-4.003 1.474v3.113h-3.993v-3.127c-1.478-.243-2.885-.767-4-1.606-1.37-1.03-2.289-2.539-2.289-4.475v-1.274h4.676a9.271 9.271 0 0 1-2.037-.967c-1.374-.897-2.416-2.273-2.416-4.281 0-1.836.833-3.293 2.147-4.303 1.069-.821 2.437-1.335 3.919-1.579v-2.81Zm1 3.691c-3.405.304-6.066 2.006-6.066 5.001 0 3.192 3.212 4.363 6.066 4.88v3.192c-.398-.072-.734-.188-1-.349-.459-.279-.709-.694-.709-1.262v-.213h-4.58v.274c0 .251.019.493.054.726.416 2.704 3.156 4.207 6.235 4.472v3.01h1.993v-3.01c3.301-.243 6.379-1.763 6.379-5.138 0-3.526-3.718-4.484-6.379-4.925v-3.025a2.6 2.6 0 0 1 1 .441c.368.279.606.673.606 1.186v.182h4.535v-.213c0-.271-.023-.534-.068-.787-.446-2.555-3.056-4.165-6.073-4.442v-2.691h-1.993v2.691Zm0 6.232v-2.614c-.372.068-.725.182-1 .354-.339.211-.561.511-.561.923 0 .38.202.674.561.909.258.169.597.308 1 .428Zm1.993 4.029v2.842a3.806 3.806 0 0 0 1-.261c.536-.233.903-.601.903-1.122 0-.541-.282-.89-.903-1.154a6.048 6.048 0 0 0-1-.305Z" fill="#000"/><path d="M163.483 117.281h1.992v2.691c3.316.304 6.141 2.219 6.141 5.229v.213h-4.535v-.182c0-.897-.729-1.429-1.606-1.627v3.025c2.662.441 6.379 1.399 6.379 4.925 0 3.375-3.078 4.895-6.379 5.138v3.01h-1.992v-3.01c-3.346-.288-6.29-2.037-6.29-5.198v-.274h4.58v.213c0 .897.624 1.413 1.71 1.611v-3.192c-2.855-.517-6.067-1.688-6.067-4.88 0-2.995 2.662-4.697 6.067-5.001v-2.691Zm-1.561 7.586c0 .653.594 1.049 1.561 1.337v-2.614c-.833.152-1.561.532-1.561 1.277Zm5.456 6.825c0-.775-.579-1.155-1.903-1.459v2.842c1.026-.136 1.903-.577 1.903-1.383Z" fill="#7C7166"/><path fill-rule="evenodd" clip-rule="evenodd" d="M162.483 116.281h3.992v2.817c1.474.262 2.854.828 3.937 1.692 1.321 1.053 2.204 2.557 2.204 4.411v1.213h-3.868c.489.18.97.396 1.418.658 1.485.865 2.688 2.276 2.688 4.483 0 2.046-.956 3.562-2.376 4.561-1.137.801-2.554 1.264-4.003 1.474v3.113h-3.992v-3.127c-1.478-.243-2.886-.767-4.001-1.606-1.37-1.03-2.289-2.539-2.289-4.475v-1.274h4.676a9.285 9.285 0 0 1-2.036-.967c-1.375-.897-2.417-2.273-2.417-4.281 0-1.836.833-3.293 2.148-4.303 1.069-.821 2.436-1.335 3.919-1.579v-2.81Zm1 3.691c-3.405.304-6.067 2.006-6.067 5.001 0 3.192 3.212 4.363 6.067 4.88v3.192c-.398-.072-.734-.188-1-.349-.46-.279-.71-.694-.71-1.262v-.213h-4.58v.274c0 .251.019.493.055.726.415 2.704 3.155 4.207 6.235 4.472v3.01h1.992v-3.01c3.301-.243 6.379-1.763 6.379-5.138 0-3.526-3.717-4.484-6.379-4.925v-3.025c.376.085.725.231 1 .441.368.279.606.673.606 1.186v.182h4.535v-.213c0-.271-.023-.534-.067-.787-.446-2.555-3.057-4.165-6.074-4.442v-2.691h-1.992v2.691Zm0 6.232v-2.614c-.373.068-.725.182-1 .354-.339.211-.561.511-.561.923 0 .38.201.674.561.909.258.169.596.308 1 .428Zm1.992 4.029v2.842a3.796 3.796 0 0 0 1-.261c.537-.233.903-.601.903-1.122 0-.541-.282-.89-.903-1.154a5.989 5.989 0 0 0-1-.305Z" fill="#000"/><path d="M110.624 129.354c0 11.431-9.266 20.697-20.697 20.697s-20.698-9.266-20.698-20.697 9.267-20.697 20.698-20.697c11.431 0 20.697 9.266 20.697 20.697Z" fill="#7C7166"/><path fill-rule="evenodd" clip-rule="evenodd" d="M89.927 149.051c10.878 0 19.697-8.818 19.697-19.697 0-10.878-8.819-19.697-19.697-19.697-10.879 0-19.698 8.819-19.698 19.697 0 10.879 8.82 19.697 19.698 19.697Zm0 1c11.431 0 20.697-9.266 20.697-20.697s-9.266-20.697-20.697-20.697-20.698 9.266-20.698 20.697 9.267 20.697 20.698 20.697Z" fill="#000"/><path fill-rule="evenodd" clip-rule="evenodd" d="M167.742 112.28h-.006v11.476a8 8 0 0 1-8 8H53.686a8 8 0 0 1-8-8v-14.111h.006V86.672a8 8 0 0 1 8-8h106.05a8 8 0 0 1 8 8v25.608Z" fill="#E0D8D4"/><path fill-rule="evenodd" clip-rule="evenodd" d="M45.192 86.672a8.5 8.5 0 0 1 8.5-8.5h106.05a8.5 8.5 0 0 1 8.5 8.5v25.608a.493.493 0 0 1-.006.078v11.398a8.5 8.5 0 0 1-8.5 8.5H53.686a8.5 8.5 0 0 1-8.5-8.5v-14.111c0-.026.002-.052.006-.078V86.672Zm.993 23.051v14.033a7.5 7.5 0 0 0 7.5 7.5h106.051a7.5 7.5 0 0 0 7.5-7.5V112.28c0-.026.002-.052.006-.078v-25.53a7.5 7.5 0 0 0-7.5-7.5H53.692a7.5 7.5 0 0 0-7.5 7.5v22.973a.493.493 0 0 1-.007.078Z" fill="#000"/><path d="M115.451 93.757h2.038v2.76c3.393.312 6.283 2.277 6.283 5.364v.219h-4.64v-.187c0-.92-.745-1.466-1.643-1.669v3.103c2.723.452 6.527 1.435 6.527 5.052 0 3.462-3.149 5.021-6.527 5.271v3.087h-2.038v-3.087c-3.423-.296-6.435-2.09-6.435-5.333v-.281h4.685v.219c0 .92.639 1.45 1.75 1.652v-3.274c-2.921-.53-6.207-1.731-6.207-5.006 0-3.071 2.723-4.818 6.207-5.13v-2.76Zm-1.598 7.781c0 .671.609 1.076 1.598 1.373v-2.682c-.852.155-1.598.545-1.598 1.309Zm5.584 7.002c0-.796-.594-1.185-1.948-1.497v2.916c1.05-.141 1.948-.593 1.948-1.419Z" fill="#BCA89B"/><path fill-rule="evenodd" clip-rule="evenodd" d="M114.451 92.757h4.038v2.887c3.273.586 6.283 2.7 6.283 6.237v1.219h-4.08a9.34 9.34 0 0 1 1.586.723c1.515.885 2.738 2.325 2.738 4.576 0 2.088-.973 3.636-2.42 4.657-1.166.823-2.62 1.297-4.107 1.511v3.19h-4.038v-3.204c-1.517-.248-2.961-.784-4.104-1.646-1.396-1.054-2.331-2.594-2.331-4.57v-1.281h4.916c-.784-.26-1.55-.597-2.227-1.04-1.402-.916-2.461-2.32-2.461-4.369 0-1.873.847-3.36 2.187-4.392 1.094-.843 2.498-1.37 4.02-1.62v-2.878Zm1 3.76c-3.484.312-6.207 2.059-6.207 5.13 0 3.275 3.286 4.476 6.207 5.006v3.274c-.396-.072-.732-.186-1-.344-.485-.286-.75-.716-.75-1.308v-.219h-4.685v.281c0 .248.017.488.051.719.412 2.79 3.223 4.34 6.384 4.614v3.087h2.038v-3.087c3.378-.25 6.527-1.809 6.527-5.271 0-3.617-3.804-4.6-6.527-5.052v-3.103c.374.085.722.229 1 .435.39.288.643.697.643 1.234v.187h4.64v-.219c0-.269-.022-.53-.064-.781-.444-2.636-3.122-4.298-6.219-4.583v-2.76h-2.038v2.76Zm0 6.394v-2.682c-.371.067-.722.18-1 .348-.36.218-.598.53-.598.961 0 .399.215.704.598.948.26.166.599.304 1 .425Zm2.038 4.132v2.916a3.949 3.949 0 0 0 1-.259c.562-.238.948-.619.948-1.16 0-.562-.297-.922-.948-1.194a6.224 6.224 0 0 0-1-.303Z" fill="#000"/><path d="M133.451 93.757h2.038v2.76c3.393.312 6.283 2.277 6.283 5.364v.219h-4.64v-.187c0-.92-.745-1.466-1.643-1.669v3.103c2.723.452 6.527 1.435 6.527 5.052 0 3.462-3.149 5.021-6.527 5.271v3.087h-2.038v-3.087c-3.423-.296-6.435-2.09-6.435-5.333v-.281h4.685v.219c0 .92.639 1.45 1.75 1.652v-3.274c-2.921-.53-6.207-1.731-6.207-5.006 0-3.071 2.723-4.818 6.207-5.13v-2.76Zm-1.598 7.781c0 .671.609 1.076 1.598 1.373v-2.682c-.852.155-1.598.545-1.598 1.309Zm5.584 7.002c0-.796-.594-1.185-1.948-1.497v2.916c1.05-.141 1.948-.593 1.948-1.419Z" fill="#BCA89B"/><path fill-rule="evenodd" clip-rule="evenodd" d="M132.451 92.757h4.038v2.887c3.273.586 6.283 2.7 6.283 6.237v1.219h-4.08a9.34 9.34 0 0 1 1.586.723c1.515.885 2.738 2.325 2.738 4.576 0 2.088-.973 3.636-2.42 4.657-1.166.823-2.62 1.297-4.107 1.511v3.19h-4.038v-3.204c-1.517-.248-2.961-.784-4.104-1.646-1.396-1.054-2.331-2.594-2.331-4.57v-1.281h4.916c-.784-.26-1.55-.597-2.227-1.04-1.402-.916-2.461-2.32-2.461-4.369 0-1.873.847-3.36 2.187-4.392 1.094-.843 2.498-1.37 4.02-1.62v-2.878Zm1 3.76c-3.484.312-6.207 2.059-6.207 5.13 0 3.275 3.286 4.476 6.207 5.006v3.274c-.396-.072-.732-.186-1-.344-.485-.286-.75-.716-.75-1.308v-.219h-4.685v.281c0 .248.017.488.051.719.412 2.79 3.223 4.34 6.384 4.614v3.087h2.038v-3.087c3.378-.25 6.527-1.809 6.527-5.271 0-3.617-3.804-4.6-6.527-5.052v-3.103c.374.085.722.229 1 .435.39.288.643.697.643 1.234v.187h4.64v-.219c0-.269-.022-.53-.064-.781-.444-2.636-3.122-4.298-6.219-4.583v-2.76h-2.038v2.76Zm0 6.394v-2.682c-.371.067-.722.18-1 .348-.36.218-.598.53-.598.961 0 .399.215.704.598.948.26.166.599.304 1 .425Zm2.038 4.132v2.916a3.949 3.949 0 0 0 1-.259c.562-.238.948-.619.948-1.16 0-.562-.297-.922-.948-1.194a6.224 6.224 0 0 0-1-.303Z" fill="#000"/><path d="M98.754 106.067c0 11.346-9.198 20.544-20.544 20.544s-20.544-9.198-20.544-20.544 9.198-20.544 20.544-20.544c11.347 0 20.544 9.198 20.544 20.544Z" fill="#BCA89B"/><path fill-rule="evenodd" clip-rule="evenodd" d="M78.21 125.611c10.794 0 19.544-8.75 19.544-19.544s-8.75-19.544-19.544-19.544-19.544 8.75-19.544 19.544 8.75 19.544 19.544 19.544Zm0 1c11.347 0 20.544-9.198 20.544-20.544S89.556 85.523 78.21 85.523s-20.544 9.198-20.544 20.544 9.198 20.544 20.544 20.544Z" fill="#000"/><path fill-rule="evenodd" clip-rule="evenodd" d="M69.227 108.103v-10.17h-1.725v15.815h1.725v-3.92h17.45v3.93h1.726v-5.655h-.001v-3.942a3.738 3.738 0 0 0-3.739-3.738h-7.572v7.68h-7.864Zm17.45-3.942v3.942h-7.86v-5.955h5.846c1.112 0 2.013.902 2.013 2.013Zm-14.563.005a1.054 1.054 0 1 1 2.109 0 1.054 1.054 0 0 1-2.109 0Zm1.055-2.78a2.78 2.78 0 1 0 0 5.56 2.78 2.78 0 0 0 0-5.56Z" fill="#BCA89B"/><path fill-rule="evenodd" clip-rule="evenodd" d="M26.018 101.758v9.488c0 4.74 3.964 8.582 8.853 8.582h4.757l-5.987 5.803a1.219 1.219 0 0 0 0 1.762 1.314 1.314 0 0 0 1.818 0l8.182-7.93a1.22 1.22 0 0 0 0-1.763l-8.182-7.93a1.314 1.314 0 0 0-1.819 0 1.219 1.219 0 0 0 0 1.762l5.988 5.803H34.87c-3.47 0-6.282-2.726-6.282-6.089v-9.488h-2.571Z" fill="#FF6842" stroke="#FF6842"/><path fill-rule="evenodd" clip-rule="evenodd" d="M152.622 81.546h-.005v13.321a8 8 0 0 1-8 8h-117.6a8 8 0 0 1-8-8V78.665h.006V52.758a8 8 0 0 1 8-8h117.599a8 8 0 0 1 8 8v28.788Z" fill="#FFF5EE"/><path fill-rule="evenodd" clip-rule="evenodd" d="M18.523 52.758a8.5 8.5 0 0 1 8.5-8.5h117.599a8.5 8.5 0 0 1 8.5 8.5v28.788a.408.408 0 0 1-.005.07v13.251a8.5 8.5 0 0 1-8.5 8.5h-117.6a8.5 8.5 0 0 1-8.5-8.5V78.665c0-.024.002-.048.006-.07V52.757Zm.995 25.977v16.132a7.5 7.5 0 0 0 7.5 7.5h117.599a7.5 7.5 0 0 0 7.5-7.5v-13.32a.54.54 0 0 1 .005-.07V52.757a7.5 7.5 0 0 0-7.5-7.5h-117.6a7.5 7.5 0 0 0-7.5 7.5v25.907a.506.506 0 0 1-.004.07Z" fill="#000"/><path d="M108.308 61.627h2.165v2.924c3.603.33 6.672 2.411 6.672 5.682v.23h-4.927v-.197c0-.975-.792-1.553-1.745-1.768v3.287c2.892.48 6.931 1.52 6.931 5.352 0 3.666-3.344 5.318-6.931 5.582v3.27h-2.165v-3.27c-3.635-.313-6.833-2.213-6.833-5.648v-.298h4.975v.232c0 .974.679 1.536 1.858 1.75v-3.468c-3.101-.562-6.591-1.834-6.591-5.302 0-3.254 2.892-5.104 6.591-5.434v-2.924Zm-1.696 8.242c0 .71.646 1.14 1.696 1.454v-2.841c-.904.165-1.696.578-1.696 1.387Zm5.929 7.416c0-.842-.63-1.255-2.068-1.585v3.088c1.115-.148 2.068-.627 2.068-1.503Z" fill="#fff"/><path fill-rule="evenodd" clip-rule="evenodd" d="M107.308 60.627h4.165v3.047c1.617.277 3.129.892 4.31 1.833 1.419 1.13 2.362 2.741 2.362 4.726v1.23h-4.632c.694.225 1.383.51 2.013.877 1.594.928 2.878 2.437 2.878 4.797 0 2.192-1.023 3.813-2.545 4.885-1.241.873-2.796 1.374-4.386 1.596v3.372h-4.165v-3.386c-1.621-.256-3.165-.824-4.381-1.74-1.47-1.105-2.452-2.72-2.452-4.793v-1.298h5.544c-.955-.288-1.897-.676-2.716-1.21-1.475-.961-2.586-2.432-2.586-4.578 0-1.966.89-3.525 2.299-4.606 1.165-.895 2.664-1.454 4.292-1.712v-3.04Zm1 3.924c-3.699.33-6.591 2.18-6.591 5.434 0 3.469 3.49 4.74 6.591 5.302v3.468a3.357 3.357 0 0 1-1-.33c-.554-.301-.858-.769-.858-1.42v-.232h-4.975v.298c0 .242.015.476.046.702.406 2.993 3.408 4.655 6.787 4.946v3.27h2.165v-3.27c3.587-.264 6.931-1.915 6.931-5.582 0-3.832-4.039-4.873-6.931-5.352v-3.287c.37.084.716.222 1 .417.449.307.745.754.745 1.35v.199h4.927v-.231c0-.264-.02-.52-.058-.77-.441-2.825-3.302-4.608-6.614-4.912v-2.924h-2.165v2.924Zm0 6.772v-2.841a3.303 3.303 0 0 0-1 .333c-.416.232-.696.573-.696 1.054 0 .444.252.778.696 1.042.268.16.606.294 1 .412Zm2.165 4.377v3.088c.359-.047.701-.13 1-.248.63-.25 1.068-.661 1.068-1.255 0-.612-.333-.998-1.068-1.29a6.968 6.968 0 0 0-1-.295Zm1 1.421v.28c.073-.067.069-.103.068-.114v-.002c0-.081-.014-.107-.014-.107-.002-.003-.005-.009-.014-.02a.33.33 0 0 0-.04-.037Z" fill="#000"/><path d="M77.113 74.742c0 12.42-10.068 22.488-22.488 22.488S32.137 87.162 32.137 74.742s10.068-22.489 22.488-22.489 22.488 10.069 22.488 22.489Z" fill="#FFE2D7"/><path fill-rule="evenodd" clip-rule="evenodd" d="M54.625 96.23c11.868 0 21.488-9.62 21.488-21.488s-9.62-21.489-21.488-21.489-21.488 9.621-21.488 21.489c0 11.867 9.62 21.488 21.488 21.488Zm0 1c12.42 0 22.488-10.068 22.488-22.488S67.045 52.253 54.625 52.253 32.137 62.322 32.137 74.742 42.205 97.23 54.625 97.23Z" fill="#000"/><path fill-rule="evenodd" clip-rule="evenodd" d="M44.91 76.896V65.76h-1.89v17.313h1.89v-4.29h19.102v4.302H65.9v-6.19h-.003V72.58a4.092 4.092 0 0 0-4.092-4.093h-8.29v8.409H44.91Zm19.099-4.316v4.316h-8.604v-6.52h6.4c1.217 0 2.203.987 2.203 2.204Zm-15.941.005a1.154 1.154 0 1 1 2.308 0 1.154 1.154 0 0 1-2.308 0Zm1.154-3.042a3.043 3.043 0 1 0 0 6.085 3.043 3.043 0 0 0 0-6.085Z" fill="#000"/></svg>