<svg width="200" height="200" viewBox="0 0 200 200" fill="none" xmlns="http://www.w3.org/2000/svg"><g clip-path="url(#a)"><path d="M142.87 51.55H18.5v90.95c0 4.42 3.58 8 8 8h108.37c4.42 0 8-3.58 8-8V51.55Z" fill="#F5EEE8"/><path d="M134.87 151H26.5c-4.69 0-8.5-3.81-8.5-8.5V51.05h125.37v91.45c0 4.69-3.81 8.5-8.5 8.5ZM19 52.05v90.45c0 4.14 3.36 7.5 7.5 7.5h108.37c4.14 0 7.5-3.36 7.5-7.5V52.05H19Z" fill="#010101"/><path d="M134.87 33.77H26.5c-4.42 0-8 3.58-8 8v11.06h124.37V41.77c0-4.42-3.58-8-8-8Z" fill="#D7E8EF"/><path d="M143.37 53.33H18V41.77c0-4.69 3.81-8.5 8.5-8.5h108.37c4.69 0 8.5 3.81 8.5 8.5v11.56ZM19 52.33h123.37V41.77c0-4.14-3.36-7.5-7.5-7.5H26.5c-4.14 0-7.5 3.36-7.5 7.5v10.56Z" fill="#010101"/><path d="M54.58 22.5H41.91v23.16h12.67V22.5Z" fill="#D7E8EF"/><path d="M55.08 46.16H41.41V22h13.67v24.16Zm-12.67-1h11.67V23H42.41v22.16Z" fill="#010101"/><path d="M119.33 22.5h-12.67v23.16h12.67V22.5Z" fill="#D7E8EF"/><path d="M119.83 46.16h-13.67V22h13.67v24.16Zm-12.67-1h11.67V23h-11.67v22.16Z" fill="#010101"/><path d="m37.5 33.5 4 11.5V33.5h-4ZM102.5 33.5l4 11.5V33.5h-4Z" fill="#000"/><path d="M49.37 64.26H31.21v18.16h18.16V64.26Z" fill="#fff"/><path d="M49.87 82.91H30.71V63.75h19.16v19.16Zm-18.16-1h17.16V64.75H31.71v17.16Z" fill="#010101"/><path d="M49.37 91.49H31.21v18.16h18.16V91.49Z" fill="#fff"/><path d="M49.87 110.15H30.71V90.99h19.16v19.16Zm-18.16-1h17.16V91.99H31.71v17.16Z" fill="#010101"/><path d="M49.37 118.729H31.21v18.16h18.16v-18.16Z" fill="#FF6842"/><path d="M49.87 137.38H30.71v-19.16h19.16v19.16Zm-18.16-1h17.16v-17.16H31.71v17.16Z" fill="#010101"/><path d="M76.6 64.26H58.44v18.16H76.6V64.26Z" fill="#FF6842"/><path d="M77.1 82.91H57.94V63.75H77.1v19.16Zm-18.16-1H76.1V64.75H58.94v17.16Z" fill="#010101"/><path d="M76.6 91.49H58.44v18.16H76.6V91.49Z" fill="#fff"/><path d="M77.1 110.15H57.94V90.99H77.1v19.16Zm-18.16-1H76.1V91.99H58.94v17.16Z" fill="#010101"/><path d="M76.6 118.729H58.44v18.16H76.6v-18.16Z" fill="#fff"/><path d="M77.1 137.38H57.94v-19.16H77.1v19.16Zm-18.16-1H76.1v-17.16H58.94v17.16Z" fill="#010101"/><path d="M103.83 64.26H85.67v18.16h18.16V64.26Z" fill="#fff"/><path d="M104.33 82.91H85.17V63.75h19.16v19.16Zm-18.16-1h17.16V64.75H86.17v17.16Z" fill="#010101"/><path d="M103.83 91.49H85.67v18.16h18.16V91.49Z" fill="#FF6842"/><path d="M104.33 110.15H85.17V90.99h19.16v19.16Zm-18.16-1h17.16V91.99H86.17v17.16Z" fill="#010101"/><path d="M103.83 118.729H85.67v18.16h18.16v-18.16Z" fill="#fff"/><path d="M104.33 137.38H85.17v-19.16h19.16v19.16Zm-18.16-1h17.16v-17.16H86.17v17.16Z" fill="#010101"/><path d="M131.07 64.26h-18.16v18.16h18.16V64.26Z" fill="#fff"/><path d="M131.57 82.91h-19.16V63.75h19.16v19.16Zm-18.16-1h17.16V64.75h-17.16v17.16Z" fill="#010101"/><path d="M131.07 91.49h-18.16v18.16h18.16V91.49Z" fill="#fff"/><path d="M131.57 110.15h-19.16V90.99h19.16v19.16Zm-18.16-1h17.16V91.99h-17.16v17.16Z" fill="#010101"/><path d="M131.07 118.729h-18.16v18.16h18.16v-18.16Z" fill="#fff"/><path d="M131.57 137.38h-19.16v-19.16h19.16v19.16Zm-18.16-1h17.16v-17.16h-17.16v17.16Z" fill="#010101"/><path d="M136.86 176.5c8.19 0 16.2-2.39 23.02-6.88 6.82-4.5 12.13-10.9 15.27-18.39a40.653 40.653 0 0 0 2.38-23.69 40.856 40.856 0 0 0-11.32-21.01 41.493 41.493 0 0 0-21.2-11.23 41.761 41.761 0 0 0-23.93 2.32 41.315 41.315 0 0 0-18.59 15.1 40.71 40.71 0 0 0-6.98 22.78c0 10.87 4.35 21.29 12.1 28.98 7.76 7.69 18.28 12.01 29.26 12.02h-.01Z" fill="#000"/><path d="M136.91 177h-.05c-11.19 0-21.7-4.33-29.61-12.16C99.34 157 94.99 146.58 95 135.5c0-8.24 2.44-16.21 7.07-23.06 4.62-6.85 11.13-12.13 18.82-15.28a42.162 42.162 0 0 1 24.22-2.35c8.16 1.61 15.58 5.54 21.46 11.37 5.88 5.83 9.84 13.18 11.46 21.26a40.88 40.88 0 0 1-2.41 23.98c-3.19 7.61-8.54 14.04-15.46 18.61a42.056 42.056 0 0 1-23.24 6.97h-.01Zm-.02-82c-5.33 0-10.63 1.04-15.62 3.08-7.5 3.07-13.86 8.23-18.37 14.92-4.51 6.69-6.9 14.46-6.9 22.5 0 10.81 4.24 20.98 11.96 28.62 7.72 7.65 17.98 11.87 28.91 11.88h.05c8.1 0 15.95-2.35 22.69-6.8a40.464 40.464 0 0 0 15.09-18.17 40.086 40.086 0 0 0 2.35-23.4c-1.58-7.89-5.45-15.06-11.18-20.75a40.875 40.875 0 0 0-20.95-11.1c-2.66-.53-5.35-.79-8.02-.79l-.01.01Z" fill="#000"/><path d="M137.859 172.031c7.1 0 14.04-2.07 19.95-5.97s10.51-9.45 13.24-15.94a35.22 35.22 0 0 0 2.06-20.53 35.359 35.359 0 0 0-9.81-18.2 36.081 36.081 0 0 0-18.37-9.74 36.244 36.244 0 0 0-20.74 2.02c-6.56 2.69-12.17 7.24-16.11 13.09a35.262 35.262 0 0 0-3.33 33.33c1.8 4.31 4.44 8.23 7.77 11.53 3.33 3.3 7.28 5.92 11.63 7.71 4.35 1.79 9.01 2.71 13.72 2.71l-.01-.01Z" fill="#000"/><path d="M137.9 172.54h-.04c-4.8 0-9.48-.93-13.91-2.75-4.43-1.82-8.4-4.45-11.79-7.81-3.39-3.36-6.04-7.3-7.88-11.69a35.649 35.649 0 0 1-2.76-13.78c0-7.15 2.12-14.08 6.14-20.02 4.01-5.95 9.66-10.53 16.34-13.27a36.637 36.637 0 0 1 21.03-2.04c7.08 1.4 13.52 4.81 18.63 9.87a35.763 35.763 0 0 1 9.95 18.46c1.41 7.02.68 14.22-2.09 20.82a35.925 35.925 0 0 1-13.42 16.16c-6 3.96-12.97 6.05-20.18 6.05h-.02Zm-.02-71.07c-4.61 0-9.19.9-13.51 2.67a35.25 35.25 0 0 0-15.89 12.9c-3.9 5.78-5.97 12.51-5.97 19.47 0 4.62.9 9.13 2.68 13.4 1.79 4.27 4.36 8.09 7.66 11.36 3.3 3.27 7.16 5.83 11.47 7.6 4.31 1.77 8.87 2.67 13.54 2.67h.04c7.01 0 13.8-2.04 19.63-5.89 5.84-3.86 10.36-9.29 13.05-15.71a34.654 34.654 0 0 0 2.03-20.24c-1.36-6.82-4.71-13.03-9.67-17.95a35.413 35.413 0 0 0-18.12-9.6c-2.3-.45-4.62-.68-6.94-.68Z" fill="#000"/><path d="M137.83 165.81c5.85 0 11.57-1.71 16.43-4.92 4.87-3.22 8.66-7.79 10.9-13.14a29.135 29.135 0 0 0 1.7-16.93 29.238 29.238 0 0 0-8.08-15.01c-4.13-4.1-9.4-6.9-15.14-8.03a29.868 29.868 0 0 0-17.08 1.66 29.534 29.534 0 0 0-13.27 10.79 29.122 29.122 0 0 0-2.74 27.49 29.42 29.42 0 0 0 6.4 9.51c2.74 2.72 6 4.88 9.58 6.35a30.01 30.01 0 0 0 11.31 2.24l-.01-.01Z" fill="#000"/><path d="M137.87 166.31h-.04c-3.97 0-7.83-.77-11.49-2.27s-6.94-3.68-9.75-6.46c-2.8-2.78-4.99-6.03-6.51-9.67a29.37 29.37 0 0 1-2.28-11.4c0-5.92 1.75-11.64 5.07-16.56 3.31-4.92 7.98-8.71 13.5-10.98a30.184 30.184 0 0 1 17.37-1.69 30.117 30.117 0 0 1 15.39 8.16c4.22 4.18 7.06 9.46 8.22 15.27 1.16 5.8.56 11.76-1.73 17.22a29.764 29.764 0 0 1-11.09 13.37c-4.95 3.27-10.72 5-16.67 5l.01.01Zm-.02-58.61c-3.79 0-7.55.74-11.1 2.19a28.992 28.992 0 0 0-13.05 10.61 28.486 28.486 0 0 0-4.9 16 28.606 28.606 0 0 0 8.49 20.36c2.71 2.69 5.88 4.79 9.42 6.24 3.54 1.46 7.28 2.2 11.11 2.2h.04c5.76 0 11.33-1.67 16.12-4.84 4.8-3.17 8.5-7.64 10.72-12.92a28.487 28.487 0 0 0 1.67-16.64 28.56 28.56 0 0 0-7.95-14.75c-4.08-4.05-9.22-6.77-14.88-7.89-1.89-.37-3.8-.56-5.7-.56h.01Z" fill="#D7E8EF"/><path d="m155.351 121.85.02-.02c.2-.21.29-.49.28-.76-.01-.27-.12-.53-.3-.73-.18-.2-.42-.35-.69-.39-.27-.05-.56 0-.79.18 0 0-.02.01-.02.02l-15.62 13.13c-.45-.13-.92-.15-1.36-.03-.54.14-1 .48-1.31.95-.3.47-.42 1.04-.35 1.61.07.57.31 1.12.69 1.56.38.45.88.78 1.43.94.55.16 1.13.14 1.65-.07.52-.22.92-.61 1.16-1.12.19-.42.26-.89.2-1.36l15.01-13.9v-.01Z" fill="#000"/><path d="M138.06 138.91c-.29 0-.58-.04-.87-.12a3.51 3.51 0 0 1-1.67-1.09c-.45-.53-.73-1.16-.81-1.83-.08-.69.07-1.38.42-1.94.37-.58.94-.99 1.6-1.16.44-.12.9-.13 1.36-.03l15.43-12.97c.38-.29.8-.38 1.22-.31.38.07.72.26.98.55.26.29.41.66.42 1.04.02.43-.13.84-.42 1.13l-.04.04-14.83 13.74c.02.48-.07.94-.26 1.36a2.77 2.77 0 0 1-1.42 1.38c-.35.15-.72.22-1.11.22v-.01Zm-.58-5.25c-.17 0-.33.02-.49.06-.42.11-.78.37-1.01.74-.23.36-.33.82-.27 1.28a2.532 2.532 0 0 0 1.77 2.08c.45.13.92.11 1.32-.05.4-.17.72-.48.9-.87.15-.33.2-.7.16-1.08a.5.5 0 0 1 .16-.43l15.01-13.9a.57.57 0 0 0 .14-.39c0-.15-.07-.3-.18-.42a.743.743 0 0 0-.4-.23.49.49 0 0 0-.41.09l-15.62 13.13c-.13.11-.3.14-.46.1-.2-.06-.4-.09-.6-.09l-.02-.02Z" fill="#000"/><path d="M138.99 107.83v-.02a1.22 1.22 0 0 0-.35-.78c-.21-.21-.49-.34-.79-.34-.3 0-.58.13-.79.34-.21.21-.33.49-.35.78v.02l-.47 25.81c-.42.32-.74.75-.94 1.25-.23.59-.28 1.24-.14 1.87.14.62.47 1.18.94 1.59.47.41 1.06.64 1.67.66.62.01 1.21-.19 1.7-.58.49-.39.83-.94 1-1.55.17-.61.14-1.27-.07-1.87-.18-.51-.49-.96-.9-1.3l-.52-25.87.01-.01Z" fill="#000"/><path d="M137.83 139.5h-.06c-.72-.02-1.43-.29-1.99-.78-.54-.47-.93-1.13-1.1-1.86-.16-.72-.11-1.48.16-2.16.2-.51.51-.95.91-1.31l.46-25.58c.03-.47.2-.85.49-1.15.62-.63 1.68-.62 2.3 0 .29.29.46.68.49 1.1v.05l.51 25.65c.39.37.69.84.88 1.36.24.69.27 1.46.08 2.17-.19.72-.61 1.36-1.17 1.81-.56.45-1.26.7-1.96.7Zm.02-32.31c-.16 0-.32.07-.44.19s-.19.29-.2.46l-.47 25.81c0 .15-.08.29-.2.39-.34.26-.61.62-.78 1.04-.19.49-.24 1.05-.12 1.57s.4.99.78 1.33c.38.33.87.52 1.36.53.5 0 .97-.15 1.38-.48.4-.32.69-.78.83-1.29.14-.52.12-1.07-.06-1.57-.15-.43-.41-.8-.75-1.08a.494.494 0 0 1-.18-.38l-.52-25.87a.692.692 0 0 0-.2-.45.613.613 0 0 0-.44-.19l.01-.01Z" fill="#000"/><path d="M139.19 178.5c8.19 0 16.2-2.39 23.02-6.88 6.82-4.5 12.13-10.9 15.27-18.39a40.653 40.653 0 0 0 2.38-23.69 40.856 40.856 0 0 0-11.32-21.01 41.493 41.493 0 0 0-21.2-11.23 41.761 41.761 0 0 0-23.93 2.32 41.315 41.315 0 0 0-18.59 15.1 40.712 40.712 0 0 0-6.98 22.78c0 10.87 4.35 21.29 12.1 28.98 7.76 7.69 18.28 12.01 29.26 12.02h-.01Z" fill="#FFB972"/><path d="M139.24 179h-.05c-11.19 0-21.7-4.33-29.61-12.16-7.91-7.84-12.26-18.26-12.25-29.34 0-8.24 2.44-16.21 7.07-23.06 4.62-6.85 11.13-12.13 18.82-15.28a42.162 42.162 0 0 1 24.22-2.35c8.16 1.61 15.58 5.54 21.46 11.37 5.88 5.83 9.84 13.18 11.46 21.26a40.88 40.88 0 0 1-2.41 23.98c-3.19 7.61-8.54 14.04-15.46 18.61a42.056 42.056 0 0 1-23.24 6.97h-.01Zm-.03-82c-5.33 0-10.63 1.04-15.62 3.08-7.5 3.08-13.86 8.23-18.37 14.92-4.51 6.68-6.9 14.46-6.9 22.5 0 10.81 4.24 20.98 11.96 28.62 7.72 7.65 17.98 11.87 28.91 11.88h.05c8.1 0 15.95-2.35 22.69-6.8a40.464 40.464 0 0 0 15.09-18.17 40.086 40.086 0 0 0 2.35-23.4c-1.58-7.89-5.45-15.06-11.18-20.75a40.875 40.875 0 0 0-20.95-11.1c-2.66-.53-5.35-.79-8.02-.79l-.01.01Z" fill="#000"/><path d="M139.19 173.031c7.1 0 14.04-2.07 19.95-5.97s10.51-9.45 13.24-15.94a35.22 35.22 0 0 0 2.06-20.53 35.359 35.359 0 0 0-9.81-18.2 36.072 36.072 0 0 0-18.38-9.74 36.244 36.244 0 0 0-20.74 2.02c-6.56 2.69-12.17 7.24-16.11 13.09a35.262 35.262 0 0 0-3.33 33.33c1.8 4.31 4.44 8.23 7.77 11.53 3.33 3.3 7.28 5.92 11.63 7.71 4.35 1.79 9.01 2.71 13.72 2.71v-.01Z" fill="#F5EEE8"/><path d="M139.23 173.54h-.04c-4.8 0-9.48-.93-13.91-2.75-4.43-1.82-8.4-4.45-11.79-7.81-3.39-3.36-6.04-7.3-7.88-11.69a35.649 35.649 0 0 1-2.76-13.78c0-7.15 2.12-14.08 6.14-20.02 4.01-5.95 9.66-10.53 16.34-13.27a36.625 36.625 0 0 1 21.03-2.04c7.08 1.4 13.53 4.81 18.63 9.87a35.763 35.763 0 0 1 9.95 18.46c1.41 7.02.68 14.22-2.09 20.82a35.925 35.925 0 0 1-13.42 16.16c-6 3.96-12.97 6.05-20.18 6.05h-.02Zm-.02-71.07c-4.61 0-9.19.9-13.51 2.67a35.25 35.25 0 0 0-15.89 12.9 34.682 34.682 0 0 0-5.96 19.47c0 4.62.9 9.13 2.68 13.4 1.79 4.27 4.36 8.09 7.66 11.36 3.3 3.27 7.16 5.83 11.47 7.6 4.31 1.77 8.87 2.67 13.54 2.67h.04c7.01 0 13.8-2.04 19.63-5.89 5.84-3.86 10.36-9.29 13.05-15.71a34.654 34.654 0 0 0 2.03-20.24c-1.36-6.82-4.71-13.03-9.67-17.95s-11.23-8.24-18.12-9.6c-2.3-.45-4.62-.68-6.94-.68h-.01Z" fill="#000"/><path d="M139.16 166.81c5.85 0 11.57-1.71 16.43-4.92 4.87-3.22 8.66-7.79 10.9-13.14a29.135 29.135 0 0 0 1.7-16.93 29.238 29.238 0 0 0-8.08-15.01c-4.13-4.1-9.4-6.9-15.14-8.03a29.868 29.868 0 0 0-17.08 1.66 29.534 29.534 0 0 0-13.27 10.79 29.122 29.122 0 0 0-2.74 27.49 29.42 29.42 0 0 0 6.4 9.51c2.74 2.72 6 4.88 9.58 6.35a29.97 29.97 0 0 0 11.31 2.24l-.01-.01Z" fill="#D7E8EF"/><path d="M139.2 167.31h-.04c-3.97 0-7.83-.77-11.49-2.27s-6.94-3.68-9.74-6.46-4.99-6.03-6.51-9.67a29.37 29.37 0 0 1-2.28-11.4c0-5.92 1.75-11.64 5.07-16.56 3.31-4.92 7.98-8.71 13.5-10.98a30.184 30.184 0 0 1 17.37-1.69 30.117 30.117 0 0 1 15.39 8.16c4.22 4.18 7.06 9.46 8.22 15.27 1.16 5.8.56 11.76-1.73 17.22a29.764 29.764 0 0 1-11.09 13.37c-4.95 3.27-10.72 5-16.67 5v.01Zm-.02-58.61c-3.79 0-7.55.74-11.1 2.19a28.992 28.992 0 0 0-13.05 10.61 28.486 28.486 0 0 0-4.9 16 28.606 28.606 0 0 0 8.49 20.36c2.71 2.69 5.88 4.79 9.42 6.25s7.28 2.2 11.11 2.2h.04c5.76 0 11.33-1.67 16.12-4.84a28.75 28.75 0 0 0 10.72-12.92 28.487 28.487 0 0 0 1.67-16.64 28.56 28.56 0 0 0-7.95-14.75 28.956 28.956 0 0 0-14.88-7.89c-1.89-.37-3.8-.56-5.7-.56l.01-.01Z" fill="#D7E8EF"/><path d="m156.68 122.85.02-.02c.2-.21.29-.49.28-.76-.01-.27-.12-.53-.3-.73-.18-.2-.42-.35-.69-.39-.27-.05-.56 0-.79.18 0 0-.02.01-.02.02l-15.62 13.13c-.45-.13-.92-.15-1.36-.03-.54.14-1 .48-1.31.95-.3.47-.42 1.04-.35 1.61.07.57.31 1.12.69 1.56.38.45.88.78 1.43.94.55.16 1.13.14 1.65-.07.52-.22.93-.61 1.16-1.12.19-.42.26-.89.2-1.36l15.01-13.9v-.01Z" fill="#FF6842"/><path d="M139.4 139.91c-.29 0-.58-.04-.87-.12a3.51 3.51 0 0 1-1.67-1.09c-.45-.53-.73-1.16-.81-1.83-.08-.69.07-1.38.42-1.94.37-.58.94-.99 1.6-1.16.44-.12.9-.13 1.36-.03l15.43-12.97c.38-.29.8-.38 1.22-.31.38.07.72.26.98.55.26.29.41.66.42 1.04.02.43-.13.83-.42 1.13l-.04.04-14.83 13.74c.02.48-.07.94-.26 1.36-.28.62-.79 1.11-1.42 1.38-.35.15-.72.22-1.11.22v-.01Zm-.58-5.25c-.17 0-.33.02-.49.06-.42.11-.78.37-1.01.74-.23.36-.33.82-.27 1.28a2.532 2.532 0 0 0 1.77 2.08c.45.13.92.11 1.32-.05.4-.17.72-.48.9-.87.15-.33.21-.7.16-1.08a.5.5 0 0 1 .16-.43l15.01-13.9h.01c.09-.1.14-.23.13-.38 0-.15-.07-.3-.18-.42a.743.743 0 0 0-.4-.23.49.49 0 0 0-.41.09l-15.62 13.13c-.13.11-.3.14-.46.1-.2-.06-.4-.09-.6-.09l-.02-.03Z" fill="#000"/><path d="M140.32 108.83v-.02a1.22 1.22 0 0 0-.35-.78c-.21-.21-.49-.34-.79-.34-.3 0-.58.13-.79.34-.21.21-.33.49-.35.78v.02l-.47 25.81c-.41.32-.74.75-.94 1.25-.23.59-.28 1.24-.14 1.87.14.62.47 1.18.94 1.59.47.41 1.06.64 1.67.66.62.01 1.21-.19 1.7-.58.49-.39.83-.94 1-1.55.17-.61.14-1.27-.07-1.87-.18-.51-.49-.96-.9-1.3l-.52-25.87.01-.01Z" fill="#FF6842"/><path d="M139.16 140.5h-.06c-.72-.02-1.43-.29-1.99-.78-.54-.47-.93-1.13-1.1-1.86-.16-.72-.11-1.48.16-2.16.2-.51.51-.95.91-1.31l.46-25.58c.03-.47.2-.85.49-1.15.62-.63 1.68-.63 2.3 0 .29.29.46.68.49 1.1v.05l.51 25.65c.39.37.69.84.88 1.36.24.69.27 1.46.08 2.17-.19.72-.61 1.36-1.17 1.81-.56.45-1.26.7-1.96.7Zm.02-32.31c-.16 0-.32.07-.44.19s-.19.29-.2.46l-.47 25.81c0 .15-.08.29-.2.39-.34.26-.61.62-.78 1.04-.19.49-.24 1.05-.12 1.57s.4.99.78 1.33c.38.33.87.52 1.36.53.5 0 .97-.15 1.38-.48.4-.32.69-.78.83-1.29.14-.52.12-1.07-.06-1.57-.15-.43-.41-.8-.75-1.08a.494.494 0 0 1-.18-.38l-.52-25.87a.692.692 0 0 0-.2-.45.613.613 0 0 0-.44-.19l.01-.01Z" fill="#000"/></g><defs><clipPath id="a"><path fill="#fff" d="M18 22h163.16v157H18z"/></clipPath></defs></svg>