<svg width="200" height="200" viewBox="0 0 200 200" fill="none" xmlns="http://www.w3.org/2000/svg"><g clip-path="url(#a)"><path d="M34.77 87.95c-9.19-14.21-5.18-33.14 8.96-42.29 14.05-9.09 32.76-5.49 41.99 8.78 9.19 14.21 5.18 33.14-8.96 42.29-2.07 1.34-4.32 2.37-6.6 3.12 1.61 2.689.81 6.179-1.83 7.879l-6.85 4.43 4.45 6.88c1.75 2.71.99 6.32-1.71 8.06l-6.85 4.43 3.17 4.91c2.46 3.8 1.38 8.86-2.4 11.31l-9.78 6.33c-3.78 2.45-8.84 1.35-11.3-2.45l-5.51-8.53c-1.86-2.87-2.5-6.34-1.79-9.68l8.52-40.26c.07-.41-.05-.83-.35-1.13-1.2-1.26-2.28-2.62-3.24-4.06h.05l.03-.02Zm32.29-29.79c-1.75-2.71-5.36-3.49-8.06-1.75-2.7 1.74-3.46 5.36-1.71 8.06 1.75 2.71 5.36 3.49 8.06 1.75 2.69-1.74 3.46-5.36 1.71-8.06Z" fill="#FFF650"/><path d="M43.99 155.89c-.62 0-1.24-.07-1.85-.2a8.674 8.674 0 0 1-5.47-3.79l-5.52-8.53c-1.94-3-2.6-6.57-1.86-10.06l8.52-40.26c.04-.24-.04-.5-.22-.67-1.24-1.31-2.35-2.7-3.3-4.14l-.39-.58.07-.02c-8.83-14.35-4.66-33.24 9.49-42.4 14.35-9.28 33.5-5.28 42.69 8.93 4.52 6.98 6.06 15.3 4.34 23.42-1.72 8.12-6.5 15.07-13.45 19.56-1.85 1.2-3.92 2.2-6.15 2.98 1.36 2.85.43 6.27-2.27 8.02l-6.43 4.16 4.18 6.46c1.9 2.94 1.07 6.87-1.86 8.76l-6.43 4.16 2.9 4.49a8.666 8.666 0 0 1 1.21 6.54 8.523 8.523 0 0 1-3.76 5.46l-9.78 6.33a8.579 8.579 0 0 1-4.67 1.38h.01Zm-8.46-67.62c.83 1.18 1.76 2.33 2.79 3.41.4.4.58.99.48 1.56l-8.53 40.28c-.69 3.23-.08 6.54 1.72 9.31l5.52 8.53a7.626 7.626 0 0 0 4.84 3.35c2 .43 4.05.06 5.77-1.05l9.78-6.33a7.563 7.563 0 0 0 3.32-4.83c.43-2.01.04-4.06-1.07-5.79l-3.44-5.33 7.27-4.7c2.46-1.59 3.16-4.9 1.56-7.37l-4.72-7.3 7.27-4.7a5.31 5.31 0 0 0 1.67-7.21l-.32-.54.59-.2c2.36-.78 4.54-1.81 6.48-3.07 6.73-4.35 11.35-11.07 13.01-18.93 1.67-7.86.17-15.91-4.2-22.67-9.04-13.97-27.18-17.76-41.3-8.63-13.9 9.01-17.85 27.67-8.83 41.62l.38.58h-.04v.01Zm26.68-20.62c-2.08 0-4.12-1.03-5.34-2.9a6.31 6.31 0 0 1-.88-4.77 6.247 6.247 0 0 1 2.74-3.99 6.285 6.285 0 0 1 4.76-.86c1.65.36 3.07 1.34 3.99 2.76 1.9 2.94 1.07 6.86-1.86 8.76a6.272 6.272 0 0 1-3.41 1.01v-.01Zm-.07-11.67c-1.01 0-2 .29-2.86.85a5.241 5.241 0 0 0-2.3 3.35c-.3 1.39-.03 2.82.74 4.02 1.6 2.47 4.9 3.19 7.36 1.6 2.46-1.59 3.16-4.9 1.56-7.37a5.341 5.341 0 0 0-4.5-2.45Z" fill="#000"/><path d="M57 92.373 44.958 148.68l.978.209 12.04-56.307-.978-.21Z" fill="#000"/><path fill-rule="evenodd" clip-rule="evenodd" d="M100.96 24.45c4.05-.97 8.32.18 11.34 3.06l53.75 51.3c4.91 4.68 5.09 12.46.4 17.36l-16.69 17.49c-4.68 4.91-12.46 5.09-17.36.4l-53.75-51.3a12.251 12.251 0 0 1-3.58-11.19l2.7-14.14c.91-4.74 4.51-8.51 9.2-9.64l14-3.35-.01.01Zm-6.35 11.33c-1.75-2.71-5.36-3.49-8.06-1.75-2.69 1.74-3.46 5.36-1.71 8.06 1.75 2.71 5.36 3.49 8.06 1.75 2.69-1.74 3.46-5.36 1.71-8.06Z" fill="#D7CBE4"/><path d="M166.45 96.17c4.68-4.91 4.5-12.68-.4-17.36l-53.75-51.3a12.286 12.286 0 0 0-11.34-3.06l-14 3.35c-4.69 1.13-8.29 4.9-9.2 9.64l-2.7 14.14c-.78 4.1.57 8.31 3.58 11.19l53.75 51.3c4.9 4.68 12.68 4.5 17.36-.4l16.7-17.49v-.01Zm-33.37 17.17-53.75-51.3a11.274 11.274 0 0 1-3.29-10.28l2.7-14.14c.83-4.36 4.14-7.82 8.45-8.85l14-3.35c3.72-.89 7.65.17 10.42 2.81l53.75 51.3c4.51 4.3 4.67 11.44.37 15.95l-16.7 17.49c-4.3 4.51-11.44 4.67-15.95.37Z" fill="#000"/><path d="M86.02 33.2c-3.16 2.05-4.05 6.28-2.01 9.45 2.05 3.17 6.28 4.09 9.44 2.04 3.16-2.05 4.05-6.28 2.01-9.45-2.05-3.17-6.28-4.09-9.44-2.04Zm6.89 10.65c-2.69 1.74-6.3.96-8.06-1.75-1.75-2.71-.99-6.32 1.71-8.06 2.7-1.74 6.3-.96 8.06 1.75 1.75 2.71.99 6.32-1.71 8.06Z" fill="#000"/><path fill-rule="evenodd" clip-rule="evenodd" d="M84.25 35.34c3.38 7.62.82 16.79-6.41 21.46-5.91 3.82-13.28 3.57-18.81-.04l-1.65 2.59c6.52 4.24 15.18 4.52 22.13.03 8.18-5.29 11.29-15.46 7.99-24.22l-.49.12-2.76.06Zm.55-5.12c-6.33-8.55-18.31-10.82-27.37-4.96-6.29 4.07-9.59 11.03-9.27 18.02 1-.44 2.02-.82 3.05-1.15.07-5.58 2.84-11.03 7.88-14.29 7.44-4.81 17.2-3.17 22.69 3.52.62-.42 1.33-.73 2.08-.92l.92-.22h.02Z" fill="#000"/><path d="m109.556 35.629-23 24.094 54.358 51.891 23.001-24.094-54.359-51.891Z" fill="#fff"/><path d="M120.85 173.11c26.22 0 47.48-21.26 47.48-47.48 0-26.22-21.26-47.48-47.48-47.48-26.22 0-47.48 21.26-47.48 47.48 0 26.22 21.26 47.48 47.48 47.48Z" fill="#000"/><path d="M120.85 173.61c-26.46 0-47.98-21.52-47.98-47.98 0-26.46 21.52-47.98 47.98-47.98 26.46 0 47.98 21.52 47.98 47.98 0 26.46-21.52 47.98-47.98 47.98Zm0-94.96c-25.9 0-46.98 21.07-46.98 46.98 0 25.91 21.07 46.98 46.98 46.98 25.91 0 46.98-21.08 46.98-46.98s-21.07-46.98-46.98-46.98Z" fill="#000"/><path d="M120.59 166.89c22.93 0 41.52-18.59 41.52-41.52 0-22.93-18.59-41.52-41.52-41.52-22.93 0-41.52 18.59-41.52 41.52 0 22.93 18.59 41.52 41.52 41.52Z" fill="#000"/><path d="M120.59 167.39c-23.17 0-42.02-18.85-42.02-42.02s18.85-42.02 42.02-42.02 42.02 18.85 42.02 42.02-18.85 42.02-42.02 42.02Zm0-83.04c-22.62 0-41.02 18.4-41.02 41.02 0 22.62 18.4 41.02 41.02 41.02 22.62 0 41.02-18.4 41.02-41.02 0-22.62-18.4-41.02-41.02-41.02Z" fill="#000"/><path d="M118.42 99.81h4.73v6.25c7.87.71 14.58 5.16 14.58 12.15v.49h-10.77v-.42c0-2.08-1.73-3.32-3.81-3.78v7.03c6.32 1.02 15.15 3.25 15.15 11.44s-7.31 11.37-15.15 11.94v6.99h-4.73v-6.99c-7.94-.67-14.94-4.73-14.94-12.08v-.64h10.88v.5c0 2.08 1.48 3.28 4.06 3.74v-7.42c-6.78-1.2-14.41-3.92-14.41-11.33 0-6.96 6.32-10.91 14.41-11.62v-6.25Zm-3.71 17.62c0 1.52 1.41 2.44 3.71 3.11v-6.07c-1.98.35-3.71 1.24-3.71 2.97v-.01Zm12.96 15.85c0-1.8-1.38-2.68-4.52-3.39v6.6c2.44-.32 4.52-1.34 4.52-3.21Z" fill="#000"/><path fill-rule="evenodd" clip-rule="evenodd" d="M117.6 99h6.36v6.33c3.78.45 7.29 1.75 9.93 3.81 2.82 2.2 4.65 5.28 4.65 9.07v1.31h-12.4v-1.24c0-1.23-.82-2.16-2.18-2.69v5.25c3.04.52 6.62 1.36 9.53 3.01 3.18 1.81 5.62 4.65 5.62 9.12 0 4.22-1.99 7.3-4.99 9.37-2.78 1.91-6.42 2.96-10.16 3.32v7.06h-6.36v-7.07c-3.8-.42-7.4-1.62-10.12-3.62-2.92-2.15-4.82-5.23-4.82-9.2v-1.45h12.5v1.31c0 .82.28 1.42.79 1.87.38.34.93.63 1.64.84v-5.71c-3.23-.62-6.67-1.6-9.37-3.33-2.93-1.87-5.04-4.63-5.04-8.68 0-3.76 1.72-6.72 4.5-8.8 2.58-1.94 6.06-3.12 9.91-3.55V99h.01Zm.81 7.06c-8.09.71-14.41 4.66-14.41 11.62 0 7.42 7.63 10.13 14.41 11.33v7.42c-.28-.05-.56-.11-.81-.18-2.07-.56-3.25-1.71-3.25-3.56v-.49h-10.88V133.02c.11 7.23 7.06 11.23 14.93 11.9v6.99h4.73v-6.99c7.84-.57 15.15-4.1 15.15-11.94s-8.83-10.42-15.15-11.44v-7.03c.28.06.55.14.81.23 1.7.58 3 1.75 3 3.55v.42h10.77v-.81c-.2-6.81-6.82-11.13-14.58-11.83v-6.25h-4.73v6.25l.01-.01Zm0 14.48v-6.07c-.28.05-.55.11-.81.18-1.62.44-2.89 1.3-2.89 2.79 0 1.33 1.08 2.2 2.89 2.85.26.09.53.18.81.26v-.01Zm-.81-5.05c-.52.16-.97.36-1.31.6-.52.37-.77.79-.77 1.33 0 .46.19.85.68 1.23.34.27.8.51 1.4.74v-3.92.02Zm5.55 14.4v6.6c.28-.04.55-.08.81-.14 2.07-.42 3.71-1.42 3.71-3.08 0-1.66-1.14-2.51-3.71-3.19-.26-.07-.53-.13-.81-.2v.01Zm.81 1.04v4.59c.76-.17 1.42-.42 1.92-.74.67-.43.97-.93.97-1.5 0-.64-.22-1.06-.75-1.45-.46-.33-1.15-.63-2.15-.9h.01Z" fill="#000"/><path d="M122.89 176.78c26.22 0 47.48-21.26 47.48-47.48 0-26.22-21.26-47.48-47.48-47.48-26.22 0-47.48 21.26-47.48 47.48 0 26.22 21.26 47.48 47.48 47.48Z" fill="#FFC700"/><path d="M122.89 177.28c-26.46 0-47.98-21.52-47.98-47.98 0-26.46 21.52-47.98 47.98-47.98 26.46 0 47.98 21.52 47.98 47.98 0 26.46-21.52 47.98-47.98 47.98Zm0-94.96c-25.9 0-46.98 21.07-46.98 46.98 0 25.91 21.07 46.98 46.98 46.98 25.91 0 46.98-21.08 46.98-46.98s-21.07-46.98-46.98-46.98Z" fill="#000"/><path d="M122.64 170.56c22.93 0 41.52-18.59 41.52-41.52 0-22.93-18.59-41.52-41.52-41.52-22.93 0-41.52 18.59-41.52 41.52 0 22.93 18.59 41.52 41.52 41.52Z" fill="#FFC700"/><path d="M122.63 171.06c-23.17 0-42.02-18.85-42.02-42.02s18.85-42.02 42.02-42.02 42.02 18.85 42.02 42.02-18.85 42.02-42.02 42.02Zm0-83.04c-22.62 0-41.02 18.4-41.02 41.02 0 22.62 18.4 41.02 41.02 41.02 22.62 0 41.02-18.4 41.02-41.02 0-22.62-18.4-41.02-41.02-41.02Z" fill="#000"/><path d="M120.46 103.49h4.73v6.25c7.87.71 14.58 5.15 14.58 12.15v.49H129v-.42c0-2.08-1.73-3.32-3.81-3.78v7.03c6.32 1.02 15.15 3.25 15.15 11.44s-7.31 11.37-15.15 11.93v6.99h-4.73v-6.99c-7.94-.67-14.94-4.73-14.94-12.08v-.64h10.88v.49c0 2.08 1.48 3.28 4.06 3.74v-7.41c-6.78-1.2-14.41-3.92-14.41-11.33 0-6.96 6.32-10.91 14.41-11.62v-6.25.01Zm-3.71 17.62c0 1.52 1.41 2.44 3.71 3.11v-6.07c-1.98.35-3.71 1.24-3.71 2.97v-.01Zm12.96 15.85c0-1.8-1.38-2.68-4.52-3.39v6.6c2.44-.32 4.52-1.34 4.52-3.21Z" fill="#FFFEB3"/><path fill-rule="evenodd" clip-rule="evenodd" d="M119.65 102.68h6.36v6.33c3.78.45 7.29 1.75 9.93 3.81 2.82 2.2 4.65 5.28 4.65 9.07v1.31h-12.4v-1.24c0-1.23-.82-2.16-2.18-2.69v5.25c3.04.52 6.62 1.35 9.53 3.01 3.18 1.81 5.61 4.65 5.61 9.12 0 4.22-1.99 7.3-4.99 9.37-2.78 1.92-6.42 2.96-10.16 3.32v7.06h-6.36v-7.07c-3.8-.42-7.4-1.62-10.12-3.62-2.92-2.15-4.82-5.23-4.82-9.2v-1.45h12.5v1.31c0 .82.28 1.42.79 1.87.38.34.92.63 1.64.85v-5.71c-3.23-.62-6.67-1.6-9.37-3.33-2.93-1.87-5.04-4.63-5.04-8.68 0-3.76 1.72-6.72 4.5-8.8 2.58-1.94 6.06-3.12 9.91-3.55v-6.33l.02-.01Zm.81 7.06c-8.09.71-14.41 4.66-14.41 11.62 0 7.42 7.63 10.14 14.41 11.33v7.41c-.28-.05-.56-.11-.81-.18-2.07-.56-3.25-1.71-3.25-3.56v-.5h-10.88V136.68c.11 7.23 7.06 11.23 14.93 11.9v6.99h4.73v-6.99c7.84-.57 15.15-4.1 15.15-11.93s-8.83-10.42-15.15-11.44v-7.03c.28.06.55.14.81.23 1.7.58 3 1.75 3 3.55v.42h10.77v-.81c-.2-6.81-6.82-11.13-14.58-11.83v-6.25h-4.73v6.25h.01Zm0 14.48v-6.07c-.28.05-.55.11-.81.18-1.62.44-2.89 1.3-2.89 2.78 0 1.33 1.08 2.2 2.89 2.85.26.09.53.18.81.26Zm-.81-5.05c-.52.16-.97.36-1.31.6-.52.37-.77.79-.77 1.33 0 .46.19.85.68 1.23.34.27.8.51 1.4.74v-3.91.01Zm5.55 14.4v6.6c.28-.04.55-.08.81-.14 2.07-.43 3.71-1.42 3.71-3.08 0-1.66-1.14-2.52-3.71-3.19-.26-.07-.53-.13-.81-.2v.01Zm.81 1.04v4.59c.76-.17 1.42-.42 1.92-.74.67-.43.97-.93.97-1.5 0-.64-.22-1.06-.75-1.45-.46-.33-1.15-.63-2.15-.9h.01Z" fill="#000"/></g><defs><clipPath id="a"><path fill="#fff" d="M29 22h141.87v155.28H29z"/></clipPath></defs></svg>