<?xml version="1.0" encoding="UTF-8"?>
<svg width="24px" height="24px" viewBox="0 0 24 24" version="1.1" xmlns="http://www.w3.org/2000/svg" xmlns:xlink="http://www.w3.org/1999/xlink">
    <title>sui-final/icons/24px/actions/action-copy</title>
    <g id="sui-final/icons/24px/actions/action-copy" stroke="none" stroke-width="1" fill="none" fill-rule="evenodd">
        <path d="M3,22.0471 L17,22.0471 L17,7.0471 L3,7.0471 L3,22.0471 Z M17.205,5.0471 C18.197,5.0471 19,5.8501 19,6.8421 L19,6.8421 L19,22.2521 C19,23.2431 18.197,24.0471 17.205,24.0471 L17.205,24.0471 L2.795,24.0471 C1.804,24.0471 1,23.2431 1,22.2521 L1,22.2521 L1,6.8421 C1,5.8501 1.804,5.0471 2.795,5.0471 L2.795,5.0471 Z M21.8148,0.0001 C23.0198,0.0001 24.0008,0.9801 24.0008,2.1851 L24.0008,16.9771 C24.0008,18.1831 23.0198,19.1631 21.8148,19.1631 L21.0928,19.1631 C20.5408,19.1631 20.0928,18.7161 20.0928,18.1631 C20.0928,17.6101 20.5408,17.1631 21.0928,17.1631 L21.8148,17.1631 C21.9178,17.1631 22.0008,17.0801 22.0008,16.9771 L22.0008,2.1851 C22.0008,2.0831 21.9178,2.0001 21.8148,2.0001 L8.2788,2.0001 C8.1758,2.0001 8.0928,2.0831 8.0928,2.1851 L8.0928,3.0041 C8.0928,3.5571 7.6458,4.0041 7.0928,4.0041 C6.5408,4.0041 6.0928,3.5571 6.0928,3.0041 L6.0928,2.1851 C6.0928,0.9801 7.0738,0.0001 8.2788,0.0001 L21.8148,0.0001 Z" id="Fill-1" fill="#333333"></path>
    </g>
</svg>