<?xml version="1.0" encoding="UTF-8"?>
<svg width="24px" height="24px" viewBox="0 0 24 24" version="1.1" xmlns="http://www.w3.org/2000/svg" xmlns:xlink="http://www.w3.org/1999/xlink">
    <title>sui-final/icons/24px/actions/action-no-show</title>
    <g id="sui-final/icons/24px/actions/action-no-show" stroke="none" stroke-width="1" fill="none" fill-rule="evenodd">
        <path d="M23.9533,20.9346 L23.5463,18.8126 C23.4573,18.3496 23.2763,17.9176 23.0443,17.5196 C22.6583,18.1796 22.1703,18.7706 21.5973,19.2706 L21.9883,21.3116 C22.0223,21.4886 21.9773,21.6666 21.8653,21.8026 C21.8053,21.8766 21.6703,21.9996 21.4543,21.9996 L2.5463,21.9996 C2.3303,21.9996 2.1953,21.8766 2.1353,21.8026 C2.0223,21.6666 1.9773,21.4886 2.0123,21.3116 L2.4193,19.1896 C2.5243,18.6396 2.8383,18.1566 3.2793,17.8626 C4.5883,16.9956 7.0523,15.6506 10.1133,15.2236 C10.0433,14.8256 10.0003,14.4186 10.0003,13.9996 C10.0003,13.7336 10.0173,13.4716 10.0473,13.2126 C6.4993,13.6616 3.6643,15.2066 2.1733,16.1966 C1.2873,16.7856 0.6613,17.7386 0.4543,18.8126 L0.0473,20.9346 C-0.0997,21.6996 0.0993,22.4796 0.5933,23.0776 C1.0783,23.6636 1.7903,23.9996 2.5463,23.9996 L21.4543,23.9996 C22.2103,23.9996 22.9223,23.6636 23.4073,23.0776 C23.9003,22.4796 24.0993,21.6996 23.9533,20.9346 L23.9533,20.9346 Z M10.3693,11.7686 C10.5933,11.1056 10.9123,10.4886 11.3123,9.9306 C9.4343,9.6026 8.0003,7.9706 8.0003,5.9996 C8.0003,3.7936 9.7943,1.9996 12.0003,1.9996 C14.2063,1.9996 16.0003,3.7936 16.0003,5.9996 C16.0003,6.3866 15.9283,6.7526 15.8253,7.1066 C16.2083,7.0416 16.5993,6.9996 17.0003,6.9996 C17.3063,6.9996 17.6043,7.0266 17.8993,7.0646 C17.9623,6.7186 18.0003,6.3646 18.0003,5.9996 C18.0003,2.6916 15.3083,-0.0004 12.0003,-0.0004 C8.6913,-0.0004 6.0003,2.6916 6.0003,5.9996 C6.0003,8.7436 7.8513,11.0556 10.3693,11.7686 L10.3693,11.7686 Z M13.2723,15.4186 C13.1033,14.9766 13.0003,14.5006 13.0003,13.9996 C13.0003,11.7936 14.7943,9.9996 17.0003,9.9996 C17.9803,9.9996 18.8673,10.3686 19.5643,10.9556 L13.2723,15.4186 Z M21.0003,13.9996 C21.0003,16.2056 19.2063,17.9996 17.0003,17.9996 C16.0193,17.9996 15.1333,17.6316 14.4353,17.0446 L20.7273,12.5806 C20.8963,13.0236 21.0003,13.4986 21.0003,13.9996 L21.0003,13.9996 Z M11.0003,13.9996 C11.0003,17.3086 13.6913,19.9996 17.0003,19.9996 C20.3083,19.9996 23.0003,17.3086 23.0003,13.9996 C23.0003,10.6916 20.3083,7.9996 17.0003,7.9996 C13.6913,7.9996 11.0003,10.6916 11.0003,13.9996 L11.0003,13.9996 Z" id="Fill-1" fill="#333333"></path>
    </g>
</svg>