<svg width="24" height="24" viewBox="0 0 24 24" fill="none" xmlns="http://www.w3.org/2000/svg">
<path d="M16.66 15C16.621 14.9684 16.574 14.9482 16.5242 14.9418C16.4744 14.9354 16.4238 14.943 16.3781 14.9638C16.3324 14.9846 16.2934 15.0177 16.2655 15.0594C16.2375 15.1011 16.2218 15.1498 16.22 15.2V16.66H13.68C13.452 16.657 13.2288 16.5945 13.0324 16.4787C12.8359 16.363 12.6731 16.198 12.56 16L10.07 11.76C9.77738 11.2672 9.36181 10.8588 8.86399 10.5749C8.36616 10.2909 7.80312 10.141 7.23 10.14H5.29C5.02478 10.14 4.77043 10.2454 4.58289 10.4329C4.39536 10.6204 4.29 10.8748 4.29 11.14C4.29 11.4052 4.39536 11.6596 4.58289 11.8471C4.77043 12.0346 5.02478 12.14 5.29 12.14H7.23C7.45527 12.139 7.67694 12.1965 7.87328 12.3069C8.06963 12.4174 8.2339 12.5769 8.35 12.77L10.84 17C11.1321 17.494 11.5473 17.9038 12.0451 18.1895C12.5428 18.4752 13.1061 18.6269 13.68 18.63H16.22V20.08C16.22 20.131 16.2344 20.181 16.2616 20.2242C16.2888 20.2674 16.3277 20.3019 16.3737 20.3239C16.4198 20.3459 16.4711 20.3544 16.5218 20.3484C16.5724 20.3424 16.6204 20.3221 16.66 20.29L19.53 17.83C19.5582 17.8038 19.5806 17.7721 19.596 17.7368C19.6113 17.7015 19.6193 17.6635 19.6193 17.625C19.6193 17.5865 19.6113 17.5485 19.596 17.5132C19.5806 17.4779 19.5582 17.4462 19.53 17.42L16.66 15ZM8.35 15.33C8.23975 15.5312 8.07785 15.6993 7.88098 15.8171C7.68411 15.9349 7.4594 15.998 7.23 16H5.29C5.02478 16 4.77043 16.1054 4.58289 16.2929C4.39536 16.4804 4.29 16.7348 4.29 17C4.29 17.2652 4.39536 17.5196 4.58289 17.7071C4.77043 17.8946 5.02478 18 5.29 18H7.23C7.67523 18.0032 8.1165 17.9162 8.52724 17.7444C8.93798 17.5725 9.30969 17.3193 9.62 17L8.51 15.06L8.35 15.33ZM21.27 2.18H18V1.09C18 0.800914 17.8852 0.523668 17.6807 0.319254C17.4763 0.114839 17.1991 0 16.91 0C16.6209 0 16.3437 0.114839 16.1393 0.319254C15.9348 0.523668 15.82 0.800914 15.82 1.09V2.18H8.18V1.09C8.18 0.800914 8.06516 0.523668 7.86075 0.319254C7.65633 0.114839 7.37909 3.24845e-08 7.09 3.24845e-08C6.80091 3.24845e-08 6.52367 0.114839 6.31925 0.319254C6.11484 0.523668 6 0.800914 6 1.09V2.18H2.73C2.00596 2.18 1.31157 2.46762 0.799599 2.9796C0.287624 3.49157 0 4.18596 0 4.91L0 21.27C0 21.994 0.287624 22.6884 0.799599 23.2004C1.31157 23.7124 2.00596 24 2.73 24H21.27C21.994 24 22.6884 23.7124 23.2004 23.2004C23.7124 22.6884 24 21.994 24 21.27V4.91C24 4.18596 23.7124 3.49157 23.2004 2.9796C22.6884 2.46762 21.994 2.18 21.27 2.18V2.18ZM21.82 21.27C21.82 21.4159 21.7621 21.5558 21.6589 21.6589C21.5558 21.7621 21.4159 21.82 21.27 21.82H2.73C2.65777 21.82 2.58625 21.8058 2.51952 21.7781C2.4528 21.7505 2.39216 21.71 2.34109 21.6589C2.29002 21.6078 2.24951 21.5472 2.22187 21.4805C2.19423 21.4137 2.18 21.3422 2.18 21.27V4.91C2.18 4.76413 2.23795 4.62424 2.34109 4.52109C2.44424 4.41795 2.58413 4.36 2.73 4.36H6V5.45C6 5.59314 6.02819 5.73488 6.08297 5.86713C6.13775 5.99937 6.21804 6.11953 6.31925 6.22075C6.42047 6.32196 6.54063 6.40225 6.67287 6.45703C6.80512 6.51181 6.94686 6.54 7.09 6.54C7.23314 6.54 7.37488 6.51181 7.50712 6.45703C7.63937 6.40225 7.75953 6.32196 7.86075 6.22075C7.96196 6.11953 8.04225 5.99937 8.09703 5.86713C8.15181 5.73488 8.18 5.59314 8.18 5.45V4.36H15.82V5.45C15.82 5.73909 15.9348 6.01633 16.1393 6.22075C16.3437 6.42516 16.6209 6.54 16.91 6.54C17.1991 6.54 17.4763 6.42516 17.6807 6.22075C17.8852 6.01633 18 5.73909 18 5.45V4.36H21.27C21.4159 4.36 21.5558 4.41795 21.6589 4.52109C21.7621 4.62424 21.82 4.76413 21.82 4.91V21.27ZM16.66 7.78C16.6204 7.74787 16.5724 7.72764 16.5218 7.72164C16.4711 7.71563 16.4198 7.72411 16.3737 7.74609C16.3277 7.76807 16.2888 7.80265 16.2616 7.84581C16.2344 7.88898 16.22 7.93898 16.22 7.99V9.48H13.68C13.1057 9.48109 12.5416 9.63203 12.0436 9.9179C11.5455 10.2038 11.1306 10.6147 10.84 11.11L10.94 11.26L12 13.09L12.57 12.09C12.6856 11.8958 12.8495 11.7347 13.0458 11.6226C13.242 11.5104 13.464 11.451 13.69 11.45H16.23V12.9C16.2318 12.9502 16.2475 12.9989 16.2755 13.0406C16.3034 13.0823 16.3424 13.1154 16.3881 13.1362C16.4338 13.157 16.4844 13.1646 16.5342 13.1582C16.584 13.1518 16.631 13.1316 16.67 13.1L19.54 10.65C19.5682 10.6238 19.5906 10.5921 19.606 10.5568C19.6213 10.5215 19.6293 10.4835 19.6293 10.445C19.6293 10.4065 19.6213 10.3685 19.606 10.3332C19.5906 10.2979 19.5682 10.2662 19.54 10.24L16.66 7.78Z" fill="#333333"/>
</svg>
