<svg width="24" height="24" viewBox="0 0 24 24" fill="none" xmlns="http://www.w3.org/2000/svg">
<g id="download">
<path id="Vector" d="M11.29 18.71C11.3839 18.8026 11.4964 18.8742 11.62 18.92C11.7397 18.9729 11.8691 19.0002 12 19.0002C12.1309 19.0002 12.2603 18.9729 12.38 18.92C12.5028 18.8724 12.6149 18.801 12.71 18.71L18.71 12.71C18.8032 12.6168 18.8772 12.5061 18.9277 12.3842C18.9781 12.2624 19.0041 12.1319 19.0041 12C19.0041 11.8681 18.9781 11.7376 18.9277 11.6158C18.8772 11.4939 18.8032 11.3832 18.71 11.29C18.6168 11.1968 18.5061 11.1228 18.3842 11.0723C18.2624 11.0219 18.1319 10.9959 18 10.9959C17.8681 10.9959 17.7376 11.0219 17.6158 11.0723C17.4939 11.1228 17.3832 11.1968 17.29 11.29L13 15.59V2C13 1.73478 12.8946 1.48043 12.7071 1.29289C12.5196 1.10536 12.2652 1 12 1C11.7348 1 11.4804 1.10536 11.2929 1.29289C11.1054 1.48043 11 1.73478 11 2V15.59L6.71 11.29C6.5217 11.1017 6.2663 10.9959 6 10.9959C5.7337 10.9959 5.4783 11.1017 5.29 11.29C5.1017 11.4783 4.99591 11.7337 4.99591 12C4.99591 12.1319 5.02188 12.2624 5.07234 12.3842C5.1228 12.5061 5.19676 12.6168 5.29 12.71L11.29 18.71ZM19 21H5C4.73478 21 4.48043 21.1054 4.29289 21.2929C4.10536 21.4804 4 21.7348 4 22C4 22.2652 4.10536 22.5196 4.29289 22.7071C4.48043 22.8946 4.73478 23 5 23H19C19.2652 23 19.5196 22.8946 19.7071 22.7071C19.8946 22.5196 20 22.2652 20 22C20 21.7348 19.8946 21.4804 19.7071 21.2929C19.5196 21.1054 19.2652 21 19 21Z" fill="#333333"/>
</g>
</svg>
