<svg width="24" height="24" viewBox="0 0 24 24" fill="none" xmlns="http://www.w3.org/2000/svg">
<g id="check-in">
<path id="Fill 1" fill-rule="evenodd" clip-rule="evenodd" d="M1.70826 24L22.2907 24C23.2347 24 24 23.229 24 22.279L24 1.721C24 0.771 23.2347 -6.6904e-08 22.2908 -1.49428e-07L1.70826 -1.94881e-06C0.765295 -2.03124e-06 2.03074e-06 0.770998 1.94769e-06 1.721L1.70404e-06 4.508C1.6557e-06 5.061 0.444687 5.508 0.992599 5.508C1.54051 5.508 1.98519 5.061 1.98519 4.508L1.9852 2L22.0148 2L22.0148 22L1.98519 22L1.98519 19.833C1.98519 19.28 1.54051 18.833 0.992598 18.833C0.444685 18.833 4.12635e-07 19.28 3.64291e-07 19.833L1.50455e-07 22.279C6.7403e-08 23.229 0.765293 24 1.70826 24ZM-8.69114e-07 12.124C-9.17372e-07 12.676 0.444682 13.124 0.992597 13.124L13.9956 13.124L10.0222 17.125C9.63414 17.516 9.63414 18.149 10.0222 18.54C10.4104 18.93 11.0377 18.93 11.4258 18.54L17.2156 12.708C17.4022 12.52 17.5064 12.266 17.5064 12C17.5064 11.735 17.4022 11.481 17.2156 11.293L11.4258 5.45998C11.0377 5.06998 10.4104 5.06998 10.0223 5.45998C9.63414 5.85098 9.63415 6.48398 10.0223 6.87498L14.2398 11.124L0.992597 11.124C0.444682 11.124 -8.20769e-07 11.571 -8.69114e-07 12.124Z" fill="#333333"/>
</g>
</svg>
