<?xml version="1.0" encoding="UTF-8"?>
<svg width="24px" height="24px" viewBox="0 0 24 24" version="1.1" xmlns="http://www.w3.org/2000/svg" xmlns:xlink="http://www.w3.org/1999/xlink">
    <!-- Generator: Sketch 64 (93537) - https://sketch.com -->
    <title>sui-final/icons/24px/actions/action-collapse</title>
    <desc>Created with Sketch.</desc>
    <g id="sui-final/icons/24px/actions/action-collapse" stroke="none" stroke-width="1" fill="none" fill-rule="evenodd">
        <path d="M8.3463,18.7204 L10.9993,18.7204 L10.9993,22.9994 C10.9993,23.5524 11.4483,23.9994 11.9993,23.9994 C12.5523,23.9994 12.9993,23.5524 12.9993,22.9994 L12.9993,18.7204 L15.6543,18.7204 C15.8913,18.7204 16.0193,18.4414 15.8653,18.2614 L12.2103,14.0034 C12.1003,13.8744 11.9003,13.8744 11.7893,14.0034 L8.1353,18.2614 C7.9813,18.4414 8.1093,18.7204 8.3463,18.7204 M15.6543,5.2804 L12.9993,5.2804 L12.9993,0.9994 C12.9993,0.4484 12.5523,-0.0006 11.9993,-0.0006 C11.4483,-0.0006 10.9993,0.4484 10.9993,0.9994 L10.9993,5.2804 L8.3463,5.2804 C8.1093,5.2804 7.9813,5.5584 8.1353,5.7394 L11.7893,9.9964 C11.9003,10.1254 12.1003,10.1254 12.2103,9.9964 L15.8653,5.7394 C16.0193,5.5584 15.8913,5.2804 15.6543,5.2804 M22.9993,10.9994 L0.9993,10.9994 C0.4483,10.9994 -0.0007,11.4484 -0.0007,11.9994 C-0.0007,12.5524 0.4483,12.9994 0.9993,12.9994 L22.9993,12.9994 C23.5523,12.9994 23.9993,12.5524 23.9993,11.9994 C23.9993,11.4484 23.5523,10.9994 22.9993,10.9994" id="Fill-1" fill="#333333"></path>
    </g>
</svg>