<?xml version="1.0" encoding="UTF-8"?>
<svg width="24px" height="24px" viewBox="0 0 24 24" version="1.1" xmlns="http://www.w3.org/2000/svg" xmlns:xlink="http://www.w3.org/1999/xlink">
    <title>sui-final/icons/24px/actions/action-guide</title>
    <g id="sui-final/icons/24px/actions/action-guide" stroke="none" stroke-width="1" fill="none" fill-rule="evenodd">
        <path d="M2.1001,0.0001 C2.66711234,0.0001 3.13392387,0.429110702 3.19364535,0.980242881 L3.2001,1.1001 L3.2001,2.0001 L22.332,2.0001 C23.082211,2.0001 23.6002425,2.72880995 23.3834758,3.42400858 L23.3430698,3.53338717 L21.1692576,8.60594888 C21.0615808,8.85751224 21.0615808,9.14268776 21.1690698,9.39381283 L21.1690698,9.39381283 L23.3430698,14.4668128 C23.654129,15.1926651 23.1216957,16.0001 22.332,16.0001 L22.332,16.0001 L3.2001,16.0001 L3.2001,22.9001 C3.2001,23.5076132 2.70761322,24.0001 2.1001,24.0001 C1.53308766,24.0001 1.06627613,23.5710893 1.00655465,23.0199571 L1.0001,22.9001 L1.0001,1.1001 C1.0001,0.492586775 1.49258678,0.0001 2.1001,0.0001 Z M20.663,4.2 L3.2001,4.1991 L3.2001,13.7991 L20.663,13.8 L19.1467424,10.2599489 C18.8311128,9.52254863 18.8048103,8.69575303 19.0679796,7.94311596 L19.0679796,7.94311596 L19.1469302,7.73981283 L20.663,4.2 Z M11,6 C12.657,6 14,7.343 14,9 C14,10.657 12.657,12 11,12 C9.343,12 8,10.657 8,9 C8,7.343 9.343,6 11,6 Z" id="guide" fill="#333333" fill-rule="nonzero"></path>
    </g>
</svg>