<svg width="24" height="24" viewBox="0 0 24 24" fill="none" xmlns="http://www.w3.org/2000/svg">
<path d="M6 4H3V7H6V4Z" fill="#333333"/>
<path fill-rule="evenodd" clip-rule="evenodd" d="M2 1C0.89543 1 0 1.89543 0 3V8C0 9.10457 0.895431 10 2 10H7C8.10457 10 9 9.10457 9 8V3C9 1.89543 8.10457 1 7 1H2ZM2 3H7L7 8H2V3Z" fill="#333333"/>
<path d="M21 4H18V7H21V4Z" fill="#333333"/>
<path fill-rule="evenodd" clip-rule="evenodd" d="M17 1C15.8954 1 15 1.89543 15 3V8C15 9.10457 15.8954 10 17 10H22C23.1046 10 24 9.10457 24 8V3C24 1.89543 23.1046 1 22 1H17ZM17 3H22V8H17V3Z" fill="#333333"/>
<path d="M3 17H6V20H3V17Z" fill="#333333"/>
<path fill-rule="evenodd" clip-rule="evenodd" d="M0 16C0 14.8954 0.89543 14 2 14H7C8.10457 14 9 14.8954 9 16V21C9 22.1046 8.10457 23 7 23H2C0.895431 23 0 22.1046 0 21V16ZM7 16H2V21H7L7 16Z" fill="#333333"/>
<path d="M11.1 3C11.0448 3 11 3.04477 11 3.1V4.9C11 4.95523 11.0448 5 11.1 5H12.9C12.9552 5 13 4.95523 13 4.9V3.1C13 3.04477 12.9552 3 12.9 3H11.1Z" fill="#333333"/>
<path d="M11 7.1C11 7.04477 11.0448 7 11.1 7H12.9C12.9552 7 13 7.04477 13 7.1V8.9C13 8.95523 12.9552 9 12.9 9H11.1C11.0448 9 11 8.95523 11 8.9V7.1Z" fill="#333333"/>
<path d="M3.1 11C3.04477 11 3 11.0448 3 11.1V12.9C3 12.9552 3.04477 13 3.1 13H4.9C4.95523 13 5 12.9552 5 12.9V11.1C5 11.0448 4.95523 11 4.9 11H3.1Z" fill="#333333"/>
<path d="M7 11.1C7 11.0448 7.04477 11 7.1 11H8.9C8.95523 11 9 11.0448 9 11.1V12.9C9 12.9552 8.95523 13 8.9 13H7.1C7.04477 13 7 12.9552 7 12.9V11.1Z" fill="#333333"/>
<path d="M11.1 11C11.0448 11 11 11.0448 11 11.1V12.9C11 12.9552 11.0448 13 11.1 13H12.9C12.9552 13 13 12.9552 13 12.9V11.1C13 11.0448 12.9552 11 12.9 11H11.1Z" fill="#333333"/>
<path d="M11 15.1C11 15.0448 11.0448 15 11.1 15H12.9C12.9552 15 13 15.0448 13 15.1V16.9C13 16.9552 12.9552 17 12.9 17H11.1C11.0448 17 11 16.9552 11 16.9V15.1Z" fill="#333333"/>
<path d="M15.1 19C15.0448 19 15 19.0448 15 19.1V20.9C15 20.9552 15.0448 21 15.1 21H16.9C16.9552 21 17 20.9552 17 20.9V19.1C17 19.0448 16.9552 19 16.9 19H15.1Z" fill="#333333"/>
<path d="M11 19.1C11 19.0448 11.0448 19 11.1 19H12.9C12.9552 19 13 19.0448 13 19.1V20.9C13 20.9552 12.9552 21 12.9 21H11.1C11.0448 21 11 20.9552 11 20.9V19.1Z" fill="#333333"/>
<path d="M13.1 13C13.0448 13 13 13.0448 13 13.1V14.9C13 14.9552 13.0448 15 13.1 15H14.9C14.9552 15 15 14.9552 15 14.9V13.1C15 13.0448 14.9552 13 14.9 13H13.1Z" fill="#333333"/>
<path d="M13 17.1C13 17.0448 13.0448 17 13.1 17H14.9C14.9552 17 15 17.0448 15 17.1V18.9C15 18.9552 14.9552 19 14.9 19H13.1C13.0448 19 13 18.9552 13 18.9V17.1Z" fill="#333333"/>
<path d="M13.1 21C13.0448 21 13 21.0448 13 21.1V22.9C13 22.9552 13.0448 23 13.1 23H14.9C14.9552 23 15 22.9552 15 22.9V21.1C15 21.0448 14.9552 21 14.9 21H13.1Z" fill="#333333"/>
<path d="M17 13.1C17 13.0448 17.0448 13 17.1 13H18.9C18.9552 13 19 13.0448 19 13.1V14.9C19 14.9552 18.9552 15 18.9 15H17.1C17.0448 15 17 14.9552 17 14.9V13.1Z" fill="#333333"/>
<path d="M21.1 13C21.0448 13 21 13.0448 21 13.1V14.9C21 14.9552 21.0448 15 21.1 15H22.9C22.9552 15 23 14.9552 23 14.9V13.1C23 13.0448 22.9552 13 22.9 13H21.1Z" fill="#333333"/>
<path d="M17 17.1C17 17.0448 17.0448 17 17.1 17H18.9C18.9552 17 19 17.0448 19 17.1V18.9C19 18.9552 18.9552 19 18.9 19H17.1C17.0448 19 17 18.9552 17 18.9V17.1Z" fill="#333333"/>
<path d="M17.1 21C17.0448 21 17 21.0448 17 21.1V22.9C17 22.9552 17.0448 23 17.1 23H18.9C18.9552 23 19 22.9552 19 22.9V21.1C19 21.0448 18.9552 21 18.9 21H17.1Z" fill="#333333"/>
<path d="M21 17.1C21 17.0448 21.0448 17 21.1 17H22.9C22.9552 17 23 17.0448 23 17.1V18.9C23 18.9552 22.9552 19 22.9 19H21.1C21.0448 19 21 18.9552 21 18.9V17.1Z" fill="#333333"/>
<path d="M15.1 11C15.0448 11 15 11.0448 15 11.1V12.9C15 12.9552 15.0448 13 15.1 13H16.9C16.9552 13 17 12.9552 17 12.9V11.1C17 11.0448 16.9552 11 16.9 11H15.1Z" fill="#333333"/>
<path d="M19 11.1C19 11.0448 19.0448 11 19.1 11H20.9C20.9552 11 21 11.0448 21 11.1V12.9C21 12.9552 20.9552 13 20.9 13H19.1C19.0448 13 19 12.9552 19 12.9V11.1Z" fill="#333333"/>
<path d="M15.1 15C15.0448 15 15 15.0448 15 15.1V16.9C15 16.9552 15.0448 17 15.1 17H16.9C16.9552 17 17 16.9552 17 16.9V15.1C17 15.0448 16.9552 15 16.9 15H15.1Z" fill="#333333"/>
<path d="M19 19.1C19 19.0448 19.0448 19 19.1 19H20.9C20.9552 19 21 19.0448 21 19.1V20.9C21 20.9552 20.9552 21 20.9 21H19.1C19.0448 21 19 20.9552 19 20.9V19.1Z" fill="#333333"/>
<path d="M19.1 15C19.0448 15 19 15.0448 19 15.1V16.9C19 16.9552 19.0448 17 19.1 17H20.9C20.9552 17 21 16.9552 21 16.9V15.1C21 15.0448 20.9552 15 20.9 15H19.1Z" fill="#333333"/>
</svg>
