<?xml version="1.0" encoding="UTF-8"?>
<svg width="24px" height="24px" viewBox="0 0 24 24" version="1.1" xmlns="http://www.w3.org/2000/svg" xmlns:xlink="http://www.w3.org/1999/xlink">
    <!-- Generator: Sketch 62 (91390) - https://sketch.com -->
    <title>sui-final/icons/24px/actions/action-pin</title>
    <desc>Created with Sketch.</desc>
    <g id="sui-final/icons/24px/actions/action-pin" stroke="none" stroke-width="1" fill="none" fill-rule="evenodd">
        <path d="M12,8.8817842e-15 C16.850456,8.8817842e-15 21.1991411,4.11093504 20.992952,8.7768894 C20.7697046,13.8288619 14.4762686,23.999659 11.9998585,24 C9.52373137,23.999659 3.23029535,13.8288619 3.00704802,8.7768894 C2.80085888,4.11093504 7.14954399,8.8817842e-15 12,8.8817842e-15 Z M12,2.18181818 C8.29820021,2.18181818 4.97431218,5.32398356 5.12251141,8.67765606 C5.21745883,10.8262674 6.53328872,14.0215966 8.50607593,17.2098102 C9.34531866,18.5661071 10.240459,19.8102395 11.0155081,20.7114199 C11.3767558,21.131457 11.6970082,21.4589613 11.948263,21.6691908 C11.9661265,21.6841375 11.983388,21.6982741 12,21.7115886 C12.016612,21.6982741 12.0338735,21.6841375 12.051737,21.6691908 C12.3029918,21.4589613 12.6232442,21.131457 12.9844919,20.7114199 C13.759541,19.8102395 14.6546813,18.5661071 15.4939241,17.2098102 C17.4667113,14.0215966 18.7825412,10.8262674 18.8774886,8.67765606 C19.0256878,5.32398356 15.7017998,2.18181818 12,2.18181818 Z M12,5.45454546 C14.0467098,5.45454546 15.7058959,7.16400369 15.7058959,9.27272728 C15.7058959,11.3814509 14.0467098,13.0909091 12,13.0909091 C9.95329018,13.0909091 8.29410405,11.3814509 8.29410405,9.27272728 C8.29410405,7.16400369 9.95329018,5.45454546 12,5.45454546 Z M12,7.63636364 C11.1228387,7.63636364 10.4117589,8.36898859 10.4117589,9.27272728 C10.4117589,10.176466 11.1228387,10.9090909 12,10.9090909 C12.8771613,10.9090909 13.5882411,10.176466 13.5882411,9.27272728 C13.5882411,8.36898859 12.8771613,7.63636364 12,7.63636364 Z" id="icon-pin" fill="#717171"></path>
    </g>
</svg>