<?xml version="1.0" encoding="UTF-8"?>
<svg width="24px" height="24px" viewBox="0 0 24 24" version="1.1" xmlns="http://www.w3.org/2000/svg" xmlns:xlink="http://www.w3.org/1999/xlink">
    <title>sui-final/icons/24px/actions/action-update</title>
    <g id="sui-final/icons/24px/actions/action-update" stroke="none" stroke-width="1" fill="none" fill-rule="evenodd">
        <path d="M13.7036,22.968 C14.2536,22.91 14.6426,22.418 14.5966,21.87 C14.5396,21.322 14.0486,20.922 13.4986,20.978 C9.9666,21.341 6.5526,19.731 4.5906,16.776 C3.1836,14.658 2.6886,12.118 3.1906,9.63 C3.6116,7.554 4.6906,5.724 6.2626,4.357 L6.2366,6.838 L6.2366,6.848 C6.2366,7.396 6.6786,7.842 7.2266,7.848 C7.7786,7.854 8.2306,7.41 8.2366,6.858 L8.2846,2.123 C8.2806,1.575 7.8466,1.119 7.2946,1.114 L2.5596,1.06593976 C2.0086,1.06 1.5566,1.503 1.5506,2.056 L1.5506,2.066 C1.5506,2.614 1.9916,3.06 2.5406,3.066 L4.6856,3.088 C2.9276,4.715 1.7156,6.838 1.2306,9.234 C1.0756,10.001 0.9996,10.772 0.9996,11.537 C0.9996,13.779 1.6566,15.972 2.9246,17.881 C5.2986,21.458 9.4296,23.407 13.7036,22.968 M10.2106,1.196 C10.2766,1.743 10.7736,2.135 11.3226,2.07 C14.8826,1.643 18.3396,3.221 20.3456,6.19 C21.7676,8.294 22.2836,10.831 21.8046,13.322 C21.4016,15.404 20.3356,17.243 18.7736,18.624 L18.7736,16.138 C18.7736,15.585 18.3266,15.138 17.7736,15.138 C17.2216,15.138 16.7736,15.585 16.7736,16.138 L16.7736,20.872 C16.7736,21.425 17.2216,21.872 17.7736,21.872 L22.5086,21.872 C23.0606,21.872 23.5086,21.425 23.5086,20.872 C23.5086,20.32 23.0606,19.872 22.5086,19.872 L20.3686,19.872 C22.1116,18.231 23.3046,16.099 23.7666,13.701 C24.3516,10.681 23.7246,7.616 22.0016,5.07 C19.5746,1.478 15.3916,-0.433 11.0846,0.083 C10.5766,0.145 10.2036,0.576 10.2036,1.075 C10.2036,1.114 10.2056,1.156 10.2106,1.196" id="Fill-1" fill="#333333"></path>
    </g>
</svg>