<svg width="24" height="24" viewBox="0 0 24 24" fill="none" xmlns="http://www.w3.org/2000/svg">
<path d="M19 15C18.4305 15.0032 17.8683 15.128 17.3509 15.366C16.8336 15.604 16.373 15.9497 16 16.38L8.90999 12.84C9.02892 12.2863 9.02892 11.7137 8.90999 11.16L16 7.62C16.62 8.32295 17.4671 8.78586 18.3936 8.92794C19.32 9.07001 20.267 8.88224 21.0691 8.39738C21.8712 7.91253 22.4776 7.16138 22.7825 6.27505C23.0873 5.38871 23.0712 4.42348 22.737 3.54781C22.4027 2.67213 21.7716 1.94164 20.9537 1.48381C20.1359 1.02598 19.1832 0.869904 18.262 1.04281C17.3408 1.21572 16.5096 1.70663 15.9134 2.42987C15.3172 3.1531 14.9939 4.06274 15 5C14.9992 5.28245 15.0294 5.56414 15.09 5.84L7.99999 9.38C7.4659 8.76386 6.75627 8.32566 5.96617 8.12412C5.17607 7.92257 4.34324 7.96731 3.57928 8.25233C2.81531 8.53736 2.1567 9.04906 1.69169 9.71887C1.22668 10.3887 0.977478 11.1846 0.977478 12C0.977478 12.8154 1.22668 13.6113 1.69169 14.2811C2.1567 14.951 2.81531 15.4627 3.57928 15.7477C4.34324 16.0327 5.17607 16.0774 5.96617 15.8759C6.75627 15.6743 7.4659 15.2361 7.99999 14.62L15.09 18.16C15.0294 18.4359 14.9992 18.7176 15 19C15 19.7911 15.2346 20.5645 15.6741 21.2223C16.1136 21.8801 16.7384 22.3928 17.4693 22.6955C18.2002 22.9983 19.0044 23.0775 19.7804 22.9231C20.5563 22.7688 21.269 22.3878 21.8284 21.8284C22.3878 21.269 22.7688 20.5563 22.9231 19.7804C23.0775 19.0044 22.9983 18.2002 22.6955 17.4693C22.3928 16.7384 21.8801 16.1137 21.2223 15.6741C20.5645 15.2346 19.7911 15 19 15ZM19 3.00001C19.3956 3.00001 19.7822 3.1173 20.1111 3.33707C20.44 3.55683 20.6964 3.86919 20.8478 4.23464C20.9991 4.60009 21.0387 5.00222 20.9616 5.39019C20.8844 5.77815 20.6939 6.13451 20.4142 6.41422C20.1345 6.69392 19.7781 6.88441 19.3902 6.96158C19.0022 7.03875 18.6001 6.99914 18.2346 6.84776C17.8692 6.69639 17.5568 6.44004 17.3371 6.11115C17.1173 5.78225 17 5.39557 17 5C17 4.46957 17.2107 3.96086 17.5858 3.58579C17.9609 3.21072 18.4696 3.00001 19 3.00001V3.00001ZM4.99999 14C4.60443 14 4.21775 13.8827 3.88885 13.6629C3.55995 13.4432 3.30361 13.1308 3.15223 12.7654C3.00086 12.3999 2.96125 11.9978 3.03842 11.6098C3.11559 11.2219 3.30607 10.8655 3.58578 10.5858C3.86548 10.3061 4.22185 10.1156 4.60981 10.0384C4.99777 9.96126 5.39991 10.0009 5.76536 10.1522C6.13081 10.3036 6.44317 10.56 6.66293 10.8889C6.8827 11.2178 6.99999 11.6044 6.99999 12C6.99999 12.5304 6.78928 13.0391 6.41421 13.4142C6.03913 13.7893 5.53043 14 4.99999 14ZM19 21C18.6044 21 18.2178 20.8827 17.8889 20.6629C17.56 20.4432 17.3036 20.1308 17.1522 19.7654C17.0009 19.3999 16.9613 18.9978 17.0384 18.6098C17.1156 18.2219 17.3061 17.8655 17.5858 17.5858C17.8655 17.3061 18.2219 17.1156 18.6098 17.0384C18.9978 16.9613 19.3999 17.0009 19.7654 17.1522C20.1308 17.3036 20.4432 17.56 20.6629 17.8889C20.8827 18.2178 21 18.6044 21 19C21 19.5304 20.7893 20.0391 20.4142 20.4142C20.0391 20.7893 19.5304 21 19 21Z" fill="#333333"/>
</svg>
