<svg width="24" height="24" viewBox="0 0 24 24" fill="none" xmlns="http://www.w3.org/2000/svg">
<path fill-rule="evenodd" clip-rule="evenodd" d="M21.79 3.46L20.03 1.68999C19.8105 1.47434 19.549 1.30621 19.2617 1.1961C18.9743 1.08599 18.6674 1.03625 18.36 1.04999C17.757 1.07115 17.1848 1.3215 16.76 1.74999L12.99 5.51999L1.70003 16.83C1.27321 17.2559 1.02317 17.8275 1.00003 18.43C0.988454 18.7341 1.03927 19.0374 1.14933 19.3212C1.2594 19.605 1.42639 19.8632 1.64003 20.08L3.41003 21.84C3.61605 22.0457 3.86101 22.2082 4.13058 22.3181C4.40015 22.428 4.68893 22.483 4.98003 22.48C5.29085 22.4796 5.5985 22.4175 5.88515 22.2973C6.17181 22.1771 6.43179 22.0013 6.65003 21.78L21.74 6.69999C22.1822 6.25182 22.4331 5.64953 22.44 5.01999C22.4415 4.72971 22.3848 4.44207 22.2731 4.17411C22.1615 3.90616 21.9972 3.66333 21.79 3.46V3.46ZM5.24003 20.38C5.18942 20.4396 5.11877 20.4785 5.0414 20.4896C4.96402 20.5007 4.88528 20.483 4.82003 20.44L3.06003 18.66C3.03986 18.6387 3.02416 18.6135 3.01386 18.5861C3.00355 18.5586 2.99885 18.5293 3.00003 18.5C3.0061 18.4043 3.04913 18.3146 3.12003 18.25L13.72 7.63999L15.84 9.75999L5.24003 20.38ZM20.36 5.28999L17.26 8.37999L15.14 6.25999L18.2 3.18999C18.2674 3.12439 18.3562 3.08533 18.45 3.07999C18.4983 3.06153 18.5517 3.06153 18.6 3.07999L20.36 4.87C20.3799 4.88945 20.3955 4.91284 20.4058 4.93867C20.4162 4.9645 20.421 4.99219 20.42 5.01999C20.4311 5.11419 20.4099 5.20935 20.36 5.28999V5.28999ZM20.63 17.7L19.13 17.2C18.8731 17.116 18.6397 16.9726 18.4486 16.7815C18.2574 16.5903 18.1141 16.3569 18.03 16.1L17.53 14.6C17.5153 14.5505 17.4849 14.507 17.4435 14.4761C17.402 14.4452 17.3517 14.4286 17.3 14.4286C17.2483 14.4286 17.198 14.4452 17.1566 14.4761C17.1152 14.507 17.0848 14.5505 17.07 14.6L16.57 16.1C16.4822 16.3564 16.3363 16.5891 16.1438 16.7799C15.9513 16.9707 15.7173 17.1145 15.46 17.2L13.96 17.7C13.9105 17.7148 13.867 17.7451 13.8362 17.7866C13.8053 17.828 13.7886 17.8783 13.7886 17.93C13.7886 17.9817 13.8053 18.032 13.8362 18.0734C13.867 18.1149 13.9105 18.1452 13.96 18.16L15.46 18.66C15.7169 18.7492 15.9502 18.8954 16.1424 19.0876C16.3346 19.2799 16.4808 19.5132 16.57 19.77L17.07 21.27C17.0848 21.3195 17.1152 21.363 17.1566 21.3939C17.198 21.4248 17.2483 21.4414 17.3 21.4414C17.3517 21.4414 17.402 21.4248 17.4435 21.3939C17.4849 21.363 17.5153 21.3195 17.53 21.27L18.03 19.77C18.1155 19.5128 18.2593 19.2788 18.4501 19.0862C18.6409 18.8937 18.8736 18.7478 19.13 18.66L20.63 18.16C20.6788 18.1414 20.7203 18.1075 20.748 18.0632C20.7758 18.019 20.7883 17.9669 20.7838 17.9149C20.7793 17.8629 20.7579 17.8137 20.7229 17.775C20.688 17.7362 20.6413 17.7099 20.59 17.7H20.63ZM8.31003 3.69999L9.38003 4.05999C9.56511 4.11924 9.73336 4.22184 9.87077 4.35925C10.0082 4.49666 10.1108 4.66491 10.17 4.84999L10.53 5.91999C10.5392 5.95684 10.5604 5.98957 10.5903 6.01297C10.6202 6.03636 10.6571 6.04907 10.695 6.04907C10.733 6.04907 10.7699 6.03636 10.7998 6.01297C10.8297 5.98957 10.8509 5.95684 10.86 5.91999L11.22 4.84999C11.2793 4.66491 11.3819 4.49666 11.5193 4.35925C11.6567 4.22184 11.8249 4.11924 12.01 4.05999L13.08 3.69999C13.1121 3.68599 13.1395 3.66292 13.1587 3.63361C13.1779 3.6043 13.1881 3.57003 13.1881 3.53499C13.1881 3.49996 13.1779 3.46568 13.1587 3.43637C13.1395 3.40707 13.1121 3.384 13.08 3.37L12.01 3.00999C11.8241 2.95226 11.6551 2.85017 11.5175 2.71254C11.3799 2.57491 11.2778 2.40587 11.22 2.21999L10.86 1.14999C10.846 1.11788 10.823 1.09055 10.7936 1.07135C10.7643 1.05215 10.7301 1.04193 10.695 1.04193C10.66 1.04193 10.6257 1.05215 10.5964 1.07135C10.5671 1.09055 10.544 1.11788 10.53 1.14999L10.17 2.21999C10.1123 2.40587 10.0102 2.57491 9.87257 2.71254C9.73494 2.85017 9.5659 2.95226 9.38003 3.00999L8.27003 3.37999C8.24915 3.39687 8.23231 3.4182 8.22074 3.44242C8.20917 3.46664 8.20316 3.49315 8.20316 3.51999C8.20316 3.54684 8.20917 3.57334 8.22074 3.59757C8.23231 3.62179 8.24915 3.64312 8.27003 3.65999L8.31003 3.69999ZM1.31003 7.32999L2.98003 7.88999C3.18463 7.95889 3.37052 8.07418 3.52318 8.22684C3.67584 8.3795 3.79113 8.56539 3.86003 8.76999L4.36003 10.38C4.37479 10.4295 4.40515 10.473 4.44659 10.5039C4.48803 10.5348 4.53834 10.5514 4.59003 10.5514C4.64171 10.5514 4.69202 10.5348 4.73346 10.5039C4.7749 10.473 4.80526 10.4295 4.82003 10.38L5.36003 8.72999C5.42924 8.52394 5.54581 8.33699 5.70038 8.18415C5.85494 8.03132 6.0432 7.91687 6.25003 7.84999L7.91003 7.28999C7.95956 7.27523 8.003 7.24487 8.03389 7.20343C8.06478 7.16199 8.08147 7.11168 8.08147 7.05999C8.08147 7.00831 8.06478 6.958 8.03389 6.91656C8.003 6.87512 7.95956 6.84476 7.91003 6.82999L6.25003 6.26999C6.04134 6.20358 5.85162 6.0881 5.69677 5.93325C5.54191 5.7784 5.42644 5.58868 5.36003 5.37999L4.81002 3.71999C4.79526 3.67046 4.7649 3.62702 4.72346 3.59613C4.68202 3.56524 4.63171 3.54855 4.58002 3.54855C4.52834 3.54855 4.47803 3.56524 4.43659 3.59613C4.39515 3.62702 4.36479 3.67046 4.35002 3.71999L3.77003 5.37999C3.70252 5.58535 3.58771 5.77197 3.43486 5.92482C3.282 6.07768 3.09538 6.19249 2.89003 6.25999L1.22003 6.81999C1.16598 6.8312 1.11746 6.86069 1.08262 6.9035C1.04778 6.9463 1.02876 6.9998 1.02876 7.05499C1.02876 7.11018 1.04778 7.16369 1.08262 7.20649C1.11746 7.2493 1.16598 7.27879 1.22003 7.28999L1.31003 7.32999Z" fill="#333333"/>
</svg>
