<svg width="24" height="24" viewBox="0 0 24 24" fill="none" xmlns="http://www.w3.org/2000/svg">
<path d="M6.71 8.70999L11 4.40999V18C11 18.2652 11.1054 18.5196 11.2929 18.7071C11.4804 18.8946 11.7348 19 12 19C12.2652 19 12.5196 18.8946 12.7071 18.7071C12.8946 18.5196 13 18.2652 13 18V4.40999L17.29 8.70999C17.3832 8.80323 17.4939 8.87719 17.6158 8.92765C17.7376 8.97811 17.8681 9.00408 18 9.00408C18.1319 9.00408 18.2624 8.97811 18.3842 8.92765C18.5061 8.87719 18.6168 8.80323 18.71 8.70999C18.8032 8.61675 18.8772 8.50606 18.9277 8.38424C18.9781 8.26242 19.0041 8.13185 19.0041 7.99999C19.0041 7.86813 18.9781 7.73756 18.9277 7.61574C18.8772 7.49392 18.8032 7.38323 18.71 7.28999L12.71 1.28999C12.6161 1.19739 12.5036 1.1258 12.38 1.07999C12.2603 1.02708 12.1309 0.999756 12 0.999756C11.8691 0.999756 11.7397 1.02708 11.62 1.07999C11.4988 1.13063 11.3872 1.20166 11.29 1.28999L5.29 7.28999C5.1017 7.47829 4.99591 7.73369 4.99591 7.99999C4.99591 8.26629 5.1017 8.52168 5.29 8.70999C5.4783 8.89829 5.7337 9.00408 6 9.00408C6.2663 9.00408 6.5217 8.89829 6.71 8.70999V8.70999ZM19 21H5C4.73478 21 4.48043 21.1053 4.29289 21.2929C4.10536 21.4804 4 21.7348 4 22C4 22.2652 4.10536 22.5196 4.29289 22.7071C4.48043 22.8946 4.73478 23 5 23H19C19.2652 23 19.5196 22.8946 19.7071 22.7071C19.8946 22.5196 20 22.2652 20 22C20 21.7348 19.8946 21.4804 19.7071 21.2929C19.5196 21.1053 19.2652 21 19 21Z" fill="#333333"/>
</svg>
