<?xml version="1.0" encoding="UTF-8"?>
<svg width="24px" height="24px" viewBox="0 0 24 24" version="1.1" xmlns="http://www.w3.org/2000/svg" xmlns:xlink="http://www.w3.org/1999/xlink">
    <title>sui-final/icons/24px/actions/action-calculator</title>
    <g id="sui-final/icons/24px/actions/action-calculator" stroke="none" stroke-width="1" fill="none" fill-rule="evenodd">
        <path d="M11.4502,19.6396 L16.5492,19.6396 C16.7982,19.6396 17.0002,19.4376 17.0002,19.1886 L17.0002,18.0896 C17.0002,17.8416 16.7982,17.6396 16.5492,17.6396 L11.4502,17.6396 C11.2012,17.6396 11.0002,17.8416 11.0002,18.0896 L11.0002,19.1886 C11.0002,19.4376 11.2012,19.6396 11.4502,19.6396 L11.4502,19.6396 Z M7.4502,19.6396 L8.5492,19.6396 C8.7982,19.6396 9.0002,19.4376 9.0002,19.1886 L9.0002,18.0896 C9.0002,17.8416 8.7982,17.6396 8.5492,17.6396 L7.4502,17.6396 C7.2012,17.6396 7.0002,17.8416 7.0002,18.0896 L7.0002,19.1886 C7.0002,19.4376 7.2012,19.6396 7.4502,19.6396 L7.4502,19.6396 Z M15.4502,15.6396 L16.5492,15.6396 C16.7982,15.6396 17.0002,15.4376 17.0002,15.1886 L17.0002,14.0896 C17.0002,13.8416 16.7982,13.6396 16.5492,13.6396 L15.4502,13.6396 C15.2012,13.6396 15.0002,13.8416 15.0002,14.0896 L15.0002,15.1886 C15.0002,15.4376 15.2012,15.6396 15.4502,15.6396 L15.4502,15.6396 Z M11.4502,15.6396 L12.5492,15.6396 C12.7982,15.6396 13.0002,15.4376 13.0002,15.1886 L13.0002,14.0896 C13.0002,13.8416 12.7982,13.6396 12.5492,13.6396 L11.4502,13.6396 C11.2012,13.6396 11.0002,13.8416 11.0002,14.0896 L11.0002,15.1886 C11.0002,15.4376 11.2012,15.6396 11.4502,15.6396 L11.4502,15.6396 Z M7.4502,15.6396 L8.5492,15.6396 C8.7982,15.6396 9.0002,15.4376 9.0002,15.1886 L9.0002,14.0896 C9.0002,13.8416 8.7982,13.6396 8.5492,13.6396 L7.4502,13.6396 C7.2012,13.6396 7.0002,13.8416 7.0002,14.0896 L7.0002,15.1886 C7.0002,15.4376 7.2012,15.6396 7.4502,15.6396 L7.4502,15.6396 Z M15.4502,11.6396 L16.5492,11.6396 C16.7982,11.6396 17.0002,11.4376 17.0002,11.1886 L17.0002,10.0896 C17.0002,9.8416 16.7982,9.6396 16.5492,9.6396 L15.4502,9.6396 C15.2012,9.6396 15.0002,9.8416 15.0002,10.0896 L15.0002,11.1886 C15.0002,11.4376 15.2012,11.6396 15.4502,11.6396 L15.4502,11.6396 Z M11.4502,11.6396 L12.5492,11.6396 C12.7982,11.6396 13.0002,11.4376 13.0002,11.1886 L13.0002,10.0896 C13.0002,9.8416 12.7982,9.6396 12.5492,9.6396 L11.4502,9.6396 C11.2012,9.6396 11.0002,9.8416 11.0002,10.0896 L11.0002,11.1886 C11.0002,11.4376 11.2012,11.6396 11.4502,11.6396 L11.4502,11.6396 Z M7.4502,11.6396 L8.5492,11.6396 C8.7982,11.6396 9.0002,11.4376 9.0002,11.1886 L9.0002,10.0896 C9.0002,9.8416 8.7982,9.6396 8.5492,9.6396 L7.4502,9.6396 C7.2012,9.6396 7.0002,9.8416 7.0002,10.0896 L7.0002,11.1886 C7.0002,11.4376 7.2012,11.6396 7.4502,11.6396 L7.4502,11.6396 Z M5.0002,5.1426 L19.0002,5.1426 L19.0002,1.9996 L5.0002,1.9996 L5.0002,5.1426 Z M5.0002,21.9996 L19.0002,21.9996 L19.0002,7.1426 L5.0002,7.1426 L5.0002,21.9996 Z M19.1892,-0.0004 L4.8092,-0.0004 C3.8112,-0.0004 3.0002,0.8126 3.0002,1.8106 L3.0002,22.1896 C3.0002,23.1876 3.8112,23.9996 4.8092,23.9996 L19.1892,23.9996 C20.1872,23.9996 21.0002,23.1876 21.0002,22.1896 L21.0002,1.8106 C21.0002,0.8126 20.1872,-0.0004 19.1892,-0.0004 L19.1892,-0.0004 Z" id="Fill-1" fill="#333333"></path>
    </g>
</svg>