<?xml version="1.0" encoding="UTF-8"?>
<svg width="24px" height="24px" viewBox="0 0 24 24" version="1.1" xmlns="http://www.w3.org/2000/svg" xmlns:xlink="http://www.w3.org/1999/xlink">
    <title>sui-final/icons/24px/actions/action-stop-sell-amount</title>
    <g id="sui-final/icons/24px/actions/action-stop-sell-amount" stroke="none" stroke-width="1" fill="none" fill-rule="evenodd">
        <path d="M9.293,17.2474 L8,18.5404 L8,3.0004 C8,2.4474 7.553,2.0004 7,2.0004 C6.447,2.0004 6,2.4474 6,3.0004 L6,18.5404 L4.707,17.2474 C4.316,16.8564 3.684,16.8564 3.293,17.2474 C2.902,17.6384 2.902,18.2704 3.293,18.6614 L6.293,21.6614 C6.488,21.8564 6.744,21.9544 7,21.9544 C7.256,21.9544 7.512,21.8564 7.707,21.6614 L10.707,18.6614 C11.098,18.2704 11.098,17.6384 10.707,17.2474 C10.316,16.8564 9.684,16.8564 9.293,17.2474 L9.293,17.2474 Z M17.801,17.0504 C17.139,17.0504 16.601,16.5124 16.601,15.8504 C16.601,15.1884 17.139,14.6504 17.801,14.6504 C18.462,14.6504 19,15.1884 19,15.8504 C19,16.5124 18.462,17.0504 17.801,17.0504 L17.801,17.0504 Z M17.801,12.6504 C16.036,12.6504 14.601,14.0864 14.601,15.8504 C14.601,17.3984 15.707,18.6924 17.171,18.9864 L16.207,20.4504 C15.903,20.9114 16.031,21.5314 16.492,21.8354 C16.661,21.9464 16.853,22.0004 17.041,22.0004 C17.366,22.0004 17.685,21.8424 17.877,21.5504 L20.486,17.5874 C20.495,17.5734 20.495,17.5584 20.504,17.5444 C20.814,17.0524 21,16.4744 21,15.8504 C21,14.0864 19.564,12.6504 17.801,12.6504 L17.801,12.6504 Z M16.173,9.2214 C15.62,9.2214 15.173,9.6684 15.173,10.2214 C15.173,10.7734 15.62,11.2214 16.173,11.2214 L19.578,11.2214 C20.131,11.2214 20.578,10.7734 20.578,10.2214 C20.578,9.6684 20.131,9.2214 19.578,9.2214 L18.876,9.2214 L18.876,2.9994 C18.876,2.6184 18.659,2.2694 18.317,2.1014 C17.977,1.9354 17.569,1.9744 17.266,2.2074 L15.563,3.5184 C15.125,3.8554 15.044,4.4834 15.381,4.9214 C15.717,5.3584 16.346,5.4414 16.783,5.1024 L16.876,5.0314 L16.876,9.2214 L16.173,9.2214 Z" id="Fill-1" fill="#333333"></path>
    </g>
</svg>