<?xml version="1.0" encoding="UTF-8"?>
<svg width="24px" height="24px" viewBox="0 0 24 24" version="1.1" xmlns="http://www.w3.org/2000/svg" xmlns:xlink="http://www.w3.org/1999/xlink">
    <!-- Generator: Sketch 62 (91390) - https://sketch.com -->
    <title>sui-final/icons/24px/actions/action-open-in-new</title>
    <desc>Created with Sketch.</desc>
    <g id="sui-final/icons/24px/actions/action-open-in-new" stroke="none" stroke-width="1" fill="none" fill-rule="evenodd">
        <path d="M22.9234326,13.8984648 C22.3537732,13.8984648 21.8914409,14.3597651 21.8914409,14.9304566 L21.8914409,21.2937176 C21.8914409,21.621891 21.623123,21.8902089 21.2939176,21.8902089 L2.66130671,21.8902089 C2.33210134,21.8902089 2.06378349,21.621891 2.06378349,21.2937176 L2.06378349,2.66007472 C2.06378349,2.33190134 2.33210134,2.06358349 2.66130671,2.06358349 L9.16801465,2.06358349 C9.73870609,2.06358349 10.2000064,1.60228318 10.2000064,1.03159174 C10.2000064,0.46090031 9.73870609,-0.0004 9.16801465,-0.0004 L2.66130671,-0.0004 C1.19381445,-0.0004 -0.0002,1.19258246 -0.0002,2.66007472 L-0.0002,21.2937176 C-0.0002,22.7612099 1.19381445,23.9541924 2.66130671,23.9541924 L21.2939176,23.9541924 C22.7624419,23.9541924 23.9564563,22.7612099 23.9564563,21.2937176 L23.9564563,14.9304566 C23.9564563,14.3597651 23.494124,13.8984648 22.9234326,13.8984648 M23.9203366,0.637370898 C23.8150735,0.384532921 23.6138351,0.184326522 23.3620291,0.0790633643 C23.2361261,0.0274637771 23.1019672,-0.0004 22.9678083,-0.0004 L15.0328237,-0.0004 C14.4641963,-0.0004 14.000832,0.46090031 14.000832,1.03159174 C14.000832,1.60228318 14.4641963,2.06358349 15.0328237,2.06358349 L20.4765802,2.06358349 L10.1525348,12.3865969 C9.74902601,12.7901057 9.74902601,13.4433564 10.1525348,13.8458332 C10.3537732,14.0481036 10.6179631,14.1482068 10.8821529,14.1482068 C11.1463428,14.1482068 11.4105327,14.0481036 11.6117711,13.8458332 L21.9358165,3.52281981 L21.9358165,8.96554427 C21.9358165,9.53520372 22.3971168,9.99753602 22.9678083,9.99753602 C23.5374677,9.99753602 23.9998,9.53520372 23.9998,8.96554427 L23.9998,1.03159174 C23.9998,0.897432817 23.9719362,0.763273891 23.9203366,0.637370898" id="Fill-1" fill="#717171"></path>
    </g>
</svg>