<?xml version="1.0" encoding="UTF-8"?>
<svg width="24px" height="24px" viewBox="0 0 24 24" version="1.1" xmlns="http://www.w3.org/2000/svg" xmlns:xlink="http://www.w3.org/1999/xlink">
    <!-- Generator: Sketch 62 (91390) - https://sketch.com -->
    <title>sui-final/icons/24px/actions/action-menu</title>
    <desc>Created with Sketch.</desc>
    <g id="sui-final/icons/24px/actions/action-menu" stroke="none" stroke-width="1" fill="none" fill-rule="evenodd">
        <path d="M23,18.4 C23.5522847,18.4 24,18.8477153 24,19.4 L24,19.8 C24,20.3522847 23.5522847,20.8 23,20.8 L1,20.8 C0.44771525,20.8 6.76353751e-17,20.3522847 0,19.8 L0,19.4 C-6.76353751e-17,18.8477153 0.44771525,18.4 1,18.4 L23,18.4 Z M23,11.2 C23.5522847,11.2 24,11.6477153 24,12.2 L24,12.6 C24,13.1522847 23.5522847,13.6 23,13.6 L1,13.6 C0.44771525,13.6 6.76353751e-17,13.1522847 0,12.6 L0,12.2 C-6.76353751e-17,11.6477153 0.44771525,11.2 1,11.2 L23,11.2 Z M23,4 C23.5522847,4 24,4.44771525 24,5 L24,5.4 C24,5.95228475 23.5522847,6.4 23,6.4 L1,6.4 C0.44771525,6.4 6.76353751e-17,5.95228475 0,5.4 L0,5 C-6.76353751e-17,4.44771525 0.44771525,4 1,4 L23,4 Z" id="Combined-Shape" fill="#717171"></path>
    </g>
</svg>