<?xml version="1.0" encoding="UTF-8"?>
<svg width="24px" height="24px" viewBox="0 0 24 24" version="1.1" xmlns="http://www.w3.org/2000/svg" xmlns:xlink="http://www.w3.org/1999/xlink">
    <!-- Generator: Sketch 64 (93537) - https://sketch.com -->
    <title>sui-final/icons/24px/actions/action-switch-lanes</title>
    <desc>Created with Sketch.</desc>
    <g id="sui-final/icons/24px/actions/action-switch-lanes" stroke="none" stroke-width="1" fill="none" fill-rule="evenodd">
        <path d="M17.9901441,7.0925 L20.5931009,7.0925 L19.2107791,8.4785 C18.8205352,8.8685 18.8205352,9.5015 19.2107791,9.8925 C19.405402,10.0875 19.660907,10.1855 19.916412,10.1855 C20.1719169,10.1855 20.4264238,10.0875 20.6220448,9.8925 L23.7080656,6.7995 C24.0973115,6.4085 24.0973115,5.7765 23.7080656,5.3855 L20.6220448,2.2925 C20.2318009,1.9025 19.600025,1.9025 19.2107791,2.2925 C18.8205352,2.6835 18.8205352,3.3165 19.2107791,3.7065 L20.5931009,5.0925 L17.9901441,5.0925 C15.7704448,5.0925 13.6934689,6.1845 12.4349074,8.0125 L7.88073108,14.6135 C6.99345019,15.9015 5.53128314,16.6695 3.96731333,16.6695 L0.998066247,16.6695 C0.446135612,16.6695 0,17.1165 0,17.6695 C0,18.2225 0.446135612,18.6695 0.998066247,18.6695 L3.96731333,18.6695 C6.18701266,18.6695 8.26398852,17.5775 9.52354813,15.7495 L14.0767263,9.1495 C14.9640072,7.8615 16.4271724,7.0925 17.9901441,7.0925 L17.9901441,7.0925 Z M20.6220448,13.7465 C20.2318009,13.3565 19.600025,13.3565 19.2107791,13.7465 C18.8205352,14.1375 18.8205352,14.7705 19.2107791,15.1605 L20.5931009,16.5465 L17.9901441,16.5465 C16.4281704,16.5465 14.9650053,15.7785 14.0757283,14.4895 L12.8401223,12.6985 L11.6274718,14.4565 L12.4349074,15.6265 C13.694467,17.4545 15.7714428,18.5465 17.9901441,18.5465 L20.5931009,18.5465 L19.2107791,19.9325 C18.8205352,20.3225 18.8205352,20.9555 19.2107791,21.3465 C19.405402,21.5415 19.660907,21.6395 19.916412,21.6395 C20.1719169,21.6395 20.4264238,21.5415 20.6220448,21.3465 L23.7080656,18.2535 C24.0973115,17.8635 24.0973115,17.2305 23.7080656,16.8395 L20.6220448,13.7465 Z M0.998066247,6.9685 L3.96731333,6.9685 C5.53028507,6.9685 6.99245212,7.7375 7.88172915,9.0255 L9.20117273,10.9395 L10.4148213,9.1815 L9.52354813,7.8885 C8.26299046,6.0605 6.1860146,4.9685 3.96731333,4.9685 L0.998066247,4.9685 C0.446135612,4.9685 0,5.4155 0,5.9685 C0,6.5215 0.446135612,6.9685 0.998066247,6.9685 L0.998066247,6.9685 Z" id="Fill-1" fill="#333333"></path>
    </g>
</svg>