<svg width="24" height="24" viewBox="0 0 24 24" fill="none" xmlns="http://www.w3.org/2000/svg">
<g id="import">
<path id="Fill 2" fill-rule="evenodd" clip-rule="evenodd" d="M-9.74403e-07 1.70826L-7.47138e-08 22.2907C-3.3452e-08 23.2347 0.771 24 1.721 24L22.279 24C23.229 24 24 23.2347 24 22.2907L24 1.70826C24 0.765291 23.229 -1.01537e-06 22.279 -9.73846e-07L19.492 -8.52022e-07C18.939 -8.2785e-07 18.492 0.444683 18.492 0.992597C18.492 1.54051 18.939 1.98519 19.492 1.98519L22 1.98519L22 22.0148L2 22.0148L2 1.98519L4.167 1.98519C4.72 1.98519 5.167 1.54051 5.167 0.992597C5.167 0.444684 4.72 -2.06318e-07 4.167 -1.82145e-07L1.721 -7.52273e-08C0.770999 -3.37015e-08 -1.01562e-06 0.765293 -9.74403e-07 1.70826M11.876 -9.95954e-07C11.324 -9.71825e-07 10.876 0.444683 10.876 0.992597L10.876 13.9956L6.875 10.0223C6.484 9.63414 5.851 9.63415 5.46 10.0223C5.07 10.4104 5.07 11.0377 5.46 11.4258L11.292 17.2156C11.48 17.4022 11.734 17.5064 12 17.5064C12.265 17.5064 12.519 17.4022 12.707 17.2156L18.54 11.4258C18.93 11.0377 18.93 10.4104 18.54 10.0222C18.149 9.63414 17.516 9.63414 17.125 10.0222L12.876 14.2398L12.876 0.992597C12.876 0.444683 12.429 -1.02013e-06 11.876 -9.95954e-07" fill="#333333"/>
</g>
</svg>
