<svg width="24" height="24" viewBox="0 0 24 24" fill="none" xmlns="http://www.w3.org/2000/svg">
<g id="export">
<path id="Fill 1" fill-rule="evenodd" clip-rule="evenodd" d="M-9.74403e-07 1.70826L-7.47138e-08 22.2907C-3.3452e-08 23.2347 0.771 24 1.721 24L22.279 24C23.229 24 24 23.2347 24 22.2907L24 1.70826C24 0.765291 23.229 -1.01537e-06 22.279 -9.73846e-07L19.492 -8.52022e-07C18.939 -8.2785e-07 18.492 0.444683 18.492 0.992597C18.492 1.54051 18.939 1.98519 19.492 1.98519L22 1.98519L22 22.0148L2 22.0148L2 1.98519L4.167 1.98519C4.72 1.98519 5.167 1.54051 5.167 0.992597C5.167 0.444684 4.72 -2.06318e-07 4.167 -1.82145e-07L1.721 -7.52273e-08C0.770999 -3.37015e-08 -1.01562e-06 0.765293 -9.74403e-07 1.70826M12.124 17.5064C12.676 17.5064 13.124 17.0618 13.124 16.5138L13.124 3.51082L17.125 7.48419C17.516 7.87229 18.149 7.87229 18.54 7.48419C18.93 7.09608 18.93 6.46876 18.54 6.08066L12.708 0.290837C12.52 0.104229 12.266 6.51917e-06 12 6.50754e-06C11.735 6.49596e-06 11.481 0.104229 11.293 0.290837L5.45998 6.08065C5.06998 6.46876 5.06998 7.09608 5.45998 7.48419C5.85098 7.87229 6.48398 7.87229 6.87498 7.48419L11.124 3.26664L11.124 16.5138C11.124 17.0618 11.571 17.5064 12.124 17.5064" fill="#333333"/>
</g>
</svg>
