<?xml version="1.0" encoding="UTF-8"?>
<svg width="24px" height="24px" viewBox="0 0 24 24" version="1.1" xmlns="http://www.w3.org/2000/svg" xmlns:xlink="http://www.w3.org/1999/xlink">
    <!-- Generator: Sketch 62 (91390) - https://sketch.com -->
    <title>sui-final/icons/24px/actions/action-phone</title>
    <desc>Created with Sketch.</desc>
    <g id="sui-final/icons/24px/actions/action-phone" stroke="none" stroke-width="1" fill="none" fill-rule="evenodd">
        <path d="M21.5716058,18.658691 L18.4653614,16.0710627 C18.2711458,15.9092732 17.838051,15.8857115 17.6268717,16.0264483 L15.9014793,17.1763061 C15.7206985,17.2967843 15.5080581,17.360578 15.2907892,17.3595176 C14.9542068,17.3578749 14.4210299,17.3021405 13.7535906,17.1436889 C12.6580956,16.8836159 11.5634327,16.4201142 10.5395008,15.7008577 C10.1101167,15.3992388 9.70202029,15.0577671 9.31871455,14.6745959 C8.93540881,14.2914247 8.59381719,13.8834716 8.29209232,13.4542383 C7.57258324,12.4306658 7.10891877,11.3363872 6.84875447,10.2412768 C6.69024724,9.57407177 6.63449324,9.04108199 6.63284996,8.70461781 C6.6317892,8.48742518 6.69560528,8.27485943 6.81612582,8.09414209 L7.96638742,6.36935541 C8.11009798,6.15386525 8.08703484,5.72942343 7.92175736,5.53116007 L5.33322031,2.42600608 C5.06088305,2.0993161 4.72581443,2.10076141 4.45719495,2.42895885 L2.74224889,4.52426821 C2.27006078,5.10118441 2.04582963,6.26238343 2.26795143,6.96625599 C2.28099943,7.00760327 2.29157017,7.04969133 2.2996074,7.09229622 C2.31587243,7.17851621 2.36818174,7.38398832 2.47046976,7.69635611 C2.64953525,8.2431874 2.90649465,8.87230979 3.25539113,9.57156565 C4.26895815,11.6029495 5.81955465,13.7679631 8.02261022,15.9702452 C10.2256658,18.1725274 12.3914397,19.7225795 14.4235369,20.7357907 C15.1230383,21.0845647 15.7523817,21.3414339 16.299405,21.5204365 C16.6118825,21.6226886 16.8174268,21.6749796 16.903677,21.6912389 C16.9550823,21.7009295 17.0057241,21.7143022 17.0552107,21.7312538 C17.7203167,21.9590851 18.8871539,21.7275917 19.4726069,21.2487528 L21.5686521,19.5344088 C21.8992694,19.2639987 21.9002021,18.9324251 21.5716058,18.658691 Z M16.4161477,14.2109998 C17.4323515,13.5337685 18.9265497,13.6150573 19.8626687,14.3948826 L22.9689131,16.9825109 C24.3494341,18.1325412 24.3439455,20.0836559 22.9507972,21.2231043 L20.8547521,22.9374483 C19.716023,23.8688086 17.809834,24.2592762 16.4210506,23.8195089 C16.2396295,23.7804856 15.9699741,23.7084605 15.6203755,23.5940612 C14.9733987,23.3823508 14.2453876,23.0852099 13.4493287,22.688292 C11.2083965,21.570955 8.85010045,19.883114 6.47923388,17.5130798 C4.10836732,15.1430455 2.41993361,12.7855773 1.30220417,10.5454319 C0.905146886,9.74965251 0.607901657,9.02189695 0.39611688,8.3751473 C0.278988933,8.01746126 0.20626503,7.74348937 0.167893292,7.56211775 C-0.24665943,6.16142868 0.128189433,4.27248703 1.05296035,3.14260825 L2.76790641,1.04729889 C3.90486782,-0.34183277 5.86003895,-0.350266352 7.00998904,1.02918933 L9.5985261,4.13434333 C10.382115,5.07431987 10.462816,6.55949884 9.78247343,7.57965438 L8.83962676,8.9934279 C8.86530562,9.21714901 8.90823817,9.46724349 8.97235468,9.73712936 C9.17185488,10.5768862 9.52802661,11.4174749 10.0779384,12.1997785 C10.3081454,12.5272706 10.5688539,12.8386274 10.8620909,13.1317614 C11.1553279,13.4248954 11.466794,13.6855124 11.7944011,13.9156386 C12.5769794,14.4653573 13.4178633,14.821404 14.257915,15.0208342 C14.5278957,15.0849282 14.778078,15.1278457 15.0018777,15.1535155 L16.4161477,14.2109998 Z" id="icon--phone" fill="#717171"></path>
    </g>
</svg>