<svg width="24" height="24" viewBox="0 0 24 24" fill="none" xmlns="http://www.w3.org/2000/svg">
<path d="M0 13.4688C0 16.7825 2.68629 19.4688 6 19.4688H8V17.4688H6C3.79086 17.4688 2 15.6779 2 13.4688C2 11.2596 3.79086 9.46875 6 9.46875C6.19838 9.46875 6.38082 9.35121 6.45695 9.16801C7.35948 6.99605 9.50138 5.46875 12 5.46875C14.9745 5.46875 17.4434 7.63316 17.9177 10.4729C18.0087 11.0177 18.4477 11.4688 19 11.4688C20.6569 11.4688 22 12.8119 22 14.4688C22 16.1256 20.6569 17.4688 19 17.4688H16V19.4688H19C21.7614 19.4688 24 17.2302 24 14.4688C24 11.9664 22.1618 9.89346 19.7621 9.52646C18.8935 6.04649 15.7495 3.46875 12 3.46875C9.00386 3.46875 6.3961 5.11539 5.02586 7.54743C2.17544 8.01281 0 10.4867 0 13.4688Z" fill="#333333"/>
<path fill-rule="evenodd" clip-rule="evenodd" d="M7.75737 15.3867C7.36685 14.9961 7.36685 14.363 7.75737 13.9725L11.2929 10.4369C11.6834 10.0464 12.3166 10.0464 12.7071 10.4369L16.2427 13.9725C16.6332 14.363 16.6332 14.9961 16.2427 15.3867C15.8521 15.7772 15.219 15.7772 14.8284 15.3867L12 12.5582L9.17158 15.3867C8.78106 15.7772 8.14789 15.7772 7.75737 15.3867Z" fill="#333333"/>
<path fill-rule="evenodd" clip-rule="evenodd" d="M11.0284 20.5312L11.0284 12.0938C11.0284 11.5415 11.4761 11.0938 12.0284 11.0938C12.5807 11.0937 13.0284 11.5415 13.0284 12.0938L13.0284 20.5312C13.0284 21.0835 12.5807 21.5312 12.0284 21.5312C11.4761 21.5312 11.0284 21.0835 11.0284 20.5312Z" fill="#333333"/>
</svg>
