<?xml version="1.0" encoding="UTF-8"?>
<svg width="24px" height="24px" viewBox="0 0 24 24" version="1.1" xmlns="http://www.w3.org/2000/svg" xmlns:xlink="http://www.w3.org/1999/xlink">
    <title>sui-final/icons/24px/actions/action-user</title>
    <g id="sui-final/icons/24px/actions/action-user" stroke="none" stroke-width="1" fill="none" fill-rule="evenodd">
        <path d="M19.872,18.1665 L19.863,18.105 C19.785,17.583 19.6965,17.1915 19.569,16.9185 C19.011,15.726 14.8965,13.9995 12,13.9995 C9.102,13.9995 4.9875,15.726 4.4295,16.9185 C4.302,17.1915 4.2135,17.583 4.1355,18.105 L4.128,18.168 C2.7945,16.4685 1.9995,14.3265 1.9995,12 C1.9995,6.477 6.4755,1.9995 12,1.9995 C17.523,1.9995 21.999,6.477 21.999,12 C21.999,14.325 21.2055,16.467 19.872,18.1665 M12,0 C5.3715,0 0,5.373 0,12 C0,12.444 0.0285,12.882 0.075,13.314 C0.09,13.455 0.1185,13.5945 0.1395,13.7355 C0.18,14.022 0.225,14.3085 0.2865,14.589 C0.3225,14.751 0.3675,14.9085 0.4095,15.0675 C0.4755,15.321 0.5475,15.5715 0.63,15.8175 C0.684,15.978 0.744,16.137 0.8055,16.2975 C0.897,16.533 0.993,16.764 1.0965,16.9935 C1.1685,17.1465 1.242,17.301 1.3185,17.451 C1.434,17.6775 1.5585,17.8965 1.6875,18.114 C1.7715,18.255 1.8525,18.396 1.9425,18.534 C2.0895,18.759 2.2455,18.972 2.4045,19.1865 C2.493,19.3035 2.577,19.4235 2.667,19.5375 C2.874,19.791 3.0915,20.0325 3.318,20.268 C3.3765,20.331 3.4305,20.3985 3.4905,20.4585 C3.7815,20.7525 4.089,21.0285 4.407,21.291 C5.2695,21.9945 6.228,22.5795 7.2645,23.025 C7.467,23.1135 7.68,23.1855 7.89,23.2605 C8.0535,23.322 8.214,23.388 8.3805,23.442 C8.6055,23.5125 8.8395,23.5665 9.0705,23.625 C9.2295,23.664 9.384,23.712 9.5445,23.7465 C9.807,23.8005 10.0755,23.835 10.341,23.8725 C10.479,23.8905 10.614,23.9205 10.7535,23.9355 C11.163,23.976 11.5785,24 12,24 C12.42,24 12.8355,23.976 13.245,23.9355 C13.383,23.9205 13.5165,23.8905 13.653,23.8725 C13.9215,23.835 14.1915,23.8005 14.454,23.7465 C14.613,23.712 14.769,23.664 14.925,23.625 C15.1575,23.5665 15.393,23.5125 15.618,23.442 C15.7845,23.388 15.945,23.322 16.107,23.262 C16.3185,23.1855 16.53,23.1135 16.734,23.025 C18.0315,22.467 19.2045,21.6825 20.217,20.727 C20.379,20.574 20.5365,20.4195 20.6895,20.2605 C20.811,20.1315 20.931,19.9995 21.048,19.8645 C21.1935,19.698 21.3345,19.5255 21.4695,19.35 C21.579,19.209 21.687,19.0695 21.789,18.9225 C21.918,18.741 22.0395,18.5535 22.158,18.3645 C22.254,18.2145 22.347,18.0645 22.4355,17.9085 C22.5465,17.712 22.65,17.511 22.749,17.307 C22.8285,17.1495 22.9065,16.9935 22.9785,16.83 C23.073,16.6185 23.154,16.398 23.235,16.179 C23.295,16.017 23.3595,15.858 23.4135,15.6945 C23.4885,15.4605 23.5485,15.2205 23.61,14.982 C23.652,14.823 23.6985,14.667 23.733,14.5065 C23.79,14.238 23.829,13.962 23.8665,13.6875 C23.8875,13.548 23.9145,13.4115 23.9295,13.2705 C23.9745,12.8535 24,12.429 24,12 C24,5.373 18.627,0 12,0 M12,4.9995 C9.789,4.9995 7.9995,6.7905 7.9995,9 C7.9995,11.208 9.789,12.999 12,12.999 C14.2095,12.999 15.999,11.208 15.999,9 C15.999,6.7905 14.2095,4.9995 12,4.9995" id="Fill-1" fill="#333333"></path>
    </g>
</svg>