<?xml version="1.0" encoding="UTF-8"?>
<svg width="24px" height="24px" viewBox="0 0 24 24" version="1.1" xmlns="http://www.w3.org/2000/svg" xmlns:xlink="http://www.w3.org/1999/xlink">
    <!-- Generator: Sketch 62 (91390) - https://sketch.com -->
    <title>sui-final/icons/24px/actions/action-expand-all</title>
    <desc>Created with Sketch.</desc>
    <g id="sui-final/icons/24px/actions/action-expand-all" stroke="none" stroke-width="1" fill="none" fill-rule="evenodd">
        <path d="M15.6533,7.907 C15.8903,7.907 16.0183,7.629 15.8643,7.448 L12.2113,3.19 C12.0993,3.061 11.8993,3.061 11.7893,3.19 L8.1343,7.448 C7.9803,7.629 8.1083,7.907 8.3453,7.907 L11.0003,7.907 L11.0003,16.186 L8.3453,16.186 C8.1083,16.186 7.9803,16.466 8.1343,16.645 L11.7893,20.903 C11.8993,21.032 12.0993,21.032 12.2113,20.903 L15.8643,16.645 C16.0183,16.466 15.8903,16.186 15.6533,16.186 L13.0003,16.186 L13.0003,7.907 L15.6533,7.907 Z M0.2813,21 L1.7183,21 C1.8743,21 2.0003,20.874 2.0003,20.719 L2.0003,17.282 C2.0003,17.126 1.8743,17 1.7183,17 L0.2813,17 C0.1263,17 0.0003,17.126 0.0003,17.282 L0.0003,20.719 C0.0003,20.874 0.1263,21 0.2813,21 L0.2813,21 Z M0.0003,14.25 L2.0003,14.25 L2.0003,10.25 L0.0003,10.25 L0.0003,14.25 Z M0.2813,8 L1.7183,8 C1.8743,8 2.0003,7.874 2.0003,7.719 L2.0003,3.282 C2.0003,3.126 1.8743,3 1.7183,3 L0.2813,3 C0.1263,3 0.0003,3.126 0.0003,3.282 L0.0003,7.719 C0.0003,7.874 0.1263,8 0.2813,8 L0.2813,8 Z M23.7183,17 L22.2813,17 C22.1263,17 22.0003,17.126 22.0003,17.282 L22.0003,20.719 C22.0003,20.874 22.1263,21 22.2813,21 L23.7183,21 C23.8743,21 24.0003,20.874 24.0003,20.719 L24.0003,17.282 C24.0003,17.126 23.8743,17 23.7183,17 L23.7183,17 Z M23.7183,10.25 L22.2813,10.25 C22.1263,10.25 22.0003,10.376 22.0003,10.532 L22.0003,13.969 C22.0003,14.124 22.1263,14.25 22.2813,14.25 L23.7183,14.25 C23.8743,14.25 24.0003,14.124 24.0003,13.969 L24.0003,10.532 C24.0003,10.376 23.8743,10.25 23.7183,10.25 L23.7183,10.25 Z M23.7183,3 L22.2813,3 C22.1263,3 22.0003,3.126 22.0003,3.282 L22.0003,7.719 C22.0003,7.874 22.1263,8 22.2813,8 L23.7183,8 C23.8743,8 24.0003,7.874 24.0003,7.719 L24.0003,3.282 C24.0003,3.126 23.8743,3 23.7183,3 L23.7183,3 Z M23.7183,22 L0.2813,22 C0.1263,22 0.0003,22.126 0.0003,22.282 L0.0003,23.719 C0.0003,23.874 0.1263,24 0.2813,24 L23.7183,24 C23.8743,24 24.0003,23.874 24.0003,23.719 L24.0003,22.282 C24.0003,22.126 23.8743,22 23.7183,22 L23.7183,22 Z M0.2813,2 L23.7183,2 C23.8743,2 24.0003,1.874 24.0003,1.719 L24.0003,0.282 C24.0003,0.126 23.8743,0 23.7183,0 L0.2813,0 C0.1263,0 0.0003,0.126 0.0003,0.282 L0.0003,1.719 C0.0003,1.874 0.1263,2 0.2813,2 L0.2813,2 Z" id="Fill-1" fill="#333333"></path>
    </g>
</svg>