<?xml version="1.0" encoding="UTF-8"?>
<svg width="24px" height="24px" viewBox="0 0 24 24" version="1.1" xmlns="http://www.w3.org/2000/svg" xmlns:xlink="http://www.w3.org/1999/xlink">
    <title>sui-final/icons/24px/actions/action-article</title>
    <g id="sui-final/icons/24px/actions/action-article" stroke="none" stroke-width="1" fill="none" fill-rule="evenodd">
        <path d="M20,0 C21.1045695,0 22,0.8954305 22,2 L22,22 C22,23.1045695 21.1045695,24 20,24 L4,24 C2.8954305,24 2,23.1045695 2,22 L2,2 C2,0.8954305 2.8954305,0 4,0 L20,0 Z M20,2 L4,2 L4,22 L20,22 L20,2 Z M13.9,16.8 C14.5075132,16.8 15,17.2924868 15,17.9 C15,18.4670123 14.5709893,18.9338239 14.0198571,18.9935453 L13.9,19 L6.1,19 C5.49248678,19 5,18.5075132 5,17.9 C5,17.3329877 5.4290107,16.8661761 5.98014288,16.8064547 L6.1,16.8 L13.9,16.8 Z M17.9,12.8 C18.5075132,12.8 19,13.2924868 19,13.9 C19,14.4670123 18.5709893,14.9338239 18.0198571,14.9935453 L17.9,15 L6.1,15 C5.49248678,15 5,14.5075132 5,13.9 C5,13.3329877 5.4290107,12.8661761 5.98014288,12.8064547 L6.1,12.8 L17.9,12.8 Z M17.9,8.8 C18.5075132,8.8 19,9.29248678 19,9.9 C19,10.4670123 18.5709893,10.9338239 18.0198571,10.9935453 L17.9,11 L6.1,11 C5.49248678,11 5,10.5075132 5,9.9 C5,9.33298766 5.4290107,8.86617613 5.98014288,8.80645465 L6.1,8.8 L17.9,8.8 Z M17.9,4.8 C18.5075132,4.8 19,5.29248678 19,5.9 C19,6.46701234 18.5709893,6.93382387 18.0198571,6.99354535 L17.9,7 L6.1,7 C5.49248678,7 5,6.50751322 5,5.9 C5,5.33298766 5.4290107,4.86617613 5.98014288,4.80645465 L6.1,4.8 L17.9,4.8 Z" id="article" fill="#333333" fill-rule="nonzero"></path>
    </g>
</svg>