<?xml version="1.0" encoding="UTF-8"?>
<svg width="24px" height="24px" viewBox="0 0 24 24" version="1.1" xmlns="http://www.w3.org/2000/svg" xmlns:xlink="http://www.w3.org/1999/xlink">
    <!-- Generator: Sketch 62 (91390) - https://sketch.com -->
    <title>sui-final/icons/24px/actions/action-list-view</title>
    <desc>Created with Sketch.</desc>
    <g id="sui-final/icons/24px/actions/action-list-view" stroke="none" stroke-width="1" fill="none" fill-rule="evenodd">
        <path d="M2,22 L22,22 L22,15 L2,15 L2,22 Z M22.476,13 L1.525,13 C0.685,13 0,13.684 0,14.524 L0,22.476 C0,23.316 0.685,24 1.525,24 L22.476,24 C23.316,24 24,23.316 24,22.476 L24,14.524 C24,13.684 23.316,13 22.476,13 L22.476,13 Z M2,9 L22,9 L22,2 L2,2 L2,9 Z M22.476,0 L1.525,0 C0.685,0 0,0.684 0,1.524 L0,9.476 C0,10.316 0.685,11 1.525,11 L22.476,11 C23.316,11 24,10.316 24,9.476 L24,1.524 C24,0.684 23.316,0 22.476,0 L22.476,0 Z" id="Fill-1" fill="#333333"></path>
    </g>
</svg>