<svg width="24" height="24" viewBox="0 0 24 24" fill="none" xmlns="http://www.w3.org/2000/svg">
<g id="link-chain">
<path id="Vector" d="M8.60005 15.65C8.69349 15.7427 8.8043 15.816 8.92614 15.8658C9.04798 15.9155 9.17844 15.9408 9.31005 15.94C9.57239 15.9389 9.82379 15.8347 10.01 15.65L15.67 9.98999C15.7638 9.89703 15.8382 9.78643 15.8889 9.66457C15.9397 9.54271 15.9658 9.41201 15.9658 9.27999C15.9658 9.14798 15.9397 9.01728 15.8889 8.89542C15.8382 8.77356 15.7638 8.66296 15.67 8.56999C15.4827 8.38374 15.2292 8.2792 14.965 8.2792C14.7009 8.2792 14.4474 8.38374 14.26 8.56999L8.60005 14.23C8.50632 14.323 8.43192 14.4336 8.38115 14.5554C8.33039 14.6773 8.30425 14.808 8.30425 14.94C8.30425 15.072 8.33039 15.2027 8.38115 15.3246C8.43192 15.4464 8.50632 15.557 8.60005 15.65V15.65ZM11.78 15.3C11.9648 15.4863 12.0689 15.7377 12.07 16C12.0708 16.1316 12.0456 16.2621 11.9958 16.3839C11.9461 16.5057 11.8727 16.6166 11.78 16.71L7.53005 20.95C7.34268 21.1362 7.08923 21.2408 6.82505 21.2408C6.56086 21.2408 6.30741 21.1362 6.12005 20.95L3.29005 18.11C3.19632 18.017 3.12192 17.9064 3.07115 17.7846C3.02039 17.6627 2.99425 17.532 2.99425 17.4C2.99425 17.268 3.02039 17.1373 3.07115 17.0154C3.12192 16.8936 3.19632 16.783 3.29005 16.69L7.54005 12.45C7.72631 12.2652 7.97771 12.1611 8.24005 12.16C8.37165 12.1592 8.50211 12.1845 8.62395 12.2342C8.74579 12.284 8.85661 12.3573 8.95005 12.45L10.36 11.03C9.78777 10.487 9.02894 10.1843 8.24005 10.1843C7.45115 10.1843 6.69232 10.487 6.12005 11.03L1.88005 15.3C1.31824 15.8625 1.00269 16.625 1.00269 17.42C1.00269 18.215 1.31824 18.9775 1.88005 19.54L4.71005 22.37C5.27212 22.9328 6.03466 23.2493 6.83005 23.25C7.62543 23.2493 8.38798 22.9328 8.95005 22.37L13.2 18.11C13.4797 17.8313 13.7016 17.5001 13.8531 17.1355C14.0045 16.7708 14.0824 16.3798 14.0824 15.985C14.0824 15.5902 14.0045 15.1992 13.8531 14.8345C13.7016 14.4699 13.4797 14.1387 13.2 13.86L11.78 15.3ZM22.39 4.67999L19.56 1.84999C18.9878 1.30699 18.2289 1.00427 17.44 1.00427C16.6511 1.00427 15.8923 1.30699 15.32 1.84999L11.08 6.10999C10.8004 6.3887 10.5785 6.71988 10.427 7.08454C10.2756 7.44919 10.1977 7.84015 10.1977 8.23499C10.1977 8.62984 10.2756 9.02079 10.427 9.38545C10.5785 9.7501 10.8004 10.0813 11.08 10.36L12.49 8.93999C12.3038 8.75263 12.1993 8.49918 12.1993 8.23499C12.1993 7.97081 12.3038 7.71736 12.49 7.52999L16.74 3.28999C16.9274 3.10374 17.1809 2.9992 17.445 2.9992C17.7092 2.9992 17.9627 3.10374 18.15 3.28999L20.98 6.10999C21.0738 6.20296 21.1482 6.31356 21.1989 6.43542C21.2497 6.55728 21.2758 6.68798 21.2758 6.81999C21.2758 6.95201 21.2497 7.08271 21.1989 7.20457C21.1482 7.32643 21.0738 7.43703 20.98 7.52999L16.74 11.77C16.6471 11.8637 16.5365 11.9381 16.4146 11.9889C16.2928 12.0397 16.1621 12.0658 16.03 12.0658C15.898 12.0658 15.7673 12.0397 15.6455 11.9889C15.5236 11.9381 15.413 11.8637 15.32 11.77L13.91 13.19C14.4725 13.7518 15.235 14.0674 16.03 14.0674C16.825 14.0674 17.5875 13.7518 18.15 13.19L22.39 8.93999C22.6712 8.6611 22.8944 8.3293 23.0467 7.96372C23.199 7.59815 23.2774 7.20603 23.2774 6.80999C23.2774 6.41396 23.199 6.02184 23.0467 5.65626C22.8944 5.29069 22.6712 4.95888 22.39 4.67999Z" fill="#333333"/>
</g>
</svg>
