<?xml version="1.0" encoding="UTF-8"?>
<svg width="24px" height="24px" viewBox="0 0 24 24" version="1.1" xmlns="http://www.w3.org/2000/svg" xmlns:xlink="http://www.w3.org/1999/xlink">
    <title>sui-final/icons/24px/actions/action-modified</title>
    <g id="sui-final/icons/24px/actions/action-modified" stroke="none" stroke-width="1" fill="none" fill-rule="evenodd">
        <path d="M16.2469,2.8126 C16.2369,2.8326 16.2169,2.8416 16.2069,2.8626 L16.3259,2.7516 C16.2969,2.7616 16.2759,2.7826 16.2469,2.8126 L16.2469,2.8126 Z M21.5999,4.5786 L19.4509,2.4206 L18.3559,3.5246 L20.5049,5.6816 L21.5999,4.5786 Z M19.0929,7.1066 L16.9529,4.9496 L11.0629,10.8896 L13.2019,13.0466 L19.0929,7.1066 Z M11.2819,13.9506 L10.1679,12.8266 L9.7599,14.3616 L11.2819,13.9506 Z M23.7089,5.2916 L21.2019,7.8196 L13.9089,15.1736 C13.8589,15.2246 13.7989,15.2746 13.7389,15.3046 C13.7099,15.3346 13.6699,15.3546 13.6409,15.3656 C13.6009,15.3846 13.5599,15.4056 13.5199,15.4156 C13.5009,15.4246 13.4799,15.4246 13.4609,15.4356 L8.6149,16.7506 C8.5259,16.7696 8.4359,16.7796 8.3559,16.7796 C8.0979,16.7796 7.8399,16.6796 7.6499,16.4886 C7.4009,16.2276 7.3019,15.8666 7.3919,15.5156 L8.6849,10.6886 C8.6849,10.6596 8.6949,10.6196 8.7149,10.5796 C8.7249,10.5286 8.7449,10.4886 8.7649,10.4486 C8.7739,10.4086 8.7949,10.3776 8.8239,10.3476 C8.8539,10.2886 8.9039,10.2276 8.9539,10.1766 L16.2069,2.8626 L16.3259,2.7516 C16.3469,2.7216 16.3759,2.7026 16.3959,2.6816 L18.7539,0.2936 C19.1429,-0.0974 19.7679,-0.0974 20.1569,0.2936 L23.7089,3.8756 C24.0979,4.2666 24.0979,4.8996 23.7089,5.2916 L23.7089,5.2916 Z M8.6949,10.6286 C8.6949,10.6086 8.7049,10.5986 8.7149,10.5796 C8.6949,10.6196 8.6849,10.6596 8.6849,10.6886 L8.6949,10.6286 Z M17.9089,23.9996 L2.9849,23.9996 C1.3389,23.9996 -0.0001,22.6496 -0.0001,20.9896 L-0.0001,5.9386 C-0.0001,4.2786 1.3389,2.9276 2.9849,2.9276 L11.1659,2.9276 C11.7159,2.9276 12.1609,3.3766 12.1609,3.9316 C12.1609,4.4866 11.7159,4.9346 11.1659,4.9346 L2.9849,4.9346 C2.4359,4.9346 1.9899,5.3846 1.9899,5.9386 L1.9899,20.9896 C1.9899,21.5426 2.4359,21.9936 2.9849,21.9936 L17.9089,21.9936 C18.4589,21.9936 18.9039,21.5426 18.9039,20.9896 L18.9039,13.0416 C18.9039,12.4876 19.3499,12.0386 19.8989,12.0386 C20.4489,12.0386 20.8939,12.4876 20.8939,13.0416 L20.8939,20.9896 C20.8939,22.6496 19.5559,23.9996 17.9089,23.9996 L17.9089,23.9996 Z" id="Fill-1" fill="#333333"></path>
    </g>
</svg>