<svg width="24" height="24" viewBox="0 0 24 24" fill="none" xmlns="http://www.w3.org/2000/svg">
<path d="M9.33392 13.5117C9.14647 13.325 8.8929 13.2202 8.62859 13.2202C8.36428 13.2202 8.11071 13.325 7.92326 13.5117C7.82948 13.6049 7.75506 13.7158 7.70426 13.838C7.65347 13.9602 7.62732 14.0912 7.62732 14.2236C7.62732 14.3559 7.65347 14.4869 7.70426 14.6091C7.75506 14.7313 7.82948 14.8422 7.92326 14.9354L9.0838 16.0983C9.17728 16.1912 9.28815 16.2648 9.41005 16.3146C9.53194 16.3645 9.66246 16.3898 9.79413 16.3891C10.0566 16.388 10.3081 16.2835 10.4945 16.0983C10.6808 15.9105 10.7854 15.6564 10.7854 15.3915C10.7854 15.1267 10.6808 14.8726 10.4945 14.6847L9.33392 13.5117ZM22.38 8.20826L21.4996 7.316C21.2828 7.10825 21.0109 6.9675 20.7163 6.91061C20.4218 6.85371 20.1171 6.88307 19.8388 6.99518C19.4757 7.13391 19.08 7.16365 18.7003 7.08076C18.3205 6.99788 17.973 6.80595 17.7003 6.52843C17.4276 6.25091 17.2415 5.89981 17.1646 5.51802C17.0878 5.13622 17.1236 4.74027 17.2676 4.37853C17.3834 4.10029 17.4147 3.79406 17.3578 3.49808C17.3008 3.20209 17.1581 2.92948 16.9475 2.71429L15.847 1.61149C15.4406 1.22872 14.9039 1.01563 14.3463 1.01562C13.7886 1.01562 13.2519 1.22872 12.8456 1.61149L1.62031 12.82C1.22918 13.2225 1.01031 13.762 1.01031 14.3238C1.01031 14.8856 1.22918 15.4252 1.62031 15.8276L8.16337 22.4044C8.565 22.7963 9.10346 23.0156 9.66407 23.0156C10.2247 23.0156 10.7631 22.7963 11.1648 22.4044L22.38 11.2159C22.7825 10.8112 23.0091 10.2634 23.0103 9.69204C23.0018 9.13391 22.7756 8.6013 22.38 8.20826V8.20826ZM20.9594 9.77224L13.2858 17.4718L12.6655 16.8603C12.4748 16.7253 12.243 16.6614 12.0103 16.6796C11.7775 16.6978 11.5585 16.797 11.391 16.9601C11.2236 17.1231 11.1183 17.3397 11.0935 17.5723C11.0686 17.8049 11.1257 18.0389 11.2548 18.2338L11.8651 18.8453L9.77412 20.9507C9.74661 20.9753 9.71099 20.989 9.67408 20.989C9.63716 20.989 9.60154 20.9753 9.57403 20.9507L3.04097 14.4441C3.01348 14.416 2.99807 14.3782 2.99807 14.3389C2.99807 14.2995 3.01348 14.2617 3.04097 14.2336L5.16196 12.1383L5.79226 12.7699C5.97861 12.9551 6.23012 13.0595 6.49259 13.0606C6.62496 13.0601 6.7559 13.0332 6.87783 12.9816C6.99977 12.9299 7.11026 12.8546 7.20292 12.7598C7.38926 12.572 7.49385 12.3179 7.49385 12.053C7.49385 11.7882 7.38926 11.5341 7.20292 11.3462L6.58263 10.7247L14.2562 3.02508C14.2884 3.01274 14.3241 3.01274 14.3563 3.02508C14.3916 3.01112 14.431 3.01112 14.4663 3.02508L15.3367 3.90733C15.1226 4.60409 15.1021 5.34616 15.2774 6.05372C15.4527 6.76129 15.8172 7.40758 16.3316 7.92309C16.8461 8.4386 17.491 8.80383 18.1971 8.9795C18.9032 9.15516 19.6437 9.13462 20.3391 8.92007L20.9994 9.58176C21.0141 9.59399 21.0259 9.60931 21.034 9.62664C21.0421 9.64397 21.0463 9.66287 21.0463 9.68201C21.0463 9.70115 21.0421 9.72006 21.034 9.73739C21.0259 9.75471 21.0141 9.77004 20.9994 9.78227L20.9594 9.77224Z" fill="#333333"/>
</svg>
