<?xml version="1.0" encoding="UTF-8"?>
<svg width="24px" height="24px" viewBox="0 0 24 24" version="1.1" xmlns="http://www.w3.org/2000/svg" xmlns:xlink="http://www.w3.org/1999/xlink">
    <title>sui-final/icons/24px/actions/action-hide</title>
    <g id="sui-final/icons/24px/actions/action-hide" stroke="none" stroke-width="1" fill="none" fill-rule="evenodd">
        <path d="M11.9996,3.9531 C10.5856,3.9531 9.2286,4.1731 7.9546,4.5761 L10.1906,6.8121 C10.7586,6.6121 11.3646,6.4991 11.9996,6.4991 C15.0116,6.4991 17.4546,8.9421 17.4546,11.9531 C17.4546,12.5881 17.3406,13.1941 17.1406,13.7621 L20.3546,16.9761 C21.9516,15.6491 23.2166,13.9401 23.9996,11.9531 C22.1126,7.1641 17.4546,3.9531 11.9996,3.9531 L11.9996,3.9531 Z M12.0656,8.6861 L15.2666,11.8871 C15.2296,10.1301 13.8226,8.7231 12.0656,8.6861 L12.0656,8.6861 Z M11.9996,17.4071 C8.9886,17.4071 6.5456,14.9641 6.5456,11.9531 C6.5456,11.0531 6.7706,10.2081 7.1596,9.4601 L8.8386,11.1391 C8.7706,11.3991 8.7276,11.6701 8.7276,11.9531 C8.7276,13.7641 10.1886,15.2251 11.9996,15.2251 C12.2826,15.2251 12.5546,15.1821 12.8136,15.1141 L14.4936,16.7941 C13.7456,17.1821 12.9006,17.4071 11.9996,17.4071 L11.9996,17.4071 Z M18.6826,18.1541 C18.6866,18.1511 18.6916,18.1491 18.6966,18.1461 L16.0966,15.5461 C16.0926,15.5501 16.0886,15.5531 16.0856,15.5571 L14.5316,14.0041 C14.5346,14.0001 14.5396,13.9971 14.5436,13.9921 L9.9606,9.4101 C9.9566,9.4131 9.9536,9.4181 9.9486,9.4211 L8.3956,7.8681 L8.4076,7.8561 L5.9546,5.4031 L5.9396,5.4121 L3.8206,3.2931 C3.4306,2.9021 2.7976,2.9021 2.4066,3.2931 C2.0166,3.6831 2.0166,4.3161 2.4066,4.7071 L4.2006,6.5011 C2.3406,7.8761 0.8716,9.7411 -0.0004,11.9531 C1.8876,16.7421 6.5456,19.9531 11.9996,19.9531 C13.6866,19.9531 15.2936,19.6381 16.7696,19.0691 L18.4066,20.7071 C18.6026,20.9021 18.8576,21.0001 19.1136,21.0001 C19.3696,21.0001 19.6256,20.9021 19.8206,20.7071 C20.2116,20.3161 20.2116,19.6831 19.8206,19.2931 L18.6826,18.1541 Z" id="Fill-1" fill="#333333"></path>
    </g>
</svg>