<?xml version="1.0" encoding="UTF-8"?>
<svg width="24px" height="24px" viewBox="0 0 24 24" version="1.1" xmlns="http://www.w3.org/2000/svg" xmlns:xlink="http://www.w3.org/1999/xlink">
    <!-- Generator: Sketch 62 (91390) - https://sketch.com -->
    <title>sui-final/icons/24px/actions/action-email</title>
    <desc>Created with Sketch.</desc>
    <g id="sui-final/icons/24px/actions/action-email" stroke="none" stroke-width="1" fill="none" fill-rule="evenodd">
        <path d="M12,0 C18.627417,0 24,5.372583 24,12 L24,14.1818182 L24,14.1818182 C24,16.3149675 22.1464642,18 19.9090909,18 C18.4119735,18 17.0867191,17.2455281 16.3736597,16.1071731 C15.2802242,17.2719326 13.7251367,18 12,18 C8.6862915,18 6,15.3137085 6,12 C6,8.6862915 8.6862915,6 12,6 C13.4633977,6 14.8044317,6.52390104 15.8457755,7.39437646 C15.9552966,6.90825329 16.3898256,6.54545455 16.9090909,6.54545455 C17.5115834,6.54545455 18,7.03387118 18,7.63636364 L18,14.1818182 C18,15.0611311 18.8327558,15.8181818 19.9090909,15.8181818 C20.9854261,15.8181818 21.8181818,15.0611311 21.8181818,14.1818182 L21.8181818,12 C21.8181818,6.57756791 17.4224321,2.18181818 12,2.18181818 C6.57756791,2.18181818 2.18181818,6.57756791 2.18181818,12 C2.18181818,17.4224321 6.57756791,21.8181818 12,21.8181818 C12.6024925,21.8181818 13.0909091,22.3065985 13.0909091,22.9090909 C13.0909091,23.5115834 12.6024925,24 12,24 C5.372583,24 3.55271368e-15,18.627417 3.55271368e-15,12 C3.55271368e-15,5.372583 5.372583,0 12,0 Z M12,8.18181818 C9.89127641,8.18181818 8.18181818,9.89127641 8.18181818,12 C8.18181818,14.1087236 9.89127641,15.8181818 12,15.8181818 C14.1087236,15.8181818 15.8181818,14.1087236 15.8181818,12 C15.8181818,9.89127641 14.1087236,8.18181818 12,8.18181818 Z" id="icon-email" fill="#717171"></path>
    </g>
</svg>