<svg width="24" height="24" viewBox="0 0 24 24" fill="none" xmlns="http://www.w3.org/2000/svg">
<path fill-rule="evenodd" clip-rule="evenodd" d="M3.75 0C2.23122 0 1 1.34315 1 3V21C1 22.6569 2.23122 24 3.75 24H20.25C21.7688 24 23 22.6569 23 21V7.80195C23 6.80513 22.5461 5.87342 21.7889 5.31562L15.2695 0.513675C14.815 0.178886 14.2791 0 13.7307 0H3.75ZM2.83333 3C2.83333 2.44772 3.24374 2 3.75 2H13V6.33333C13 7.80609 14.0989 9 15.4545 9H21.1667V21C21.1667 21.5523 20.7563 22 20.25 22H3.75C3.24374 22 2.83333 21.5523 2.83333 21V3ZM20.9969 7.22222C20.9341 7.12589 20.8553 7.04119 20.763 6.97317L14.6364 2.46049V6.33333C14.6364 6.82425 15.0027 7.22222 15.4545 7.22222H20.9969Z" fill="#333333"/>
<path d="M4.1143 19.384C4.1143 19.1999 4.16459 19.0706 4.26517 18.9961C4.37033 18.9171 4.49377 18.8777 4.6355 18.8777C4.77723 18.8777 4.90067 18.9171 5.00582 18.9961C5.11098 19.0706 5.16355 19.1999 5.16355 19.384C5.16355 19.5638 5.11098 19.6931 5.00582 19.772C4.90067 19.8509 4.77723 19.8904 4.6355 19.8904C4.49377 19.8904 4.37033 19.8509 4.26517 19.772C4.16459 19.6931 4.1143 19.5638 4.1143 19.384Z" fill="#333333"/>
<path d="M9.52979 19.1886C9.71115 19.4531 9.51331 19.8049 9.1832 19.8049C9.039 19.8049 8.90516 19.7331 8.82971 19.6153L7.75101 17.9307L6.65859 19.627C6.58737 19.7376 6.46151 19.8049 6.32598 19.8049C6.01699 19.8049 5.83014 19.4774 5.99681 19.2279L7.03848 17.6685C7.15921 17.4877 7.1588 17.2561 7.03743 17.0757L6.11566 15.7061C5.94245 15.4487 6.13513 15.1096 6.45457 15.1096C6.5953 15.1096 6.72585 15.1799 6.79905 15.2952L7.79216 16.8588L8.78151 15.2914C8.85275 15.1786 8.98033 15.1096 9.11791 15.1096C9.42852 15.1096 9.61651 15.4387 9.44926 15.6897L8.50596 17.1053C8.38462 17.2874 8.38621 17.5209 8.51002 17.7015L9.52979 19.1886Z" fill="#333333"/>
<path d="M13.0942 19.8049C12.8591 19.8049 12.6503 19.6608 12.5756 19.4471L11.3599 15.9678C11.3579 15.9619 11.3521 15.9579 11.3457 15.9579C11.3368 15.9579 11.3298 15.9653 11.3306 15.9738C11.339 16.0604 11.3453 16.1801 11.3496 16.3328C11.3588 16.4906 11.3656 16.6637 11.3702 16.8523C11.3793 17.0364 11.3839 17.2096 11.3839 17.3718V19.4268C11.3839 19.6356 11.2074 19.8049 10.9896 19.8049C10.7718 19.8049 10.5953 19.6356 10.5953 19.4268V15.6576C10.5953 15.355 10.8511 15.1096 11.1667 15.1096H11.4048C11.6504 15.1096 11.8686 15.2601 11.9466 15.4835L13.1009 18.7862C13.1035 18.7937 13.1108 18.7988 13.1191 18.7988C13.1272 18.7988 13.1345 18.7938 13.1372 18.7864L14.343 15.4769C14.4231 15.2569 14.6395 15.1096 14.8825 15.1096H15.126C15.4417 15.1096 15.6975 15.355 15.6975 15.6576V19.4038C15.6975 19.6253 15.5102 19.8049 15.2792 19.8049C15.0482 19.8049 14.8609 19.6253 14.8609 19.4038V17.3323C14.8609 17.1833 14.8631 17.021 14.8677 16.8457C14.8769 16.6659 14.8837 16.4972 14.8883 16.3393C14.8969 16.1865 14.9035 16.0668 14.908 15.9802C14.9085 15.9716 14.9014 15.9645 14.8925 15.9645C14.8859 15.9645 14.88 15.9685 14.8778 15.9745L13.6105 19.4534C13.5338 19.6639 13.3267 19.8049 13.0942 19.8049Z" fill="#333333"/>
<path d="M17.5357 19.8049C17.2201 19.8049 16.9642 19.5596 16.9642 19.2569V15.5305C16.9642 15.298 17.1607 15.1096 17.4031 15.1096C17.6455 15.1096 17.8421 15.298 17.8421 15.5305V19.0947H19.5154C19.7199 19.0947 19.8857 19.2537 19.8857 19.4498C19.8857 19.6459 19.7199 19.8049 19.5154 19.8049H17.5357Z" fill="#333333"/>
<path fill-rule="evenodd" clip-rule="evenodd" d="M4.19279 19.8569C4.05553 19.7492 4 19.5816 4 19.384C4 19.1838 4.0547 19.0135 4.19528 18.9093C4.32183 18.8144 4.46991 18.7681 4.6355 18.7681C4.80056 18.7681 4.94878 18.8145 5.07506 18.9088C5.22026 19.0125 5.27785 19.1828 5.27785 19.384C5.27785 19.5831 5.21908 19.7512 5.07626 19.8583C4.94972 19.9533 4.80108 20 4.6355 20C4.46991 20 4.32128 19.9533 4.19473 19.8583L4.19279 19.8569ZM14.7536 16.8403C14.7574 16.7648 14.7608 16.6912 14.7639 16.6196L13.7184 19.4896C13.6257 19.7441 13.3753 19.9145 13.0942 19.9145C12.8099 19.9145 12.5575 19.7403 12.4672 19.4819L11.4787 16.6526C11.4809 16.716 11.4828 16.7812 11.4844 16.8484C11.4936 17.0335 11.4982 17.208 11.4982 17.3718V19.4268C11.4982 19.6961 11.2705 19.9145 10.9896 19.9145C10.7087 19.9145 10.481 19.6961 10.481 19.4268V15.6576C10.481 15.2944 10.788 15 11.1667 15H11.4048C11.6995 15 11.9613 15.1806 12.055 15.4487L13.1209 18.4987L14.2351 15.4407C14.3313 15.1768 14.591 15 14.8825 15H15.126C15.5048 15 15.8118 15.2944 15.8118 15.6576V19.4038C15.8118 19.6858 15.5734 19.9145 15.2792 19.9145C14.985 19.9145 14.7466 19.6858 14.7466 19.4038V17.3323C14.7466 17.1822 14.7489 17.0191 14.7535 16.8429L14.7536 16.8403ZM14.343 15.4769C14.4231 15.2569 14.6395 15.1096 14.8825 15.1096H15.126C15.4417 15.1096 15.6975 15.355 15.6975 15.6576V19.4038C15.6975 19.6253 15.5102 19.8049 15.2792 19.8049C15.0482 19.8049 14.8609 19.6253 14.8609 19.4038V17.3323C14.8609 17.1833 14.8631 17.021 14.8677 16.8457C14.8769 16.6659 14.8837 16.4972 14.8883 16.3393C14.8897 16.3143 14.8911 16.2901 14.8924 16.2668C14.8965 16.1936 14.9 16.1292 14.903 16.0736C14.9048 16.0408 14.9064 16.0112 14.9078 15.9846L14.908 15.9802C14.9085 15.9716 14.9014 15.9645 14.8925 15.9645C14.8859 15.9645 14.88 15.9685 14.8778 15.9745L13.6105 19.4534C13.5338 19.6639 13.3267 19.8049 13.0942 19.8049C12.8591 19.8049 12.6503 19.6608 12.5756 19.4471L11.3599 15.9678C11.3579 15.9619 11.3521 15.9579 11.3457 15.9579C11.3368 15.9579 11.3298 15.9653 11.3306 15.9738L11.331 15.9771C11.3335 16.004 11.3359 16.034 11.338 16.0672C11.342 16.1274 11.3453 16.1978 11.348 16.2785C11.3486 16.2961 11.3491 16.3142 11.3496 16.3328C11.3588 16.4906 11.3656 16.6637 11.3702 16.8523C11.3793 17.0364 11.3839 17.2096 11.3839 17.3718V19.4268C11.3839 19.6356 11.2074 19.8049 10.9896 19.8049C10.7718 19.8049 10.5953 19.6356 10.5953 19.4268V15.6576C10.5953 15.355 10.8511 15.1096 11.1667 15.1096H11.4048C11.6504 15.1096 11.8686 15.2601 11.9466 15.4835L13.1009 18.7862C13.1035 18.7937 13.1108 18.7988 13.1191 18.7988C13.1272 18.7988 13.1345 18.7938 13.1372 18.7864L14.343 15.4769ZM7.75101 17.9307L6.65859 19.627C6.58737 19.7376 6.46151 19.8049 6.32598 19.8049C6.01699 19.8049 5.83014 19.4774 5.99681 19.2279L7.03848 17.6685C7.15921 17.4877 7.1588 17.2561 7.03743 17.0757L6.11566 15.7061C5.94245 15.4487 6.13513 15.1096 6.45457 15.1096C6.5953 15.1096 6.72585 15.1799 6.79905 15.2952L7.79216 16.8588L8.78151 15.2914C8.85275 15.1786 8.98033 15.1096 9.11791 15.1096C9.42852 15.1096 9.61651 15.4387 9.44926 15.6897L8.50596 17.1053C8.38462 17.2874 8.38621 17.5209 8.51002 17.7015L9.52979 19.1886C9.71115 19.4531 9.51331 19.8049 9.1832 19.8049C9.039 19.8049 8.90516 19.7331 8.82971 19.6153L7.75101 17.9307ZM7.75073 18.1398L8.73231 19.6726C8.82855 19.8229 8.99927 19.9145 9.1832 19.9145C9.60427 19.9145 9.85663 19.4658 9.62529 19.1284L8.60552 17.6412C8.50647 17.4968 8.5052 17.31 8.60227 17.1643L9.54558 15.7487C9.76144 15.4248 9.51881 15 9.11791 15C8.94034 15 8.77568 15.089 8.68373 15.2347L7.79185 16.6476L6.89667 15.2382C6.80273 15.0903 6.63518 15 6.45457 15C6.04461 15 5.79733 15.4352 6.01963 15.7655L6.94139 17.1352C7.03849 17.2794 7.03881 17.4648 6.94224 17.6093L5.90056 19.1688C5.68517 19.4912 5.92665 19.9145 6.32598 19.9145C6.50114 19.9145 6.6638 19.8275 6.75584 19.6846L7.75073 18.1398ZM16.8499 19.2569V15.5305C16.8499 15.2375 17.0976 15 17.4031 15C17.7087 15 17.9564 15.2375 17.9564 15.5305V18.9851H19.5154C19.783 18.9851 20 19.1932 20 19.4498C20 19.7065 19.783 19.9145 19.5154 19.9145H17.5357C17.157 19.9145 16.8499 19.6201 16.8499 19.2569ZM19.5154 19.0947C19.7199 19.0947 19.8857 19.2537 19.8857 19.4498C19.8857 19.6459 19.7199 19.8049 19.5154 19.8049H17.5357C17.2201 19.8049 16.9642 19.5596 16.9642 19.2569V15.5305C16.9642 15.298 17.1607 15.1096 17.4031 15.1096C17.6455 15.1096 17.8421 15.298 17.8421 15.5305V19.0947H19.5154ZM5.00582 18.9961C5.11098 19.0706 5.16355 19.1999 5.16355 19.384ZM5.16355 19.384C5.16355 19.5638 5.11098 19.6931 5.00582 19.772ZM5.00582 19.772C4.90067 19.8509 4.77723 19.8904 4.6355 19.8904ZM4.6355 19.8904C4.49377 19.8904 4.37033 19.8509 4.26517 19.772Z" fill="#333333"/>
</svg>
