<svg width="24" height="24" viewBox="0 0 24 24" fill="none" xmlns="http://www.w3.org/2000/svg">
<path d="M12.71 5.29C12.617 5.19627 12.5064 5.12188 12.3846 5.07111C12.2627 5.02034 12.132 4.9942 12 4.9942C11.868 4.9942 11.7373 5.02034 11.6154 5.07111C11.4936 5.12188 11.383 5.19627 11.29 5.29L8.29 8.29C8.1017 8.4783 7.99591 8.7337 7.99591 9C7.99591 9.2663 8.1017 9.52169 8.29 9.71C8.47831 9.8983 8.7337 10.0041 9 10.0041C9.2663 10.0041 9.5217 9.8983 9.71 9.71L11 8.41V15C11 15.2652 11.1054 15.5196 11.2929 15.7071C11.4804 15.8946 11.7348 16 12 16C12.2652 16 12.5196 15.8946 12.7071 15.7071C12.8946 15.5196 13 15.2652 13 15V8.41L14.29 9.71C14.4783 9.8983 14.7337 10.0041 15 10.0041C15.2663 10.0041 15.5217 9.8983 15.71 9.71C15.8983 9.52169 16.0041 9.2663 16.0041 9C16.0041 8.7337 15.8983 8.4783 15.71 8.29L12.71 5.29ZM15 17H9C8.73479 17 8.48043 17.1054 8.2929 17.2929C8.10536 17.4804 8 17.7348 8 18C8 18.2652 8.10536 18.5196 8.2929 18.7071C8.48043 18.8946 8.73479 19 9 19H15C15.2652 19 15.5196 18.8946 15.7071 18.7071C15.8946 18.5196 16 18.2652 16 18C16 17.7348 15.8946 17.4804 15.7071 17.2929C15.5196 17.1054 15.2652 17 15 17ZM12 1C9.82441 1 7.69767 1.64514 5.88873 2.85383C4.07979 4.06253 2.66989 5.78049 1.83733 7.79048C1.00477 9.80047 0.786929 12.0122 1.21137 14.146C1.6358 16.2798 2.68345 18.2398 4.22183 19.7782C5.76021 21.3165 7.72022 22.3642 9.85401 22.7886C11.9878 23.2131 14.1995 22.9952 16.2095 22.1627C18.2195 21.3301 19.9375 19.9202 21.1462 18.1113C22.3549 16.3023 23 14.1756 23 12C23 9.08262 21.8411 6.28472 19.7782 4.22183C17.7153 2.15893 14.9174 1 12 1V1ZM12 21C10.22 21 8.47991 20.4722 6.99987 19.4832C5.51983 18.4943 4.36628 17.0887 3.68509 15.4441C3.0039 13.7996 2.82567 11.99 3.17294 10.2442C3.5202 8.49836 4.37737 6.89471 5.63604 5.63604C6.89471 4.37737 8.49836 3.5202 10.2442 3.17293C11.99 2.82567 13.7996 3.0039 15.4442 3.68508C17.0887 4.36627 18.4943 5.51982 19.4832 6.99987C20.4722 8.47991 21 10.22 21 12C21 14.3869 20.0518 16.6761 18.364 18.364C16.6761 20.0518 14.3869 21 12 21V21Z" fill="#333333"/>
</svg>
