<?xml version="1.0" encoding="UTF-8"?>
<svg width="24px" height="24px" viewBox="0 0 24 24" version="1.1" xmlns="http://www.w3.org/2000/svg" xmlns:xlink="http://www.w3.org/1999/xlink">
    <title>sui-final/icons/24px/actions/action-stop-sell-number</title>
    <g id="sui-final/icons/24px/actions/action-stop-sell-number" stroke="none" stroke-width="1" fill="none" fill-rule="evenodd">
        <path d="M12,21 C7.037,21 3,16.963 3,12 C3,7.037 7.037,3 12,3 C16.963,3 21,7.037 21,12 C21,16.963 16.963,21 12,21 M12,1 C5.935,1 1,5.935 1,12 C1,18.065 5.935,23 12,23 C18.065,23 23,18.065 23,12 C23,5.935 18.065,1 12,1 M18,11 L6,11 C5.447,11 5,11.447 5,12 C5,12.553 5.447,13 6,13 L18,13 C18.553,13 19,12.553 19,12 C19,11.447 18.553,11 18,11" id="Fill-1" fill="#333333"></path>
    </g>
</svg>