<?xml version="1.0" encoding="UTF-8"?>
<svg width="24px" height="24px" viewBox="0 0 24 24" version="1.1" xmlns="http://www.w3.org/2000/svg" xmlns:xlink="http://www.w3.org/1999/xlink">
    <title>sui-final/icons/24px/actions/action-table-default</title>
    <g id="sui-final/icons/24px/actions/action-table-default" stroke="none" stroke-width="1" fill="none" fill-rule="evenodd">
        <path d="M20,0 C21.1045695,0 22,0.8954305 22,2 L22,22 C22,23.1045695 21.1045695,24 20,24 L4,24 C2.8954305,24 2,23.1045695 2,22 L2,2 C2,0.8954305 2.8954305,0 4,0 L20,0 Z M11,16.833 L4,16.833 L4,22 L11,22 L11,16.833 Z M20,16.833 L13,16.833 L13,22 L20,22 L20,16.833 Z M11,9.166 L4,9.166 L4,14.833 L11,14.833 L11,9.166 Z M20,9.166 L13,9.166 L13,14.833 L20,14.833 L20,9.166 Z M11,2 L4,2 L4,7.166 L11,7.166 L11,2 Z M20,2 L13,2 L13,7.166 L20,7.166 L20,2 Z" id="table-default" fill="#333333" fill-rule="nonzero"></path>
    </g>
</svg>