<?xml version="1.0" encoding="UTF-8"?>
<svg width="24px" height="24px" viewBox="0 0 24 24" version="1.1" xmlns="http://www.w3.org/2000/svg" xmlns:xlink="http://www.w3.org/1999/xlink">
    <title>sui-final/icons/24px/actions/action-show</title>
    <g id="sui-final/icons/24px/actions/action-show" stroke="none" stroke-width="1" fill="none" fill-rule="evenodd">
        <path d="M12.0001,9.6804 C10.1891,9.6804 8.7281,11.1424 8.7281,12.9524 C8.7281,14.7634 10.1891,16.2254 12.0001,16.2254 C13.8111,16.2254 15.2721,14.7634 15.2721,12.9524 C15.2721,11.1424 13.8111,9.6804 12.0001,9.6804 M12.0001,18.4074 C8.9891,18.4074 6.5451,15.9634 6.5451,12.9524 C6.5451,9.9424 8.9891,7.4984 12.0001,7.4984 C15.0111,7.4984 17.4541,9.9424 17.4541,12.9524 C17.4541,15.9634 15.0111,18.4074 12.0001,18.4074 M12.0001,4.9524 C6.5451,4.9524 1.8871,8.1634 0.0001,12.9524 C1.8871,17.7424 6.5451,20.9524 12.0001,20.9524 C17.4541,20.9524 22.1121,17.7424 24.0001,12.9524 C22.1121,8.1634 17.4541,4.9524 12.0001,4.9524" id="Fill-1" fill="#333333"></path>
    </g>
</svg>