<?xml version="1.0" encoding="UTF-8"?>
<svg width="24px" height="24px" viewBox="0 0 24 24" version="1.1" xmlns="http://www.w3.org/2000/svg" xmlns:xlink="http://www.w3.org/1999/xlink">
    <!-- Generator: Sketch 62 (91390) - https://sketch.com -->
    <title>sui-final/icons/24px/actions/action-switch-hori</title>
    <desc>Created with Sketch.</desc>
    <g id="sui-final/icons/24px/actions/action-switch-hori" stroke="none" stroke-width="1" fill="none" fill-rule="evenodd">
        <path d="M4.06050338,12.5675688 C4.52970377,12.0995684 5.28930441,12.0995684 5.7573048,12.5675688 C6.22650519,13.0367692 6.22650519,13.7963698 5.7573048,14.2643702 L5.7573048,14.2643702 L4.09530341,15.9275716 L14.2281119,15.9275716 C14.8917124,15.9275716 15.4281129,16.4639721 15.4281129,17.1275726 C15.4281129,17.7911732 14.8917124,18.3275736 14.2281119,18.3275736 L14.2281119,18.3275736 L4.09530341,18.3275736 L5.7573048,19.990775 C6.22650519,20.4587754 6.22650519,21.218376 5.7573048,21.6875764 C5.5233046,21.9215766 5.21610435,22.0391767 4.90890409,22.0391767 C4.60290384,22.0391767 4.29570358,21.9215766 4.06050338,21.6875764 L4.06050338,21.6875764 L0.352500294,17.9771733 C0.240900201,17.8667732 0.152100127,17.7335731 0.0909000758,17.585973 C-0.0303000253,17.2931727 -0.0303000253,16.9619725 0.0909000758,16.6691722 C0.152100127,16.5215721 0.240900201,16.388372 0.352500294,16.2779719 L0.352500294,16.2779719 Z M18.2413952,2.35100029 C18.7105956,1.8829999 19.4701962,1.8829999 19.9381966,2.35100029 L19.9381966,2.35100029 L23.6473997,6.06140338 C23.7589998,6.17180348 23.8477999,6.30500359 23.9089999,6.45260371 C24.0302,6.74540395 24.0302,7.07660423 23.9089999,7.36940447 C23.8477999,7.5170046 23.7589998,7.65020471 23.6473997,7.7606048 L23.6473997,7.7606048 L19.9381966,11.4710079 C19.7041964,11.7050081 19.3969962,11.8226082 19.0897959,11.8226082 C18.7837957,11.8226082 18.4765954,11.7050081 18.2413952,11.4710079 C17.7733948,11.0018075 17.7733948,10.2434069 18.2413952,9.77420648 L18.2413952,9.77420648 L19.9045966,8.11100509 L9.77178814,8.11100509 C9.10818759,8.11100509 8.57178714,7.57460465 8.57178714,6.91100409 C8.57178714,6.24740354 9.10818759,5.71100309 9.77178814,5.71100309 L9.77178814,5.71100309 L19.9045966,5.71100309 L18.2413952,4.04780171 C17.7733948,3.57980132 17.7733948,2.82020068 18.2413952,2.35100029 Z" id="Fill-5" fill="#717171"></path>
    </g>
</svg>