<?xml version="1.0" encoding="UTF-8"?>
<svg width="24px" height="24px" viewBox="0 0 24 24" version="1.1" xmlns="http://www.w3.org/2000/svg" xmlns:xlink="http://www.w3.org/1999/xlink">
    <title>sui-final/icons/24px/actions/action-stop-sell-amount copy</title>
    <g id="sui-final/icons/24px/actions/action-stop-sell-amount-copy" stroke="none" stroke-width="1" fill="none" fill-rule="evenodd">
        <path d="M13.1533,13.5293 C13.0473,13.6823 12.9853,13.8633 12.9763,14.0503 C12.9633,14.3393 12.8573,14.6083 12.6723,14.8293 C12.4473,15.0963 12.1323,15.2603 11.7843,15.2913 C11.4303,15.3233 11.0963,15.2143 10.8303,14.9903 C10.5623,14.7653 10.3983,14.4503 10.3683,14.1023 C10.3383,13.7543 10.4443,13.4153 10.6693,13.1483 C10.8543,12.9263 11.1013,12.7763 11.3833,12.7133 C11.5143,12.6833 11.6373,12.6283 11.7473,12.5503 L15.8893,9.5783 L13.1533,13.5293 Z M20.7023,4.6863 C20.3543,4.3463 19.8153,4.3023 19.4183,4.5873 L10.7313,10.8173 C10.1073,11.0013 9.5593,11.3593 9.1373,11.8613 C8.5693,12.5383 8.2993,13.3953 8.3763,14.2753 C8.4523,15.1563 8.8673,15.9533 9.5433,16.5213 C10.1443,17.0263 10.8883,17.2963 11.6643,17.2963 C11.7613,17.2963 11.8593,17.2923 11.9573,17.2833 C12.8383,17.2073 13.6343,16.7923 14.2033,16.1163 C14.6063,15.6363 14.8593,15.0673 14.9453,14.4543 L20.8233,5.9683 C21.0993,5.5693 21.0493,5.0273 20.7023,4.6863 L20.7023,4.6863 Z M21.7053,8.8173 C21.4443,8.3303 20.8403,8.1473 20.3513,8.4073 C19.8643,8.6683 19.6803,9.2743 19.9413,9.7603 C20.6333,11.0543 21.0003,12.5203 21.0003,14.0003 C21.0003,15.8623 20.4163,17.6573 19.3523,19.1643 L18.5453,18.3563 C18.1543,17.9663 17.5213,17.9663 17.1313,18.3563 C16.7403,18.7473 16.7403,19.3803 17.1313,19.7703 L18.5163,21.1563 C18.5703,21.2623 18.6373,21.3633 18.7303,21.4473 C18.9223,21.6223 19.1633,21.7083 19.4033,21.7083 C19.6743,21.7083 19.9453,21.5973 20.1423,21.3813 C21.9853,19.3553 23.0003,16.7343 23.0003,14.0003 C23.0003,12.1923 22.5513,10.4003 21.7053,8.8173 L21.7053,8.8173 Z M5.4103,18.3563 L4.6243,19.1423 C3.5723,17.6403 3.0003,15.8423 3.0003,14.0003 C3.0003,13.2193 3.1103,12.4663 3.2983,11.7433 L4.4713,12.0223 C4.5493,12.0413 4.6273,12.0503 4.7043,12.0503 C5.1563,12.0503 5.5663,11.7403 5.6753,11.2813 C5.8033,10.7443 5.4713,10.2053 4.9343,10.0773 L4.0173,9.8593 C5.3733,7.2573 7.9583,5.3963 11.0013,5.0583 L11.0013,6.0003 C11.0013,6.5523 11.4483,7.0003 12.0013,7.0003 C12.5533,7.0003 13.0013,6.5523 13.0013,6.0003 L13.0013,5.0613 C13.7483,5.1433 14.4793,5.3123 15.1813,5.5793 C15.6993,5.7733 16.2763,5.5143 16.4713,4.9983 C16.6673,4.4813 16.4073,3.9043 15.8903,3.7083 C14.6493,3.2383 13.3403,3.0003 12.0013,3.0003 L12.0003,3.0003 C5.9343,3.0003 1.0003,7.9343 1.0003,14.0003 C1.0003,16.5923 1.9243,19.1083 3.6003,21.0883 C3.7983,21.3213 4.0803,21.4413 4.3643,21.4413 C4.3913,21.4413 4.4183,21.4293 4.4453,21.4263 C4.5303,21.4503 4.6153,21.4773 4.7033,21.4773 C4.9593,21.4773 5.2153,21.3803 5.4103,21.1843 L6.8243,19.7703 C7.2153,19.3803 7.2153,18.7473 6.8243,18.3563 C6.4333,17.9663 5.8003,17.9663 5.4103,18.3563 L5.4103,18.3563 Z" id="Fill-1" fill="#333333"></path>
    </g>
</svg>