<svg width="24" height="24" viewBox="0 0 24 24" fill="none" xmlns="http://www.w3.org/2000/svg">
<path d="M5.54998 4.20999C5.36262 4.02374 5.10917 3.9192 4.84498 3.9192C4.5808 3.9192 4.32735 4.02374 4.13998 4.20999C4.04626 4.30296 3.97186 4.41356 3.92109 4.53542C3.87032 4.65728 3.84419 4.78798 3.84419 4.91999C3.84419 5.05201 3.87032 5.18271 3.92109 5.30457C3.97186 5.42643 4.04626 5.53703 4.13998 5.62999L8.76998 10.25C8.29648 10.1673 7.8102 10.1966 7.35005 10.3355C6.88989 10.4744 6.46864 10.7191 6.11998 11.05L1.87998 15.3C1.31818 15.8625 1.00262 16.625 1.00262 17.42C1.00262 18.215 1.31818 18.9775 1.87998 19.54L4.70998 22.37C5.27205 22.9328 6.0346 23.2493 6.82998 23.25C7.62537 23.2493 8.38792 22.9328 8.94998 22.37L13.2 18.11C13.4798 17.8305 13.7017 17.4984 13.8527 17.1329C14.0037 16.7673 14.081 16.3755 14.08 15.98C14.0947 15.817 14.0947 15.653 14.08 15.49L18.74 20.14C18.9262 20.3247 19.1776 20.4289 19.44 20.43C19.5716 20.4308 19.7021 20.4055 19.8239 20.3558C19.9457 20.306 20.0565 20.2327 20.15 20.14C20.3362 19.9526 20.4408 19.6992 20.4408 19.435C20.4408 19.1708 20.3362 18.9174 20.15 18.73L5.54998 4.20999ZM11.78 15.3C11.9662 15.4874 12.0708 15.7408 12.0708 16.005C12.0708 16.2692 11.9662 16.5226 11.78 16.71L7.52998 20.95C7.34262 21.1362 7.08917 21.2408 6.82498 21.2408C6.5608 21.2408 6.30735 21.1362 6.11998 20.95L3.28998 18.11C3.19626 18.017 3.12186 17.9064 3.07109 17.7846C3.02032 17.6627 2.99419 17.532 2.99419 17.4C2.99419 17.268 3.02032 17.1373 3.07109 17.0154C3.12186 16.8936 3.19626 16.783 3.28998 16.69L7.53998 12.45C7.72625 12.2652 7.97764 12.1611 8.23998 12.16C8.37159 12.1592 8.50205 12.1845 8.62389 12.2342C8.74573 12.284 8.85654 12.3573 8.94998 12.45L9.94998 11.45L10.65 12.16L8.59998 14.23C8.50626 14.323 8.43186 14.4336 8.38109 14.5554C8.33032 14.6773 8.30419 14.808 8.30419 14.94C8.30419 15.072 8.33032 15.2027 8.38109 15.3246C8.43186 15.4464 8.50626 15.557 8.59998 15.65C8.69342 15.7427 8.80424 15.816 8.92608 15.8658C9.04792 15.9155 9.17838 15.9408 9.30998 15.94C9.57232 15.9389 9.82372 15.8347 10.01 15.65L12.09 13.57L12.79 14.28L11.79 15.28L11.78 15.3ZM22.39 4.67999L19.56 1.84999C18.9877 1.30699 18.2289 1.00427 17.44 1.00427C16.6511 1.00427 15.8923 1.30699 15.32 1.84999L11.08 6.10999C10.9175 6.27505 10.7764 6.45982 10.66 6.65999L12.2 8.18999C12.2036 7.93599 12.3037 7.69287 12.48 7.50999L16.73 3.26999C16.9173 3.08374 17.1708 2.9792 17.435 2.9792C17.6992 2.9792 17.9526 3.08374 18.14 3.26999L20.98 6.10999C21.0737 6.20296 21.1481 6.31356 21.1989 6.43542C21.2496 6.55728 21.2758 6.68798 21.2758 6.81999C21.2758 6.95201 21.2496 7.08271 21.1989 7.20457C21.1481 7.32643 21.0737 7.43703 20.98 7.52999L16.74 11.77C16.5546 11.9487 16.3075 12.049 16.05 12.05L17.61 13.61C17.8048 13.4901 17.9859 13.3493 18.15 13.19L22.39 8.93999C22.6712 8.6611 22.8944 8.3293 23.0467 7.96372C23.199 7.59815 23.2774 7.20603 23.2774 6.80999C23.2774 6.41396 23.199 6.02184 23.0467 5.65626C22.8944 5.29069 22.6712 4.95888 22.39 4.67999ZM15.67 8.56999C15.4826 8.38374 15.2292 8.2792 14.965 8.2792C14.7008 8.2792 14.4473 8.38374 14.26 8.56999L13.42 9.40999L14.84 10.82L15.67 9.98999C15.7637 9.89703 15.8381 9.78643 15.8889 9.66457C15.9396 9.54271 15.9658 9.41201 15.9658 9.27999C15.9658 9.14798 15.9396 9.01728 15.8889 8.89542C15.8381 8.77356 15.7637 8.66296 15.67 8.56999Z" fill="#333333"/>
</svg>
