<?xml version="1.0" encoding="UTF-8"?>
<svg width="24px" height="24px" viewBox="0 0 24 24" version="1.1" xmlns="http://www.w3.org/2000/svg" xmlns:xlink="http://www.w3.org/1999/xlink">
    <!-- Generator: Sketch 62 (91390) - https://sketch.com -->
    <title>sui-final/icons/24px/actions/action-settings</title>
    <desc>Created with Sketch.</desc>
    <g id="sui-final/icons/24px/actions/action-settings" stroke="none" stroke-width="1" fill="none" fill-rule="evenodd">
        <path d="M10.2434584,4.33887442 C10.2434584,4.79521991 9.94589384,5.20334296 9.49759691,5.36185674 C8.65119286,5.66113763 7.86963268,6.10183233 7.18910522,6.66051699 C6.82299801,6.96107574 6.2985027,7.00954817 5.87879381,6.7816124 L4.35066688,5.95171627 C4.05963209,5.79366092 3.68429162,5.88810764 3.5221148,6.1523329 L2.36255803,8.04153136 C2.20481974,8.29852517 2.29808547,8.62515731 2.58155213,8.77910256 L4.15768095,9.63506759 C4.57787267,9.86326557 4.80218923,10.3191588 4.71786024,10.7735566 C4.64327492,11.1754518 4.60545529,11.5852158 4.60545529,12 C4.60545529,12.4147842 4.64327492,12.8245482 4.71786024,13.2264434 C4.80218923,13.6808412 4.57787267,14.1367344 4.15768095,14.3649324 L2.58155213,15.2208974 C2.29808547,15.3748427 2.20481974,15.7014748 2.36255803,15.9584686 L3.5221148,17.8476671 C3.68429162,18.1118924 4.05963209,18.2063391 4.35066688,18.0482837 L5.87879381,17.2183876 C6.2985027,16.9904518 6.82299801,17.0389243 7.18910522,17.339483 C7.86963268,17.8981677 8.65119286,18.3388624 9.49759691,18.6381433 C9.94589384,18.796657 10.2434584,19.2047801 10.2434584,19.6611256 L10.2434584,21.2691812 C10.2434584,21.5704019 10.5065596,21.8181818 10.8404432,21.8181818 L13.1595568,21.8181818 C13.4907528,21.8181818 13.7565416,21.5679633 13.7565416,21.2691812 L13.7565416,19.7680289 C13.7565416,19.2960358 14.0745269,18.8775748 14.5445478,18.7310317 C15.4506781,18.4485183 16.2899014,18.0061272 17.0198433,17.4300596 C17.3857308,17.1413025 17.9005323,17.0985439 18.3131675,17.3226381 L19.6493331,18.0482837 C19.9403679,18.2063391 20.3157084,18.1118924 20.4778852,17.8476671 L21.637442,15.9584686 C21.7951803,15.7014748 21.7019145,15.3748427 21.4184479,15.2208974 L20.1328106,14.5226928 C19.7053317,14.2905372 19.4813933,13.8233493 19.5768352,13.362798 C19.6691284,12.9174405 19.7160184,12.4618505 19.7160184,12 C19.7160184,11.5381495 19.6691284,11.0825595 19.5768352,10.637202 C19.4813933,10.1766507 19.7053317,9.70946276 20.1328106,9.47730724 L21.4184479,8.77910256 C21.7019145,8.62515731 21.7951803,8.29852517 21.637442,8.04153136 L20.4778852,6.1523329 C20.3157084,5.88810764 19.9403679,5.79366092 19.6493331,5.95171627 L18.3131675,6.67736195 C17.9005323,6.90145611 17.3857308,6.85869747 17.0198433,6.5699404 C16.2899014,5.99387284 15.4506781,5.55148166 14.5445478,5.2689683 C14.0745269,5.12242518 13.7565416,4.70396417 13.7565416,4.23197105 L13.7565416,2.73081884 C13.7565416,2.42959814 13.4934404,2.18181818 13.1595568,2.18181818 L10.8404432,2.18181818 C10.5092472,2.18181818 10.2434584,2.43203668 10.2434584,2.73081884 L10.2434584,4.33887442 Z M7.95780174,2.73081884 C7.95780174,1.2202245 9.25395724,0 10.8404432,0 L13.1595568,0 C14.7489168,0 16.0421983,1.21796934 16.0421983,2.73081884 L16.0421983,3.47671973 C16.6748503,3.73281335 17.2766474,4.0509096 17.8381173,4.42514414 L18.5190779,4.05532763 C19.8938883,3.30869474 21.6533181,3.75141911 22.4499823,5.04937773 L23.609539,6.93857619 C24.4134226,8.2482969 23.935403,9.92240136 22.5487031,10.6754912 L21.9453778,11.0031455 C21.9828061,11.332662 22.001675,11.6652856 22.001675,12 C22.001675,12.3347144 21.9828061,12.667338 21.9453778,12.9968545 L22.5487031,13.3245088 C23.935403,14.0775986 24.4134226,15.7517031 23.609539,17.0614238 L22.4499823,18.9506223 C21.6533181,20.2485809 19.8938883,20.6913053 18.5190779,19.9446724 L17.8381173,19.5748559 C17.2766474,19.9490904 16.6748503,20.2671866 16.0421983,20.5232803 L16.0421983,21.2691812 C16.0421983,22.7797755 14.7460428,24 13.1595568,24 L10.8404432,24 C9.25108323,24 7.95780174,22.7820307 7.95780174,21.2691812 L7.95780174,20.3866381 C7.38885146,20.1330945 6.84734966,19.8286003 6.34052288,19.4778398 L5.48092208,19.9446724 C4.10611168,20.6913053 2.34668191,20.2485809 1.55001774,18.9506223 L0.390460961,17.0614238 C-0.413422571,15.7517031 0.064597044,14.0775986 1.45129693,13.3245088 L2.35890741,12.8316031 C2.33289249,12.5562238 2.31979867,12.278828 2.31979867,12 C2.31979867,11.721172 2.33289249,11.4437762 2.35890741,11.1683969 L1.45129693,10.6754912 C0.064597044,9.92240136 -0.413422571,8.2482969 0.390460961,6.93857619 L1.55001774,5.04937773 C2.34668191,3.75141911 4.10611168,3.30869474 5.48092208,4.05532763 L6.34052288,4.52216017 C6.84734966,4.17139971 7.38885146,3.86690555 7.95780174,3.61336191 L7.95780174,2.73081884 Z M12,15.8181818 C9.79091673,15.8181818 8.0001009,14.1087236 8.0001009,12 C8.0001009,9.89127641 9.79091673,8.18181818 12,8.18181818 C14.2090833,8.18181818 15.9998991,9.89127641 15.9998991,12 C15.9998991,14.1087236 14.2090833,15.8181818 12,15.8181818 Z M12,13.6363636 C12.94675,13.6363636 13.7142425,12.9037387 13.7142425,12 C13.7142425,11.0962613 12.94675,10.3636364 12,10.3636364 C11.05325,10.3636364 10.2857575,11.0962613 10.2857575,12 C10.2857575,12.9037387 11.05325,13.6363636 12,13.6363636 Z" id="Combined-Shape" fill="#717171"></path>
    </g>
</svg>