<?xml version="1.0" encoding="UTF-8"?>
<svg width="24px" height="24px" viewBox="0 0 24 24" version="1.1" xmlns="http://www.w3.org/2000/svg" xmlns:xlink="http://www.w3.org/1999/xlink">
    <!-- Generator: Sketch 62 (91390) - https://sketch.com -->
    <title>sui-final/icons/24px/actions/action-context-menu</title>
    <desc>Created with Sketch.</desc>
    <g id="sui-final/icons/24px/actions/action-context-menu" stroke="none" stroke-width="1" fill="none" fill-rule="evenodd">
        <path d="M3,10 C4.1045695,10 5,10.8954305 5,12 C5,13.1045695 4.1045695,14 3,14 C1.8954305,14 1,13.1045695 1,12 C1,10.8954305 1.8954305,10 3,10 Z M12,10 C13.1045695,10 14,10.8954305 14,12 C14,13.1045695 13.1045695,14 12,14 C10.8954305,14 10,13.1045695 10,12 C10,10.8954305 10.8954305,10 12,10 Z M21,10 C22.1045695,10 23,10.8954305 23,12 C23,13.1045695 22.1045695,14 21,14 C19.8954305,14 19,13.1045695 19,12 C19,10.8954305 19.8954305,10 21,10 Z" id="Combined-Shape" fill="#717171"></path>
    </g>
</svg>