<svg width="24" height="24" viewBox="0 0 24 24" fill="none" xmlns="http://www.w3.org/2000/svg">
<path d="M19.21 5.74999H19V3.27999C18.9844 2.68483 18.7376 2.11914 18.312 1.70284C17.8864 1.28655 17.3154 1.05238 16.72 1.04999H7.28C6.68464 1.05238 6.11362 1.28655 5.68799 1.70284C5.26236 2.11914 5.01559 2.68483 5 3.27999V5.74999H4.79C3.78483 5.74999 2.82083 6.14929 2.11007 6.86005C1.3993 7.57082 1 8.53482 1 9.53999V14.99C1.00263 15.7212 1.29427 16.4217 1.8113 16.9387C2.32833 17.4557 3.02881 17.7474 3.76 17.75H5V20.65C4.99326 20.9653 5.05007 21.2788 5.16704 21.5717C5.284 21.8646 5.45874 22.131 5.68082 22.3549C5.90291 22.5789 6.16781 22.7558 6.45973 22.8752C6.75165 22.9947 7.06463 23.0541 7.38 23.05H16.68C16.9903 23.0461 17.2968 22.9808 17.5818 22.8578C17.8667 22.7348 18.1245 22.5566 18.3402 22.3335C18.5559 22.1103 18.7252 21.8467 18.8385 21.5577C18.9517 21.2688 19.0066 20.9603 19 20.65V17.75H20.21C20.5746 17.7526 20.9361 17.6833 21.2739 17.5459C21.6116 17.4085 21.9189 17.2057 22.1781 16.9493C22.4373 16.6929 22.6433 16.3878 22.7844 16.0516C22.9254 15.7154 22.9987 15.3546 23 14.99V9.53999C23 8.53482 22.6007 7.57082 21.8899 6.86005C21.1792 6.14929 20.2152 5.74999 19.21 5.74999ZM7 3.27999C7.01362 3.21555 7.04877 3.15768 7.09966 3.11587C7.15055 3.07407 7.21415 3.05083 7.28 3.04999H16.72C16.7935 3.05248 16.8632 3.08278 16.9152 3.13476C16.9672 3.18674 16.9975 3.25652 17 3.32999V5.74999H7V3.27999ZM17 20.65C17 20.7428 16.9631 20.8318 16.8975 20.8975C16.8318 20.9631 16.7428 21 16.65 21H7.38C7.33158 21.0042 7.28282 20.9982 7.23683 20.9825C7.19084 20.9668 7.14863 20.9416 7.11288 20.9087C7.07713 20.8758 7.04863 20.8358 7.0292 20.7912C7.00977 20.7467 6.99982 20.6986 7 20.65V14.78C7 14.6872 7.03688 14.5981 7.10251 14.5325C7.16815 14.4669 7.25717 14.43 7.35 14.43H16.65C16.7428 14.43 16.8318 14.4669 16.8975 14.5325C16.9631 14.5981 17 14.6872 17 14.78V20.65ZM21 14.99C21 15.0898 20.9803 15.1886 20.9421 15.2808C20.904 15.373 20.848 15.4568 20.7774 15.5274C20.7068 15.598 20.623 15.6539 20.5308 15.6921C20.4386 15.7303 20.3398 15.75 20.24 15.75H19V14.75C19 14.4414 18.9392 14.1358 18.8211 13.8507C18.703 13.5656 18.5299 13.3065 18.3117 13.0883C18.0935 12.8701 17.8344 12.697 17.5493 12.5789C17.2642 12.4608 16.9586 12.4 16.65 12.4H7.38C7.06671 12.3973 6.75603 12.4571 6.46607 12.5757C6.17611 12.6944 5.91268 12.8696 5.69114 13.0911C5.46961 13.3127 5.2944 13.5761 5.17574 13.8661C5.05707 14.156 4.99733 14.4667 5 14.78V15.78H3.76C3.65762 15.7801 3.55628 15.7595 3.46206 15.7194C3.36784 15.6793 3.28269 15.6207 3.21171 15.5469C3.14073 15.4731 3.08539 15.3857 3.04901 15.29C3.01263 15.1944 2.99596 15.0923 3 14.99V9.53999C3 9.06525 3.18859 8.60996 3.52428 8.27427C3.85997 7.93858 4.31526 7.74999 4.79 7.74999H19.21C19.6847 7.74999 20.14 7.93858 20.4757 8.27427C20.8114 8.60996 21 9.06525 21 9.53999V14.99Z" fill="black"/>
</svg>
