<?xml version="1.0" encoding="UTF-8"?>
<svg width="24px" height="24px" viewBox="0 0 24 24" version="1.1" xmlns="http://www.w3.org/2000/svg" xmlns:xlink="http://www.w3.org/1999/xlink">
    <!-- Generator: Sketch 62 (91390) - https://sketch.com -->
    <title>sui-final/icons/24px/actions/action-edit</title>
    <desc>Created with Sketch.</desc>
    <g id="sui-final/icons/24px/actions/action-edit" stroke="none" stroke-width="1" fill="none" fill-rule="evenodd">
        <path d="M18.2761424,0.390524292 L23.6094757,5.72385763 C24.1301748,6.24455668 24.1301748,7.08877665 23.6094757,7.60947571 L7.60947571,23.6094757 C7.3594272,23.8595242 7.02028865,24 6.66666667,24 L1.33333333,24 C0.596953667,24 1.77635684e-15,23.4030463 1.77635684e-15,22.6666667 L1.77635684e-15,17.3333333 C1.77635684e-15,16.9797113 0.140475787,16.6405728 0.390524292,16.3905243 L16.3905243,0.390524292 C16.9112233,-0.130174764 17.7554433,-0.130174764 18.2761424,0.390524292 Z M13.537,7.014 L2.66666667,17.8856181 L2.66666667,21.3333333 L6.11438192,21.3333333 L16.985,10.462 L13.537,7.014 Z M17.3333333,3.21895142 L15.414,5.137 L18.862,8.585 L20.7810486,6.66666667 L17.3333333,3.21895142 Z" id="icon-edit" fill="#717171"></path>
    </g>
</svg>