<svg width="24" height="24" viewBox="0 0 24 24" fill="none" xmlns="http://www.w3.org/2000/svg">
<g id="unlock">
<path id="Vector" d="M22.71 21.4L3.71001 2.43C3.52304 2.24169 3.26891 2.13538 3.00355 2.13444C2.73818 2.1335 2.48332 2.23802 2.29501 2.425C2.10671 2.61198 2.00039 2.8661 1.99946 3.13146C1.99852 3.39683 2.10304 3.65169 2.29001 3.84L6.82001 8.34V8.97C6.02436 8.97 5.2613 9.28607 4.69869 9.84868C4.13608 10.4113 3.82001 11.1743 3.82001 11.97V19.97C3.82001 20.7656 4.13608 21.5287 4.69869 22.0913C5.2613 22.6539 6.02436 22.97 6.82001 22.97H16.82C17.414 22.969 17.9943 22.7917 18.4874 22.4606C18.9806 22.1295 19.3643 21.6594 19.59 21.11L21.26 22.78C21.4474 22.9662 21.7008 23.0708 21.965 23.0708C22.2292 23.0708 22.4826 22.9662 22.67 22.78C22.8528 22.5992 22.9589 22.355 22.9664 22.098C22.9738 21.841 22.882 21.5911 22.71 21.4ZM17.86 20C17.86 20.2652 17.7547 20.5196 17.5671 20.7071C17.3796 20.8946 17.1252 21 16.86 21H6.86001C6.5948 21 6.34044 20.8946 6.15291 20.7071C5.96537 20.5196 5.86001 20.2652 5.86001 20V12C5.86001 11.7348 5.96537 11.4804 6.15291 11.2929C6.34044 11.1054 6.5948 11 6.86001 11H9.45001L17.82 19.34L17.86 20ZM14.93 11H16.86C17.1252 11 17.3796 11.1054 17.5671 11.2929C17.7547 11.4804 17.86 11.7348 17.86 12V13.93L19.86 15.93V12C19.86 11.2043 19.5439 10.4413 18.9813 9.87868C18.4187 9.31607 17.6557 9 16.86 9H12.89L14.93 11ZM11.86 3C12.5955 2.99439 13.3075 3.25917 13.8605 3.74404C14.4136 4.22892 14.7693 4.90008 14.86 5.63C14.8925 5.89225 15.0275 6.13097 15.2355 6.29399C15.4435 6.45701 15.7076 6.53108 15.97 6.5C16.2323 6.46748 16.471 6.33247 16.634 6.12448C16.797 5.91649 16.8711 5.65243 16.84 5.39C16.7203 4.33167 16.2658 3.3392 15.5428 2.5572C14.8197 1.77521 13.8657 1.24455 12.82 1.04254C11.7742 0.840535 10.6913 0.977739 9.729 1.43416C8.76667 1.89059 7.97524 2.64238 7.47001 3.58L8.98001 5.08C9.17387 4.47829 9.55285 3.95319 10.0629 3.57966C10.5729 3.20613 11.1879 3.00326 11.82 3H11.86Z" fill="#333333"/>
</g>
</svg>
