<?xml version="1.0" encoding="UTF-8"?>
<svg width="24px" height="24px" viewBox="0 0 24 24" version="1.1" xmlns="http://www.w3.org/2000/svg" xmlns:xlink="http://www.w3.org/1999/xlink">
    <!-- Generator: Sketch 62 (91390) - https://sketch.com -->
    <title>sui-final/icons/24px/actions/action-search</title>
    <desc>Created with Sketch.</desc>
    <g id="sui-final/icons/24px/actions/action-search" stroke="none" stroke-width="1" fill="none" fill-rule="evenodd">
        <path d="M9.81818182,0 C15.2406139,0 19.6363636,4.39574973 19.6363636,9.81818182 C19.6363636,12.1361434 18.8331017,14.2664931 17.4897537,15.946055 L23.6804801,22.1377017 C24.1065066,22.5637282 24.1065066,23.2544536 23.6804801,23.6804801 C23.2544536,24.1065066 22.5637282,24.1065066 22.1377017,23.6804801 L15.946055,17.4897537 C14.2664931,18.8331017 12.1361434,19.6363636 9.81818182,19.6363636 C4.39574973,19.6363636 0,15.2406139 0,9.81818182 C0,4.39574973 4.39574973,0 9.81818182,0 Z M9.81818182,2.18181818 C5.60073464,2.18181818 2.18181818,5.60073464 2.18181818,9.81818182 C2.18181818,14.035629 5.60073464,17.4545455 9.81818182,17.4545455 C14.035629,17.4545455 17.4545455,14.035629 17.4545455,9.81818182 C17.4545455,5.60073464 14.035629,2.18181818 9.81818182,2.18181818 Z" id="Combined-Shape" fill="#717171"></path>
    </g>
</svg>