<?xml version="1.0" encoding="UTF-8"?>
<svg width="24px" height="24px" viewBox="0 0 24 24" version="1.1" xmlns="http://www.w3.org/2000/svg" xmlns:xlink="http://www.w3.org/1999/xlink">
    <!-- Generator: Sketch 62 (91390) - https://sketch.com -->
    <title>sui-final/icons/24px/actions/action-calendar</title>
    <desc>Created with Sketch.</desc>
    <g id="sui-final/icons/24px/actions/action-calendar" stroke="none" stroke-width="1" fill="none" fill-rule="evenodd">
        <path d="M16.9090909,0 C17.5115834,0 18,0.488416637 18,1.09090909 L18,2.181 L21.2691812,2.18181818 C22.7775682,2.18181818 24,3.40436279 24,4.91313812 L24,21.2686801 C24,22.7775684 22.7789938,24 21.2691812,24 L2.73081884,24 C1.22243182,24 0,22.7774554 0,21.2686801 L0,4.91313812 C0,3.40424981 1.22100617,2.18181818 2.73081884,2.18181818 L6,2.181 L6,1.09090909 C6,0.488416637 6.48841664,0 7.09090909,0 C7.69340155,0 8.18181818,0.488416637 8.18181818,1.09090909 L8.181,2.181 L15.818,2.181 L15.8181818,1.09090909 C15.8181818,0.488416637 16.3065985,0 16.9090909,0 Z M6,4.363 L2.73081884,4.36363636 C2.42656131,4.36363636 2.18181818,4.60866522 2.18181818,4.91313812 L2.18181818,21.2686801 C2.18181818,21.5725155 2.4274618,21.8181818 2.73081884,21.8181818 L21.2691812,21.8181818 C21.5734387,21.8181818 21.8181818,21.573153 21.8181818,21.2686801 L21.8181818,4.91313812 C21.8181818,4.60930264 21.5725382,4.36363636 21.2691812,4.36363636 L18,4.363 L18,5.45454545 C18,6.05703791 17.5115834,6.54545455 16.9090909,6.54545455 C16.3065985,6.54545455 15.8181818,6.05703791 15.8181818,5.45454545 L15.818,4.363 L8.181,4.363 L8.18181818,5.45454545 C8.18181818,6.05703791 7.69340155,6.54545455 7.09090909,6.54545455 C6.48841664,6.54545455 6,6.05703791 6,5.45454545 L6,4.363 Z M6,15.8181818 C6.90373868,15.8181818 7.63636364,16.5508068 7.63636364,17.4545455 C7.63636364,18.3582841 6.90373868,19.0909091 6,19.0909091 C5.09626132,19.0909091 4.36363636,18.3582841 4.36363636,17.4545455 C4.36363636,16.5508068 5.09626132,15.8181818 6,15.8181818 Z M12,15.8181818 C12.9037387,15.8181818 13.6363636,16.5508068 13.6363636,17.4545455 C13.6363636,18.3582841 12.9037387,19.0909091 12,19.0909091 C11.0962613,19.0909091 10.3636364,18.3582841 10.3636364,17.4545455 C10.3636364,16.5508068 11.0962613,15.8181818 12,15.8181818 Z M12,9.81818182 C12.9037387,9.81818182 13.6363636,10.5508068 13.6363636,11.4545455 C13.6363636,12.3582841 12.9037387,13.0909091 12,13.0909091 C11.0962613,13.0909091 10.3636364,12.3582841 10.3636364,11.4545455 C10.3636364,10.5508068 11.0962613,9.81818182 12,9.81818182 Z M18,9.81818182 C18.9037387,9.81818182 19.6363636,10.5508068 19.6363636,11.4545455 C19.6363636,12.3582841 18.9037387,13.0909091 18,13.0909091 C17.0962613,13.0909091 16.3636364,12.3582841 16.3636364,11.4545455 C16.3636364,10.5508068 17.0962613,9.81818182 18,9.81818182 Z" id="Combined-Shape" fill="#717171"></path>
    </g>
</svg>