<?xml version="1.0" encoding="UTF-8"?>
<svg width="24px" height="24px" viewBox="0 0 24 24" version="1.1" xmlns="http://www.w3.org/2000/svg" xmlns:xlink="http://www.w3.org/1999/xlink">
    <title>sui-final/icons/24px/actions/action-assign</title>
    <g id="sui-final/icons/24px/actions/action-assign" stroke="none" stroke-width="1" fill="none" fill-rule="evenodd">
        <path d="M16.1418,4.9998 C16.5868,6.7228 18.1378,7.9998 19.9998,7.9998 C22.2088,7.9998 23.9998,6.2088 23.9998,3.9998 C23.9998,1.7908 22.2088,-0.0002 19.9998,-0.0002 C18.1378,-0.0002 16.5868,1.2778 16.1418,2.9998 L12.9528,2.9998 C11.8758,2.9998 10.9998,3.8758 10.9998,4.9518 L11.0478,19.9998 L7.9778,19.9998 C7.8588,17.8968 6.1318,16.2238 3.9998,16.2238 C1.7898,16.2238 -0.0002,18.0148 -0.0002,20.2238 C-0.0002,22.4328 1.7898,24.2238 3.9998,24.2238 C5.5678,24.2238 6.9108,23.3128 7.5668,21.9998 L11.0478,21.9998 C12.1238,21.9998 12.9998,21.1238 12.9998,20.0478 L12.9528,4.9998 L16.1418,4.9998 Z M19.9998,15.8948 C17.7898,15.8948 15.9998,17.6858 15.9998,19.8948 C15.9998,22.1038 17.7898,23.8948 19.9998,23.8948 C22.2088,23.8948 23.9998,22.1038 23.9998,19.8948 C23.9998,17.6858 22.2088,15.8948 19.9998,15.8948 L19.9998,15.8948 Z" id="Fill-1" fill="#333333"></path>
    </g>
</svg>