<?xml version="1.0" encoding="UTF-8"?>
<svg width="24px" height="24px" viewBox="0 0 24 24" version="1.1" xmlns="http://www.w3.org/2000/svg" xmlns:xlink="http://www.w3.org/1999/xlink">
    <title>sui-final/icons/24px/actions/action-time</title>
    <g id="sui-final/icons/24px/actions/action-time" stroke="none" stroke-width="1" fill="none" fill-rule="evenodd">
        <path d="M12,0 C18.627417,0 24,5.372583 24,12 C24,18.627417 18.627417,24 12,24 C5.372583,24 0,18.627417 0,12 C0,5.372583 5.372583,0 12,0 Z M12,2 C6.4771525,2 2,6.4771525 2,12 C2,17.5228475 6.4771525,22 12,22 C17.5228475,22 22,17.5228475 22,12 C22,6.4771525 17.5228475,2 12,2 Z" id="Oval" fill="#333333" fill-rule="nonzero"></path>
        <path d="M12,3.5 C12.5128358,3.5 12.9355072,3.88604019 12.9932723,4.38337887 L13,4.5 L13,11.666 L16.2121583,15.917289 C16.5194312,16.3240823 16.4685962,16.8897109 16.1123405,17.2361419 L16.0169441,17.3179643 C15.6101508,17.6252371 15.0445221,17.5744022 14.6980911,17.2181465 L14.6162688,17.1227501 L11.2020552,12.6027306 C11.097161,12.4638629 11.0307822,12.3006613 11.0084264,12.1295551 L11,12 L11,4.5 C11,3.94771525 11.4477153,3.5 12,3.5 Z" id="Line" fill="#333333" fill-rule="nonzero"></path>
    </g>
</svg>