<svg width="24" height="24" viewBox="0 0 24 24" fill="none" xmlns="http://www.w3.org/2000/svg">
<g id="check-out">
<path id="Fill 1" fill-rule="evenodd" clip-rule="evenodd" d="M22.2917 0H1.70925C0.765292 0 0 0.771 0 1.721V22.279C0 23.229 0.765292 24 1.70925 24H22.2917C23.2347 24 24 23.229 24 22.279V19.492C24 18.939 23.5553 18.492 23.0074 18.492C22.4595 18.492 22.0148 18.939 22.0148 19.492V22H1.98519V2H22.0148V4.167C22.0148 4.72 22.4595 5.167 23.0074 5.167C23.5553 5.167 24 4.72 24 4.167V1.721C24 0.771 23.2347 0 22.2917 0ZM6.49353 12.124C6.49353 12.676 6.93821 13.124 7.48613 13.124L20.4891 13.124L16.5158 17.125C16.1277 17.516 16.1277 18.149 16.5158 18.54C16.9039 18.93 17.5312 18.93 17.9193 18.54L23.7091 12.708C23.8957 12.52 24 12.266 24 12C24 11.735 23.8957 11.481 23.7091 11.293L17.9193 5.46001C17.5312 5.07001 16.9039 5.07001 16.5158 5.46001C16.1277 5.85101 16.1277 6.48401 16.5158 6.87501L20.7333 11.124L7.48613 11.124C6.93822 11.124 6.49353 11.571 6.49353 12.124Z" fill="#333333"/>
</g>
</svg>
