<svg width="24" height="24" viewBox="0 0 24 24" fill="none" xmlns="http://www.w3.org/2000/svg">
<path fill-rule="evenodd" clip-rule="evenodd" d="M8 12.9707C7.448 12.9707 7 12.5227 7 11.9707C7 11.4187 7.448 10.9707 8 10.9707C8.552 10.9707 9 11.4187 9 11.9707C9 12.5227 8.552 12.9707 8 12.9707ZM21 10.9707H10.815C10.401 9.8097 9.302 8.9707 8 8.9707C6.698 8.9707 5.599 9.8097 5.185 10.9707H3C2.447 10.9707 2 11.4177 2 11.9707C2 12.5237 2.447 12.9707 3 12.9707H5.185C5.599 14.1317 6.698 14.9707 8 14.9707C9.302 14.9707 10.401 14.1317 10.815 12.9707H21C21.553 12.9707 22 12.5237 22 11.9707C22 11.4177 21.553 10.9707 21 10.9707ZM16 19.9997C15.448 19.9997 15 19.5517 15 18.9997C15 18.4487 15.448 17.9997 16 17.9997C16.552 17.9997 17 18.4487 17 18.9997C17 19.5517 16.552 19.9997 16 19.9997ZM21 17.9997H18.815C18.401 16.8387 17.302 15.9997 16 15.9997C14.698 15.9997 13.599 16.8387 13.185 17.9997H3C2.447 17.9997 2 18.4477 2 18.9997C2 19.5527 2.447 19.9997 3 19.9997H13.185C13.599 21.1607 14.698 21.9997 16 21.9997C17.302 21.9997 18.401 21.1607 18.815 19.9997H21C21.553 19.9997 22 19.5527 22 18.9997C22 18.4477 21.553 17.9997 21 17.9997ZM16 3.99969C16.552 3.99969 17 4.44869 17 4.99969C17 5.55169 16.552 5.99969 16 5.99969C15.448 5.99969 15 5.55169 15 4.99969C15 4.44869 15.448 3.99969 16 3.99969ZM3 5.99969H13.185C13.599 7.1607 14.698 7.99969 16 7.99969C17.302 7.99969 18.401 7.1607 18.815 5.99969H21C21.553 5.99969 22 5.55269 22 4.99969C22 4.44769 21.553 3.99969 21 3.99969H18.815C18.401 2.83869 17.302 1.99969 16 1.99969C14.698 1.99969 13.599 2.83869 13.185 3.99969H3C2.447 3.99969 2 4.44769 2 4.99969C2 5.55269 2.447 5.99969 3 5.99969Z" fill="#333333"/>
</svg>
