<?xml version="1.0" encoding="UTF-8"?>
<svg width="24px" height="24px" viewBox="0 0 24 24" version="1.1" xmlns="http://www.w3.org/2000/svg" xmlns:xlink="http://www.w3.org/1999/xlink">
    <!-- Generator: Sketch 64 (93537) - https://sketch.com -->
    <title>sui-final/icons/24px/actions/action-map</title>
    <desc>Created with Sketch.</desc>
    <g id="sui-final/icons/24px/actions/action-map" stroke="none" stroke-width="1" fill="none" fill-rule="evenodd">
        <path d="M22.7076,6.7195 C22.3166,6.3285 21.6836,6.3285 21.2926,6.7195 L18.3396,9.6725 L14.3276,5.6595 L17.2806,2.7065 C17.6716,2.3175 17.6716,1.6835 17.2806,1.2925 C16.8906,0.9025 16.2566,0.9025 15.8666,1.2925 L12.9126,4.2455 L12.6666,3.9995 L11.6036,2.9365 C11.2136,2.5465 10.5806,2.5465 10.1896,2.9365 C9.7996,3.3265 9.7996,3.9605 10.1896,4.3515 L10.5926,4.7535 L6.3286,9.0185 C5.9646,9.3825 5.9646,9.9735 6.3286,10.3375 L9.2886,13.2975 L1.2926,21.2925 C0.9026,21.6835 0.9026,22.3175 1.2926,22.7065 C1.6836,23.0975 2.3166,23.0975 2.7076,22.7065 L10.7026,14.7115 L13.3956,17.4045 C13.7606,17.7685 14.3516,17.7685 14.7156,17.4045 L18.9786,13.1405 L19.3826,13.5435 C19.7716,13.9345 20.4056,13.9345 20.7966,13.5435 C21.1866,13.1535 21.1866,12.5205 20.7966,12.1295 L19.7546,11.0865 L22.7076,8.1335 C23.0976,7.7425 23.0976,7.1105 22.7076,6.7195" id="Fill-1" fill="#333333"></path>
    </g>
</svg>