<svg width="24" height="24" viewBox="0 0 24 24" fill="none" xmlns="http://www.w3.org/2000/svg">
<path fill-rule="evenodd" clip-rule="evenodd" d="M1 11C1.553 11 2 11.447 2 12C2 17.514 6.486 22 12 22C17.514 22 22 17.514 22 12C22 6.486 17.514 2 12 2C9.05 2 6.289 3.289 4.4 5.5H7.6C8.152 5.5 8.6 5.947 8.6 6.5C8.6 7.053 8.152 7.5 7.6 7.5H2.1C1.547 7.5 1.1 7.053 1.1 6.5V1C1.1 0.447 1.547 0 2.1 0C2.652 0 3.1 0.447 3.1 1V3.972C5.358 1.466 8.567 0 12 0C18.617 0 24 5.383 24 12C24 18.617 18.617 24 12 24C5.383 24 0 18.617 0 12C0 11.447 0.447 11 1 11Z" fill="#333333"/>
<path fill-rule="evenodd" clip-rule="evenodd" d="M11.5 6.5C12.0523 6.5 12.5 6.94772 12.5 7.5V13H17C17.5523 13 18 13.4477 18 14C18 14.5523 17.5523 15 17 15H10.5V7.5C10.5 6.94772 10.9477 6.5 11.5 6.5Z" fill="#333333"/>
</svg>
