<?xml version="1.0" encoding="UTF-8"?>
<svg width="24px" height="24px" viewBox="0 0 24 24" version="1.1" xmlns="http://www.w3.org/2000/svg" xmlns:xlink="http://www.w3.org/1999/xlink">
    <!-- Generator: Sketch 64 (93537) - https://sketch.com -->
    <title>sui-final/icons/24px/actions/action-lightning</title>
    <desc>Created with Sketch.</desc>
    <g id="sui-final/icons/24px/actions/action-lightning" stroke="none" stroke-width="1" fill="none" fill-rule="evenodd">
        <path d="M16.9739,1.0037 L13.5239,9.0767 C13.5109,9.1077 13.5339,9.1437 13.5679,9.1437 L16.4629,9.1437 C16.9929,9.1437 17.3149,9.7267 17.0329,10.1747 L8.0019,23.7827 C7.6929,24.2497 6.9749,23.8617 7.1959,23.3467 L11.7929,12.6287 C11.8059,12.5977 11.7839,12.5627 11.7489,12.5627 L7.7209,12.5627 C7.2519,12.5627 6.9089,12.1217 7.0219,11.6667 L9.8009,0.5457 C9.8809,0.2257 10.1689,-0.0003 10.4999,-0.0003 L16.3109,-0.0003 C16.8279,-0.0003 17.1769,0.5277 16.9739,1.0037" id="Fill-1" fill="#333333"></path>
    </g>
</svg>