<?xml version="1.0" encoding="UTF-8"?>
<svg width="24px" height="24px" viewBox="0 0 24 24" version="1.1" xmlns="http://www.w3.org/2000/svg" xmlns:xlink="http://www.w3.org/1999/xlink">
    <!-- Generator: Sketch 62 (91390) - https://sketch.com -->
    <title>sui-final/icons/24px/actions/action-reorder</title>
    <desc>Created with Sketch.</desc>
    <defs>
        <path d="M15.058,20 L15.125272,20.0072044 C15.3387355,20.0542066 15.4397273,20.3208182 15.287,20.499 L15.287,20.499 L12.515,23.733 L12.4581429,23.7847959 C12.3347143,23.8711224 12.1598571,23.8538571 12.057,23.733 L12.057,23.733 L9.284,20.499 L9.24590083,20.4432006 C9.1432562,20.2504132 9.27945455,20 9.514,20 L9.514,20 L15.058,20 Z M22.269,15.6 L22.3386822,15.6079621 C22.4728163,15.6392041 22.572,15.7587143 22.572,15.901 L22.572,15.901 L22.572,17.298 L22.5640321,17.3676268 C22.5327551,17.501551 22.413,17.6 22.269,17.6 L22.269,17.6 L2.302,17.6 L2.23268805,17.5920875 C2.09918367,17.5610204 2,17.442 2,17.298 L2,17.298 L2,15.901 L2.00796501,15.8320583 C2.03922449,15.6991837 2.15885714,15.6 2.302,15.6 L2.302,15.6 L22.269,15.6 Z M22.269,10.8 L22.3386822,10.807965 C22.4728163,10.8392245 22.572,10.9588571 22.572,11.102 L22.572,11.102 L22.572,12.499 L22.5640321,12.5676268 C22.5327551,12.7000816 22.413,12.8 22.269,12.8 L22.269,12.8 L2.302,12.8 L2.23268805,12.7919854 C2.09918367,12.760551 2,12.6404286 2,12.499 L2,12.499 L2,11.102 L2.00796501,11.032688 C2.03922449,10.8991837 2.15885714,10.8 2.302,10.8 L2.302,10.8 L22.269,10.8 Z M22.269,6.001 L22.3386822,6.00890962 C22.4728163,6.03995918 22.572,6.15885714 22.572,6.302 L22.572,6.302 L22.572,7.698 L22.5640321,7.76699708 C22.5327551,7.90008163 22.413,8 22.269,8 L22.269,8 L2.302,8 L2.23268805,7.99198251 C2.09918367,7.96053061 2,7.84028571 2,7.698 L2,7.698 L2,6.302 L2.00796501,6.23274344 C2.03922449,6.09944898 2.15885714,6.001 2.302,6.001 L2.302,6.001 L22.269,6.001 Z M12.286,0.162 L12.3487813,0.16871875 C12.4109375,0.182125 12.47,0.2155 12.515,0.268 L12.515,0.268 L15.287,3.501 L15.3253479,3.55682269 C15.4287438,3.74976033 15.2925455,4.001 15.058,4.001 L15.058,4.001 L9.514,4.001 L9.44672727,3.99377235 C9.2332562,3.94661983 9.13218182,3.67918182 9.284,3.501 L9.284,3.501 L12.057,0.268 C12.117,0.198 12.201,0.162 12.286,0.162 L12.286,0.162 Z" id="path-1"></path>
    </defs>
    <g id="sui-final/icons/24px/actions/action-reorder" stroke="none" stroke-width="1" fill="none" fill-rule="evenodd">
        <mask id="mask-2" fill="white">
            <use xlink:href="#path-1"></use>
        </mask>
        <use id="Clip-6" fill="#333333" xlink:href="#path-1"></use>
    </g>
</svg>