<?xml version="1.0" encoding="UTF-8"?>
<svg width="24px" height="24px" viewBox="0 0 24 24" version="1.1" xmlns="http://www.w3.org/2000/svg" xmlns:xlink="http://www.w3.org/1999/xlink">
    <!-- Generator: Sketch 62 (91390) - https://sketch.com -->
    <title>sui-final/icons/24px/actions/action-cross</title>
    <desc>Created with Sketch.</desc>
    <g id="sui-final/icons/24px/actions/action-cross" stroke="none" stroke-width="1" fill="none" fill-rule="evenodd">
        <path d="M12,-2 C12.7029079,-2 13.2727273,-1.43018059 13.2727273,-0.727272727 L13.272,10.727 L24.7272727,10.7272727 C25.4301806,10.7272727 26,11.2970921 26,12 C26,12.7029079 25.4301806,13.2727273 24.7272727,13.2727273 L13.272,13.272 L13.2727273,24.7272727 C13.2727273,25.4301806 12.7029079,26 12,26 C11.2970921,26 10.7272727,25.4301806 10.7272727,24.7272727 L10.727,13.272 L-0.727272727,13.2727273 C-1.43018059,13.2727273 -2,12.7029079 -2,12 C-2,11.2970921 -1.43018059,10.7272727 -0.727272727,10.7272727 L10.727,10.727 L10.7272727,-0.727272727 C10.7272727,-1.43018059 11.2970921,-2 12,-2 Z" id="Combined-Shape" fill="#717171" transform="translate(12.000000, 12.000000) rotate(-45.000000) translate(-12.000000, -12.000000) "></path>
    </g>
</svg>