<?xml version="1.0" encoding="UTF-8"?>
<svg width="24px" height="24px" viewBox="0 0 24 24" version="1.1" xmlns="http://www.w3.org/2000/svg" xmlns:xlink="http://www.w3.org/1999/xlink">
    <title>sui-final/icons/24px/actions/action-bulk-update</title>
    <g id="sui-final/icons/24px/actions/action-bulk-update" stroke="none" stroke-width="1" fill="none" fill-rule="evenodd">
        <path d="M22.0016,5.0696 C19.5746,1.4776 15.3926,-0.4334 11.0846,0.0836 C10.5766,0.1446 10.2036,0.5766 10.2036,1.0756 C10.2036,1.1146 10.2056,1.1556 10.2106,1.1956 C10.2766,1.7436 10.7736,2.1346 11.3226,2.0696 C14.8826,1.6426 18.3396,3.2206 20.3456,6.1896 C21.7686,8.2946 22.2836,10.8316 21.8046,13.3226 C21.4016,15.4036 20.3356,17.2436 18.7736,18.6246 L18.7736,17.1376 C18.7736,16.5856 18.3266,16.1376 17.7736,16.1376 C17.2216,16.1376 16.7736,16.5856 16.7736,17.1376 L16.7736,20.8726 C16.7736,21.4246 17.2216,21.8726 17.7736,21.8726 L21.5086,21.8726 C22.0616,21.8726 22.5086,21.4246 22.5086,20.8726 C22.5086,20.3196 22.0616,19.8726 21.5086,19.8726 L20.3686,19.8726 C22.1116,18.2306 23.3046,16.0986 23.7676,13.7016 C24.3526,10.6806 23.7246,7.6166 22.0016,5.0696 M13.4986,20.9776 C9.9666,21.3406 6.5526,19.7306 4.5906,16.7756 C3.1846,14.6586 2.6896,12.1186 3.1906,9.6306 C3.6116,7.5536 4.6906,5.7236 6.2626,4.3566 L6.2366,5.8386 L6.2366,5.8476 C6.2366,6.3956 6.6786,6.8416 7.2276,6.8476 C7.7786,6.8536 8.2306,6.4106 8.2366,5.8576 L8.2846,2.1236 C8.2806,1.5756 7.8466,1.1196 7.2946,1.1136 L3.5606,1.0655399 C3.0086,1.0596 2.5566,1.5036 2.5506,2.0556 L2.5506,2.0656 C2.5506,2.6136 2.9916,3.0596 3.5406,3.0656 L4.6866,3.0876 C2.9276,4.7156 1.7156,6.8386 1.2306,9.2336 C1.0756,10.0016 0.9996,10.7716 0.9996,11.5376 C0.9996,13.7786 1.6566,15.9716 2.9246,17.8816 C5.2986,21.4586 9.4296,23.4076 13.7036,22.9676 C14.2536,22.9106 14.6436,22.4186 14.5966,21.8706 C14.5396,21.3216 14.0486,20.9226 13.4986,20.9776 M6.2796,11.6536 C5.8976,12.0526 5.9126,12.6856 6.3116,13.0676 L9.6926,16.2996 C9.8796,16.4786 10.1276,16.5776 10.3846,16.5776 L10.4146,16.5776 C10.6826,16.5686 10.9366,16.4536 11.1176,16.2576 L18.7126,8.0556 C19.0886,7.6506 19.0636,7.0176 18.6586,6.6426 C18.2536,6.2656 17.6186,6.2906 17.2456,6.6966 L10.3416,14.1526 L7.6936,11.6226 C7.2936,11.2396 6.6616,11.2566 6.2796,11.6536" id="Fill-1" fill="#333333"></path>
    </g>
</svg>