<?xml version="1.0" encoding="UTF-8"?>
<svg width="24px" height="24px" viewBox="0 0 24 24" version="1.1" xmlns="http://www.w3.org/2000/svg" xmlns:xlink="http://www.w3.org/1999/xlink">
    <!-- Generator: Sketch 62 (91390) - https://sketch.com -->
    <title>sui-final/icons/24px/actions/action-guest</title>
    <desc>Created with Sketch.</desc>
    <g id="sui-final/icons/24px/actions/action-guest" stroke="none" stroke-width="1" fill="none" fill-rule="evenodd">
        <path d="M12,13.0909091 C16.3442841,13.0909091 22.5168586,15.7240114 23.3545895,17.5438261 C23.5459428,17.9595058 23.6798495,18.5583281 23.796551,19.3537458 C23.8559737,19.7587605 23.9060643,20.1885864 23.9474513,20.6178364 C23.9618943,20.7676339 23.9742423,20.906878 23.984526,21.0322194 C23.9907806,21.1084526 23.9950112,21.1639015 23.9972402,21.1951783 L24,21.2727273 C24,22.7770937 22.7804038,24 21.2758898,24 L2.72411022,24 C1.21959618,24 0,22.7770937 0,21.2727273 L0.00275983528,21.1951783 C0.00498883447,21.1639015 0.00921941164,21.1084526 0.0154739991,21.0322194 C0.0257576983,20.906878 0.0381056509,20.7676339 0.0525486773,20.6178364 C0.0939356665,20.1885864 0.144026319,19.7587605 0.203448968,19.3537458 C0.32015047,18.5583281 0.454057159,17.9595058 0.645410547,17.5438261 C1.48314139,15.7240114 7.6557159,13.0909091 12,13.0909091 Z M12,15.2727273 C10.045374,15.2727273 7.77877241,15.824911 5.66376563,16.7271324 C4.78208262,17.1032416 3.98345947,17.519103 3.37921645,17.907788 C3.10954267,18.0812583 2.89097395,18.2416995 2.73834039,18.3754005 C2.68134144,18.4253293 2.63773308,18.4679116 2.60908778,18.4999663 C2.53521761,18.6935434 2.44252881,19.122663 2.36215674,19.6704655 C2.3085672,20.0357227 2.26248079,20.4311883 2.22429568,20.8272297 C2.20461424,21.031358 2.19072215,21.1956133 2.18260586,21.3022525 C2.19795671,21.5892885 2.43572926,21.8181818 2.72411022,21.8181818 L21.2758898,21.8181818 C21.5642707,21.8181818 21.8020433,21.5892885 21.8173941,21.3022525 C21.8092778,21.1956133 21.7953858,21.031358 21.7757043,20.8272297 C21.7375192,20.4311883 21.6914328,20.0357227 21.6378433,19.6704655 C21.5574712,19.122663 21.4647824,18.6935434 21.3909122,18.4999663 C21.3622669,18.4679116 21.3186586,18.4253293 21.2616596,18.3754005 C21.109026,18.2416995 20.8904573,18.0812583 20.6207835,17.907788 C20.0165405,17.519103 19.2179174,17.1032416 18.3362344,16.7271324 C16.2212276,15.824911 13.954626,15.2727273 12,15.2727273 Z M12,0 C15.3137085,0 18,2.6862915 18,6 C18,9.3137085 15.3137085,12 12,12 C8.6862915,12 6,9.3137085 6,6 C6,2.6862915 8.6862915,0 12,0 Z M12,2.18181818 C9.89127641,2.18181818 8.18181818,3.89127641 8.18181818,6 C8.18181818,8.10872359 9.89127641,9.81818182 12,9.81818182 C14.1087236,9.81818182 15.8181818,8.10872359 15.8181818,6 C15.8181818,3.89127641 14.1087236,2.18181818 12,2.18181818 Z" id="Combined-Shape" fill="#717171"></path>
    </g>
</svg>