<?xml version="1.0" encoding="UTF-8"?>
<svg width="24px" height="24px" viewBox="0 0 24 24" version="1.1" xmlns="http://www.w3.org/2000/svg" xmlns:xlink="http://www.w3.org/1999/xlink">
    <title>sui-final/icons/24px/actions/action-fullscreen</title>
    <g id="sui-final/icons/24px/actions/action-fullscreen" stroke="none" stroke-width="1" fill="none" fill-rule="evenodd">
        <path d="M19.3857,4.1436 C19.2647,4.0936 19.1357,4.0676 19.0057,4.0676 L14.6617,4.0676 C14.1127,4.0676 13.6687,4.5116 13.6687,5.0626 C13.6687,5.6126 14.1127,6.0576 14.6617,6.0576 L16.6087,6.0576 L13.0517,9.6226 C12.6637,10.0106 12.6637,10.6406 13.0517,11.0296 C13.2457,11.2236 13.4997,11.3206 13.7537,11.3206 C14.0087,11.3206 14.2627,11.2236 14.4557,11.0296 L18.0127,7.4646 L18.0127,9.4146 C18.0127,9.9646 18.4567,10.4106 19.0057,10.4106 C19.5557,10.4106 19.9987,9.9646 19.9987,9.4146 L19.9987,5.0626 C19.9987,4.9326 19.9737,4.8036 19.9227,4.6816 C19.8227,4.4386 19.6287,4.2446 19.3857,4.1436 L19.3857,4.1436 Z M21.9997,20.9176 C21.9997,21.5146 21.5137,21.9996 20.9167,21.9996 L3.0817,21.9996 C2.4857,21.9996 1.9997,21.5146 1.9997,20.9176 L1.9997,3.0816 C1.9997,2.4856 2.4857,1.9996 3.0817,1.9996 L20.9167,1.9996 C21.5137,1.9996 21.9997,2.4856 21.9997,3.0816 L21.9997,20.9176 Z M20.9167,-0.0004 L3.0817,-0.0004 C1.3827,-0.0004 -0.0003,1.3826 -0.0003,3.0816 L-0.0003,20.9176 C-0.0003,22.6176 1.3827,23.9996 3.0817,23.9996 L20.9167,23.9996 C22.6167,23.9996 23.9997,22.6176 23.9997,20.9176 L23.9997,3.0816 C23.9997,1.3826 22.6167,-0.0004 20.9167,-0.0004 L20.9167,-0.0004 Z M10.2447,12.7476 C9.9907,12.7476 9.7367,12.8436 9.5417,13.0386 L5.9867,16.6026 L5.9867,14.6526 C5.9867,14.1026 5.5417,13.6576 4.9927,13.6576 C4.4447,13.6576 3.9987,14.1026 3.9987,14.6526 L3.9987,19.0046 C3.9987,19.1346 4.0257,19.2636 4.0757,19.3856 C4.1767,19.6286 4.3697,19.8236 4.6137,19.9236 C4.7357,19.9736 4.8647,19.9996 4.9927,19.9996 L9.3367,19.9996 C9.8857,19.9996 10.3307,19.5556 10.3307,19.0046 C10.3307,18.4556 9.8857,18.0096 9.3367,18.0096 L7.3917,18.0096 L10.9477,14.4456 C11.3347,14.0566 11.3347,13.4266 10.9477,13.0386 C10.7527,12.8436 10.4987,12.7476 10.2447,12.7476 L10.2447,12.7476 Z" id="Fill-1" fill="#333333"></path>
    </g>
</svg>