<?xml version="1.0" encoding="UTF-8"?>
<svg width="24px" height="24px" viewBox="0 0 24 24" version="1.1" xmlns="http://www.w3.org/2000/svg" xmlns:xlink="http://www.w3.org/1999/xlink">
    <title>sui-final/icons/24px/actions/action-stop-sell-availability</title>
    <g id="sui-final/icons/24px/actions/action-stop-sell-availability" stroke="none" stroke-width="1" fill="none" fill-rule="evenodd">
        <path d="M20,14.8291 C20,15.3551 19.604,16.1401 19.187,16.4421 L13.14,20.8211 C12.976,20.9401 12.738,21.0001 12.5,21.0001 L12.5,3.0001 C16.488,3.0001 19.18,4.0131 19.267,4.0441 C19.644,4.1621 20,4.6621 20,5.0731 L20,14.8291 Z M19.927,2.1571 C19.805,2.1101 16.887,1.0001 12.5,1.0001 C8.113,1.0001 5.195,2.1101 5.148,2.1321 C3.943,2.4911 3,3.7831 3,5.0731 L3,14.8291 C3,15.9951 3.705,17.3851 4.64,18.0611 L10.687,22.4401 C11.203,22.8151 11.852,23.0031 12.5,23.0031 C13.147,23.0031 13.796,22.8151 14.313,22.4401 L20.36,18.0611 C21.295,17.3841 22,15.9941 22,14.8291 L22,5.0731 C22,3.7801 21.082,2.5161 19.927,2.1571 L19.927,2.1571 Z" id="Fill-1" fill="#333333"></path>
    </g>
</svg>