<svg xmlns="http://www.w3.org/2000/svg" width="16" height="16" viewBox="0 0 16 16">
    <path fill="#828EA3" fill-rule="evenodd" d="M7.635 2.72c.312.313.312.82 0 1.131-.313.313-.82.313-1.132 0L5.395 2.743v6.755c0 .443-.358.8-.8.8-.443 0-.8-.357-.8-.8V2.743l-1.11 1.108c-.311.313-.818.313-1.13 0-.156-.156-.235-.36-.235-.565 0-.204.079-.41.235-.566L4.028.248c.074-.074.163-.134.261-.174.195-.081.416-.081.611 0 .099.04.187.1.261.174zm6.81 9.454c.313.313.313.82 0 1.131l-2.473 2.473c-.074.074-.162.134-.26.174-.196.081-.417.081-.612 0-.098-.04-.187-.1-.26-.174l-2.474-2.473c-.156-.156-.235-.36-.235-.565 0-.204.079-.41.235-.566.312-.312.818-.312 1.13 0l1.11 1.109V6.528c0-.443.357-.8.8-.8.442 0 .8.357.8.8v6.755l1.108-1.109c.312-.312.819-.312 1.132 0z"/>
</svg>
