<?xml version="1.0" encoding="UTF-8"?>
<svg width="24px" height="24px" viewBox="0 0 24 24" version="1.1" xmlns="http://www.w3.org/2000/svg" xmlns:xlink="http://www.w3.org/1999/xlink">
    <title>sui-final/icons/24px/actions/action-cancelled</title>
    <g id="sui-final/icons/24px/actions/action-cancelled" stroke="none" stroke-width="1" fill="none" fill-rule="evenodd">
        <path d="M12,0.0003 C18.617,0.0003 24,5.3843 24,12.0013 C24,18.6183 18.617,24.0013 12,24.0013 C5.383,24.0013 0,18.6183 0,12.0013 C0,5.3843 5.383,0.0003 12,0.0003 Z M12,2.0003 C6.486,2.0003 2,6.4863 2,12.0013 C2,17.5153 6.486,22.0013 12,22.0013 C17.514,22.0013 22,17.5153 22,12.0013 C22,6.4863 17.514,2.0003 12,2.0003 Z M7.707,6.2942 L12,10.5863 L16.293,6.2942 C16.684,5.9032 17.316,5.9032 17.707,6.2942 C18.098,6.6852 18.098,7.3172 17.707,7.7082 L13.414,12.0003 L17.707,16.2942 C18.098,16.6852 18.098,17.3172 17.707,17.7082 C17.512,17.9032 17.256,18.0012 17,18.0012 C16.744,18.0012 16.488,17.9032 16.293,17.7082 L12,13.4143 L7.707,17.7082 C7.512,17.9032 7.256,18.0012 7,18.0012 C6.744,18.0012 6.488,17.9032 6.293,17.7082 C5.902,17.3172 5.902,16.6852 6.293,16.2942 L10.585,12.0003 L6.293,7.7082 C5.902,7.3172 5.902,6.6852 6.293,6.2942 C6.684,5.9032 7.316,5.9032 7.707,6.2942 Z" id="Combined-Shape" fill="#333333"></path>
    </g>
</svg>