<svg width="24" height="24" viewBox="0 0 24 24" fill="none" xmlns="http://www.w3.org/2000/svg">
<g id="remove">
<path id="remove_2" d="M19.9234 7.70674C19.7923 7.68688 19.6584 7.69285 19.5296 7.72432C19.4008 7.75578 19.2795 7.81213 19.1727 7.89013C19.0658 7.96812 18.9756 8.06624 18.9071 8.17885C18.8386 8.29146 18.7932 8.41636 18.7735 8.54639L16.6754 22.0007H7.31453L5.2265 8.54639C5.18637 8.28128 5.04161 8.04283 4.82407 7.88349C4.60652 7.72415 4.33401 7.65698 4.06648 7.69675C3.79896 7.73651 3.55833 7.87996 3.39753 8.09553C3.23674 8.31111 3.16895 8.58115 3.20908 8.84626L5.31729 22.3106C5.39244 22.7854 5.63774 23.2176 6.00825 23.5278C6.37876 23.8381 6.84967 24.0057 7.33471 23.9999H16.6754C17.1604 24.0057 17.6313 23.8381 18.0018 23.5278C18.3723 23.2176 18.6177 22.7854 18.6928 22.3106L20.7808 8.84626C20.8008 8.71555 20.7944 8.58222 20.762 8.45398C20.7296 8.32574 20.6719 8.20514 20.5922 8.09916C20.5124 7.99318 20.4122 7.90392 20.2975 7.83657C20.1827 7.76921 20.0555 7.72508 19.9234 7.70674ZM21.9913 4.39814H18.249L17.5126 1.50936C17.4026 1.07779 17.1503 0.694966 16.7958 0.421554C16.4413 0.148142 16.0049 -0.000212054 15.5557 2.275e-07H8.25264C7.80343 -0.000212054 7.36701 0.148142 7.01253 0.421554C6.65805 0.694966 6.40579 1.07779 6.29574 1.50936L5.57955 4.39814H2.00871C1.74118 4.39814 1.48461 4.50345 1.29544 4.69091C1.10627 4.87837 1 5.13261 1 5.39772C1 5.66282 1.10627 5.91707 1.29544 6.10452C1.48461 6.29198 1.74118 6.39729 2.00871 6.39729H21.9913C22.2588 6.39729 22.5154 6.29198 22.7046 6.10452C22.8937 5.91707 23 5.66282 23 5.39772C23 5.13261 22.8937 4.87837 22.7046 4.69091C22.5154 4.50345 22.2588 4.39814 21.9913 4.39814ZM7.64741 4.39814L8.25264 1.99916H15.5557L16.171 4.39814H7.64741ZM13.9619 19.5717C14.2082 19.5738 14.4468 19.4865 14.6326 19.3263C14.8184 19.1661 14.9386 18.9441 14.9707 18.7021L15.9794 10.7854C15.9963 10.6548 15.987 10.5221 15.952 10.395C15.917 10.2679 15.857 10.1489 15.7755 10.0448C15.6939 9.94081 15.5924 9.85377 15.4768 9.78874C15.3612 9.72371 15.2337 9.68196 15.1018 9.66591C14.9699 9.64912 14.836 9.65833 14.7078 9.693C14.5795 9.72767 14.4594 9.78712 14.3544 9.86794C14.2494 9.94876 14.1616 10.0493 14.096 10.1639C14.0304 10.2785 13.9882 10.4048 13.972 10.5355L12.9633 18.4522C12.932 18.7145 13.0067 18.9785 13.1711 19.1864C13.3356 19.3943 13.5764 19.5292 13.8409 19.5617L13.9619 19.5717ZM10.028 19.5717H10.1591C10.4236 19.5392 10.6644 19.4043 10.8289 19.1964C10.9933 18.9885 11.068 18.7245 11.0367 18.4622L10.028 10.5455C9.99453 10.2804 9.85618 10.0394 9.64336 9.87533C9.43055 9.71131 9.16069 9.63777 8.89317 9.67091C8.62564 9.70405 8.38236 9.84114 8.21683 10.052C8.05131 10.2629 7.9771 10.5303 8.01055 10.7954L9.01926 18.7121C9.05351 18.9523 9.17473 19.1719 9.36032 19.3301C9.54591 19.4882 9.7832 19.5741 10.028 19.5717V19.5717Z" fill="#333333"/>
</g>
</svg>
