<?xml version="1.0" encoding="UTF-8"?>
<svg width="24px" height="24px" viewBox="0 0 24 24" version="1.1" xmlns="http://www.w3.org/2000/svg" xmlns:xlink="http://www.w3.org/1999/xlink">
    <!-- Generator: Sketch 62 (91390) - https://sketch.com -->
    <title>sui-final/icons/24px/amenities/amenities-non-smoking</title>
    <desc>Created with Sketch.</desc>
    <g id="sui-final/icons/24px/amenities/amenities-non-smoking" stroke="none" stroke-width="1" fill="none" fill-rule="evenodd">
        <path d="M9.9995,-0.0003 C9.9995,0.6047 9.9565,1.8247 10.4175,3.0817 C10.8795,4.3377 11.9465,5.6027 13.7455,6.1237 C14.8985,6.4587 16.0965,6.7797 16.8905,7.2317 C17.6855,7.6837 17.9995,8.0227 17.9995,8.8457 L19.9995,8.8457 C19.9995,7.1397 18.9445,5.9127 17.8045,5.2647 C16.6645,4.6167 15.3615,4.3067 14.2535,3.9837 C12.9715,3.6117 12.5395,2.9807 12.2705,2.2497 C12.0035,1.5187 11.9995,0.6577 11.9995,-0.0003 L9.9995,-0.0003 Z M14.9995,-0.0003 L14.9995,2.2117 C15.8995,2.2117 16.9875,2.3807 17.7555,2.7727 C18.5235,3.1647 18.9355,3.6057 19.0035,4.5157 C19.0475,5.0877 19.4795,5.5277 19.9995,5.5277 C20.6665,5.5277 21.0605,5.8247 21.4175,6.4177 C21.7755,7.0117 21.9995,7.9237 21.9995,8.8457 L23.9995,8.8457 C23.9995,7.5557 23.7245,6.2567 23.0815,5.1907 C22.5645,4.3337 21.6975,3.7637 20.7025,3.5257 C20.3335,2.2577 19.5615,1.2577 18.5935,0.7647 C17.4115,0.1617 16.1005,-0.0003 14.9995,-0.0003 L14.9995,-0.0003 Z M3.7065,2.5347 L2.2925,4.0987 L7.5855,9.9507 L-0.0005,9.9507 L-0.0005,16.5847 L13.5855,16.5847 L20.2925,23.9997 L21.7065,22.4367 L16.4135,16.5847 L16.4215,16.5847 L14.4215,14.3727 L12.4215,12.1617 L10.4215,9.9507 L10.4135,9.9507 L3.7065,2.5347 Z M13.2475,9.9507 L15.2475,12.1617 L17.2475,14.3727 L17.9995,15.2047 L17.9995,9.9507 L13.2475,9.9507 Z M19.9995,16.5847 L23.9995,16.5847 L23.9995,9.9507 L19.9995,9.9507 L19.9995,16.5847 Z" id="Fill-1" fill="#333333"></path>
    </g>
</svg>