<svg width="24" height="24" viewBox="0 0 24 24" fill="none" xmlns="http://www.w3.org/2000/svg">
<g id="infant">
<path id="Vector" d="M22.32 13.28H6.5L5.05 8.19002C4.98765 7.97558 4.85531 7.78819 4.67407 7.6577C4.49284 7.52721 4.27314 7.46115 4.05 7.47003H2C1.73478 7.47003 1.48043 7.57538 1.29289 7.76292C1.10536 7.95046 1 8.20481 1 8.47003C1 8.73524 1.10536 8.98959 1.29289 9.17713C1.48043 9.36467 1.73478 9.47003 2 9.47003H3.34L4.81 14.56C4.80576 14.5899 4.80576 14.6202 4.81 14.65L6.09 17.48C5.72114 17.7669 5.4244 18.136 5.22343 18.5579C5.02246 18.9797 4.92282 19.4427 4.93244 19.9099C4.94206 20.3771 5.06069 20.8355 5.27886 21.2488C5.49703 21.662 5.80872 22.0185 6.18908 22.29C6.56943 22.5614 7.00794 22.7403 7.46965 22.8123C7.93136 22.8843 8.4035 22.8474 8.84844 22.7046C9.29338 22.5618 9.69881 22.3171 10.0324 21.9899C10.366 21.6627 10.6186 21.2621 10.77 20.82H15.51C15.75 21.4814 16.2148 22.0374 16.8231 22.3908C17.4315 22.7442 18.1447 22.8726 18.8381 22.7534C19.5315 22.6343 20.161 22.2752 20.6165 21.739C21.072 21.2028 21.3245 20.5236 21.33 19.82C21.3283 19.3065 21.1902 18.8027 20.93 18.36C21.5706 17.6649 22.1062 16.8799 22.52 16.03L23.17 14.67C23.2578 14.518 23.304 14.3456 23.304 14.17C23.304 13.9945 23.2578 13.822 23.17 13.67C23.0708 13.5407 22.9415 13.4375 22.7934 13.3695C22.6453 13.3016 22.4827 13.2708 22.32 13.28ZM8 20.87C7.80222 20.87 7.60888 20.8114 7.44443 20.7015C7.27998 20.5916 7.15181 20.4354 7.07612 20.2527C7.00043 20.07 6.98063 19.8689 7.01921 19.6749C7.0578 19.481 7.15304 19.3028 7.29289 19.1629C7.43275 19.0231 7.61093 18.9278 7.80491 18.8892C7.99889 18.8507 8.19996 18.8705 8.38268 18.9461C8.56541 19.0218 8.72159 19.15 8.83147 19.3145C8.94135 19.4789 9 19.6722 9 19.87C9 20.1352 8.89464 20.3896 8.70711 20.5771C8.51957 20.7647 8.26522 20.87 8 20.87ZM18.38 20.87C18.1822 20.87 17.9889 20.8114 17.8244 20.7015C17.66 20.5916 17.5318 20.4354 17.4561 20.2527C17.3804 20.07 17.3606 19.8689 17.3992 19.6749C17.4378 19.481 17.533 19.3028 17.6729 19.1629C17.8127 19.0231 17.9909 18.9278 18.1849 18.8892C18.3789 18.8507 18.58 18.8705 18.7627 18.9461C18.9454 19.0218 19.1016 19.15 19.2115 19.3145C19.3214 19.4789 19.38 19.6722 19.38 19.87C19.38 20.0013 19.3541 20.1314 19.3039 20.2527C19.2536 20.374 19.18 20.4843 19.0871 20.5771C18.9942 20.67 18.884 20.7437 18.7627 20.7939C18.6414 20.8442 18.5113 20.87 18.38 20.87V20.87ZM19.5 17.08C19.1598 16.9432 18.7967 16.872 18.43 16.87C17.8111 16.8718 17.2078 17.0649 16.7029 17.423C16.1981 17.781 15.8163 18.2865 15.61 18.87H10.82C10.616 18.2928 10.2404 17.7919 9.74342 17.4344C9.24649 17.0769 8.65209 16.8799 8.04 16.87L7.32 15.28H20.73C20.4115 15.9377 19.997 16.5443 19.5 17.08V17.08ZM14.14 12.24H22.37C22.6352 12.24 22.8896 12.1347 23.0771 11.9471C23.2646 11.7596 23.37 11.5052 23.37 11.24C23.37 10.0232 23.1297 8.81843 22.6628 7.69477C22.196 6.5711 21.5118 5.55071 20.6495 4.69218C19.7873 3.83364 18.7639 3.15386 17.6383 2.69187C16.5126 2.22987 15.3068 1.99476 14.09 2.00003C13.8248 2.00003 13.5704 2.10538 13.3829 2.29292C13.1954 2.48045 13.09 2.73481 13.09 3.00003V11.24C13.09 11.5052 13.1954 11.7596 13.3829 11.9471C13.5704 12.1347 13.8248 12.24 14.09 12.24H14.14ZM15.14 4.07003C16.6983 4.28806 18.1429 5.00852 19.2547 6.12204C20.3664 7.23557 21.0845 8.68137 21.3 10.24H15.09L15.14 4.07003Z" fill="#333333"/>
</g>
</svg>
