<svg width="24" height="24" viewBox="0 0 24 24" fill="none" xmlns="http://www.w3.org/2000/svg">
<g id="child">
<path id="Vector" d="M12.35 12.79C13.5152 12.7873 14.6318 12.3226 15.4548 11.4977C16.2778 10.6729 16.74 9.55521 16.74 8.38999C16.7242 7.2352 16.2551 6.13289 15.4338 5.32094C14.6125 4.50899 13.5049 4.05251 12.35 4.04999C11.1864 4.0393 10.066 4.48994 9.23395 5.3033C8.40185 6.11666 7.92581 7.22651 7.90999 8.38999C7.90996 8.97119 8.02509 9.54663 8.2487 10.0831C8.47232 10.6195 8.80001 11.1064 9.21283 11.5155C9.62565 11.9246 10.1154 12.2479 10.6539 12.4666C11.1924 12.6854 11.7688 12.7953 12.35 12.79V12.79ZM12.35 5.99999C12.6638 5.99999 12.9746 6.06181 13.2646 6.18192C13.5546 6.30203 13.818 6.47807 14.04 6.7C14.2619 6.92194 14.438 7.18541 14.5581 7.47538C14.6782 7.76535 14.74 8.07613 14.74 8.38999C14.7413 8.70469 14.6805 9.01655 14.5609 9.30767C14.4414 9.5988 14.2656 9.86345 14.0435 10.0864C13.8215 10.3094 13.5575 10.4864 13.2669 10.6071C12.9763 10.7278 12.6647 10.79 12.35 10.79C11.7135 10.79 11.103 10.5371 10.6529 10.087C10.2028 9.63696 9.94999 9.02651 9.94999 8.38999C9.96565 7.76393 10.2254 7.16878 10.6738 6.73159C11.1222 6.2944 11.7237 6.04979 12.35 6.04999V5.99999ZM18.66 17.89L18.18 16.05C18.0855 15.6686 17.894 15.3182 17.6242 15.0326C17.3544 14.747 17.0154 14.536 16.64 14.42C13.8397 13.5702 10.8503 13.5702 8.04999 14.42C7.67736 14.541 7.34109 14.7537 7.07202 15.0385C6.80295 15.3233 6.6097 15.6711 6.50999 16.05L6.02999 17.88C5.99253 18.0276 5.98928 18.1818 6.02048 18.3308C6.05167 18.4799 6.11649 18.6198 6.20999 18.74C6.30315 18.861 6.42278 18.9591 6.55972 19.0267C6.69666 19.0943 6.84727 19.1296 6.99999 19.13H17.7C17.8527 19.1296 18.0033 19.0943 18.1403 19.0267C18.2772 18.9591 18.3968 18.861 18.49 18.74C18.5803 18.6201 18.6424 18.4815 18.6719 18.3344C18.7013 18.1872 18.6972 18.0353 18.66 17.89V17.89ZM8.28999 17.14L8.44999 16.57C8.45946 16.5213 8.48087 16.4757 8.51228 16.4373C8.54369 16.3989 8.58414 16.3689 8.62999 16.35C11.0514 15.6099 13.6386 15.6099 16.06 16.35V16.35C16.107 16.3658 16.1491 16.3935 16.1824 16.4302C16.2156 16.467 16.2389 16.5117 16.25 16.56L16.4 17.14H8.28999Z" fill="#333333"/>
</g>
</svg>
