<?xml version="1.0" encoding="UTF-8"?>
<svg width="24px" height="24px" viewBox="0 0 24 24" version="1.1" xmlns="http://www.w3.org/2000/svg" xmlns:xlink="http://www.w3.org/1999/xlink">
    <!-- Generator: Sketch 62 (91390) - https://sketch.com -->
    <title>sui-final/icons/24px/amenities/amenities-amenities</title>
    <desc>Created with Sketch.</desc>
    <g id="sui-final/icons/24px/amenities/amenities-amenities" stroke="none" stroke-width="1" fill="none" fill-rule="evenodd">
        <path d="M22.7765524,15.516881 L23.6715714,16.4130997 C24.1418762,16.8822048 24.1418762,17.6416512 23.6715714,18.111956 L22.339,19.443 L22.3628761,19.466362 C22.833181,19.9354672 22.833181,20.6961133 22.3628761,21.1652184 L21.443862,22.0842325 C20.9759567,22.5533376 20.2141108,22.5533376 19.7450057,22.0842325 L19.722,22.061 L18.3914395,23.3920879 C17.9211346,23.8623928 17.1604885,23.8623928 16.6925832,23.3920879 L15.7963645,22.497069 L22.7765524,15.516881 Z M21.9013295,11.4302677 L22.7963484,12.3252867 C23.2666533,12.7955915 23.2666533,13.5550379 22.7963484,14.024143 L14.0261226,22.7967683 C13.5558177,23.2646737 12.7951716,23.2646737 12.3272663,22.7967683 L11.4298478,21.9017494 L21.9013295,11.4302677 Z M9.03885148,7.01552079 L16.8924627,14.8679323 L15.1468159,16.6135792 L7.29440438,8.7599679 L9.03885148,7.01552079 Z M11.5576219,1.08656019 L12.4550404,1.98277889 L1.98355874,12.4530608 L1.08853979,11.5580419 C0.618234934,11.087737 0.618234934,10.3282906 1.08853979,9.85918553 L9.85876562,1.08656019 C10.3290705,0.618654849 11.0897166,0.618654849 11.5576219,1.08656019 Z M7.33171683,0.351828827 L8.22793553,1.24804753 L1.24774759,8.22703571 L0.352728645,7.33201677 C-0.117576215,6.86291167 -0.117576215,6.10226554 0.352728645,5.63316044 L1.823,4.162 L1.8008357,4.13922266 C1.33053084,3.6689178 1.33053084,2.90947143 1.8008357,2.44036633 L2.71984979,1.52135224 C3.18775513,1.05224714 3.94840126,1.05224714 4.41870612,1.52135224 L4.44,1.543 L5.6328605,0.351828827 C6.10316536,-0.117276276 6.86381148,-0.117276276 7.33171683,0.351828827 Z" id="Fill-3" fill="#717171"></path>
    </g>
</svg>