<svg width="25" height="24" viewBox="0 0 25 24" fill="none" xmlns="http://www.w3.org/2000/svg">
<g id="bathroom">
<path id="amenity-bathroom" fill-rule="evenodd" clip-rule="evenodd" d="M24.5822 10.8217C24.3919 10.5704 24.1451 10.3678 23.862 10.2302C23.5788 10.0925 23.2673 10.0239 22.9527 10.0298H22.153V4.65654C22.1571 4.13207 22.0052 3.61829 21.7166 3.18089C21.428 2.74349 21.0158 2.40235 20.5329 2.20109C20.0499 1.99982 19.518 1.94758 19.0053 2.05105C18.4926 2.15452 18.0222 2.40899 17.6545 2.78192L17.3846 3.05259C16.8741 2.7788 16.3041 2.63556 15.7251 2.63556C15.1462 2.63556 14.5762 2.7788 14.0657 3.05259C13.9691 3.11075 13.887 3.19028 13.8257 3.2851C13.7644 3.37991 13.7256 3.48752 13.7121 3.59969C13.6986 3.71187 13.7108 3.82566 13.7478 3.93237C13.7849 4.03909 13.8457 4.13591 13.9257 4.21545L17.6045 8.07495C17.682 8.15722 17.777 8.22089 17.8824 8.26121C17.9879 8.30153 18.101 8.31747 18.2134 8.30783C18.3259 8.2982 18.4347 8.26324 18.5318 8.20556C18.6288 8.14788 18.7117 8.06897 18.7741 7.97471C19.0886 7.43472 19.2543 6.82064 19.2543 6.19533C19.2543 5.57001 19.0886 4.95594 18.7741 4.41595L19.024 4.1553C19.143 4.03467 19.3047 3.96619 19.4739 3.96484C19.5579 3.96614 19.6409 3.98403 19.718 4.01749C19.7951 4.05094 19.8649 4.09931 19.9234 4.15982C19.9819 4.22032 20.0279 4.29179 20.0588 4.37014C20.0898 4.44849 20.105 4.53218 20.1037 4.61644V9.98967H3.02937C2.71646 9.98537 2.40692 10.0548 2.12564 10.1923C1.84436 10.3299 1.59921 10.5317 1.40991 10.7816C1.22518 11.0178 1.09746 11.2936 1.03676 11.5875C0.976058 11.8815 0.984023 12.1855 1.06003 12.4758L2.61951 18.4906C2.73285 18.9317 2.99261 19.321 3.35601 19.5943C3.71942 19.8676 4.16481 20.0087 4.61884 19.9943H5.3486C5.08347 19.9943 4.8292 20.0999 4.64173 20.2879C4.45426 20.4759 4.34893 20.7309 4.34893 20.9968C4.34893 21.2626 4.45426 21.5176 4.64173 21.7056C4.8292 21.8936 5.08347 21.9992 5.3486 21.9992H21.1633C21.4285 21.9992 21.6827 21.8936 21.8702 21.7056C22.0577 21.5176 22.163 21.2626 22.163 20.9968C22.163 20.7309 22.0577 20.4759 21.8702 20.2879C21.6827 20.0999 21.4285 19.9943 21.1633 19.9943H21.3932C21.8473 20.0087 22.2927 19.8676 22.6561 19.5943C23.0195 19.321 23.2792 18.9317 23.3926 18.4906L24.9421 12.4758C25.011 12.1908 25.0145 11.8937 24.9521 11.6072C24.8898 11.3206 24.7633 11.052 24.5822 10.8217V10.8217ZM21.4432 17.9994H4.54887L3.02937 11.9846H21.0933H22.9927L21.4432 17.9994Z" fill="#333333"/>
</g>
</svg>
