<svg width="24" height="24" viewBox="0 0 24 24" fill="none" xmlns="http://www.w3.org/2000/svg">
<path d="M21.24 1.44C21.0013 1.24957 20.7222 1.11631 20.4241 1.05045C20.1259 0.984577 19.8167 0.987847 19.52 1.06C17 1.67 15 3.83 15 5.88V13.27C15 14.0656 15.3161 14.8287 15.8787 15.3913C16.4413 15.9539 17.2044 16.27 18 16.27H20V22C20 22.2652 20.1054 22.5196 20.2929 22.7071C20.4804 22.8946 20.7348 23 21 23C21.2652 23 21.5196 22.8946 21.7071 22.7071C21.8946 22.5196 22 22.2652 22 22V3C21.9986 2.69959 21.9296 2.40335 21.798 2.13328C21.6664 1.86321 21.4757 1.62625 21.24 1.44V1.44ZM20 14.27H18C17.7348 14.27 17.4804 14.1646 17.2929 13.9771C17.1054 13.7896 17 13.5352 17 13.27V5.88C17 4.88 18.28 3.42 20 3.01V14.27ZM11 1C10.7348 1 10.4804 1.10536 10.2929 1.29289C10.1054 1.48043 10 1.73478 10 2V8.39C10 8.5 10 8.61 10 8.72H8.1V2C8.1 1.73478 7.99464 1.48043 7.80711 1.29289C7.61957 1.10536 7.36522 1 7.1 1C6.83478 1 6.58043 1.10536 6.39289 1.29289C6.20536 1.48043 6.1 1.73478 6.1 2V8.77H4C4 8.66 4 8.55 4 8.44V2C4 1.73478 3.89464 1.48043 3.70711 1.29289C3.51957 1.10536 3.26522 1 3 1C2.73478 1 2.48043 1.10536 2.29289 1.29289C2.10536 1.48043 2 1.73478 2 2V8.39C2.00195 9.55854 2.41311 10.6895 3.16209 11.5864C3.91107 12.4834 4.95055 13.0897 6.1 13.3V22C6.1 22.2652 6.20536 22.5196 6.39289 22.7071C6.58043 22.8946 6.83478 23 7.1 23C7.36522 23 7.61957 22.8946 7.80711 22.7071C7.99464 22.5196 8.1 22.2652 8.1 22V13.26C9.20587 13.0106 10.1942 12.3928 10.9028 11.5079C11.6114 10.6231 11.9983 9.52364 12 8.39V2C12 1.73478 11.8946 1.48043 11.7071 1.29289C11.5196 1.10536 11.2652 1 11 1Z" fill="#333333"/>
</svg>
