<?xml version="1.0" encoding="UTF-8"?>
<svg width="24px" height="24px" viewBox="0 0 24 24" version="1.1" xmlns="http://www.w3.org/2000/svg" xmlns:xlink="http://www.w3.org/1999/xlink">
    <!-- Generator: Sketch 62 (91390) - https://sketch.com -->
    <title>sui-final/icons/24px/amenities/amenities-room</title>
    <desc>Created with Sketch.</desc>
    <g id="sui-final/icons/24px/amenities/amenities-room" stroke="none" stroke-width="1" fill="none" fill-rule="evenodd">
        <path d="M-0.0005,4.2054 L-0.0005,18.5684 C-0.0005,18.8734 0.1855,19.1474 0.4675,19.2614 L11.7205,23.8004 C11.8995,23.8724 12.1005,23.8724 12.2795,23.8004 L23.5325,19.2614 C23.8145,19.1474 23.9995,18.8734 23.9995,18.5684 L23.9995,4.2054 C23.9995,3.8784 23.7875,3.5894 23.4755,3.4924 L12.5475,0.0834 C12.1905,-0.0276 11.8095,-0.0276 11.4525,0.0834 L0.5245,3.4924 C0.2125,3.5894 -0.0005,3.8784 -0.0005,4.2054 L-0.0005,4.2054 Z M10.8005,3.1764 L10.8005,14.1064 C10.8005,14.2394 10.7185,14.3584 10.5955,14.4064 L2.8375,17.4214 C2.6265,17.5034 2.3995,17.3484 2.3995,17.1224 L2.3995,5.7534 C2.3995,5.5494 2.5315,5.3694 2.7265,5.3074 L10.3815,2.8704 C10.5885,2.8044 10.8005,2.9584 10.8005,3.1764 L10.8005,3.1764 Z M13.6185,2.8744 L21.2735,5.3074 C21.4685,5.3694 21.6005,5.5494 21.6005,5.7534 L21.6005,17.1224 C21.6005,17.3484 21.3725,17.5034 21.1625,17.4214 L19.4985,16.7744 C19.3185,16.7044 19.1995,16.5314 19.1995,16.3384 L19.1995,8.2034 C19.1995,7.9994 19.0675,7.8184 18.8735,7.7574 L16.0185,6.8534 C15.8115,6.7884 15.6005,6.9424 15.6005,7.1594 L15.6005,14.7904 C15.6005,15.0164 15.3725,15.1714 15.1625,15.0894 L13.4045,14.4064 C13.2815,14.3584 13.1995,14.2394 13.1995,14.1064 L13.1995,3.1814 C13.1995,2.9634 13.4115,2.8094 13.6185,2.8744 L13.6185,2.8744 Z M8.3995,6.7214 L4.8005,7.8604 L4.8005,13.1264 L8.3995,11.7084 L8.3995,6.7214 Z" id="Fill-1" fill="#333333"></path>
    </g>
</svg>