<?xml version="1.0" encoding="UTF-8"?>
<svg width="24px" height="24px" viewBox="0 0 24 24" version="1.1" xmlns="http://www.w3.org/2000/svg" xmlns:xlink="http://www.w3.org/1999/xlink">
    <!-- Generator: Sketch 62 (91390) - https://sketch.com -->
    <title>sui-final/icons/24px/amenities/amenities-floorplan</title>
    <desc>Created with Sketch.</desc>
    <g id="sui-final/icons/24px/amenities/amenities-floorplan" stroke="none" stroke-width="1" fill="none" fill-rule="evenodd">
        <path d="M21.6,0 C22.9254834,0 24,1.0745166 24,2.4 L24,21.6 C24,22.9254834 22.9254834,24 21.6,24 L2.4,24 C1.0745166,24 0,22.9254834 0,21.6 L0,2.4 C0,1.0745166 1.0745166,0 2.4,0 L21.6,0 Z M2.4,21.6 L9.6,21.6 L9.6,16.8201116 L11.6,16.8201116 L11.6,21.6 L21.6,21.6 L21.6,12.799 L14.4,12.8 L14.4,10.8 L21.6,10.799 L21.6,2.4 L11.6,2.4 L11.6,7.19770131 L9.6,7.19770131 L9.6,2.4 L2.4,2.4 L2.4,10.799 L9.599,10.7997013 L9.6,9.01663696 L11.6,9.01663696 L11.6,14.983363 L9.6,14.983363 L9.599,12.7997013 L2.4,12.799 L2.4,21.6 Z" id="Combined-Shape" fill="#717171"></path>
    </g>
</svg>