<svg width="24" height="24" viewBox="0 0 24 24" fill="none" xmlns="http://www.w3.org/2000/svg">
    <path fill-rule="evenodd" clip-rule="evenodd" d="M17 2H7V22H17V2ZM7 0C5.89543 0 5 0.89543 5 2V22C5 23.1046 5.89543 24 7 24H17C18.1046 24 19 23.1046 19 22V2C19 0.895431 18.1046 0 17 0H7Z" fill="#333333"/>
    <path fill-rule="evenodd" clip-rule="evenodd" d="M5 8H4L4 22H5V8ZM4 6C2.89543 6 2 6.89543 2 8V22C2 23.1046 2.89543 24 4 24H7V6H4Z" fill="#333333"/>
    <path fill-rule="evenodd" clip-rule="evenodd" d="M20 8H19V22H20V8ZM17 6V24H20C21.1046 24 22 23.1046 22 22V8C22 6.89543 21.1046 6 20 6H17Z" fill="#333333"/>
    <path fill-rule="evenodd" clip-rule="evenodd" d="M13 18H11V22H13V18ZM11 16C9.89543 16 9 16.8954 9 18V22C9 23.1046 9.89543 24 11 24H13C14.1046 24 15 23.1046 15 22V18C15 16.8954 14.1046 16 13 16H11Z" fill="#333333"/>
    <path fill-rule="evenodd" clip-rule="evenodd" d="M9 5C9 4.44772 9.44772 4 10 4H14C14.5523 4 15 4.44772 15 5C15 5.55228 14.5523 6 14 6H10C9.44772 6 9 5.55228 9 5Z" fill="#333333"/>
    <path fill-rule="evenodd" clip-rule="evenodd" d="M9 9C9 8.44772 9.44772 8 10 8H14C14.5523 8 15 8.44772 15 9C15 9.55228 14.5523 10 14 10H10C9.44772 10 9 9.55228 9 9Z" fill="#333333"/>
    <path fill-rule="evenodd" clip-rule="evenodd" d="M9 13C9 12.4477 9.44772 12 10 12H14C14.5523 12 15 12.4477 15 13C15 13.5523 14.5523 14 14 14H10C9.44772 14 9 13.5523 9 13Z" fill="#333333"/>
</svg>
