<?xml version="1.0" encoding="UTF-8"?>
<svg width="24px" height="24px" viewBox="0 0 24 24" version="1.1" xmlns="http://www.w3.org/2000/svg" xmlns:xlink="http://www.w3.org/1999/xlink">
    <!-- Generator: Sketch 62 (91390) - https://sketch.com -->
    <title>sui-final/icons/24px/amenities/amenities-room-size</title>
    <desc>Created with Sketch.</desc>
    <g id="sui-final/icons/24px/amenities/amenities-room-size" stroke="none" stroke-width="1" fill="none" fill-rule="evenodd">
        <path d="M7,16 C7.55228475,16 8,16.4477153 8,17 L8,20 L16,20 L16,17 C16,16.4477153 16.4477153,16 17,16 L20,16 L20,8 L17,8 C16.4477153,8 16,7.55228475 16,7 L16,4 L8,4 L8,7 C8,7.55228475 7.55228475,8 7,8 L4,8 L4,16 L7,16 Z M8,23 C8,23.5522847 7.55228475,24 7,24 L1,24 C0.44771525,24 6.76353751e-17,23.5522847 0,23 L0,17 C-6.76353751e-17,16.4477153 0.44771525,16 1,16 L2,16 L2,8 L1,8 C0.44771525,8 6.76353751e-17,7.55228475 0,7 L0,1 C-6.76353751e-17,0.44771525 0.44771525,1.01453063e-16 1,0 L7,0 C7.55228475,-1.01453063e-16 8,0.44771525 8,1 L8,2 L16,2 L16,1 C16,0.44771525 16.4477153,1.01453063e-16 17,0 L23,0 C23.5522847,-1.01453063e-16 24,0.44771525 24,1 L24,7 C24,7.55228475 23.5522847,8 23,8 L22,8 L22,16 L23,16 C23.5522847,16 24,16.4477153 24,17 L24,23 C24,23.5522847 23.5522847,24 23,24 L17,24 C16.4477153,24 16,23.5522847 16,23 L16,22 L8,22 L8,23 Z" id="icon-areaSize" fill="#717171"></path>
    </g>
</svg>