<svg width="24" height="24" viewBox="0 0 24 24" fill="none" xmlns="http://www.w3.org/2000/svg">
<g id="car">
<path id="amenity-car" d="M20.77 9.15L19.58 5.6C19.3297 4.84305 18.847 4.18432 18.2007 3.71753C17.5544 3.25073 16.7773 2.99965 15.98 3H7.98002C7.18275 2.99965 6.40567 3.25073 5.75934 3.71753C5.11301 4.18432 4.63035 4.84305 4.38002 5.6L3.22002 9.15C2.85695 9.30377 2.54743 9.56142 2.33037 9.89058C2.1133 10.2197 1.99837 10.6057 2.00002 11V15.9C2.00633 16.4545 2.16078 16.9972 2.44737 17.4719C2.73397 17.9467 3.14228 18.3361 3.63002 18.6V20C3.63002 20.2652 3.73537 20.5196 3.92291 20.7071C4.11045 20.8946 4.3648 21 4.63002 21C4.89523 21 5.14959 20.8946 5.33712 20.7071C5.52466 20.5196 5.63002 20.2652 5.63002 20V19H18.36V20C18.36 20.2652 18.4654 20.5196 18.6529 20.7071C18.8404 20.8946 19.0948 21 19.36 21C19.6252 21 19.8796 20.8946 20.0671 20.7071C20.2547 20.5196 20.36 20.2652 20.36 20V18.6C20.8489 18.3366 21.2587 17.9475 21.547 17.4729C21.8353 16.9983 21.9917 16.4553 22 15.9V11C22.0008 10.6046 21.8844 10.2178 21.6655 9.88851C21.4466 9.55923 21.135 9.30224 20.77 9.15ZM6.31002 6.23C6.42654 5.87133 6.65397 5.55894 6.95951 5.33787C7.26504 5.11681 7.6329 4.9985 8.01002 5H16.01C16.3871 4.9985 16.755 5.11681 17.0605 5.33787C17.3661 5.55894 17.5935 5.87133 17.71 6.23L18.64 9H5.38002L6.31002 6.23ZM20 15.9C19.9896 16.1954 19.865 16.4751 19.6523 16.6804C19.4396 16.8856 19.1556 17.0002 18.86 17H5.13002C4.83545 17.0001 4.55248 16.8852 4.34141 16.6797C4.13033 16.4742 4.00784 16.1945 4.00002 15.9V11H20V15.9ZM7.42002 15.53C7.71669 15.53 8.0067 15.442 8.25337 15.2772C8.50005 15.1124 8.6923 14.8781 8.80584 14.604C8.91937 14.3299 8.94907 14.0283 8.89119 13.7374C8.83332 13.4464 8.69046 13.1791 8.48068 12.9693C8.2709 12.7596 8.00362 12.6167 7.71265 12.5588C7.42168 12.5009 7.12008 12.5307 6.84599 12.6442C6.5719 12.7577 6.33764 12.95 6.17281 13.1966C6.00799 13.4433 5.92002 13.7333 5.92002 14.03C5.92002 14.4278 6.07805 14.8094 6.35936 15.0907C6.64066 15.372 7.02219 15.53 7.42002 15.53V15.53ZM16.57 15.53C16.8667 15.53 17.1567 15.442 17.4034 15.2772C17.65 15.1124 17.8423 14.8781 17.9558 14.604C18.0694 14.3299 18.0991 14.0283 18.0412 13.7374C17.9833 13.4464 17.8405 13.1791 17.6307 12.9693C17.4209 12.7596 17.1536 12.6167 16.8627 12.5588C16.5717 12.5009 16.2701 12.5307 15.996 12.6442C15.7219 12.7577 15.4876 12.95 15.3228 13.1966C15.158 13.4433 15.07 13.7333 15.07 14.03C15.07 14.4278 15.2281 14.8094 15.5094 15.0907C15.7907 15.372 16.1722 15.53 16.57 15.53V15.53Z" fill="#333333"/>
</g>
</svg>
