<svg width="25" height="24" viewBox="0 0 25 24" fill="none" xmlns="http://www.w3.org/2000/svg">
<g id="guests">
<path id="Vector" d="M9.97995 13.08C10.9689 13.08 11.9356 12.7867 12.7578 12.2373C13.58 11.6879 14.2209 10.907 14.5993 9.9934C14.9778 9.07977 15.0768 8.07444 14.8839 7.10453C14.6909 6.13463 14.2147 5.24372 13.5155 4.54445C12.8162 3.84519 11.9253 3.36899 10.9554 3.17606C9.98549 2.98313 8.98016 3.08215 8.06653 3.46059C7.1529 3.83902 6.37201 4.47989 5.8226 5.30214C5.27319 6.12438 4.97995 7.09108 4.97995 8.07999C4.97995 9.40607 5.50673 10.6778 6.44441 11.6155C7.3821 12.5532 8.65387 13.08 9.97995 13.08ZM9.97995 5.14999C10.5733 5.14999 11.1533 5.32593 11.6467 5.65558C12.14 5.98522 12.5245 6.45376 12.7516 7.00193C12.9786 7.55011 13.0381 8.15331 12.9223 8.73526C12.8065 9.3172 12.5208 9.85175 12.1013 10.2713C11.6817 10.6909 11.1472 10.9766 10.5652 11.0923C9.98328 11.2081 9.38008 11.1487 8.8319 10.9216C8.28372 10.6946 7.81518 10.31 7.48554 9.8167C7.15589 9.32335 6.97995 8.74333 6.97995 8.14999C6.97995 7.35434 7.29602 6.59128 7.85863 6.02867C8.42124 5.46606 9.1843 5.14999 9.97995 5.14999V5.14999ZM18.2099 17.05C18.082 16.5624 17.8308 16.116 17.4806 15.7535C17.1304 15.391 16.6928 15.1246 16.2099 14.98C12.1204 13.75 7.75947 13.75 3.66995 14.98C3.18618 15.1229 2.74767 15.3887 2.39717 15.7514C2.04667 16.1142 1.79612 16.5616 1.66995 17.05L1.02995 19.72C0.991108 19.8668 0.986231 20.0206 1.01569 20.1696C1.04514 20.3186 1.10816 20.459 1.19995 20.58C1.29516 20.7005 1.41685 20.7975 1.55559 20.8634C1.69432 20.9293 1.84637 20.9623 1.99995 20.96H17.9999C18.1518 20.9608 18.3019 20.927 18.4388 20.8612C18.5757 20.7953 18.6958 20.6992 18.7899 20.58C18.8817 20.459 18.9448 20.3186 18.9742 20.1696C19.0037 20.0206 18.9988 19.8668 18.9599 19.72L18.2099 17.05ZM3.28995 19.05L3.67995 17.58C3.7227 17.4271 3.80123 17.2866 3.90904 17.1701C4.01685 17.0536 4.15084 16.9644 4.29995 16.91C8.00722 15.7901 11.9627 15.7901 15.6699 16.91C15.8172 16.9658 15.9492 17.0555 16.0552 17.1719C16.1612 17.2884 16.2382 17.4282 16.2799 17.58L16.6699 19.05H3.28995ZM15.8299 12.05C16.9496 11.9336 17.9855 11.4036 18.735 10.5638C19.4845 9.72392 19.8937 8.63462 19.8824 7.50901C19.8711 6.3834 19.4403 5.3025 18.6741 4.4778C17.908 3.6531 16.8617 3.14396 15.7399 3.04999C15.5999 3.04999 15.4799 3.04999 15.3399 3.04999C16.4013 4.2868 17.0247 5.8394 17.1133 7.46678C17.2019 9.09415 16.7508 10.7053 15.8299 12.05ZM24.9699 18.67L24.3699 16.39C24.2825 16.004 24.0965 15.6473 23.8301 15.3546C23.5637 15.0619 23.226 14.8433 22.8499 14.72C21.3582 14.2773 19.8281 13.976 18.2799 13.82C19.399 14.5407 20.2086 15.6534 20.5499 16.94L21.2499 19.56H24.2499C24.3609 19.5581 24.4701 19.5316 24.5697 19.4824C24.6692 19.4332 24.7565 19.3625 24.8254 19.2755C24.8943 19.1884 24.943 19.0871 24.968 18.979C24.993 18.8708 24.9936 18.7584 24.9699 18.65V18.67Z" fill="#333333"/>
</g>
</svg>
