<svg width="24" height="24" viewBox="0 0 24 24" fill="none" xmlns="http://www.w3.org/2000/svg">
<g id="bedroom">
<path id="Vector" d="M22 9H21V6C21 5.46957 20.7893 4.96086 20.4142 4.58579C20.0391 4.21072 19.5304 4 19 4H5C4.46957 4 3.96086 4.21072 3.58579 4.58579C3.21071 4.96086 3 5.46957 3 6V9H2C1.46957 9 0.960859 9.21072 0.585786 9.58579C0.210714 9.96086 0 10.4696 0 11L0 16C0 16.5304 0.210714 17.0391 0.585786 17.4142C0.960859 17.7893 1.46957 18 2 18H3V19C3 19.2652 3.10536 19.5196 3.29289 19.7071C3.48043 19.8946 3.73478 20 4 20C4.26522 20 4.51957 19.8946 4.70711 19.7071C4.89464 19.5196 5 19.2652 5 19V18H19V19C19 19.2652 19.1054 19.5196 19.2929 19.7071C19.4804 19.8946 19.7348 20 20 20C20.2652 20 20.5196 19.8946 20.7071 19.7071C20.8946 19.5196 21 19.2652 21 19V18H22C22.5304 18 23.0391 17.7893 23.4142 17.4142C23.7893 17.0391 24 16.5304 24 16V11C24 10.4696 23.7893 9.96086 23.4142 9.58579C23.0391 9.21072 22.5304 9 22 9ZM19 9H13V6H19V9ZM5 6H11V9H5V6ZM22 16H2V11H22V16Z" fill="#333333"/>
</g>
</svg>
