<?xml version="1.0" encoding="UTF-8"?>
<svg width="24px" height="24px" viewBox="0 0 24 24" version="1.1" xmlns="http://www.w3.org/2000/svg" xmlns:xlink="http://www.w3.org/1999/xlink">
    <!-- Generator: Sketch 62 (91390) - https://sketch.com -->
    <title>sui-final/icons/24px/amenities/amenities-view</title>
    <desc>Created with Sketch.</desc>
    <g id="sui-final/icons/24px/amenities/amenities-view" stroke="none" stroke-width="1" fill="none" fill-rule="evenodd">
        <path d="M21.7309811,9.84035226 L18.3289527,10.5399581 L18.3289527,4.20270527 L21.7309811,2.82989383 L21.7309811,9.84035226 Z M21.7309811,21.1696467 L18.3289527,19.7980352 L18.3289527,12.8715775 L21.7309811,12.1719717 L21.7309811,21.1696467 Z M7.93686614,19.4284322 L16.0597338,19.4284322 L16.0597338,4.57110834 L7.93686614,4.57110834 L7.93686614,19.4284322 Z M5.66884724,10.5399581 L2.26681889,9.84035226 L2.26681889,2.82989383 L5.66884724,4.20270527 L5.66884724,10.5399581 Z M5.66884724,19.7980352 L2.26681889,21.1696467 L2.26681889,12.1719717 L5.66884724,12.8715775 L5.66884724,19.7980352 Z M23.5009958,0.197071893 C23.1889932,-0.0153298776 22.7893899,-0.0597302476 22.444987,0.0818709325 L16.9753415,2.2862893 L7.02245852,2.2862893 L1.55401295,0.0818709325 C1.20841007,-0.0561302176 0.81000675,-0.0141298676 0.49800415,0.197071893 C0.18600155,0.410673673 -1.77635684e-15,0.764676623 -1.77635684e-15,1.14267977 L-1.77635684e-15,22.8580607 C-1.77635684e-15,23.2360639 0.18600155,23.5900668 0.49800415,23.8036686 C0.68760573,23.9332697 0.90840757,24.0004703 1.13280944,24.0004703 C1.27561063,24.0004703 1.41841182,23.97287 1.55401295,23.9176696 L7.02245852,21.7144512 L16.9753415,21.7144512 L22.444987,23.9176696 C22.5793882,23.97287 22.7221894,24.0004703 22.8649905,24.0004703 C23.0893924,24.0004703 23.3101943,23.9332697 23.5009958,23.8036686 C23.8117984,23.5900668 23.999,23.2360639 23.999,22.8580607 L23.999,1.14267977 C23.999,0.764676623 23.8117984,0.410673673 23.5009958,0.197071893 L23.5009958,0.197071893 Z" id="Fill-1" fill="#717171"></path>
    </g>
</svg>