<?xml version="1.0" encoding="UTF-8"?>
<svg width="24px" height="24px" viewBox="0 0 24 24" version="1.1" xmlns="http://www.w3.org/2000/svg" xmlns:xlink="http://www.w3.org/1999/xlink">
    <title>sui-final/icons/24px/amenities/amenities-adult</title>
    <g id="sui-final/icons/24px/amenities/amenities-adult" stroke="none" stroke-width="1" fill="none" fill-rule="evenodd">
        <path d="M15.7075,10.0001 L8.2925,10.0001 C5.9225,10.0001 3.9995,11.9221 3.9995,14.2931 L3.9995,22.9331 L7.0225,22.9331 L7.0225,14.6511 L7.5225,14.6511 L7.5225,22.9331 L16.4775,22.9331 L16.4775,14.6511 L16.9775,14.6511 L16.9775,22.9331 L19.9995,22.9331 L19.9995,14.2931 C19.9995,11.9221 18.0775,10.0001 15.7075,10.0001 M11.9995,9.0001 C14.2095,9.0001 15.9995,7.2091 15.9995,5.0001 C15.9995,2.7911 14.2095,1.0001 11.9995,1.0001 C9.7905,1.0001 7.9995,2.7911 7.9995,5.0001 C7.9995,7.2091 9.7905,9.0001 11.9995,9.0001" id="Fill-1" fill="#333333"></path>
    </g>
</svg>