<svg width="24" height="24" viewBox="0 0 24 24" fill="none" xmlns="http://www.w3.org/2000/svg">
<g id="beach">
<g id="Vector">
<path d="M21.4245 5.20267C21.4166 4.97135 21.3617 4.74411 21.2633 4.53504C21.1648 4.32596 21.0249 4.1395 20.8521 3.98717C18.562 2.00249 15.6129 0.964122 12.5958 1.08015C9.57877 1.19619 6.71664 2.45805 4.58297 4.61286C2.44931 6.76768 1.20176 9.65626 1.09032 12.6997C0.978876 15.7432 2.01178 18.7168 3.98204 21.0245C4.13113 21.1985 4.31421 21.3396 4.51982 21.4389C4.72544 21.5382 4.94916 21.5937 5.17701 21.6018H5.23726C5.69262 21.6012 6.12931 21.4192 6.4523 21.0954L20.9224 6.47895C21.087 6.31127 21.2162 6.1118 21.3025 5.89249C21.3888 5.67318 21.4303 5.43855 21.4245 5.20267ZM9.71585 14.9166C8.19987 13.3406 6.97861 11.5013 6.11088 9.48733C5.46822 7.86666 5.40797 6.57012 5.9703 6.01301C6.53264 5.45591 7.80793 5.50655 9.4146 6.15482C11.4112 7.03011 13.2346 8.26201 14.797 9.7912L9.71585 14.9166ZM5.2473 19.4646C4.08102 18.0238 3.33322 16.2853 3.08684 14.4419C2.84046 12.5985 3.10513 10.7223 3.8515 9.02138C3.95301 9.43549 4.08389 9.84171 4.24313 10.2369C5.20413 12.4925 6.56535 14.5521 8.25981 16.3144L5.2473 19.4646ZM16.2128 8.32247C14.4631 6.61658 12.4219 5.24394 10.1878 4.27079C9.80234 4.11173 9.40642 3.97973 9.00289 3.87575C10.6766 3.13646 12.5199 2.87675 14.3303 3.12513C16.1408 3.37351 17.8484 4.12038 19.2655 5.28371L16.2128 8.32247Z" fill="#333333"/>
<path d="M22.7901 21.3486L15.7007 14.1974C15.6596 14.1636 15.616 14.1331 15.5702 14.1062L14.1945 15.4939C14.221 15.5434 14.2512 15.5909 14.2848 15.6357L21.3743 22.7768C21.5624 22.9655 21.8169 23.0714 22.0822 23.0714C22.3475 23.0714 22.602 22.9655 22.7901 22.7768C22.9772 22.5871 23.0822 22.3303 23.0822 22.0627C23.0822 21.7951 22.9772 21.5384 22.7901 21.3486Z" fill="#333333"/>
</g>
</g>
</svg>
