<svg width="24" height="24" viewBox="0 0 24 24" fill="none" xmlns="http://www.w3.org/2000/svg">
<g id="go-up">
<path id="Fill 1" fill-rule="evenodd" clip-rule="evenodd" d="M21.8212 11.4402C21.3842 11.8772 20.6932 11.9082 20.2202 11.5342L20.1152 11.4402L12.7942 4.11921L12.7932 22.7942C12.7932 23.4602 12.2532 24.0002 11.5872 24.0002C10.9682 24.0002 10.4592 23.5342 10.3882 22.9342L10.3812 22.7942V4.11821L3.05821 11.4402C2.62221 11.8772 1.93121 11.9082 1.45921 11.5342L1.35321 11.4402C0.916211 11.0032 0.884211 10.3132 1.25921 9.83921L1.35321 9.73421L10.7342 0.353211C11.1722 -0.0837892 11.8612 -0.115789 12.3352 0.259211L12.4392 0.353211L21.8212 9.73421C22.2922 10.2052 22.2922 10.9682 21.8212 11.4402Z" fill="#333333"/>
</g>
</svg>
