<?xml version="1.0" encoding="UTF-8"?>
<svg width="24px" height="24px" viewBox="0 0 24 24" version="1.1" xmlns="http://www.w3.org/2000/svg" xmlns:xlink="http://www.w3.org/1999/xlink">
    <!-- Generator: Sketch 62 (91390) - https://sketch.com -->
    <title>sui-final/icons/24px/arrows/arrow-selector</title>
    <desc>Created with Sketch.</desc>
    <g id="sui-final/icons/24px/arrows/arrow-selector" stroke="none" stroke-width="1" fill="none" fill-rule="evenodd">
        <path d="M18.2803,15.209 L11.9933,21.495 L5.7073,15.209 C5.3163,14.818 4.6833,14.818 4.2933,15.209 C3.9023,15.6 3.9023,16.232 4.2933,16.623 L11.2863,23.616 C11.4813,23.812 11.7373,23.909 11.9933,23.909 C12.2493,23.909 12.5053,23.812 12.7003,23.616 L19.6943,16.623 C20.0853,16.232 20.0853,15.6 19.6943,15.209 C19.3033,14.818 18.6713,14.818 18.2803,15.209 M5.7073,8.7 L11.9933,2.414 L18.2803,8.7 C18.4753,8.896 18.7313,8.993 18.9873,8.993 C19.2433,8.993 19.4993,8.896 19.6943,8.7 C20.0853,8.31 20.0853,7.677 19.6943,7.286 L12.7003,0.293 C12.3093,-0.098 11.6763,-0.098 11.2863,0.293 L4.2933,7.286 C3.9023,7.677 3.9023,8.31 4.2933,8.7 C4.6833,9.091 5.3163,9.091 5.7073,8.7" id="Fill-1" fill="#717171"></path>
    </g>
</svg>