<?xml version="1.0" encoding="UTF-8"?>
<svg width="24px" height="24px" viewBox="0 0 24 24" version="1.1" xmlns="http://www.w3.org/2000/svg" xmlns:xlink="http://www.w3.org/1999/xlink">
    <!-- Generator: Sketch 63.1 (92452) - https://sketch.com -->
    <title>sui-final/icons/24px/arrows/arrow-left-alt</title>
    <desc>Created with Sketch.</desc>
    <g id="sui-final/icons/24px/arrows/arrow-left-alt" stroke="none" stroke-width="1" fill="none" fill-rule="evenodd">
        <path d="M19.8492983,11.3195199 C20.2753248,11.7455464 20.2753248,12.4362718 19.8492983,12.8622983 L12.9263875,19.7 C12.500361,20.1260265 11.8096356,20.1260265 11.3836091,19.7 L4.31951988,12.8622983 C3.89349337,12.4362718 3.89349337,11.7455464 4.31951988,11.3195199 C4.74554638,10.8934934 5.43627181,10.8934934 5.86229831,11.3195199 L12.1549983,17.3858324 L18.3065199,11.3195199 C18.7325464,10.8934934 19.4232718,10.8934934 19.8492983,11.3195199 Z M19.8492983,3.31951988 C20.2753248,3.74554638 20.2753248,4.43627181 19.8492983,4.86229831 L12.9263875,11.7 C12.500361,12.1260265 11.8096356,12.1260265 11.3836091,11.7 L4.31951988,4.86229831 C3.89349337,4.43627181 3.89349337,3.74554638 4.31951988,3.31951988 C4.74554638,2.89349337 5.43627181,2.89349337 5.86229831,3.31951988 L12.1549983,9.38583235 L18.3065199,3.31951988 C18.7325464,2.89349337 19.4232718,2.89349337 19.8492983,3.31951988 Z" id="Arrow---up-Copy" fill="#333333" transform="translate(12.084409, 11.509760) scale(1, -1) rotate(-270.000000) translate(-12.084409, -11.509760) "></path>
    </g>
</svg>