<svg width="24" height="24" viewBox="0 0 24 24" fill="none" xmlns="http://www.w3.org/2000/svg">
<g id="go-down">
<path id="Fill 1" fill-rule="evenodd" clip-rule="evenodd" d="M1.35279 12.5603C1.78979 12.1233 2.48079 12.0913 2.95379 12.4663L3.05879 12.5603L10.3798 19.8803L10.3808 1.20633C10.3808 0.539329 10.9208 -0.000671387 11.5868 -0.000671387C12.2058 -0.000671387 12.7148 0.465329 12.7858 1.06533L12.7928 1.20633V19.8813L20.1158 12.5603C20.5518 12.1233 21.2428 12.0913 21.7148 12.4663L21.8208 12.5603C22.2578 12.9973 22.2898 13.6873 21.9148 14.1613L21.8208 14.2653L12.4398 23.6473C12.0018 24.0833 11.3128 24.1153 10.8388 23.7413L10.7348 23.6473L1.35279 14.2653C0.881792 13.7943 0.881792 13.0313 1.35279 12.5603Z" fill="#333333"/>
</g>
</svg>
