<?xml version="1.0" encoding="UTF-8"?>
<svg width="24px" height="24px" viewBox="0 0 24 24" version="1.1" xmlns="http://www.w3.org/2000/svg" xmlns:xlink="http://www.w3.org/1999/xlink">
    <!-- Generator: Sketch 62 (91390) - https://sketch.com -->
    <title>sui-final/icons/24px/arrows/arrow-go-back</title>
    <desc>Created with Sketch.</desc>
    <g id="sui-final/icons/24px/arrows/arrow-go-back" stroke="none" stroke-width="1" fill="none" fill-rule="evenodd">
        <path d="M11.4398257,1.35324702 C11.8771791,1.79060047 11.9084187,2.48028076 11.5335443,2.9536809 L11.4398257,3.0588745 L4.119,10.38 L22.7939392,10.3809512 C23.4600282,10.3809512 24,10.920923 24,11.5870119 C24,12.2055231 23.5344121,12.7152904 22.9345914,12.7849586 L22.7939392,12.7930727 L4.118,12.793 L11.4398257,20.1151494 C11.8771791,20.5525028 11.9084187,21.2421831 11.5335443,21.7155832 L11.4398257,21.8207768 C11.0024722,22.2581303 10.3127919,22.2893698 9.83939178,21.9144954 L9.73419818,21.8207768 L0.353247018,12.4398257 C-0.0841064329,12.0024722 -0.115345965,11.3127919 0.259528422,10.8393918 L0.353247018,10.7341982 L9.73419818,1.35324702 C10.2051942,0.882250994 10.9688296,0.882250994 11.4398257,1.35324702 Z" id="Path-2" fill="#717171"></path>
    </g>
</svg>