<svg width="24" height="24" viewBox="0 0 24 24" fill="none" xmlns="http://www.w3.org/2000/svg">
<path d="M22.0186 17.0079H7.74596C7.50681 16.9802 7.28802 16.8599 7.13648 16.6729C6.98494 16.4858 6.91271 16.2469 6.93524 16.0072V8.3422L9.30735 10.7038C9.49488 10.8901 9.74856 10.9947 10.013 10.9947C10.2774 10.9947 10.5311 10.8901 10.7186 10.7038C10.8998 10.511 10.9973 10.2544 10.9898 9.99003C10.9823 9.72564 10.8704 9.47497 10.6786 9.29282L6.67501 5.29019C6.48748 5.10382 6.23381 4.99921 5.96939 4.99921C5.70496 4.99921 5.45129 5.10382 5.26376 5.29019L1.2602 9.29282C1.09623 9.48425 1.01055 9.73049 1.02028 9.98233C1.03001 10.2342 1.13443 10.4731 1.31269 10.6513C1.49094 10.8295 1.72989 10.9339 1.98179 10.9436C2.23369 10.9533 2.47998 10.8677 2.67146 10.7038L4.93347 8.4923V15.9972C4.91182 16.7672 5.19517 17.5146 5.72188 18.0768C6.24858 18.639 6.97603 18.9705 7.74596 18.9992H22.0186C22.2841 18.9992 22.5387 18.8938 22.7264 18.7061C22.9141 18.5185 23.0195 18.2639 23.0195 17.9985C23.0195 17.7332 22.9141 17.4786 22.7264 17.291C22.5387 17.1033 22.2841 16.9979 22.0186 16.9979V17.0079Z" fill="#333333"/>
</svg>
