<?xml version="1.0" encoding="UTF-8"?>
<svg width="24px" height="24px" viewBox="0 0 24 24" version="1.1" xmlns="http://www.w3.org/2000/svg" xmlns:xlink="http://www.w3.org/1999/xlink">
    <!-- Generator: Sketch 62 (91390) - https://sketch.com -->
    <title>sui-final/icons/24px/arrows/arrow-go-forward</title>
    <desc>Created with Sketch.</desc>
    <g id="sui-final/icons/24px/arrows/arrow-go-forward" stroke="none" stroke-width="1" fill="none" fill-rule="evenodd">
        <path d="M11.4398257,2.35324702 C11.8771791,2.79060047 11.9084187,3.48028076 11.5335443,3.9536809 L11.4398257,4.0588745 L4.119,11.38 L22.7939392,11.3809512 C23.4600282,11.3809512 24,11.920923 24,12.5870119 C24,13.2055231 23.5344121,13.7152904 22.9345914,13.7849586 L22.7939392,13.7930727 L4.118,13.793 L11.4398257,21.1151494 C11.8771791,21.5525028 11.9084187,22.2421831 11.5335443,22.7155832 L11.4398257,22.8207768 C11.0024722,23.2581303 10.3127919,23.2893698 9.83939178,22.9144954 L9.73419818,22.8207768 L0.353247018,13.4398257 C-0.0841064329,13.0024722 -0.115345965,12.3127919 0.259528422,11.8393918 L0.353247018,11.7341982 L9.73419818,2.35324702 C10.2051942,1.88225099 10.9688296,1.88225099 11.4398257,2.35324702 Z" id="Path-2-Copy" fill="#717171" transform="translate(12.000000, 12.587012) rotate(-180.000000) translate(-12.000000, -12.587012) "></path>
    </g>
</svg>