<?xml version="1.0" encoding="UTF-8"?>
<svg width="24px" height="24px" viewBox="0 0 24 24" version="1.1" xmlns="http://www.w3.org/2000/svg" xmlns:xlink="http://www.w3.org/1999/xlink">
    <!-- Generator: Sketch 62 (91390) - https://sketch.com -->
    <title>sui-final/icons/24px/cc/amex/cc-amex-outline</title>
    <desc>Created with Sketch.</desc>
    <g id="sui-final/icons/24px/cc/amex/cc-amex-outline" stroke="none" stroke-width="1" fill="none" fill-rule="evenodd">
        <path d="M4,5 C2.9,5 2,5.875 2,6.94444444 L2,17.0555556 C2,18.125 2.9,19 4,19 L20,19 C21.1,19 22,18.125 22,17.0555556 L22,6.94444444 C22,5.875 21.1,5 20,5 L4,5 Z M4,5.77777778 L20,5.77777778 C20.6671876,5.77777778 21.2,6.29578983 21.2,6.94444444 L21.2,17.0555556 C21.2,17.7042102 20.6671876,18.2222222 20,18.2222222 L4,18.2222222 C3.3328124,18.2222222 2.8,17.7042102 2.8,17.0555556 L2.8,6.94444444 C2.8,6.29578983 3.3328124,5.77777778 4,5.77777778 Z M5.425,10.0190972 L3.9375,13.3246528 L4.825,13.3246528 L5.15,12.5833333 L6.825,12.5833333 L7.15,13.3246528 L8.8375,13.3246528 L8.8375,10.8697917 L9.9625,13.3246528 L10.725,13.3246528 L11.8625,10.90625 L11.8625,13.3246528 L12.7,13.3246528 L12.7,10.0190972 L11.3625,10.0190972 L10.3375,12.2430556 L9.3125,10.0190972 L8,10.0190972 L8,13.203125 L6.5375,10.0190972 L5.425,10.0190972 Z M13.8,10.0190972 L13.8,13.3368056 L17,13.3368056 L18,12.2309028 L18.9875,13.3368056 L20.05,13.3368056 L18.55,11.6354167 L20.05,10.0190972 L18.9875,10.0190972 L18.025,11.0520833 L17.1,10.0190972 L13.8,10.0190972 Z M5.9625,10.7118056 L6.4875,11.8784722 L5.4625,11.8784722 L5.9625,10.7118056 Z M14.625,10.7239583 L16.6625,10.7361111 L17.475,11.6354167 L16.5625,12.6319444 L14.625,12.6319444 L14.625,11.9756944 L16.475,11.9756944 L16.475,11.34375 L14.625,11.34375 L14.625,10.7239583 Z" id="Shape" fill="#333333"></path>
    </g>
</svg>