<?xml version="1.0" encoding="UTF-8"?>
<svg width="24px" height="24px" viewBox="0 0 24 24" version="1.1" xmlns="http://www.w3.org/2000/svg" xmlns:xlink="http://www.w3.org/1999/xlink">
    <!-- Generator: Sketch 62 (91390) - https://sketch.com -->
    <title>sui-final/icons/24px/cc/amex/cc-amex-mono</title>
    <desc>Created with Sketch.</desc>
    <g id="sui-final/icons/24px/cc/amex/cc-amex-mono" stroke="none" stroke-width="1" fill="none" fill-rule="evenodd">
        <path d="M4,5 C2.8968752,5 2,5.871962 2,6.94444444 L2,17.0555556 C2,18.1280384 2.8968752,19 4,19 L20,19 C21.1031252,19 22,18.1280384 22,17.0555556 L22,6.94444444 C22,5.871962 21.1031252,5 20,5 L4,5 Z M5.425,10.0190972 L6.5375,10.0190972 L8,13.203125 L8,10.0190972 L9.3125,10.0190972 L10.3375,12.2430556 L11.3625,10.0190972 L12.7,10.0190972 L12.7,13.3246528 L11.8625,13.3246528 L11.8625,10.90625 L10.725,13.3246528 L9.9625,13.3246528 L8.8375,10.8697917 L8.8375,13.3246528 L7.15,13.3246528 L6.825,12.5954861 L5.15,12.5954861 L4.825,13.3246528 L3.9375,13.3246528 L5.425,10.0190972 Z M13.8,10.0190972 L17.1,10.0190972 L18.025,11.0520833 L18.9875,10.0190972 L20.05,10.0190972 L18.55,11.6354167 L20.05,13.3368056 L18.9875,13.3368056 L18,12.2309028 L16.9875,13.3246528 L13.8,13.3246528 L13.8,10.0190972 Z M5.9625,10.7118056 L5.4625,11.8784722 L6.4875,11.8784722 L5.9625,10.7118056 Z M14.625,10.7239583 L14.625,11.34375 L16.475,11.34375 L16.475,11.9756944 L14.625,11.9756944 L14.625,12.6319444 L16.5625,12.6319444 L17.475,11.6354167 L16.6625,10.7361111 L14.625,10.7239583 Z" id="Shape" fill="#333333"></path>
    </g>
</svg>