<?xml version="1.0" encoding="UTF-8"?>
<svg width="24px" height="24px" viewBox="0 0 24 24" version="1.1" xmlns="http://www.w3.org/2000/svg" xmlns:xlink="http://www.w3.org/1999/xlink">
    <!-- Generator: Sketch 62 (91390) - https://sketch.com -->
    <title>sui-final/icons/24px/cc/cc-abn</title>
    <desc>Created with Sketch.</desc>
    <g id="sui-final/icons/24px/cc/cc-abn" stroke="none" stroke-width="1" fill="none" fill-rule="evenodd">
        <path d="M6.72108256,13.3239533 L6.0408839,11.4070007 C5.99049856,11.2852888 5.93675501,11.1419592 5.87965162,10.9770075 C5.82254824,10.8120559 5.76544571,10.6334944 5.70834233,10.4413178 C5.65795699,10.6366974 5.60421344,10.817661 5.54711006,10.9842141 C5.49000667,11.1507672 5.43626312,11.2948976 5.38587778,11.4166095 L4.71071763,13.3239533 L6.72108256,13.3239533 Z M9.42676168,16 L8.10667242,16 C7.95887543,16 7.83963192,15.9671703 7.74893831,15.90151 C7.65824471,15.8358496 7.58938578,15.7517736 7.54235946,15.6492793 L7.10904772,14.4289636 L4.31771396,14.4289636 L3.88440222,15.6492793 C3.84745297,15.7389618 3.78111327,15.8198349 3.68538113,15.8919012 C3.58964899,15.9639674 3.47124522,16 3.33016627,16 L2,16 L4.84171885,9 L6.58504283,9 L9.42676168,16 Z M12.5484777,14.7748799 C12.7735322,14.7748799 12.9574359,14.7476553 13.1001943,14.6932052 C13.2429528,14.6387552 13.3546386,14.5682914 13.4352552,14.4818119 C13.5158717,14.3953324 13.5712947,14.2976441 13.6015259,14.188744 C13.6317572,14.0798439 13.6468725,13.969344 13.6468725,13.8572409 C13.6468725,13.7291231 13.6292379,13.6138189 13.5939682,13.5113246 C13.5586984,13.4088304 13.498237,13.3223522 13.4125819,13.2518874 C13.3269268,13.1814227 13.2135615,13.1269734 13.0724825,13.0885381 C12.9314036,13.0501028 12.7533781,13.0308854 12.5384006,13.0308854 L11.3493126,13.0308854 L11.3493126,14.7748799 L12.5484777,14.7748799 Z M11.3493126,10.2155113 L11.3493126,11.9450927 L12.2360901,11.9450927 C12.4241954,11.9450927 12.5938235,11.9322811 12.7449795,11.9066575 C12.8961355,11.881034 13.0246162,11.8361934 13.1304254,11.7721345 C13.2362346,11.7080756 13.3168499,11.619996 13.3722738,11.5078929 C13.4276977,11.3957899 13.4554092,11.2548624 13.4554092,11.0851064 C13.4554092,10.9185533 13.4335759,10.780028 13.3899086,10.6695264 C13.3462413,10.5590248 13.2790619,10.4701445 13.1883682,10.4028826 C13.0976746,10.3356208 12.9826298,10.2875774 12.8432304,10.2587509 C12.703831,10.2299244 12.5384016,10.2155113 12.3469373,10.2155113 L11.3493126,10.2155113 Z M12.3469373,9 C12.8541497,9 13.2857776,9.04484055 13.641834,9.13452299 C13.9978904,9.22420544 14.2884415,9.35071984 14.513496,9.51407001 C14.7385505,9.67742017 14.9023004,9.87599975 15.0047506,10.1098147 C15.1072008,10.3436296 15.1584251,10.6046657 15.1584251,10.8929307 C15.1584251,11.049875 15.1349123,11.2012118 15.087886,11.3469458 C15.0408597,11.4926797 14.9669623,11.6288028 14.8661916,11.7553191 C14.7654209,11.8818355 14.6361005,11.9979404 14.4782264,12.1036376 C14.3203524,12.2093348 14.1305705,12.3006173 13.908875,12.377488 C14.3925742,12.489591 14.7503048,12.6705547 14.9820773,12.9203844 C15.2138499,13.170214 15.3297344,13.4937065 15.3297344,13.8908717 C15.3297344,14.1887455 15.2692729,14.465796 15.1483481,14.7220316 C15.0274233,14.9782671 14.8502375,15.2016691 14.6167854,15.3922443 C14.3833334,15.5828195 14.0953015,15.7317542 13.7526812,15.8390528 C13.4100609,15.9463515 13.0187407,16 12.5787087,16 L9.6462967,16 L9.6462967,9 L12.3469373,9 Z M22,9 L22,16 L21.1132225,16 C20.9822206,16 20.8722143,15.9799819 20.7832002,15.9399451 C20.6941861,15.8999083 20.6060131,15.8302453 20.5186785,15.730954 L17.0572231,11.5559369 C17.0706592,11.6808517 17.0798963,11.801761 17.0849349,11.9186685 C17.0899734,12.035576 17.0924926,12.1452752 17.0924926,12.2477694 L17.0924926,16 L15.5910171,16 L15.5910171,9 L16.4878716,9 C16.5617701,9 16.6239111,9.0032029 16.6742964,9.00960879 C16.7246817,9.01601467 16.7700279,9.02802554 16.8103361,9.04564173 C16.8506444,9.06325792 16.8892726,9.08808037 16.9262218,9.12010981 C16.9631711,9.15213926 17.0051582,9.19537836 17.0521846,9.24982841 L20.543871,13.4536719 C20.5270759,13.3191483 20.5153195,13.1886302 20.5086015,13.0621139 C20.5018834,12.9355976 20.4985244,12.8162897 20.4985244,12.7041867 L20.4985244,9 L22,9 Z" id="ABN" fill="#333333"></path>
    </g>
</svg>