<?xml version="1.0" encoding="UTF-8"?>
<svg width="24px" height="24px" viewBox="0 0 24 24" version="1.1" xmlns="http://www.w3.org/2000/svg" xmlns:xlink="http://www.w3.org/1999/xlink">
    <!-- Generator: Sketch 62 (91390) - https://sketch.com -->
    <title>sui-final/icons/24px/cc/discover/cc-discover-outline</title>
    <desc>Created with Sketch.</desc>
    <g id="sui-final/icons/24px/cc/discover/cc-discover-outline" stroke="none" stroke-width="1" fill="none" fill-rule="evenodd">
        <path d="M4,5 C2.9,5 2,5.875 2,6.94444444 L2,17.0555556 C2,18.125 2.9,19 4,19 L20,19 C21.1,19 22,18.125 22,17.0555556 L22,6.94444444 C22,5.875 21.1,5 20,5 L4,5 Z M4,5.77777778 L20,5.77777778 C20.6671876,5.77777778 21.2,6.29578983 21.2,6.94444444 L21.2,17.0555556 C21.2,17.7042102 20.6671876,18.2222222 20,18.2222222 L4,18.2222222 C3.3328124,18.2222222 2.8,17.7042102 2.8,17.0555556 L2.8,6.94444444 C2.8,6.29578983 3.3328124,5.77777778 4,5.77777778 Z M10.475,10.796875 C9.7421876,10.796875 9.15,11.3604602 9.15,12.0607639 C9.15,12.7686634 9.7265624,13.3125 10.4625,13.3125 C10.6703124,13.3125 10.8546876,13.2790801 11.075,13.1788194 L11.075,12.6197917 C10.88125,12.8081597 10.70625,12.8871528 10.4875,12.8871528 C10,12.8871528 9.65,12.548394 9.65,12.0607639 C9.65,11.5989583 10.0093752,11.234375 10.4625,11.234375 C10.6921876,11.234375 10.8734376,11.3103301 11.075,11.5017361 L11.075,10.9548611 C10.8625,10.8500435 10.6828124,10.796875 10.475,10.796875 Z M8.1875,10.8090278 C7.7484376,10.8090278 7.4125,11.1067708 7.4125,11.5017361 C7.4125,11.8328995 7.5734376,12.0045574 8.025,12.1701389 C8.2875,12.2658421 8.5,12.3144532 8.5,12.546875 C8.5,12.7428384 8.3406252,12.8871528 8.125,12.8871528 C7.8953124,12.8871528 7.7109376,12.7808162 7.6,12.5711806 L7.2875,12.8628472 C7.5109376,13.1803384 7.7828124,13.3246528 8.15,13.3246528 C8.6515624,13.3246528 9,13.0010852 9,12.5347222 C9,12.1519097 8.8375,11.9772134 8.2875,11.78125 C7.9968752,11.6764324 7.9125,11.6080731 7.9125,11.4774306 C7.9125,11.3255208 8.0671876,11.2100694 8.275,11.2100694 C8.4203124,11.2100694 8.5359376,11.2677953 8.6625,11.4045139 L8.9125,11.0763889 C8.7046876,10.9001736 8.4593752,10.8090278 8.1875,10.8090278 Z M12.5125,10.8090278 C11.7984376,10.8090278 11.2125,11.3665366 11.2125,12.0607639 C11.2125,12.7549912 11.7984376,13.3246528 12.5125,13.3246528 C13.2265624,13.3246528 13.8,12.7549912 13.8,12.0607639 C13.8,11.3665366 13.2265624,10.8090278 12.5125,10.8090278 Z M4.3625,10.8576389 L4.3625,13.2638889 L5.075,13.2638889 C6.1531252,13.2638889 6.4,12.435981 6.4,12.0607639 C6.4,11.3498264 5.8593752,10.8576389 5.075,10.8576389 L4.3625,10.8576389 Z M6.625,10.8576389 L6.625,13.2638889 L7.1125,13.2638889 L7.1125,10.8576389 L6.625,10.8576389 Z M13.7125,10.8576389 L14.7625,13.3246528 L15.025,13.3246528 L16.1,10.8576389 L15.575,10.8576389 L14.9,12.4739583 L14.2375,10.8576389 L13.7125,10.8576389 Z M16.3125,10.8576389 L16.3125,13.2638889 L17.6875,13.2638889 L17.6875,12.8506944 L16.8,12.8506944 L16.8,12.2065972 L17.65,12.2065972 L17.65,11.7934028 L16.8,11.7934028 L16.8,11.2586806 L17.6875,11.2586806 L17.6875,10.8576389 L16.3125,10.8576389 Z M18,10.8576389 L18,13.2638889 L18.4875,13.2638889 L18.4875,12.2916667 L18.55,12.2916667 L19.2125,13.2638889 L19.8125,13.2638889 L19.0375,12.2552083 C19.4015624,12.1822917 19.6,11.9316407 19.6,11.5625 C19.6,11.1113282 19.2828124,10.8576389 18.725,10.8576389 L18,10.8576389 Z M18.4875,11.234375 L18.6375,11.234375 C18.9390624,11.234375 19.1,11.3528648 19.1,11.5868056 C19.1,11.8283421 18.9328124,11.9635417 18.625,11.9635417 L18.4875,11.9635417 L18.4875,11.234375 Z M4.85,11.2586806 L5.0125,11.2586806 C5.6703124,11.2586806 5.9,11.6825088 5.9,12.0607639 C5.9,12.2415366 5.8453124,12.8506944 4.975,12.8506944 L4.85,12.8506944 L4.85,11.2586806 Z" id="Shape" fill="#333333"></path>
    </g>
</svg>