<svg width="24" height="24" viewBox="0 0 24 24" fill="none" xmlns="http://www.w3.org/2000/svg">
<path fill-rule="evenodd" clip-rule="evenodd" d="M2 6.64706C2 5.73989 2.7487 5 3.66667 5H20.3333C21.2513 5 22 5.73989 22 6.64706V17.3529C22 18.2601 21.2513 19 20.3333 19H3.66667C2.7487 19 2 18.2601 2 17.3529V6.64706ZM15.725 9.12184C14.9506 8.40892 13.892 8 12.8171 8H11.0405C8.737 8 7 9.73848 7 12.0439C7 14.2381 8.80564 16.0233 11.025 16.0233H12.8159L12.8357 16.0234C13.8861 16.0234 14.9421 15.5986 15.7326 14.858C16.5499 14.0923 17 13.0929 17 12.0439C17 10.9165 16.5471 9.87882 15.725 9.12184ZM12 15.0718C11.7003 15.1647 11.382 15.2149 11.0522 15.2149C9.28233 15.2149 7.84241 13.7749 7.84241 12.0049C7.84241 10.2349 9.28233 8.79489 11.0522 8.79489C11.382 8.79489 11.7003 8.84509 12 8.93799C13.3078 9.34341 14.2606 10.5649 14.2606 12.0049C14.2606 13.4449 13.3078 14.6664 12 15.0718ZM8.86518 12.0049C8.86681 12.9364 9.44714 13.7305 10.2687 14.0461V9.96195C9.44714 10.2796 8.86681 11.0737 8.86518 12.0049ZM11.8346 9.96189C11.8909 9.98355 11.9459 10.008 12 10.0341C12.7328 10.3883 13.2379 11.1376 13.2395 12.0049C13.2379 12.8725 12.7328 13.6204 12 13.974C11.946 14 11.891 14.0244 11.8346 14.046V9.96189Z" fill="#333333"/>
</svg>
