<svg width="24" height="24" viewBox="0 0 24 24" fill="none" xmlns="http://www.w3.org/2000/svg">
<path fill-rule="evenodd" clip-rule="evenodd" d="M16.5424 12.2836H16.5537H16.5754H16.5972H16.6189H16.6407H16.6624H16.6842H16.7059H16.7277H16.7494H16.7712H16.7929H16.8147H16.8364H16.8582H16.8799H16.9017H16.9234H16.9452H16.9669H16.9887H17.0104H17.0322H17.0539H17.0757H17.0974H17.1192H17.1409H17.1627H17.1844H17.2062H17.2279H17.2497H17.2714H17.2932H17.3149H17.3367H17.3584H17.3802H17.4019H17.4237H17.4454H17.4672H17.4889H17.5107H17.5324H17.5542H17.5759H17.5977H17.6194H17.6412H17.6629H17.6847H17.7064H17.7282H17.7499H17.7717H17.7934H17.8152H17.8369H17.855L17.8587 12.2837C17.8654 12.2839 17.8727 12.2842 17.8804 12.2846C17.8874 12.285 17.8947 12.2855 17.9022 12.2861C17.9093 12.2867 17.9166 12.2873 17.9239 12.288C17.9312 12.2887 17.9385 12.2894 17.9457 12.2903C17.9532 12.2911 17.9605 12.292 17.9674 12.293C17.9752 12.2941 17.9825 12.2952 17.9892 12.2964C17.994 12.2972 17.9984 12.2981 18.0023 12.299L18.0109 12.301C18.0182 12.3027 18.0254 12.3046 18.0327 12.3067C18.04 12.3088 18.0472 12.311 18.0544 12.3134C18.0617 12.3158 18.069 12.3184 18.0762 12.3211C18.0835 12.3238 18.0907 12.3267 18.0979 12.3297C18.1052 12.3328 18.1125 12.3361 18.1197 12.3395C18.127 12.343 18.1342 12.3466 18.1414 12.3504C18.1487 12.3542 18.156 12.3582 18.1632 12.3624C18.1705 12.3667 18.1778 12.3712 18.1849 12.3758C18.1923 12.3805 18.1995 12.3854 18.2067 12.3905C18.214 12.3957 18.2213 12.4011 18.2284 12.4066C18.2358 12.4124 18.243 12.4184 18.2502 12.4245C18.2576 12.4309 18.2648 12.4375 18.2719 12.4442C18.2793 12.4513 18.2866 12.4585 18.2937 12.466C18.3011 12.4739 18.3084 12.482 18.3154 12.4903C18.3229 12.4991 18.3302 12.5082 18.3372 12.5175C18.3447 12.5275 18.352 12.5378 18.3589 12.5484C18.3665 12.5599 18.3738 12.5718 18.3807 12.584C18.3884 12.5977 18.3957 12.6119 18.4024 12.6264C18.4104 12.6436 18.4177 12.6614 18.4242 12.6796C18.4329 12.7041 18.4402 12.7295 18.4459 12.7557C18.4559 12.8012 18.4612 12.8491 18.4612 12.8991C18.4612 12.9493 18.4559 12.9974 18.4459 13.043C18.4402 13.0693 18.4329 13.0947 18.4242 13.1193C18.4177 13.1376 18.4104 13.1553 18.4024 13.1726C18.3957 13.1871 18.3884 13.2013 18.3807 13.2151C18.3738 13.2273 18.3666 13.2391 18.3589 13.2507C18.352 13.2613 18.3447 13.2716 18.3372 13.2816C18.3302 13.2909 18.3229 13.3 18.3154 13.3088C18.3084 13.3171 18.3011 13.3252 18.2937 13.3331C18.2866 13.3405 18.2793 13.3477 18.2719 13.3548C18.2648 13.3615 18.2576 13.3681 18.2502 13.3744C18.243 13.3806 18.2358 13.3865 18.2284 13.3923C18.2213 13.3978 18.214 13.4032 18.2067 13.4084C18.1995 13.4134 18.1923 13.4183 18.1849 13.423C18.1778 13.4276 18.1705 13.432 18.1632 13.4363C18.156 13.4405 18.1488 13.4445 18.1414 13.4483C18.1342 13.452 18.127 13.4556 18.1197 13.4591C18.1125 13.4625 18.1052 13.4657 18.0979 13.4688C18.0907 13.4718 18.0835 13.4747 18.0762 13.4774C18.069 13.48 18.0617 13.4826 18.0544 13.4849C18.0472 13.4873 18.04 13.4895 18.0327 13.4915C18.0254 13.4935 18.0182 13.4954 18.0109 13.4972L18.0023 13.4991C17.9984 13.5001 17.994 13.501 17.9892 13.5019C17.9825 13.5031 17.9752 13.5042 17.9674 13.5053C17.9605 13.5063 17.9532 13.5073 17.9457 13.5081C17.9385 13.5089 17.9312 13.5097 17.9239 13.5104C17.9166 13.511 17.9093 13.5117 17.9022 13.5122C17.8947 13.5127 17.8874 13.5132 17.8804 13.5136C17.8727 13.514 17.8654 13.5143 17.8587 13.5145L17.847 13.5146H17.8369H17.8152H17.7934H17.7717H17.7499H17.7282H17.7064H17.6847H17.6629H17.6412H17.6194H17.5977H17.5759H17.5542H17.5324H17.5107H17.4889H17.4672H17.4454H17.4237H17.4019H17.3802H17.3584H17.3367H17.3149H17.2932H17.2714H17.2497H17.2279H17.2062H17.1844H17.1627H17.1409H17.1192H17.0974H17.0757H17.0539H17.0322H17.0104H16.9887H16.9669H16.9452H16.9234H16.9017H16.8799H16.8582H16.8364H16.8147H16.7929H16.7712H16.7494H16.7277H16.7059H16.6842H16.6624H16.6407H16.6189H16.5972H16.5754H16.5537H16.5424V12.2836ZM18.2937 10.8904C18.3025 10.9317 18.3072 10.9755 18.3072 11.0216C18.3072 11.0676 18.3025 11.1113 18.2937 11.1526C18.2881 11.1791 18.2808 11.2046 18.272 11.2291C18.2655 11.2469 18.2583 11.2642 18.2502 11.2809C18.2435 11.2948 18.2363 11.3084 18.2285 11.3215C18.2216 11.3332 18.2143 11.3444 18.2067 11.3554C18.1998 11.3653 18.1925 11.375 18.185 11.3844C18.178 11.3931 18.1708 11.4016 18.1633 11.4098C18.1562 11.4176 18.149 11.425 18.1415 11.4323C18.1344 11.4392 18.1272 11.4459 18.1197 11.4524C18.1126 11.4586 18.1054 11.4646 18.098 11.4704C18.0909 11.476 18.0836 11.4814 18.0763 11.4866C18.0691 11.4916 18.0619 11.4965 18.0545 11.5012C18.0473 11.5057 18.0401 11.5101 18.0328 11.5143C18.0256 11.5184 18.0183 11.5224 18.011 11.5262C18.0038 11.5299 17.9966 11.5334 17.9892 11.5368C17.9821 11.5401 17.9748 11.5432 17.9675 11.5462C17.9603 11.5491 17.9531 11.5519 17.9458 11.5545C17.9386 11.5571 17.9313 11.5596 17.924 11.5618C17.9168 11.5641 17.9096 11.5662 17.9023 11.5682C17.8951 11.5701 17.8878 11.5719 17.8805 11.5736C17.8733 11.5752 17.866 11.5767 17.8588 11.578L17.8535 11.579C17.8492 11.5798 17.8436 11.5806 17.837 11.5815C17.8306 11.5823 17.8232 11.5832 17.8153 11.584C17.8084 11.5848 17.8011 11.5855 17.7935 11.5861C17.7864 11.5867 17.7791 11.5873 17.7718 11.5878C17.7645 11.5882 17.7571 11.5887 17.75 11.589C17.7425 11.5893 17.7352 11.5895 17.7283 11.5895L17.7248 11.5895H17.7065H17.6848H17.663H17.6413H17.6195H17.5978H17.576H17.5543H17.5325H17.5108H17.489H17.4673H17.4455H17.4238H17.402H17.3803H17.3585H17.3368H17.315H17.2933H17.2715H17.2498H17.228H17.2063H17.1845H17.1628H17.141H17.1193H17.0975H17.0758H17.054H17.0323H17.0105H16.9888H16.9671H16.9453H16.9235H16.9018H16.88H16.8583H16.8366H16.8148H16.793H16.7713H16.7496H16.7278H16.7061H16.6843H16.6625H16.6408H16.6191H16.5973H16.5756H16.5538H16.5424V10.4536H16.5538H16.5756H16.5973H16.6191H16.6408H16.6625H16.6843H16.7061H16.7278H16.7496H16.7713H16.793H16.8148H16.8366H16.8583H16.88H16.9018H16.9235H16.9453H16.9671H16.9888H17.0105H17.0323H17.054H17.0758H17.0975H17.1193H17.141H17.1628H17.1845H17.2063H17.228H17.2498H17.2715H17.2933H17.315H17.3368H17.3585H17.3803H17.402H17.4238H17.4455H17.4673H17.489H17.5108H17.5325H17.5543H17.576H17.5978H17.6195H17.6413H17.663H17.6848H17.7065H17.7283H17.7374L17.75 10.454C17.7571 10.4543 17.7645 10.4547 17.7718 10.4552C17.7791 10.4557 17.7864 10.4563 17.7935 10.4569C17.8011 10.4575 17.8084 10.4582 17.8153 10.4589C17.8232 10.4597 17.8306 10.4605 17.837 10.4613C17.8436 10.4621 17.8492 10.4628 17.8535 10.4634L17.8588 10.4644C17.866 10.4658 17.8733 10.4673 17.8805 10.4689C17.8878 10.4706 17.8951 10.4724 17.9023 10.4744C17.9096 10.4764 17.9168 10.4785 17.924 10.4808C17.9313 10.4831 17.9386 10.4855 17.9458 10.4881C17.9531 10.4908 17.9603 10.4936 17.9675 10.4965C17.9748 10.4995 17.9821 10.5027 17.9892 10.506C17.9966 10.5094 18.0038 10.5129 18.011 10.5166C18.0183 10.5204 18.0256 10.5244 18.0328 10.5285C18.0401 10.5327 18.0473 10.5371 18.0545 10.5417C18.0619 10.5463 18.0691 10.5512 18.0763 10.5562C18.0836 10.5615 18.0909 10.5669 18.098 10.5725C18.1054 10.5783 18.1126 10.5843 18.1197 10.5905C18.1272 10.597 18.1344 10.6037 18.1415 10.6106C18.149 10.6179 18.1562 10.6254 18.1633 10.6331C18.1708 10.6413 18.178 10.6498 18.185 10.6585C18.1925 10.6679 18.1998 10.6776 18.2067 10.6876C18.2143 10.6985 18.2216 10.7098 18.2285 10.7214C18.2363 10.7345 18.2435 10.7481 18.2502 10.7621C18.2583 10.7787 18.2655 10.796 18.272 10.8139C18.2808 10.8383 18.2881 10.8638 18.2937 10.8904C18.2881 10.8638 18.2937 10.8904 18.2937 10.8904ZM20.991 5H21L21 16.6667C21 16.7364 20.9968 16.8053 20.991 16.8735C20.986 16.9335 20.9787 16.9928 20.9693 17.0514C20.963 17.0907 20.9557 17.1297 20.9475 17.1684C20.9409 17.1999 20.9336 17.2311 20.9258 17.2621C20.919 17.2888 20.9117 17.3153 20.904 17.3417C20.8971 17.3655 20.8899 17.3892 20.8823 17.4127C20.8753 17.434 20.868 17.4551 20.8605 17.4762C20.8535 17.4958 20.8462 17.5152 20.8388 17.5345C20.8317 17.5527 20.8245 17.5707 20.817 17.5887C20.81 17.6057 20.8027 17.6226 20.7953 17.6393C20.7882 17.6553 20.7809 17.6712 20.7735 17.687C20.7664 17.7021 20.7592 17.7172 20.7518 17.7321C20.7447 17.7464 20.7374 17.7607 20.73 17.7748C20.7229 17.7884 20.7156 17.8019 20.7083 17.8153C20.7011 17.8283 20.6939 17.8412 20.6865 17.8541C20.6793 17.8666 20.6721 17.879 20.6647 17.8914C20.6576 17.9034 20.6504 17.9154 20.643 17.9273C20.6358 17.9388 20.6285 17.9502 20.6212 17.9615C20.6141 17.9726 20.6068 17.9836 20.5995 17.9945C20.5923 18.0052 20.5851 18.0159 20.5777 18.0265C20.5705 18.0369 20.5633 18.0472 20.556 18.0574C20.5488 18.0674 20.5415 18.0772 20.5342 18.087C20.527 18.0967 20.5198 18.1064 20.5125 18.116C20.5053 18.1253 20.498 18.1347 20.4907 18.1439C20.4835 18.153 20.4762 18.1619 20.469 18.1709C20.4617 18.1797 20.4546 18.1886 20.4472 18.1974C20.44 18.2059 20.4327 18.2143 20.4255 18.2227C20.4183 18.231 20.411 18.2393 20.4037 18.2475C20.3965 18.2556 20.3893 18.2637 20.3819 18.2717C20.3748 18.2795 20.3675 18.2873 20.3602 18.295C20.353 18.3027 20.3458 18.3104 20.3384 18.318C20.3312 18.3254 20.3239 18.3327 20.3167 18.34C20.3095 18.3472 20.3022 18.3545 20.2949 18.3617C20.2877 18.3687 20.2805 18.3757 20.2732 18.3826C20.266 18.3895 20.2587 18.3964 20.2514 18.4032C20.2442 18.4099 20.237 18.4165 20.2297 18.4231C20.2225 18.4297 20.2152 18.4361 20.2079 18.4426C20.2007 18.4489 20.1935 18.4553 20.1862 18.4616C20.179 18.4678 20.1717 18.4739 20.1644 18.48C20.1572 18.4861 20.15 18.4921 20.1427 18.4981C20.1355 18.504 20.1282 18.5098 20.1209 18.5156C20.1137 18.5214 20.1065 18.5271 20.0992 18.5328C20.092 18.5384 20.0847 18.5439 20.0774 18.5495C20.0701 18.5549 20.0629 18.5605 20.0556 18.5659C20.0484 18.5712 20.0412 18.5764 20.0339 18.5817C20.0266 18.5869 20.0194 18.5922 20.0121 18.5973C20.0049 18.6024 19.9976 18.6073 19.9904 18.6123C19.9831 18.6173 19.9759 18.6223 19.9686 18.6272C19.9614 18.632 19.9541 18.6367 19.9469 18.6415C19.9396 18.6462 19.9324 18.6509 19.9251 18.6556C19.9179 18.6601 19.9107 18.6647 19.9034 18.6692L19.8816 18.6825C19.8744 18.6869 19.8671 18.6913 19.8599 18.6956C19.8527 18.6998 19.8454 18.704 19.8381 18.7082C19.8309 18.7123 19.8236 18.7165 19.8164 18.7206C19.8091 18.7246 19.8019 18.7285 19.7946 18.7325C19.7873 18.7364 19.7801 18.7405 19.7728 18.7444C19.7656 18.7482 19.7583 18.7518 19.7511 18.7556C19.7438 18.7593 19.7366 18.7631 19.7293 18.7668C19.7221 18.7704 19.7148 18.7739 19.7076 18.7775L19.6858 18.788L19.6641 18.7982C19.6568 18.8016 19.6496 18.8048 19.6423 18.8081C19.6351 18.8113 19.6279 18.8147 19.6206 18.8178C19.6134 18.821 19.6061 18.824 19.5988 18.827C19.5916 18.8301 19.5844 18.8333 19.5771 18.8362C19.5698 18.8392 19.5626 18.842 19.5553 18.8449C19.5481 18.8478 19.5408 18.8507 19.5336 18.8535L19.5118 18.8618C19.5046 18.8645 19.4973 18.8671 19.49 18.8697C19.4828 18.8723 19.4756 18.8751 19.4683 18.8776C19.4611 18.8801 19.4538 18.8825 19.4465 18.8849L19.4248 18.8922C19.4176 18.8946 19.4103 18.8969 19.403 18.8992L19.3813 18.9059C19.374 18.9081 19.3668 18.9103 19.3595 18.9125C19.3523 18.9146 19.345 18.9165 19.3378 18.9186C19.3305 18.9206 19.3233 18.9227 19.316 18.9247L19.2943 18.9303L19.2725 18.9358L19.2508 18.9412C19.2435 18.9429 19.2363 18.9445 19.229 18.9461C19.2218 18.9478 19.2145 18.9495 19.2072 18.951L19.1855 18.9555L19.1637 18.9598C19.1565 18.9612 19.1493 18.9627 19.142 18.9641C19.1348 18.9654 19.1275 18.9665 19.1202 18.9678L19.0985 18.9715L19.0767 18.9749L19.055 18.9781C19.0477 18.9791 19.0405 18.9803 19.0332 18.9812C19.026 18.9822 19.0187 18.9829 19.0115 18.9838C19.0042 18.9847 18.997 18.9856 18.9897 18.9864C18.9825 18.9872 18.9752 18.988 18.968 18.9887C18.9607 18.9895 18.9535 18.9901 18.9462 18.9907C18.9389 18.9914 18.9317 18.9921 18.9244 18.9927C18.9172 18.9933 18.91 18.9938 18.9027 18.9943L18.8809 18.9957C18.8737 18.9962 18.8665 18.9967 18.8592 18.9971C18.852 18.9974 18.8447 18.9976 18.8374 18.9979L18.8157 18.9988L18.7939 18.9994C18.7867 18.9995 18.7794 18.9996 18.7722 18.9997L18.7504 18.9999L18.7459 19H18.7287H18.7069H18.6852H18.6634H18.6417H18.6199H18.5981H18.5764H18.5546H18.5329H18.5111H18.4894H18.4676H18.4459H18.4241H18.4024H18.3806H18.3589H18.3371H18.3153H18.2936H18.2718H18.2501H18.2283H18.2066H18.1848H18.1631H18.1413H18.1196H18.0978H18.0761H18.0543H18.0326H18.0108H17.989H17.9673H17.9455H17.9238H17.902H17.8803H17.8585H17.8368H17.815H17.7933H17.7715H17.7498H17.728H17.7063H17.6845H17.6627H17.641H17.6192H17.5975H17.5757H17.554H17.5322H17.5105H17.4887H17.467H17.4452H17.4235H17.4017H17.38H17.3582H17.3364H17.3147H17.2929H17.2712H17.2494H17.2277H17.2059H17.1842H17.1624H17.1407H17.1189H17.0972H17.0754H17.0536H17.0319H17.0101H16.9884H16.9666H16.9449H16.9231H16.9014H16.8796H16.8579H16.8361H16.8144H16.7926H16.7709H16.7491H16.7273H16.7056H16.6838H16.6621H16.6403H16.6186H16.5968H16.5751H16.5533H16.5316H16.5098H16.4881H16.4663H16.4446H16.4228H16.401H16.3793H16.3575H16.3358H16.314H16.2923H16.2705H16.2488H16.227H16.2053H16.1835H16.1618H16.14H16.1183H16.0965H16.0747H16.053H16.0312H16.0095H15.9877H15.966H15.9442H15.9225H15.9007H15.879H15.8572H15.8355H15.8137H15.7919H15.7702H15.7484H15.7267H15.7049H15.6832H15.6614H15.6397H15.6179H15.5962H15.5744H15.5527H15.5309H15.5092H15.4874H15.4405V14.2431H15.4874H15.5092H15.5309H15.5527H15.5744H15.5962H15.6179H15.6397H15.6614H15.6832H15.7049H15.7267H15.7484H15.7702H15.7919H15.8137H15.8355H15.8572H15.879H15.9007H15.9225H15.9442H15.966H15.9877H16.0095H16.0312H16.053H16.0747H16.0965H16.1183H16.14H16.1618H16.1835H16.2053H16.227H16.2488H16.2705H16.2923H16.314H16.3358H16.3575H16.3793H16.401H16.4228H16.4446H16.4663H16.4881H16.5098H16.5316H16.5533H16.5751H16.5968H16.6186H16.6403H16.6621H16.6838H16.7056H16.7273H16.7491H16.7709H16.7926H16.8144H16.8361H16.8579H16.8796H16.9014H16.9231H16.9449H16.9666H16.9884H17.0101H17.0319H17.0536H17.0754H17.0972H17.1189H17.1407H17.1624H17.1842H17.2059H17.2277H17.2494H17.2712H17.2929H17.3147H17.3364H17.3582H17.38H17.4017H17.4235H17.4452H17.467H17.4887H17.5105H17.5322H17.554H17.5757H17.5975H17.6192H17.641H17.6627H17.6845H17.7063H17.728H17.7498H17.7715H17.7933H17.815H17.8368H17.8585H17.8803H17.902H17.9238H17.9455H17.9673H17.989H18.0108H18.0326H18.0543H18.0761H18.0978H18.1196H18.1413H18.1631H18.1848H18.2066H18.2283H18.2501H18.2718H18.2936H18.3153H18.3371H18.3589H18.3806H18.4024H18.4241H18.4459H18.4676H18.4894H18.5111H18.5329H18.5546H18.5764H18.5981H18.6199H18.6417H18.6634H18.6852H18.7069H18.7287H18.7504H18.7722H18.7939H18.8157H18.8374H18.8592H18.8809H18.9027H18.9244H18.936L18.9462 14.243L18.968 14.2428L18.9897 14.2423C18.997 14.2422 19.0042 14.242 19.0115 14.2418C19.0188 14.2415 19.026 14.2412 19.0332 14.2408L19.055 14.2398L19.0767 14.2384L19.0985 14.2369L19.1202 14.2351L19.142 14.233C19.1492 14.2323 19.1565 14.2316 19.1637 14.2309C19.171 14.2301 19.1783 14.2292 19.1855 14.2283L19.2072 14.2256C19.2145 14.2246 19.2218 14.2237 19.229 14.2226C19.2363 14.2216 19.2435 14.2204 19.2508 14.2193C19.258 14.2182 19.2653 14.217 19.2725 14.2158L19.2943 14.212L19.316 14.208C19.3233 14.2066 19.3306 14.2052 19.3378 14.2037C19.3451 14.2022 19.3523 14.2006 19.3595 14.1991L19.3813 14.1942C19.3885 14.1925 19.3958 14.1908 19.403 14.1891C19.4103 14.1873 19.4176 14.1854 19.4248 14.1836C19.4321 14.1817 19.4393 14.1798 19.4465 14.1778C19.4538 14.1759 19.4611 14.1739 19.4683 14.1718C19.4756 14.1697 19.4828 14.1675 19.49 14.1654C19.4973 14.1632 19.5046 14.161 19.5118 14.1587L19.5336 14.1516C19.5409 14.1492 19.5481 14.1467 19.5553 14.1442C19.5626 14.1417 19.5699 14.1391 19.5771 14.1365C19.5844 14.1338 19.5916 14.1312 19.5988 14.1284C19.6061 14.1257 19.6133 14.1227 19.6206 14.1199C19.6279 14.117 19.6351 14.114 19.6423 14.111C19.6496 14.108 19.6569 14.1049 19.6641 14.1018C19.6714 14.0986 19.6786 14.0954 19.6858 14.0921C19.6931 14.0888 19.7004 14.0854 19.7076 14.0819C19.7149 14.0785 19.7221 14.075 19.7293 14.0714C19.7366 14.0678 19.7439 14.0642 19.7511 14.0605C19.7584 14.0567 19.7656 14.0528 19.7728 14.0489C19.7801 14.045 19.7874 14.0409 19.7946 14.0369C19.8019 14.0327 19.8092 14.0286 19.8164 14.0243C19.8237 14.02 19.8309 14.0157 19.8381 14.0113C19.8454 14.0068 19.8527 14.0023 19.8599 13.9977C19.8672 13.9929 19.8744 13.9882 19.8816 13.9833C19.8889 13.9784 19.8962 13.9734 19.9034 13.9683C19.9107 13.9632 19.9179 13.958 19.9251 13.9527C19.9325 13.9473 19.9397 13.9419 19.9469 13.9363C19.9542 13.9307 19.9615 13.925 19.9686 13.9192C19.976 13.9133 19.9832 13.9073 19.9904 13.9012C19.9977 13.895 20.005 13.8887 20.0121 13.8823C20.0195 13.8758 20.0267 13.8692 20.0339 13.8625C20.0412 13.8556 20.0485 13.8486 20.0556 13.8415C20.063 13.8342 20.0703 13.8269 20.0774 13.8194C20.0848 13.8117 20.092 13.8039 20.0992 13.796C20.1065 13.7878 20.1138 13.7795 20.1209 13.7711C20.1283 13.7624 20.1356 13.7536 20.1427 13.7446C20.1501 13.7353 20.1573 13.7259 20.1644 13.7163C20.1718 13.7063 20.1791 13.6963 20.1862 13.686C20.1936 13.6751 20.2008 13.6641 20.2079 13.6529C20.2154 13.6411 20.2227 13.6291 20.2297 13.617C20.2372 13.6039 20.2445 13.5907 20.2514 13.5773C20.259 13.5627 20.2663 13.5479 20.2732 13.533C20.2809 13.5162 20.2881 13.4992 20.2949 13.4819C20.3027 13.4622 20.31 13.4421 20.3167 13.4217C20.3249 13.3965 20.3321 13.3709 20.3384 13.3447C20.3477 13.3066 20.355 13.2674 20.3602 13.2273C20.3665 13.1786 20.3698 13.1285 20.3698 13.0771C20.3698 13.027 20.3665 12.9784 20.3602 12.9311C20.355 12.8923 20.3477 12.8545 20.3384 12.8176C20.3321 12.7925 20.3248 12.7679 20.3167 12.7438C20.31 12.724 20.3028 12.7044 20.2949 12.6853C20.2881 12.6687 20.2809 12.6523 20.2732 12.6363C20.2663 12.6218 20.259 12.6075 20.2514 12.5934C20.2444 12.5805 20.2372 12.5677 20.2297 12.5551C20.2227 12.5434 20.2154 12.5318 20.2079 12.5204C20.2009 12.5097 20.1936 12.499 20.1862 12.4885C20.1791 12.4786 20.1718 12.4689 20.1644 12.4593C20.1573 12.4501 20.1501 12.441 20.1427 12.432C20.1355 12.4233 20.1283 12.4148 20.1209 12.4064C20.1138 12.3983 20.1065 12.3903 20.0992 12.3824C20.092 12.3748 20.0848 12.3673 20.0774 12.3598C20.0703 12.3526 20.063 12.3455 20.0556 12.3385C20.0485 12.3317 20.0412 12.325 20.0339 12.3183C20.0267 12.3118 20.0195 12.3054 20.0121 12.2991C20.005 12.293 19.9977 12.2869 19.9904 12.2809C19.9832 12.275 19.976 12.2692 19.9686 12.2635C19.9614 12.2579 19.9542 12.2524 19.9469 12.2469C19.9397 12.2416 19.9324 12.2363 19.9251 12.2311C19.9179 12.226 19.9107 12.2209 19.9034 12.2159C19.8962 12.2111 19.8889 12.2062 19.8816 12.2015C19.8744 12.1968 19.8672 12.1922 19.8599 12.1876C19.8527 12.1832 19.8454 12.1787 19.8381 12.1744C19.8309 12.1701 19.8237 12.1659 19.8164 12.1617C19.8092 12.1576 19.8019 12.1536 19.7946 12.1496C19.7874 12.1457 19.7801 12.1418 19.7728 12.138C19.7656 12.1342 19.7584 12.1304 19.7511 12.1268C19.7439 12.1231 19.7366 12.1195 19.7293 12.116C19.7221 12.1125 19.7149 12.1092 19.7076 12.1058C19.7004 12.1025 19.6931 12.0992 19.6858 12.096C19.6786 12.0928 19.6714 12.0897 19.6641 12.0866C19.6568 12.0835 19.6496 12.0804 19.6423 12.0775C19.6351 12.0745 19.6279 12.0716 19.6206 12.0688C19.6134 12.066 19.6061 12.0633 19.5988 12.0606C19.5916 12.0579 19.5844 12.0553 19.5771 12.0527C19.5698 12.0501 19.5626 12.0475 19.5553 12.045C19.5481 12.0426 19.5408 12.0402 19.5336 12.0378C19.5264 12.0354 19.5191 12.0332 19.5118 12.0309L19.49 12.0243C19.4828 12.0221 19.4756 12.02 19.4683 12.0179C19.4611 12.0159 19.4538 12.0139 19.4465 12.012C19.4393 12.0101 19.4321 12.0082 19.4248 12.0063C19.4176 12.0045 19.4103 12.0026 19.403 12.0009C19.3958 11.9991 19.3885 11.9974 19.3813 11.9958C19.3741 11.9941 19.3668 11.9925 19.3595 11.991C19.3523 11.9894 19.3451 11.9878 19.3378 11.9864L19.316 11.982L19.2943 11.978C19.287 11.9767 19.2798 11.9754 19.2725 11.9742L19.2508 11.9707C19.2435 11.9695 19.2363 11.9685 19.229 11.9674L19.2072 11.9643L19.1855 11.9615L19.1637 11.959L19.142 11.9566L19.1202 11.9545L19.0985 11.9526L19.0784 11.951L19.0784 11.924L19.0985 11.9208L19.1202 11.9171C19.1275 11.9158 19.1348 11.9145 19.142 11.9131L19.1637 11.9088C19.171 11.9073 19.1783 11.9058 19.1855 11.9042L19.2072 11.8993C19.2145 11.8976 19.2218 11.8958 19.229 11.8941C19.2363 11.8922 19.2435 11.8903 19.2508 11.8884C19.2581 11.8865 19.2653 11.8845 19.2725 11.8825C19.2798 11.8804 19.2871 11.8783 19.2943 11.8762C19.3016 11.874 19.3088 11.8718 19.316 11.8696C19.3233 11.8673 19.3306 11.8649 19.3378 11.8625C19.3451 11.8601 19.3523 11.8576 19.3595 11.8551C19.3668 11.8525 19.3741 11.8499 19.3813 11.8473C19.3886 11.8446 19.3958 11.8418 19.403 11.839C19.4103 11.8362 19.4176 11.8333 19.4248 11.8304C19.4321 11.8274 19.4393 11.8244 19.4465 11.8213C19.4539 11.8182 19.4611 11.815 19.4683 11.8118C19.4756 11.8084 19.4828 11.8051 19.49 11.8017C19.4974 11.7982 19.5046 11.7947 19.5118 11.7911C19.5191 11.7874 19.5264 11.7837 19.5336 11.78C19.5409 11.7762 19.5481 11.7723 19.5553 11.7683C19.5626 11.7643 19.5699 11.7602 19.5771 11.7561C19.5844 11.7519 19.5916 11.7476 19.5988 11.7433C19.6061 11.7389 19.6134 11.7344 19.6206 11.7298C19.6279 11.7252 19.6351 11.7205 19.6423 11.7157C19.6497 11.7108 19.6569 11.7058 19.6641 11.7008C19.6714 11.6957 19.6787 11.6905 19.6858 11.6852C19.6932 11.6798 19.7004 11.6743 19.7076 11.6688C19.7149 11.6631 19.7222 11.6573 19.7293 11.6515C19.7367 11.6455 19.744 11.6394 19.7511 11.6332C19.7584 11.6269 19.7657 11.6205 19.7728 11.614C19.7802 11.6072 19.7875 11.6004 19.7946 11.5935C19.802 11.5864 19.8092 11.5792 19.8164 11.5719C19.8237 11.5644 19.831 11.5568 19.8381 11.5491C19.8455 11.541 19.8528 11.5329 19.8599 11.5246C19.8673 11.516 19.8745 11.5073 19.8816 11.4985C19.889 11.4893 19.8963 11.48 19.9034 11.4706C19.9108 11.4606 19.9181 11.4505 19.9251 11.4403C19.9326 11.4295 19.9398 11.4186 19.9469 11.4075C19.9544 11.3957 19.9616 11.3838 19.9686 11.3718C19.9762 11.3587 19.9834 11.3454 19.9904 11.3321C19.998 11.3173 20.0053 11.3024 20.0121 11.2874C20.0199 11.2704 20.0271 11.2532 20.0339 11.2359C20.0418 11.2156 20.049 11.1951 20.0556 11.1743C20.0639 11.1482 20.0712 11.1217 20.0774 11.0948C20.0874 11.0512 20.0947 11.0067 20.0992 10.9614C20.1027 10.9257 20.1045 10.8895 20.1045 10.8529C20.1045 10.8143 20.1027 10.7766 20.0992 10.7399C20.0947 10.693 20.0874 10.6477 20.0774 10.6039C20.0712 10.5766 20.0639 10.5499 20.0556 10.5238C20.049 10.503 20.0418 10.4825 20.0339 10.4625C20.0271 10.4452 20.0198 10.4282 20.0121 10.4116C20.0052 10.3967 19.998 10.3821 19.9904 10.3677C19.9834 10.3546 19.9762 10.3416 19.9686 10.3289C19.9616 10.317 19.9544 10.3053 19.9469 10.2938C19.9398 10.2831 19.9326 10.2725 19.9251 10.262C19.9181 10.2521 19.9108 10.2423 19.9034 10.2327C19.8963 10.2235 19.8891 10.2145 19.8816 10.2055C19.8745 10.197 19.8673 10.1887 19.8599 10.1804C19.8528 10.1725 19.8455 10.1646 19.8381 10.1569C19.831 10.1494 19.8237 10.142 19.8164 10.1348C19.8092 10.1278 19.802 10.1208 19.7946 10.114C19.7875 10.1073 19.7802 10.1008 19.7728 10.0943C19.7657 10.088 19.7584 10.0819 19.7511 10.0757C19.7439 10.0698 19.7367 10.0639 19.7293 10.0582C19.7222 10.0525 19.7149 10.047 19.7076 10.0415C19.7004 10.0362 19.6932 10.0309 19.6858 10.0257C19.6786 10.0206 19.6714 10.0156 19.6641 10.0107C19.6569 10.0058 19.6496 10.001 19.6423 9.99632C19.6351 9.99171 19.6279 9.98718 19.6206 9.9827C19.6134 9.97829 19.6061 9.97396 19.5988 9.96969C19.5916 9.96549 19.5844 9.96134 19.5771 9.95727C19.5699 9.95326 19.5626 9.94934 19.5553 9.94544C19.5481 9.94161 19.5409 9.93784 19.5336 9.93413C19.5264 9.93047 19.5191 9.92683 19.5118 9.9233C19.5046 9.91981 19.4973 9.91636 19.49 9.913C19.4828 9.90967 19.4756 9.90646 19.4683 9.90323C19.4611 9.90006 19.4538 9.89694 19.4465 9.89386C19.4393 9.89084 19.4321 9.88785 19.4248 9.88492C19.4176 9.88203 19.4103 9.87916 19.403 9.87636C19.3958 9.87359 19.3886 9.87089 19.3813 9.86822C19.3741 9.86558 19.3668 9.86303 19.3595 9.86049C19.3523 9.85799 19.3451 9.85554 19.3378 9.85313C19.3306 9.85075 19.3233 9.84839 19.316 9.8461C19.3088 9.84382 19.3016 9.84154 19.2943 9.83936C19.2871 9.83721 19.2798 9.83514 19.2725 9.83309C19.2653 9.83103 19.2581 9.82905 19.2508 9.8271L19.229 9.82136C19.2218 9.81952 19.2145 9.81771 19.2072 9.81595C19.2 9.81422 19.1928 9.81254 19.1855 9.81089L19.1637 9.8061C19.1565 9.80455 19.1493 9.80298 19.142 9.80152C19.1348 9.80007 19.1275 9.79872 19.1202 9.79734L19.0985 9.79338C19.0913 9.79212 19.084 9.79083 19.0767 9.78963L19.055 9.78622L19.0332 9.78304L19.0115 9.78006L18.9897 9.77739L18.968 9.77496L18.9462 9.7727L18.9244 9.77072L18.9027 9.76899L18.8809 9.76738L18.8592 9.76609L18.8506 9.76559L18.8374 9.76475L18.8157 9.76342L18.7939 9.76217L18.7722 9.761L18.7504 9.75992L18.7287 9.75895L18.7069 9.75812L18.6852 9.75743L18.6634 9.75693L18.6417 9.75663L18.6297 9.75659H18.6199H18.5981H18.5764H18.5546H18.5329H18.5111H18.4894H18.4676H18.4459H18.4241H18.4024H18.3806H18.3589H18.3371H18.3153H18.2936H18.2718H18.2501H18.2283H18.2066H18.1848H18.1631H18.1413H18.1196H18.0978H18.0761H18.0543H18.0326H18.0108H17.989H17.9673H17.9455H17.9238H17.902H17.8803H17.8585H17.8368H17.815H17.7933H17.7715H17.7498H17.728H17.7063H17.6845H17.6627H17.641H17.6192H17.5975H17.5757H17.554H17.5322H17.5105H17.4887H17.467H17.4452H17.4235H17.4017H17.38H17.3582H17.3364H17.3147H17.2929H17.2712H17.2494H17.2277H17.2059H17.1842H17.1624H17.1407H17.1189H17.0972H17.0754H17.0536H17.0319H17.0101H16.9884H16.9666H16.9449H16.9231H16.9014H16.8796H16.8579H16.8361H16.8144H16.7926H16.7709H16.7491H16.7273H16.7056H16.6838H16.6621H16.6403H16.6186H16.5968H16.5751H16.5533H16.5316H16.5098H16.4881H16.4663H16.4446H16.4228H16.401H16.3793H16.3575H16.3358H16.314H16.2923H16.2705H16.2488H16.227H16.2053H16.1835H16.1618H16.14H16.1183H16.0965H16.0747H16.053H16.0312H16.0095H15.9877H15.966H15.9442H15.9225H15.9007H15.879H15.8572H15.8355H15.8137H15.7919H15.7702H15.7484H15.7267H15.7049H15.6832H15.6614H15.6397H15.6179H15.5962H15.5744H15.5527H15.5309H15.5092H15.4874H15.4405V7.33353C15.4405 7.17051 15.4567 7.01144 15.4874 6.85786C15.494 6.82497 15.5013 6.79236 15.5092 6.76001C15.5159 6.73233 15.5232 6.70485 15.5309 6.67758C15.5378 6.65322 15.545 6.62903 15.5527 6.60501C15.5596 6.58305 15.5668 6.56122 15.5744 6.53956C15.5814 6.51948 15.5886 6.49951 15.5962 6.47968C15.6032 6.46117 15.6104 6.44274 15.6179 6.42447C15.625 6.40722 15.6322 6.39005 15.6397 6.373C15.6467 6.35682 15.654 6.34075 15.6614 6.32477C15.6685 6.30952 15.6758 6.29438 15.6832 6.27932C15.6903 6.26483 15.6976 6.25046 15.7049 6.23614C15.712 6.22235 15.7193 6.20865 15.7267 6.19502C15.7338 6.18181 15.7411 6.1687 15.7484 6.15566C15.7556 6.143 15.7628 6.1304 15.7702 6.11791C15.7773 6.1058 15.7846 6.09378 15.7919 6.08181C15.7991 6.07022 15.8064 6.05874 15.8137 6.0473C15.8209 6.0361 15.8281 6.02494 15.8355 6.01387C15.8426 6.00302 15.8498 5.99218 15.8572 5.98146C15.8644 5.97109 15.8717 5.96084 15.879 5.95059C15.8861 5.94051 15.8934 5.93051 15.9007 5.92056C15.9079 5.91076 15.9151 5.90092 15.9225 5.89125C15.9296 5.88184 15.9369 5.87258 15.9442 5.86329C15.9514 5.85412 15.9587 5.84503 15.966 5.836C15.9732 5.82708 15.9804 5.81815 15.9877 5.80934C15.9949 5.80076 16.0022 5.79232 16.0095 5.78385C16.0167 5.77545 16.0239 5.76703 16.0312 5.75874C16.0384 5.75062 16.0457 5.74258 16.053 5.73455C16.0602 5.72663 16.0674 5.71878 16.0747 5.71096C16.082 5.70325 16.0892 5.69554 16.0965 5.68792C16.1037 5.68044 16.111 5.67306 16.1183 5.66569C16.1255 5.65835 16.1327 5.65094 16.14 5.64372C16.1472 5.63665 16.1545 5.62974 16.1618 5.62276C16.169 5.61581 16.1762 5.60885 16.1835 5.602C16.1907 5.59526 16.198 5.58865 16.2053 5.58203C16.2125 5.57544 16.2197 5.56885 16.227 5.56235C16.2342 5.55595 16.2415 5.54964 16.2488 5.54333C16.256 5.53708 16.2632 5.53085 16.2705 5.52469C16.2777 5.51858 16.285 5.51255 16.2923 5.50656L16.314 5.48885L16.3358 5.4716C16.343 5.46594 16.3503 5.46033 16.3575 5.45476C16.3648 5.44926 16.372 5.44377 16.3793 5.43834L16.401 5.42234C16.4083 5.41709 16.4155 5.41189 16.4228 5.40673L16.4446 5.39148L16.4663 5.37664C16.4735 5.37177 16.4808 5.36692 16.4881 5.36214L16.5098 5.34807C16.5171 5.34342 16.5243 5.33877 16.5316 5.33422C16.5388 5.3297 16.5461 5.32531 16.5533 5.32089C16.5606 5.31647 16.5678 5.312 16.5751 5.30767C16.5823 5.3034 16.5896 5.29927 16.5968 5.29507C16.6041 5.29087 16.6113 5.2866 16.6186 5.28249C16.6258 5.27844 16.6331 5.27452 16.6403 5.27055C16.6476 5.26657 16.6548 5.26258 16.6621 5.25868C16.6693 5.25481 16.6766 5.25106 16.6838 5.24729C16.6911 5.24354 16.6983 5.23977 16.7056 5.23609L16.7273 5.22521C16.7346 5.22164 16.7418 5.21817 16.7491 5.21468C16.7564 5.21121 16.7636 5.20768 16.7709 5.20428C16.7781 5.20092 16.7854 5.19771 16.7926 5.19443C16.7999 5.19114 16.8071 5.1878 16.8144 5.18459C16.8216 5.18142 16.8289 5.17839 16.8361 5.17529C16.8434 5.17221 16.8506 5.1691 16.8579 5.16609L16.8796 5.15722L16.9014 5.14866C16.9086 5.14582 16.9158 5.14295 16.9231 5.1402C16.9303 5.13748 16.9376 5.13492 16.9449 5.13227C16.9521 5.12962 16.9594 5.12691 16.9666 5.12434C16.9738 5.12178 16.9811 5.11937 16.9884 5.11689L17.0101 5.10959C17.0174 5.1072 17.0246 5.10479 17.0319 5.10248C17.0391 5.10018 17.0464 5.09802 17.0536 5.09579C17.0609 5.09355 17.0681 5.09124 17.0754 5.08909C17.0826 5.08697 17.0899 5.08499 17.0972 5.08293C17.1044 5.08088 17.1116 5.07881 17.1189 5.07683L17.1407 5.07101C17.1479 5.06912 17.1552 5.06733 17.1624 5.06552C17.1697 5.06371 17.1769 5.06177 17.1842 5.06003C17.1914 5.05831 17.1987 5.05674 17.2059 5.05508L17.2277 5.05017L17.2494 5.04553C17.2566 5.04403 17.2639 5.04263 17.2712 5.04121C17.2784 5.03978 17.2857 5.03825 17.2929 5.03688C17.3002 5.03552 17.3075 5.03436 17.3147 5.0331L17.3364 5.02936C17.3437 5.02817 17.3509 5.02694 17.3582 5.02582C17.3654 5.0247 17.3727 5.02371 17.38 5.02266C17.3872 5.02162 17.3944 5.02048 17.4017 5.01951C17.4089 5.01854 17.4162 5.01768 17.4235 5.01678L17.4452 5.0142C17.4525 5.01338 17.4597 5.01247 17.467 5.01172C17.4742 5.01098 17.4815 5.0104 17.4887 5.00973L17.5105 5.00773L17.5322 5.00603C17.5395 5.00549 17.5467 5.00506 17.554 5.00459C17.5612 5.00414 17.5685 5.00357 17.5757 5.00317C17.583 5.00278 17.5902 5.00256 17.5975 5.00224L17.6192 5.0014C17.6265 5.00116 17.6337 5.00084 17.641 5.00067C17.6482 5.0005 17.6555 5.00049 17.6627 5.00037C17.67 5.00026 17.6772 5.00013 17.6845 5.00009L17.69 5.00002H17.7063H17.728H17.7498H17.7715H17.7933H17.815H17.8368H17.8585H17.8803H17.902H17.9238H17.9455H17.9673H17.989H18.0108H18.0326H18.0543H18.0761H18.0978H18.1196H18.1413H18.1631H18.1848H18.2066H18.2283H18.2501H18.2718H18.2936H18.3153H18.3371H18.3589H18.3806H18.4024H18.4241H18.4459H18.4676H18.4894H18.5111H18.5329H18.5546H18.5764H18.5981H18.6199H18.6417H18.6634H18.6852H18.7069H18.7287H18.7504H18.7722H18.7939H18.8157H18.8374H18.8592H18.8809H18.9027H18.9244H18.9462H18.968H18.9897H19.0115H19.0332H19.055H19.0767H19.0985H19.1202H19.142H19.1637H19.1855H19.2072H19.229H19.2508H19.2725H19.2943H19.316H19.3378H19.3595H19.3813H19.403H19.4248H19.4465H19.4683H19.49H19.5118H19.5336H19.5553H19.5771H19.5988H19.6206H19.6423H19.6641H19.6858H19.7076H19.7293H19.7511H19.7728H19.7946H19.8164H19.8381H19.8599H19.8816H19.9034H19.9251H19.9469H19.9686H19.9904H20.0121H20.0339H20.0556H20.0774H20.0992H20.1209H20.1427H20.1644H20.1862H20.2079H20.2297H20.2514H20.2732H20.2949H20.3167H20.3384H20.3602H20.3819H20.4037H20.4255H20.4472H20.469H20.4907H20.5125H20.5342H20.556H20.5777H20.5995H20.6212H20.643H20.6647H20.6865H20.7083H20.73H20.7518H20.7735H20.7953H20.817H20.8388H20.8605H20.8823H20.904H20.9258H20.9475H20.9693H20.991V5Z" fill="#333333"/>
<path fill-rule="evenodd" clip-rule="evenodd" d="M3.04664 13.1192C3.03108 13.1116 3.01554 13.1039 3 13.0961V7.33351C3 7.17096 3.01608 7.0123 3.04664 6.85913C3.05321 6.82624 3.06049 6.79365 3.06837 6.76128C3.07511 6.73356 3.08238 6.70606 3.09008 6.67876C3.09695 6.65442 3.10419 6.63026 3.11178 6.60626C3.11874 6.58429 3.12594 6.56241 3.13351 6.54072C3.14052 6.52065 3.1477 6.5007 3.15522 6.4809C3.16223 6.46238 3.16948 6.44392 3.17694 6.42562C3.18399 6.40838 3.19122 6.39124 3.19865 6.37422C3.20572 6.35803 3.21297 6.34198 3.22036 6.326C3.22743 6.31073 3.23471 6.29558 3.24208 6.2805C3.24917 6.26601 3.25642 6.25164 3.26379 6.23734C3.2709 6.22355 3.27814 6.20984 3.2855 6.19622C3.29262 6.18302 3.29985 6.1699 3.30723 6.15687C3.31437 6.14421 3.32156 6.1316 3.32893 6.11909C3.33607 6.10699 3.34332 6.09499 3.35066 6.08305C3.35776 6.07147 3.36507 6.05997 3.37237 6.04853C3.37953 6.03733 3.38674 6.02617 3.39407 6.0151C3.40129 6.00424 3.40843 5.99339 3.4158 5.98266C3.42292 5.9723 3.43022 5.96207 3.43751 5.95182C3.44468 5.94174 3.45191 5.93174 3.45923 5.92179C3.46643 5.91201 3.4736 5.90215 3.48094 5.89248C3.48808 5.88309 3.49538 5.87385 3.50265 5.86458C3.50983 5.85541 3.51706 5.84628 3.52438 5.83723C3.53157 5.82833 3.53876 5.81944 3.54608 5.81065C3.55324 5.80205 3.56053 5.79359 3.56781 5.7851C3.575 5.77668 3.5822 5.76828 3.58952 5.75999C3.59667 5.75187 3.60396 5.74386 3.61122 5.73586C3.61842 5.72792 3.62565 5.72006 3.63295 5.71224C3.64014 5.70453 3.64736 5.69682 3.65466 5.68921C3.66183 5.68172 3.66912 5.67435 3.67638 5.66698C3.68361 5.65964 3.69077 5.65225 3.69809 5.64503C3.70525 5.63795 3.71255 5.63105 3.7198 5.62406C3.72703 5.6171 3.73421 5.61012 3.74153 5.60327C3.7487 5.59655 3.75598 5.58996 3.76323 5.58333C3.77046 5.57675 3.77766 5.57014 3.78496 5.56364C3.79215 5.55724 3.7994 5.55095 3.80667 5.54464C3.81386 5.53839 3.82109 5.53213 3.82837 5.52597C3.83557 5.51989 3.84283 5.51386 3.8501 5.50785C3.85731 5.50189 3.86452 5.496 3.87181 5.49013C3.879 5.48433 3.88627 5.4786 3.89353 5.47289C3.90075 5.46723 3.90798 5.46159 3.91524 5.45603L3.93695 5.43964C3.94416 5.43425 3.95139 5.42889 3.95867 5.42359C3.96587 5.41835 3.97312 5.41316 3.98038 5.408C3.98759 5.40287 3.99482 5.39777 4.00209 5.39274C4.0093 5.38775 4.01655 5.38284 4.02382 5.37793C4.03103 5.37306 4.03824 5.36815 4.04552 5.36335C4.05272 5.35861 4.05998 5.35398 4.06725 5.34932C4.07448 5.34467 4.08167 5.33997 4.08896 5.33541C4.09613 5.33091 4.10342 5.32655 4.11067 5.32212C4.11791 5.3177 4.12509 5.3132 4.13239 5.30885C4.13957 5.30458 4.14687 5.30049 4.1541 5.29629C4.16135 5.29209 4.16854 5.28783 4.17582 5.28371C4.18302 5.27964 4.19028 5.27572 4.19753 5.27174C4.20476 5.26777 4.21197 5.26377 4.21924 5.25987C4.22645 5.25601 4.2337 5.25222 4.24097 5.24843L4.26267 5.23727C4.2699 5.23359 4.27713 5.22991 4.2844 5.22633C4.29161 5.22276 4.29886 5.21931 4.30611 5.21582C4.31335 5.21233 4.32053 5.20876 4.32781 5.20536C4.33501 5.20199 4.34229 5.19881 4.34954 5.19553C4.35677 5.19224 4.36398 5.1889 4.37125 5.18569C4.37846 5.18252 4.38573 5.17946 4.39297 5.17636L4.41468 5.16717L4.43639 5.15825L4.45812 5.1497C4.46536 5.14687 4.47254 5.14393 4.47982 5.14117C4.48702 5.13845 4.49432 5.13591 4.50155 5.13326C4.50878 5.13061 4.51599 5.12792 4.52326 5.12534L4.54496 5.11782L4.56669 5.11052C4.57392 5.10813 4.58113 5.10569 4.5884 5.10337C4.59559 5.10108 4.60288 5.09889 4.61011 5.09667C4.61735 5.09443 4.62457 5.09215 4.63183 5.08999C4.63904 5.08784 4.64629 5.08585 4.65354 5.08377L4.67526 5.07767C4.68249 5.07569 4.68971 5.07368 4.69697 5.07177C4.70418 5.06987 4.71145 5.06813 4.71868 5.0663C4.72591 5.06447 4.73314 5.06257 4.74041 5.06081C4.74762 5.05908 4.75488 5.05745 4.76211 5.05579L4.78384 5.0509C4.79107 5.0493 4.79828 5.04767 4.80555 5.04616C4.81276 5.04467 4.82003 5.04329 4.82726 5.04185C4.8345 5.04041 4.84171 5.03892 4.84898 5.03756C4.85621 5.03619 4.86344 5.03496 4.87069 5.03367L4.89241 5.02994C4.89964 5.02875 4.90686 5.02746 4.91412 5.02632C4.92133 5.02518 4.9286 5.02423 4.93583 5.02316C4.94306 5.02212 4.95029 5.021 4.95756 5.02001L4.97926 5.01719L5.00099 5.01463C5.00824 5.01379 5.01543 5.01282 5.0227 5.01206C5.02991 5.01129 5.03717 5.01073 5.0444 5.01004L5.06613 5.00806C5.07336 5.00743 5.08059 5.00681 5.08784 5.00627C5.09507 5.00573 5.10232 5.0053 5.10956 5.00483C5.11681 5.00437 5.12402 5.00383 5.13127 5.00342C5.13848 5.00301 5.14573 5.00273 5.15298 5.00239L5.17471 5.00153C5.18194 5.00127 5.18915 5.00088 5.19641 5.00069C5.20363 5.0005 5.21089 5.00052 5.21812 5.00041C5.22535 5.0003 5.2326 5.00017 5.23985 5.00013L5.24949 5H5.26155H5.28328H5.30499H5.3267H5.34842H5.37013H5.39186H5.41356H5.43527H5.457H5.4787H5.50043H5.52214H5.54385H5.56557H5.58728H5.609H5.63071H5.65242H5.67415H5.69585H5.71758H5.73929H5.761H5.78272H5.80443H5.82615H5.84786H5.86957H5.8913H5.913H5.93473H5.95644H5.97814H5.99987H6.02158H6.04329H6.06501H6.08672H6.10845H6.13015H6.15186H6.17359H6.19529H6.21702H6.23873H6.26044H6.28216H6.30387H6.32559H6.3473H6.36901H6.39074H6.41244H6.43417H6.45588H6.47758H6.49931H6.52102H6.54273H6.56445H6.58616H6.60789H6.62959H6.65132H6.67303H6.69473H6.71646H6.73817H6.75988H6.7816H6.80331H6.82504H6.84674H6.86845H6.89018H6.91188H6.93361H6.95532H6.97703H6.99875H7.02046H7.04219H7.06389H7.0856H7.10733H7.12903H7.15074H7.17247H7.19418H7.2159H7.23761H7.25933H7.28104H7.30275H7.32448H7.34618H7.36791H7.38962H7.41132H7.43305H7.45476H7.47647H7.49819H7.5199H7.54163H7.56333H7.58506H7.60677H7.62847H7.6502H7.67191H7.69362H7.71534H7.73705H7.75877H7.78048H7.80219H7.82392H7.84562H7.86733H7.88906H7.91077H7.93249H7.9542H7.97592H7.99763H8.01934H8.04107H8.06277H8.08448H8.10621H8.12791H8.14964H8.17135H8.19306H8.21478H8.23649H8.25822H8.27992H8.30163H8.32336H8.34506H8.36679H8.3885H8.41021H8.43193H8.45364H8.47535H8.49707H8.51878H8.54051H8.55893V16.6667C8.55893 16.7682 8.55264 16.8681 8.54051 16.9662C8.53466 17.0134 8.52731 17.0602 8.51878 17.1065C8.51229 17.1417 8.50508 17.1766 8.49707 17.2112C8.49033 17.2404 8.48312 17.2694 8.47535 17.2981C8.46851 17.3233 8.46125 17.3484 8.45364 17.3732C8.44673 17.3957 8.43947 17.4181 8.43193 17.4403C8.42495 17.4608 8.41772 17.4813 8.41021 17.5016C8.40319 17.5205 8.39596 17.5393 8.3885 17.558C8.38147 17.5756 8.37422 17.5932 8.36679 17.6105C8.35972 17.627 8.35247 17.6434 8.34506 17.6597C8.338 17.6753 8.33075 17.6907 8.32336 17.7061C8.31625 17.7208 8.30902 17.7355 8.30163 17.75C8.29453 17.7641 8.2873 17.778 8.27992 17.7919C8.27278 17.8053 8.26561 17.8186 8.25822 17.8318C8.25109 17.8446 8.24385 17.8573 8.23649 17.8699C8.22939 17.8821 8.2221 17.8942 8.21478 17.9063C8.20764 17.918 8.20039 17.9297 8.19306 17.9414C8.18588 17.9527 8.1787 17.9641 8.17135 17.9753C8.16421 17.9862 8.15694 17.997 8.14964 18.0077C8.1425 18.0183 8.13523 18.0287 8.12791 18.0391C8.12074 18.0493 8.11353 18.0595 8.10621 18.0695C8.09905 18.0794 8.0918 18.0892 8.08448 18.0989C8.07732 18.1084 8.07006 18.1178 8.06277 18.1272C8.05558 18.1365 8.04839 18.1457 8.04107 18.1549C8.03391 18.1638 8.02662 18.1727 8.01934 18.1815C8.01216 18.1902 8.00493 18.1988 7.99763 18.2074C7.99042 18.2159 7.98324 18.2244 7.97592 18.2327C7.96877 18.2409 7.96146 18.2489 7.9542 18.257C7.94699 18.265 7.93981 18.2731 7.93249 18.281C7.92532 18.2887 7.91805 18.2963 7.91077 18.304C7.90357 18.3116 7.89636 18.3191 7.88906 18.3265C7.88186 18.3339 7.87463 18.3412 7.86733 18.3485C7.86016 18.3556 7.85289 18.3627 7.84562 18.3698C7.83841 18.3768 7.83122 18.3838 7.82392 18.3907C7.81674 18.3975 7.80946 18.4041 7.80219 18.4108C7.79496 18.4174 7.7878 18.4242 7.78048 18.4307C7.77333 18.4371 7.766 18.4434 7.75877 18.4497C7.75154 18.4561 7.74435 18.4625 7.73705 18.4687C7.72987 18.4748 7.72259 18.4808 7.71534 18.4868C7.70811 18.4928 7.70092 18.4989 7.69362 18.5048C7.68644 18.5106 7.67916 18.5163 7.67191 18.522C7.66468 18.5277 7.6575 18.5335 7.6502 18.5391C7.64302 18.5447 7.63572 18.5501 7.62847 18.5555C7.62124 18.561 7.61407 18.5664 7.60677 18.5718C7.59959 18.5771 7.59231 18.5822 7.58506 18.5874C7.57781 18.5926 7.57063 18.5978 7.56333 18.6029C7.55616 18.6079 7.54887 18.6128 7.54163 18.6177C7.53438 18.6226 7.5272 18.6277 7.5199 18.6325C7.51272 18.6373 7.50542 18.6419 7.49819 18.6465C7.49096 18.6512 7.48377 18.656 7.47647 18.6606C7.46927 18.6651 7.46199 18.6695 7.45476 18.674C7.44753 18.6784 7.44033 18.6829 7.43305 18.6872C7.42584 18.6916 7.41859 18.6958 7.41132 18.7C7.40411 18.7042 7.39688 18.7085 7.38962 18.7126C7.38241 18.7167 7.37518 18.7208 7.36791 18.7248L7.34618 18.7366C7.33895 18.7405 7.33174 18.7444 7.32448 18.7483C7.31726 18.7521 7.31002 18.7557 7.30275 18.7594C7.29552 18.7631 7.28833 18.767 7.28104 18.7706C7.27385 18.7742 7.26656 18.7776 7.25933 18.7811C7.25209 18.7846 7.24489 18.7882 7.23761 18.7916C7.23041 18.795 7.22313 18.7982 7.2159 18.8016L7.19418 18.8114L7.17247 18.8209C7.16526 18.8241 7.15799 18.8271 7.15074 18.8301C7.14351 18.8332 7.1363 18.8363 7.12903 18.8392C7.12184 18.8422 7.11457 18.8449 7.10733 18.8478C7.10008 18.8506 7.09288 18.8535 7.0856 18.8563C7.07839 18.8591 7.07114 18.8617 7.06389 18.8644L7.04219 18.8723L7.02046 18.88C7.01325 18.8825 7.00598 18.8849 6.99875 18.8873C6.9915 18.8897 6.98431 18.8923 6.97703 18.8946C6.96983 18.8969 6.96255 18.8991 6.95532 18.9013L6.93361 18.908L6.91188 18.9144C6.90467 18.9165 6.89742 18.9185 6.89018 18.9205C6.88293 18.9225 6.87572 18.9247 6.86845 18.9266C6.86126 18.9285 6.85395 18.9302 6.84674 18.9321C6.83951 18.9339 6.83228 18.9358 6.82504 18.9376L6.80331 18.9427L6.7816 18.9476C6.77435 18.9493 6.76716 18.951 6.75988 18.9525C6.75266 18.9541 6.7454 18.9554 6.73817 18.9568C6.73094 18.9583 6.72371 18.9598 6.71646 18.9612L6.69473 18.9652C6.68752 18.9665 6.68027 18.9677 6.67303 18.9689C6.66578 18.9702 6.65857 18.9715 6.65132 18.9727C6.64411 18.9738 6.63684 18.9748 6.62959 18.9759L6.60789 18.979C6.60066 18.98 6.59343 18.9811 6.58616 18.982C6.57895 18.9829 6.57168 18.9837 6.56445 18.9846C6.5572 18.9854 6.54999 18.9864 6.54273 18.9871C6.53551 18.9879 6.52827 18.9886 6.52102 18.9893L6.49931 18.9913C6.49206 18.9919 6.48485 18.9927 6.47758 18.9933C6.47037 18.9938 6.46311 18.9942 6.45588 18.9947L6.43417 18.9961L6.41244 18.9973C6.40523 18.9977 6.39797 18.9979 6.39074 18.9982C6.38349 18.9984 6.37626 18.9988 6.36901 18.999C6.3618 18.9992 6.35453 18.9993 6.3473 18.9995L6.32559 18.9997C6.31889 18.9998 6.3122 19 6.30546 19H6.30387H6.28216H6.26044H6.23873H6.21702H6.19529H6.17359H6.15186H6.13015H6.10845H6.08672H6.06501H6.04329H6.02158H5.99987H5.97814H5.95644H5.93473H5.913H5.8913H5.86957H5.84786H5.82615H5.80443H5.78272H5.761H5.73929H5.71758H5.69585H5.67415H5.65242H5.63071H5.609H5.58728H5.56557H5.54385H5.52214H5.50043H5.4787H5.457H5.43527H5.41356H5.39186H5.37013H5.34842H5.3267H5.30499H5.28328H5.26155H5.23985H5.21812H5.19641H5.17471H5.15298H5.13127H5.10956H5.08784H5.06613H5.0444H5.0227H5.00099H4.97926H4.95756H4.93583H4.91412H4.89241H4.87069H4.84898H4.82726H4.80555H4.78384H4.76211H4.74041H4.71868H4.69697H4.67526H4.65354H4.63183H4.61011H4.5884H4.56669H4.54496H4.52326H4.50155H4.47982H4.45812H4.43639H4.41468H4.39297H4.37125H4.34954H4.32781H4.30611H4.2844H4.26267H4.24097H4.21924H4.19753H4.17582H4.1541H4.13239H4.11067H4.08896H4.06725H4.04552H4.02382H4.00209H3.98038H3.95867H3.93695H3.91524H3.89353H3.87181H3.8501H3.82837H3.80667H3.78496H3.76323H3.74153H3.7198H3.69809H3.67638H3.65466H3.63295H3.61122H3.58952H3.56781H3.54608H3.52438H3.50265H3.48094H3.45923H3.43751H3.4158H3.39407H3.37237H3.35066H3.32893H3.30723H3.2855H3.26379H3.24208H3.22036H3.19865H3.17694H3.15522H3.13351H3.11178H3.09008H3.06837H3.04664H3V14.0826C3 14.0826 3.01605 14.0872 3.04664 14.0952L3.06837 14.1008L3.09008 14.1063L3.11178 14.1117L3.13351 14.117L3.15522 14.1222L3.17694 14.1274L3.19865 14.1325L3.22036 14.1375L3.24208 14.1424L3.26379 14.1473L3.2855 14.1521L3.30723 14.1568L3.32893 14.1615L3.35066 14.1661L3.37237 14.1706L3.39407 14.1751L3.4158 14.1796L3.43751 14.1839L3.45923 14.1883L3.48094 14.1926L3.50265 14.1968L3.52438 14.2009L3.54608 14.205L3.56781 14.2091L3.58952 14.2131L3.61122 14.217L3.63295 14.2209L3.65466 14.2248L3.67638 14.2285L3.69809 14.2323L3.7198 14.236L3.74153 14.2396L3.76323 14.2432L3.78496 14.2467L3.80667 14.2502L3.82837 14.2537L3.8501 14.2571L3.87181 14.2604L3.89353 14.2637L3.91524 14.2669L3.93695 14.2701L3.95867 14.2733L3.98038 14.2764L4.00209 14.2794L4.02382 14.2824L4.04552 14.2854L4.06725 14.2883L4.08896 14.2911L4.11067 14.2939L4.13239 14.2967L4.1541 14.2994L4.17582 14.302L4.19753 14.3047L4.21924 14.3072L4.24097 14.3097L4.26267 14.3122L4.2844 14.3146L4.30611 14.317L4.32781 14.3193L4.34954 14.3216L4.37125 14.3238L4.39297 14.326L4.41468 14.3281L4.43639 14.3302L4.45812 14.3323L4.47982 14.3342L4.50155 14.3361L4.52326 14.338L4.54496 14.3399L4.56669 14.3417L4.5884 14.3434L4.61011 14.3451L4.63183 14.3467L4.65354 14.3483L4.67526 14.3499L4.69697 14.3513L4.71868 14.3528L4.74041 14.3542L4.76211 14.3555L4.78384 14.3568L4.80555 14.358L4.82726 14.3592L4.84898 14.3604L4.87069 14.3615L4.89241 14.3625L4.91412 14.3635L4.93583 14.3644L4.95756 14.3654L4.97926 14.3661L5.00099 14.3669L5.0227 14.3677L5.0444 14.3683L5.06613 14.369L5.08784 14.3696L5.10956 14.3701L5.13127 14.3706L5.15298 14.371L5.17471 14.3713L5.19641 14.3717L5.21812 14.3719L5.23985 14.3721L5.26155 14.3723L5.28328 14.3724L5.30499 14.3724L5.31337 14.3725L5.3267 14.3724L5.34842 14.3723L5.37013 14.3721L5.39186 14.372L5.41356 14.3719L5.43527 14.3715L5.457 14.371L5.4787 14.3706L5.50043 14.3702L5.52214 14.3697L5.54385 14.369L5.56557 14.3683L5.58728 14.3676L5.609 14.3668L5.63071 14.3658L5.65242 14.3648L5.67415 14.3638L5.69585 14.3629L5.71758 14.3616L5.73929 14.3603L5.761 14.359L5.78272 14.3577L5.80443 14.3562L5.82615 14.3546L5.84786 14.353L5.86957 14.3514L5.8913 14.3496L5.913 14.3476L5.93473 14.3457L5.95644 14.3437L5.97814 14.3416L5.99987 14.3393L6.02158 14.337L6.04329 14.3347L6.06501 14.3322L6.08672 14.3296L6.10845 14.327L6.13015 14.3243L6.15186 14.3214L6.17359 14.3184L6.19529 14.3154L6.21702 14.3123C6.22434 14.3112 6.23146 14.31 6.23873 14.3089L6.26044 14.3056L6.28216 14.3022L6.30387 14.2986C6.31117 14.2974 6.31833 14.2961 6.32559 14.2948L6.3473 14.291C6.3545 14.2898 6.36187 14.2886 6.36901 14.2873C6.37633 14.2859 6.38345 14.2845 6.39074 14.2831L6.41244 14.2789L6.43417 14.2747L6.45588 14.2703C6.46318 14.2688 6.47034 14.2672 6.47758 14.2657L6.49931 14.261L6.52102 14.2563C6.52836 14.2547 6.53546 14.2529 6.54273 14.2513L6.56445 14.2462C6.57165 14.2445 6.57902 14.2429 6.58616 14.2411C6.5935 14.2393 6.60062 14.2375 6.60789 14.2356L6.62959 14.2301C6.63681 14.2282 6.64416 14.2265 6.65132 14.2246C6.65862 14.2226 6.6658 14.2206 6.67303 14.2187L6.69473 14.2127C6.70196 14.2106 6.7093 14.2087 6.71646 14.2066C6.72376 14.2046 6.73094 14.2024 6.73817 14.2003L6.75988 14.1938C6.76711 14.1916 6.77444 14.1894 6.7816 14.1872L6.80331 14.1803L6.82504 14.1733C6.83225 14.1709 6.8396 14.1686 6.84674 14.1662L6.86845 14.1587L6.89018 14.1511C6.89739 14.1486 6.90476 14.1461 6.91188 14.1435C6.91922 14.1408 6.92634 14.1381 6.93361 14.1353L6.95532 14.1272C6.96255 14.1244 6.96987 14.1216 6.97703 14.1188C6.98436 14.116 6.9915 14.113 6.99875 14.11C7.006 14.1071 7.0133 14.1042 7.02046 14.1012L7.04219 14.0921L7.06389 14.0826C7.0711 14.0795 7.07848 14.0764 7.0856 14.0732C7.09296 14.0699 7.10006 14.0665 7.10733 14.0631L7.12903 14.053L7.15074 14.0425C7.15804 14.039 7.16526 14.0353 7.17247 14.0317C7.1797 14.0281 7.18705 14.0245 7.19418 14.0208C7.20153 14.017 7.20865 14.0131 7.2159 14.0093C7.22315 14.0054 7.23047 14.0016 7.23761 13.9977C7.24495 13.9937 7.2521 13.9896 7.25933 13.9856C7.26662 13.9815 7.27387 13.9774 7.28104 13.9732C7.28834 13.969 7.29557 13.9647 7.30275 13.9605C7.31007 13.9561 7.31728 13.9517 7.32448 13.9473C7.33174 13.9428 7.33903 13.9383 7.34618 13.9338C7.35352 13.9292 7.3607 13.9245 7.36791 13.9198C7.37518 13.9151 7.38248 13.9103 7.38962 13.9055C7.39696 13.9006 7.40411 13.8955 7.41132 13.8905C7.41859 13.8855 7.42591 13.8805 7.43305 13.8754C7.44041 13.8701 7.44755 13.8647 7.45476 13.8594C7.46202 13.854 7.46934 13.8486 7.47647 13.8432C7.48382 13.8376 7.491 13.8319 7.49819 13.8262C7.50549 13.8204 7.51276 13.8146 7.5199 13.8088C7.52722 13.8028 7.53445 13.7967 7.54163 13.7906C7.54895 13.7844 7.55618 13.7781 7.56333 13.7718C7.57063 13.7654 7.57794 13.759 7.58506 13.7525C7.59243 13.7458 7.59957 13.7389 7.60677 13.7321C7.61405 13.7252 7.62137 13.7183 7.62847 13.7113C7.63585 13.7041 7.64304 13.6967 7.6502 13.6894C7.65754 13.6818 7.66477 13.6742 7.67191 13.6666C7.67921 13.6588 7.68653 13.651 7.69362 13.6431C7.70101 13.6348 7.70817 13.6265 7.71534 13.6181C7.72272 13.6095 7.72993 13.6008 7.73705 13.5921C7.74439 13.5831 7.75169 13.5741 7.75877 13.565C7.76613 13.5555 7.7734 13.5461 7.78048 13.5365C7.78789 13.5265 7.79507 13.5164 7.80219 13.5062C7.8096 13.4956 7.81681 13.485 7.82392 13.4743C7.83133 13.4631 7.83856 13.4519 7.84562 13.4405C7.85303 13.4287 7.86028 13.4167 7.86733 13.4046C7.87476 13.3919 7.88203 13.3791 7.88906 13.3662C7.89652 13.3525 7.90375 13.3388 7.91077 13.3249C7.91827 13.31 7.9255 13.2951 7.93249 13.28C7.94003 13.2638 7.94724 13.2474 7.9542 13.231C7.96175 13.2131 7.96902 13.1951 7.97592 13.177C7.98353 13.1569 7.9908 13.1367 7.99763 13.1164C8.00539 13.0933 8.01258 13.0699 8.01934 13.0464C8.02724 13.0189 8.03447 12.9911 8.04107 12.963C8.04925 12.9282 8.05652 12.893 8.06277 12.8574C8.07208 12.8044 8.07925 12.7506 8.08448 12.696C8.09178 12.62 8.09534 12.5425 8.09534 12.4639V9.75661H8.08448H8.06277H8.04107H8.01934H7.99763H7.97592H7.9542H7.93249H7.91077H7.88906H7.86733H7.84562H7.82392H7.80219H7.78048H7.75877H7.73705H7.71534H7.69362H7.67191H7.6502H7.62847H7.60677H7.58506H7.56333H7.54163H7.5199H7.49819H7.47647H7.45476H7.43305H7.41132H7.38962H7.36791H7.34618H7.32448H7.30275H7.28104H7.25933H7.23761H7.2159H7.19418H7.17247H7.15074H7.12903H7.10733H7.0856H7.06389H7.04219H7.02046H6.99875H6.97703H6.95532H6.93361H6.91188H6.89018H6.86845H6.84674H6.82504H6.80331H6.7816H6.75988H6.73817H6.71646H6.69473H6.67303H6.65132H6.62959H6.60789H6.58616H6.56445H6.54273H6.52102H6.49931H6.47758H6.45588H6.43417H6.41244H6.39074H6.36901H6.3473H6.32559H6.30387H6.28216H6.26044H6.23873H6.21702H6.19529H6.17359H6.15713V12.4639C6.15713 12.5063 6.15534 12.548 6.15186 12.5889C6.14743 12.641 6.14016 12.6917 6.13015 12.7411C6.12397 12.7716 6.11672 12.8016 6.10845 12.831C6.10185 12.8544 6.09463 12.8774 6.08672 12.9C6.07998 12.9193 6.07271 12.9383 6.06501 12.957C6.05814 12.9737 6.05091 12.9901 6.04329 13.0063C6.03634 13.0211 6.02915 13.0356 6.02158 13.0499C6.01462 13.0631 6.00733 13.076 5.99987 13.0889C5.99286 13.1009 5.98563 13.1128 5.97814 13.1245C5.97111 13.1355 5.96386 13.1463 5.95644 13.157C5.94937 13.1671 5.94218 13.1772 5.93473 13.1871C5.92766 13.1966 5.9204 13.2058 5.913 13.2149C5.90592 13.2237 5.89869 13.2323 5.8913 13.2408C5.88419 13.249 5.87696 13.2572 5.86957 13.2651C5.86245 13.2728 5.85524 13.2804 5.84786 13.2879C5.84074 13.2951 5.83351 13.3023 5.82615 13.3093C5.81903 13.3161 5.81177 13.3228 5.80443 13.3294C5.79731 13.3358 5.79006 13.3421 5.78272 13.3483C5.77558 13.3544 5.76832 13.3603 5.761 13.3662C5.75386 13.3719 5.74661 13.3776 5.73929 13.3831C5.73213 13.3886 5.7249 13.3939 5.71758 13.3991C5.71042 13.4043 5.70319 13.4093 5.69585 13.4143C5.6887 13.4191 5.68147 13.4239 5.67415 13.4286C5.66699 13.4332 5.65974 13.4377 5.65242 13.4422C5.64526 13.4465 5.63801 13.4508 5.63071 13.455C5.62355 13.4591 5.61631 13.4631 5.609 13.4671C5.60183 13.4711 5.5946 13.4749 5.58728 13.4787C5.5801 13.4824 5.57287 13.486 5.56557 13.4896C5.55838 13.4931 5.55117 13.4966 5.54385 13.5C5.53665 13.5033 5.52944 13.5066 5.52214 13.5098C5.51498 13.5129 5.50771 13.5159 5.50043 13.5189C5.49325 13.5219 5.48599 13.5248 5.4787 13.5276C5.47151 13.5304 5.4643 13.5332 5.457 13.5358C5.4498 13.5385 5.44257 13.5411 5.43527 13.5436C5.42809 13.5461 5.42085 13.5486 5.41356 13.5509C5.40639 13.5533 5.39912 13.5555 5.39186 13.5577C5.38466 13.5599 5.37741 13.5621 5.37013 13.5642C5.36292 13.5662 5.35571 13.5683 5.34842 13.5702C5.34123 13.5722 5.33398 13.574 5.3267 13.5758C5.31952 13.5776 5.31227 13.5793 5.30499 13.581C5.29779 13.5827 5.29056 13.5843 5.28328 13.5859C5.27607 13.5874 5.26886 13.5889 5.26155 13.5904C5.25436 13.5918 5.24711 13.5931 5.23985 13.5944C5.23263 13.5957 5.2254 13.5971 5.21812 13.5983L5.19641 13.6017C5.18922 13.6028 5.18197 13.6038 5.17471 13.6048C5.16749 13.6058 5.16028 13.6067 5.15298 13.6076L5.13127 13.6101C5.12408 13.6109 5.11683 13.6115 5.10956 13.6122C5.10233 13.6129 5.09512 13.6136 5.08784 13.6142C5.08064 13.6147 5.0734 13.6153 5.06613 13.6157C5.05892 13.6162 5.05167 13.6166 5.0444 13.617C5.03717 13.6174 5.02998 13.6178 5.0227 13.6181C5.0155 13.6184 5.00824 13.6186 5.00099 13.6188L4.97926 13.6193C4.97207 13.6195 4.96482 13.6195 4.95756 13.6195L4.94939 13.6196L4.93583 13.6196L4.91412 13.6194L4.89241 13.6191L4.87069 13.6186L4.84898 13.618L4.82726 13.6173L4.80555 13.6164L4.78384 13.6153L4.76211 13.6142L4.74041 13.6129L4.71868 13.6114L4.69697 13.6098L4.67526 13.6081L4.65354 13.6062L4.63183 13.6042L4.61011 13.602L4.5884 13.5997L4.56669 13.5973L4.54496 13.5947L4.52326 13.592L4.50155 13.5891L4.47982 13.5862L4.45812 13.5831L4.43639 13.5798L4.41468 13.5764L4.39297 13.5729L4.37125 13.5693L4.34954 13.5655L4.32781 13.5616L4.30611 13.5575L4.2844 13.5534L4.26267 13.5491L4.24097 13.5446L4.21924 13.5401L4.19753 13.5354L4.17582 13.5306L4.1541 13.5256L4.13239 13.5206L4.11067 13.5154L4.08896 13.5101L4.06725 13.5046L4.04552 13.4991L4.02382 13.4934L4.00209 13.4875L3.98038 13.4816L3.95867 13.4756L3.93695 13.4694L3.91524 13.4631L3.89353 13.4567L3.87181 13.4502L3.8501 13.4435L3.82837 13.4367L3.80667 13.4298L3.78496 13.4228L3.76323 13.4157L3.74153 13.4085L3.7198 13.4011L3.69809 13.3936L3.67638 13.3861L3.65466 13.3784L3.63295 13.3706L3.61122 13.3626L3.58952 13.3546L3.56781 13.3465L3.54608 13.3382L3.52438 13.3298L3.50265 13.3214L3.48094 13.3128L3.45923 13.3041L3.43751 13.2953L3.4158 13.2864L3.39407 13.2774L3.37237 13.2683L3.35066 13.2591L3.32893 13.2498L3.30723 13.2403L3.2855 13.2308L3.26379 13.2211L3.24208 13.2114L3.22036 13.2015L3.19865 13.1916L3.17694 13.1816L3.15522 13.1714L3.13351 13.1612L3.11178 13.1509L3.09008 13.1404L3.06837 13.1299L3.04664 13.1193V13.1192Z" fill="#333333"/>
<path fill-rule="evenodd" clip-rule="evenodd" d="M9.35702 10.3482C9.34119 10.3614 9.32561 10.3748 9.31039 10.3883V7.33351C9.31039 7.17106 9.32649 7.01249 9.35702 6.85937C9.36358 6.8265 9.37085 6.79393 9.37873 6.76158C9.38549 6.73382 9.39275 6.70629 9.40045 6.67894C9.40732 6.65458 9.41457 6.63039 9.42218 6.60637C9.42912 6.58442 9.43633 6.56258 9.44389 6.54093C9.45088 6.52086 9.45809 6.50089 9.46561 6.48108C9.47264 6.46256 9.47986 6.44414 9.48732 6.42585C9.49437 6.4086 9.5016 6.39147 9.50903 6.37442C9.51608 6.35824 9.52336 6.34217 9.53075 6.32619C9.53782 6.31092 9.54509 6.2958 9.55246 6.28072C9.55955 6.26623 9.56681 6.25186 9.57419 6.23754C9.58129 6.22375 9.58854 6.21005 9.59589 6.19642C9.60302 6.18323 9.61025 6.17009 9.61762 6.15706C9.62476 6.1444 9.63195 6.1318 9.63933 6.11929C9.64645 6.10722 9.6537 6.09522 9.66104 6.08329C9.66818 6.07168 9.67544 6.0602 9.68276 6.04874C9.68992 6.03752 9.69713 6.02638 9.70447 6.01531C9.71166 6.00444 9.71884 5.99358 9.7262 5.98286C9.73332 5.97249 9.74062 5.96228 9.7479 5.95205C9.75508 5.94197 9.76231 5.93194 9.76963 5.92199C9.77682 5.91219 9.784 5.90238 9.79134 5.89271C9.79846 5.88332 9.8058 5.87406 9.81306 5.86478C9.82024 5.85562 9.82747 5.84649 9.83477 5.83746C9.84196 5.82853 9.84918 5.81965 9.8565 5.81086C9.86365 5.80227 9.87094 5.7938 9.8782 5.78532C9.8854 5.77692 9.89261 5.76848 9.89993 5.76018C9.90709 5.75206 9.91435 5.74403 9.92162 5.73602C9.92879 5.72811 9.93604 5.72025 9.94333 5.71243C9.95054 5.70472 9.95775 5.69701 9.96505 5.6894C9.97223 5.68193 9.97949 5.67456 9.98676 5.66718C9.99399 5.65985 10.0012 5.65246 10.0085 5.64521C10.0156 5.63814 10.0229 5.63123 10.0302 5.62425C10.0374 5.61729 10.0446 5.61031 10.0519 5.60346C10.0591 5.59674 10.0664 5.59013 10.0736 5.5835C10.0808 5.5769 10.0881 5.57031 10.0954 5.56381C10.1025 5.55741 10.1098 5.55112 10.1171 5.54481C10.1243 5.53855 10.1315 5.5323 10.1388 5.52612C10.146 5.52004 10.1532 5.51401 10.1605 5.50802C10.1677 5.50206 10.1749 5.49615 10.1822 5.49028C10.1894 5.4845 10.1967 5.47877 10.2039 5.47306C10.2111 5.4674 10.2184 5.46176 10.2256 5.4562C10.2328 5.45067 10.2401 5.44522 10.2474 5.43979C10.2546 5.43442 10.2618 5.42904 10.2691 5.42374C10.2763 5.41849 10.2835 5.41332 10.2908 5.40815C10.298 5.40302 10.3052 5.39791 10.3125 5.39287C10.3197 5.38788 10.327 5.38297 10.3342 5.37806C10.3414 5.37317 10.3487 5.36828 10.3559 5.36349C10.3631 5.35874 10.3704 5.35411 10.3777 5.34945C10.3849 5.3448 10.3921 5.3401 10.3994 5.33554C10.4066 5.33102 10.4138 5.32666 10.4211 5.32223C10.4283 5.31781 10.4355 5.31329 10.4428 5.30896C10.45 5.30469 10.4573 5.30058 10.4645 5.29638C10.4718 5.29218 10.479 5.28794 10.4862 5.28384C10.4934 5.27977 10.5007 5.27585 10.5079 5.27185C10.5152 5.26788 10.5224 5.26388 10.5297 5.25998L10.5514 5.24854L10.5731 5.23736C10.5803 5.2337 10.5875 5.23 10.5948 5.22642C10.602 5.22285 10.6093 5.2194 10.6165 5.21591C10.6238 5.21244 10.631 5.20886 10.6382 5.20546C10.6454 5.20208 10.6527 5.19891 10.66 5.19562C10.6672 5.19234 10.6744 5.18899 10.6817 5.18578C10.6889 5.18261 10.6961 5.17953 10.7034 5.17643L10.7251 5.16725C10.7323 5.16424 10.7396 5.16124 10.7468 5.15831C10.754 5.1554 10.7613 5.1526 10.7685 5.14976C10.7758 5.14692 10.783 5.14399 10.7903 5.14123C10.7974 5.1385 10.8047 5.13596 10.812 5.13331C10.8192 5.13066 10.8264 5.12797 10.8337 5.1254C10.8409 5.12282 10.8482 5.12036 10.8554 5.11788L10.8771 5.11058C10.8844 5.10819 10.8916 5.10574 10.8988 5.10341C10.906 5.10111 10.9133 5.09895 10.9206 5.09673C10.9278 5.09449 10.935 5.09219 10.9423 5.09003C10.9495 5.08788 10.9567 5.08588 10.964 5.08381L10.9857 5.07771C10.9929 5.07573 11.0002 5.07371 11.0074 5.07181C11.0146 5.06992 11.0219 5.06815 11.0291 5.06632C11.0364 5.06449 11.0436 5.06259 11.0509 5.06083C11.0581 5.0591 11.0653 5.05747 11.0726 5.05581L11.0943 5.05092C11.1015 5.04933 11.1087 5.04769 11.116 5.04618C11.1232 5.04467 11.1305 5.04331 11.1377 5.04187C11.145 5.04043 11.1522 5.03892 11.1594 5.03756L11.1812 5.03367L11.2029 5.02996C11.2101 5.02875 11.2173 5.02746 11.2246 5.02632C11.2318 5.02518 11.2391 5.02423 11.2463 5.02316C11.2535 5.02212 11.2608 5.02102 11.268 5.02003L11.2897 5.01721L11.3114 5.01463C11.3187 5.01379 11.3259 5.01282 11.3332 5.01206C11.3404 5.01129 11.3476 5.01073 11.3549 5.01004L11.3766 5.00806C11.3838 5.00743 11.3911 5.00681 11.3983 5.00627C11.4055 5.00573 11.4128 5.0053 11.42 5.00483C11.4273 5.00437 11.4345 5.00383 11.4417 5.00342C11.449 5.00301 11.4562 5.00273 11.4635 5.00239L11.4852 5.00153C11.4924 5.00127 11.4996 5.00088 11.5069 5.00069C11.5141 5.0005 11.5214 5.00052 11.5286 5.00041C11.5359 5.0003 11.5431 5.00017 11.5503 5.00013L11.5599 5H11.572H11.5938H11.6155H11.6372H11.6589H11.6806H11.7023H11.724H11.7458H11.7675H11.7892H11.8109H11.8326H11.8543H11.8761H11.8978H11.9195H11.9412H11.9629H11.9846H12.0064H12.0281H12.0498H12.0715H12.0932H12.1149H12.1367H12.1584H12.1801H12.2018H12.2235H12.2452H12.267H12.2887H12.3104H12.3321H12.3538H12.3755H12.3972H12.419H12.4407H12.4624H12.4841H12.5058H12.5275H12.5492H12.571H12.5927H12.6144H12.6361H12.6578H12.6795H12.7013H12.723H12.7447H12.7664H12.7881H12.8098H12.8316H12.8533H12.875H12.8967H12.9184H12.9402H12.9619H12.9836H13.0053H13.027H13.0487H13.0705H13.0922H13.1139H13.1356H13.1573H13.179H13.2007H13.2225H13.2442H13.2659H13.2876H13.3093H13.331H13.3527H13.3745H13.3962H13.4179H13.4396H13.4613H13.483H13.5048H13.5265H13.5482H13.5699H13.5916H13.6133H13.6351H13.6568H13.6785H13.7002H13.7219H13.7436H13.7654H13.7871H13.8088H13.8305H13.8522H13.8739H13.8957H13.9174H13.9391H13.9608H13.9825H14.0042H14.026H14.0477H14.0694H14.0911H14.1128H14.1345H14.1563H14.178H14.1997H14.2214H14.2431H14.2648H14.2865H14.3083H14.33H14.3517H14.3734H14.3951H14.4168H14.4385H14.4603H14.482H14.5037H14.5254H14.5471H14.5688H14.5906H14.6123H14.634H14.6557H14.6774H14.6991H14.7209H14.7426H14.7643H14.786H14.8077H14.8294H14.8512H14.8696V16.6667C14.8696 16.7681 14.8633 16.868 14.8512 16.9661C14.8453 17.0133 14.838 17.06 14.8294 17.1062C14.823 17.1415 14.8157 17.1764 14.8077 17.2111C14.801 17.2403 14.7938 17.2692 14.786 17.298C14.7792 17.3232 14.7719 17.3482 14.7643 17.3731C14.7574 17.3956 14.7501 17.4179 14.7426 17.4401C14.7356 17.4607 14.7284 17.4811 14.7209 17.5014C14.7138 17.5204 14.7066 17.5392 14.6991 17.5579C14.6921 17.5755 14.6849 17.593 14.6774 17.6104C14.6704 17.6269 14.6631 17.6433 14.6557 17.6596C14.6486 17.6751 14.6414 17.6906 14.634 17.706C14.6269 17.7207 14.6197 17.7354 14.6123 17.7499C14.6052 17.7639 14.5979 17.7779 14.5906 17.7918C14.5834 17.8052 14.5762 17.8185 14.5688 17.8317C14.5617 17.8445 14.5545 17.8572 14.5471 17.8698C14.54 17.882 14.5327 17.8941 14.5254 17.9061C14.5183 17.9179 14.511 17.9296 14.5037 17.9412C14.4965 17.9526 14.4894 17.964 14.482 17.9752C14.4748 17.9861 14.4676 17.9969 14.4603 18.0076C14.4531 18.0181 14.4459 18.0285 14.4385 18.0389C14.4314 18.0491 14.4242 18.0593 14.4168 18.0694C14.4097 18.0793 14.4024 18.089 14.3951 18.0987C14.388 18.1082 14.3807 18.1177 14.3734 18.1271C14.3662 18.1363 14.359 18.1456 14.3517 18.1548C14.3445 18.1637 14.3373 18.1725 14.33 18.1814C14.3228 18.1901 14.3156 18.1987 14.3083 18.2073C14.301 18.2157 14.2939 18.2242 14.2865 18.2326C14.2794 18.2408 14.2721 18.2488 14.2648 18.2569C14.2576 18.2649 14.2504 18.273 14.2431 18.2809C14.2359 18.2886 14.2287 18.2962 14.2214 18.3039C14.2142 18.3114 14.207 18.3189 14.1997 18.3264C14.1925 18.3338 14.1853 18.3411 14.178 18.3484C14.1708 18.3555 14.1635 18.3626 14.1563 18.3696C14.149 18.3766 14.1418 18.3837 14.1345 18.3906C14.1274 18.3974 14.1201 18.404 14.1128 18.4107C14.1056 18.4174 14.0984 18.4241 14.0911 18.4306C14.0839 18.4371 14.0766 18.4433 14.0694 18.4497C14.0621 18.456 14.055 18.4624 14.0477 18.4686C14.0405 18.4747 14.0332 18.4807 14.026 18.4867C14.0187 18.4927 14.0115 18.4988 14.0042 18.5047C13.9971 18.5105 13.9898 18.5162 13.9825 18.5219C13.9753 18.5276 13.9681 18.5334 13.9608 18.539C13.9536 18.5446 13.9463 18.55 13.9391 18.5554C13.9319 18.5609 13.9247 18.5664 13.9174 18.5717C13.9102 18.577 13.9029 18.5821 13.8957 18.5873C13.8884 18.5925 13.8812 18.5977 13.8739 18.6028C13.8668 18.6078 13.8595 18.6127 13.8522 18.6176C13.845 18.6226 13.8378 18.6276 13.8305 18.6324C13.8233 18.6372 13.816 18.6418 13.8088 18.6465C13.8016 18.6511 13.7944 18.6559 13.7871 18.6605C13.7799 18.665 13.7726 18.6694 13.7654 18.6739C13.7581 18.6783 13.7509 18.6828 13.7436 18.6872C13.7364 18.6915 13.7292 18.6957 13.7219 18.6999L13.7002 18.7125L13.6785 18.7247L13.6568 18.7365C13.6495 18.7404 13.6423 18.7444 13.6351 18.7482C13.6279 18.752 13.6206 18.7557 13.6133 18.7594C13.6061 18.7631 13.5989 18.7669 13.5916 18.7705C13.5844 18.7741 13.5771 18.7775 13.5699 18.781C13.5627 18.7845 13.5555 18.7881 13.5482 18.7915C13.541 18.7949 13.5337 18.7982 13.5265 18.8015L13.5048 18.8113L13.483 18.8209L13.4613 18.8301C13.4541 18.8331 13.4469 18.8362 13.4396 18.8392C13.4324 18.8421 13.4251 18.8448 13.4179 18.8477C13.4107 18.8506 13.4035 18.8535 13.3962 18.8563C13.389 18.859 13.3817 18.8616 13.3745 18.8643L13.3527 18.8723L13.331 18.88C13.3238 18.8825 13.3166 18.8848 13.3093 18.8873C13.3021 18.8897 13.2949 18.8922 13.2876 18.8946C13.2804 18.8969 13.2731 18.899 13.2659 18.9013L13.2442 18.908L13.2225 18.9144C13.2152 18.9165 13.208 18.9185 13.2007 18.9205C13.1935 18.9225 13.1863 18.9246 13.179 18.9265C13.1718 18.9285 13.1645 18.9302 13.1573 18.932C13.1501 18.9339 13.1428 18.9358 13.1356 18.9375L13.1139 18.9427L13.0922 18.9476C13.0849 18.9492 13.0777 18.9509 13.0705 18.9525C13.0632 18.954 13.056 18.9554 13.0487 18.9568L13.027 18.9611L13.0053 18.9652C12.9981 18.9665 12.9908 18.9677 12.9836 18.9689C12.9763 18.9701 12.9691 18.9715 12.9619 18.9726C12.9546 18.9738 12.9474 18.9748 12.9402 18.9758L12.9184 18.979C12.9112 18.98 12.904 18.981 12.8967 18.982C12.8895 18.9829 12.8822 18.9837 12.875 18.9845C12.8678 18.9854 12.8605 18.9863 12.8533 18.9871C12.8461 18.9879 12.8388 18.9886 12.8316 18.9893L12.8098 18.9913C12.8026 18.9919 12.7954 18.9927 12.7881 18.9933C12.7809 18.9938 12.7737 18.9942 12.7664 18.9947L12.7447 18.9961L12.723 18.9973C12.7158 18.9977 12.7085 18.9979 12.7013 18.9982C12.694 18.9984 12.6868 18.9988 12.6795 18.999C12.6723 18.9992 12.6651 18.9993 12.6578 18.9994L12.6361 18.9997C12.6294 18.9998 12.6226 19 12.6159 19H12.6144H12.5927H12.571H12.5492H12.5275H12.5058H12.4841H12.4624H12.4407H12.419H12.3972H12.3755H12.3538H12.3321H12.3104H12.2887H12.267H12.2452H12.2235H12.2018H12.1801H12.1584H12.1367H12.1149H12.0932H12.0715H12.0498H12.0281H12.0064H11.9846H11.9629H11.9412H11.9195H11.8978H11.8761H11.8543H11.8326H11.8109H11.7892H11.7675H11.7458H11.724H11.7023H11.6806H11.6589H11.6372H11.6155H11.5938H11.572H11.5503H11.5286H11.5069H11.4852H11.4635H11.4417H11.42H11.3983H11.3766H11.3549H11.3332H11.3114H11.2897H11.268H11.2463H11.2246H11.2029H11.1812H11.1594H11.1377H11.116H11.0943H11.0726H11.0509H11.0291H11.0074H10.9857H10.964H10.9423H10.9206H10.8988H10.8771H10.8554H10.8337H10.812H10.7903H10.7685H10.7468H10.7251H10.7034H10.6817H10.66H10.6382H10.6165H10.5948H10.5731H10.5514H10.5297H10.5079H10.4862H10.4645H10.4428H10.4211H10.3994H10.3777H10.3559H10.3342H10.3125H10.2908H10.2691H10.2474H10.2256H10.2039H10.1822H10.1605H10.1388H10.1171H10.0954H10.0736H10.0519H10.0302H10.0085H9.98676H9.96505H9.94333H9.92162H9.89993H9.8782H9.8565H9.83477H9.81306H9.79134H9.76963H9.7479H9.7262H9.70447H9.68276H9.66104H9.63933H9.61762H9.59589H9.57419H9.55246H9.53075H9.50903H9.48732H9.46561H9.44389H9.42218H9.40045H9.37873H9.35702H9.31039V13.6126C9.32561 13.6261 9.34119 13.6395 9.35702 13.6527C9.36419 13.6587 9.37144 13.6647 9.37873 13.6707C9.38592 13.6765 9.39315 13.6824 9.40045 13.6882C9.40766 13.6939 9.41486 13.6996 9.42218 13.7053C9.42934 13.7108 9.43662 13.7163 9.44389 13.7218C9.45106 13.7272 9.45833 13.7326 9.46561 13.7379C9.47281 13.7432 9.48002 13.7485 9.48732 13.7537L9.50903 13.7691C9.5162 13.7742 9.52347 13.7791 9.53075 13.7841L9.55246 13.7988C9.55965 13.8036 9.56688 13.8084 9.57419 13.8132C9.58134 13.8178 9.58863 13.8224 9.59589 13.8271L9.61762 13.8408C9.62483 13.8452 9.63204 13.8497 9.63933 13.8541C9.6465 13.8585 9.65377 13.8628 9.66104 13.8671L9.68276 13.8799L9.70447 13.8924L9.7262 13.9045C9.73341 13.9085 9.7406 13.9125 9.7479 13.9165C9.75508 13.9204 9.76236 13.9242 9.76963 13.9281L9.79134 13.9395L9.81306 13.9507L9.83477 13.9615C9.842 13.9651 9.84919 13.9688 9.8565 13.9723L9.8782 13.9827L9.89993 13.993L9.92162 14.0029L9.94333 14.0127L9.96505 14.0223L9.98676 14.0317L10.0085 14.0409L10.0302 14.0499L10.0519 14.0588L10.0736 14.0673C10.0809 14.0701 10.0881 14.073 10.0954 14.0758L10.1171 14.084C10.1243 14.0867 10.1315 14.0895 10.1388 14.0922C10.146 14.0949 10.1533 14.0974 10.1605 14.1L10.1822 14.1079L10.2039 14.1154C10.2112 14.1179 10.2183 14.1205 10.2256 14.1229C10.2328 14.1254 10.2401 14.1277 10.2474 14.1301L10.2691 14.1373L10.2908 14.1442L10.3125 14.1511L10.3342 14.1577L10.3559 14.1643L10.3777 14.1707L10.3994 14.177L10.4211 14.1831L10.4428 14.1891L10.4645 14.195L10.4862 14.2007L10.5079 14.2064L10.5297 14.2118L10.5514 14.2173L10.5731 14.2225L10.5948 14.2276L10.6165 14.2326L10.6382 14.2375L10.66 14.2424L10.6817 14.247L10.7034 14.2516L10.7251 14.256L10.7468 14.2604L10.7685 14.2647L10.7903 14.2688L10.812 14.2729L10.8337 14.2768L10.8554 14.2807L10.8771 14.2845L10.8988 14.2881L10.9206 14.2918L10.9423 14.2952L10.964 14.2986L10.9857 14.3019L11.0074 14.3051L11.0291 14.3083L11.0509 14.3112L11.0726 14.3142L11.0943 14.3171L11.116 14.3198L11.1377 14.3226L11.1594 14.3251L11.1812 14.3277L11.2029 14.3302L11.2246 14.3325L11.2463 14.3348L11.268 14.3371L11.2897 14.3392L11.3114 14.3413L11.3332 14.3433L11.3549 14.3452L11.3766 14.3471L11.3983 14.3488L11.42 14.3505L11.4417 14.3522L11.4635 14.3537L11.4852 14.3552L11.5069 14.3567L11.5286 14.358L11.5503 14.3593L11.572 14.3606L11.5938 14.3617L11.6155 14.3629L11.6372 14.364L11.6589 14.3649L11.6806 14.3658L11.7023 14.3667L11.724 14.3674L11.7458 14.3682L11.7675 14.3689L11.7892 14.3695L11.8109 14.37L11.8326 14.3706L11.8543 14.371L11.8761 14.3714L11.8978 14.3718L11.9195 14.372L11.9412 14.3722L11.9629 14.3724L11.9846 14.3725L12.0064 14.3725L12.0281 14.3726L12.0498 14.3725L12.0715 14.3724L12.0932 14.3722L12.1149 14.3721L12.1367 14.3718L12.1584 14.3715L12.1801 14.3712L12.2018 14.3707L12.2235 14.3702L12.2452 14.3698L12.267 14.3692L12.2887 14.3686L12.3104 14.3679L12.3321 14.3673L12.3538 14.3665L12.3755 14.3657L12.3972 14.3649L12.419 14.364L12.4407 14.3631L12.4624 14.3621L12.473 14.3617L12.4841 14.3611L12.5058 14.36L12.5275 14.3588L12.5492 14.3576L12.571 14.3562L12.5927 14.3549L12.6144 14.3533L12.6361 14.3518L12.6578 14.3502L12.6795 14.3485L12.7013 14.3467L12.723 14.3449L12.7447 14.3429L12.7664 14.341L12.7881 14.3389L12.8098 14.3368L12.8316 14.3346L12.8533 14.3324L12.875 14.3301L12.8967 14.3277L12.9184 14.3253L12.9402 14.3228L12.9619 14.3203L12.9836 14.3177L13.0053 14.3151L13.027 14.3124L13.0487 14.3096L13.0705 14.3068L13.0922 14.3039L13.1139 14.301L13.1356 14.298L13.1573 14.295L13.179 14.2919L13.2007 14.2888L13.2225 14.2856L13.2442 14.2823L13.2659 14.2791L13.2876 14.2757L13.3093 14.2723L13.331 14.2689L13.3527 14.2654L13.3745 14.2619L13.3962 14.2583L13.4179 14.2547L13.4396 14.2511L13.4613 14.2473L13.483 14.2436L13.5048 14.2398L13.5265 14.2359L13.5482 14.232L13.5699 14.2281L13.5916 14.2241L13.6133 14.2201L13.6351 14.216L13.6568 14.2119L13.6785 14.2077L13.7002 14.2035L13.7219 14.1992L13.7436 14.1949L13.7654 14.1906L13.7871 14.1862L13.8088 14.1818L13.8305 14.1773L13.8522 14.1728L13.8739 14.1683L13.8957 14.1637L13.9174 14.159L13.9391 14.1543L13.9608 14.1496L13.9825 14.1448L14.0042 14.14L14.026 14.1351L14.0477 14.1301L14.0694 14.1252L14.0911 14.1201L14.1128 14.115L14.1345 14.1099L14.1563 14.1047L14.178 14.0994L14.1997 14.0941L14.2214 14.0886L14.243 14.0831V13.0961L14.2214 13.1072L14.1997 13.1183L14.178 13.1293L14.1563 13.1402L14.1345 13.151L14.1128 13.1617L14.0911 13.1723L14.0694 13.1828L14.0477 13.1932L14.026 13.2034L14.0042 13.2136L13.9825 13.2236L13.9608 13.2335L13.9391 13.2433L13.9174 13.253L13.8957 13.2625L13.8739 13.272L13.8522 13.2813L13.8305 13.2905L13.8088 13.2996L13.7871 13.3085L13.7654 13.3174L13.7436 13.326L13.7219 13.3346L13.7002 13.3431L13.6785 13.3514L13.6568 13.3596L13.6351 13.3677L13.6133 13.3756L13.5916 13.3834L13.5699 13.3911L13.5482 13.3987L13.5265 13.4061L13.5048 13.4134L13.483 13.4206L13.4613 13.4277L13.4396 13.4346L13.4179 13.4414L13.3962 13.448L13.3745 13.4546L13.3527 13.461L13.331 13.4672L13.3093 13.4734L13.2876 13.4794L13.2659 13.4853L13.2442 13.4911L13.2225 13.4967L13.2007 13.5022L13.179 13.5077L13.1573 13.5129L13.1356 13.518L13.1139 13.5231L13.0922 13.528L13.0705 13.5327L13.0487 13.5373L13.027 13.5418L13.0053 13.5462L12.9836 13.5505L12.9619 13.5546L12.9402 13.5586L12.9184 13.5625L12.8967 13.5663L12.875 13.5699L12.8533 13.5734L12.8316 13.5768L12.8098 13.5801L12.7881 13.5833L12.7664 13.5863L12.7447 13.5892L12.723 13.592L12.7013 13.5947L12.6795 13.5972L12.6578 13.5996L12.6361 13.602L12.6144 13.6041L12.5927 13.6062L12.571 13.6082L12.5492 13.61L12.5361 13.6111L12.5275 13.6117L12.5058 13.6132L12.4841 13.6147L12.4624 13.6159L12.4407 13.6171L12.419 13.6181L12.3972 13.6188L12.3755 13.6196L12.3538 13.6201L12.3321 13.6204L12.3104 13.6207C12.3031 13.6207 12.2959 13.6206 12.2887 13.6206L12.267 13.6205L12.2452 13.6202L12.2235 13.6197L12.2018 13.6191C12.1945 13.6189 12.1873 13.6185 12.1801 13.6182C12.1729 13.6179 12.1656 13.6177 12.1584 13.6173L12.1367 13.616L12.1149 13.6147L12.0932 13.6131L12.0715 13.6114C12.0643 13.6107 12.057 13.6102 12.0498 13.6095C12.0425 13.6088 12.0353 13.608 12.0281 13.6073L12.0064 13.605L11.9846 13.6024L11.9629 13.5997L11.9412 13.5967L11.9195 13.5935C11.9122 13.5924 11.905 13.5913 11.8978 13.5902C11.8905 13.589 11.8833 13.5877 11.8761 13.5865C11.8688 13.5852 11.8615 13.584 11.8543 13.5827C11.847 13.5814 11.8399 13.5799 11.8326 13.5785C11.8254 13.5771 11.8181 13.5758 11.8109 13.5743C11.8036 13.5728 11.7965 13.5712 11.7892 13.5696C11.782 13.568 11.7747 13.5665 11.7675 13.5649C11.7602 13.5632 11.753 13.5614 11.7458 13.5597L11.724 13.5544C11.7168 13.5526 11.7096 13.5507 11.7023 13.5487C11.6951 13.5468 11.6878 13.5449 11.6806 13.5429C11.6733 13.5409 11.6661 13.5388 11.6589 13.5367C11.6516 13.5346 11.6444 13.5325 11.6372 13.5303C11.6299 13.5281 11.6227 13.5258 11.6155 13.5235C11.6082 13.5212 11.601 13.5188 11.5938 13.5165C11.5865 13.514 11.5793 13.5115 11.572 13.509C11.5648 13.5065 11.5575 13.504 11.5503 13.5014C11.543 13.4988 11.5358 13.496 11.5286 13.4933C11.5214 13.4905 11.5141 13.4878 11.5069 13.485C11.4996 13.4821 11.4924 13.4792 11.4852 13.4762C11.4779 13.4732 11.4706 13.4703 11.4635 13.4672C11.4561 13.4641 11.449 13.4609 11.4417 13.4577C11.4345 13.4544 11.4272 13.4512 11.42 13.4479C11.4127 13.4445 11.4055 13.441 11.3983 13.4376C11.391 13.434 11.3838 13.4305 11.3766 13.427C11.3693 13.4233 11.3621 13.4196 11.3549 13.4158C11.3476 13.412 11.3404 13.4082 11.3332 13.4043C11.3259 13.4003 11.3186 13.3964 11.3114 13.3924C11.3041 13.3882 11.2969 13.384 11.2897 13.3797C11.2825 13.3755 11.2752 13.3712 11.268 13.3668C11.2607 13.3624 11.2535 13.3578 11.2463 13.3533C11.239 13.3486 11.2318 13.3439 11.2246 13.3391C11.2173 13.3343 11.21 13.3296 11.2029 13.3247C11.1955 13.3196 11.1884 13.3144 11.1812 13.3092C11.1739 13.304 11.1666 13.2987 11.1594 13.2934C11.1521 13.2879 11.1449 13.2825 11.1377 13.2769C11.1304 13.2712 11.1232 13.2654 11.116 13.2595C11.1087 13.2536 11.1015 13.2476 11.0943 13.2416C11.087 13.2354 11.0797 13.2292 11.0726 13.2229C11.0652 13.2164 11.058 13.2098 11.0509 13.2031C11.0435 13.1964 11.0363 13.1895 11.0291 13.1826C11.0218 13.1755 11.0146 13.1683 11.0074 13.1611C11.0001 13.1537 10.9928 13.1463 10.9857 13.1388C10.9783 13.131 10.9711 13.123 10.964 13.115C10.9566 13.1068 10.9494 13.0985 10.9423 13.0901C10.9349 13.0815 10.9277 13.0728 10.9206 13.064C10.9132 13.0549 10.906 13.0458 10.8988 13.0365C10.8915 13.0269 10.8842 13.0172 10.8771 13.0074C10.8698 12.9972 10.8625 12.987 10.8554 12.9766C10.848 12.9657 10.8408 12.9548 10.8337 12.9438C10.8263 12.9322 10.8191 12.9205 10.812 12.9087C10.8046 12.8963 10.7973 12.8837 10.7903 12.8711C10.7828 12.8577 10.7756 12.8442 10.7685 12.8305C10.7611 12.816 10.7539 12.8013 10.7468 12.7864C10.7393 12.7706 10.7321 12.7545 10.7251 12.7383C10.7176 12.7209 10.7103 12.7032 10.7034 12.6853C10.6957 12.6655 10.6886 12.6453 10.6817 12.6249C10.674 12.6023 10.6668 12.5795 10.66 12.5562C10.6521 12.5291 10.6449 12.5017 10.6382 12.4738C10.63 12.439 10.6228 12.4035 10.6165 12.3674C10.6072 12.3138 10.5999 12.2588 10.5948 12.2022C10.589 12.1369 10.586 12.0696 10.586 12.0004C10.586 11.9311 10.589 11.8638 10.5948 11.7984C10.5999 11.7418 10.6072 11.6867 10.6165 11.6331C10.6228 11.597 10.63 11.5615 10.6382 11.5267C10.6449 11.4988 10.6521 11.4713 10.66 11.4443C10.6668 11.421 10.674 11.3981 10.6817 11.3754C10.6886 11.3551 10.6957 11.3349 10.7034 11.315C10.7103 11.2971 10.7176 11.2795 10.7251 11.262C10.7321 11.2458 10.7393 11.2297 10.7468 11.2139C10.7539 11.199 10.7611 11.1843 10.7685 11.1698C10.7756 11.1561 10.7828 11.1426 10.7903 11.1292C10.7973 11.1165 10.8046 11.104 10.812 11.0916C10.8191 11.0797 10.8263 11.068 10.8337 11.0565C10.8408 11.0454 10.848 11.0345 10.8554 11.0237C10.8625 11.0133 10.8698 11.003 10.8771 10.9929C10.8842 10.983 10.8915 10.9733 10.8988 10.9637C10.906 10.9545 10.9132 10.9453 10.9206 10.9362C10.9277 10.9274 10.9349 10.9187 10.9423 10.91C10.9494 10.9017 10.9566 10.8933 10.964 10.8851C10.9711 10.8772 10.9783 10.8692 10.9857 10.8614C10.9928 10.8538 11.0001 10.8464 11.0074 10.839C11.0146 10.8318 11.0218 10.8246 11.0291 10.8176C11.0363 10.8107 11.0435 10.8037 11.0509 10.797C11.058 10.7903 11.0652 10.7837 11.0726 10.7772C11.0797 10.7709 11.087 10.7647 11.0943 10.7586C11.1015 10.7525 11.1087 10.7465 11.116 10.7406C11.1232 10.7347 11.1304 10.7289 11.1377 10.7231C11.1449 10.7176 11.1521 10.7121 11.1594 10.7067C11.1666 10.7013 11.1739 10.6961 11.1812 10.6908C11.1884 10.6857 11.1955 10.6805 11.2029 10.6754C11.21 10.6705 11.2173 10.6657 11.2246 10.6609C11.2318 10.6562 11.239 10.6514 11.2463 10.6468C11.2535 10.6422 11.2607 10.6377 11.268 10.6332C11.2752 10.6288 11.2825 10.6246 11.2897 10.6203C11.2969 10.6161 11.3041 10.6118 11.3114 10.6077C11.3186 10.6036 11.3259 10.5997 11.3332 10.5958C11.3404 10.5919 11.3476 10.588 11.3549 10.5842C11.3621 10.5805 11.3693 10.5767 11.3766 10.5731C11.3838 10.5695 11.391 10.566 11.3983 10.5625C11.4055 10.559 11.4127 10.5555 11.42 10.5521C11.4272 10.5488 11.4345 10.5456 11.4417 10.5424C11.449 10.5391 11.4561 10.5359 11.4635 10.5328C11.4706 10.5297 11.4779 10.5268 11.4852 10.5238C11.4924 10.5208 11.4996 10.5179 11.5069 10.515C11.5141 10.5122 11.5214 10.5095 11.5286 10.5067C11.5358 10.504 11.543 10.5012 11.5503 10.4986C11.5575 10.496 11.5648 10.4935 11.572 10.491C11.5793 10.4885 11.5865 10.486 11.5938 10.4835C11.601 10.4811 11.6082 10.4788 11.6155 10.4765C11.6227 10.4742 11.6299 10.4719 11.6372 10.4697L11.6589 10.4633C11.6661 10.4612 11.6733 10.4591 11.6806 10.4571C11.6878 10.4551 11.6951 10.4532 11.7023 10.4512C11.7096 10.4493 11.7168 10.4474 11.724 10.4456L11.7458 10.4403C11.753 10.4385 11.7602 10.4368 11.7675 10.4351C11.7747 10.4335 11.782 10.4319 11.7892 10.4304C11.7965 10.4288 11.8036 10.4272 11.8109 10.4257C11.8181 10.4242 11.8254 10.4229 11.8326 10.4215C11.8399 10.4201 11.847 10.4186 11.8543 10.4172C11.8615 10.4159 11.8688 10.4148 11.8761 10.4135C11.8833 10.4123 11.8905 10.411 11.8978 10.4098L11.9195 10.4065L11.9412 10.4032L11.9629 10.4003L11.9846 10.3976L12.0064 10.3949L12.0281 10.3927C12.0353 10.3919 12.0425 10.3911 12.0498 10.3904C12.057 10.3897 12.0643 10.3892 12.0715 10.3886L12.0932 10.3868L12.1149 10.3852L12.1367 10.3839L12.1584 10.3827C12.1656 10.3823 12.1729 10.382 12.1801 10.3817C12.1873 10.3814 12.1945 10.3811 12.2018 10.3808L12.2235 10.3802L12.2452 10.3798L12.267 10.3794L12.2887 10.3794C12.2959 10.3793 12.3031 10.3792 12.3104 10.3793L12.3321 10.3796L12.3538 10.3799L12.3755 10.3804L12.3972 10.3811L12.419 10.3818L12.4407 10.3829L12.4624 10.384L12.4841 10.3852L12.5058 10.3867L12.5275 10.3882L12.5361 10.3888L12.5492 10.3899L12.571 10.3917L12.5927 10.3936L12.6144 10.3957L12.6361 10.3978L12.6578 10.4001L12.6795 10.4026L12.7013 10.4051L12.723 10.4077L12.7447 10.4104L12.7664 10.4133L12.7881 10.4163L12.8098 10.4194L12.8316 10.4226L12.8533 10.426L12.875 10.4295L12.8967 10.4331L12.9184 10.4368L12.9402 10.4406L12.9619 10.4446L12.9836 10.4487L13.0053 10.4529L13.027 10.4572L13.0487 10.4617L13.0705 10.4663L13.0922 10.471L13.1139 10.4759L13.1356 10.4809L13.1573 10.4859L13.179 10.4912L13.2007 10.4965L13.2225 10.502L13.2442 10.5076L13.2659 10.5134L13.2876 10.5193L13.3093 10.5252L13.331 10.5314L13.3527 10.5377L13.3745 10.544L13.3962 10.5506L13.4179 10.5572L13.4396 10.564L13.4613 10.5709L13.483 10.578L13.5048 10.5852L13.5265 10.5925L13.5482 10.5999L13.5699 10.6075L13.5916 10.6152L13.6133 10.623L13.6351 10.631L13.6568 10.6391L13.6785 10.6473L13.7002 10.6557L13.7219 10.6642L13.7436 10.6728L13.7654 10.6815L13.7871 10.6904L13.8088 10.6994L13.8305 10.7085L13.8522 10.7178L13.8739 10.7272L13.8957 10.7367L13.9174 10.7463L13.9391 10.7561L13.9608 10.7659L13.9825 10.7759L14.0042 10.786L14.026 10.7962L14.0477 10.8066L14.0694 10.817L14.0911 10.8276L14.1128 10.8383L14.1345 10.8491L14.1563 10.86L14.178 10.871L14.1997 10.8821L14.2214 10.8933L14.243 10.9046V9.91682L14.2214 9.9113L14.1997 9.90588L14.178 9.90055L14.1563 9.89526L14.1345 9.89006L14.1128 9.88492L14.0911 9.87983L14.0694 9.87479L14.0477 9.86982L14.026 9.86488L14.0042 9.86L13.9825 9.85519L13.9608 9.85037L13.9391 9.84565L13.9174 9.84096L13.8957 9.83632L13.8739 9.83171L13.8522 9.82715L13.8305 9.82263L13.8088 9.81817L13.7871 9.81377L13.7654 9.80936L13.7436 9.80503L13.7219 9.80074L13.7002 9.7965L13.6785 9.7923L13.6568 9.78814L13.6351 9.78403L13.6133 9.77996L13.5916 9.77593L13.5699 9.77196L13.5482 9.76802L13.5265 9.76412L13.5048 9.76029L13.483 9.75648L13.4613 9.75273L13.4396 9.74901L13.4179 9.74536L13.3962 9.74175L13.3745 9.73817L13.3527 9.73466L13.331 9.73117L13.3093 9.72775L13.2876 9.72438L13.2659 9.72103L13.2442 9.71777L13.2225 9.71454L13.2007 9.71137L13.179 9.70825L13.1573 9.70517L13.1356 9.70214L13.1139 9.69916L13.0922 9.69626L13.0705 9.69339L13.0487 9.69057L13.027 9.68781L13.0053 9.68512L12.9836 9.68249L12.9619 9.67989L12.9402 9.67737L12.9184 9.67489L12.8967 9.6725L12.875 9.67013L12.8533 9.66787L12.8316 9.66563L12.8098 9.66347L12.7881 9.66136L12.7664 9.65934L12.7447 9.65736L12.723 9.65546L12.7013 9.65363L12.6795 9.65186L12.6578 9.6502L12.6361 9.64854L12.6144 9.64702L12.5927 9.64551L12.571 9.64415L12.5492 9.6428L12.5275 9.64157L12.5058 9.6404L12.4841 9.63931L12.473 9.63877L12.4624 9.63831L12.4407 9.63737L12.419 9.63644L12.3972 9.63551L12.3755 9.63472L12.3538 9.63396L12.3321 9.63317L12.3104 9.6325L12.2887 9.63187L12.267 9.63125L12.2452 9.63067L12.2235 9.63021L12.2018 9.62976L12.1801 9.62929L12.1584 9.62899L12.1367 9.62869L12.1149 9.62839L12.0932 9.62821L12.0715 9.6281L12.0498 9.62797L12.0281 9.62791L12.0064 9.62795L11.9846 9.62798L11.9629 9.62806L11.9412 9.62826L11.9195 9.62849L11.8978 9.62871L11.8761 9.6291L11.8543 9.62948L11.8326 9.62987L11.8109 9.63043L11.7892 9.63099L11.7675 9.63155L11.7458 9.63228L11.724 9.63302L11.7023 9.63377L11.6806 9.63468L11.6589 9.63562L11.6372 9.63653L11.6155 9.63763L11.5938 9.63875L11.572 9.63986L11.5503 9.64114L11.5286 9.64245L11.5069 9.64376L11.4852 9.64525L11.4635 9.64676L11.4417 9.64827L11.42 9.64999L11.3983 9.65169L11.3766 9.65344L11.3549 9.65535L11.3332 9.65723L11.3114 9.65923L11.2897 9.66134L11.268 9.66345L11.2463 9.66569L11.2246 9.66802L11.2029 9.67034L11.1812 9.67286L11.1594 9.67538L11.1377 9.67795L11.116 9.68072L11.0943 9.68346L11.0726 9.68635L11.0509 9.68932L11.0291 9.69229L11.0074 9.69546L10.9857 9.69865L10.964 9.70194L10.9423 9.70537L10.9206 9.70879L10.8988 9.71241L10.8771 9.71609L10.8554 9.71984L10.8337 9.72372L10.812 9.72762L10.7903 9.73173L10.7685 9.73589L10.7468 9.74015L10.7251 9.74453L10.7034 9.74894L10.6817 9.75359L10.66 9.75824L10.6382 9.76305L10.6165 9.76796L10.5948 9.77296L10.5731 9.77813L10.5514 9.78332L10.5297 9.78877L10.5079 9.79422L10.4862 9.79988L10.4645 9.80561L10.4428 9.81151L10.4211 9.81752L10.3994 9.82364L10.3777 9.82993L10.3559 9.83632L10.3342 9.84291L10.3125 9.84953L10.2908 9.85642L10.2691 9.86334L10.2474 9.87055C10.2401 9.87296 10.2328 9.87531 10.2256 9.87776L10.2039 9.88528C10.1967 9.88778 10.1894 9.89024 10.1822 9.8928L10.1605 9.90064L10.1388 9.90848C10.1315 9.91117 10.1243 9.91395 10.1171 9.91667C10.1098 9.9194 10.1025 9.92209 10.0954 9.92487L10.0736 9.9334C10.0664 9.93625 10.0591 9.93905 10.0519 9.94195L10.0302 9.95083L10.0085 9.95979L9.98676 9.96903L9.96505 9.9784L9.94333 9.988L9.92162 9.99782L9.89993 10.0078L9.8782 10.0181L9.8565 10.0284C9.84919 10.032 9.842 10.0356 9.83477 10.0392L9.81306 10.0501L9.79134 10.0613L9.76963 10.0727C9.76236 10.0765 9.75508 10.0804 9.7479 10.0843C9.7406 10.0882 9.73341 10.0923 9.7262 10.0963L9.70447 10.1084L9.68276 10.1209C9.67546 10.1251 9.66825 10.1294 9.66104 10.1337C9.65377 10.138 9.6465 10.1423 9.63933 10.1467C9.63204 10.1511 9.62483 10.1556 9.61762 10.1601C9.61032 10.1646 9.60309 10.1692 9.59589 10.1738C9.58863 10.1784 9.58134 10.183 9.57419 10.1877C9.56688 10.1924 9.55965 10.1973 9.55246 10.2021L9.53075 10.2168C9.52347 10.2217 9.5162 10.2267 9.50903 10.2317L9.48732 10.2471C9.48002 10.2524 9.47281 10.2577 9.46561 10.2629C9.45833 10.2683 9.45106 10.2737 9.44389 10.2791C9.43662 10.2846 9.42934 10.2901 9.42218 10.2956C9.41486 10.3013 9.40766 10.307 9.40045 10.3128C9.39315 10.3186 9.38592 10.3244 9.37873 10.3303C9.37144 10.3362 9.36419 10.3422 9.35702 10.3482V10.3482Z" fill="#333333"/>
</svg>
