<svg width="24" height="24" viewBox="0 0 24 24" fill="none" xmlns="http://www.w3.org/2000/svg">
<path d="M12.2437 10.6413C12.9325 10.6882 13.4661 10.8749 13.9115 11.0767V10.2433C13.9115 10.2433 13.0207 10.0421 12.1826 10.0092C9.26032 9.89157 8.432 10.9217 8.432 11.9999C8.432 13.078 9.26032 14.1084 12.1826 13.9908C13.0207 13.9567 13.9115 13.7558 13.9115 13.7558V12.9233C13.4729 13.1193 12.9322 13.3118 12.2437 13.3578C11.0542 13.4387 10.3385 12.9184 10.3385 12.0001C10.3385 11.081 11.0542 10.5613 12.2437 10.6413ZM17.6873 13.2641C17.651 13.2708 17.5753 13.2768 17.535 13.2768H16.2596V12.2392H17.535C17.5752 12.2392 17.6509 12.2456 17.6872 12.2519C17.8152 12.2772 17.9296 12.3413 18.0112 12.4334C18.0928 12.5255 18.1366 12.64 18.1352 12.7577C18.1352 13.0225 17.9319 13.2164 17.6873 13.2641ZM16.2596 10.6957H17.416C17.4578 10.6957 17.519 10.7006 17.5415 10.7044C17.7806 10.7408 17.9846 10.9148 17.9846 11.1746C17.9846 11.4348 17.7806 11.6082 17.5412 11.6449C17.4996 11.6499 17.4577 11.6528 17.4156 11.6536H16.2603L16.2596 10.6957ZM18.7384 11.9588V11.9357C19.3853 11.851 19.7406 11.4738 19.7406 11.0324C19.7406 10.4708 19.2205 10.1471 18.5157 10.1153C18.461 10.1133 18.3719 10.1083 18.3001 10.1083H14.523V13.8914H18.5993C19.3998 13.8914 20 13.5069 20 12.9075C20 12.354 19.4528 12.0031 18.7384 11.9588ZM6.08444 12.3907C6.08444 12.9497 5.6661 13.3647 4.90464 13.3647C4.2551 13.3647 3.61731 13.1913 3 12.9233V13.7558C3 13.7558 3.99315 13.9995 5.26029 13.9995C7.36503 13.9995 7.97845 13.2838 7.97845 12.3906V10.1084H6.08415L6.08444 12.3907Z" fill="#333333"/>
<path fill-rule="evenodd" clip-rule="evenodd" d="M4 5C2.9 5 2 5.875 2 6.94444V17.0556C2 18.125 2.9 19 4 19H20C21.1 19 22 18.125 22 17.0556V6.94444C22 5.875 21.1 5 20 5H4ZM4 5.77778H20C20.6672 5.77778 21.2 6.29579 21.2 6.94444V17.0556C21.2 17.7042 20.6672 18.2222 20 18.2222H4C3.33281 18.2222 2.8 17.7042 2.8 17.0556V6.94444C2.8 6.29579 3.33281 5.77778 4 5.77778Z" fill="#333333"/>
</svg>
