<?xml version="1.0" encoding="UTF-8"?>
<svg width="24px" height="24px" viewBox="0 0 24 24" version="1.1" xmlns="http://www.w3.org/2000/svg" xmlns:xlink="http://www.w3.org/1999/xlink">
    <!-- Generator: Sketch 62 (91390) - https://sketch.com -->
    <title>sui-final/icons/24px/cc/mastercard/cc-mastercard-mono</title>
    <desc>Created with Sketch.</desc>
    <g id="sui-final/icons/24px/cc/mastercard/cc-mastercard-mono" stroke="none" stroke-width="1" fill="none" fill-rule="evenodd">
        <path d="M20,5 C21.1,5 22,5.875 22,6.94444444 L22,6.94444444 L22,17.0555556 C22,18.125 21.1,19 20,19 L20,19 L4,19 C2.9,19 2,18.125 2,17.0555556 L2,17.0555556 L2,6.94444444 C2,5.875 2.9,5 4,5 L4,5 Z M15.2,7.33333333 C13.9703124,7.33333333 12.85,7.79361989 12,8.53645833 C11.15,7.79361989 10.03125,7.33333333 8.8,7.33333333 C6.1531252,7.33333333 4,9.4266495 4,12 C4,14.5733509 6.1531252,16.6666667 8.8,16.6666667 C10.03125,16.6666667 11.15,16.2063801 12,15.4635417 C12.85,16.2063801 13.9703124,16.6666667 15.2,16.6666667 C17.8468752,16.6666667 20,14.5733509 20,12 C20,9.4266495 17.8468752,7.33333333 15.2,7.33333333 Z M15.2,8.11111111 C17.4140624,8.11111111 19.2,9.84743933 19.2,12 C19.2,14.1525607 17.4140624,15.8888889 15.2,15.8888889 C14.1796876,15.8888889 13.24375,15.5258246 12.5375,14.9166667 C13.1984376,14.1161023 13.6,13.1043838 13.6,12 C13.6,10.8956162 13.1984376,9.88389767 12.5375,9.08333333 C13.24375,8.47417544 14.1796876,8.11111111 15.2,8.11111111 Z" id="mc-outline-copy" fill="#333333"></path>
    </g>
</svg>