<svg width="24" height="24" viewBox="0 0 24 24" fill="none" xmlns="http://www.w3.org/2000/svg">
<g clip-path="url(#clip0_751_572)">
<path fill-rule="evenodd" clip-rule="evenodd" d="M22.2669 5H5.38449C4.60349 5 3.82289 5.63507 3.64092 6.4168L1.03817 17.5738C0.856202 18.3528 1.34246 18.9884 2.12141 18.9884H19.0023C19.7833 18.9884 20.5649 18.3528 20.7485 17.5738L23.3497 6.4168C23.5332 5.63507 23.048 5 22.2669 5ZM6.0455 8.56258C6.09971 8.57536 6.26943 8.58121 6.84408 8.57536C6.84082 8.58054 6.83959 8.58614 6.83747 8.59585C6.83719 8.59711 6.8369 8.59844 6.83659 8.59985C6.76535 8.81984 6.34611 10.5109 6.34611 10.5109L6.29926 10.6931L6.29892 10.6943C6.19794 11.0491 6.08438 11.448 5.65173 11.7034C5.40221 11.8559 5.03295 11.9394 4.63932 11.9394C4.33381 11.9394 3.79376 11.8899 3.60443 11.5594C3.54532 11.4552 3.51562 11.332 3.51562 11.181L3.58468 10.6719L3.62037 10.5162L4.03593 8.68107C4.03593 8.68107 4.05554 8.58013 4.06086 8.56258C4.07053 8.57536 4.21095 8.5823 5.00312 8.57536C5.00217 8.58121 5.00108 8.58761 4.99727 8.59985C4.9244 8.81508 4.51742 10.4433 4.51742 10.4433C4.51742 10.446 4.43978 10.9302 4.43978 10.9302L4.44455 11.0125C4.46947 11.2522 4.61794 11.3786 4.87278 11.3786C5.03132 11.3786 5.16807 11.332 5.28521 11.2352C5.49156 11.0688 5.5523 10.8112 5.6358 10.4497C5.63689 10.4482 6.02466 8.66148 6.0455 8.56258ZM7.81886 10.0453C7.98476 9.96406 8.16945 9.93957 8.27052 9.93957C8.42538 9.93957 8.594 9.98256 8.66428 10.1606C8.73075 10.3196 8.68662 10.5146 8.59877 10.8994L8.55355 11.096C8.46365 11.5238 8.44881 11.6025 8.39814 11.8963L8.36518 11.9218C8.08487 11.917 7.98476 11.917 7.6565 11.9346L7.64424 11.9095C7.65781 11.8493 7.67201 11.7895 7.68623 11.7297C7.70156 11.6652 7.71692 11.6006 7.73155 11.535L7.772 11.3639C7.83261 11.0987 7.89173 10.7899 7.89867 10.6953C7.89882 10.694 7.89897 10.6927 7.89912 10.6913C7.90575 10.6326 7.92098 10.4976 7.76247 10.4976C7.69437 10.4976 7.62299 10.5306 7.55067 10.564C7.51966 10.6754 7.46354 10.9454 7.42241 11.1433C7.41133 11.1966 7.40134 11.2447 7.39322 11.283C7.3337 11.5615 7.31513 11.66 7.29509 11.7663C7.28771 11.8055 7.28013 11.8457 7.27022 11.8963L7.2468 11.9218C6.95736 11.917 6.85629 11.917 6.52327 11.9346L6.50829 11.9059C6.56372 11.68 6.61902 11.4515 6.67228 11.2251C6.81216 10.6108 6.84567 10.3759 6.8834 10.0634L6.91064 10.0453C6.9319 10.0423 6.9521 10.0395 6.97139 10.0367C7.24709 9.99806 7.33736 9.98539 7.66617 9.91889L7.69586 9.95181L7.64165 10.1473C7.65549 10.1391 7.66917 10.1309 7.68275 10.1228C7.72813 10.0956 7.77253 10.069 7.81886 10.0453ZM9.80624 10.3535C9.82473 10.3499 9.84395 10.3462 9.86401 10.3424L9.87041 10.3572L9.87518 10.3733C9.861 10.4323 9.84651 10.4914 9.83196 10.5507C9.8138 10.6247 9.79556 10.699 9.77779 10.7739C9.76344 10.8371 9.74858 10.8996 9.7338 10.9618C9.71688 11.033 9.70007 11.1037 9.68422 11.1746C9.65873 11.2894 9.63937 11.375 9.62436 11.4413C9.60241 11.5384 9.58979 11.5942 9.58097 11.6396C9.5719 11.6828 9.56698 11.7142 9.55906 11.7647C9.5539 11.7977 9.54747 11.8387 9.5378 11.8963L9.52186 11.9097L9.50702 11.9218C9.45226 11.9215 9.40376 11.9209 9.35963 11.9203C9.26695 11.9192 9.19351 11.9182 9.12183 11.9208C9.02496 11.9217 8.93048 11.9262 8.7946 11.9327C8.78183 11.9333 8.7687 11.9339 8.75516 11.9346L8.74672 11.9208L8.73664 11.9059C8.77436 11.7638 8.79702 11.703 8.81634 11.6512C8.81907 11.6438 8.82173 11.6367 8.82435 11.6295C8.84615 11.5716 8.8659 11.5142 8.90417 11.3494C8.95361 11.1342 8.98399 10.9844 9.00374 10.8526C9.02089 10.7587 9.03205 10.6752 9.04377 10.5876C9.04796 10.5562 9.05222 10.5243 9.05686 10.4912L9.06911 10.4816L9.08246 10.4695C9.25109 10.4461 9.35801 10.4301 9.46765 10.4126C9.56554 10.3998 9.66395 10.3809 9.80624 10.3535ZM9.24364 9.86457C9.43092 9.73546 9.70918 9.7058 9.86773 9.79926C10.0241 9.89178 10.0008 10.0697 9.81447 10.199C9.62882 10.3292 9.34947 10.3562 9.19365 10.2654C9.03565 10.1707 9.0569 9.99109 9.24364 9.86457ZM11.7236 11.6135C11.4761 11.8756 11.1473 11.9639 10.8265 11.9639C10.701 11.9639 10.5062 11.9479 10.3711 11.89C9.93318 11.713 10.0029 11.2374 10.0635 10.9732C10.1236 10.7138 10.2232 10.4434 10.4386 10.2441C10.7387 9.96776 11.1228 9.95184 11.2841 9.95184C11.5522 9.95184 11.8108 10.0118 11.9571 10.1989C12.0533 10.3216 12.13 10.5231 12.0316 10.9547C12.0013 11.0848 11.914 11.401 11.7236 11.6135ZM11.1856 10.3918C10.9628 10.3918 10.8754 10.6661 10.8015 10.9929C10.776 11.1061 10.7552 11.2103 10.7563 11.3123C10.7584 11.519 10.8978 11.519 10.9212 11.519C10.9999 11.519 11.0712 11.4674 11.1314 11.3824C11.2176 11.2672 11.2813 10.9966 11.2952 10.9238C11.3729 10.5959 11.3602 10.3918 11.1856 10.3918ZM12.8585 11.8964L12.8334 11.9218C12.5445 11.9171 12.4449 11.9171 12.1114 11.9346L12.0965 11.9059C12.1518 11.6801 12.2071 11.4515 12.2604 11.2251C12.4003 10.6107 12.4323 10.3759 12.4716 10.0634L12.4966 10.0453C12.5207 10.0419 12.5435 10.0387 12.5651 10.0357C12.8346 9.99785 12.9276 9.98479 13.2532 9.9188L13.2803 9.95186L13.2298 10.1474C13.2878 10.1117 13.3469 10.0762 13.4059 10.0453C13.5708 9.96396 13.7565 9.93961 13.8577 9.93961C14.0103 9.93961 14.1801 9.9826 14.2524 10.1607C14.3178 10.3196 14.2731 10.5145 14.1848 10.8993L14.1407 11.096C14.0481 11.5238 14.0347 11.6024 13.9853 11.8964L13.9512 11.9218C13.6693 11.9171 13.573 11.9171 13.2436 11.9346L13.2314 11.9096C13.247 11.8403 13.2637 11.7718 13.2804 11.7031C13.294 11.6474 13.3076 11.5915 13.3207 11.5349L13.359 11.3638C13.4207 11.0986 13.4798 10.7899 13.4857 10.6952L13.4861 10.6917C13.4928 10.6332 13.5084 10.4975 13.3506 10.4975C13.2811 10.4975 13.2118 10.5297 13.1402 10.5629L13.1377 10.5641C13.1093 10.669 13.057 10.915 13.0159 11.1086C13.0016 11.1757 12.9887 11.2366 12.9786 11.2831C12.9175 11.5788 12.9003 11.6716 12.879 11.7864C12.8729 11.8194 12.8664 11.8543 12.8585 11.8964ZM15.3979 11.2353C15.3969 11.2353 15.2739 11.8336 15.2532 11.9345C15.1616 11.9245 14.9441 11.9245 14.4136 11.9309L14.959 9.68772C14.959 9.68609 15.1766 8.67852 15.1766 8.67852C15.1766 8.67852 15.1925 8.59988 15.201 8.55566C15.3011 8.56791 15.5448 8.57009 16.1524 8.5626L16.3864 8.56043C16.8611 8.5626 17.2723 8.56791 17.4788 8.85647C17.5602 8.9649 17.5884 9.10366 17.5884 9.24393C17.5884 9.35073 17.5723 9.45753 17.5505 9.54732C17.4665 9.91356 17.2781 10.2149 17.0026 10.419C16.5976 10.7165 16.081 10.7165 15.6235 10.7165H15.575C15.542 10.7346 15.5091 10.7803 15.5091 10.7803C15.5027 10.7962 15.3979 11.2353 15.3979 11.2353ZM15.8868 9.14298C15.8879 9.13917 15.6565 10.1447 15.6565 10.1447L15.6469 10.1952H15.7725C15.9666 10.1952 16.155 10.1888 16.3087 10.1118C16.4955 10.0209 16.6408 9.83275 16.6903 9.60895C16.7445 9.36406 16.6668 9.17645 16.4785 9.10366C16.4673 9.10258 15.99 9.06163 15.99 9.06163L15.8975 9.0521L15.8943 9.09142L15.8868 9.14298ZM17.4016 11.917C16.9659 11.7475 17.0361 11.2719 17.0973 11.0115C17.1553 10.7532 17.2575 10.4838 17.4702 10.2872C17.773 10.0118 18.1252 9.93591 18.2752 9.99482C18.3925 10.0399 18.4685 10.1121 18.5209 10.1967L18.5311 10.1177L18.5567 10.0969C18.894 10.0491 18.9877 10.0352 19.3383 9.97033L19.3484 9.99958C19.2839 10.2653 19.2213 10.5295 19.1585 10.7963C19.0346 11.3318 18.9867 11.6137 18.9391 11.8934L18.9333 11.9271L18.9026 11.9505C18.563 11.9479 18.4657 11.9479 18.1523 11.9611L18.1326 11.9357L18.1636 11.8168C18.049 11.9131 17.9252 11.98 17.7915 11.9872C17.665 11.9936 17.5405 11.9761 17.4016 11.917ZM18.2183 10.4349C17.9949 10.4349 17.9087 10.7065 17.8336 11.0274C17.8076 11.1417 17.7868 11.2458 17.7879 11.3469C17.7926 11.5498 17.9305 11.5498 17.9528 11.5498C18.0315 11.5498 18.1683 11.4994 18.2258 11.418C18.2564 11.3773 18.2843 11.3163 18.3083 11.2515C18.3143 11.2276 18.3203 11.2036 18.3263 11.1797C18.344 11.109 18.3617 11.0381 18.3784 10.9669C18.3938 10.9009 18.4068 10.8425 18.4188 10.7872C18.4339 10.5651 18.3595 10.4349 18.2183 10.4349ZM21.6517 9.93685L21.6788 9.96773C21.6788 9.96773 20.2821 12.3608 20.0985 12.7556L20.0698 12.7885H20.0741L19.8012 13.2557C19.715 13.4157 19.5548 13.5348 19.2999 13.5359L18.8659 13.5284L18.9924 13.108H19.0775C19.1218 13.108 19.1537 13.1058 19.1782 13.0937C19.2005 13.0862 19.2164 13.0687 19.234 13.0431L19.3877 12.8004L19.3862 12.7971C19.5132 12.6062 19.5845 12.4785 19.6666 12.3314C19.7255 12.2259 19.79 12.1104 19.8847 11.9543C19.8507 11.6031 19.8322 11.4516 19.8076 11.2499C19.8029 11.2113 19.7979 11.1709 19.7926 11.1269C19.783 11.0468 19.7719 10.966 19.7607 10.885C19.749 10.8002 19.7372 10.7152 19.7272 10.6304C19.7183 10.5589 19.7117 10.5047 19.7065 10.4616C19.6871 10.301 19.6863 10.2949 19.6533 10.1261L19.6511 10.1213C19.6518 10.1166 19.6523 10.1121 19.6528 10.1077C19.6537 10.0995 19.6546 10.0918 19.6569 10.0846L19.6831 10.0612C19.9272 10.0299 19.9983 10.0155 20.1587 9.98296C20.2188 9.97075 20.2916 9.956 20.3907 9.93685L20.421 9.96773L20.4694 10.9009C20.4699 10.911 20.4702 10.9191 20.4705 10.9271C20.4707 10.9354 20.471 10.9435 20.4716 10.9535C20.5595 10.7576 20.606 10.6753 20.6529 10.5922C20.709 10.4927 20.7658 10.3921 20.895 10.0943L20.8961 10.0996C20.8971 10.0965 20.8978 10.0933 20.8984 10.0903C20.8989 10.0882 20.8993 10.0862 20.8998 10.0846L20.9232 10.0612C21.242 10.0182 21.3047 10.0071 21.6517 9.93685ZM16.9131 15.4889H17.0973L16.9547 15.9538H16.7727L16.7297 16.0973H16.0811L16.1252 15.9538H14.8089L14.9403 15.5233H15.0744L15.7651 13.2372L15.9028 12.7764H16.5636L16.4944 13.0086C16.4944 13.0086 16.6705 12.8821 16.8377 12.8391C16.9758 12.8024 17.6579 12.7852 17.8863 12.7805V12.7791H18.5928L18.5998 13.0415C18.595 13.0862 18.6333 13.107 18.7158 13.107H18.8594L18.7281 13.5406H18.3466C18.0167 13.564 17.8911 13.4226 17.8995 13.2632L17.8926 13.0052L17.8208 13.2372H17.5947L16.9131 15.4889ZM16.2544 13.8126C16.2544 13.8126 16.4514 13.7239 16.5572 13.6947C16.6658 13.666 16.828 13.6565 16.828 13.6565L16.9547 13.2372H16.4296L16.2544 13.8126ZM16.2938 14.562C16.4024 14.5375 16.5673 14.5168 16.5673 14.5168L16.6951 14.0975H16.1673L15.9864 14.6964C15.9864 14.6964 16.1869 14.5944 16.2938 14.562ZM15.7464 15.4942H16.2731L16.4242 14.9888H15.8991L15.7464 15.4942ZM18.3007 14.0975H17.5415L17.6708 13.6623H19.7836L19.6522 14.0975H18.9435L18.8328 14.4504H19.5436L19.4255 14.8363H18.6577L18.521 14.9989H18.8328L18.9089 15.4851C18.9111 15.4977 18.9128 15.5092 18.9143 15.5197C18.9186 15.5494 18.9216 15.5708 18.9334 15.586C18.9493 15.603 19.0429 15.6122 19.0973 15.6122H19.1919L19.0478 16.0851H18.8078C18.7753 16.0851 18.7283 16.083 18.6649 16.0803C18.6566 16.08 18.6481 16.0796 18.6392 16.0792C18.5862 16.0746 18.5446 16.0501 18.5067 16.0279C18.4936 16.0202 18.481 16.0127 18.4684 16.0064C18.4241 15.9857 18.3588 15.9325 18.3428 15.8417L18.2678 15.3565L17.9183 15.8343C17.8075 15.9857 17.6576 16.1011 17.4037 16.1011H16.9153L17.0436 15.6785H17.2303C17.2845 15.6785 17.3314 15.6573 17.367 15.6392C17.4026 15.6244 17.4346 15.6058 17.4703 15.5531L17.98 14.8363H17.3068L17.4223 14.4504H18.1916L18.3007 14.0975ZM11.3064 15.0037L11.1292 15.5925C11.108 15.6574 11.3026 15.6658 11.3729 15.6658L11.7368 15.6159L11.5905 16.101H10.7695C10.703 16.101 10.6541 16.0915 10.5828 16.0756C10.5136 16.058 10.4828 16.0271 10.4524 15.9805C10.4477 15.9729 10.4426 15.9655 10.4374 15.9581C10.4099 15.9186 10.3809 15.877 10.4077 15.7901L10.6439 15.0111H10.2391L10.3737 14.5657H10.7797L10.8877 14.2033H10.4828L10.6121 13.7792H12.3944L12.2625 14.2033H11.5501L11.4388 14.5657H12.1678L12.0347 15.0037H11.3064ZM11.0282 13.1069L11.2128 12.7737H11.9385L11.8108 13.016H12.5418L12.4093 13.4598H11.4107L11.3027 13.5533C11.2751 13.5798 11.2583 13.5844 11.2367 13.5902C11.2216 13.5943 11.2042 13.599 11.1793 13.6123C11.1229 13.6405 11.0048 13.6968 10.851 13.6968H10.5312L10.6599 13.2706H10.7562C10.8371 13.2706 10.8929 13.2632 10.9211 13.2457C10.9531 13.2249 10.9887 13.1797 11.0282 13.1069ZM12.7083 15.4436C12.6823 15.5334 12.6701 15.5765 12.6871 15.601C12.7009 15.6217 12.734 15.6462 12.7797 15.6462L13.2079 15.6058L13.0611 16.101H12.5828C12.4301 16.101 12.3195 16.0973 12.2417 16.0915C12.2257 16.0901 12.2096 16.0893 12.1936 16.0885C12.1356 16.0857 12.0794 16.083 12.0385 16.0522C12.0334 16.0476 12.0279 16.0428 12.0223 16.0379C11.9795 16.0007 11.9264 15.9546 11.9279 15.9081C11.9327 15.8592 11.9534 15.7779 11.9843 15.6658L12.8557 12.779H13.4782L13.3872 13.092C13.3872 13.092 13.5841 12.9348 13.722 12.8784C13.8586 12.828 14.1689 12.7823 14.1689 12.7823L15.1765 12.7764L14.8334 13.9184C14.7754 14.1135 14.7078 14.24 14.6658 14.2978C14.628 14.3558 14.5834 14.4063 14.496 14.4541C14.4115 14.4999 14.3338 14.5253 14.2625 14.5328C14.196 14.5375 14.0938 14.5392 13.9523 14.5412H12.9813L12.7083 15.4436ZM14.1773 13.9317H13.1574L13.0946 14.1369H13.9778C14.0477 14.1286 14.0804 14.1327 14.0971 14.1347C14.1052 14.1357 14.1095 14.1363 14.1125 14.1347L14.1773 13.9317ZM14.3902 13.2509H13.3617L13.2127 13.7463C13.2127 13.7463 13.4123 13.564 13.7539 13.5049C13.8315 13.4907 14.3163 13.4954 14.3163 13.4954L14.3902 13.2509ZM14.0949 14.8772C14.1135 14.8633 14.1269 14.8448 14.1353 14.8144L14.1959 14.621H14.6711L14.6131 14.8953C14.5886 14.9814 14.5674 15.045 14.5024 15.1004C14.4343 15.1582 14.3545 15.2189 14.1677 15.2189L13.8219 15.2332L13.8193 15.543C13.8163 15.6128 13.8307 15.6213 13.8437 15.629C13.8469 15.6309 13.8501 15.6328 13.8528 15.6355C13.8683 15.651 13.8823 15.6569 13.8969 15.6631L13.898 15.6637L14.0077 15.6573L14.3374 15.6392L14.2007 16.0915H13.8219C13.557 16.0915 13.3602 16.0851 13.2963 16.0347C13.2324 15.9942 13.224 15.9438 13.2249 15.8566L13.2494 14.6481H13.8539L13.8453 14.8953H13.9907C14.0407 14.8953 14.0742 14.8905 14.0949 14.8772Z" fill="#333333"/>
</g>
<defs>
<clipPath id="clip0_751_572">
<rect width="22.43" height="14.0025" fill="white" transform="translate(1 5)"/>
</clipPath>
</defs>
</svg>
