<svg width="26" height="24" viewBox="0 0 26 24" fill="none" xmlns="http://www.w3.org/2000/svg">
<path fill-rule="evenodd" clip-rule="evenodd" d="M3.17233 6.47618C3.41933 5.3235 4.43799 4.5 5.61683 4.5H22.526C24.1176 4.5 25.304 5.96754 24.9705 7.52382L22.8277 17.5238C22.5807 18.6765 21.562 19.5 20.3832 19.5H3.47398C1.88237 19.5 0.695983 18.0325 1.02947 16.4762L3.17233 6.47618ZM5.61683 5.5C4.90953 5.5 4.29833 5.9941 4.15013 6.68571L2.00727 16.6857C1.80718 17.6195 2.51901 18.5 3.47398 18.5H20.3832C21.0905 18.5 21.7017 18.0059 21.8499 17.3143L23.9927 7.31429C24.1928 6.38053 23.481 5.5 22.526 5.5H5.61683Z" fill="#333333"/>
<path d="M7.84392 8.57555C7.26927 8.5814 7.09956 8.57555 7.04535 8.56276C7.02451 8.66166 6.63674 10.4484 6.63565 10.4499C6.55215 10.8114 6.4914 11.069 6.28505 11.2354C6.16792 11.3321 6.03117 11.3788 5.87262 11.3788C5.61778 11.3788 5.46932 11.2524 5.44439 11.0127L5.43963 10.9304C5.43963 10.9304 5.51726 10.4462 5.51726 10.4435C5.51726 10.4435 5.92424 8.81526 5.99711 8.60004C6.00093 8.58779 6.00202 8.5814 6.00297 8.57555C5.2108 8.58249 5.07037 8.57555 5.0607 8.56276C5.05539 8.58031 5.03578 8.68126 5.03578 8.68126L4.62021 10.5164L4.58453 10.672L4.51547 11.1811C4.51547 11.3321 4.54517 11.4554 4.60428 11.5596C4.7936 11.8901 5.33366 11.9396 5.63917 11.9396C6.0328 11.9396 6.40205 11.8561 6.65158 11.7036C7.08472 11.4479 7.19804 11.0484 7.2991 10.6933L7.34596 10.5111C7.34596 10.5111 7.7652 8.82002 7.83643 8.60004C7.83916 8.58779 7.84025 8.5814 7.84392 8.57555ZM9.27036 9.93975C9.1693 9.93975 8.9846 9.96424 8.81871 10.0455C8.7585 10.0763 8.70157 10.112 8.6415 10.1475L8.69571 9.952L8.66602 9.91907C8.3142 9.99023 8.23547 9.99975 7.91049 10.0455L7.88325 10.0636C7.84552 10.3761 7.81201 10.611 7.67213 11.2253C7.61887 11.4517 7.56357 11.6802 7.50814 11.9061L7.52312 11.9348C7.85614 11.9172 7.95721 11.9172 8.24664 11.922L8.27007 11.8965C8.30685 11.7084 8.31161 11.6643 8.39306 11.2832C8.43134 11.1026 8.51115 10.7056 8.55052 10.5642C8.62284 10.5307 8.69421 10.4978 8.76232 10.4978C8.92454 10.4978 8.90479 10.6392 8.89852 10.6955C8.89158 10.7901 8.83246 11.0989 8.77185 11.364L8.7314 11.5352C8.7032 11.6616 8.67229 11.7844 8.64409 11.9097L8.65635 11.9348C8.9846 11.9172 9.08472 11.9172 9.36503 11.922L9.39799 11.8965C9.44866 11.6027 9.4635 11.524 9.5534 11.0962L9.59862 10.8996C9.68647 10.5148 9.7306 10.3197 9.66413 10.1608C9.59385 9.98274 9.42523 9.93975 9.27036 9.93975ZM10.8639 10.3426C10.6894 10.376 10.5781 10.3984 10.4675 10.4128C10.3579 10.4303 10.2509 10.4462 10.0823 10.4696L10.069 10.4818L10.0567 10.4914C10.0391 10.6169 10.0269 10.7253 10.0036 10.8528C9.98383 10.9846 9.95346 11.1344 9.90402 11.3496C9.86574 11.5144 9.84599 11.5718 9.8242 11.6297C9.80295 11.6877 9.77953 11.744 9.73649 11.906L9.74656 11.921L9.75501 11.9347C9.9126 11.9273 10.0157 11.922 10.1217 11.921C10.2275 11.9172 10.3372 11.921 10.5069 11.922L10.5217 11.9098L10.5376 11.8965C10.5622 11.7504 10.5658 11.7111 10.5808 11.6398C10.5957 11.5633 10.6213 11.4575 10.6841 11.1748C10.7138 11.042 10.7469 10.9096 10.7776 10.7741C10.8096 10.6392 10.8432 10.5062 10.875 10.3735L10.8703 10.3574L10.8639 10.3426ZM10.8676 9.79945C10.709 9.70598 10.4308 9.73564 10.2435 9.86475C10.0567 9.99127 10.0355 10.1709 10.1935 10.2655C10.3493 10.3564 10.6287 10.3294 10.8143 10.1992C11.0006 10.0699 11.0239 9.89196 10.8676 9.79945ZM11.8264 11.964C12.1472 11.964 12.476 11.8757 12.7234 11.6137C12.9139 11.4012 13.0012 11.085 13.0314 10.9548C13.1299 10.5233 13.0532 10.3218 12.9569 10.1991C12.8106 10.012 12.5521 9.95203 12.2839 9.95203C12.1226 9.95203 11.7385 9.96794 11.4385 10.2443C11.223 10.4436 11.1234 10.714 11.0634 10.9733C11.0028 11.2375 10.933 11.7132 11.3709 11.8902C11.506 11.9481 11.7008 11.964 11.8264 11.964ZM11.8013 10.9931C11.8753 10.6663 11.9626 10.392 12.1854 10.392C12.36 10.392 12.3727 10.5961 12.2951 10.924C12.2812 10.9967 12.2174 11.2673 12.1312 11.3826C12.071 11.4676 11.9998 11.5192 11.9211 11.5192C11.8976 11.5192 11.7583 11.5192 11.7561 11.3125C11.755 11.2105 11.7759 11.1063 11.8013 10.9931ZM13.8332 11.922L13.8583 11.8966C13.8939 11.7084 13.8997 11.6642 13.9784 11.2833C14.0178 11.1026 14.0993 10.7056 14.1375 10.5643C14.21 10.5307 14.2801 10.4977 14.3504 10.4977C14.5115 10.4977 14.4919 10.6391 14.4855 10.6954C14.4797 10.7901 14.4206 11.0988 14.3589 11.3639L14.3206 11.5351C14.2913 11.6616 14.2594 11.7843 14.2312 11.9098L14.2435 11.9348C14.5728 11.9173 14.6691 11.9173 14.9511 11.922L14.9851 11.8966C15.0346 11.6026 15.0479 11.5239 15.1405 11.0962L15.1847 10.8995C15.2729 10.5147 15.3176 10.3198 15.2522 10.1609C15.1799 9.98279 15.0102 9.93979 14.8575 9.93979C14.7563 9.93979 14.5707 9.96415 14.4057 10.0455C14.3467 10.0764 14.2876 10.1119 14.2296 10.1475L14.2801 9.95204L14.253 9.91898C13.9013 9.99027 13.821 9.99979 13.4964 10.0455L13.4715 10.0636C13.4321 10.3761 13.4001 10.6109 13.2602 11.2253C13.207 11.4517 13.1517 11.6803 13.0964 11.9061L13.1112 11.9348C13.4448 11.9173 13.5444 11.9173 13.8332 11.922ZM16.253 11.9347C16.2737 11.8338 16.3967 11.2354 16.3978 11.2354C16.3978 11.2354 16.5025 10.7964 16.5089 10.7805C16.5089 10.7805 16.5419 10.7348 16.5749 10.7167H16.6233C17.0809 10.7167 17.5975 10.7167 18.0024 10.4192C18.278 10.2151 18.4663 9.91374 18.5504 9.5475C18.5722 9.45771 18.5882 9.35091 18.5882 9.24411C18.5882 9.10385 18.56 8.96508 18.4786 8.85665C18.2721 8.56809 17.8609 8.56279 17.3862 8.56061C17.3847 8.56061 17.1522 8.56279 17.1522 8.56279C16.5446 8.57027 16.3009 8.56809 16.2008 8.55585C16.1924 8.60006 16.1765 8.6787 16.1765 8.6787C16.1765 8.6787 15.9588 9.68627 15.9588 9.6879C15.9588 9.6879 15.4379 11.8301 15.4134 11.9311C15.944 11.9247 16.1615 11.9247 16.253 11.9347ZM16.6563 10.1449C16.6563 10.1449 16.8877 9.13936 16.8866 9.14317L16.8941 9.0916L16.8974 9.05229L16.9899 9.06181C16.9899 9.06181 17.4671 9.10276 17.4783 9.10385C17.6667 9.17663 17.7443 9.36424 17.6901 9.60913C17.6407 9.83293 17.4953 10.0211 17.3086 10.112C17.1548 10.189 16.9664 10.1954 16.7724 10.1954H16.6468L16.6563 10.1449ZM18.0971 11.0117C18.036 11.2721 17.9657 11.7477 18.4014 11.9172C18.5404 11.9763 18.6648 11.9938 18.7914 11.9874C18.925 11.9802 19.0488 11.9133 19.1635 11.817C19.1531 11.8565 19.1428 11.8961 19.1324 11.9359L19.1522 11.9613C19.4656 11.9481 19.5628 11.9481 19.9024 11.9507L19.9332 11.9273C19.9828 11.6361 20.0295 11.3534 20.1583 10.7965C20.2211 10.5297 20.2838 10.2655 20.3482 9.99976L20.3381 9.97051C19.9875 10.0354 19.8938 10.0493 19.5566 10.097L19.531 10.1179C19.5276 10.1449 19.524 10.1709 19.5208 10.1969C19.4683 10.1123 19.3923 10.04 19.275 9.995C19.1251 9.93609 18.7729 10.012 18.4701 10.2874C18.2573 10.484 18.1552 10.7533 18.0971 11.0117ZM18.8335 11.0276C18.9085 10.7067 18.9947 10.4351 19.2181 10.4351C19.3594 10.4351 19.4337 10.5653 19.4186 10.7873C19.4066 10.8427 19.3937 10.9011 19.3783 10.9671C19.356 11.0624 19.3317 11.157 19.3081 11.2517C19.2842 11.3164 19.2562 11.3775 19.2256 11.4182C19.1681 11.4996 19.0314 11.55 18.9526 11.55C18.9303 11.55 18.7925 11.55 18.7877 11.347C18.7866 11.246 18.8075 11.1419 18.8335 11.0276ZM22.6786 9.96792L22.6515 9.93703C22.3046 10.0072 22.2418 10.0184 21.9231 10.0614L21.8997 10.0848C21.8986 10.0886 21.8976 10.0944 21.896 10.0997L21.8949 10.0944C21.6576 10.6412 21.6646 10.5233 21.4714 10.9537C21.4703 10.9341 21.4703 10.9219 21.4692 10.9011L21.4209 9.96792L21.3905 9.93703C21.0271 10.0072 21.0185 10.0184 20.6829 10.0614L20.6568 10.0848C20.6531 10.0959 20.6531 10.1082 20.6509 10.1215L20.6531 10.1263C20.6951 10.3404 20.685 10.2927 20.7271 10.6306C20.7467 10.7964 20.7728 10.9632 20.7924 11.127C20.8255 11.4012 20.8441 11.5361 20.8845 11.9545C20.6579 12.3281 20.6042 12.4694 20.386 12.7973L20.3875 12.8006L20.2339 13.0433C20.2163 13.0689 20.2004 13.0864 20.178 13.0939C20.1535 13.106 20.1216 13.1082 20.0774 13.1082H19.9922L19.8657 13.5286L20.2998 13.536C20.5546 13.535 20.7148 13.4159 20.801 13.2559L21.074 12.7887H21.0696L21.0984 12.7558C21.282 12.361 22.6786 9.96792 22.6786 9.96792ZM18.0971 15.4891H17.913L18.5946 13.2374H18.8207L18.8924 13.0054L18.8994 13.2633C18.8909 13.4228 19.0165 13.5641 19.3464 13.5407H19.7279L19.8592 13.1072H19.7157C19.6331 13.1072 19.5948 13.0863 19.5996 13.0417L19.5927 12.7793H18.8862V12.7806C18.6577 12.7854 17.9756 12.8025 17.8375 12.8393C17.6704 12.8823 17.4943 13.0088 17.4943 13.0088L17.5635 12.7766H16.9026L16.7649 13.2374L16.0742 15.5235H15.9402L15.8087 15.954H17.125L17.0809 16.0975H17.7295L17.7726 15.954H17.9545L18.0971 15.4891ZM17.5571 13.6949C17.4512 13.7241 17.2543 13.8128 17.2543 13.8128L17.4294 13.2374H17.9545L17.8279 13.6567C17.8279 13.6567 17.6656 13.6662 17.5571 13.6949ZM17.5672 14.517C17.5672 14.517 17.4022 14.5377 17.2937 14.5622C17.1867 14.5946 16.9862 14.6966 16.9862 14.6966L17.1671 14.0977H17.6949L17.5672 14.517ZM17.2729 15.4944H16.7462L16.8989 14.989H17.424L17.2729 15.4944ZM18.5414 14.0977H19.3006L19.1915 14.4506H18.4222L18.3067 14.8365H18.9798L18.4701 15.5533C18.4345 15.6059 18.4024 15.6246 18.3669 15.6394C18.3312 15.6575 18.2844 15.6787 18.2301 15.6787H18.0434L17.9151 16.1013H18.4035C18.6574 16.1013 18.8074 15.9859 18.9181 15.8345L19.2676 15.3567L19.3427 15.8419C19.3586 15.9327 19.424 15.9859 19.4683 16.0066C19.5172 16.0311 19.5677 16.0731 19.6391 16.0794C19.7156 16.0827 19.7709 16.0852 19.8077 16.0852H20.0477L20.1918 15.6123H20.0971C20.0428 15.6123 19.9492 15.6032 19.9333 15.5862C19.9173 15.5655 19.9173 15.5337 19.9087 15.4853L19.8326 14.999H19.5208L19.6576 14.8365H20.4254L20.5435 14.4506H19.8326L19.9433 14.0977H20.652L20.7835 13.6625H18.6706L18.5414 14.0977ZM12.1291 15.5927L12.3063 15.0038H13.0346L13.1676 14.5659H12.4387L12.5499 14.2035H13.2623L13.3943 13.7794H11.6119L11.4826 14.2035H11.8876L11.7796 14.5659H11.3735L11.239 15.0113H11.6438L11.4076 15.7903C11.3757 15.8935 11.4226 15.9328 11.4523 15.9807C11.4826 16.0273 11.5134 16.0582 11.5826 16.0758C11.654 16.0917 11.7029 16.1012 11.7694 16.1012H12.5904L12.7367 15.6161L12.3727 15.666C12.3025 15.666 12.1078 15.6575 12.1291 15.5927ZM12.2126 12.7739L12.028 13.1071C11.9885 13.1799 11.953 13.225 11.921 13.2459C11.8928 13.2634 11.8369 13.2708 11.756 13.2708H11.6597L11.531 13.697H11.8508C12.0046 13.697 12.1227 13.6407 12.1791 13.6125C12.2397 13.5801 12.2556 13.5986 12.3025 13.5535L12.4105 13.46H13.4092L13.5417 13.0162H12.8107L12.9383 12.7739H12.2126ZM13.6869 15.6012C13.6699 15.5767 13.6822 15.5336 13.7082 15.4438L13.9812 14.5414H14.9522C15.0937 14.5394 15.1958 14.5377 15.2623 14.533C15.3337 14.5255 15.4113 14.5 15.4959 14.4543C15.5832 14.4064 15.6279 14.356 15.6656 14.298C15.7077 14.2402 15.7752 14.1137 15.8333 13.9186L16.1764 12.7766L15.1687 12.7824C15.1687 12.7824 14.8584 12.8281 14.7218 12.8786C14.584 12.9349 14.387 13.0922 14.387 13.0922L14.478 12.7792H13.8556L12.9841 15.666C12.9532 15.7781 12.9325 15.8594 12.9277 15.9083C12.9261 15.9609 12.9942 16.013 13.0383 16.0523C13.0905 16.0917 13.1676 16.0853 13.2416 16.0917C13.3193 16.0975 13.4299 16.1012 13.5826 16.1012H14.061L14.2078 15.606L13.7796 15.6464C13.7338 15.6464 13.7007 15.6219 13.6869 15.6012ZM14.1573 13.9319H15.1772L15.1123 14.1349C15.1032 14.1396 15.0814 14.1248 14.9776 14.1371H14.0945L14.1573 13.9319ZM14.3616 13.2511H15.3901L15.3161 13.4956C15.3161 13.4956 14.8313 13.4908 14.7537 13.5051C14.4121 13.5642 14.2126 13.7465 14.2126 13.7465L14.3616 13.2511ZM15.1352 14.8146C15.1267 14.845 15.1134 14.8635 15.0947 14.8773C15.074 14.8907 15.0405 14.8954 14.9905 14.8954H14.8452L14.8538 14.6482H14.2493L14.2248 15.8567C14.2238 15.944 14.2323 15.9944 14.2961 16.0348C14.36 16.0853 14.5568 16.0917 14.8218 16.0917H15.2005L15.3373 15.6393L15.0075 15.6574L14.8979 15.6638C14.8829 15.6574 14.8686 15.6516 14.8527 15.6357C14.8388 15.6219 14.8154 15.6304 14.8192 15.5432L14.8218 15.2334L15.1676 15.2191C15.3543 15.2191 15.4341 15.1584 15.5022 15.1006C15.5672 15.0452 15.5885 14.9816 15.613 14.8954L15.671 14.6212H15.1958L15.1352 14.8146Z" fill="#333333"/>
</svg>
