<?xml version="1.0" encoding="UTF-8"?>
<svg width="24px" height="24px" viewBox="0 0 24 24" version="1.1" xmlns="http://www.w3.org/2000/svg" xmlns:xlink="http://www.w3.org/1999/xlink">
    <!-- Generator: Sketch 62 (91390) - https://sketch.com -->
    <title>sui-final/icons/24px/cc/visa/cc-visa-mono</title>
    <desc>Created with Sketch.</desc>
    <g id="sui-final/icons/24px/cc/visa/cc-visa-mono" stroke="none" stroke-width="1" fill="none" fill-rule="evenodd">
        <path d="M3.66666667,5 C2.74869833,5 2,5.73989012 2,6.64705882 L2,17.3529412 C2,18.2601107 2.74869833,19 3.66666667,19 L20.3333333,19 C21.2513025,19 22,18.2601107 22,17.3529412 L22,6.64705882 C22,5.73989012 21.2513025,5 20.3333333,5 L3.66666667,5 Z M14.2916667,9.34926471 C14.9427083,9.34926471 15.6197917,9.60661765 15.6197917,9.60661765 L15.3854167,10.7647059 C15.3854167,10.7647059 14.8515625,10.4301471 14.3958333,10.4301471 C13.6959633,10.4301471 13.4583333,10.6392461 13.4583333,10.9448529 C13.4583333,11.5399814 15.4114583,11.6429226 15.4114583,12.9779412 C15.4147133,14.0877755 14.02474,14.8566176 13.015625,14.8566176 C12.0065108,14.8566176 11.4791667,14.5477941 11.4791667,14.5477941 L11.7135417,13.4411765 C11.7135417,13.4411765 12.2539067,13.75 13.0677083,13.75 C13.8815108,13.75 14.0052083,13.4057902 14.0052083,13.2610294 C14.0052083,12.408548 12.0520833,12.6530333 12.0520833,10.9963235 C12.0520833,10.0795039 12.8105467,9.34926471 14.2916667,9.34926471 Z M3.09375,9.45220588 L5.25520833,9.45220588 C5.81184917,9.45220588 6.03645833,9.99264706 6.03645833,9.99264706 L6.50520833,12.3602941 C5.85742167,10.3014706 3.09375,9.45220588 3.09375,9.45220588 Z M7.96354167,9.45220588 L9.47395833,9.45220588 L7.33854167,14.7022059 L5.77604167,14.7022059 L4.65625,10.4558824 C4.65625,10.4558824 5.84765667,11.0413607 6.58333333,12.6691176 C6.61263,12.8653491 6.6875,13.1838235 6.6875,13.1838235 L7.96354167,9.45220588 Z M10.046875,9.45220588 L11.453125,9.45220588 L10.6197917,14.7022059 L9.1875,14.7022059 L10.046875,9.45220588 Z M17.6770833,9.45220588 L19.1614583,9.45220588 L20.2552083,14.7022059 L18.9791667,14.7022059 L18.8229167,13.9558824 L17.078125,13.9558824 L16.765625,14.7022059 L15.3854167,14.7022059 L17.6770833,9.45220588 Z M18.2239583,10.9705882 L17.46875,12.9522059 L18.6145833,12.9522059 L18.2239583,10.9705882 Z" id="visa-mono" fill="#333333"></path>
    </g>
</svg>