<?xml version="1.0" encoding="UTF-8"?>
<svg width="24px" height="24px" viewBox="0 0 24 24" version="1.1" xmlns="http://www.w3.org/2000/svg" xmlns:xlink="http://www.w3.org/1999/xlink">
    <!-- Generator: Sketch 62 (91390) - https://sketch.com -->
    <title>sui-final/icons/24px/cc/visa/cc-visa-outline</title>
    <desc>Created with Sketch.</desc>
    <g id="sui-final/icons/24px/cc/visa/cc-visa-outline" stroke="none" stroke-width="1" fill="none" fill-rule="evenodd">
        <path d="M4,5 C2.9,5 2,5.875 2,6.94444444 L2,17.0555556 C2,18.125 2.9,19 4,19 L20,19 C21.1,19 22,18.125 22,17.0555556 L22,6.94444444 C22,5.875 21.1,5 20,5 L4,5 Z M4,5.77777778 L20,5.77777778 C20.6671876,5.77777778 21.2,6.29578983 21.2,6.94444444 L21.2,17.0555556 C21.2,17.7042102 20.6671876,18.2222222 20,18.2222222 L4,18.2222222 C3.3328124,18.2222222 2.8,17.7042102 2.8,17.0555556 L2.8,6.94444444 C2.8,6.29578983 3.3328124,5.77777778 4,5.77777778 Z M13.875,9.82465278 C12.6343752,9.82465278 12,10.4186199 12,11.1736111 C12,12.5392796 13.625,12.3554689 13.625,13.0572917 C13.625,13.1757814 13.53125,13.4583333 12.85,13.4583333 C12.1671876,13.4583333 11.725,13.203125 11.725,13.203125 L11.5125,14.1267361 C11.5125,14.1267361 11.9546876,14.3697917 12.8,14.3697917 C13.6453124,14.3697917 14.8125,13.7408856 14.8125,12.8263889 C14.8125,11.7265625 13.1875,11.6399741 13.1875,11.1493056 C13.1875,10.8986546 13.3875,10.7118056 13.975,10.7118056 C14.35625,10.7118056 14.7875,10.9913194 14.7875,10.9913194 L14.9875,10.0434028 C14.9875,10.0434028 14.4203124,9.82465278 13.875,9.82465278 Z M8.5875,9.90972222 L7.5125,12.9965278 C7.5125,12.9965278 7.4390624,12.7337241 7.4125,12.5711806 C6.7984376,11.231337 5.8,10.7361111 5.8,10.7361111 L6.75,14.2361111 L8.05,14.2361111 L9.85,9.90972222 L8.5875,9.90972222 Z M10.3125,9.90972222 L9.6125,14.2361111 L10.8,14.2361111 L11.5125,9.90972222 L10.3125,9.90972222 Z M16.725,9.90972222 L14.7875,14.2361111 L15.9625,14.2361111 L16.2,13.6163194 L17.675,13.6163194 L17.8,14.2361111 L18.875,14.2361111 L17.9625,9.90972222 L16.725,9.90972222 Z M4.5,9.921875 C4.5,9.921875 6.8218752,10.6206597 7.3625,12.3159722 L6.9625,10.3472222 C6.9625,10.3472222 6.7906252,9.921875 6.325,9.921875 L4.5,9.921875 Z M17.175,11.1614583 L17.5,12.7899306 L16.525,12.7899306 L17.175,11.1614583 Z" id="visa-outline" fill="#333333"></path>
    </g>
</svg>