<svg width="24" height="24" viewBox="0 0 24 24" fill="none" xmlns="http://www.w3.org/2000/svg">
<path d="M0.37 10.6L0 10.54L0.37 10.6ZM21.08 18.69C19.3584 17.9554 17.8563 16.7875 16.72 15.3L16.61 15.09C16.5471 14.9676 16.4936 14.8405 16.45 14.71C16.45 14.66 16.45 14.62 16.45 14.58C16.3961 14.3971 16.3593 14.2097 16.34 14.02C16.3174 13.6985 16.3582 13.3757 16.46 13.07C17.91 9.9 24 2.97 24 2.97C21.1171 3.3286 18.3072 4.13144 15.67 5.35V5.35H15.57L14.93 5.69L14.62 5.86C14.36 6 14.11 6.15 13.86 6.3C13.7554 4.19936 13.8022 2.09392 14 0C11.94 0.69 8.62 2.74 8.62 4.69C8.61249 5.74265 8.80244 6.78737 9.18 7.77C9.28 8.08 9.59 9.13 9.59 9.13C9.59 9.13 9.74 11.76 8.28 11.35C7.77676 11.2111 7.29297 11.0095 6.84 10.75C6.58063 10.6566 6.30262 10.627 6.02939 10.6635C5.75616 10.7001 5.49571 10.8017 5.27 10.96C4.88186 11.1034 4.47347 11.1844 4.06 11.2L0.37 10.6C1.5 10.8 5.02 11.49 6.59 12.84C7.16 13.34 7.19 14.07 8.39 14.97C9.95 15.86 12.5 15.97 15.76 16.92C17.481 17.3527 19.1263 18.0439 20.64 18.97C20.64 18.97 20.06 18.5 21.08 18.69Z" fill="#333333"/>
</svg>
