<svg width="24" height="24" viewBox="0 0 24 24" fill="none" xmlns="http://www.w3.org/2000/svg">
<path d="M12 0C9.62663 0 7.30655 0.703788 5.33316 2.02236C3.35977 3.34094 1.8217 5.21509 0.913451 7.4078C0.00519943 9.60051 -0.232441 12.0133 0.230582 14.3411C0.693605 16.6689 1.83649 18.8071 3.51472 20.4853C5.19295 22.1635 7.33115 23.3064 9.65892 23.7694C11.9867 24.2324 14.3995 23.9948 16.5922 23.0866C18.7849 22.1783 20.6591 20.6402 21.9776 18.6668C23.2962 16.6935 24 14.3734 24 12C24 8.8174 22.7357 5.76516 20.4853 3.51472C18.2349 1.26428 15.1826 0 12 0V0ZM9.40001 9.34L17.92 11C18.0433 11.0137 18.1579 11.0703 18.2438 11.1599C18.3297 11.2494 18.3814 11.3662 18.39 11.49V12.17L13.89 14.25V13.71C13.89 13.1 13.44 12.79 12.77 12.63L4.68001 10.63L9.40001 9.34ZM20.28 14.82C19.65 14.82 19.67 14.46 19.67 14.46V14.26L12.74 18.13V19C12.74 19 12.74 19.41 12.16 19.41C11.58 19.41 11.49 19 11.49 19V18.27L3.70001 15.53V15.88C3.70001 15.88 3.70001 16.27 3.16001 16.27C2.62001 16.27 2.54001 15.88 2.54001 15.88V11.42C2.54001 11.42 2.54001 11.02 3.01001 11.15L12.24 13.55C12.4055 13.6115 12.5457 13.7266 12.6382 13.877C12.7306 14.0275 12.77 14.2046 12.75 14.38C12.75 14.48 12.75 16.05 12.75 16.05L19.59 12.63V11C19.59 10.58 19.43 10.34 19.07 10.26L10.63 8.73V5.59C10.63 5.37 10.75 5.3 10.91 5.32L20.28 6.42C20.78 6.42 20.79 6.63 20.8 7.18V14.46C20.8 14.46 20.83 14.82 20.28 14.82Z" fill="#333333"/>
</svg>
