<svg width="24" height="24" viewBox="0 0 24 24" fill="none" xmlns="http://www.w3.org/2000/svg">
<path d="M11 12.38H9.61C9.17 12.44 8.97 12.71 8.97 13.23V15.64H10.97C11.19 15.6602 11.4117 15.6316 11.6193 15.5561C11.8269 15.4807 12.0153 15.3604 12.171 15.2037C12.3268 15.047 12.446 14.8579 12.5201 14.6498C12.5943 14.4417 12.6215 14.2198 12.6 14C12.6178 13.7845 12.5888 13.5676 12.515 13.3643C12.4412 13.1611 12.3243 12.9761 12.1723 12.8223C12.0204 12.6684 11.8369 12.5492 11.6346 12.4729C11.4322 12.3965 11.2157 12.3648 11 12.38ZM12.18 9.06C12.1986 8.8689 12.1747 8.67605 12.1099 8.4953C12.0451 8.31455 11.9411 8.1504 11.8054 8.01463C11.6696 7.87886 11.5054 7.77485 11.3247 7.71008C11.144 7.6453 10.9511 7.62137 10.76 7.64H9.76C9.24 7.64 9.01 7.94 9.01 8.5V10.5H10.82C11.0051 10.5004 11.1883 10.4627 11.3583 10.3893C11.5282 10.3159 11.6813 10.2084 11.8079 10.0733C11.9345 9.93827 12.032 9.77863 12.0943 9.6043C12.1566 9.42998 12.1823 9.24471 12.17 9.06H12.18ZM20 0H4C2.93913 0 1.92172 0.421427 1.17157 1.17157C0.421427 1.92172 0 2.93913 0 4L0 24H20C21.0609 24 22.0783 23.5786 22.8284 22.8284C23.5786 22.0783 24 21.0609 24 20V4C24 2.93913 23.5786 1.92172 22.8284 1.17157C22.0783 0.421427 21.0609 0 20 0V0ZM10.82 17.67H6.66V6.93C6.65991 6.60361 6.78748 6.29013 7.01545 6.05656C7.24342 5.82298 7.55371 5.68783 7.88 5.68H10.77C13.04 5.68 14.51 6.9 14.51 8.79C14.5223 9.21888 14.4389 9.6451 14.2659 10.0377C14.093 10.4304 13.8347 10.7796 13.51 11.06L13.19 11.34L13.55 11.54C14.0065 11.8068 14.3823 12.1921 14.6376 12.6551C14.8929 13.1181 15.0181 13.6416 15 14.17C15 16.3 13.34 17.67 10.82 17.67ZM17.54 17.67C17.2437 17.676 16.9523 17.5934 16.7031 17.4329C16.454 17.2724 16.2583 17.0412 16.1412 16.769C16.0242 16.4967 15.9909 16.1957 16.0458 15.9044C16.1007 15.6132 16.2412 15.3449 16.4493 15.1339C16.6574 14.9229 16.9238 14.7788 17.2143 14.7199C17.5048 14.6611 17.8062 14.6903 18.08 14.8036C18.3539 14.917 18.5877 15.1095 18.7515 15.3564C18.9154 15.6034 19.0019 15.8936 19 16.19C19.0001 16.58 18.8472 16.9545 18.5742 17.2331C18.3013 17.5117 17.93 17.6721 17.54 17.68V17.67Z" fill="#333333"/>
</svg>
