<svg width="24" height="26" viewBox="0 0 24 26" fill="none" xmlns="http://www.w3.org/2000/svg">
<path d="M3.50999 22C3.20936 22 2.91549 22.0891 2.66552 22.2562C2.41556 22.4232 2.22074 22.6606 2.10569 22.9383C1.99065 23.2161 1.96055 23.5217 2.0192 23.8165C2.07785 24.1114 2.22261 24.3822 2.43519 24.5948C2.64776 24.8074 2.9186 24.9521 3.21345 25.0108C3.5083 25.0694 3.81393 25.0393 4.09167 24.9243C4.36941 24.8093 4.6068 24.6144 4.77382 24.3645C4.94084 24.1145 5.02999 23.8206 5.02999 23.52C5.02999 23.1169 4.86985 22.7303 4.58479 22.4452C4.29974 22.1601 3.91312 22 3.50999 22V22ZM12 22C11.6994 22 11.4055 22.0891 11.1555 22.2562C10.9056 22.4232 10.7107 22.6606 10.5957 22.9383C10.4806 23.2161 10.4505 23.5217 10.5092 23.8165C10.5678 24.1114 10.7126 24.3822 10.9252 24.5948C11.1378 24.8074 11.4086 24.9521 11.7035 25.0108C11.9983 25.0694 12.3039 25.0393 12.5817 24.9243C12.8594 24.8093 13.0968 24.6144 13.2638 24.3645C13.4308 24.1145 13.52 23.8206 13.52 23.52C13.5174 23.1177 13.3564 22.7326 13.0719 22.4481C12.7874 22.1636 12.4023 22.0026 12 22ZM7.75999 22C7.45936 22 7.16549 22.0891 6.91552 22.2562C6.66556 22.4232 6.47074 22.6606 6.35569 22.9383C6.24065 23.2161 6.21055 23.5217 6.2692 23.8165C6.32785 24.1114 6.47261 24.3822 6.68519 24.5948C6.89776 24.8074 7.1686 24.9521 7.46345 25.0108C7.7583 25.0694 8.06393 25.0393 8.34167 24.9243C8.61941 24.8093 8.8568 24.6144 9.02382 24.3645C9.19084 24.1145 9.27999 23.8206 9.27999 23.52C9.27999 23.1169 9.11985 22.7303 8.83479 22.4452C8.54974 22.1601 8.16312 22 7.75999 22ZM16.25 22C15.9494 22 15.6555 22.0891 15.4055 22.2562C15.1556 22.4232 14.9607 22.6606 14.8457 22.9383C14.7306 23.2161 14.7005 23.5217 14.7592 23.8165C14.8178 24.1114 14.9626 24.3822 15.1752 24.5948C15.3878 24.8074 15.6586 24.9521 15.9535 25.0108C16.2483 25.0694 16.5539 25.0393 16.8317 24.9243C17.1094 24.8093 17.3468 24.6144 17.5138 24.3645C17.6808 24.1145 17.77 23.8206 17.77 23.52C17.77 23.1169 17.6098 22.7303 17.3248 22.4452C17.0397 22.1601 16.6531 22 16.25 22V22ZM20.49 22C20.1894 22 19.8955 22.0891 19.6455 22.2562C19.3956 22.4232 19.2007 22.6606 19.0857 22.9383C18.9707 23.2161 18.9405 23.5217 18.9992 23.8165C19.0578 24.1114 19.2026 24.3822 19.4152 24.5948C19.6278 24.8074 19.8986 24.9521 20.1935 25.0108C20.4883 25.0694 20.7939 25.0393 21.0717 24.9243C21.3494 24.8093 21.5868 24.6144 21.7538 24.3645C21.9208 24.1145 22.01 23.8206 22.01 23.52C22.01 23.1169 21.8498 22.7303 21.5648 22.4452C21.2797 22.1601 20.8931 22 20.49 22V22ZM18.98 19.34C18.9679 19.5401 18.9989 19.7405 19.0709 19.9275C19.1429 20.1146 19.2543 20.284 19.3975 20.4244C19.5406 20.5647 19.7123 20.6726 19.9007 20.7409C20.0892 20.8091 20.2902 20.8361 20.49 20.82C20.6895 20.8327 20.8895 20.8035 21.077 20.7341C21.2645 20.6648 21.4353 20.5569 21.5786 20.4175C21.7218 20.278 21.8342 20.1101 21.9085 19.9245C21.9828 19.7389 22.0174 19.5398 22.01 19.34V10.74C22.0119 9.43749 21.7522 8.14786 21.2464 6.94757C20.7406 5.74728 19.999 4.66076 19.0655 3.75242C18.1319 2.84408 17.0255 2.13242 15.8119 1.65962C14.5982 1.18682 13.302 0.962518 12 1C9.40617 0.974806 6.90858 1.98103 5.05666 3.79732C3.20474 5.61361 2.15019 8.09119 2.12499 10.685C2.0998 13.2788 3.10602 15.7764 4.92231 17.6283C6.7386 19.4803 9.21617 20.5348 11.81 20.56C13.2045 20.6116 14.5876 20.2916 15.8177 19.6326C17.0477 18.9737 18.0804 17.9995 18.81 16.81H18.96L18.98 19.34ZM11.98 17.86C11.0566 17.8749 10.1397 17.704 9.28372 17.3574C8.42773 17.0109 7.65013 16.4959 6.99713 15.8429C6.34414 15.1899 5.82908 14.4123 5.48256 13.5563C5.13603 12.7003 4.96513 11.7834 4.97999 10.86C4.96493 9.93236 5.13736 9.01122 5.48696 8.15184C5.83656 7.29246 6.35612 6.51254 7.01449 5.85885C7.67285 5.20516 8.45645 4.69116 9.31829 4.34769C10.1801 4.00421 11.1025 3.83833 12.03 3.86C12.9575 3.83833 13.8798 4.00421 14.7417 4.34769C15.6035 4.69116 16.3871 5.20516 17.0455 5.85885C17.7039 6.51254 18.2234 7.29246 18.573 8.15184C18.9226 9.01122 19.0951 9.93236 19.08 10.86C19.0911 11.7877 18.9148 12.7082 18.5615 13.5661C18.2082 14.424 17.6853 15.2017 17.0242 15.8526C16.363 16.5035 15.5772 17.0141 14.7138 17.3539C13.8505 17.6937 12.9274 17.8557 12 17.83L11.98 17.86Z" fill="#333333"/>
</svg>
