<svg width="25" height="25" viewBox="0 0 25 25" fill="none" xmlns="http://www.w3.org/2000/svg">
<path d="M14 9.21994L13.51 7.84994L9.45002 2.36994L10.19 2.18994L17.26 8.29994L21.42 7.10994C21.9013 7.02098 22.3911 6.98743 22.88 7.00994C21.6574 4.40848 19.5417 2.33229 16.9176 1.15904C14.2936 -0.0142196 11.3355 -0.206587 8.58159 0.616925C5.82767 1.44044 3.46083 3.22512 1.91162 5.64632C0.362411 8.06752 -0.266241 10.9644 0.14002 13.8099L10.14 10.3499L14 9.21994ZM23.32 8.00994C22.8768 8.31123 22.396 8.55328 21.89 8.72994L17.72 9.94994L14.94 18.8799L14.22 19.1099L14.8 12.2899L14.48 10.8799L10.57 12.0099L0.25002 14.4199C0.581101 16.0312 1.2399 17.5572 2.18552 18.9031C3.13113 20.249 4.34336 21.3862 5.74692 22.2439C7.15048 23.1017 8.7154 23.6617 10.3445 23.8893C11.9736 24.1168 13.6321 24.007 15.2169 23.5666C16.8018 23.1263 18.2792 22.3648 19.5574 21.3295C20.8356 20.2941 21.8873 19.0071 22.6472 17.5482C23.4071 16.0893 23.859 14.4898 23.9747 12.849C24.0904 11.2081 23.8676 9.56103 23.32 8.00994V8.00994Z" fill="#333333"/>
</svg>
