<?xml version="1.0" encoding="UTF-8"?>
<svg width="24px" height="24px" viewBox="0 0 24 24" version="1.1" xmlns="http://www.w3.org/2000/svg" xmlns:xlink="http://www.w3.org/1999/xlink">
    <!-- Generator: Sketch 62 (91390) - https://sketch.com -->
    <title>sui-final/icons/24px/controls/controls-add</title>
    <desc>Created with Sketch.</desc>
    <g id="sui-final/icons/24px/controls/controls-add" stroke="none" stroke-width="1" fill="none" fill-rule="evenodd">
        <path d="M12,0 C12.5522847,0 13,0.488416637 13,1.09090909 L13,11 L22.9090909,11 C23.5115834,11 24,11.4477153 24,12 C24,12.5522847 23.5115834,13 22.9090909,13 L13,13 L13,22.9090909 C13,23.5115834 12.5522847,24 12,24 C11.4477153,24 11,23.5115834 11,22.9090909 L11,13 L1.09090909,13 C0.488416637,13 0,12.5522847 0,12 C0,11.4477153 0.488416637,11 1.09090909,11 L11,11 L11,1.09090909 C11,0.488416637 11.4477153,0 12,0 Z" id="Combined-Shape" fill="#717171"></path>
    </g>
</svg>