<svg width="24" height="24" viewBox="0 0 24 24" fill="none" xmlns="http://www.w3.org/2000/svg">
    <path fill-rule="evenodd" clip-rule="evenodd" d="M11.9999 21.9371C6.52088 21.9371 2.06288 17.4791 2.06288 12.0001C2.06288 6.52012 6.52088 2.06312 11.9999 2.06312C17.4789 2.06312 21.9369 6.52012 21.9369 12.0001C21.9369 17.4791 17.4789 21.9371 11.9999 21.9371ZM11.9999 0.00012207C5.37288 0.00012207 -0.00012207 5.37312 -0.00012207 12.0001C-0.00012207 18.6271 5.37288 24.0001 11.9999 24.0001C18.6269 24.0001 23.9999 18.6271 23.9999 12.0001C23.9999 5.37312 18.6269 0.00012207 11.9999 0.00012207ZM10 6C10.5523 6 11 6.44772 11 7L11 17C11 17.5523 10.5523 18 10 18C9.44771 18 9 17.5523 9 17L9 7C9 6.44772 9.44772 6 10 6ZM14 6C14.5523 6 15 6.44772 15 7L15 17C15 17.5523 14.5523 18 14 18C13.4477 18 13 17.5523 13 17L13 7C13 6.44772 13.4477 6 14 6Z" fill="#333333"/>
</svg>
