<?xml version="1.0" encoding="UTF-8"?>
<svg width="24px" height="24px" viewBox="0 0 24 24" version="1.1" xmlns="http://www.w3.org/2000/svg" xmlns:xlink="http://www.w3.org/1999/xlink">
    <!-- Generator: Sketch 63.1 (92452) - https://sketch.com -->
    <title>sui-final/icons/24px/controls/controls-play</title>
    <desc>Created with Sketch.</desc>
    <g id="sui-final/icons/24px/controls/controls-play" stroke="none" stroke-width="1" fill="none" fill-rule="evenodd">
        <path d="M11.9999,21.9371 C6.5209,21.9371 2.0629,17.4791 2.0629,12.0001 C2.0629,6.5201 6.5209,2.0631 11.9999,2.0631 C17.4789,2.0631 21.9369,6.5201 21.9369,12.0001 C21.9369,17.4791 17.4789,21.9371 11.9999,21.9371 L11.9999,21.9371 Z M11.9999,0.0001 C5.3729,0.0001 -0.0001,5.3731 -0.0001,12.0001 C-0.0001,18.6271 5.3729,24.0001 11.9999,24.0001 C18.6269,24.0001 23.9999,18.6271 23.9999,12.0001 C23.9999,5.3731 18.6269,0.0001 11.9999,0.0001 L11.9999,0.0001 Z M17.5809,11.1861 L10.5809,6.1861 C10.2769,5.9691 9.8759,5.9391 9.5419,6.1111 C9.2089,6.2821 8.9999,6.6251 8.9999,7.0001 L8.9999,17.0001 C8.9999,17.3751 9.2089,17.7181 9.5419,17.8891 C9.6869,17.9631 9.8439,18.0001 9.9999,18.0001 C10.2049,18.0001 10.4079,17.9371 10.5809,17.8141 L17.5809,12.8141 C17.8439,12.6261 17.9999,12.3231 17.9999,12.0001 C17.9999,11.6771 17.8439,11.3741 17.5809,11.1861 L17.5809,11.1861 Z" id="Fill-1" fill="#333333"></path>
    </g>
</svg>