<svg width="24" height="24" viewBox="0 0 24 24" fill="none" xmlns="http://www.w3.org/2000/svg">
<g clip-path="url(#clip0_42_120)">
<path fill-rule="evenodd" clip-rule="evenodd" d="M15 2.22302C18.3648 2.98652 21.0135 5.63525 21.777 9H15V2.22302ZM15 0.181376C19.4717 1.00276 22.9972 4.52832 23.8186 9C23.9378 9.64855 24 10.317 24 11H13V0C13.683 0 14.3514 0.0622466 15 0.181376ZM9 4.22302V15H19.777C18.8675 19.008 15.2832 22 11 22C6.02944 22 2 17.9706 2 13C2 8.71683 4.99202 5.13247 9 4.22302ZM11 24C16.3921 24 20.8781 20.1202 21.8186 15C21.9378 14.3514 22 13.683 22 13H11V2C10.317 2 9.64855 2.06225 9 2.18138C3.87976 3.12189 0 7.60786 0 13C0 19.0751 4.92487 24 11 24Z" fill="#333333"/>
</g>
<defs>
<clipPath id="clip0_42_120">
<rect width="24" height="24" fill="white"/>
</clipPath>
</defs>
</svg>
