<svg width="24" height="24" viewBox="0 0 24 24" fill="none" xmlns="http://www.w3.org/2000/svg">
<path d="M11.76 17.9402H5.48C4.95 17.9402 4.53 18.3702 4.53 18.8902C4.53 19.4102 4.96 19.8402 5.48 19.8402H11.76C12.29 19.8402 12.71 19.4102 12.71 18.8902C12.71 18.3702 12.28 17.9402 11.76 17.9402ZM10.38 21.4902H6.85C6.43 21.4902 6.1 21.8902 6.23 22.2802C6.56 23.2802 7.5 24.0002 8.62 24.0002C9.74 24.0002 10.67 23.2802 11.01 22.2802C11.14 21.8902 10.8 21.4902 10.39 21.4902H10.38ZM19.96 2.04018L19 0.000183105L18.04 2.04018L16 3.00018L18.04 3.96018L19 6.00018L19.96 3.96018L22 3.00018L19.96 2.04018ZM22.64 6.92018L22 5.56018L21.36 6.92018L20 7.56018L21.36 8.20018L22 9.56018L22.64 8.20018L24 7.56018L22.64 6.92018ZM8.58 0.000183105C3.85 0.000183105 0 3.85018 0 8.58018C0 11.6102 1.63 14.4402 4.25 15.9802L4.47 16.1102H12.69L12.91 15.9802C15.53 14.4402 17.16 11.6102 17.16 8.58018C17.17 3.85018 13.32 0.000183105 8.58 0.000183105ZM12.17 14.2102H5C3.09 12.9902 1.91 10.8502 1.91 8.59018C1.91 4.91018 4.91 1.91018 8.59 1.91018C12.27 1.91018 15.27 4.91018 15.27 8.59018C15.27 10.8602 14.09 12.9902 12.18 14.2102H12.17Z" fill="#333333"/>
</svg>
