<svg width="24" height="24" viewBox="0 0 24 24" fill="none" xmlns="http://www.w3.org/2000/svg">
<path d="M10.9581 24V21.033C9.76451 21.0135 8.65897 20.9057 7.64151 20.7099C6.64361 20.4944 5.77289 20.2204 5.02935 19.8874V16.5973C5.77289 16.9498 6.69252 17.2729 7.78826 17.5667C8.884 17.8605 9.94061 18.0269 10.9581 18.0661V13.0722C9.52971 12.563 8.37526 12.0539 7.49476 11.5447C6.63382 11.0159 5.9979 10.4185 5.587 9.75275C5.19567 9.06731 5 8.25459 5 7.31456C5 5.84578 5.54787 4.69032 6.64361 3.84823C7.73935 2.98653 9.17751 2.48714 10.9581 2.35006V0H12.8952V2.29131C13.9713 2.33048 14.9692 2.45776 15.8889 2.67319C16.8085 2.86903 17.689 3.15301 18.5304 3.52509L17.3857 6.43329C16.6618 6.13953 15.9084 5.90453 15.1258 5.72827C14.3627 5.53244 13.6191 5.40514 12.8952 5.34639V10.2228C14.0496 10.5948 15.0866 11.006 16.0063 11.4565C16.9259 11.907 17.6499 12.4748 18.1782 13.1603C18.7261 13.8261 19 14.6977 19 15.7748C19 17.1848 18.4815 18.35 17.4444 19.2705C16.427 20.191 14.9105 20.7492 12.8952 20.9449V24H10.9581ZM10.9581 9.48837V5.40514C9.41231 5.58139 8.63941 6.18849 8.63941 7.22644C8.63941 7.77478 8.81551 8.21542 9.16771 8.54835C9.51992 8.88128 10.1167 9.19461 10.9581 9.48837ZM12.8952 17.9486C14.5388 17.7136 15.3606 17.0575 15.3606 15.9804C15.3606 15.4517 15.1649 15.0305 14.7736 14.7173C14.4018 14.404 13.7757 14.0905 12.8952 13.7772V17.9486Z" fill="#333333"/>
</svg>
