<svg width="24" height="24" viewBox="0 0 24 24" fill="none" xmlns="http://www.w3.org/2000/svg">
<path fill-rule="evenodd" clip-rule="evenodd" d="M17.1371 10.898C17.7423 9.55302 18 8.56052 18 8C18 5.0371 15.2474 2 12 2C8.75258 2 6 5.0371 6 8C6 8.56052 6.25766 9.55302 6.86291 10.898C7.44131 12.1834 8.24361 13.5888 9.10742 14.8994C9.97231 16.2116 10.864 17.3761 11.6 18.1891C11.7457 18.3501 11.8793 18.4906 12 18.6116C12.1207 18.4906 12.2543 18.3501 12.4 18.1891C13.136 17.3761 14.0277 16.2116 14.8926 14.8994C15.7564 13.5888 16.5587 12.1834 17.1371 10.898ZM12 21C13.5 21 20 12 20 8C20 4 16.4183 0 12 0C7.58172 0 4 4 4 8C4 12 10.5 21 12 21ZM15.5286 19.1344C17.0742 19.2563 18.4474 19.4553 19.5566 19.7074C20.5139 19.9249 21.2199 20.1701 21.6622 20.4078C21.7235 20.4407 21.7761 20.4716 21.821 20.5C21.7761 20.5284 21.7235 20.5593 21.6622 20.5922C21.2199 20.8299 20.5139 21.075 19.5566 21.2926C17.658 21.7241 14.9858 22 12 22L11.9961 22C9.01186 21.9997 6.34119 21.7239 4.44345 21.2926C3.48611 21.075 2.78009 20.8299 2.33776 20.5922C2.27647 20.5593 2.22389 20.5284 2.179 20.5C2.22389 20.4716 2.27647 20.4407 2.33776 20.4078C2.78009 20.1701 3.48611 19.9249 4.44345 19.7074C5.55262 19.4553 6.92583 19.2563 8.47137 19.1344C8.0153 18.5639 7.54426 17.929 7.07971 17.2571C5.94001 17.3833 4.90048 17.5525 4.0002 17.7571C2.96693 17.9919 2.06204 18.2855 1.39111 18.646C1.05635 18.8259 0.731985 19.0475 0.480324 19.327C0.223346 19.6124 0 20.009 0 20.5C0 20.991 0.223346 21.3875 0.480324 21.6729C0.731985 21.9525 1.05635 22.1741 1.39111 22.354C2.06204 22.7145 2.96693 23.0081 4.0002 23.2429C6.08286 23.7162 8.91072 24 12 24C15.0893 24 17.9171 23.7162 19.9998 23.2429C21.0331 23.0081 21.938 22.7145 22.6089 22.354C22.9436 22.1741 23.268 21.9525 23.5197 21.6729C23.7767 21.3875 24 20.991 24 20.5C24 20.009 23.7767 19.6124 23.5197 19.327C23.268 19.0475 22.9436 18.8259 22.6089 18.646C21.938 18.2855 21.0331 17.9919 19.9998 17.7571C19.0995 17.5525 18.06 17.3833 16.9203 17.2571C16.4557 17.929 15.9847 18.5639 15.5286 19.1344ZM13.5 8C13.5 8.82843 12.8284 9.5 12 9.5C11.1716 9.5 10.5 8.82843 10.5 8C10.5 7.17157 11.1716 6.5 12 6.5C12.8284 6.5 13.5 7.17157 13.5 8ZM15.5 8C15.5 9.933 13.933 11.5 12 11.5C10.067 11.5 8.5 9.933 8.5 8C8.5 6.067 10.067 4.5 12 4.5C13.933 4.5 15.5 6.067 15.5 8Z" fill="#333333"/>
</svg>
