<svg width="24" height="24" viewBox="0 0 24 24" fill="none" xmlns="http://www.w3.org/2000/svg">
<path d="M21.04 11.13C21.47 10.62 22 9.98997 22 9.12997C22 8.26997 21.47 7.63997 21.04 7.12997C20.86 6.91997 20.63 6.64997 20.59 6.49997C20.54 6.32997 20.56 5.97997 20.59 5.67997C20.63 5.02997 20.69 4.21997 20.2 3.54997C19.71 2.86997 18.91 2.66997 18.28 2.51997C17.98 2.44997 17.65 2.35997 17.51 2.25997C17.38 2.15997 17.19 1.85997 17.04 1.61997C16.69 1.05997 16.26 0.359971 15.45 0.0999714C14.67 -0.150029 13.92 0.149971 13.32 0.389971C13.03 0.509971 12.7 0.639971 12.51 0.639971C12.32 0.639971 11.99 0.509971 11.7 0.389971C11.1 0.149971 10.35 -0.150029 9.57002 0.0999714C8.76002 0.359971 8.33002 1.05997 7.98002 1.61997C7.83002 1.85997 7.64002 2.16997 7.51002 2.25997C7.37002 2.35997 7.04002 2.43997 6.74002 2.51997C6.11002 2.67997 5.31002 2.87997 4.82002 3.54997C4.33002 4.21997 4.38002 5.02997 4.43002 5.68997C4.45002 5.99997 4.47002 6.34997 4.43002 6.50997C4.38002 6.65997 4.16002 6.91997 3.98002 7.13997C3.55002 7.64997 3.02002 8.27997 3.02002 9.13997C3.02002 9.99997 3.55002 10.63 3.98002 11.14C4.16002 11.35 4.39002 11.62 4.43002 11.77C4.48002 11.94 4.46002 12.29 4.43002 12.59C4.39002 13.24 4.33002 14.05 4.82002 14.72C5.26002 15.33 5.93002 15.54 6.53002 15.7V22.09C6.53002 22.75 6.82002 23.34 7.32002 23.67C7.74002 23.95 8.24002 24 8.70002 23.81L12.52 22.24L16.35 23.81C16.53 23.89 16.72 23.92 16.91 23.92C17.2 23.92 17.48 23.83 17.74 23.66C18.23 23.33 18.53 22.74 18.53 22.08V15.68C19.11 15.53 19.76 15.31 20.19 14.71C20.68 14.04 20.62 13.23 20.58 12.58C20.56 12.27 20.54 11.92 20.58 11.76C20.63 11.61 20.85 11.35 21.03 11.13H21.04ZM12.51 20.08L8.52002 21.72V17.43C8.79002 17.75 9.11002 18.03 9.56002 18.17C10.34 18.42 11.09 18.12 11.69 17.88C11.98 17.76 12.31 17.63 12.5 17.63C12.69 17.63 13.02 17.76 13.31 17.88C13.75 18.06 14.27 18.26 14.82 18.26C15.02 18.26 15.23 18.23 15.44 18.16C15.91 18.01 16.25 17.7 16.52 17.36V21.71L12.51 20.07V20.08ZM19.51 9.83997C19.2 10.21 18.85 10.62 18.68 11.14C18.51 11.68 18.54 12.23 18.58 12.72C18.6 12.99 18.63 13.43 18.57 13.54C18.48 13.64 18.04 13.75 17.78 13.81C17.31 13.93 16.77 14.06 16.32 14.39C15.87 14.72 15.58 15.18 15.33 15.59C15.19 15.81 14.94 16.21 14.83 16.26C14.7 16.27 14.3 16.12 14.06 16.02C13.6 15.84 13.08 15.63 12.51 15.63C11.94 15.63 11.42 15.84 10.96 16.02C10.72 16.12 10.31 16.28 10.19 16.26C10.07 16.21 9.82002 15.8 9.68002 15.59C9.42002 15.18 9.13002 14.71 8.69002 14.39C8.24002 14.06 7.70002 13.93 7.23002 13.81C6.97002 13.74 6.53002 13.64 6.44002 13.54C6.38002 13.42 6.41002 12.98 6.43002 12.71C6.46002 12.22 6.50002 11.67 6.33002 11.13C6.16002 10.61 5.81002 10.2 5.50002 9.82997C5.33002 9.62997 5.01002 9.24997 5.01002 9.11997C5.01002 8.98997 5.33002 8.60997 5.50002 8.40997C5.81002 8.03997 6.16002 7.62997 6.33002 7.10997C6.50002 6.57997 6.47002 6.01997 6.43002 5.52997C6.41002 5.25997 6.38002 4.81997 6.44002 4.70997C6.53002 4.60997 6.97002 4.49997 7.23002 4.43997C7.70002 4.31997 8.24002 4.18997 8.69002 3.85997C9.14002 3.52997 9.43002 3.06997 9.68002 2.65997C9.81002 2.43997 10.07 2.03997 10.18 1.98997C10.18 1.98997 10.2 1.98997 10.21 1.98997C10.36 1.98997 10.73 2.13997 10.96 2.22997C11.42 2.40997 11.94 2.61997 12.51 2.61997C13.08 2.61997 13.6 2.40997 14.06 2.22997C14.3 2.12997 14.72 1.96997 14.82 1.98997C14.94 2.03997 15.2 2.44997 15.33 2.65997C15.59 3.06997 15.88 3.53997 16.32 3.85997C16.77 4.18997 17.31 4.31997 17.78 4.43997C18.04 4.50997 18.48 4.60997 18.57 4.70997C18.63 4.82997 18.6 5.26997 18.59 5.53997C18.56 6.02997 18.52 6.57997 18.69 7.11997C18.86 7.63997 19.21 8.04997 19.52 8.41997C19.69 8.61997 20.01 8.99997 20.01 9.12997C20.01 9.25997 19.69 9.63997 19.52 9.83997H19.51Z" fill="#333333"/>
</svg>
