<svg width="24" height="24" viewBox="0 0 24 24" fill="none" xmlns="http://www.w3.org/2000/svg">
<path fill-rule="evenodd" clip-rule="evenodd" d="M11.669 0.256706C11.2887 -0.0855686 10.7114 -0.0855686 10.3311 0.256706L0.331077 9.25671C0.0233147 9.53369 -0.0819185 9.9717 0.0664213 10.3583C0.214761 10.7448 0.58599 11 1.00004 11H5.00004V23C5.00004 23.5523 5.44776 24 6.00004 24H10C10.5523 24 11 23.5523 11 23C11 22.4477 10.5523 22 10 22H7.00004V10C7.00004 9.44771 6.55233 9 6.00004 9H3.606L11 2.34536L18.3941 9H16C15.4478 9 15 9.44771 15 10V12C15 12.5523 15.4478 13 16 13C16.5523 13 17 12.5523 17 12V11H21C21.4141 11 21.7853 10.7448 21.9337 10.3583C22.082 9.9717 21.9768 9.53369 21.669 9.25671L11.669 0.256706ZM19.8742 14.4856C20.1424 14.0029 19.9685 13.3941 19.4857 13.1258C19.0029 12.8576 18.3941 13.0316 18.1259 13.5144L13.1259 22.5144C12.8577 22.9971 13.0316 23.6059 13.5144 23.8742C13.9972 24.1424 14.606 23.9684 14.8742 23.4856L19.8742 14.4856ZM21 24C22.6569 24 24 22.6569 24 21C24 19.3431 22.6569 18 21 18C19.3432 18 18 19.3431 18 21C18 22.6569 19.3432 24 21 24ZM21 22C21.5523 22 22 21.5523 22 21C22 20.4477 21.5523 20 21 20C20.4478 20 20 20.4477 20 21C20 21.5523 20.4478 22 21 22ZM15 16C15 17.6569 13.6569 19 12 19C10.3432 19 9.00005 17.6569 9.00005 16C9.00005 14.3431 10.3432 13 12 13C13.6569 13 15 14.3431 15 16ZM13 16C13 16.5523 12.5523 17 12 17C11.4478 17 11 16.5523 11 16C11 15.4477 11.4478 15 12 15C12.5523 15 13 15.4477 13 16Z" fill="#333333"/>
</svg>
