<?xml version="1.0" encoding="UTF-8"?>
<svg width="24px" height="24px" viewBox="0 0 24 24" version="1.1" xmlns="http://www.w3.org/2000/svg" xmlns:xlink="http://www.w3.org/1999/xlink">
    <!-- Generator: Sketch 62 (91390) - https://sketch.com -->
    <title>sui-final/icons/24px/products/products-doorbell</title>
    <desc>Created with Sketch.</desc>
    <g id="sui-final/icons/24px/products/products-doorbell" stroke="none" stroke-width="1" fill="none" fill-rule="evenodd">
        <path d="M21.7896,17.0596 C22.3092,17.0596 22.7868,17.344 23.0328,17.8024 L24,19.6 L0,19.6 L1.0248,17.7796 C1.2756,17.3344 1.746,17.0596 2.256,17.0596 L21.7896,17.0596 Z M12.0684,7.1776 C16.7868,7.1776 20.6784,10.9132 21.2436,15.7396 L2.8944,15.7396 C3.4596,10.9132 7.3512,7.1776 12.0684,7.1776 L12.0684,7.1776 Z M12.8148,4 C13.3992,4 13.8744,4.4752 13.8744,5.0596 C13.8744,5.644 13.3992,6.118 12.8148,6.118 L11.2944,6.118 C10.71,6.118 10.236,5.644 10.236,5.0596 C10.236,4.4752 10.71,4 11.2944,4 L12.8148,4 Z" id="Fill-1" fill="#717171"></path>
    </g>
</svg>