<?xml version="1.0" encoding="UTF-8"?>
<svg width="24px" height="24px" viewBox="0 0 24 24" version="1.1" xmlns="http://www.w3.org/2000/svg" xmlns:xlink="http://www.w3.org/1999/xlink">
    <!-- Generator: Sketch 62 (91390) - https://sketch.com -->
    <title>sui-final/icons/24px/products/products-website-builder</title>
    <desc>Created with Sketch.</desc>
    <g id="sui-final/icons/24px/products/products-website-builder" stroke="none" stroke-width="1" fill="none" fill-rule="evenodd">
        <path d="M13.5779986,6.84999971 C14.1815985,6.84999971 14.7191985,6.9279997 15.1643984,7.03239969 C15.9815983,7.22319967 16.6331983,7.8483996 16.8863983,8.66079952 L18.7919981,14.7795989 C18.977998,15.3795988 18.931198,16.0299988 18.6539981,16.5927987 C17.9147981,18.0939985 16.0211983,20.7999983 11.9903988,20.7999983 L11.9639988,20.7999983 C4.23839956,20.7771983 1.45319985,15.3663988 1.14119988,14.9535989 C0.338399965,13.892799 1.0043999,13.326399 1.74839982,13.326399 C1.82399981,13.326399 1.8995998,13.332399 1.9751998,13.344399 C2.31839976,13.397199 2.64119973,13.422399 2.9459997,13.422399 C7.47959923,13.422399 7.86839919,7.8915996 12.1787987,6.99399969 C12.6731987,6.8907997 13.1423986,6.84999971 13.5779986,6.84999971 M21.3731978,5.16279988 C21.4955978,5.17239988 21.6095978,5.26719987 21.6539978,5.40639985 L23.9819975,12.8967991 C24.0383975,13.0743991 23.9579975,13.260399 23.8019975,13.310799 L20.6879979,15.0759989 C20.6135979,15.1251988 20.5211979,15.1359988 20.4383979,15.0975989 C20.3567979,15.0603989 20.2895979,14.9835989 20.2583979,14.8827989 L17.9279981,7.38759965 C17.8715982,7.20879967 17.9531981,7.02399969 18.1079981,6.97479969 L21.2255978,5.20359988 C21.2699978,5.17479988 21.3203978,5.15799988 21.3731978,5.16279988 M3.35999965,4 C5.21639946,4 6.7199993,5.52999984 6.7199993,7.41879965 C6.7199993,9.30639945 5.21639946,10.8363993 3.35999965,10.8363993 C1.50479984,10.8363993 -1.77635684e-14,9.30639945 -1.77635684e-14,7.41879965 C-1.77635684e-14,5.52999984 1.50479984,4 3.35999965,4" id="Fill-1" fill="#717171"></path>
    </g>
</svg>