<?xml version="1.0" encoding="UTF-8"?>
<svg width="24px" height="24px" viewBox="0 0 24 24" version="1.1" xmlns="http://www.w3.org/2000/svg" xmlns:xlink="http://www.w3.org/1999/xlink">
    <!-- Generator: Sketch 62 (91390) - https://sketch.com -->
    <title>sui-final/icons/24px/products/products-booking-engine</title>
    <desc>Created with Sketch.</desc>
    <g id="sui-final/icons/24px/products/products-booking-engine" stroke="none" stroke-width="1" fill="none" fill-rule="evenodd">
        <path d="M11.1299704,11.0543706 C11.3783697,10.8107712 21.7511421,15.9227576 23.9063364,16.9883548 C24.044336,17.0579546 24.026336,17.260754 23.8787364,17.3039539 L18.8447498,18.77155 C18.8303499,18.77515 18.8195499,18.78595 18.8159499,18.79915 L17.3603538,23.8775364 C17.3171539,24.026336 17.1155544,24.044336 17.0483546,23.9063364 C15.9863574,21.7403421 10.880371,11.2979699 11.1299704,11.0543706 M10.3463725,0 C16.0499573,0 20.6903449,4.67998754 20.6903449,10.4303722 C20.6903449,11.5739692 20.5043454,12.6743663 20.1071465,13.7303634 C20.1071465,13.7303634 18.1523517,12.8087659 18.1571517,12.788366 C18.3803511,12.0407679 18.5015507,11.2499701 18.5015507,10.4303722 C18.5015507,5.78758459 14.665161,2.03159459 10.0223733,2.21279411 C5.78998459,2.37959367 2.35919372,5.83798446 2.19599415,10.1051731 C2.01599463,14.7875606 5.74198471,18.6539503 10.3463725,18.6539503 C11.1779702,18.6539503 11.9807681,18.5267507 12.787166,18.3131512 C12.787166,18.3131512 13.6703636,20.3039459 13.6475637,20.3123459 C12.6083664,20.665145 11.5007694,20.8607445 10.3463725,20.8607445 C4.64038765,20.8607445 0.00119999681,16.1807569 -1.77635684e-15,10.4303722 C-1.77635684e-15,4.67878754 4.64038765,0 10.3463725,0 M10.5743718,5.5235853 L10.9199709,5.53558526 C11.26557,5.5595852 11.6147691,5.62078504 11.9627682,5.72158477 C14.4947614,6.45478282 16.0055574,9.02397598 15.4931588,11.5811692 C15.4871588,11.6075691 15.4571589,11.6231691 15.4331589,11.6111691 C14.8871604,11.3459698 9.81837386,8.90037631 9.43677488,9.28437528 C8.96517613,9.75837402 11.3927697,14.9183603 11.653169,15.4667588 C11.6639689,15.4907588 11.650769,15.5195587 11.6243691,15.5255587 C11.28357,15.5999585 10.9343709,15.6407584 10.5791718,15.6407584 C10.0907731,15.6407584 9.59637445,15.5687586 9.10437576,15.416359 C6.55798254,14.6291611 5.05438654,11.9291682 5.71558478,9.32877517 C6.30238322,7.02958129 8.34837778,5.5235853 10.5743718,5.5235853" id="Fill-1" fill="#717171"></path>
    </g>
</svg>