<?xml version="1.0" encoding="UTF-8"?>
<svg width="24px" height="24px" viewBox="0 0 24 24" version="1.1" xmlns="http://www.w3.org/2000/svg" xmlns:xlink="http://www.w3.org/1999/xlink">
    <!-- Generator: Sketch 62 (91390) - https://sketch.com -->
    <title>sui-final/icons/24px/products/products-insights</title>
    <desc>Created with Sketch.</desc>
    <g id="sui-final/icons/24px/products/products-insights" stroke="none" stroke-width="1" fill="none" fill-rule="evenodd">
        <path d="M13.3931302,14.5928 C15.2302518,14.5928 16.7200082,16.0712 16.7200082,17.8964 C16.7200082,19.7216 15.2302518,21.2 13.3931302,21.2 C11.5560086,21.2 10.0662522,19.7216 10.0662522,17.8964 C10.0662522,16.0712 11.5560086,14.5928 13.3931302,14.5928 L13.3931302,14.5928 Z M2.29579044,13.058 C3.56416267,13.058 4.592804,14.078 4.592804,15.338 C4.592804,16.5968 3.56416267,17.618 2.29579044,17.618 C1.02864132,17.618 0,16.5968 0,15.338 C0,14.078 1.02864132,13.058 2.29579044,13.058 L2.29579044,13.058 Z M9.44246254,11.3732 L9.46325553,11.3864 L11.5547854,14.0048 C11.570686,14.024 11.5633249,14.0516 11.5413312,14.0636 C10.9823667,14.336 10.4918969,14.7248 10.1029457,15.2 C10.0870452,15.218 10.0576903,15.218 10.0430129,15.2 L7.9490368,12.5804 C7.93313628,12.56 7.94169809,12.53 7.96616043,12.5204 C8.55814902,12.3056 9.06085007,11.9048 9.40087657,11.39 C9.41433085,11.3672 9.44613189,11.366 9.46325553,11.3864 L9.44246254,11.3732 Z M15.6485577,11.4632 L15.6693507,11.4704 C16.1622668,11.8316 16.7138926,12.1172 17.3071043,12.3104 C17.3303435,12.3176 17.3401284,12.3428 17.3291204,12.3644 L16.1879523,14.5652 C16.1769442,14.5868 16.1475894,14.5928 16.1292427,14.5772 C15.6595658,14.1896 15.1030476,13.898 14.4963816,13.7384 C14.4719193,13.7312 14.4609112,13.706 14.4719193,13.6844 L15.6118642,11.4836 C15.6228723,11.4632 15.651004,11.4572 15.6693507,11.4704 L15.6485577,11.4632 Z M4.41422893,11.2892 C4.43012945,11.2688 4.46193049,11.2712 4.47538477,11.294 C4.8031801,11.8184 5.2948731,12.2324 5.87952298,12.4616 C5.90398532,12.47 5.91254714,12.5 5.8954235,12.5204 L5.06737336,13.5032 C5.05147284,13.5224 5.02089491,13.5212 5.00744063,13.4996 C4.66129854,12.9884 4.17449801,12.5804 3.60085618,12.3308 C3.57761696,12.32 3.57027826,12.2912 3.58617878,12.2708 L4.41422893,11.2892 Z M6.94118846,7.9028 C8.00774641,7.9028 8.87249006,8.762 8.87249006,9.8216 C8.87249006,10.8812 8.00774641,11.7404 6.94118846,11.7404 C5.87463052,11.7404 5.00988686,10.8812 5.00988686,9.8216 C5.00988686,8.762 5.87463052,7.9028 6.94118846,7.9028 L6.94118846,7.9028 Z M19.1271022,2 C21.8142901,2 24,4.1708 24,6.8396 C24,9.5084 21.8142901,11.6792 19.1271022,11.6792 C16.4411375,11.6792 14.2554276,9.5084 14.2554276,6.8396 C14.2554276,4.1708 16.4411375,2 19.1271022,2 L19.1271022,2 Z M19.1271022,3.9188 C17.5040261,3.9188 16.1867292,5.2268 16.1867292,6.8396 C16.1867292,8.4524 17.5040261,9.7604 19.1271022,9.7604 C20.7514015,9.7604 22.0686984,8.4524 22.0686984,6.8396 C22.0686984,5.2268 20.7514015,3.9188 19.1271022,3.9188 L19.1271022,3.9188 Z" id="Fill-1" fill="#717171"></path>
    </g>
</svg>