<?xml version="1.0" encoding="UTF-8"?>
<svg width="24px" height="24px" viewBox="0 0 24 24" version="1.1" xmlns="http://www.w3.org/2000/svg" xmlns:xlink="http://www.w3.org/1999/xlink">
    <!-- Generator: Sketch 62 (91390) - https://sketch.com -->
    <title>sui-final/icons/24px/products/products-distribution</title>
    <desc>Created with Sketch.</desc>
    <g id="sui-final/icons/24px/products/products-distribution" stroke="none" stroke-width="1" fill="none" fill-rule="evenodd">
        <path d="M3.522,16.9668 C5.4672,16.9668 7.0452,18.5412 7.0452,20.484 C7.0452,22.4268 5.4672,24 3.522,24 C1.5768,24 0,22.4268 0,20.484 C0,18.5412 1.5768,16.9668 3.522,16.9668 L3.522,16.9668 Z M20.478,16.9668 C22.4232,16.9668 24,18.5412 24,20.484 C24,22.4268 22.4232,24 20.478,24 C18.5328,24 16.9548,22.4268 16.9548,20.484 C16.9548,18.5412 18.5328,16.9668 20.478,16.9668 L20.478,16.9668 Z M15.7116,20.7924 C15.7428,20.7804 15.7752,20.7996 15.7776,20.8332 C15.8472,21.6228 16.1112,22.3572 16.5252,22.9884 C16.542,23.0136 16.5312,23.0472 16.5024,23.058 C15.1128,23.622 13.5936,23.9328 12,23.9328 C10.4064,23.9328 8.8872,23.622 7.4976,23.058 C7.4688,23.0472 7.4592,23.0136 7.476,22.9884 C7.8888,22.3572 8.1528,21.6228 8.2224,20.8332 C8.226,20.7996 8.2572,20.7804 8.2884,20.7924 C9.4308,21.2748 10.6848,21.5412 12,21.5412 C13.3152,21.5412 14.5704,21.2748 15.7116,20.7924 L15.7116,20.7924 Z M12,6.0612 C15.2664,6.0612 17.9136,8.7048 17.9136,11.9664 C17.9136,15.228 15.2664,17.8728 12,17.8728 C8.7336,17.8728 6.0864,15.228 6.0864,11.9664 C6.0864,8.7048 8.7336,6.0612 12,6.0612 L12,6.0612 Z M23.034,7.4388 C23.058,7.422 23.0928,7.4328 23.1036,7.4592 C23.6712,8.85 23.9844,10.3728 23.9844,11.9664 C23.9844,13.5492 23.676,15.0588 23.1168,16.4424 C23.1048,16.47 23.0712,16.4808 23.0472,16.464 C22.4136,16.0524 21.678,15.7896 20.8872,15.7212 C20.8536,15.7188 20.8344,15.6876 20.8476,15.6564 C21.324,14.5212 21.588,13.2744 21.588,11.9664 C21.588,10.644 21.3168,9.3852 20.8308,8.2392 C20.8176,8.2092 20.838,8.1768 20.8704,8.1732 C21.6624,8.1084 22.3992,7.8468 23.034,7.4388 L23.034,7.4388 Z M0.9396,7.4304 L0.966,7.4388 C1.5996,7.8468 2.3376,8.1084 3.1308,8.1732 C3.162,8.1768 3.1824,8.2092 3.1692,8.2392 C2.6832,9.3852 2.412,10.644 2.412,11.9664 C2.412,13.2744 2.676,14.5212 3.1524,15.6564 C3.1656,15.6876 3.1464,15.7188 3.1128,15.7212 C2.322,15.7896 1.5864,16.0524 0.954,16.464 C0.9288,16.4808 0.8952,16.47 0.8832,16.4424 C0.3252,15.0588 0.0168,13.5492 0.0168,11.9664 C0.0168,10.3728 0.33,8.85 0.8964,7.4592 C0.9072,7.4328 0.942,7.422 0.966,7.4388 L0.9396,7.4304 Z M3.522,0.0288 C5.4672,0.0288 7.0452,1.6032 7.0452,3.5448 C7.0452,5.4888 5.4672,7.062 3.522,7.062 C1.5768,7.062 0,5.4888 0,3.5448 C0,1.6032 1.5768,0.0288 3.522,0.0288 L3.522,0.0288 Z M20.478,0.0288 C22.4232,0.0288 24,1.6032 24,3.5448 C24,5.4888 22.4232,7.062 20.478,7.062 C18.5328,7.062 16.9548,5.4888 16.9548,3.5448 C16.9548,1.6032 18.5328,0.0288 20.478,0.0288 L20.478,0.0288 Z M12,0 C13.5852,0 15.0972,0.3084 16.4832,0.8676 C16.5108,0.8784 16.5204,0.912 16.5048,0.9372 C16.0968,1.5708 15.8376,2.3076 15.774,3.0984 C15.7716,3.132 15.7392,3.1512 15.708,3.1392 C14.5668,2.6592 13.314,2.3928 12,2.3928 C10.686,2.3928 9.4332,2.6592 8.292,3.1392 C8.2608,3.1512 8.2296,3.132 8.226,3.0984 C8.1624,2.3076 7.9032,1.5708 7.4964,0.9372 C7.4796,0.912 7.4904,0.8784 7.5168,0.8676 C8.9016,0.3084 10.4148,0 12,0 L12,0 Z" id="Fill-1" fill="#717171"></path>
    </g>
</svg>