<?xml version="1.0" encoding="UTF-8"?>
<svg width="24px" height="24px" viewBox="0 0 24 24" version="1.1" xmlns="http://www.w3.org/2000/svg" xmlns:xlink="http://www.w3.org/1999/xlink">
    <title>sui-final/icons/24px/products/products-hotel-app-store</title>
    <g id="sui-final/icons/24px/products/products-hotel-app-store" stroke="none" stroke-width="1" fill="none" fill-rule="evenodd">
        <path d="M21.7890747,6.14343088 C20.3770758,4.7590287 18.4770772,3.98882285 16.5018059,4 C14.5312619,4.02709621 12.6552633,4.85307181 11.3018098,6.28923417 L11.2727189,6.32203991 L10.7272648,6.9344137 L8.03635767,4.26621359 C7.86508507,4.09562375 7.63381252,4 7.39272179,4 C7.1490856,4.00048711 6.91563123,4.09890433 6.74544954,4.27350376 L0.261817988,10.8565221 C0.0941817483,11.0278409 0.000363636094,11.2582101 0,11.4980565 L0,18.0847199 C0,18.5899283 0.408726969,19 0.912726596,19 L7.41453995,19 C7.9167214,18.9544365 8.28726658,18.510101 8.2421757,18.0067151 C8.202903,17.5660247 7.85453963,17.2164613 7.41453995,17.1774589 L1.81818047,17.1774589 L1.81818047,11.8735 L7.39999451,6.20904236 L14.7163527,13.4773361 C15.0716252,13.8330961 15.6472611,13.8327316 16.0018063,13.4762426 C16.0098063,13.4682234 16.0178063,13.4602042 16.0254427,13.4518205 L18.0872593,11.2647712 C18.4170772,10.8827666 18.3752591,10.3050211 17.9941685,9.97441218 C17.6341687,9.66202865 17.09526,9.67988955 16.7563512,10.0145081 L15.3345341,11.5308622 L12.0218093,8.25028834 L12.6108997,7.59417356 C13.6210808,6.50793909 15.0214434,5.87041423 16.5018059,5.82266366 C17.9959866,5.81464448 19.4334401,6.39749311 20.501803,7.4447252 C21.5643476,8.48576065 22.1603472,9.91426833 22.1527108,11.4032844 C22.154529,12.9236481 21.5570749,14.3827745 20.4908939,15.4639058 C19.442531,16.5512338 17.9992594,17.1654302 16.4908969,17.1661592 C15.0199889,17.1661592 13.6119899,16.5676367 12.5890816,15.5076468 L8.08363037,10.8200712 C7.73453972,10.4559275 7.15672196,10.4442633 6.79308587,10.7941911 C6.79308587,10.7941911 6.79272223,10.7945557 6.79272223,10.7945557 L4.46908759,13.0326361 C4.10581514,13.3829285 4.09417878,13.962132 4.44363307,14.3266402 C4.79308735,14.6911484 5.37126874,14.7024482 5.7345412,14.3525203 L7.39999451,12.7483197 L11.2909007,16.7943608 C12.6578088,18.1980819 14.5338074,18.9872422 16.4908969,18.9814101 C18.4938045,18.9952614 20.4167121,18.1926143 21.8181656,16.75791 C23.2192555,15.3341409 24.0032549,13.4139117 24,11.4142196 C24.0043458,9.42983691 23.2065282,7.52856208 21.7890747,6.14343088" id="Fill-1" fill="#333333"></path>
    </g>
</svg>