<?xml version="1.0" encoding="UTF-8"?>
<svg width="24px" height="24px" viewBox="0 0 24 24" version="1.1" xmlns="http://www.w3.org/2000/svg" xmlns:xlink="http://www.w3.org/1999/xlink">
    <!-- Generator: Sketch 62 (91390) - https://sketch.com -->
    <title>sui-final/icons/24px/rating/rating-half</title>
    <desc>Created with Sketch.</desc>
    <g id="sui-final/icons/24px/rating/rating-half" stroke="none" stroke-width="1" fill="none" fill-rule="evenodd">
        <path d="M11.9943948,18.5364629 C12.1699238,18.535509 12.3456223,18.5788963 12.5057213,18.666625 L17.8329321,21.5857529 C17.8960983,21.6203658 17.9536006,21.6475446 18.0046242,21.6680531 C18.0014654,21.6136823 17.9945901,21.5514932 17.9831499,21.4819705 L16.9657431,15.2991585 C16.9045085,14.9270337 17.0226396,14.5472366 17.2813849,14.2843556 L21.591189,9.90566382 C21.6379019,9.85820422 21.6773944,9.81360451 21.7100195,9.77268909 C21.659165,9.75901325 21.6002374,9.74664017 21.5334284,9.73652169 L15.5774257,8.83446158 C15.2225239,8.7807103 14.9154903,8.54768351 14.756131,8.21113027 L12.0925256,2.5858221 C12.0608933,2.51901736 12.0296942,2.46184816 12.000041,2.41417872 C11.970417,2.46183802 11.9943948,18.5364629 11.9943948,18.5364629 Z M7.1785105,23.61156 C5.19872574,24.6964138 3.48739605,23.3978923 3.86658254,21.0935643 L4.78613018,15.505445 L0.889826982,11.5468634 C-0.717371403,9.91397566 -0.0591023422,7.80913643 2.15448848,7.47387937 L7.54369938,6.65766211 L9.95280189,1.56984239 C10.9443976,-0.524323473 13.0567087,-0.522237859 14.0473168,1.56984239 L16.4564193,6.65766211 L21.8456302,7.47387937 C24.0614355,7.80947182 24.715879,9.9156125 23.1102917,11.5468634 L19.2139885,15.505445 L20.1335362,21.0935643 C20.5131023,23.4001994 18.7994224,24.695334 16.8216082,23.61156 L12.0000594,20.9695175 L7.1785105,23.61156 Z" id="Combined-Shape" fill="#717171"></path>
    </g>
</svg>