<?xml version="1.0" encoding="UTF-8"?>
<svg width="24px" height="24px" viewBox="0 0 24 24" version="1.1" xmlns="http://www.w3.org/2000/svg" xmlns:xlink="http://www.w3.org/1999/xlink">
    <!-- Generator: Sketch 62 (91390) - https://sketch.com -->
    <title>sui-final/icons/24px/rating/rating-default</title>
    <desc>Created with Sketch.</desc>
    <g id="sui-final/icons/24px/rating/rating-default" stroke="none" stroke-width="1" fill="none" fill-rule="evenodd">
        <path d="M6.16718666,21.5857529 L11.4943974,18.666625 C11.8111509,18.493055 12.1889678,18.493055 12.5057213,18.666625 L17.8329321,21.5857529 C17.8960983,21.6203658 17.9536006,21.6475446 18.0046242,21.6680763 C18.0014654,21.6136823 17.9945901,21.5514932 17.9831499,21.4819705 L16.9657431,15.2991585 C16.9045085,14.9270337 17.0226396,14.5472366 17.2813849,14.2843556 L21.591189,9.90566382 C21.6379019,9.85820422 21.6773944,9.81360451 21.7100195,9.77268909 C21.659165,9.75901325 21.6002374,9.74664017 21.5334284,9.73652169 L15.5774257,8.83446158 C15.2225239,8.7807103 14.9154903,8.54768351 14.756131,8.21113027 L12.0925256,2.5858221 C12.0608933,2.51901736 12.0296942,2.46184816 12.000041,2.41417872 C11.970417,2.46183802 11.9392319,2.51900367 11.9075931,2.5858221 L9.2439877,8.21113027 C9.08462842,8.54768351 8.77759481,8.7807103 8.422693,8.83446158 L2.46669028,9.73652169 C2.39989481,9.74663813 2.34096117,9.75902241 2.29009068,9.77272096 C2.32271528,9.81360904 2.36220865,9.85819591 2.40892977,9.90566382 L6.71873382,14.2843556 C6.9774791,14.5472366 7.09561023,14.9270337 7.03437559,15.2991585 L6.01696887,21.4819705 C6.00553063,21.551481 5.99866383,21.6136812 5.99552135,21.6680763 C6.04651651,21.6475582 6.10400651,21.6203734 6.16718666,21.5857529 Z M7.1785105,23.61156 C5.19872574,24.6964138 3.48739605,23.3978923 3.86658254,21.0935643 L4.78613018,15.505445 L0.889826982,11.5468634 C-0.717371403,9.91397566 -0.0591023422,7.80913643 2.15448848,7.47387937 L7.54369938,6.65766211 L9.95280189,1.56984239 C10.9443976,-0.524323473 13.0567087,-0.522237859 14.0473168,1.56984239 L16.4564193,6.65766211 L21.8456302,7.47387937 C24.0614355,7.80947182 24.715879,9.9156125 23.1102917,11.5468634 L19.2139885,15.505445 L20.1335362,21.0935643 C20.5131023,23.4001994 18.7994224,24.695334 16.8216082,23.61156 L12.0000594,20.9695175 L7.1785105,23.61156 Z" id="Combined-Shape" fill="#717171"></path>
    </g>
</svg>