<?xml version="1.0" encoding="UTF-8"?>
<svg width="24px" height="24px" viewBox="0 0 24 24" version="1.1" xmlns="http://www.w3.org/2000/svg" xmlns:xlink="http://www.w3.org/1999/xlink">
    <!-- Generator: Sketch 62 (91390) - https://sketch.com -->
    <title>sui-final/icons/24px/section/section-social</title>
    <desc>Created with Sketch.</desc>
    <g id="sui-final/icons/24px/section/section-social" stroke="none" stroke-width="1" fill="none" fill-rule="evenodd">
        <path d="M21.8172309,1 C23.0220306,1 24,1.92344094 24,3.05739091 L24,12.8269979 C24,13.9625545 23.022375,14.8843888 21.8193201,14.8843888 L20.7272727,14.8843888 L20.7272727,18.4840452 C20.7272727,19.400317 19.5522088,19.8591876 18.8649744,19.2112856 L17.542,17.965 L17.4544875,17.9698086 L9.72459661,17.9698086 L5.13502558,22.2967053 C4.44779119,22.9446073 3.27272727,22.4857367 3.27272727,21.5694649 L3.27272727,21.5694649 L3.27272727,17.9698086 L2.18067988,17.9698086 C0.978394264,17.9698086 0,17.0501549 0,15.9156588 L0,15.9156588 L0,7.16804277 C0,6.0366307 0.979109102,5.11389298 2.18276908,5.11389298 L2.18276908,5.11389298 L4.363,5.113 L4.36363636,3.05739091 C4.36363636,1.92033978 5.33793443,1 6.54640545,1 L21.8172309,1 Z M2.18181818,7.16804277 L2.18181818,15.9128621 L4.36363636,15.9128621 C4.96612882,15.9128621 5.45454545,16.3733252 5.45454545,16.9413353 L5.45454545,16.9413353 L5.45454545,19.0865109 L8.50133806,16.2140949 C8.7059232,16.0212188 8.98340019,15.9128621 9.27272727,15.9128621 L9.27272727,15.9128621 L15.365,15.912 L14.2754034,14.8843888 L6.54551246,14.8843888 C5.34100483,14.8843888 4.36363636,13.9607599 4.36363636,12.8269979 L4.363,7.17 L2.18181818,7.16804277 Z M6.54640545,3.05694649 L6.54545455,12.8269979 L14.7272727,12.8274423 C15.0165998,12.8274423 15.2940768,12.935799 15.4986619,13.1286752 L18.5454545,16.0010911 L18.5454545,13.8559156 C18.5454545,13.2879055 19.0338712,12.8274423 19.6363636,12.8274423 L21.8193201,12.8274423 L21.8181818,3.05739091 L6.54640545,3.05694649 Z" id="icon-social" fill="#717171"></path>
    </g>
</svg>