<?xml version="1.0" encoding="UTF-8"?>
<svg width="24px" height="24px" viewBox="0 0 24 24" version="1.1" xmlns="http://www.w3.org/2000/svg" xmlns:xlink="http://www.w3.org/1999/xlink">
    <title>sui-final/icons/24px/section/section-room-types</title>
    <g id="sui-final/icons/24px/section/section-room-types" stroke="none" stroke-width="1" fill="none" fill-rule="evenodd">
        <path d="M23.1,20 C23.1,20.6075132 22.6075132,21.1 22,21.1 C21.4329877,21.1 20.9661761,20.6709893 20.9064547,20.1198571 L20.9,20 L20.9,17.1 L3.1,17.1 L3.1,20 C3.1,20.6075132 2.60751322,21.1 2,21.1 C1.43298766,21.1 0.966176132,20.6709893 0.90645465,20.1198571 L0.9,20 L0.9,5 C0.9,4.39248678 1.39248678,3.9 2,3.9 C2.56701234,3.9 3.03382387,4.3290107 3.09354535,4.88014288 L3.1,5 L3.1,14.9 L10.9,14.9 L10.9,6.9 L20,6.9 C21.7120827,6.9 23.1,8.28791728 23.1,10 L23.1,10 L23.1,20 Z M20,9.1 L13.1,9.1 L13.1,14.9 L20.9,14.9 L20.9,10 L20.8929877,9.88710591 C20.8420798,9.48031744 20.5196826,9.15792023 20.1128941,9.10701228 L20.1128941,9.10701228 L20,9.1 Z M7,8 C8.65685425,8 10,9.34314575 10,11 C10,12.6568542 8.65685425,14 7,14 C5.34314575,14 4,12.6568542 4,11 C4,9.34314575 5.34314575,8 7,8 Z M7,10.2 C6.5581722,10.2 6.2,10.5581722 6.2,11 C6.2,11.4418278 6.5581722,11.8 7,11.8 C7.4418278,11.8 7.8,11.4418278 7.8,11 C7.8,10.5581722 7.4418278,10.2 7,10.2 Z" id="roomType" fill="#333333"></path>
    </g>
</svg>