<?xml version="1.0" encoding="UTF-8"?>
<svg width="24px" height="24px" viewBox="0 0 24 24" version="1.1" xmlns="http://www.w3.org/2000/svg" xmlns:xlink="http://www.w3.org/1999/xlink">
    <title>sui-final/icons/24px/section/section-channels</title>
    <g id="sui-final/icons/24px/section/section-channels" stroke="none" stroke-width="1" fill="none" fill-rule="evenodd">
        <path d="M18.8406524,5.56893731 L19.944793,4.7514371 L16.0602258,4.7514371 C14.5947302,4.7514371 13.8720201,6.16912733 12.8582183,8.49745068 C12.2760351,9.83235608 11.6537014,11.2603944 10.6800502,12.1710275 C11.7340025,13.1758284 12.4065245,14.6959649 12.97867,16.021557 C13.8920954,18.1315353 14.5345044,19.4147002 15.6787955,19.4147002 L20.0752823,19.4147002 L18.7603513,18.4326652 C18.3086575,18.0911777 18.2082811,17.4485605 18.5284818,16.9828958 C18.8607277,16.5172311 19.4830615,16.4137501 19.9347553,16.7562723 L23.5884567,19.4871369 C23.8494354,19.6837509 24,19.994194 24,20.3263681 C24,20.3460295 24,20.3563776 23.9899624,20.3781087 C23.9799247,20.687517 23.8393977,20.9772639 23.5784191,21.1635297 L23.1668758,21.4636248 L20.0150565,23.8022962 C19.8444166,23.9368216 19.6336261,23.999945 19.4328733,23.999945 C19.1217064,23.999945 18.8105395,23.8540367 18.6198243,23.5746379 C18.2885822,23.1089733 18.3989962,22.4570427 18.8406524,22.1259034 L19.7028858,21.484321 L15.6787955,21.484321 C13.1593476,21.484321 12.0853199,19.0328552 11.1417817,16.8690667 C10.1279799,14.5303952 9.40526976,13.1230531 7.93977415,13.1230531 L1.00376412,13.1230531 C0.451693852,13.1230531 0,12.6584232 0,12.0882427 C0,11.5087489 0.451693852,11.0534323 1.00376412,11.0534323 L8.32120452,11.0534323 C9.46549561,11.0534323 10.1079046,9.77130226 11.0313676,7.66028909 C11.9949812,5.44476006 13.1894605,2.68181634 16.0602258,2.68181634 L19.8444166,2.68181634 L18.7603513,1.87569906 C18.3086575,1.53421163 18.2082811,0.891594384 18.5284818,0.425929713 C18.8607277,-0.0293868547 19.4830615,-0.143215997 19.9347553,0.199306239 L23.3475533,2.75425307 L23.5884567,2.93017083 C23.8393977,3.12678481 23.9899624,3.42791463 24,3.74767104 L24,3.76940205 C24,3.82114257 24,3.87184828 23.9799247,3.9235888 C23.9498118,4.1926395 23.8092848,4.44099399 23.5784191,4.60656365 L20.0150565,7.24533012 C19.8444166,7.37985547 19.6336261,7.44297891 19.4328733,7.44297891 C19.1217064,7.44297891 18.8105395,7.29707064 18.6198243,7.01767184 C18.2885822,6.55200717 18.3989962,5.90007663 18.8406524,5.56893731" id="Fill-1" fill="#333333"></path>
    </g>
</svg>