<?xml version="1.0" encoding="UTF-8"?>
<svg width="24px" height="24px" viewBox="0 0 24 24" version="1.1" xmlns="http://www.w3.org/2000/svg" xmlns:xlink="http://www.w3.org/1999/xlink">
    <!-- Generator: Sketch 62 (91390) - https://sketch.com -->
    <title>sui-final/icons/24px/section/section-featuresAmenities</title>
    <desc>Created with Sketch.</desc>
    <g id="sui-final/icons/24px/section/section-featuresAmenities" stroke="none" stroke-width="1" fill="none" fill-rule="evenodd">
        <path d="M21.2672432,-1.24344979e-14 C22.7732999,-1.24344979e-14 23.9978132,1.22294661 23.9978132,2.72511012 L23.9986147,16.3151813 C24.0130175,16.6004542 23.9157192,16.8960676 23.6783224,17.1334643 L17.1334643,23.6783224 C16.8963455,23.9154412 16.6011464,24.0127894 16.3161835,23.9986648 L2.72511012,23.9978132 C1.21876434,23.9978132 2.13162821e-14,22.7760299 2.13162821e-14,21.2672432 L2.13162821e-14,2.73057001 C2.13162821e-14,1.22202161 1.2209696,-1.24344979e-14 2.73057001,-1.24344979e-14 L21.2672432,-1.24344979e-14 Z M21.2672432,2.18161938 L2.73057001,2.18161938 C2.42626553,2.18161938 2.18161938,2.42647632 2.18161938,2.73057001 L2.18161938,21.2672432 C2.18161938,21.5723614 2.42484934,21.8161938 2.72511012,21.8161938 L15.271,21.816 L15.2713357,19.090362 C15.2713357,16.9795344 16.9770411,15.2713357 19.090362,15.2713357 L21.816,15.271 L21.8161938,2.72511012 C21.8161938,2.42844742 21.5690496,2.18161938 21.2672432,2.18161938 Z M20.273556,17.4529551 L19.090362,17.4529551 C18.1826301,17.4529551 17.4529551,18.1836967 17.4529551,19.090362 L17.4529551,20.273556 L20.273556,17.4529551 Z M16.9991306,11.4535018 C17.7855403,11.4535018 18.3135533,12.2604119 17.9986972,12.9810407 C16.9653446,15.3461325 14.625101,16.9075502 11.9989066,16.9075502 C9.37271223,16.9075502 7.03246864,15.3461325 5.99911604,12.9810407 C5.68425993,12.2604119 6.21227292,11.4535018 6.99868263,11.4535018 L16.9991306,11.4535018 Z M14.8859715,13.6351211 L9.11184172,13.6351211 C9.89025182,14.3216211 10.9074617,14.7259308 11.9989066,14.7259308 C13.0903515,14.7259308 14.1075614,14.3216211 14.8859715,13.6351211 Z M8.18107268,5.45404845 C9.08472902,5.45404845 9.81728722,6.18660665 9.81728722,7.09026299 C9.81728722,7.99391932 9.08472902,8.72647753 8.18107268,8.72647753 C7.27741634,8.72647753 6.54485814,7.99391932 6.54485814,7.09026299 C6.54485814,6.18660665 7.27741634,5.45404845 8.18107268,5.45404845 Z M15.8167405,5.45404845 C16.7203969,5.45404845 17.4529551,6.18660665 17.4529551,7.09026299 C17.4529551,7.99391932 16.7203969,8.72647753 15.8167405,8.72647753 C14.9130842,8.72647753 14.180526,7.99391932 14.180526,7.09026299 C14.180526,6.18660665 14.9130842,5.45404845 15.8167405,5.45404845 Z" id="icon-featuresAmenities" fill="#717171"></path>
    </g>
</svg>