<?xml version="1.0" encoding="UTF-8"?>
<svg width="24px" height="24px" viewBox="0 0 24 24" version="1.1" xmlns="http://www.w3.org/2000/svg" xmlns:xlink="http://www.w3.org/1999/xlink">
    <!-- Generator: Sketch 62 (91390) - https://sketch.com -->
    <title>sui-final/icons/24px/section/section-insights</title>
    <desc>Created with Sketch.</desc>
    <g id="sui-final/icons/24px/section/section-insights" stroke="none" stroke-width="1" fill="none" fill-rule="evenodd">
        <path d="M21.2691812,0 C22.777867,0 24,1.22108086 24,2.73081884 L24,21.2691812 C24,22.777867 22.7789191,24 21.2691812,24 L2.73081884,24 C1.22213297,24 0,22.7789191 0,21.2691812 L0,2.73081884 C0,1.22213297 1.22108086,0 2.73081884,0 L21.2691812,0 Z M21.2691812,2.18181818 L2.73081884,2.18181818 C2.42648662,2.18181818 2.18181818,2.42669743 2.18181818,2.73081884 L2.18181818,21.2691812 C2.18181818,21.5735134 2.42669743,21.8181818 2.73081884,21.8181818 L21.2691812,21.8181818 C21.5735134,21.8181818 21.8181818,21.5733026 21.8181818,21.2691812 L21.8181818,2.73081884 C21.8181818,2.42648662 21.5733026,2.18181818 21.2691812,2.18181818 Z M20.443571,7.99344786 C20.8488513,8.43925617 20.8159968,9.1291998 20.3701885,9.53448008 L14.3701885,14.9890255 C13.9830044,15.3410111 13.4004295,15.368504 12.9818182,15.0545455 L9.37509417,12.3495024 L5.13502558,16.589571 C4.70899908,17.0155975 4.01827365,17.0155975 3.59224715,16.589571 C3.16622065,16.1635445 3.16622065,15.4728191 3.59224715,15.0467926 L8.50133806,10.1377017 C8.88522019,9.75381956 9.49295967,9.71062884 9.92727273,10.0363636 L13.5696497,12.7681464 L18.9025388,7.92006537 C19.3483471,7.51478509 20.0382907,7.54763955 20.443571,7.99344786 Z" id="icon-insights" fill="#717171"></path>
    </g>
</svg>