<?xml version="1.0" encoding="UTF-8"?>
<svg width="24px" height="24px" viewBox="0 0 24 24" version="1.1" xmlns="http://www.w3.org/2000/svg" xmlns:xlink="http://www.w3.org/1999/xlink">
    <!-- Generator: Sketch 62 (91390) - https://sketch.com -->
    <title>sui-final/icons/24px/section/section-distribution</title>
    <desc>Created with Sketch.</desc>
    <g id="sui-final/icons/24px/section/section-distribution" stroke="none" stroke-width="1" fill="none" fill-rule="evenodd">
        <path d="M20.4545455,16.9090909 C22.4126459,16.9090909 24,18.496445 24,20.4545455 C24,22.4126459 22.4126459,24 20.4545455,24 C18.496445,24 16.9090909,22.4126459 16.9090909,20.4545455 C16.9090909,18.496445 18.496445,16.9090909 20.4545455,16.9090909 Z M3.54545455,16.9090909 C5.50355502,16.9090909 7.09090909,18.496445 7.09090909,20.4545455 C7.09090909,22.4126459 5.50355502,24 3.54545455,24 C1.58735407,24 0,22.4126459 0,20.4545455 C0,18.496445 1.58735407,16.9090909 3.54545455,16.9090909 Z M8.5566905,21.1977388 C9.64752994,21.6063156 10.8083583,21.8181818 12,21.8181818 C13.1894936,21.8181818 14.3482903,21.6070794 15.4374356,21.1999367 C16.0017858,20.9889722 16.6303026,21.2754479 16.8412671,21.8397981 C17.0522316,22.4041482 16.7657559,23.032665 16.2014058,23.2436295 C14.868823,23.7417736 13.4513504,24 12,24 C10.5460247,24 9.12606043,23.7408381 7.79140439,23.2409392 C7.22719018,23.0296113 6.94111933,22.4009101 7.15244726,21.8366959 C7.36377519,21.2724817 7.9924763,20.9864109 8.5566905,21.1977388 Z M20.4545455,19.0909091 C19.7014299,19.0909091 19.0909091,19.7014299 19.0909091,20.4545455 C19.0909091,21.207661 19.7014299,21.8181818 20.4545455,21.8181818 C21.207661,21.8181818 21.8181818,21.207661 21.8181818,20.4545455 C21.8181818,19.7014299 21.207661,19.0909091 20.4545455,19.0909091 Z M3.54545455,19.0909091 C2.79233898,19.0909091 2.18181818,19.7014299 2.18181818,20.4545455 C2.18181818,21.207661 2.79233898,21.8181818 3.54545455,21.8181818 C4.29857011,21.8181818 4.90909091,21.207661 4.90909091,20.4545455 C4.90909091,19.7014299 4.29857011,19.0909091 3.54545455,19.0909091 Z M2.18480057,7.10916716 C2.74807098,7.32299792 3.03134779,7.9529629 2.81751702,8.51623331 C2.39898815,9.61871702 2.18181818,10.7935472 2.18181818,12 C2.18181818,13.1854102 2.39147258,14.3403442 2.79589547,15.4262655 C3.00616891,15.9908736 2.71892396,16.6190391 2.15431592,16.8293126 C1.58970788,17.039586 0.961542331,16.7523411 0.751268891,16.187733 C0.256452927,14.859096 0,13.4463606 0,12 C0,10.5279257 0.265657799,9.09078963 0.777734408,7.74188361 C0.991565173,7.1786132 1.62153015,6.89533639 2.18480057,7.10916716 Z M23.2364298,7.77938468 C23.73927,9.11750432 24,10.5416348 24,12 C24,13.4442907 23.744281,14.8550606 23.2508426,16.182059 C23.040856,16.7467738 22.4128364,17.0343377 21.8481216,16.8243511 C21.2834069,16.6143644 20.9958429,15.9863449 21.2058295,15.4216301 C21.6091266,14.3370476 21.8181818,13.1837163 21.8181818,12 C21.8181818,10.8047659 21.6050352,9.64054037 21.1940548,8.54687079 C20.9821194,7.9828845 21.267513,7.35387567 21.8314992,7.14194023 C22.3954855,6.9300048 23.0244944,7.2153984 23.2364298,7.77938468 Z M14.1818182,8.72727273 C14.7843106,8.72727273 15.2727273,9.21568936 15.2727273,9.81818182 L15.2727273,14.1818182 C15.2727273,14.7843106 14.7843106,15.2727273 14.1818182,15.2727273 L9.81818182,15.2727273 C9.21568936,15.2727273 8.72727273,14.7843106 8.72727273,14.1818182 L8.72727273,9.81818182 C8.72727273,9.21568936 9.21568936,8.72727273 9.81818182,8.72727273 L14.1818182,8.72727273 Z M13.0909091,10.9090909 L10.9090909,10.9090909 L10.9090909,13.0909091 L13.0909091,13.0909091 L13.0909091,10.9090909 Z M3.54545455,0 C5.50355502,0 7.09090909,1.58735407 7.09090909,3.54545455 C7.09090909,5.50355502 5.50355502,7.09090909 3.54545455,7.09090909 C1.58735407,7.09090909 0,5.50355502 0,3.54545455 C0,1.58735407 1.58735407,0 3.54545455,0 Z M20.4545455,0 C22.4126459,0 24,1.58735407 24,3.54545455 C24,5.50355502 22.4126459,7.09090909 20.4545455,7.09090909 C18.496445,7.09090909 16.9090909,5.50355502 16.9090909,3.54545455 C16.9090909,1.58735407 18.496445,0 20.4545455,0 Z M3.54545455,2.18181818 C2.79233898,2.18181818 2.18181818,2.79233898 2.18181818,3.54545455 C2.18181818,4.29857011 2.79233898,4.90909091 3.54545455,4.90909091 C4.29857011,4.90909091 4.90909091,4.29857011 4.90909091,3.54545455 C4.90909091,2.79233898 4.29857011,2.18181818 3.54545455,2.18181818 Z M20.4545455,2.18181818 C19.7014299,2.18181818 19.0909091,2.79233898 19.0909091,3.54545455 C19.0909091,4.29857011 19.7014299,4.90909091 20.4545455,4.90909091 C21.207661,4.90909091 21.8181818,4.29857011 21.8181818,3.54545455 C21.8181818,2.79233898 21.207661,2.18181818 20.4545455,2.18181818 Z M12,0 C13.4402724,0 14.8472263,0.254297313 16.1710409,0.745066525 C16.7359624,0.954496244 17.0241455,1.58223197 16.8147157,2.14715351 C16.605286,2.71207506 15.9775503,3.00025812 15.4126288,2.7908284 C14.3306477,2.38971255 13.1804279,2.18181818 12,2.18181818 C10.80655,2.18181818 9.64401161,2.39432838 8.55174713,2.80411426 C7.98764758,3.01574802 7.35879147,2.73001803 7.14715772,2.16591847 C6.93552396,1.60181892 7.22125395,0.972962815 7.78535351,0.761329059 C9.12175356,0.259950608 10.543815,0 12,0 Z" id="icon-distribution" fill="#717171"></path>
    </g>
</svg>