<svg width="24" height="24" viewBox="0 0 24 24" fill="none" xmlns="http://www.w3.org/2000/svg">
<path fill-rule="evenodd" clip-rule="evenodd" d="M0.351472 0.351472C0.820101 -0.117157 1.5799 -0.117157 2.04853 0.351472L23.6485 21.9515C24.1172 22.4201 24.1172 23.1799 23.6485 23.6485C23.1799 24.1172 22.4201 24.1172 21.9515 23.6485L0.351472 2.04853C-0.117157 1.5799 -0.117157 0.820101 0.351472 0.351472Z" fill="#333333"/>
<path d="M3.20844 3.6H2.73082C1.21828 3.6 2.98025e-08 4.81292 2.98025e-08 6.3179V18.8215C2.98025e-08 20.3166 1.2271 21.5394 2.73082 21.5394H21.1479L18.966 19.3575H2.73074C2.43031 19.3575 2.18174 19.1098 2.18174 18.8215V11.4443H11.0527L7.6761 8.06765H2.18174V6.31784C2.18174 6.02001 2.42104 5.78176 2.73074 5.78176H5.39021L3.20844 3.6Z" fill="#333333"/>
<path d="M12.7673 8.06765H21.8181V6.31784C21.8181 6.02947 21.5696 5.78176 21.2691 5.78176H10.4814L8.29961 3.6H21.2692C22.7729 3.6 24 4.82284 24 6.3179V18.8215C24 18.9725 23.9878 19.1205 23.9642 19.2646L21.8181 17.1185V11.4443H16.1439L12.7673 8.06765Z" fill="#333333"/>
<path d="M6.00008 17.6001H4.90917C4.30668 17.6001 3.81826 17.1116 3.81826 16.5091C3.81826 15.9067 4.30668 15.4182 4.90917 15.4182H6.00008C6.60258 15.4182 7.09099 15.9067 7.09099 16.5091C7.09099 17.1116 6.60258 17.6001 6.00008 17.6001Z" fill="#333333"/>
<path d="M9.8183 17.6001H13.091C13.6935 17.6001 14.1819 17.1116 14.1819 16.5091C14.1819 15.9067 13.6935 15.4182 13.091 15.4182H9.8183C9.21581 15.4182 8.72739 15.9067 8.72739 16.5091C8.72739 17.1116 9.21581 17.6001 9.8183 17.6001Z" fill="#333333"/>
</svg>
