<?xml version="1.0" encoding="UTF-8"?>
<svg width="24px" height="24px" viewBox="0 0 24 24" version="1.1" xmlns="http://www.w3.org/2000/svg" xmlns:xlink="http://www.w3.org/1999/xlink">
    <!-- Generator: Sketch 62 (91390) - https://sketch.com -->
    <title>sui-final/icons/24px/section/section-home</title>
    <desc>Created with Sketch.</desc>
    <g id="sui-final/icons/24px/section/section-home" stroke="none" stroke-width="1" fill="none" fill-rule="evenodd">
        <path d="M9.81818182,16.3636364 L9.81818182,22.9090909 C9.81818182,23.5115834 9.32976518,24 8.72727273,24 L2.72411022,24 C1.21724823,24 0,22.7804806 0,21.2689918 L0,11.9962783 C0,10.7754439 0.698901695,9.26508941 1.63047994,8.4732479 L11.2934745,0.259702562 C11.700851,-0.0865675208 12.299149,-0.0865675208 12.7065255,0.259702562 L22.3695201,8.4732479 C23.3027786,9.26651762 24,10.7736297 24,11.9962783 L24,21.2689918 C24,22.7810655 22.780416,24 21.2719708,24 L15.2727273,24 C14.6702348,24 14.1818182,23.5115834 14.1818182,22.9090909 L14.1818182,16.3636364 L9.81818182,16.3636364 Z M16.3636364,21.8181818 L21.2719708,21.8181818 C21.5756912,21.8181818 21.8181818,21.5758203 21.8181818,21.2689918 L21.8181818,11.9962783 C21.8181818,11.4138253 21.4021179,10.5144625 20.956469,10.135661 L12,2.52266234 L3.04353104,10.135661 C2.5995027,10.513085 2.18181818,11.415718 2.18181818,11.9962783 L2.18181818,21.2689918 C2.18181818,21.5764052 2.42314453,21.8181818 2.72411022,21.8181818 L7.63636364,21.8181818 L7.63636364,15.2727273 C7.63636364,14.6702348 8.12478027,14.1818182 8.72727273,14.1818182 L15.2727273,14.1818182 C15.8752197,14.1818182 16.3636364,14.6702348 16.3636364,15.2727273 L16.3636364,21.8181818 Z" id="icon-home" fill="#717171"></path>
    </g>
</svg>