<svg width="24" height="24" viewBox="0 0 24 24" fill="none" xmlns="http://www.w3.org/2000/svg">
<path d="M18.17 1H5.85004C5.09682 1 4.37446 1.29921 3.84186 1.83182C3.30925 2.36442 3.01004 3.08679 3.01004 3.84V20.08C3.00833 20.4625 3.08259 20.8416 3.2285 21.1952C3.37441 21.5488 3.58907 21.87 3.86004 22.14C4.12704 22.4129 4.44598 22.6296 4.79806 22.7773C5.15014 22.925 5.52823 23.0007 5.91004 23H19.01C19.2753 23 19.5296 22.8946 19.7171 22.7071C19.9047 22.5196 20.01 22.2652 20.01 22C20.01 21.7348 19.9047 21.4804 19.7171 21.2929C19.5296 21.1054 19.2753 21 19.01 21H5.91004C5.79054 21.0014 5.67203 20.9781 5.56192 20.9316C5.45181 20.8852 5.35245 20.8165 5.27004 20.73C5.10262 20.5591 5.00922 20.3292 5.01004 20.09V20H18.17C18.9233 20 19.6456 19.7008 20.1782 19.1682C20.7108 18.6356 21.01 17.9132 21.01 17.16V3.84C21.01 3.08679 20.7108 2.36442 20.1782 1.83182C19.6456 1.29921 18.9233 1 18.17 1ZM19.01 17.16C19.0074 17.382 18.9181 17.5941 18.7611 17.7511C18.6042 17.9081 18.392 17.9974 18.17 18H5.01004V3.84C5.01263 3.61802 5.10197 3.40587 5.25894 3.2489C5.41591 3.09193 5.62806 3.0026 5.85004 3H18.17C18.392 3.0026 18.6042 3.09193 18.7611 3.2489C18.9181 3.40587 19.0074 3.61802 19.01 3.84V17.16ZM16.9 6C16.8156 5.83695 16.6878 5.70031 16.5308 5.60506C16.3739 5.50981 16.1937 5.45962 16.01 5.46H8.01004C7.74482 5.46 7.49047 5.56536 7.30293 5.75289C7.1154 5.94043 7.01004 6.19478 7.01004 6.46V15.46C7.01004 15.7252 7.1154 15.9796 7.30293 16.1671C7.49047 16.3546 7.74482 16.46 8.01004 16.46C8.27525 16.46 8.52961 16.3546 8.71714 16.1671C8.90468 15.9796 9.01004 15.7252 9.01004 15.46V12.46H16.01C16.1933 12.4592 16.3727 12.408 16.5288 12.3121C16.685 12.2162 16.8117 12.0793 16.8953 11.9162C16.9789 11.7532 17.0161 11.5703 17.0028 11.3876C16.9895 11.2048 16.9263 11.0293 16.82 10.88L15.46 9L16.82 7C16.9203 6.85513 16.9805 6.68636 16.9945 6.51076C17.0086 6.33516 16.976 6.15896 16.9 6ZM13.42 9.54L14.07 10.46H9.01004V7.46H14.07L13.42 8.38C13.2995 8.54936 13.2347 8.7521 13.2347 8.96C13.2347 9.1679 13.2995 9.37064 13.42 9.54Z" fill="#333333"/>
</svg>
