<?xml version="1.0" encoding="UTF-8"?>
<svg width="24px" height="24px" viewBox="0 0 24 24" version="1.1" xmlns="http://www.w3.org/2000/svg" xmlns:xlink="http://www.w3.org/1999/xlink">
    <!-- Generator: Sketch 62 (91390) - https://sketch.com -->
    <title>sui-final/icons/24px/section/section-marketplace</title>
    <desc>Created with Sketch.</desc>
    <g id="sui-final/icons/24px/section/section-marketplace" stroke="none" stroke-width="1" fill="none" fill-rule="evenodd">
        <path d="M18.5502304,8.8817842e-15 C19.5166409,8.8817842e-15 20.6166204,0.586160547 21.1394001,1.37257578 C21.1624305,1.40563661 21.2037156,1.46555786 21.2606729,1.54925964 C21.3545434,1.68720697 21.4588716,1.84270706 21.5710872,2.01270421 C21.8917655,2.49850495 22.212539,3.00482281 22.513166,3.50798076 C22.6575735,3.74967491 22.7941289,3.98541083 22.9216026,4.21383984 C23.6161055,5.45836859 24,6.37456476 24,7.09090909 C24,8.5447071 23.3680498,9.85090523 22.3638659,10.749787 L22.3636364,21.2727168 C22.3636364,22.7792616 21.142196,24 19.6350772,24 L4.36492278,24 C2.85872182,24 1.63636364,22.7774231 1.63636364,21.2727168 L1.63636364,10.9091014 C1.63636364,10.8581078 1.63986243,10.8079314 1.64663304,10.7587992 C0.6366305,9.86055925 0,8.55008068 0,7.09090909 C0,6.37456476 0.383894527,5.45836859 1.07839741,4.21383984 C1.20587105,3.98541083 1.34242651,3.74967491 1.48683402,3.50798076 C1.787461,3.00482281 2.10823453,2.49850495 2.42891284,2.01270421 C2.54112838,1.84270706 2.64545665,1.68720697 2.73932705,1.54925964 C2.79257803,1.47100463 2.83212997,1.41353589 2.8558727,1.37937031 C3.39537904,0.583492308 4.49278712,8.8817842e-15 5.44976962,8.8817842e-15 L18.5502304,8.8817842e-15 Z M15.5454545,10.4871424 C14.6412045,11.4305451 13.3735735,12 12,12 C10.6264265,12 9.35879548,11.4305451 8.45454545,10.4871424 C7.55029543,11.4305451 6.28266442,12 4.90909091,12 C4.5341317,12 4.168991,11.9579619 3.81812476,11.8783417 L3.81818182,21.2727168 C3.81818182,21.5725256 4.06379412,21.8181818 4.36492278,21.8181818 L8.181,21.818 L8.18181818,17.9972886 C8.18181818,15.8906863 9.89371474,14.1818182 12,14.1818182 C14.1088725,14.1818182 15.8181818,15.888831 15.8181818,17.9972886 L15.818,21.818 L19.6350772,21.8181818 C19.9374918,21.8181818 20.1818182,21.5739958 20.1818182,21.2727168 L20.1818752,11.8783417 C19.831009,11.9579619 19.4658683,12 19.0909091,12 C17.7173356,12 16.4497046,11.4305451 15.5454545,10.4871424 Z M12,16.3636364 C11.0978357,16.3636364 10.3636364,17.0965369 10.3636364,17.9972886 L10.3636364,21.8181818 L13.6363636,21.8181818 L13.6363636,17.9972886 C13.6363636,17.0944731 12.9045437,16.3636364 12,16.3636364 Z M18.5502304,2.18181818 L5.44976962,2.18181818 C5.21646525,2.18181818 4.79366943,2.40732186 4.66137508,2.60431952 L4.65086287,2.61968808 C4.63225548,2.64639949 4.59546953,2.69979079 4.54312757,2.77670996 C4.45483239,2.90646421 4.35617614,3.05351022 4.24979298,3.21467179 C3.94590356,3.6750388 3.64210936,4.154556 3.35980647,4.627045 C3.2260023,4.85099239 3.10014714,5.06825636 2.98363278,5.27704668 C2.48174286,6.17641865 2.18181818,6.89221381 2.18181818,7.09090909 C2.18181818,8.59714023 3.40285977,9.81818182 4.90909091,9.81818182 C6.03377956,9.81818182 7.03054623,9.13125341 7.44195555,8.10488688 C7.80806834,7.19152422 9.10102257,7.19152422 9.46713536,8.10488688 C9.87854468,9.13125341 10.8753113,9.81818182 12,9.81818182 C13.1246887,9.81818182 14.1214553,9.13125341 14.5328646,8.10488688 C14.8989774,7.19152422 16.1919317,7.19152422 16.5580444,8.10488688 C16.9694538,9.13125341 17.9662204,9.81818182 19.0909091,9.81818182 C20.5971402,9.81818182 21.8181818,8.59714023 21.8181818,7.09090909 C21.8181818,6.89221381 21.5182571,6.17641865 21.0163672,5.27704668 C20.8998529,5.06825636 20.7739977,4.85099239 20.6401935,4.627045 C20.3578906,4.154556 20.0540964,3.6750388 19.750207,3.21467179 C19.6438239,3.05351022 19.5451676,2.90646421 19.4568724,2.77670996 C19.4045305,2.69979079 19.3677445,2.64639949 19.3359412,2.600304 C19.2054848,2.40417259 18.788218,2.18181818 18.5502304,2.18181818 Z" id="icon-marketplace" fill="#717171"></path>
    </g>
</svg>