<?xml version="1.0" encoding="UTF-8"?>
<svg width="24px" height="24px" viewBox="0 0 24 24" version="1.1" xmlns="http://www.w3.org/2000/svg" xmlns:xlink="http://www.w3.org/1999/xlink">
    <!-- Generator: Sketch 62 (91390) - https://sketch.com -->
    <title>sui-final/icons/24px/section/section-direct-booking</title>
    <desc>Created with Sketch.</desc>
    <g id="sui-final/icons/24px/section/section-direct-booking" stroke="none" stroke-width="1" fill="none" fill-rule="evenodd">
        <path d="M12,0 C13.647959,0 15.2515268,0.333083761 16.7348668,0.970629297 C17.375797,1.24610368 17.6720575,1.98899635 17.3965831,2.62992653 C17.1211087,3.27085671 16.3782161,3.56711718 15.7372859,3.2916428 C14.5676503,2.78892871 13.3033509,2.52631579 12,2.52631579 C6.76782869,2.52631579 2.52631579,6.76782869 2.52631579,12 C2.52631579,17.2321713 6.76782869,21.4736842 12,21.4736842 C17.2321713,21.4736842 21.4736842,17.2321713 21.4736842,12 C21.4736842,10.7836821 21.2450089,9.60115077 20.8053897,8.497139 C20.5473042,7.84901129 20.8634959,7.11438037 21.5116236,6.85629491 C22.1597513,6.59820945 22.8943822,6.91440117 23.1524677,7.56252887 C23.7100145,8.96269121 24,10.4622709 24,12 C24,18.627417 18.627417,24 12,24 C5.372583,24 0,18.627417 0,12 C0,5.372583 5.372583,0 12,0 Z M22.3668717,1.63312828 C22.8601656,2.12642212 22.8601656,2.92620946 22.3668717,3.4195033 L15.6804211,10.1051579 L18.9473684,10.1052632 C19.6449913,10.1052632 20.2105263,10.6707982 20.2105263,11.3684211 C20.2105263,12.0660439 19.6449913,12.6315789 18.9473684,12.6315789 L12.6315789,12.6315789 L12.5339245,12.6278217 C12.5542573,12.6293888 12.5746209,12.6304657 12.5949959,12.6310524 L12.572,12.63 L12.5517342,12.6290963 C12.5253309,12.6274494 12.4991474,12.6249914 12.4732083,12.6217468 L12.4050069,12.6112089 L12.4050069,12.6112089 C12.3853874,12.6077543 12.3664004,12.6038496 12.3475739,12.5995242 C12.3257654,12.5944074 12.3037034,12.5887162 12.2817784,12.5824202 C12.257854,12.5756333 12.2344284,12.5681335 12.2113111,12.5599799 L12.1716149,12.545199 L12.1716149,12.545199 C12.1482853,12.5360896 12.1255219,12.5263905 12.1031128,12.5160543 C12.0813666,12.5060979 12.0593463,12.4951832 12.0375938,12.4835869 C12.0261362,12.4773706 12.0150631,12.4712395 12.0040933,12.4649486 C11.9819411,12.452376 11.959965,12.4388781 11.9383299,12.4246461 C11.9171885,12.4106228 11.8960038,12.3957509 11.8753101,12.3802591 L11.8316951,12.3461686 L11.8316951,12.3461686 L11.7383914,12.2616086 C11.69223,12.2154471 11.6503882,12.1666018 11.6128662,12.1155748 L11.5782908,12.0659157 L11.5782908,12.0659157 C11.5657588,12.0472296 11.5539214,12.0283084 11.5426327,12.0091533 C11.5314035,11.9899113 11.5204512,11.9701577 11.5100218,11.9500889 C11.5008249,11.9325318 11.492186,11.9148723 11.4839838,11.8970612 L11.4599783,11.8414594 L11.4599783,11.8414594 C11.4516974,11.8208613 11.4442346,11.8008547 11.437296,11.7807075 C11.4288999,11.7566193 11.4210078,11.7312458 11.4139076,11.7055437 C11.4104657,11.6926699 11.4072739,11.6803524 11.4042708,11.6679985 C11.3980876,11.6430887 11.3926532,11.6173196 11.3880171,11.5912744 C11.3843405,11.5700367 11.3811431,11.5490249 11.3784762,11.5279587 C11.3759387,11.5084407 11.3739167,11.4887051 11.3723543,11.4688403 C11.3703476,11.4430798 11.3690836,11.4170326 11.3686211,11.3909738 L11.3684211,5.05263158 C11.3684211,4.35500874 11.9339561,3.78947368 12.6315789,3.78947368 C13.3292018,3.78947368 13.8947368,4.35500874 13.8947368,5.05263158 L13.8944211,8.31815789 L20.5804967,1.63312828 C21.0737905,1.13983443 21.8735779,1.13983443 22.3668717,1.63312828 Z" id="icon-directBooking" fill="#717171" transform="translate(12.000000, 12.000000) scale(1, -1) translate(-12.000000, -12.000000) "></path>
    </g>
</svg>