<svg width="24" height="24" viewBox="0 0 24 24" fill="none" xmlns="http://www.w3.org/2000/svg">
<path fill-rule="evenodd" clip-rule="evenodd" d="M5 4C4.44772 4 4 4.44772 4 5V21C4 21.5523 4.44772 22 5 22H19C19.5523 22 20 21.5523 20 21V5C20 4.44772 19.5523 4 19 4H17.4C16.8477 4 16.4 3.55228 16.4 3C16.4 2.44772 16.8477 2 17.4 2H19C20.6569 2 22 3.34315 22 5V21C22 22.6569 20.6569 24 19 24H5C3.34315 24 2 22.6569 2 21V5C2 3.34315 3.34315 2 5 2H6.6C7.15228 2 7.6 2.44772 7.6 3C7.6 3.55228 7.15228 4 6.6 4H5Z" fill="#333333"/>
<path fill-rule="evenodd" clip-rule="evenodd" d="M15.4 2H8.6V4H15.4V2ZM8.6 0C7.49543 0 6.6 0.895431 6.6 2V4C6.6 5.10457 7.49543 6 8.6 6H15.4C16.5046 6 17.4 5.10457 17.4 4V2C17.4 0.895431 16.5046 0 15.4 0H8.6Z" fill="#333333"/>
<path fill-rule="evenodd" clip-rule="evenodd" d="M5.7 10C5.7 9.44772 6.14772 9 6.7 9H17.3C17.8523 9 18.3 9.44772 18.3 10C18.3 10.5523 17.8523 11 17.3 11H6.7C6.14772 11 5.7 10.5523 5.7 10Z" fill="#333333"/>
<path fill-rule="evenodd" clip-rule="evenodd" d="M5.7 14C5.7 13.4477 6.14772 13 6.7 13H17.3C17.8523 13 18.3 13.4477 18.3 14C18.3 14.5523 17.8523 15 17.3 15H6.7C6.14772 15 5.7 14.5523 5.7 14Z" fill="#333333"/>
<path fill-rule="evenodd" clip-rule="evenodd" d="M5.7 18C5.7 17.4477 6.14772 17 6.7 17H17.3C17.8523 17 18.3 17.4477 18.3 18C18.3 18.5523 17.8523 19 17.3 19H6.7C6.14772 19 5.7 18.5523 5.7 18Z" fill="#333333"/>
</svg>
