<?xml version="1.0" encoding="UTF-8"?>
<svg width="24px" height="24px" viewBox="0 0 24 24" version="1.1" xmlns="http://www.w3.org/2000/svg" xmlns:xlink="http://www.w3.org/1999/xlink">
    <!-- Generator: Sketch 62 (91390) - https://sketch.com -->
    <title>sui-final/icons/24px/section/section-languages</title>
    <desc>Created with Sketch.</desc>
    <g id="sui-final/icons/24px/section/section-languages" stroke="none" stroke-width="1" fill="none" fill-rule="evenodd">
        <path d="M14.2116,21.9504 C15.3444,20.214 16.1736,18.3552 16.6704,16.4208 L21.1776,16.4208 C19.8372,19.1916 17.2872,21.2676 14.2116,21.9504 L14.2116,21.9504 Z M2.8224,16.4208 L7.3296,16.4208 C7.8264,18.3552 8.6544,20.214 9.7872,21.9504 C6.7116,21.2676 4.1616,19.1916 2.8224,16.4208 L2.8224,16.4208 Z M9.786,2.0484 C8.6808,3.744 7.86,5.5548 7.3596,7.4388 L2.8884,7.4388 C4.2468,4.7376 6.7632,2.7216 9.786,2.0484 L9.786,2.0484 Z M9.2436,7.4388 C9.8124,5.532 10.7376,3.7104 12,2.0304 C13.2612,3.7104 14.1864,5.532 14.7552,7.4388 L9.2436,7.4388 Z M1.8,12 C1.8,11.0424 1.9416,10.1196 2.1888,9.2388 L6.99,9.2388 C6.8472,10.1496 6.7644,11.07 6.7644,12 C6.7644,12.882 6.8424,13.7556 6.9732,14.6208 L2.154,14.6208 C1.9308,13.782 1.8,12.9072 1.8,12 L1.8,12 Z M14.7996,16.4208 C14.2356,18.378 13.2924,20.2452 12,21.966 C10.7064,20.2452 9.7644,18.378 9.1992,16.4208 L14.7996,16.4208 Z M8.7864,14.6208 C8.6424,13.7568 8.5644,12.882 8.5644,12 C8.5644,11.07 8.6448,10.1472 8.8056,9.2388 L15.1944,9.2388 C15.354,10.1472 15.4356,11.07 15.4356,12 C15.4356,12.882 15.3564,13.7568 15.2124,14.6208 L8.7864,14.6208 Z M22.2,12 C22.2,12.9072 22.0692,13.782 21.846,14.6208 L17.028,14.6208 C17.1564,13.7556 17.2356,12.882 17.2356,12 C17.2356,11.07 17.1516,10.1496 17.0088,9.2388 L21.81,9.2388 C22.0572,10.1196 22.2,11.0424 22.2,12 L22.2,12 Z M21.1104,7.4388 L16.6392,7.4388 C16.1388,5.5548 15.3192,3.744 14.2128,2.0484 C17.2368,2.7216 19.752,4.7376 21.1104,7.4388 L21.1104,7.4388 Z M12,0 C5.3724,0 0,5.3724 0,12 C0,18.6264 5.3724,24 12,24 C18.6276,24 24,18.6264 24,12 C24,5.3724 18.6276,0 12,0 L12,0 Z" id="Fill-1" fill="#717171"></path>
    </g>
</svg>