<?xml version="1.0" encoding="UTF-8"?>
<svg width="24px" height="24px" viewBox="0 0 24 24" version="1.1" xmlns="http://www.w3.org/2000/svg" xmlns:xlink="http://www.w3.org/1999/xlink">
    <!-- Generator: Sketch 62 (91390) - https://sketch.com -->
    <title>sui-final/icons/24px/section/section-ratePlans</title>
    <desc>Created with Sketch.</desc>
    <g id="sui-final/icons/24px/section/section-ratePlans" stroke="none" stroke-width="1" fill="none" fill-rule="evenodd">
        <path d="M8.40402639,0 C9.62701518,0 11.201595,0.651519279 12.0627082,1.512671 L23.1875313,12.6379926 C24.2726819,13.7231918 24.2699668,15.4846297 23.1845112,16.5701339 L16.5693915,23.18555 C15.4841508,24.2708394 13.7199269,24.2711193 12.6374263,23.1885702 L1.51260323,12.0632487 C0.647526016,11.1981327 -3.01980663e-14,9.63330331 -3.01980663e-14,8.40440295 L-3.01980663e-14,2.78524309 C-3.01980663e-14,1.24550181 1.24237075,0 2.7851183,0 L8.40402639,0 Z M8.40402639,2.1819159 L2.7851183,2.1819159 C2.44856478,2.1819159 2.18181814,2.4493348 2.18181814,2.78524309 L2.18181814,8.40440295 C2.18181814,9.05488785 2.5996621,10.0646612 3.05538163,10.5204011 L14.1802047,21.6457227 C14.4105427,21.876071 14.7933158,21.8760102 15.0266131,21.6427025 L21.6417328,15.0272864 C21.8761983,14.7928104 21.876784,14.4128816 21.6447529,14.1808401 L10.5199298,3.05551853 C10.0682044,2.60377294 9.04866806,2.1819159 8.40402639,2.1819159 Z M5.99999988,4.3638318 C6.90373855,4.3638318 7.63636349,5.09648957 7.63636349,6.00026873 C7.63636349,6.90404788 6.90373855,7.63670565 5.99999988,7.63670565 C5.09626122,7.63670565 4.36363628,6.90404788 4.36363628,6.00026873 C4.36363628,5.09648957 5.09626122,4.3638318 5.99999988,4.3638318 Z" id="icon-ratePlan" fill="#717171"></path>
    </g>
</svg>