<?xml version="1.0" encoding="UTF-8"?>
<svg width="24px" height="24px" viewBox="0 0 24 24" version="1.1" xmlns="http://www.w3.org/2000/svg" xmlns:xlink="http://www.w3.org/1999/xlink">
    <!-- Generator: Sketch 62 (91390) - https://sketch.com -->
    <title>sui-final/icons/24px/section/section-media</title>
    <desc>Created with Sketch.</desc>
    <g id="sui-final/icons/24px/section/section-media" stroke="none" stroke-width="1" fill="none" fill-rule="evenodd">
        <path d="M21.2727168,-1.77635684e-14 C22.7784042,-1.77635684e-14 24,1.22276711 24,2.72728317 L24,15.8181714 C24,17.3238587 22.7772329,18.5454545 21.2727168,18.5454545 L18.545,18.545 L18.5454545,21.2744347 C18.5454545,21.3582166 18.5416643,21.441117 18.5342464,21.5229745 C18.5181549,21.69802 18.485606,21.8684004 18.4380553,22.0324252 C18.3176662,22.4492625 18.1001706,22.8247609 17.8119027,23.1333487 C17.676469,23.2777506 17.5264418,23.4072308 17.363648,23.5194825 C17.3517706,23.5279672 17.3389182,23.5366709 17.3259883,23.5452673 L17.1939186,23.6275238 C16.8347702,23.8379623 16.4233488,23.9685901 15.9841326,23.9950205 L15.8181714,23.9999973 L2.72728317,24 C2.28115359,24 1.85996483,23.8926514 1.48810352,23.7024324 L1.35096963,23.6273361 C0.542885724,23.1536648 0,22.2759536 0,21.2727273 L0,8.18182863 C0,6.67614129 1.22276711,5.45454545 2.72728317,5.45454545 L5.454,5.454 L5.45454545,2.72728317 C5.45454545,1.22159584 6.67731256,-1.77635684e-14 8.18182863,-1.77635684e-14 L21.2727168,-1.77635684e-14 Z M12.5871216,14.6753546 L8.44722998,19.2752343 C8.08486262,19.6778647 7.48194431,19.7536179 7.03123615,19.4531458 L4.50263769,17.7674135 L2.18181818,20.088233 L2.18181818,21.2727168 C2.18181818,21.4827161 2.30198131,21.6659942 2.47705949,21.7570612 L2.55518994,21.7902767 C2.60932718,21.8083728 2.6671973,21.8181818 2.72728317,21.8181818 L15.8181714,21.8181818 C15.9687755,21.8181818 16.1055308,21.7566133 16.2044397,21.6575045 C16.3026528,21.5583477 16.3636364,21.4223648 16.3636364,21.2727168 L16.3636364,18.4518693 L12.5871216,14.6753546 Z M15.8181714,7.63636364 L2.72728317,7.63636364 C2.42728419,7.63636364 2.18181818,7.88159452 2.18181818,8.18182863 L2.181,17.003 L3.59224715,15.5922471 C3.95995375,15.2245405 4.53608467,15.1674923 4.96876385,15.4559451 L7.45657021,17.1144827 L11.7345882,12.3611294 C12.1527033,11.896557 12.8748892,11.8775653 13.3168438,12.3195199 L16.363,15.366 L16.3636364,8.18182863 C16.3636364,7.88182965 16.1184055,7.63636364 15.8181714,7.63636364 Z M21.2727168,2.18181818 L8.18182863,2.18181818 C7.88182965,2.18181818 7.63636364,2.42704906 7.63636364,2.72728317 L7.636,5.454 L15.8181714,5.45454545 C17.3238587,5.45454545 18.5454545,6.67731256 18.5454545,8.18182863 L18.545,16.363 L21.2727168,16.3636364 C21.5727158,16.3636364 21.8181818,16.1184055 21.8181818,15.8181714 L21.8181818,2.72728317 C21.8181818,2.42728419 21.5729509,2.18181818 21.2727168,2.18181818 Z M6,9.81818182 C6.90373868,9.81818182 7.63636364,10.5508068 7.63636364,11.4545455 C7.63636364,12.3582841 6.90373868,13.0909091 6,13.0909091 C5.09626132,13.0909091 4.36363636,12.3582841 4.36363636,11.4545455 C4.36363636,10.5508068 5.09626132,9.81818182 6,9.81818182 Z" id="icon-media" fill="#717171"></path>
    </g>
</svg>