<svg width="24" height="24" viewBox="0 0 24 24" fill="none" xmlns="http://www.w3.org/2000/svg">
<path d="M17.73 7.63L20.61 3.63C20.7102 3.48513 20.7704 3.31636 20.7845 3.14076C20.7985 2.96516 20.7659 2.78896 20.69 2.63C20.6185 2.45012 20.4964 2.29485 20.3384 2.18302C20.1804 2.07119 19.9934 2.00761 19.8 2H5C4.73478 2 4.48043 2.10536 4.29289 2.29289C4.10536 2.48043 4 2.73478 4 3V21C4 21.2652 4.10536 21.5196 4.29289 21.7071C4.48043 21.8946 4.73478 22 5 22C5.26522 22 5.51957 21.8946 5.70711 21.7071C5.89464 21.5196 6 21.2652 6 21V13.25H19.8C19.9836 13.2504 20.1638 13.2002 20.3208 13.1049C20.4778 13.0097 20.6055 12.873 20.69 12.71C20.7659 12.551 20.7985 12.3748 20.7845 12.1992C20.7704 12.0236 20.7102 11.8549 20.61 11.71L17.73 7.63ZM6 11.25V4H17.86L15.69 7.05C15.5717 7.21839 15.5082 7.41919 15.5082 7.625C15.5082 7.83081 15.5717 8.03161 15.69 8.2L17.86 11.25H6Z" fill="#333333"/>
</svg>
