<?xml version="1.0" encoding="UTF-8"?>
<svg width="24px" height="24px" viewBox="0 0 24 24" version="1.1" xmlns="http://www.w3.org/2000/svg" xmlns:xlink="http://www.w3.org/1999/xlink">
    <!-- Generator: Sketch 62 (91390) - https://sketch.com -->
    <title>sui-final/icons/24px/section/section-payments</title>
    <desc>Created with Sketch.</desc>
    <g id="sui-final/icons/24px/section/section-payments" stroke="none" stroke-width="1" fill="none" fill-rule="evenodd">
        <path d="M21.2691812,3 C22.7728976,3 24,4.22283832 24,5.71789611 L24,18.2214978 C24,19.7264796 22.7817169,20.9393939 21.2691812,20.9393939 L2.73081884,20.9393939 C1.22710237,20.9393939 -2.66453526e-14,19.7165556 -2.66453526e-14,18.2214978 L-2.66453526e-14,5.71789611 C-2.66453526e-14,4.21291437 1.2182831,3 2.73081884,3 L21.2691812,3 Z M21.818,10.844 L2.181,10.844 L2.18181818,18.2214978 C2.18181818,18.5098673 2.43039041,18.7575758 2.73081884,18.7575758 L21.2691812,18.7575758 C21.5788838,18.7575758 21.8181818,18.5193323 21.8181818,18.2214978 L21.818,10.844 Z M6,14.8181818 C6.60249245,14.8181818 7.09090909,15.3065985 7.09090909,15.9090909 C7.09090909,16.5115834 6.60249245,17 6,17 L6,17 L4.90909091,17 C4.30659845,17 3.81818182,16.5115834 3.81818182,15.9090909 C3.81818182,15.3065985 4.30659845,14.8181818 4.90909091,14.8181818 L4.90909091,14.8181818 Z M13.0909091,14.8181818 C13.6934015,14.8181818 14.1818182,15.3065985 14.1818182,15.9090909 C14.1818182,16.5115834 13.6934015,17 13.0909091,17 L13.0909091,17 L9.81818182,17 C9.21568936,17 8.72727273,16.5115834 8.72727273,15.9090909 C8.72727273,15.3065985 9.21568936,14.8181818 9.81818182,14.8181818 L9.81818182,14.8181818 Z M21.2691812,5.18181818 L2.73081884,5.18181818 C2.42111618,5.18181818 2.18181818,5.42006164 2.18181818,5.71789611 L2.181,7.467 L21.818,7.467 L21.8181818,5.71789611 C21.8181818,5.42952664 21.5696096,5.18181818 21.2691812,5.18181818 Z" id="Combined-Shape" fill="#717171"></path>
    </g>
</svg>