<?xml version="1.0" encoding="UTF-8"?>
<svg width="24px" height="24px" viewBox="0 0 24 24" version="1.1" xmlns="http://www.w3.org/2000/svg" xmlns:xlink="http://www.w3.org/1999/xlink">
    <!-- Generator: Sketch 62 (91390) - https://sketch.com -->
    <title>sui-final/icons/24px/section/section-dashboard</title>
    <desc>Created with Sketch.</desc>
    <g id="sui-final/icons/24px/section/section-dashboard" stroke="none" stroke-width="1" fill="none" fill-rule="evenodd">
        <path d="M8.24478731,13 C9.7678899,13 11,14.2290678 11,15.7552127 L11,21.2447873 C11,22.7678899 9.77093222,24 8.24478731,24 L2.75521269,24 C1.2321101,24 0,22.7709322 0,21.2447873 L0,15.7552127 C0,14.2321101 1.22906778,13 2.75521269,13 L8.24478731,13 Z M21.2447873,13 C22.7678899,13 24,14.2290678 24,15.7552127 L24,21.2447873 C24,22.7678899 22.7709322,24 21.2447873,24 L15.7552127,24 C14.2321101,24 13,22.7709322 13,21.2447873 L13,15.7552127 C13,14.2321101 14.2290678,13 15.7552127,13 L21.2447873,13 Z M8.24478731,15.2 L2.75521269,15.2 C2.44531344,15.2 2.2,15.4459207 2.2,15.7552127 L2.2,21.2447873 C2.2,21.5546866 2.44592066,21.8 2.75521269,21.8 L8.24478731,21.8 C8.55468656,21.8 8.8,21.5540793 8.8,21.2447873 L8.8,15.7552127 C8.8,15.4453134 8.55407934,15.2 8.24478731,15.2 Z M21.2447873,15.2 L15.7552127,15.2 C15.4453134,15.2 15.2,15.4459207 15.2,15.7552127 L15.2,21.2447873 C15.2,21.5546866 15.4459207,21.8 15.7552127,21.8 L21.2447873,21.8 C21.5546866,21.8 21.8,21.5540793 21.8,21.2447873 L21.8,15.7552127 C21.8,15.4453134 21.5540793,15.2 21.2447873,15.2 Z M8.24478731,0 C9.7678899,0 11,1.22906778 11,2.75521269 L11,8.24478731 C11,9.7678899 9.77093222,11 8.24478731,11 L2.75521269,11 C1.2321101,11 0,9.77093222 0,8.24478731 L0,2.75521269 C0,1.2321101 1.22906778,0 2.75521269,0 L8.24478731,0 Z M21.2447873,0 C22.7678899,0 24,1.22906778 24,2.75521269 L24,8.24478731 C24,9.7678899 22.7709322,11 21.2447873,11 L15.7552127,11 C14.2321101,11 13,9.77093222 13,8.24478731 L13,2.75521269 C13,1.2321101 14.2290678,0 15.7552127,0 L21.2447873,0 Z M8.24478731,2.2 L2.75521269,2.2 C2.44531344,2.2 2.2,2.44592066 2.2,2.75521269 L2.2,8.24478731 C2.2,8.55468656 2.44592066,8.8 2.75521269,8.8 L8.24478731,8.8 C8.55468656,8.8 8.8,8.55407934 8.8,8.24478731 L8.8,2.75521269 C8.8,2.44531344 8.55407934,2.2 8.24478731,2.2 Z M21.2447873,2.2 L15.7552127,2.2 C15.4453134,2.2 15.2,2.44592066 15.2,2.75521269 L15.2,8.24478731 C15.2,8.55468656 15.4459207,8.8 15.7552127,8.8 L21.2447873,8.8 C21.5546866,8.8 21.8,8.55407934 21.8,8.24478731 L21.8,2.75521269 C21.8,2.44531344 21.5540793,2.2 21.2447873,2.2 Z" id="icon-dashboard" fill="#717171"></path>
    </g>
</svg>