<?xml version="1.0" encoding="UTF-8"?>
<svg width="24px" height="24px" viewBox="0 0 24 24" version="1.1" xmlns="http://www.w3.org/2000/svg" xmlns:xlink="http://www.w3.org/1999/xlink">
    <!-- Generator: Sketch 62 (91390) - https://sketch.com -->
    <title>sui-final/icons/24px/section/section-reservations</title>
    <desc>Created with Sketch.</desc>
    <g id="sui-final/icons/24px/section/section-reservations" stroke="none" stroke-width="1" fill="none" fill-rule="evenodd">
        <path d="M17.9955592,0 C19.5447999,0 20.8,1.22102022 20.8,2.73094305 L20.8,22.256355 C20.8,23.7068127 19.4177097,24.4566874 18.1455793,23.701809 L12.769045,20.5113895 C12.5999039,20.4110216 12.2005655,20.4107431 12.030955,20.5113895 L6.65442068,23.701809 C5.38552098,24.4547703 4,23.7082923 4,22.256355 L4,2.73094305 C4,1.22209592 5.2541945,0 6.80444085,0 L17.9955592,0 Z M17.9955592,2.18191742 L6.80444085,2.18191742 C6.49148569,2.18191742 6.24,2.42696685 6.24,2.73094305 L6.24,21.3928158 L10.8655793,18.6480107 C11.7514593,18.1223322 13.050067,18.1232379 13.9344207,18.6480107 L18.56,21.3928158 L18.56,2.73094305 C18.56,2.42671317 18.3083517,2.18191742 17.9955592,2.18191742 Z M14.9680404,7.95624538 C15.4054276,7.53019951 16.1145724,7.53019951 16.5519596,7.95624538 C16.9893468,8.38229126 16.9893468,9.07304811 16.5519596,9.49909399 L16.5519596,9.49909399 L12.6319596,13.3174495 C12.413266,13.5304724 12.126633,13.6369839 11.84,13.6369839 C11.553367,13.6369839 11.266734,13.5304724 11.0480404,13.3174495 L11.0480404,13.3174495 L8.80804041,11.1355321 C8.3706532,10.7094862 8.3706532,10.0187293 8.80804041,9.59268345 C9.24542761,9.16663757 9.95457239,9.16663757 10.3919596,9.59268345 L10.3919596,9.59268345 L11.84,11.0031766 Z" id="icon-reservations" fill="#717171"></path>
    </g>
</svg>