<?xml version="1.0" encoding="UTF-8"?>
<svg width="24px" height="24px" viewBox="0 0 24 24" version="1.1" xmlns="http://www.w3.org/2000/svg" xmlns:xlink="http://www.w3.org/1999/xlink">
    <!-- Generator: Sketch 62 (91390) - https://sketch.com -->
    <title>sui-final/icons/24px/section/section-settings</title>
    <desc>Created with Sketch.</desc>
    <g id="sui-final/icons/24px/section/section-settings" stroke="none" stroke-width="1" fill="none" fill-rule="evenodd">
        <path d="M3.42857143,0 C4.059754,0 4.57142857,0.511674572 4.57142857,1.14285714 L4.57182964,8.7666626 C5.90326856,9.237446 6.85714286,10.5073284 6.85714286,12 C6.85714286,13.4926716 5.90326856,14.762554 4.57182964,15.2333374 L4.57142857,22.8571429 C4.57142857,23.4883254 4.059754,24 3.42857143,24 C2.79738886,24 2.28571429,23.4883254 2.28571429,22.8571429 L2.28531321,15.2333374 C0.953874297,14.762554 0,13.4926716 0,12 C0,10.5073284 0.953874297,9.237446 2.28531321,8.7666626 L2.28571429,1.14285714 C2.28571429,0.511674572 2.79738886,0 3.42857143,0 Z M12,-1.77635684e-15 C12.6311826,-1.77635684e-15 13.1428571,0.511674572 13.1428571,1.14285714 L13.1432582,15.0523769 C14.4746971,15.5231603 15.4285714,16.7930426 15.4285714,18.2857143 C15.4285714,19.7840215 14.4674809,21.057854 13.1281616,21.5243498 C13.1382084,21.580841 13.1428571,21.6399176 13.1428571,21.7000799 L13.1428571,22.8571429 C13.1428571,23.4883254 12.6311826,24 12,24 C11.3688174,24 10.8571429,23.4883254 10.8571429,22.8571429 L10.8571429,21.7000799 C10.8571429,21.6399176 10.8617916,21.580841 10.8707494,21.5231899 C9.53251914,21.057854 8.57142857,19.7840215 8.57142857,18.2857143 C8.57142857,16.7930426 9.52530287,15.5231603 10.8567418,15.0523769 L10.8571429,1.14285714 C10.8571429,0.511674572 11.3688174,-1.77635684e-15 12,-1.77635684e-15 Z M20.5714286,-8.8817842e-16 C21.2026111,-8.8817842e-16 21.7142857,0.511674572 21.7142857,1.14285714 L21.7146868,2.48094831 C23.0461257,2.95173171 24,4.22161407 24,5.71428571 C24,7.20695735 23.0461257,8.47683972 21.7146868,8.94762312 L21.7142857,22.8571429 C21.7142857,23.4883254 21.2026111,24 20.5714286,24 C19.940246,24 19.4285714,23.4883254 19.4285714,22.8571429 L19.4281704,8.94762312 C18.0967314,8.47683972 17.1428571,7.20695735 17.1428571,5.71428571 C17.1428571,4.22161407 18.0967314,2.95173171 19.4281704,2.48094831 L19.4285714,1.14285714 C19.4285714,0.511674572 19.940246,-8.8817842e-16 20.5714286,-8.8817842e-16 Z M12,17.1428571 C11.3688174,17.1428571 10.8571429,17.6545317 10.8571429,18.2857143 C10.8571429,18.9168969 11.3688174,19.4285714 12,19.4285714 C12.6311826,19.4285714 13.1428571,18.9168969 13.1428571,18.2857143 C13.1428571,17.6545317 12.6311826,17.1428571 12,17.1428571 Z M3.42857143,10.8571429 C2.79738886,10.8571429 2.28571429,11.3688174 2.28571429,12 C2.28571429,12.6311826 2.79738886,13.1428571 3.42857143,13.1428571 C4.059754,13.1428571 4.57142857,12.6311826 4.57142857,12 C4.57142857,11.3688174 4.059754,10.8571429 3.42857143,10.8571429 Z M20.5714286,4.57142857 C19.940246,4.57142857 19.4285714,5.08310314 19.4285714,5.71428571 C19.4285714,6.34546829 19.940246,6.85714286 20.5714286,6.85714286 C21.2026111,6.85714286 21.7142857,6.34546829 21.7142857,5.71428571 C21.7142857,5.08310314 21.2026111,4.57142857 20.5714286,4.57142857 Z" id="icon-section-settings" fill="#717171"></path>
    </g>
</svg>