<?xml version="1.0" encoding="UTF-8"?>
<svg width="24px" height="24px" viewBox="0 0 24 24" version="1.1" xmlns="http://www.w3.org/2000/svg" xmlns:xlink="http://www.w3.org/1999/xlink">
    <!-- Generator: Sketch 62 (91390) - https://sketch.com -->
    <title>sui-final/icons/24px/section/section-policies</title>
    <desc>Created with Sketch.</desc>
    <g id="sui-final/icons/24px/section/section-policies" stroke="none" stroke-width="1" fill="none" fill-rule="evenodd">
        <path d="M13.7274667,2.27026855 L16.7056488,8.45100363 C16.8140319,8.67593516 16.9711404,8.71420408 17.1688915,8.56030392 L21.1985469,5.42421735 C22.7355759,4.22802169 24.3144845,5.24328143 23.9458447,7.2482865 L21.826,17.04 L21.8261363,19.7569481 C21.8261363,21.3276391 20.6088018,22.6 19.0995303,22.6 L4.90585563,22.6 C3.39889579,22.6 2.17924968,21.3287482 2.17924968,19.7569481 L2.179,17.045 L0.0593914915,7.24830351 L0.0520879883,7.21177622 C-0.308864268,5.24539399 1.27028664,4.22851208 2.8066856,5.42421735 L6.83634094,8.56030392 C7.03358288,8.71380781 7.19155619,8.6751971 7.29958363,8.45100363 L10.2777658,2.27026855 C11.0942914,0.575701826 12.9117848,0.577452698 13.7274667,2.27026855 Z M19.6431489,18.0526317 L4.36223707,18.0526317 L4.36223707,19.7569481 C4.36223707,20.0734006 4.60488536,20.3263158 4.90585563,20.3263158 L19.0995303,20.3263158 C19.4014558,20.3263158 19.6431489,20.0736977 19.6431489,19.7569481 L19.6431489,18.0526317 Z M12.0026162,3.75959479 L9.25064642,9.47086278 C8.53231804,10.9616371 6.8143901,11.3815209 5.52967592,10.3816897 L2.45793718,7.99110348 L4.14356676,15.7789475 L19.8618595,15.7789475 L21.547954,7.9905908 L18.4755566,10.3816897 C17.1909633,11.3814267 15.4736255,10.9631128 14.754586,9.47086278 L12.0026162,3.75959479 Z" id="icon-policies" fill="#717171"></path>
    </g>
</svg>