<?xml version="1.0" encoding="UTF-8"?>
<svg width="24px" height="24px" viewBox="0 0 24 24" version="1.1" xmlns="http://www.w3.org/2000/svg" xmlns:xlink="http://www.w3.org/1999/xlink">
    <!-- Generator: Sketch 62 (91390) - https://sketch.com -->
    <title>sui-final/icons/24px/section/section-app-switcher</title>
    <desc>Created with Sketch.</desc>
    <g id="sui-final/icons/24px/section/section-app-switcher" stroke="none" stroke-width="1" fill="none" fill-rule="evenodd">
        <path d="M6.8218,16.3844 C7.2788,16.3844 7.6488,16.7544 7.6488,17.2104 L7.6488,21.2054 C7.6488,21.6624 7.2788,22.0324 6.8218,22.0324 L2.8268,22.0324 C2.3698,22.0324 1.9998,21.6624 1.9998,21.2054 L1.9998,17.2104 C1.9998,16.7544 2.3698,16.3844 2.8268,16.3844 L6.8218,16.3844 Z M13.9976,16.3844 C14.4546,16.3844 14.8246,16.7544 14.8246,17.2104 L14.8246,21.2054 C14.8246,21.6624 14.4546,22.0324 13.9976,22.0324 L10.0026,22.0324 C9.5456,22.0324 9.1756,21.6624 9.1756,21.2054 L9.1756,17.2104 C9.1756,16.7544 9.5456,16.3844 10.0026,16.3844 L13.9976,16.3844 Z M21.1734,16.3844 C21.6294,16.3844 21.9994,16.7544 21.9994,17.2104 L21.9994,21.2054 C21.9994,21.6624 21.6294,22.0324 21.1734,22.0324 L17.1784,22.0324 C16.7214,22.0324 16.3514,21.6624 16.3514,21.2054 L16.3514,17.2104 C16.3514,16.7544 16.7214,16.3844 17.1784,16.3844 L21.1734,16.3844 Z M13.9976,9.192 C14.4546,9.192 14.8246,9.562 14.8246,10.019 L14.8246,14.014 C14.8246,14.471 14.4546,14.841 13.9976,14.841 L10.0026,14.841 C9.5456,14.841 9.1756,14.471 9.1756,14.014 L9.1756,10.019 C9.1756,9.562 9.5456,9.192 10.0026,9.192 L13.9976,9.192 Z M21.1734,9.192 C21.6294,9.192 21.9994,9.562 21.9994,10.019 L21.9994,14.014 C21.9994,14.471 21.6294,14.841 21.1734,14.841 L17.1784,14.841 C16.7214,14.841 16.3514,14.471 16.3514,14.014 L16.3514,10.019 C16.3514,9.562 16.7214,9.192 17.1784,9.192 L21.1734,9.192 Z M6.8218,9.192 C7.2788,9.192 7.6488,9.562 7.6488,10.019 L7.6488,14.014 C7.6488,14.471 7.2788,14.841 6.8218,14.841 L2.8268,14.841 C2.3698,14.841 1.9998,14.471 1.9998,14.014 L1.9998,10.019 C1.9998,9.562 2.3698,9.192 2.8268,9.192 L6.8218,9.192 Z M6.8218,2.0006 C7.2788,2.0006 7.6488,2.3706 7.6488,2.8266 L7.6488,6.8226 C7.6488,7.2786 7.2788,7.6486 6.8218,7.6486 L2.8268,7.6486 C2.3698,7.6486 1.9998,7.2786 1.9998,6.8226 L1.9998,2.8266 C1.9998,2.3706 2.3698,2.0006 2.8268,2.0006 L6.8218,2.0006 Z M21.1734,2.0006 C21.6294,2.0006 21.9994,2.3706 21.9994,2.8266 L21.9994,6.8226 C21.9994,7.2786 21.6294,7.6486 21.1734,7.6486 L17.1784,7.6486 C16.7214,7.6486 16.3514,7.2786 16.3514,6.8226 L16.3514,2.8266 C16.3514,2.3706 16.7214,2.0006 17.1784,2.0006 L21.1734,2.0006 Z M13.9976,2.0006 C14.4546,2.0006 14.8246,2.3706 14.8246,2.8266 L14.8246,6.8226 C14.8246,7.2786 14.4546,7.6486 13.9976,7.6486 L10.0026,7.6486 C9.5456,7.6486 9.1756,7.2786 9.1756,6.8226 L9.1756,2.8266 C9.1756,2.3706 9.5456,2.0006 10.0026,2.0006 L13.9976,2.0006 Z" id="app-switcher" fill="#717171"></path>
    </g>
</svg>