<?xml version="1.0" encoding="UTF-8"?>
<svg width="24px" height="24px" viewBox="0 0 24 24" version="1.1" xmlns="http://www.w3.org/2000/svg" xmlns:xlink="http://www.w3.org/1999/xlink">
    <title>sui-final/icons/24px/section/section-media-fail</title>
    <g id="sui-final/icons/24px/section/section-media-fail" stroke="none" stroke-width="1" fill="none" fill-rule="evenodd">
        <path d="M18.5448,14.2419 L18.5458,8.1819 C18.5458,6.6779 17.3238,5.4549 15.8178,5.4549 L9.7578,5.4539 L11.9398,7.6369 L15.8178,7.6369 C16.1178,7.6369 16.3628,7.8819 16.3628,8.1819 L16.3628,12.0599 L18.5448,14.2419 Z M21.2728,-0.0001 L8.1818,-0.0001 C7.1328,-0.0001 6.2308,0.6009 5.7748,1.4709 L7.6368,3.3329 L7.6368,2.7269 C7.6368,2.4269 7.8818,2.1819 8.1818,2.1819 L21.2728,2.1819 C21.5728,2.1819 21.8178,2.4279 21.8178,2.7269 L21.8178,15.8179 C21.8178,16.1179 21.5718,16.3639 21.2728,16.3639 L20.6668,16.3639 L22.5278,18.2249 C23.3988,17.7689 23.9998,16.8679 23.9998,15.8179 L23.9998,2.7269 C23.9998,1.2219 22.7778,-0.0001 21.2728,-0.0001 L21.2728,-0.0001 Z M16.3628,21.2719 C16.3628,21.4229 16.3028,21.5579 16.2048,21.6569 C16.1058,21.7569 15.9688,21.8179 15.8178,21.8179 L2.7278,21.8179 C2.6668,21.8179 2.6088,21.8079 2.5558,21.7899 L2.4778,21.7569 C2.3018,21.6659 2.1818,21.4829 2.1818,21.2719 L2.1818,20.0889 L4.5028,17.7669 L7.0308,19.4529 C7.4818,19.7539 8.0848,19.6779 8.4468,19.2749 L12.5868,14.6759 L16.3628,18.4519 L16.3628,21.2719 Z M2.1818,8.1819 C2.1818,7.8819 2.4278,7.6369 2.7278,7.6369 L6.2228,7.6369 L11.3608,12.7749 L7.4568,17.1139 L4.9688,15.4559 C4.5358,15.1679 3.9598,15.2239 3.5918,15.5929 L2.1818,17.0029 L2.1818,8.1819 Z M2.7068,1.2929 C2.3158,0.9019 1.6838,0.9019 1.2928,1.2929 C0.9018,1.6829 0.9018,2.3159 1.2928,2.7069 L4.0408,5.4539 L2.7278,5.4549 C1.2228,5.4549 -0.0002,6.6769 -0.0002,8.1819 L-0.0002,21.2719 C-0.0002,22.2759 0.5428,23.1539 1.3518,23.6279 L1.4878,23.7019 C1.8598,23.8919 2.2808,23.9999 2.7278,23.9999 L15.8178,23.9999 L15.9838,23.9949 C16.4238,23.9689 16.8348,23.8379 17.1938,23.6279 L17.3258,23.5459 C17.3388,23.5369 17.3518,23.5279 17.3628,23.5189 C17.5258,23.4069 17.6768,23.2779 17.8128,23.1339 C18.1008,22.8249 18.3168,22.4489 18.4388,22.0319 C18.4848,21.8679 18.5188,21.6979 18.5338,21.5229 C18.5418,21.4409 18.5458,21.3579 18.5458,21.2739 L18.5448,19.9599 L21.2928,22.7069 C21.4878,22.9019 21.7438,22.9999 21.9998,22.9999 C22.2558,22.9999 22.5118,22.9019 22.7068,22.7069 C23.0978,22.3159 23.0978,21.6829 22.7068,21.2929 L2.7068,1.2929 Z M5.9998,13.0909 C6.9038,13.0909 7.6368,12.3579 7.6368,11.4549 C7.6368,10.5509 6.9038,9.8179 5.9998,9.8179 C5.0968,9.8179 4.3628,10.5509 4.3628,11.4549 C4.3628,12.3579 5.0968,13.0909 5.9998,13.0909 L5.9998,13.0909 Z" id="Fill-1" fill="#333333"></path>
    </g>
</svg>