<svg width="24" height="24" viewBox="0 0 24 24" fill="none" xmlns="http://www.w3.org/2000/svg">
<g id="social-mark-as-read">
<path id="icon" fill-rule="evenodd" clip-rule="evenodd" d="M21.054 19.9442C21.054 20.5232 20.583 20.9952 20.003 20.9952H4.057C3.478 20.9952 3.005 20.5232 3.005 19.9442V11.2782L4.094 12.2682C4.886 12.9882 5.912 13.3842 6.984 13.3842H17.075C18.148 13.3842 19.173 12.9882 19.966 12.2682L21.054 11.2782V19.9442ZM3.252 8.47119L11.745 3.08619C11.918 2.97619 12.14 2.97619 12.315 3.08619L20.808 8.47119C20.877 8.51519 20.929 8.57719 20.97 8.64419L18.616 10.7842C18.195 11.1682 17.647 11.3792 17.075 11.3792H6.984C6.412 11.3792 5.866 11.1682 5.444 10.7842L3.091 8.64419C3.132 8.57719 3.184 8.51419 3.252 8.47119ZM23.059 9.00519V8.92019C23.059 8.04619 22.618 7.24519 21.881 6.77819L13.389 1.39219C12.562 0.869189 11.495 0.869189 10.671 1.39219L2.179 6.77819C1.441 7.24619 1 8.04719 1 8.92019V19.9442C1 21.6292 2.372 23.0002 4.057 23.0002H20.003C21.689 23.0002 23.059 21.6292 23.059 19.9442L23.06 9.01119C23.06 9.00819 23.059 9.00619 23.059 9.00519Z" fill="#333333"/>
</g>
</svg>
