<svg width="24" height="24" viewBox="0 0 24 24" fill="none" xmlns="http://www.w3.org/2000/svg">
<path d="M16.37 4.45C16.1826 4.26375 15.9292 4.15921 15.665 4.15921C15.4008 4.15921 15.1474 4.26375 14.96 4.45L10.4 9.29L8.8 7.54C8.62069 7.34556 8.37165 7.23008 8.10739 7.21884C7.84313 7.20759 7.58518 7.3015 7.39 7.48C7.19556 7.65931 7.08008 7.90835 7.06883 8.17261C7.05759 8.43687 7.1515 8.69482 7.33 8.89L9.66 11.43C9.75236 11.5324 9.86488 11.6145 9.99051 11.6713C10.1161 11.7281 10.2521 11.7583 10.39 11.76C10.5271 11.7596 10.6627 11.7309 10.7883 11.6759C10.9138 11.6208 11.0268 11.5405 11.12 11.44L16.41 5.82C16.5791 5.62949 16.669 5.38166 16.6616 5.12707C16.6542 4.87248 16.5499 4.63032 16.37 4.45ZM23.93 9.65C23.9282 9.53652 23.9044 9.42446 23.86 9.32V9.24C23.8119 9.13955 23.7514 9.04549 23.68 8.96C23.6277 8.91119 23.5708 8.86765 23.51 8.83L20.07 6.75V1C20.07 0.734784 19.9646 0.480429 19.7771 0.292892C19.5896 0.105356 19.3352 0 19.07 0H4.75C4.48478 0 4.23043 0.105356 4.04289 0.292892C3.85536 0.480429 3.75 0.734784 3.75 1V6.76L0.41 8.76L0.25 8.89C0.171923 8.97039 0.110721 9.0656 0.0699997 9.17C0.0664282 9.19655 0.0664282 9.22345 0.0699997 9.25C0.0313355 9.35963 0.007786 9.47401 0 9.59V23C0 23.2652 0.105356 23.5196 0.292892 23.7071C0.480429 23.8946 0.734784 24 1 24H23C23.2652 24 23.5196 23.8946 23.7071 23.7071C23.8946 23.5196 24 23.2652 24 23V9.66L23.93 9.65ZM20.01 9.09L21.01 9.71L20.01 10.37V9.09ZM5.75 2.02H18.01V11.66L12.09 15.45L5.75 11.45V2.02ZM3.75 9.13V10.26L2.84 9.69L3.75 9.13ZM21.93 22.02H1.93V11.46L11.57 17.46C11.7291 17.5586 11.9128 17.6106 12.1 17.61C12.2909 17.6049 12.4771 17.5497 12.64 17.45L21.93 11.45V22.02Z" fill="#333333"/>
</svg>
