<svg width="24" height="24" viewBox="0 0 24 24" fill="none" xmlns="http://www.w3.org/2000/svg">
<g id="notification">
<g id="Vector">
<path d="M22.0016 19.67H2.00163C1.81037 19.6705 1.62298 19.6161 1.46168 19.5133C1.30039 19.4105 1.17196 19.2636 1.09163 19.09C1.01154 18.916 0.983093 18.7227 1.00968 18.533C1.03628 18.3433 1.11678 18.1653 1.24163 18.02L3.75163 15.11C4.18722 14.5285 4.44745 13.8345 4.50163 13.11V7.5C4.50163 5.51088 5.29181 3.60322 6.69833 2.1967C8.10486 0.790176 10.0125 0 12.0016 0C13.9908 0 15.8984 0.790176 17.3049 2.1967C18.7115 3.60322 19.5016 5.51088 19.5016 7.5V13.08C19.5558 13.8045 19.816 14.4985 20.2516 15.08L22.7616 17.99C22.8865 18.1353 22.967 18.3133 22.9936 18.503C23.0202 18.6927 22.9917 18.886 22.9116 19.06C22.8358 19.2392 22.7092 19.3923 22.5476 19.5007C22.386 19.6091 22.1962 19.6679 22.0016 19.67ZM4.18163 17.67H19.8216L18.7316 16.41C17.9782 15.4589 17.5474 14.2925 17.5016 13.08V7.5C17.5016 6.04131 16.9222 4.64236 15.8907 3.61091C14.8593 2.57946 13.4603 2 12.0016 2C10.5429 2 9.144 2.57946 8.11255 3.61091C7.0811 4.64236 6.50163 6.04131 6.50163 7.5V13.08C6.45585 14.2925 6.02503 15.4589 5.27163 16.41L4.18163 17.67Z" fill="#333333"/>
<path fill-rule="evenodd" clip-rule="evenodd" d="M9 21C9 21.7957 9.31607 22.5587 9.87868 23.1213C10.4413 23.6839 11.2044 24 12 24C12.7956 24 13.5587 23.6839 14.1213 23.1213C14.6839 22.5587 15 21.7957 15 21H9Z" fill="#333333"/>
</g>
</g>
</svg>
