<svg width="24" height="24" viewBox="0 0 24 24" fill="none" xmlns="http://www.w3.org/2000/svg">
<path d="M16.42 8.8C16.42 8.53478 16.3146 8.28043 16.1271 8.09289C15.9396 7.90536 15.6852 7.8 15.42 7.8H8.33C8.06478 7.8 7.81043 7.90536 7.62289 8.09289C7.43535 8.28043 7.33 8.53478 7.33 8.8C7.33 9.06522 7.43535 9.31957 7.62289 9.50711C7.81043 9.69464 8.06478 9.8 8.33 9.8H15.42C15.6852 9.8 15.9396 9.69464 16.1271 9.50711C16.3146 9.31957 16.42 9.06522 16.42 8.8V8.8ZM23.94 9.65C23.9382 9.53652 23.9144 9.42446 23.87 9.32C23.8754 9.29361 23.8754 9.2664 23.87 9.24C23.8293 9.1356 23.7681 9.04039 23.69 8.96V8.96C23.6397 8.90886 23.5825 8.8651 23.52 8.83L20.08 6.75V1C20.08 0.734784 19.9746 0.480429 19.7871 0.292892C19.5996 0.105356 19.3452 0 19.08 0H4.75C4.48478 0 4.23043 0.105356 4.04289 0.292892C3.85536 0.480429 3.75 0.734784 3.75 1V6.76L0.41 8.76L0.25 8.89C0.178596 8.97549 0.118129 9.06955 0.0699997 9.17V9.25C0.0270236 9.35839 0.00333372 9.47345 0 9.59V9.59V23C0 23.2652 0.105356 23.5196 0.292892 23.7071C0.480429 23.8946 0.734784 24 1 24H22.96C23.2252 24 23.4796 23.8946 23.6671 23.7071C23.8546 23.5196 23.96 23.2652 23.96 23V9.66L23.94 9.65ZM20.01 9.09L21.01 9.71L20.01 10.37V9.09ZM5.75 2H18.01V11.64L12.09 15.43L5.75 11.43V2ZM3.75 9.11V10.24L2.84 9.67L3.75 9.11ZM21.96 22H1.96V11.46L11.59 17.46C11.7491 17.5586 11.9328 17.6106 12.12 17.61C12.3111 17.6063 12.4977 17.5511 12.66 17.45L21.96 11.45V22ZM8.35 6H15.44C15.7052 6 15.9596 5.89464 16.1471 5.70711C16.3346 5.51957 16.44 5.26522 16.44 5C16.44 4.73478 16.3346 4.48043 16.1471 4.29289C15.9596 4.10536 15.7052 4 15.44 4H8.33C8.06478 4 7.81043 4.10536 7.62289 4.29289C7.43535 4.48043 7.33 4.73478 7.33 5C7.33 5.26522 7.43535 5.51957 7.62289 5.70711C7.81043 5.89464 8.06478 6 8.33 6H8.35Z" fill="black"/>
</svg>
