<svg width="24" height="24" viewBox="0 0 24 24" fill="none" xmlns="http://www.w3.org/2000/svg">
<path d="M13.26 12.56V12.09C13.6736 11.9573 14.0458 11.7196 14.34 11.4C14.5442 11.1802 14.699 10.9192 14.7938 10.6346C14.8887 10.35 14.9215 10.0484 14.89 9.75C14.76 8.48 13.62 7.89 12.72 7.43H12.66C12.26 7.22 11.66 6.9 11.66 6.7C11.66 6.5 11.86 6.39 12.31 6.39C12.6443 6.39843 12.9627 6.53438 13.2 6.77C13.2873 6.86849 13.3932 6.94882 13.5116 7.00639C13.6299 7.06397 13.7585 7.09766 13.8899 7.10556C14.0213 7.11345 14.153 7.09539 14.2774 7.05239C14.4018 7.0094 14.5165 6.94233 14.615 6.855C14.7135 6.76767 14.7938 6.6618 14.8514 6.54343C14.909 6.42505 14.9427 6.2965 14.9506 6.1651C14.9584 6.03371 14.9404 5.90205 14.8974 5.77763C14.8544 5.65322 14.7873 5.53849 14.7 5.44C14.3176 5.02792 13.8354 4.72139 13.3 4.55V4.07C13.3 3.80478 13.1946 3.55043 13.0071 3.36289C12.8196 3.17536 12.5652 3.07 12.3 3.07C12.0348 3.07 11.7804 3.17536 11.5929 3.36289C11.4054 3.55043 11.3 3.80478 11.3 4.07V4.57C10.8893 4.70787 10.5208 4.9489 10.23 5.27C10.0264 5.4885 9.87128 5.74754 9.77477 6.03017C9.67827 6.31279 9.64256 6.61262 9.67 6.91C9.81 8.19 10.95 8.78 11.84 9.24H11.9C12.31 9.45 12.9 9.77 12.95 9.98C13 10.19 12.74 10.29 12.3 10.29C11.9622 10.2841 11.6398 10.148 11.4 9.91C11.2236 9.71109 10.9755 9.59038 10.7101 9.57444C10.4447 9.5585 10.1839 9.64863 9.985 9.825C9.78609 10.0014 9.66538 10.2495 9.64944 10.5149C9.6335 10.7803 9.72363 11.0411 9.9 11.24C10.2876 11.6458 10.7681 11.9513 11.3 12.13V12.6C11.3 12.8652 11.4054 13.1196 11.5929 13.3071C11.7804 13.4946 12.0348 13.6 12.3 13.6C12.5652 13.6 12.8196 13.4946 13.0071 13.3071C13.1946 13.1196 13.3 12.8652 13.3 12.6L13.26 12.56ZM24 9.65C23.9982 9.53652 23.9744 9.42446 23.93 9.32V9.24C23.8819 9.13718 23.8178 9.04266 23.74 8.96V8.96L23.57 8.83L20.12 6.75V1C20.12 0.734784 20.0146 0.480429 19.8271 0.292892C19.6396 0.105356 19.3852 0 19.12 0H4.81C4.54478 0 4.29043 0.105356 4.10289 0.292892C3.91536 0.480429 3.81 0.734784 3.81 1V6.76L0.48 8.76L0.32 8.89C0.242216 8.97266 0.178081 9.06718 0.13 9.17V9.25C0.0870239 9.35839 0.0633337 9.47345 0.06 9.59H0V23C0 23.2652 0.105357 23.5196 0.292893 23.7071C0.48043 23.8946 0.734784 24 1 24H23C23.2652 24 23.5196 23.8946 23.7071 23.7071C23.8946 23.5196 24 23.2652 24 23V9.66V9.65ZM20.07 9.09L21.07 9.71L20.07 10.37V9.09ZM5.81 2H18.07V11.64L12.15 15.43L5.81 11.43V2ZM3.81 9.09V10.22L2.9 9.65L3.81 9.09ZM22 22H2V11.46L11.63 17.46C11.7891 17.5586 11.9728 17.6106 12.16 17.61C12.3516 17.6095 12.539 17.554 12.7 17.45L22 11.45V22Z" fill="black"/>
</svg>
