<svg width="24" height="24" viewBox="0 0 24 24" fill="none" xmlns="http://www.w3.org/2000/svg">
<g id="social-mark-as-unread">
<path id="icon" fill-rule="evenodd" clip-rule="evenodd" d="M4.08151 19C3.48451 19 2.99951 18.515 2.99951 17.918V7.491L11.4375 13.22C11.6065 13.335 11.8035 13.393 11.9995 13.393C12.1955 13.393 12.3925 13.335 12.5615 13.22L20.9995 7.49V17.918C20.9995 18.515 20.5135 19 19.9165 19H4.08151ZM19.9165 5C20.2065 5 20.4665 5.118 20.6615 5.304L11.9995 11.184L3.33751 5.304C3.53251 5.118 3.79251 5 4.08151 5H19.9165ZM4.08151 3C2.38251 3 0.999512 4.383 0.999512 6.082V17.918C0.999512 19.617 2.38251 21 4.08151 21H19.9165C21.6165 21 22.9995 19.617 22.9995 17.918V6.082C22.9995 4.383 21.6165 3 19.9165 3H4.08151Z" fill="#333333"/>
</g>
</svg>
