<svg xmlns="http://www.w3.org/2000/svg" width="20" height="20" viewBox="0 0 20 20">
    <path fill="#333" fill-rule="evenodd" d="M5.595.833c.553 0 1 .447 1 1v13.218l1.386-1.386c.39-.39 1.023-.39 1.414 0 .39.39.39 1.024 0 1.414l-3.092 3.09c-.092.094-.203.168-.326.219-.244.1-.52.1-.764 0-.123-.051-.234-.125-.326-.218l-3.092-3.091c-.195-.195-.293-.451-.293-.707 0-.255.098-.511.293-.707.391-.39 1.023-.39 1.414 0l1.386 1.386V1.833c0-.553.447-1 1-1zM12.5 9.99c.46 0 .833.374.833.834 0 .46-.373.833-.833.833H9.167c-.46 0-.834-.373-.834-.833 0-.46.373-.834.834-.834H12.5zM15 5.823c.46 0 .833.373.833.833 0 .46-.373.833-.833.833H9.167c-.46 0-.834-.373-.834-.833 0-.46.373-.833.834-.833H15zm2.5-4.167c.46 0 .833.373.833.833 0 .46-.373.834-.833.834H9.167c-.46 0-.834-.373-.834-.834 0-.46.373-.833.834-.833H17.5z"/>
</svg>
