<svg xmlns="http://www.w3.org/2000/svg" width="20" height="20" viewBox="0 0 20 20">
    <path fill="#333" fill-rule="evenodd" d="M5.213.91c.244-.102.52-.102.764 0 .123.05.234.124.326.217l3.092 3.09c.39.391.39 1.024 0 1.414-.39.391-1.024.391-1.414 0L6.595 4.246V18.05c0 .553-.447 1-1 1-.553 0-1-.447-1-1V4.246L3.21 5.631c-.39.391-1.023.391-1.414 0-.195-.195-.293-.45-.293-.707 0-.255.098-.51.293-.707l3.092-3.09c.092-.093.203-.167.326-.218zM17.5 16.501c.46 0 .833.373.833.834 0 .46-.373.833-.833.833H9.167c-.46 0-.834-.373-.834-.833 0-.46.373-.834.834-.834H17.5zM15 12.336c.46 0 .833.373.833.833 0 .46-.373.833-.833.833H9.167c-.46 0-.834-.373-.834-.833 0-.46.373-.833.834-.833H15zm-2.5-4.167c.46 0 .833.373.833.833 0 .46-.373.834-.833.834H9.167c-.46 0-.834-.373-.834-.834 0-.46.373-.833.834-.833H12.5z"/>
</svg>
