<?xml version="1.0" encoding="UTF-8"?>
<svg width="24px" height="24px" viewBox="0 0 24 24" version="1.1" xmlns="http://www.w3.org/2000/svg" xmlns:xlink="http://www.w3.org/1999/xlink">
    <!-- Generator: Sketch 62 (91390) - https://sketch.com -->
    <title>sui-final/icons/24px/utility/utility-alert</title>
    <desc>Created with Sketch.</desc>
    <g id="sui-final/icons/24px/utility/utility-alert" stroke="none" stroke-width="1" fill="none" fill-rule="evenodd">
        <path d="M12.0656,7.001 C11.4626,7.001 10.9736,7.489 10.9736,8.092 L10.9736,13.714 C10.9736,14.316 11.4626,14.805 12.0656,14.805 C12.6676,14.805 13.1566,14.316 13.1566,13.714 L13.1566,8.092 C13.1566,7.489 12.6676,7.001 12.0656,7.001 M21.9801441,18.92 C21.938422,18.997 21.8718652,18.997 21.8500107,18.997 L2.15019612,18.997 C2.12834166,18.997 2.06178487,18.997 2.02006271,18.92 C1.97834055,18.844 2.01310902,18.788 2.02502964,18.77 L11.8754336,3.069 C11.8863609,3.052 11.9191426,3 11.9996067,3 C12.0810643,3 12.113846,3.052 12.1247732,3.069 L21.9751772,18.77 C21.9870978,18.788 22.0218663,18.844 21.9801441,18.92 M23.6693981,17.701 L13.8068176,2.001 C13.4129509,1.374 12.7376088,1 11.9996061,1 C11.262598,1 10.587256,1.374 10.1933893,2.001 L0.330808774,17.701 C-0.0849393758,18.362 -0.110799309,19.199 0.265164329,19.885 C0.641127967,20.571 1.35923841,20.997 2.13802023,20.997 L21.8621866,20.997 C22.6409685,20.997 23.3590789,20.571 23.7350425,19.885 C24.1110062,19.199 24.0851462,18.362 23.6693981,17.701 M12.0656,15.805 C11.4626,15.805 10.9736,16.293 10.9736,16.897 C10.9736,17.498 11.4626,17.987 12.0656,17.987 C12.6676,17.987 13.1566,17.498 13.1566,16.897 C13.1566,16.293 12.6676,15.805 12.0656,15.805" id="Fill-1" fill="#333333"></path>
    </g>
</svg>