<?xml version="1.0" encoding="UTF-8"?>
<svg width="24px" height="24px" viewBox="0 0 24 24" version="1.1" xmlns="http://www.w3.org/2000/svg" xmlns:xlink="http://www.w3.org/1999/xlink">
    <title>sui-final/icons/24px/utility/utility-success-alt</title>
    <g id="sui-final/icons/24px/utility/utility-success-alt" stroke="none" stroke-width="1" fill="none" fill-rule="evenodd">
        <path d="M6.6215,12.0487 C6.2235,11.6697 5.5885,11.6847 5.2075,12.0837 C4.8265,12.4847 4.8425,13.1167 5.2425,13.4977 L9.1325,17.1987 C9.3185,17.3757 9.5655,17.4747 9.8215,17.4747 C9.8325,17.4747 9.8445,17.4747 9.8545,17.4737 C10.1235,17.4647 10.3765,17.3487 10.5585,17.1517 L22.6385,4.1537 C23.0125,3.7477 22.9845,3.1147 22.5785,2.7407 C22.1735,2.3687 21.5405,2.3937 21.1655,2.8007 L9.7735,15.0487 L6.6215,12.0487 Z M23.6035,8.9247 C23.4615,8.3917 22.9135,8.0737 22.3805,8.2147 C21.8475,8.3567 21.5285,8.9037 21.6705,9.4387 C21.9855,10.6257 22.0775,11.8537 21.9415,13.0867 C21.6515,15.7417 20.3445,18.1247 18.2615,19.7967 C16.1795,21.4697 13.5695,22.2357 10.9135,21.9397 C8.2585,21.6497 5.8755,20.3417 4.2035,18.2587 C2.5305,16.1757 1.7695,13.5667 2.0605,10.9107 C2.3515,8.2557 3.6585,5.8727 5.7415,4.2007 C7.8245,2.5277 10.4355,1.7667 13.0895,2.0587 C13.9915,2.1567 14.8725,2.3757 15.7085,2.7077 C16.2205,2.9157 16.8035,2.6617 17.0075,2.1497 C17.2125,1.6357 16.9615,1.0547 16.4485,0.8507 C15.4445,0.4497 14.3885,0.1887 13.3065,0.0697 C6.7345,-0.6393 0.7935,4.1157 0.0725,10.6947 C-0.2755,13.8797 0.6375,17.0117 2.6435,19.5117 C4.6495,22.0107 7.5105,23.5787 10.6965,23.9277 C11.1415,23.9767 11.5845,23.9997 12.0245,23.9997 C14.7435,23.9997 17.3625,23.0837 19.5145,21.3567 C22.0135,19.3507 23.5815,16.4897 23.9305,13.3047 C24.0925,11.8257 23.9825,10.3527 23.6035,8.9247 L23.6035,8.9247 Z" id="Fill-1" fill="#333333"></path>
    </g>
</svg>