<svg width="24" height="24" viewBox="0 0 24 24" fill="none" xmlns="http://www.w3.org/2000/svg">
    <g id="website">
        <path id="icon" fill-rule="evenodd" clip-rule="evenodd" d="M12 24C5.37258 24 0 18.6274 0 12C0 5.37258 5.37258 0 12 0C18.6274 0 24 5.37258 24 12C24 18.6274 18.6274 24 12 24ZM17.1254 20.3758C19.6475 18.8292 21.4173 16.1754 21.7583 13.0909H19.0629C18.9182 15.8979 18.219 18.4481 17.1254 20.3758ZM17.1254 3.62418C19.6475 5.17081 21.4173 7.82463 21.7583 10.9091H19.0629C18.9182 8.10211 18.219 5.55186 17.1254 3.62418ZM13.0909 2.44688C15.0128 3.38441 16.6347 6.71391 16.8777 10.9091H13.0909V2.44688ZM10.9091 2.44688V10.9091H7.12231C7.36528 6.71391 8.98719 3.38441 10.9091 2.44688ZM10.9091 13.0909H7.12231C7.36528 17.2861 8.98719 20.6156 10.9091 21.5531V13.0909ZM13.0909 13.0909V21.5531C15.0128 20.6156 16.6347 17.2861 16.8777 13.0909H13.0909ZM6.8746 20.3758C5.78097 18.4481 5.0818 15.8979 4.93708 13.0909H2.24174C2.58271 16.1754 4.35251 18.8292 6.8746 20.3758ZM6.87459 3.62418C5.78097 5.55186 5.08179 8.10211 4.93708 10.9091H2.24174C2.58271 7.82463 4.35251 5.17081 6.87459 3.62418Z" fill="#333333"/>
    </g>
</svg>
