<?xml version="1.0" encoding="UTF-8"?>
<svg width="24px" height="24px" viewBox="0 0 24 24" version="1.1" xmlns="http://www.w3.org/2000/svg" xmlns:xlink="http://www.w3.org/1999/xlink">
    <!-- Generator: Sketch 62 (91390) - https://sketch.com -->
    <title>sui-final/icons/24px/utility/utility-warning</title>
    <desc>Created with Sketch.</desc>
    <g id="sui-final/icons/24px/utility/utility-warning" stroke="none" stroke-width="1" fill="none" fill-rule="evenodd">
        <path d="M12,0 C18.627417,0 24,5.372583 24,12 C24,18.627417 18.627417,24 12,24 C5.372583,24 0,18.627417 0,12 C0,5.372583 5.372583,0 12,0 Z M12,2.18181818 C6.57756791,2.18181818 2.18181818,6.57756791 2.18181818,12 C2.18181818,17.4224321 6.57756791,21.8181818 12,21.8181818 C17.4224321,21.8181818 21.8181818,17.4224321 21.8181818,12 C21.8181818,6.57756791 17.4224321,2.18181818 12,2.18181818 Z M12,16.3636364 C12.6024925,16.3636364 13.0909091,16.852053 13.0909091,17.4545455 C13.0909091,18.0570379 12.6024925,18.5454545 12,18.5454545 C11.3975075,18.5454545 10.9090909,18.0570379 10.9090909,17.4545455 C10.9090909,16.852053 11.3975075,16.3636364 12,16.3636364 Z M12,5.45454545 C12.6024925,5.45454545 13.0909091,5.94296209 13.0909091,6.54545455 L13.0909091,13.6363636 C13.0909091,14.2388561 12.6024925,14.7272727 12,14.7272727 C11.3975075,14.7272727 10.9090909,14.2388561 10.9090909,13.6363636 L10.9090909,6.54545455 C10.9090909,5.94296209 11.3975075,5.45454545 12,5.45454545 Z" id="Combined-Shape" fill="#717171"></path>
    </g>
</svg>