<?xml version="1.0" encoding="UTF-8"?>
<svg width="24px" height="24px" viewBox="0 0 24 24" version="1.1" xmlns="http://www.w3.org/2000/svg" xmlns:xlink="http://www.w3.org/1999/xlink">
    <!-- Generator: Sketch 62 (91390) - https://sketch.com -->
    <title>sui-final/icons/24px/utility/utility-information</title>
    <desc>Created with Sketch.</desc>
    <g id="sui-final/icons/24px/utility/utility-information" stroke="none" stroke-width="1" fill="none" fill-rule="evenodd">
        <path d="M12,24 C5.372583,24 0,18.627417 0,12 C0,5.372583 5.372583,0 12,0 C18.627417,0 24,5.372583 24,12 C24,18.627417 18.627417,24 12,24 Z M12,21.8181818 C17.4224321,21.8181818 21.8181818,17.4224321 21.8181818,12 C21.8181818,6.57756791 17.4224321,2.18181818 12,2.18181818 C6.57756791,2.18181818 2.18181818,6.57756791 2.18181818,12 C2.18181818,17.4224321 6.57756791,21.8181818 12,21.8181818 Z M12,17.1428571 C12.5891037,17.1428571 13.0666667,17.6033643 13.0666667,18.1714286 C13.0666667,18.7394929 12.5891037,19.2 12,19.2 C11.4108963,19.2 10.9333333,18.7394929 10.9333333,18.1714286 C10.9333333,17.6033643 11.4108963,17.1428571 12,17.1428571 Z M12,4.8 C14.6509668,4.8 16.8,6.87228202 16.8,9.42857143 C16.8,10.9672149 15.5349193,12.6027533 13.7077738,13.3973052 C13.5290072,13.4750437 13.3834823,13.6306702 13.2668489,13.8703622 C13.1881442,14.0321073 13.1312573,14.2161702 13.0958495,14.4018378 C13.0750663,14.5108181 13.0668591,14.5881242 13.0657611,14.6138033 C13.0414914,15.1813853 12.5446594,15.6225297 11.9560558,15.5991268 C11.3674522,15.5757238 10.9099692,15.0966359 10.9342389,14.5290538 C10.9517293,14.1200147 11.0566975,13.5695944 11.335551,12.9965258 C11.6530378,12.3440624 12.1413866,11.8218148 12.8307678,11.5220307 C13.9383609,11.0403831 14.6666667,10.0988051 14.6666667,9.42857143 C14.6666667,8.00841064 13.4727593,6.85714286 12,6.85714286 C10.5272407,6.85714286 9.33333333,8.00841064 9.33333333,9.42857143 C9.33333333,9.99663574 8.8557704,10.4571429 8.26666667,10.4571429 C7.67756293,10.4571429 7.2,9.99663574 7.2,9.42857143 C7.2,6.87228202 9.3490332,4.8 12,4.8 Z" id="icon-information" fill="#717171"></path>
    </g>
</svg>