<?xml version="1.0" encoding="UTF-8"?>
<svg width="24px" height="24px" viewBox="0 0 24 24" version="1.1" xmlns="http://www.w3.org/2000/svg" xmlns:xlink="http://www.w3.org/1999/xlink">
    <!-- Generator: Sketch 64 (93537) - https://sketch.com -->
    <title>sui-final/icons/24px/utility/utility-information-alt</title>
    <desc>Created with Sketch.</desc>
    <g id="sui-final/icons/24px/utility/utility-information-alt" stroke="none" stroke-width="1" fill="none" fill-rule="evenodd">
        <path d="M12.0005,21.8181 C6.5775,21.8181 2.1825,17.4221 2.1825,12.0001 C2.1825,6.5781 6.5775,2.1821 12.0005,2.1821 C17.4225,2.1821 21.8175,6.5781 21.8175,12.0001 C21.8175,17.4221 17.4225,21.8181 12.0005,21.8181 M12.0005,0.0001 C5.3725,0.0001 0.0005,5.3731 0.0005,12.0001 C0.0005,18.6281 5.3725,24.0001 12.0005,24.0001 C18.6275,24.0001 24.0005,18.6281 24.0005,12.0001 C24.0005,5.3731 18.6275,0.0001 12.0005,0.0001 M12.9675,17.2681 C12.6425,17.6411 12.3705,17.8281 12.1525,17.8281 C12.0665,17.8281 11.9895,17.8051 11.9195,17.7591 C11.8495,17.7141 11.8135,17.6131 11.8135,17.4591 C11.8135,17.3031 11.8765,16.9661 12.0035,16.4461 C12.0535,16.2421 12.1475,15.8761 12.2885,15.3481 L13.9655,9.1991 L13.0445,9.3791 C12.7225,9.4421 12.1775,9.5171 11.4055,9.6051 C10.6345,9.6931 10.0455,9.7511 9.6415,9.7791 L9.6415,10.3481 C10.1255,10.3701 10.4585,10.4161 10.6415,10.4861 C10.8235,10.5561 10.9155,10.7351 10.9155,11.0241 C10.9155,11.0731 10.9095,11.1261 10.8985,11.1821 C10.8895,11.2381 10.8765,11.2951 10.8625,11.3511 L9.5335,16.2031 C9.4355,16.5621 9.3605,16.8501 9.3125,17.0681 C9.2275,17.4481 9.1855,17.7251 9.1855,17.9011 C9.1855,18.4011 9.3415,18.7721 9.6545,19.0141 C9.9695,19.2561 10.3225,19.3791 10.7165,19.3791 C11.4145,19.3791 12.0685,19.0831 12.6825,18.4921 C13.0555,18.1331 13.5935,17.4371 14.2975,16.4041 L13.8225,16.0971 C13.5765,16.5061 13.2905,16.8961 12.9675,17.2681 M13.3695,4.3791 C12.9685,4.3791 12.6255,4.5191 12.3415,4.8001 C12.0565,5.0821 11.9135,5.4221 11.9135,5.8231 C11.9135,6.2241 12.0565,6.5671 12.3415,6.8521 C12.6255,7.1361 12.9685,7.2791 13.3695,7.2791 C13.7705,7.2791 14.1115,7.1361 14.3935,6.8521 C14.6745,6.5671 14.8145,6.2241 14.8145,5.8231 C14.8145,5.4221 14.6745,5.0821 14.3935,4.8001 C14.1115,4.5191 13.7705,4.3791 13.3695,4.3791" id="Fill-1" fill="#333333"></path>
    </g>
</svg>