<svg width="153" height="45" viewBox="0 0 153 45" fill="none" xmlns="http://www.w3.org/2000/svg">
<rect width="153" height="45"/>
<path d="M23.7929 18.3099C23.5932 18.6263 23.3769 18.8511 23.144 18.9844C22.9277 19.1176 22.6449 19.1842 22.2955 19.1842C21.9295 19.1842 21.5635 19.1092 21.1974 18.9594C20.8314 18.7929 20.4321 18.618 19.9996 18.4348C19.5836 18.2517 19.1095 18.0851 18.5771 17.9353C18.0447 17.7687 17.4374 17.6855 16.7553 17.6855C15.7737 17.6855 15.0167 17.877 14.4843 18.26C13.9686 18.6263 13.7107 19.1425 13.7107 19.8086C13.7107 20.2915 13.8771 20.6912 14.2098 21.0076C14.5592 21.324 15.0167 21.6071 15.5824 21.8569C16.148 22.09 16.7886 22.3148 17.504 22.5313C18.2194 22.7477 18.9514 22.9892 19.7001 23.2556C20.4488 23.5221 21.1808 23.8385 21.8962 24.2048C22.6116 24.5545 23.2521 24.9958 23.8178 25.5287C24.3835 26.0449 24.8327 26.6777 25.1654 27.427C25.5148 28.1764 25.6895 29.0756 25.6895 30.1247C25.6895 31.4069 25.4566 32.5892 24.9907 33.6716C24.5249 34.754 23.8261 35.6865 22.8944 36.4691C21.9794 37.2518 20.8397 37.8596 19.4755 38.2926C18.1279 38.7255 16.5723 38.942 14.8087 38.942C13.927 38.942 13.0452 38.8587 12.1634 38.6922C11.2816 38.5257 10.4248 38.3009 9.59296 38.0178C8.77773 37.7347 8.02074 37.4017 7.32197 37.0187C6.62321 36.619 6.02426 36.1944 5.52515 35.7448L7.32197 32.8972C7.52162 32.5642 7.77118 32.3061 8.07065 32.1229C8.38676 31.9231 8.78605 31.8232 9.26853 31.8232C9.71774 31.8232 10.117 31.9231 10.4664 32.1229C10.8324 32.3227 11.2234 32.5392 11.6393 32.7724C12.0553 33.0055 12.5378 33.222 13.0868 33.4218C13.6524 33.6216 14.3595 33.7215 15.208 33.7215C15.807 33.7215 16.3144 33.6632 16.7303 33.5467C17.1463 33.4135 17.479 33.2386 17.7286 33.0221C17.9781 32.8057 18.1611 32.5642 18.2776 32.2978C18.3941 32.0313 18.4523 31.7566 18.4523 31.4735C18.4523 30.9573 18.2776 30.5326 17.9282 30.1996C17.5788 29.8665 17.1213 29.5835 16.5556 29.3503C15.99 29.1006 15.3411 28.8757 14.6091 28.6759C13.8937 28.4594 13.1616 28.218 12.413 27.9516C11.6643 27.6851 10.9239 27.3687 10.1919 27.0024C9.4765 26.6194 8.83596 26.1448 8.27029 25.5786C7.70463 24.9958 7.2471 24.2881 6.89772 23.4555C6.54834 22.6229 6.37365 21.6154 6.37365 20.4331C6.37365 19.334 6.58161 18.2933 6.99754 17.3108C7.43011 16.3117 8.07065 15.4374 8.91915 14.6881C9.76765 13.9387 10.8324 13.3476 12.1135 12.9146C13.3946 12.465 14.8919 12.2402 16.6056 12.2402C17.5372 12.2402 18.4357 12.3235 19.3008 12.49C20.1826 12.6565 21.0061 12.8897 21.7714 13.1894C22.5367 13.4891 23.2355 13.8472 23.8677 14.2635C24.4999 14.6631 25.0573 15.1044 25.5398 15.5873L23.7929 18.3099Z" fill="#006ADD"/>
<path d="M52.978 12.6399V38.5423H48.1864C47.2215 38.5423 46.5893 38.1094 46.2898 37.2435L45.8406 35.7448C45.3415 36.2277 44.8257 36.669 44.2933 37.0686C43.7609 37.4516 43.1869 37.7847 42.5714 38.0677C41.9724 38.3342 41.3153 38.5423 40.5999 38.6922C39.9011 38.8587 39.1358 38.942 38.3039 38.942C36.8897 38.942 35.6336 38.7005 34.5356 38.2176C33.4541 37.7181 32.5391 37.027 31.7904 36.1444C31.0417 35.2619 30.4761 34.2211 30.0934 33.0221C29.7108 31.8232 29.5194 30.5077 29.5194 29.0756V12.6399H37.2558V29.0756C37.2558 30.3578 37.5469 31.3486 38.1292 32.048C38.7115 32.7474 39.5683 33.0971 40.6997 33.0971C41.5482 33.0971 42.3384 32.9222 43.0705 32.5725C43.8192 32.2062 44.5429 31.7149 45.2416 31.0988V12.6399H52.978Z" fill="#006ADD"/>
<path d="M66.3411 12.6399V38.5423H58.6047V12.6399H66.3411ZM67.1396 5.54604C67.1396 6.16217 67.0149 6.745 66.7653 7.29452C66.5157 7.82739 66.1747 8.30198 65.7421 8.71828C65.3095 9.11794 64.8021 9.44265 64.2198 9.69243C63.6541 9.92557 63.0469 10.0421 62.398 10.0421C61.7658 10.0421 61.1752 9.92557 60.6262 9.69243C60.0771 9.44265 59.5863 9.11794 59.1538 8.71828C58.7378 8.30198 58.4051 7.82739 58.1555 7.29452C57.9226 6.745 57.8061 6.16217 57.8061 5.54604C57.8061 4.91326 57.9226 4.32211 58.1555 3.77259C58.4051 3.22306 58.7378 2.74015 59.1538 2.32385C59.5863 1.90754 60.0771 1.58283 60.6262 1.34969C61.1752 1.11656 61.7658 1 62.398 1C63.0469 1 63.6541 1.11656 64.2198 1.34969C64.8021 1.58283 65.3095 1.90754 65.7421 2.32385C66.1747 2.74015 66.5157 3.22306 66.7653 3.77259C67.0149 4.32211 67.1396 4.91326 67.1396 5.54604Z" fill="#006ADD"/>
<path d="M70.8842 34.6207C70.8842 34.0213 70.9923 33.4634 71.2086 32.9472C71.4415 32.431 71.7493 31.9814 72.132 31.5984C72.5313 31.2154 72.9971 30.9156 73.5295 30.6992C74.0619 30.466 74.6442 30.3495 75.2764 30.3495C75.892 30.3495 76.466 30.466 76.9984 30.6992C77.5308 30.9156 77.9966 31.2154 78.3959 31.5984C78.7952 31.9814 79.103 32.431 79.3193 32.9472C79.5522 33.4634 79.6687 34.0213 79.6687 34.6207C79.6687 35.2202 79.5522 35.7864 79.3193 36.3193C79.103 36.8355 78.7952 37.2851 78.3959 37.6681C77.9966 38.0511 77.5308 38.3508 76.9984 38.5673C76.466 38.7838 75.892 38.892 75.2764 38.892C74.6442 38.892 74.0619 38.7838 73.5295 38.5673C72.9971 38.3508 72.5313 38.0511 72.132 37.6681C71.7493 37.2851 71.4415 36.8355 71.2086 36.3193C70.9923 35.7864 70.8842 35.2202 70.8842 34.6207Z" fill="#006ADD"/>
<path d="M23.7929 18.3099C23.5932 18.6263 23.3769 18.8511 23.144 18.9844C22.9277 19.1176 22.6449 19.1842 22.2955 19.1842C21.9295 19.1842 21.5635 19.1092 21.1974 18.9594C20.8314 18.7929 20.4321 18.618 19.9996 18.4348C19.5836 18.2517 19.1095 18.0851 18.5771 17.9353C18.0447 17.7687 17.4374 17.6855 16.7553 17.6855C15.7737 17.6855 15.0167 17.877 14.4843 18.26C13.9686 18.6263 13.7107 19.1425 13.7107 19.8086C13.7107 20.2915 13.8771 20.6912 14.2098 21.0076C14.5592 21.324 15.0167 21.6071 15.5824 21.8569C16.148 22.09 16.7886 22.3148 17.504 22.5313C18.2194 22.7477 18.9514 22.9892 19.7001 23.2556C20.4488 23.5221 21.1808 23.8385 21.8962 24.2048C22.6116 24.5545 23.2521 24.9958 23.8178 25.5287C24.3835 26.0449 24.8327 26.6777 25.1654 27.427C25.5148 28.1764 25.6895 29.0756 25.6895 30.1247C25.6895 31.4069 25.4566 32.5892 24.9907 33.6716C24.5249 34.754 23.8261 35.6865 22.8944 36.4691C21.9794 37.2518 20.8397 37.8596 19.4755 38.2926C18.1279 38.7255 16.5723 38.942 14.8087 38.942C13.927 38.942 13.0452 38.8587 12.1634 38.6922C11.2816 38.5257 10.4248 38.3009 9.59296 38.0178C8.77773 37.7347 8.02074 37.4017 7.32197 37.0187C6.62321 36.619 6.02426 36.1944 5.52515 35.7448L7.32197 32.8972C7.52162 32.5642 7.77118 32.3061 8.07065 32.1229C8.38676 31.9231 8.78605 31.8232 9.26853 31.8232C9.71774 31.8232 10.117 31.9231 10.4664 32.1229C10.8324 32.3227 11.2234 32.5392 11.6393 32.7724C12.0553 33.0055 12.5378 33.222 13.0868 33.4218C13.6524 33.6216 14.3595 33.7215 15.208 33.7215C15.807 33.7215 16.3144 33.6632 16.7303 33.5467C17.1463 33.4135 17.479 33.2386 17.7286 33.0221C17.9781 32.8057 18.1611 32.5642 18.2776 32.2978C18.3941 32.0313 18.4523 31.7566 18.4523 31.4735C18.4523 30.9573 18.2776 30.5326 17.9282 30.1996C17.5788 29.8665 17.1213 29.5835 16.5556 29.3503C15.99 29.1006 15.3411 28.8757 14.6091 28.6759C13.8937 28.4594 13.1616 28.218 12.413 27.9516C11.6643 27.6851 10.9239 27.3687 10.1919 27.0024C9.4765 26.6194 8.83596 26.1448 8.27029 25.5786C7.70463 24.9958 7.2471 24.2881 6.89772 23.4555C6.54834 22.6229 6.37365 21.6154 6.37365 20.4331C6.37365 19.334 6.58161 18.2933 6.99754 17.3108C7.43011 16.3117 8.07065 15.4374 8.91915 14.6881C9.76765 13.9387 10.8324 13.3476 12.1135 12.9146C13.3946 12.465 14.8919 12.2402 16.6056 12.2402C17.5372 12.2402 18.4357 12.3235 19.3008 12.49C20.1826 12.6565 21.0061 12.8897 21.7714 13.1894C22.5367 13.4891 23.2355 13.8472 23.8677 14.2635C24.4999 14.6631 25.0573 15.1044 25.5398 15.5873L23.7929 18.3099Z" stroke="#006ADD"/>
<path d="M52.978 12.6399V38.5423H48.1864C47.2215 38.5423 46.5893 38.1094 46.2898 37.2435L45.8406 35.7448C45.3415 36.2277 44.8257 36.669 44.2933 37.0686C43.7609 37.4516 43.1869 37.7847 42.5714 38.0677C41.9724 38.3342 41.3153 38.5423 40.5999 38.6922C39.9011 38.8587 39.1358 38.942 38.3039 38.942C36.8897 38.942 35.6336 38.7005 34.5356 38.2176C33.4541 37.7181 32.5391 37.027 31.7904 36.1444C31.0417 35.2619 30.4761 34.2211 30.0934 33.0221C29.7108 31.8232 29.5194 30.5077 29.5194 29.0756V12.6399H37.2558V29.0756C37.2558 30.3578 37.5469 31.3486 38.1292 32.048C38.7115 32.7474 39.5683 33.0971 40.6997 33.0971C41.5482 33.0971 42.3384 32.9222 43.0705 32.5725C43.8192 32.2062 44.5429 31.7149 45.2416 31.0988V12.6399H52.978Z" stroke="#006ADD"/>
<path d="M66.3411 12.6399V38.5423H58.6047V12.6399H66.3411ZM67.1396 5.54604C67.1396 6.16217 67.0149 6.745 66.7653 7.29452C66.5157 7.82739 66.1747 8.30198 65.7421 8.71828C65.3095 9.11794 64.8021 9.44265 64.2198 9.69243C63.6541 9.92557 63.0469 10.0421 62.398 10.0421C61.7658 10.0421 61.1752 9.92557 60.6262 9.69243C60.0771 9.44265 59.5863 9.11794 59.1538 8.71828C58.7378 8.30198 58.4051 7.82739 58.1555 7.29452C57.9226 6.745 57.8061 6.16217 57.8061 5.54604C57.8061 4.91326 57.9226 4.32211 58.1555 3.77259C58.4051 3.22306 58.7378 2.74015 59.1538 2.32385C59.5863 1.90754 60.0771 1.58283 60.6262 1.34969C61.1752 1.11656 61.7658 1 62.398 1C63.0469 1 63.6541 1.11656 64.2198 1.34969C64.8021 1.58283 65.3095 1.90754 65.7421 2.32385C66.1747 2.74015 66.5157 3.22306 66.7653 3.77259C67.0149 4.32211 67.1396 4.91326 67.1396 5.54604Z" stroke="#006ADD"/>
<path d="M70.8842 34.6207C70.8842 34.0213 70.9923 33.4634 71.2086 32.9472C71.4415 32.431 71.7493 31.9814 72.132 31.5984C72.5313 31.2154 72.9971 30.9156 73.5295 30.6992C74.0619 30.466 74.6442 30.3495 75.2764 30.3495C75.892 30.3495 76.466 30.466 76.9984 30.6992C77.5308 30.9156 77.9966 31.2154 78.3959 31.5984C78.7952 31.9814 79.103 32.431 79.3193 32.9472C79.5522 33.4634 79.6687 34.0213 79.6687 34.6207C79.6687 35.2202 79.5522 35.7864 79.3193 36.3193C79.103 36.8355 78.7952 37.2851 78.3959 37.6681C77.9966 38.0511 77.5308 38.3508 76.9984 38.5673C76.466 38.7838 75.892 38.892 75.2764 38.892C74.6442 38.892 74.0619 38.7838 73.5295 38.5673C72.9971 38.3508 72.5313 38.0511 72.132 37.6681C71.7493 37.2851 71.4415 36.8355 71.2086 36.3193C70.9923 35.7864 70.8842 35.2202 70.8842 34.6207Z" stroke="#006ADD"/>
<path d="M53.9099 5.64124H2.39237C1.62338 5.64124 1 6.26462 1 7.0336V28.6153V41.6687C1 42.4377 1.62338 43.0611 2.39237 43.0611H83.1496C83.9186 43.0611 84.542 42.4377 84.542 41.6687V7.0336C84.542 6.26462 83.9186 5.64124 83.1496 5.64124H70.4443" stroke="#006ADD" stroke-width="0.696183"/>
<path d="M98.5399 16.4724C98.5399 17.0603 98.3264 17.5244 97.8995 17.8648C97.4725 18.2051 96.8815 18.3753 96.1265 18.3753C95.3963 18.3753 94.7775 18.2515 94.27 18.004V16.8901C94.5485 17.0139 94.8548 17.1284 95.189 17.2336C95.5293 17.3326 95.8697 17.3821 96.2101 17.3821C96.6123 17.3821 96.9031 17.3047 97.0826 17.15C97.2682 16.9891 97.3611 16.7849 97.3611 16.5374C97.3611 16.2651 97.2435 16.0485 97.0083 15.8876C96.7732 15.7205 96.4297 15.5411 95.978 15.3492C95.7057 15.2378 95.4427 15.1017 95.189 14.9408C94.9415 14.7737 94.7372 14.5664 94.5763 14.3189C94.4216 14.0651 94.3443 13.7495 94.3443 13.3721C94.3443 12.8089 94.5423 12.3665 94.9384 12.0447C95.3406 11.7229 95.8759 11.562 96.5442 11.562C96.8908 11.562 97.2187 11.5991 97.5282 11.6734C97.8438 11.7476 98.1532 11.8528 98.4564 11.989L98.0758 12.9451C97.7973 12.8275 97.5313 12.7347 97.2775 12.6666C97.03 12.5985 96.7732 12.5645 96.5071 12.5645C96.1853 12.5645 95.9409 12.6357 95.7738 12.778C95.6067 12.9203 95.5232 13.1091 95.5232 13.3442C95.5232 13.5237 95.5696 13.6784 95.6624 13.8083C95.7552 13.9321 95.8975 14.0466 96.0894 14.1518C96.2874 14.257 96.5411 14.3777 96.8505 14.5138C97.2095 14.6685 97.5127 14.8325 97.7602 15.0058C98.0139 15.1729 98.2058 15.374 98.3357 15.6091C98.4719 15.8381 98.5399 16.1258 98.5399 16.4724ZM102.27 18.2825H99.4849V17.6049L100.283 17.3078V12.6387L99.4849 12.3324V11.6548H102.27V12.3324L101.471 12.6387V17.3078L102.27 17.6049V18.2825ZM106.067 18.2825H104.879V12.6573H102.976V11.6548H107.97V12.6573H106.067V18.2825ZM112.986 18.2825H109.217V11.6548H112.986V12.648H110.405V14.3374H112.819V15.3307H110.405V17.28H112.986V18.2825ZM117.475 18.2825L115.655 12.8522H115.618C115.631 12.976 115.64 13.1524 115.646 13.3813C115.658 13.6041 115.668 13.8486 115.674 14.1147C115.686 14.3746 115.693 14.619 115.693 14.848V18.2825H114.625V11.6548H116.277L118.022 16.8623H118.06L119.879 11.6548H121.531V18.2825H120.399V14.7923C120.399 14.5819 120.402 14.3529 120.408 14.1054C120.42 13.8517 120.43 13.6134 120.436 13.3906C120.448 13.1617 120.458 12.9853 120.464 12.8615H120.427L118.533 18.2825H117.475ZM125.724 18.2825H122.939V17.6049L123.738 17.3078V12.6387L122.939 12.3324V11.6548H125.724V12.3324L124.926 12.6387V17.3078L125.724 17.6049V18.2825ZM132.78 18.2825H131.304L128.167 13.0843H128.129C128.142 13.3628 128.154 13.6629 128.167 13.9847C128.185 14.3003 128.201 14.619 128.213 14.9408V18.2825H127.145V11.6548H128.612L131.74 16.8158H131.768C131.762 16.5683 131.75 16.2837 131.731 15.9619C131.719 15.6401 131.709 15.3276 131.703 15.0243V11.6548H132.78V18.2825ZM140.159 14.9037C140.159 16.0237 139.847 16.8684 139.222 17.4378C138.597 18.0009 137.724 18.2825 136.604 18.2825H134.738V11.6548H136.799C137.486 11.6548 138.08 11.7786 138.581 12.0261C139.082 12.2736 139.469 12.6387 139.741 13.1214C140.02 13.6041 140.159 14.1982 140.159 14.9037ZM138.915 14.9408C138.915 14.1487 138.733 13.567 138.368 13.1957C138.003 12.8244 137.48 12.6387 136.799 12.6387H135.926V17.2892H136.641C138.157 17.2892 138.915 16.5064 138.915 14.9408ZM145.574 18.2825H141.805V11.6548H145.574V12.648H142.993V14.3374H145.407V15.3307H142.993V17.28H145.574V18.2825ZM149.098 11.6548C149.97 11.6548 150.614 11.8157 151.028 12.1375C151.449 12.4593 151.66 12.9482 151.66 13.6041C151.66 13.9259 151.598 14.2013 151.474 14.4303C151.356 14.6592 151.199 14.8511 151.001 15.0058C150.809 15.1543 150.604 15.275 150.388 15.3678L152.291 18.2825H150.954L149.367 15.6648H148.401V18.2825H147.213V11.6548H149.098ZM149.023 12.648H148.401V14.6902H149.061C149.556 14.6902 149.911 14.6035 150.128 14.4303C150.345 14.2508 150.453 13.9878 150.453 13.6412C150.453 13.2823 150.335 13.0286 150.1 12.8801C149.871 12.7254 149.512 12.648 149.023 12.648ZM100.109 24.9037C100.109 26.0237 99.7962 26.8684 99.1712 27.4378C98.5461 28.0009 97.6736 28.2825 96.5535 28.2825H94.6877V21.6548H96.7484C97.4353 21.6548 98.0294 21.7786 98.5307 22.0261C99.0319 22.2736 99.4187 22.6387 99.691 23.1214C99.9694 23.6041 100.109 24.1982 100.109 24.9037ZM98.8648 24.9408C98.8648 24.1487 98.6823 23.567 98.3172 23.1957C97.9521 22.8244 97.4291 22.6387 96.7484 22.6387H95.8759V27.2892H96.5906C98.1068 27.2892 98.8648 26.5064 98.8648 24.9408ZM105.523 28.2825H101.755V21.6548H105.523V22.648H102.943V24.3374H105.356V25.3307H102.943V27.28H105.523V28.2825ZM111.015 26.4724C111.015 27.0603 110.802 27.5244 110.375 27.8648C109.948 28.2051 109.357 28.3753 108.602 28.3753C107.871 28.3753 107.253 28.2515 106.745 28.004V26.8901C107.024 27.0139 107.33 27.1284 107.664 27.2336C108.004 27.3326 108.345 27.3821 108.685 27.3821C109.087 27.3821 109.378 27.3047 109.558 27.15C109.743 26.9891 109.836 26.7849 109.836 26.5374C109.836 26.2651 109.719 26.0485 109.483 25.8876C109.248 25.7205 108.905 25.5411 108.453 25.3492C108.181 25.2378 107.918 25.1017 107.664 24.9408C107.417 24.7737 107.212 24.5664 107.051 24.3189C106.897 24.0651 106.819 23.7495 106.819 23.3721C106.819 22.8089 107.017 22.3665 107.413 22.0447C107.816 21.7229 108.351 21.562 109.019 21.562C109.366 21.562 109.694 21.5991 110.003 21.6734C110.319 21.7476 110.628 21.8528 110.931 21.989L110.551 22.9451C110.272 22.8275 110.006 22.7347 109.753 22.6666C109.505 22.5985 109.248 22.5645 108.982 22.5645C108.66 22.5645 108.416 22.6357 108.249 22.778C108.082 22.9203 107.998 23.1091 107.998 23.3442C107.998 23.5237 108.045 23.6784 108.137 23.8083C108.23 23.9321 108.373 24.0466 108.564 24.1518C108.763 24.257 109.016 24.3777 109.326 24.5138C109.685 24.6685 109.988 24.8325 110.235 25.0058C110.489 25.1729 110.681 25.374 110.811 25.6091C110.947 25.8381 111.015 26.1258 111.015 26.4724ZM114.745 28.2825H111.96V27.6049L112.758 27.3078V22.6387L111.96 22.3324V21.6548H114.745V22.3324L113.946 22.6387V27.3078L114.745 27.6049V28.2825ZM118.812 24.6438H121.318V28.0133C120.965 28.1309 120.603 28.2206 120.232 28.2825C119.86 28.3444 119.44 28.3753 118.969 28.3753C117.967 28.3753 117.196 28.0783 116.658 27.4842C116.12 26.8901 115.85 26.0485 115.85 24.9594C115.85 24.2663 115.984 23.666 116.25 23.1586C116.522 22.6511 116.915 22.2582 117.428 21.9797C117.942 21.7012 118.567 21.562 119.304 21.562C119.669 21.562 120.018 21.5991 120.352 21.6734C120.687 21.7476 120.993 21.8435 121.271 21.9611L120.863 22.9358C120.646 22.8368 120.402 22.7501 120.13 22.6759C119.857 22.6016 119.573 22.5645 119.276 22.5645C118.824 22.5645 118.434 22.6635 118.106 22.8615C117.778 23.0595 117.524 23.3411 117.345 23.7062C117.172 24.0651 117.085 24.489 117.085 24.9779C117.085 25.4482 117.153 25.8628 117.289 26.2218C117.425 26.5807 117.642 26.8623 117.939 27.0665C118.236 27.2707 118.623 27.3728 119.099 27.3728C119.334 27.3728 119.533 27.3604 119.693 27.3357C119.86 27.3109 120.012 27.2831 120.148 27.2521V25.6555H118.812V24.6438ZM128.768 28.2825H127.292L124.154 23.0843H124.117C124.13 23.3628 124.142 23.6629 124.154 23.9847C124.173 24.3003 124.188 24.619 124.201 24.9408V28.2825H123.133V21.6548H124.6L127.728 26.8158H127.756C127.75 26.5683 127.737 26.2837 127.719 25.9619C127.706 25.6401 127.697 25.3276 127.691 25.0243V21.6548H128.768V28.2825ZM98.5399 35.4724C98.5399 36.0603 98.3264 36.5244 97.8995 36.8648C97.4725 37.2051 96.8815 37.3753 96.1265 37.3753C95.3963 37.3753 94.7775 37.2515 94.27 37.004V35.8901C94.5485 36.0139 94.8548 36.1284 95.189 36.2336C95.5293 36.3326 95.8697 36.3821 96.2101 36.3821C96.6123 36.3821 96.9031 36.3047 97.0826 36.15C97.2682 35.9891 97.3611 35.7849 97.3611 35.5374C97.3611 35.2651 97.2435 35.0485 97.0083 34.8876C96.7732 34.7205 96.4297 34.5411 95.978 34.3492C95.7057 34.2378 95.4427 34.1017 95.189 33.9408C94.9415 33.7737 94.7372 33.5664 94.5763 33.3189C94.4216 33.0651 94.3443 32.7495 94.3443 32.3721C94.3443 31.8089 94.5423 31.3665 94.9384 31.0447C95.3406 30.7229 95.8759 30.562 96.5442 30.562C96.8908 30.562 97.2187 30.5991 97.5282 30.6734C97.8438 30.7476 98.1532 30.8528 98.4564 30.989L98.0758 31.9451C97.7973 31.8275 97.5313 31.7347 97.2775 31.6666C97.03 31.5985 96.7732 31.5645 96.5071 31.5645C96.1853 31.5645 95.9409 31.6357 95.7738 31.778C95.6067 31.9203 95.5232 32.1091 95.5232 32.3442C95.5232 32.5237 95.5696 32.6784 95.6624 32.8083C95.7552 32.9321 95.8975 33.0466 96.0894 33.1518C96.2874 33.257 96.5411 33.3777 96.8505 33.5138C97.2095 33.6685 97.5127 33.8325 97.7602 34.0058C98.0139 34.1729 98.2058 34.374 98.3357 34.6091C98.4719 34.8381 98.5399 35.1258 98.5399 35.4724ZM101.954 33.5788L103.467 30.6548H104.748L102.548 34.702V37.2825H101.36V34.7484L99.1601 30.6548H100.45L101.954 33.5788ZM109.692 35.4724C109.692 36.0603 109.478 36.5244 109.051 36.8648C108.624 37.2051 108.033 37.3753 107.278 37.3753C106.548 37.3753 105.929 37.2515 105.422 37.004V35.8901C105.7 36.0139 106.006 36.1284 106.341 36.2336C106.681 36.3326 107.021 36.3821 107.362 36.3821C107.764 36.3821 108.055 36.3047 108.234 36.15C108.42 35.9891 108.513 35.7849 108.513 35.5374C108.513 35.2651 108.395 35.0485 108.16 34.8876C107.925 34.7205 107.581 34.5411 107.13 34.3492C106.857 34.2378 106.594 34.1017 106.341 33.9408C106.093 33.7737 105.889 33.5664 105.728 33.3189C105.573 33.0651 105.496 32.7495 105.496 32.3721C105.496 31.8089 105.694 31.3665 106.09 31.0447C106.492 30.7229 107.028 30.562 107.696 30.562C108.042 30.562 108.37 30.5991 108.68 30.6734C108.995 30.7476 109.305 30.8528 109.608 30.989L109.227 31.9451C108.949 31.8275 108.683 31.7347 108.429 31.6666C108.182 31.5985 107.925 31.5645 107.659 31.5645C107.337 31.5645 107.092 31.6357 106.925 31.778C106.758 31.9203 106.675 32.1091 106.675 32.3442C106.675 32.5237 106.721 32.6784 106.814 32.8083C106.907 32.9321 107.049 33.0466 107.241 33.1518C107.439 33.257 107.693 33.3777 108.002 33.5138C108.361 33.6685 108.664 33.8325 108.912 34.0058C109.166 34.1729 109.357 34.374 109.487 34.6091C109.623 34.8381 109.692 35.1258 109.692 35.4724ZM113.551 37.2825H112.363V31.6573H110.46V30.6548H115.454V31.6573H113.551V37.2825ZM120.47 37.2825H116.701V30.6548H120.47V31.648H117.889V33.3374H120.302V34.3307H117.889V36.28H120.47V37.2825ZM124.959 37.2825L123.139 31.8522H123.102C123.115 31.976 123.124 32.1524 123.13 32.3813C123.142 32.6041 123.152 32.8486 123.158 33.1147C123.17 33.3746 123.176 33.619 123.176 33.848V37.2825H122.109V30.6548H123.761L125.506 35.8623H125.544L127.363 30.6548H129.015V37.2825H127.883V33.7923C127.883 33.5819 127.886 33.3529 127.892 33.1054C127.904 32.8517 127.914 32.6134 127.92 32.3906C127.932 32.1617 127.941 31.9853 127.948 31.8615H127.911L126.017 37.2825H124.959Z" fill="#006ADD"/>
</svg>
