<svg width="200" height="200" viewBox="0 0 200 200" fill="none" xmlns="http://www.w3.org/2000/svg"><path d="M113.586 58.917s.01-.04.02-.07c4.11-15.79-5.58-31.98-21.64-36.17-16.08-4.18-32.44 5.23-36.55 21.02v.02s-.01.03-.02.05c-.09.21-.18.44-.24.67 0 0-.4 1.52-1.1 4.21-.62 2.37.82 4.79 3.2 5.41l3.65.95c2.39.62 4.82-.79 5.44-3.16l.09-.34c2.44-9.36 11.97-14.99 21.28-12.56 9.31 2.43 14.28 11.85 12.44 21.35-4.26 22.06-24.34 16.32-33.33 13.98-3.5-.91-13.99-3.65-13.99-3.65-2.33-.61-4.71.8-5.32 3.14l-19.9 76.38c-.61 2.34.78 4.73 3.11 5.34l49.87 12.99c2.33.61 4.71-.8 5.32-3.14l19.9-76.38 7.64-29.33c.06-.23.1-.47.12-.7l.01-.01Z" fill="#DEDFE8"/><path d="M51.36 37.378a4.7 4.7 0 0 0-.24.66l-.02.06c.06-.23.14-.46.24-.67 0-.02 0-.03.01-.05h.01Z" fill="url(#a)"/><path d="M109.54 52.588s.01-.04.02-.07c4.11-15.79-5.58-31.98-21.64-36.17-16.08-4.18-32.44 5.23-36.55 21.02v.02s-.01.03-.02.05c-.09.21-.18.44-.24.67 0 0-.4 1.52-1.1 4.21-.62 2.37.82 4.79 3.2 5.41l3.65.95c2.39.62 4.82-.79 5.44-3.16l.09-.34c2.44-9.36 11.97-14.99 21.28-12.56 9.31 2.43 14.28 11.85 12.44 21.35-4.26 22.06-24.34 16.32-33.33 13.98-3.5-.91-13.99-3.65-13.99-3.65-2.33-.61-4.71.8-5.32 3.14l-19.9 76.38c-.61 2.34.78 4.73 3.11 5.34l49.87 12.99c2.33.61 4.71-.8 5.32-3.14l19.9-76.38 7.64-29.33c.06-.23.1-.47.12-.7l.01-.01Z" fill="url(#b)"/><path d="M59.8 148.348c13.365 0 24.2-10.834 24.2-24.2 0-13.365-10.835-24.2-24.2-24.2-13.366 0-24.2 10.835-24.2 24.2 0 13.366 10.834 24.2 24.2 24.2Z" fill="#fff"/><path d="M59.8 148.348c13.365 0 24.2-10.834 24.2-24.2 0-13.365-10.835-24.2-24.2-24.2-13.366 0-24.2 10.835-24.2 24.2 0 13.366 10.834 24.2 24.2 24.2Z" fill="url(#c)"/><path d="m49.43 112.316 25.076 6.238c.572.142.922.724.78 1.297l-1.386 5.57-27.143-6.753 1.386-5.57a1.072 1.072 0 0 1 1.297-.78l-.01-.002Z" fill="url(#d)"/><path d="m74.587 125.586-28.52-7.095a.91.91 0 0 0-1.103.664l-1.837 7.384a.91.91 0 0 0 .663 1.103l28.52 7.095a.909.909 0 0 0 1.104-.663l1.837-7.385a.91.91 0 0 0-.664-1.103Z" fill="url(#e)"/><path d="M59.83 121.918c.07-.13.12-.26.16-.41.24-.95-.35-1.92-1.3-2.16l-7.77-1.93c-.95-.24-1.92.35-2.16 1.3-.04.14-.05.29-.05.43l11.11 2.76.01.01ZM71.93 124.928c.07-.13.12-.26.16-.41.24-.95-.35-1.92-1.3-2.16l-7.77-1.93c-.95-.24-1.92.35-2.16 1.3-.04.14-.05.29-.05.43l11.11 2.76.01.01Z" fill="#F5F9FF"/><path d="m44.473 127.816 3.687.917-.2.806a.88.88 0 0 1-1.067.641l-1.989-.495a.881.881 0 0 1-.642-1.066l.2-.806.01.003ZM68.379 133.759l3.688.918-.2.805a.882.882 0 0 1-1.067.642l-1.99-.495a.881.881 0 0 1-.641-1.066l.2-.806.01.002Z" fill="#fff"/><path d="M177.93 99.53c0-31.52-25.55-57.07-57.07-57.07S63.79 68.01 63.79 99.53s25.55 57.07 57.07 57.07 57.07-25.55 57.07-57.07Zm-109.19 0c0-28.78 23.33-52.12 52.12-52.12s52.12 23.33 52.12 52.12-23.33 52.12-52.12 52.12-52.12-23.33-52.12-52.12Z" fill="url(#f)"/><path opacity=".15" d="m160.75 153.618-2.56 1.44-1.38-2.45 2.56-1.44-2.2-3.9-2.56 1.44-1.38-2.45 2.56-1.44-2.2-3.9-2.56 1.44-2.4 1.36.22.4-1.77 1 6.59 11.67-6.65-11.77-10.27-18.18s-.04.03-.05.05c.14-.12.28-.25.42-.38.04-.03.08-.07.11-.1.17-.16.34-.32.5-.49 3.92-4.03 5.43-9.95 3.89-15.38-.01-.05-.03-.09-.04-.14-.05-.18-.11-.36-.17-.54l-.09-.27-.15-.42c-.05-.12-.1-.25-.15-.37-.05-.11-.09-.22-.14-.33-.06-.15-.13-.29-.2-.43-.04-.09-.09-.18-.13-.27 0-.02-.02-.03-.02-.05-.05-.09-.1-.18-.15-.28-.07-.14-.15-.28-.22-.41-.06-.11-.13-.22-.19-.32-.08-.13-.15-.26-.23-.38-.07-.11-.14-.21-.21-.31-.08-.12-.16-.25-.25-.37-.07-.1-.15-.2-.22-.3-.09-.12-.18-.24-.27-.35-.08-.09-.15-.19-.23-.28-.1-.11-.19-.23-.29-.34-.08-.09-.16-.17-.24-.26-.1-.11-.2-.22-.31-.32-.08-.08-.16-.16-.25-.24-.11-.1-.21-.21-.32-.31-.08-.08-.17-.15-.25-.23-.11-.1-.23-.2-.34-.3-.03-.03-.06-.05-.09-.08-.01 0-.02-.01-.03-.02a15.92 15.92 0 0 0-8.26-3.47c4.57-.01 9.21-1.16 13.47-3.58 13.17-7.49 17.77-24.23 10.28-37.4-7.49-13.17-24.23-17.77-37.4-10.28-13.17 7.49-17.77 24.23-10.28 37.4 4.17 7.34 11.22 12.01 18.91 13.42l-.06.7c-1.97.42-3.91 1.22-5.69 2.45-6.2 4.26-8.52 12.51-5.49 19.39a15.767 15.767 0 0 0 4.74 6.09c.15.11.29.22.44.33.02.01.04.03.06.04.15.11.29.21.44.31.03.02.05.04.08.05.63.42 1.29.78 1.96 1.1.04.02.09.04.13.06.15.07.3.14.45.2.04.02.08.03.13.05.48.2.97.37 1.46.52.06.02.12.04.18.05l.42.12.23.06c.14.03.28.07.41.1.08.02.15.03.23.05.24.05.49.09.74.13.09.01.18.03.27.04.12.02.24.03.37.04l.32.03.36.03c.12 0 .23.01.35.02.11 0 .22.01.33.01H126.91c.15 0 .29 0 .44-.02.1 0 .2-.01.3-.02.14-.01.27-.02.41-.04.1 0 .19-.02.29-.03.16-.02.32-.04.47-.07l.22-.03c.22-.04.45-.08.67-.13.07-.02.14-.03.21-.05.16-.04.32-.07.48-.12.08-.02.17-.04.25-.07.16-.04.31-.09.47-.14.08-.02.15-.05.23-.07h-.01l19.21 34.01c.75 1.34 2.35 2.06 3.8 1.56 1.9-.66 2.66-2.83 1.72-4.5l-.08-.14 1.77-1 .27.47 2.4-1.36 2.56-1.44-2.2-3.9-.04.03Zm-33.46-41.81v.05c-.02.14-.05.28-.09.41-.04.14-.09.27-.15.4 0 0 0 .02-.01.03-.06.12-.12.24-.2.35-.02.02-.03.05-.05.07-.07.11-.15.21-.24.3l-.04.04c-.08.08-.17.16-.26.23-.02.01-.03.03-.04.04 0 0-.02.01-.03.02-.09.07-.19.13-.29.19-.02.01-.05.02-.07.04-.02.01-.05.03-.07.04-.13.06-.26.12-.39.16h-.03c-.13.04-.26.07-.39.09-.02 0-.04 0-.07.01-.13.02-.27.02-.4.02h-.08c-.13 0-.27-.02-.4-.04h-.03c-.13-.02-.25-.06-.38-.1-.02 0-.04-.01-.06-.02-.12-.05-.25-.1-.36-.16a2.538 2.538 0 0 1-.41-.27c-.44-.34-.79-.82-.97-1.42-.26-.84-.08-1.76.43-2.46l-.07.78c-.1 1.21.81 2.29 2.02 2.39l.27.02c1.21.1 2.29-.81 2.39-2.02l.08-.99s.02.03.03.05c0 .01.02.02.02.04.01.02.02.05.04.07.02.05.05.09.07.14.02.04.03.08.05.12.01.03.03.06.04.09 0 .01 0 .03.01.04.04.12.08.25.1.37 0 .03 0 .06.01.08.02.12.03.24.04.36v.05c0 .14 0 .27-.02.41v-.02Z" fill="url(#g)"/><path d="m146.333 144.638-1.776 1.003 8.882 15.725 1.776-1.003-8.882-15.725Z" fill="url(#h)"/><path d="m155.48 160.85 2.4-1.36 2.56-1.44-2.21-3.9-2.55 1.44-1.39-2.45 2.56-1.44-2.2-3.9-2.56 1.44-1.38-2.45 2.55-1.44-2.2-3.9-2.56 1.44-2.4 1.36 9.38 16.6Z" fill="url(#i)"/><path d="M135.62 131.07c-.16.17-.33.33-.5.49.17-.16.34-.32.5-.49Z" fill="url(#j)"/><path d="M132.75 133.39c.07-.04.14-.09.21-.14-.07.04-.14.09-.21.14Z" fill="url(#k)"/><path d="M131.94 133.87s.09-.05.13-.07c.01 0 .03-.02.04-.03-.06.03-.12.06-.18.1h.01Z" fill="url(#l)"/><path d="M131.45 134.13c-.07.04-.15.08-.22.11.08-.04.15-.07.22-.11Z" fill="url(#m)"/><path d="M133.4 132.96c.09-.06.18-.13.26-.19-.09.06-.17.13-.26.19Z" fill="url(#n)"/><path d="M123.69 119.13s-.05.03-.07.04c.03-.01.05-.02.07-.04Z" fill="url(#o)"/><path d="M124.93 117.82s0 .02-.01.03c0 0 0-.02.01-.03Z" fill="url(#p)"/><path d="m124.08 118.89.04-.04c-.02.02-.05.04-.07.06 0 0 .02-.01.03-.02Z" fill="url(#q)"/><path d="M124.72 118.2s-.03.05-.05.07c.02-.02.03-.05.05-.07Z" fill="url(#r)"/><path d="M121.04 119.12s-.04-.02-.07-.04c.02.01.04.02.07.04Z" fill="url(#s)"/><path d="M121.46 119.3s-.04-.01-.06-.02c.02 0 .04.01.06.02Z" fill="url(#t)"/><path d="M122.81 119.42s-.04 0-.07.01c.02 0 .04 0 .07-.01Z" fill="url(#u)"/><path d="m124.43 118.57-.04.04.04-.04Z" fill="url(#v)"/><path d="M124.87 115.32s.05.09.07.14c-.02-.05-.05-.09-.07-.14Z" fill="url(#w)"/><path d="M125.03 115.66s-.02-.06-.04-.09c.02.04.03.08.05.13 0-.01 0-.03-.01-.04Z" fill="url(#x)"/><path d="M124.73 115.07s.06.09.08.13c-.03-.05-.06-.09-.08-.13Z" fill="url(#y)"/><path d="M125.14 116.07s0 .06.01.08c0-.03 0-.06-.01-.08Z" fill="url(#z)"/><path d="M124.58 114.86s.06.07.09.11c-.03-.04-.06-.07-.09-.11Z" fill="url(#A)"/><path d="M114.55 128.19c-.16-.12-.32-.24-.48-.37.01.01.02.02.04.03.15.11.29.22.44.33v.01Z" fill="url(#B)"/><path d="M114.86 102.36c-6.2 4.26-8.52 12.51-5.49 19.39 1.1 2.49 2.74 4.52 4.7 6.06.01.01.02.02.04.03.15.11.29.22.44.33.02.01.04.03.06.04.15.11.29.21.44.31.03.02.05.04.08.05.63.42 1.29.78 1.96 1.1.04.02.09.04.13.06.15.07.3.14.45.2.04.02.08.03.13.05.48.2.97.37 1.46.52.06.02.12.04.18.05l.42.12.23.06c.14.03.28.07.41.1.08.02.15.03.23.05.24.05.49.09.74.13.09.01.18.03.27.04.12.02.24.03.37.04l.32.03.36.03c.12 0 .23.01.35.02.11 0 .22.01.33.01H124.36c.15 0 .29 0 .44-.02.1 0 .2-.01.3-.02.14-.01.27-.02.41-.04.1 0 .19-.02.29-.03.16-.02.32-.04.47-.07l.22-.03c.22-.04.45-.08.67-.13.07-.02.14-.03.21-.05.16-.04.32-.07.48-.12.08-.02.17-.04.25-.07.16-.04.31-.09.47-.14.08-.02.15-.05.23-.07h-.01L148 164.4c.75 1.34 2.35 2.06 3.8 1.56 1.9-.66 2.66-2.83 1.72-4.5l-.14-.24-8.88-15.73-10.27-18.18s-.04.03-.05.05c.14-.12.28-.25.42-.38.04-.03.08-.07.11-.1.17-.16.34-.32.5-.49 3.92-4.03 5.43-9.95 3.89-15.38-.01-.05-.03-.09-.04-.14-.05-.18-.11-.36-.17-.54l-.09-.27-.15-.42c-.05-.12-.1-.25-.15-.37-.05-.11-.09-.22-.14-.33-.06-.15-.13-.29-.2-.43-.04-.09-.09-.18-.13-.27 0-.02-.02-.03-.02-.05-.05-.09-.1-.18-.15-.28-.07-.14-.15-.28-.22-.41-.06-.11-.13-.22-.19-.32-.08-.13-.15-.26-.23-.38-.07-.11-.14-.21-.21-.31-.08-.12-.16-.25-.25-.37-.07-.1-.15-.2-.22-.3-.09-.12-.18-.24-.27-.35-.08-.09-.15-.19-.23-.28-.1-.11-.19-.23-.29-.34-.08-.09-.16-.17-.24-.26-.1-.11-.2-.22-.31-.32a5.78 5.78 0 0 0-.25-.24c-.11-.1-.21-.21-.32-.31-.08-.08-.17-.15-.25-.23-.11-.1-.23-.2-.34-.3-.03-.03-.06-.05-.09-.08-.01 0-.02-.01-.03-.02-5.25-4.29-12.97-4.93-19.03-.76l-.03.03Zm5.7 12.09c-.12-.07-.23-.14-.34-.23-.44-.34-.79-.82-.97-1.42-.31-1.02 0-2.18.81-2.89 1.24-1.1 3.02-.91 4.02.22.03.03.06.07.09.11.03.04.06.07.09.11l.07.1c.03.04.06.09.08.13 0 .01.02.02.02.04.01.02.02.05.04.07.02.05.05.09.07.14.02.04.03.08.05.12.01.03.03.06.04.09 0 .01 0 .03.01.04.04.12.08.25.1.37 0 .03 0 .06.01.08.02.12.03.24.04.36v.05c0 .14 0 .27-.02.41v.05c-.02.14-.05.28-.09.41-.04.14-.09.27-.15.4 0 0 0 .02-.01.03-.06.12-.12.24-.2.35-.02.02-.03.05-.05.07-.07.11-.15.21-.24.3l-.04.04c-.08.08-.17.16-.26.23-.02.01-.03.03-.04.04 0 0-.02.01-.03.02-.09.07-.19.13-.29.19-.02.01-.05.02-.07.04-.02.01-.05.03-.07.04-.13.06-.26.12-.39.16h-.03c-.13.04-.26.07-.39.09-.02 0-.04 0-.07.01-.13.02-.27.02-.4.02h-.08c-.13 0-.27-.02-.4-.04h-.03c-.13-.02-.25-.06-.38-.1-.02 0-.04-.01-.06-.02-.12-.05-.25-.1-.36-.16a.574.574 0 0 1-.07-.04l-.01-.03Z" fill="url(#C)"/><path d="M125.54 99.67c15.15 0 27.43-12.28 27.43-27.43s-12.28-27.43-27.43-27.43c-15.149 0-27.43 12.28-27.43 27.43s12.281 27.43 27.43 27.43Z" fill="#fff"/><path d="M125.54 99.67c15.15 0 27.43-12.28 27.43-27.43s-12.28-27.43-27.43-27.43c-15.149 0-27.43 12.28-27.43 27.43s12.281 27.43 27.43 27.43Z" fill="url(#D)"/><path opacity=".75" d="M125.54 95.95c13.095 0 23.71-10.615 23.71-23.71s-10.615-23.71-23.71-23.71-23.71 10.615-23.71 23.71 10.615 23.71 23.71 23.71Z" stroke="#fff" stroke-width=".75" stroke-miterlimit="10"/><path d="M124.48 93.78a4.34 4.34 0 1 0 0-8.68 4.34 4.34 0 0 0 0 8.68Z" fill="#fff"/><path d="m123.851 90.41-.279-.023a2.21 2.21 0 0 0-2.387 2.017l-1.573 18.734a2.21 2.21 0 0 0 2.017 2.388l.279.023a2.21 2.21 0 0 0 2.388-2.017l1.573-18.734a2.21 2.21 0 0 0-2.018-2.388Z" fill="url(#E)"/><defs><radialGradient id="a" cx="0" cy="0" r="1" gradientUnits="userSpaceOnUse" gradientTransform="rotate(14.6 -121.742 218.87) scale(.27)"><stop stop-color="#fff"/><stop offset=".22" stop-color="#016AF8"/><stop offset=".58" stop-color="#104BAE"/><stop offset=".86" stop-color="#1B357A"/><stop offset="1" stop-color="#202D66"/></radialGradient><radialGradient id="b" cx="0" cy="0" r="1" gradientUnits="userSpaceOnUse" gradientTransform="rotate(133.739 75.15 27.79) scale(415.439)"><stop stop-color="#fff"/><stop offset=".07" stop-color="#F8FBFE"/><stop offset=".307" stop-color="#E6F0FE"/><stop offset=".448" stop-color="#C9DFFD"/><stop offset=".709" stop-color="#A0C7FC"/></radialGradient><radialGradient id="c" cx="0" cy="0" r="1" gradientUnits="userSpaceOnUse" gradientTransform="rotate(155.158 61.877 59.662) scale(126.738)"><stop offset=".23" stop-color="#fff"/><stop offset=".26" stop-color="#D6E7FF"/><stop offset=".3" stop-color="#95C2FF"/><stop offset=".34" stop-color="#60A4FF"/><stop offset=".38" stop-color="#368CFF"/><stop offset=".41" stop-color="#187BFF"/><stop offset=".44" stop-color="#0670FF"/><stop offset=".46" stop-color="#006DFF"/><stop offset=".5" stop-color="#006BFA"/><stop offset=".54" stop-color="#0365EC"/><stop offset=".58" stop-color="#085BD5"/><stop offset=".63" stop-color="#0F4EB6"/><stop offset=".67" stop-color="#173D8D"/><stop offset=".71" stop-color="#202D66"/></radialGradient><radialGradient id="d" cx="0" cy="0" r="1" gradientUnits="userSpaceOnUse" gradientTransform="matrix(-92.36704 26.75995 -26.75992 -92.36694 115.491 102.695)"><stop offset=".2" stop-color="#fff"/><stop offset=".28" stop-color="#E2EEFF"/><stop offset=".555" stop-color="#4192FF"/><stop offset=".684" stop-color="#006BFA"/><stop offset=".9" stop-color="#0365ED"/><stop offset=".91" stop-color="#085CD7"/><stop offset=".92" stop-color="#0E4FB9"/><stop offset=".93" stop-color="#163F93"/><stop offset=".94" stop-color="#202D66"/></radialGradient><radialGradient id="e" cx="0" cy="0" r="1" gradientUnits="userSpaceOnUse" gradientTransform="rotate(-6.212 1258.42 -208.035) scale(90.236)"><stop offset=".03" stop-color="#006DFF"/><stop offset=".158" stop-color="#0771FF"/><stop offset=".331" stop-color="#4E9AFF"/><stop offset=".447" stop-color="#8ABBFF"/><stop offset=".608" stop-color="#B8D6FF"/><stop offset=".65" stop-color="#D9E9FF"/><stop offset=".76" stop-color="#EDF4FF"/><stop offset=".83" stop-color="#F5F9FF"/></radialGradient><radialGradient id="f" cx="0" cy="0" r="1" gradientUnits="userSpaceOnUse" gradientTransform="rotate(90 10.66 110.19) scale(142.19)"><stop offset=".54" stop-color="#fff" stop-opacity="0"/><stop offset=".7" stop-color="#006BFA"/><stop offset=".71" stop-color="#0365EC"/><stop offset=".72" stop-color="#085BD5"/><stop offset=".73" stop-color="#0F4EB6"/><stop offset=".74" stop-color="#202D66"/></radialGradient><radialGradient id="j" cx="0" cy="0" r="1" gradientUnits="userSpaceOnUse" gradientTransform="matrix(109.38644 -203.49203 203.4929 109.38692 126.142 50.595)"><stop stop-color="#fff"/><stop offset=".11" stop-color="#FBFCFE"/><stop offset=".21" stop-color="#EFF6FE"/><stop offset=".3" stop-color="#DDEBFE"/><stop offset=".4" stop-color="#C2DBFD"/><stop offset=".49" stop-color="#A0C7FC"/><stop offset=".59" stop-color="#76AEFB"/><stop offset=".68" stop-color="#4491F9"/><stop offset=".77" stop-color="#0B70F8"/><stop offset=".78" stop-color="#016AF8"/><stop offset=".88" stop-color="#104BAE"/><stop offset=".96" stop-color="#1B357A"/><stop offset="1" stop-color="#202D66"/></radialGradient><radialGradient id="k" cx="0" cy="0" r="1" gradientUnits="userSpaceOnUse" gradientTransform="rotate(-61.74 105.39 -80.212) scale(231.029)"><stop stop-color="#fff"/><stop offset=".11" stop-color="#FBFCFE"/><stop offset=".21" stop-color="#EFF6FE"/><stop offset=".3" stop-color="#DDEBFE"/><stop offset=".4" stop-color="#C2DBFD"/><stop offset=".49" stop-color="#A0C7FC"/><stop offset=".59" stop-color="#76AEFB"/><stop offset=".68" stop-color="#4491F9"/><stop offset=".77" stop-color="#0B70F8"/><stop offset=".78" stop-color="#016AF8"/><stop offset=".88" stop-color="#104BAE"/><stop offset=".96" stop-color="#1B357A"/><stop offset="1" stop-color="#202D66"/></radialGradient><radialGradient id="l" cx="0" cy="0" r="1" gradientUnits="userSpaceOnUse" gradientTransform="rotate(-61.741 105.384 -80.21) scale(231.041 231.033)"><stop stop-color="#fff"/><stop offset=".11" stop-color="#FBFCFE"/><stop offset=".21" stop-color="#EFF6FE"/><stop offset=".3" stop-color="#DDEBFE"/><stop offset=".4" stop-color="#C2DBFD"/><stop offset=".49" stop-color="#A0C7FC"/><stop offset=".59" stop-color="#76AEFB"/><stop offset=".68" stop-color="#4491F9"/><stop offset=".77" stop-color="#0B70F8"/><stop offset=".78" stop-color="#016AF8"/><stop offset=".88" stop-color="#104BAE"/><stop offset=".96" stop-color="#1B357A"/><stop offset="1" stop-color="#202D66"/></radialGradient><radialGradient id="m" cx="0" cy="0" r="1" gradientUnits="userSpaceOnUse" gradientTransform="rotate(-61.741 105.389 -80.21) scale(231.029 231.025)"><stop stop-color="#fff"/><stop offset=".11" stop-color="#FBFCFE"/><stop offset=".21" stop-color="#EFF6FE"/><stop offset=".3" stop-color="#DDEBFE"/><stop offset=".4" stop-color="#C2DBFD"/><stop offset=".49" stop-color="#A0C7FC"/><stop offset=".59" stop-color="#76AEFB"/><stop offset=".68" stop-color="#4491F9"/><stop offset=".77" stop-color="#0B70F8"/><stop offset=".78" stop-color="#016AF8"/><stop offset=".88" stop-color="#104BAE"/><stop offset=".96" stop-color="#1B357A"/><stop offset="1" stop-color="#202D66"/></radialGradient><radialGradient id="n" cx="0" cy="0" r="1" gradientUnits="userSpaceOnUse" gradientTransform="rotate(-61.74 105.39 -80.212) scale(231.033 231.032)"><stop stop-color="#fff"/><stop offset=".11" stop-color="#FBFCFE"/><stop offset=".21" stop-color="#EFF6FE"/><stop offset=".3" stop-color="#DDEBFE"/><stop offset=".4" stop-color="#C2DBFD"/><stop offset=".49" stop-color="#A0C7FC"/><stop offset=".59" stop-color="#76AEFB"/><stop offset=".68" stop-color="#4491F9"/><stop offset=".77" stop-color="#0B70F8"/><stop offset=".78" stop-color="#016AF8"/><stop offset=".88" stop-color="#104BAE"/><stop offset=".96" stop-color="#1B357A"/><stop offset="1" stop-color="#202D66"/></radialGradient><radialGradient id="o" cx="0" cy="0" r="1" gradientUnits="userSpaceOnUse" gradientTransform="rotate(-61.741 105.388 -80.211) scale(231.034 231.03)"><stop stop-color="#fff"/><stop offset=".11" stop-color="#FBFCFE"/><stop offset=".21" stop-color="#EFF6FE"/><stop offset=".3" stop-color="#DDEBFE"/><stop offset=".4" stop-color="#C2DBFD"/><stop offset=".49" stop-color="#A0C7FC"/><stop offset=".59" stop-color="#76AEFB"/><stop offset=".68" stop-color="#4491F9"/><stop offset=".77" stop-color="#0B70F8"/><stop offset=".78" stop-color="#016AF8"/><stop offset=".88" stop-color="#104BAE"/><stop offset=".96" stop-color="#1B357A"/><stop offset="1" stop-color="#202D66"/></radialGradient><radialGradient id="p" cx="0" cy="0" r="1" gradientUnits="userSpaceOnUse" gradientTransform="matrix(.00474 -.0088 .0088 .00474 124.934 117.849)"><stop stop-color="#fff"/><stop offset=".11" stop-color="#FBFCFE"/><stop offset=".21" stop-color="#EFF6FE"/><stop offset=".3" stop-color="#DDEBFE"/><stop offset=".4" stop-color="#C2DBFD"/><stop offset=".49" stop-color="#A0C7FC"/><stop offset=".59" stop-color="#76AEFB"/><stop offset=".68" stop-color="#4491F9"/><stop offset=".77" stop-color="#0B70F8"/><stop offset=".78" stop-color="#016AF8"/><stop offset=".88" stop-color="#104BAE"/><stop offset=".96" stop-color="#1B357A"/><stop offset="1" stop-color="#202D66"/></radialGradient><radialGradient id="q" cx="0" cy="0" r="1" gradientUnits="userSpaceOnUse" gradientTransform="matrix(109.38585 -203.51051 203.50082 109.38064 126.141 50.589)"><stop stop-color="#fff"/><stop offset=".11" stop-color="#FBFCFE"/><stop offset=".21" stop-color="#EFF6FE"/><stop offset=".3" stop-color="#DDEBFE"/><stop offset=".4" stop-color="#C2DBFD"/><stop offset=".49" stop-color="#A0C7FC"/><stop offset=".59" stop-color="#76AEFB"/><stop offset=".68" stop-color="#4491F9"/><stop offset=".77" stop-color="#0B70F8"/><stop offset=".78" stop-color="#016AF8"/><stop offset=".88" stop-color="#104BAE"/><stop offset=".96" stop-color="#1B357A"/><stop offset="1" stop-color="#202D66"/></radialGradient><radialGradient id="r" cx="0" cy="0" r="1" gradientUnits="userSpaceOnUse" gradientTransform="matrix(109.39319 -203.4918 203.49973 109.39745 126.142 50.595)"><stop stop-color="#fff"/><stop offset=".11" stop-color="#FBFCFE"/><stop offset=".21" stop-color="#EFF6FE"/><stop offset=".3" stop-color="#DDEBFE"/><stop offset=".4" stop-color="#C2DBFD"/><stop offset=".49" stop-color="#A0C7FC"/><stop offset=".59" stop-color="#76AEFB"/><stop offset=".68" stop-color="#4491F9"/><stop offset=".77" stop-color="#0B70F8"/><stop offset=".78" stop-color="#016AF8"/><stop offset=".88" stop-color="#104BAE"/><stop offset=".96" stop-color="#1B357A"/><stop offset="1" stop-color="#202D66"/></radialGradient><radialGradient id="s" cx="0" cy="0" r="1" gradientUnits="userSpaceOnUse" gradientTransform="rotate(-61.74 160.138 -41.666) scale(.03)"><stop stop-color="#fff"/><stop offset=".11" stop-color="#FBFCFE"/><stop offset=".21" stop-color="#EFF6FE"/><stop offset=".3" stop-color="#DDEBFE"/><stop offset=".4" stop-color="#C2DBFD"/><stop offset=".49" stop-color="#A0C7FC"/><stop offset=".59" stop-color="#76AEFB"/><stop offset=".68" stop-color="#4491F9"/><stop offset=".77" stop-color="#0B70F8"/><stop offset=".78" stop-color="#016AF8"/><stop offset=".88" stop-color="#104BAE"/><stop offset=".96" stop-color="#1B357A"/><stop offset="1" stop-color="#202D66"/></radialGradient><radialGradient id="t" cx="0" cy="0" r="1" gradientUnits="userSpaceOnUse" gradientTransform="rotate(-61.741 160.481 -41.926) scale(.02)"><stop stop-color="#fff"/><stop offset=".11" stop-color="#FBFCFE"/><stop offset=".21" stop-color="#EFF6FE"/><stop offset=".3" stop-color="#DDEBFE"/><stop offset=".4" stop-color="#C2DBFD"/><stop offset=".49" stop-color="#A0C7FC"/><stop offset=".59" stop-color="#76AEFB"/><stop offset=".68" stop-color="#4491F9"/><stop offset=".77" stop-color="#0B70F8"/><stop offset=".78" stop-color="#016AF8"/><stop offset=".88" stop-color="#104BAE"/><stop offset=".96" stop-color="#1B357A"/><stop offset="1" stop-color="#202D66"/></radialGradient><radialGradient id="u" cx="0" cy="0" r="1" gradientUnits="userSpaceOnUse" gradientTransform="rotate(-61.745 105.373 -80.208) scale(231.068 231.04)"><stop stop-color="#fff"/><stop offset=".11" stop-color="#FBFCFE"/><stop offset=".21" stop-color="#EFF6FE"/><stop offset=".3" stop-color="#DDEBFE"/><stop offset=".4" stop-color="#C2DBFD"/><stop offset=".49" stop-color="#A0C7FC"/><stop offset=".59" stop-color="#76AEFB"/><stop offset=".68" stop-color="#4491F9"/><stop offset=".77" stop-color="#0B70F8"/><stop offset=".78" stop-color="#016AF8"/><stop offset=".88" stop-color="#104BAE"/><stop offset=".96" stop-color="#1B357A"/><stop offset="1" stop-color="#202D66"/></radialGradient><radialGradient id="v" cx="0" cy="0" r="1" gradientUnits="userSpaceOnUse" gradientTransform="rotate(-61.74 105.388 -80.212) scale(231.035)"><stop stop-color="#fff"/><stop offset=".11" stop-color="#FBFCFE"/><stop offset=".21" stop-color="#EFF6FE"/><stop offset=".3" stop-color="#DDEBFE"/><stop offset=".4" stop-color="#C2DBFD"/><stop offset=".49" stop-color="#A0C7FC"/><stop offset=".59" stop-color="#76AEFB"/><stop offset=".68" stop-color="#4491F9"/><stop offset=".77" stop-color="#0B70F8"/><stop offset=".78" stop-color="#016AF8"/><stop offset=".88" stop-color="#104BAE"/><stop offset=".96" stop-color="#1B357A"/><stop offset="1" stop-color="#202D66"/></radialGradient><radialGradient id="w" cx="0" cy="0" r="1" gradientUnits="userSpaceOnUse" gradientTransform="rotate(-61.74 105.39 -80.212) scale(231.029)"><stop stop-color="#fff"/><stop offset=".11" stop-color="#FBFCFE"/><stop offset=".21" stop-color="#EFF6FE"/><stop offset=".3" stop-color="#DDEBFE"/><stop offset=".4" stop-color="#C2DBFD"/><stop offset=".49" stop-color="#A0C7FC"/><stop offset=".59" stop-color="#76AEFB"/><stop offset=".68" stop-color="#4491F9"/><stop offset=".77" stop-color="#0B70F8"/><stop offset=".78" stop-color="#016AF8"/><stop offset=".88" stop-color="#104BAE"/><stop offset=".96" stop-color="#1B357A"/><stop offset="1" stop-color="#202D66"/></radialGradient><radialGradient id="x" cx="0" cy="0" r="1" gradientUnits="userSpaceOnUse" gradientTransform="rotate(-61.738 105.393 -80.215) scale(231.029 231.04)"><stop stop-color="#fff"/><stop offset=".11" stop-color="#FBFCFE"/><stop offset=".21" stop-color="#EFF6FE"/><stop offset=".3" stop-color="#DDEBFE"/><stop offset=".4" stop-color="#C2DBFD"/><stop offset=".49" stop-color="#A0C7FC"/><stop offset=".59" stop-color="#76AEFB"/><stop offset=".68" stop-color="#4491F9"/><stop offset=".77" stop-color="#0B70F8"/><stop offset=".78" stop-color="#016AF8"/><stop offset=".88" stop-color="#104BAE"/><stop offset=".96" stop-color="#1B357A"/><stop offset="1" stop-color="#202D66"/></radialGradient><radialGradient id="y" cx="0" cy="0" r="1" gradientUnits="userSpaceOnUse" gradientTransform="matrix(109.37851 -203.48834 203.48306 109.37567 126.142 50.596)"><stop stop-color="#fff"/><stop offset=".11" stop-color="#FBFCFE"/><stop offset=".21" stop-color="#EFF6FE"/><stop offset=".3" stop-color="#DDEBFE"/><stop offset=".4" stop-color="#C2DBFD"/><stop offset=".49" stop-color="#A0C7FC"/><stop offset=".59" stop-color="#76AEFB"/><stop offset=".68" stop-color="#4491F9"/><stop offset=".77" stop-color="#0B70F8"/><stop offset=".78" stop-color="#016AF8"/><stop offset=".88" stop-color="#104BAE"/><stop offset=".96" stop-color="#1B357A"/><stop offset="1" stop-color="#202D66"/></radialGradient><radialGradient id="z" cx="0" cy="0" r="1" gradientUnits="userSpaceOnUse" gradientTransform="rotate(-61.735 105.392 -80.221) scale(231.045 231.069)"><stop stop-color="#fff"/><stop offset=".11" stop-color="#FBFCFE"/><stop offset=".21" stop-color="#EFF6FE"/><stop offset=".3" stop-color="#DDEBFE"/><stop offset=".4" stop-color="#C2DBFD"/><stop offset=".49" stop-color="#A0C7FC"/><stop offset=".59" stop-color="#76AEFB"/><stop offset=".68" stop-color="#4491F9"/><stop offset=".77" stop-color="#0B70F8"/><stop offset=".78" stop-color="#016AF8"/><stop offset=".88" stop-color="#104BAE"/><stop offset=".96" stop-color="#1B357A"/><stop offset="1" stop-color="#202D66"/></radialGradient><radialGradient id="A" cx="0" cy="0" r="1" gradientUnits="userSpaceOnUse" gradientTransform="rotate(-61.741 105.389 -80.21) scale(231.029 231.023)"><stop stop-color="#fff"/><stop offset=".11" stop-color="#FBFCFE"/><stop offset=".21" stop-color="#EFF6FE"/><stop offset=".3" stop-color="#DDEBFE"/><stop offset=".4" stop-color="#C2DBFD"/><stop offset=".49" stop-color="#A0C7FC"/><stop offset=".59" stop-color="#76AEFB"/><stop offset=".68" stop-color="#4491F9"/><stop offset=".77" stop-color="#0B70F8"/><stop offset=".78" stop-color="#016AF8"/><stop offset=".88" stop-color="#104BAE"/><stop offset=".96" stop-color="#1B357A"/><stop offset="1" stop-color="#202D66"/></radialGradient><radialGradient id="B" cx="0" cy="0" r="1" gradientUnits="userSpaceOnUse" gradientTransform="matrix(90.0906 0 0 90.0907 127.46 123.81)"><stop offset=".02" stop-color="#016AF8"/><stop offset=".26" stop-color="#104BAE"/><stop offset=".45" stop-color="#1B357A"/><stop offset=".54" stop-color="#202D66"/></radialGradient><radialGradient id="C" cx="0" cy="0" r="1" gradientUnits="userSpaceOnUse" gradientTransform="matrix(-15.77827 127.88734 -115.06655 -14.19649 156.32 104.53)"><stop offset=".08" stop-color="#F6F9FE"/><stop offset=".2" stop-color="#DFECFE"/><stop offset=".35" stop-color="#B9D6FD"/><stop offset=".52" stop-color="#84B7FB"/><stop offset=".72" stop-color="#4190F9"/><stop offset=".89" stop-color="#016AF8"/><stop offset=".94" stop-color="#104BAE"/><stop offset=".98" stop-color="#1B357A"/><stop offset="1" stop-color="#202D66"/></radialGradient><radialGradient id="D" cx="0" cy="0" r="1" gradientUnits="userSpaceOnUse" gradientTransform="translate(97.59 128.46) scale(207.07)"><stop offset=".23" stop-color="#202D66"/><stop offset=".39" stop-color="#006DFF"/><stop offset=".62" stop-color="#F5F9FF" stop-opacity="0"/></radialGradient><linearGradient id="g" x1="127.07" y1="172.578" x2="165.23" y2="-300.462" gradientUnits="userSpaceOnUse"><stop offset=".19" stop-color="#202D66"/><stop offset=".31" stop-color="#1B357A"/><stop offset=".55" stop-color="#104BAD"/><stop offset=".88" stop-color="#006DFF"/></linearGradient><linearGradient id="h" x1="155.215" y1="149.96" x2="126.411" y2="166.81" gradientUnits="userSpaceOnUse"><stop offset=".02" stop-color="#fff"/><stop offset=".06" stop-color="#F4F8FF"/><stop offset=".13" stop-color="#D8E8FF"/><stop offset=".21" stop-color="#A9CEFF"/><stop offset=".31" stop-color="#6AAAFF"/><stop offset=".43" stop-color="#1B7DFF"/><stop offset=".52" stop-color="#1D4DA4"/><stop offset=".58" stop-color="#202D66"/></linearGradient><linearGradient id="i" x1="185.08" y1="134.23" x2="124.71" y2="166.34" gradientUnits="userSpaceOnUse"><stop offset=".39" stop-color="#fff"/><stop offset=".87" stop-color="#1B7DFF"/></linearGradient><linearGradient id="E" x1="121.213" y1="113.825" x2="143.457" y2="24.877" gradientUnits="userSpaceOnUse"><stop offset=".09" stop-color="#F5F9FF"/><stop offset=".14" stop-color="#E8F1FF"/><stop offset=".24" stop-color="#C5DEFF"/><stop offset=".37" stop-color="#8EBEFF"/><stop offset=".53" stop-color="#4293FF"/><stop offset=".67" stop-color="#006DFF"/></linearGradient></defs></svg>