<svg width="200" height="200" viewBox="0 0 200 200" fill="none" xmlns="http://www.w3.org/2000/svg"><g opacity=".5"><path fill-rule="evenodd" clip-rule="evenodd" d="M53.489 41.884c-3.531 0-6.393 2.837-6.393 6.336v73.287c0 3.499 2.862 6.336 6.393 6.336h102.996c3.531 0 6.393-2.837 6.393-6.336V54.994h.012V48.22c0-3.497-2.865-6.336-6.394-6.336H53.489Z" fill="#DEDFE8"/><path d="M149.424 85.155c-5.59-37.323-40.381-63.039-77.705-57.448-37.323 5.59-63.05 40.392-57.459 77.715 5.59 37.324 40.393 63.05 77.716 57.449 37.323-5.591 63.049-40.393 57.448-77.716Zm-129.3 19.38c-5.107-34.09 18.383-65.867 52.472-70.975 34.09-5.108 65.867 18.382 70.975 52.472 5.108 34.09-18.382 65.866-52.472 70.974-34.09 5.108-65.867-18.382-70.975-52.471Z" fill="url(#a)"/><path d="M151.817 37.215H49.745a6.336 6.336 0 0 0-6.336 6.335v73.288a6.335 6.335 0 0 0 6.336 6.335h102.072a6.335 6.335 0 0 0 6.335-6.335V43.551c0-3.5-2.836-6.336-6.335-6.336Z" fill="url(#b)"/><path d="M49.745 37.215h102.083a6.339 6.339 0 0 1 6.335 6.335v6.775H43.409V43.55a6.339 6.339 0 0 1 6.336-6.335Z" fill="url(#c)"/><path d="M51.52 46.598a2.357 2.357 0 1 0 0-4.714 2.357 2.357 0 0 0 0 4.714ZM59.018 46.598a2.357 2.357 0 1 0 0-4.714 2.357 2.357 0 0 0 0 4.714ZM66.516 46.598a2.357 2.357 0 1 0 0-4.714 2.357 2.357 0 0 0 0 4.714Z" fill="#fff"/><path d="m170.957 142.63 13.449 21.933c1.513 2.467.735 5.733-1.731 7.246l-.373.23c-2.466 1.512-5.733.734-7.246-1.732l-13.471-21.967a40.81 40.81 0 0 0 4.987-2.608 43.714 43.714 0 0 0 4.385-3.102Z" fill="#DEDFE8"/><path d="M109.147 131.975c11.059 18.032 33.607 24.696 52.438 16.366a40.97 40.97 0 0 0 4.988-2.609 43.814 43.814 0 0 0 4.384-3.102c16.124-12.978 20.487-36.205 9.383-54.325-12.057-19.664-37.761-25.824-57.426-13.767-19.665 12.058-25.825 37.762-13.767 57.426v.011Zm17.812-50.827c16.014-9.822 36.95-4.801 46.772 11.213 8.867 14.458 5.634 32.928-6.862 43.615a34.269 34.269 0 0 1-4.352 3.168 33.659 33.659 0 0 1-5.031 2.532c-15.138 6.139-32.928.636-41.752-13.745-9.821-16.015-4.801-36.95 11.214-46.772l.011-.011Z" fill="#DEDFE8"/><path d="m166.833 140.438 13.449 21.933c1.513 2.466.735 5.733-1.732 7.246l-.372.23c-2.466 1.512-5.733.734-7.246-1.732l-13.471-21.967a40.81 40.81 0 0 0 4.987-2.608 43.714 43.714 0 0 0 4.385-3.102Z" fill="url(#d)"/><path d="M105.023 129.783c11.059 18.031 33.607 24.696 52.438 16.365a40.691 40.691 0 0 0 4.988-2.609 43.491 43.491 0 0 0 4.384-3.102c16.124-12.978 20.487-36.205 9.383-54.324-12.057-19.664-37.761-25.825-57.426-13.767-19.665 12.057-25.825 37.761-13.767 57.426v.011Zm17.812-50.828c16.014-9.82 36.95-4.8 46.772 11.214 8.867 14.458 5.634 32.928-6.862 43.615a33.85 33.85 0 0 1-9.383 5.7c-15.138 6.138-32.928.636-41.752-13.746-9.821-16.014-4.801-36.95 11.214-46.772l.011-.01Z" fill="url(#e)"/><path opacity=".6" d="M140.614 142.377c18.784 0 34.012-15.228 34.012-34.012 0-18.785-15.228-34.013-34.012-34.013-18.785 0-34.013 15.228-34.013 34.013 0 18.784 15.228 34.012 34.013 34.012Z" fill="url(#f)"/></g><defs><radialGradient id="a" cx="0" cy="0" r="1" gradientUnits="userSpaceOnUse" gradientTransform="rotate(117.94 12.195 72.198) scale(224.317)"><stop offset=".202" stop-color="#fff"/><stop offset=".629" stop-color="#006DFF"/><stop offset=".971" stop-color="#202D66"/></radialGradient><radialGradient id="b" cx="0" cy="0" r="1" gradientUnits="userSpaceOnUse" gradientTransform="rotate(-13.805 681.592 481.337) scale(403.772)"><stop stop-color="#046FFF"/><stop offset=".06" stop-color="#368BFF"/><stop offset=".12" stop-color="#63A5FF"/><stop offset=".18" stop-color="#8ABCFF"/><stop offset=".25" stop-color="#ABCFFF"/><stop offset=".31" stop-color="#C6DEFF"/><stop offset=".362" stop-color="#DBEAFF"/><stop offset=".564" stop-color="#E9F2FF"/><stop offset=".683" stop-color="#F2F7FF"/><stop offset=".74" stop-color="#F5F9FF"/></radialGradient><radialGradient id="f" cx="0" cy="0" r="1" gradientUnits="userSpaceOnUse" gradientTransform="rotate(173.42 67.192 58.224) scale(59.5693)"><stop stop-color="#fff" stop-opacity="0"/><stop offset=".06" stop-color="#fff" stop-opacity=".17"/><stop offset=".14" stop-color="#fff" stop-opacity=".39"/><stop offset=".22" stop-color="#fff" stop-opacity=".58"/><stop offset=".31" stop-color="#fff" stop-opacity=".73"/><stop offset=".39" stop-color="#fff" stop-opacity=".85"/><stop offset=".46" stop-color="#fff" stop-opacity=".93"/><stop offset=".54" stop-color="#fff" stop-opacity=".98"/><stop offset=".61" stop-color="#fff"/></radialGradient><linearGradient id="c" x1="14.932" y1="82.43" x2="25.082" y2="6.051" gradientUnits="userSpaceOnUse"><stop offset=".19" stop-color="#202D66"/><stop offset=".33" stop-color="#1B357A"/><stop offset=".61" stop-color="#104BAD"/><stop offset="1" stop-color="#006DFF"/></linearGradient><linearGradient id="d" x1="201.909" y1="214.505" x2="126.364" y2="91.322" gradientUnits="userSpaceOnUse"><stop stop-color="#006DFF"/><stop offset=".39" stop-color="#104BAD"/><stop offset=".67" stop-color="#1B357A"/><stop offset=".81" stop-color="#202D66"/></linearGradient><linearGradient id="e" x1="218.088" y1="155.948" x2="72.654" y2="65.846" gradientUnits="userSpaceOnUse"><stop stop-color="#006DFF"/><stop offset=".39" stop-color="#104BAD"/><stop offset=".67" stop-color="#1B357A"/><stop offset=".81" stop-color="#202D66"/></linearGradient></defs></svg>