<svg width="200" height="200" viewBox="0 0 200 200" fill="none" xmlns="http://www.w3.org/2000/svg"><g clip-path="url(#a)"><path opacity=".5" d="M56.98 125.57c25.388 0 45.97-20.582 45.97-45.97 0-25.389-20.582-45.97-45.97-45.97-25.389 0-45.97 20.581-45.97 45.97 0 25.388 20.581 45.97 45.97 45.97Z" fill="url(#b)"/><path d="M182.249 101.75a45.569 45.569 0 0 0-62.399-16.08 45.571 45.571 0 0 0-16.08 62.4 45.571 45.571 0 0 0 62.399 16.08 45.567 45.567 0 0 0 16.08-62.4Zm-75.08 44.31a41.615 41.615 0 0 1-4.46-31.542 41.618 41.618 0 0 1 34.478-30.826 41.62 41.62 0 0 1 46.133 51.601 41.614 41.614 0 0 1-19.151 25.457 41.617 41.617 0 0 1-57-14.69Z" fill="url(#c)"/><path opacity=".1" d="m161.32 132.34 3-5.09-5.71-54-.65-6.11a9.988 9.988 0 0 0-7.111-8.546 10.006 10.006 0 0 0-3.889-.354l-3.51.37-6.43.68-.19-1.83a2.99 2.99 0 0 0-1.1-2.043 2.999 2.999 0 0 0-2.23-.647 3.003 3.003 0 0 0-2.69 3.33l.19 1.82-56.83 6-8.05.85-.2-1.83a3.001 3.001 0 0 0-3.32-2.68 2.999 2.999 0 0 0-2.69 3.32l.19 1.83-7 .74h-.2l-3.31.35-2.61.28a10 10 0 0 0-8.91 11l7.69 72.72a8.706 8.706 0 0 0 3.188 5.864 8.715 8.715 0 0 0 6.402 1.886l6.12-.64 44.63-4.72 38.57-4.08 11.16-1.18a4.634 4.634 0 0 0 2-.74 7.999 7.999 0 0 0 4.38-8l-.89-8.55Z" fill="url(#d)"/><path opacity=".75" d="m148.26 148.39-89.33 9.44a8.727 8.727 0 0 1-6.403-1.893 8.73 8.73 0 0 1-3.187-5.867l-7.69-72.71a10 10 0 0 1 8.91-11l93.91-9.93a10.003 10.003 0 0 1 9.845 5.178 9.994 9.994 0 0 1 1.155 3.732l8.11 76.73a4.67 4.67 0 0 1-1.016 3.44 4.679 4.679 0 0 1-3.154 1.71l-11.15 1.17Z" fill="url(#e)"/><path opacity=".75" d="m150.88 148.11-89.33 9.44a8.734 8.734 0 0 1-9.6-7.75l-7.63-72.72a10.001 10.001 0 0 1 8.9-11l93.91-9.92a10.004 10.004 0 0 1 9.843 5.171 10 10 0 0 1 1.157 3.729l7.76 73.4a7.998 7.998 0 0 1-7.15 8.84l-7.86.81Z" fill="url(#f)"/><path d="m154.39 147.74-89.33 9.44a8.73 8.73 0 0 1-9.6-7.76l-7.68-72.71a9.999 9.999 0 0 1 8.91-11l93.9-9.92a10.004 10.004 0 0 1 9.842 5.171 9.981 9.981 0 0 1 1.158 3.729l6.36 60.13-13.56 22.92Z" fill="url(#g)"/><path opacity=".75" d="m69.742 88.817-7.498.792a3.14 3.14 0 0 0-2.793 3.452l.792 7.499a3.14 3.14 0 0 0 3.453 2.792l7.498-.792a3.14 3.14 0 0 0 2.793-3.452l-.792-7.498a3.14 3.14 0 0 0-3.453-2.793ZM96.33 86.01l-7.498.791a3.14 3.14 0 0 0-2.793 3.453l.792 7.498a3.14 3.14 0 0 0 3.452 2.793l7.499-.792a3.14 3.14 0 0 0 2.792-3.453l-.792-7.498a3.14 3.14 0 0 0-3.452-2.793ZM122.907 83.192l-7.498.793a3.14 3.14 0 0 0-2.793 3.452l.792 7.498a3.14 3.14 0 0 0 3.453 2.793l7.498-.792a3.14 3.14 0 0 0 2.793-3.452l-.792-7.499a3.14 3.14 0 0 0-3.453-2.793Z" fill="#fff"/><path opacity=".9" d="m149.505 80.385-7.499.792a3.14 3.14 0 0 0-2.792 3.452l.792 7.499a3.14 3.14 0 0 0 3.452 2.793l7.498-.793a3.14 3.14 0 0 0 2.793-3.452l-.792-7.498a3.14 3.14 0 0 0-3.452-2.793Z" fill="url(#h)"/><path opacity=".75" d="m72.154 111.716-7.498.792a3.14 3.14 0 0 0-2.793 3.453l.792 7.498a3.14 3.14 0 0 0 3.453 2.793l7.498-.793a3.14 3.14 0 0 0 2.793-3.452l-.792-7.498a3.14 3.14 0 0 0-3.453-2.793ZM98.752 108.908l-7.498.792a3.14 3.14 0 0 0-2.793 3.453l.792 7.498a3.14 3.14 0 0 0 3.452 2.793l7.499-.792a3.14 3.14 0 0 0 2.792-3.453l-.792-7.498a3.14 3.14 0 0 0-3.452-2.793Z" fill="#fff"/><path opacity=".9" d="m125.33 106.102-7.498.792a3.14 3.14 0 0 0-2.793 3.452l.792 7.499a3.14 3.14 0 0 0 3.452 2.792l7.499-.792a3.139 3.139 0 0 0 2.792-3.452l-.792-7.499a3.14 3.14 0 0 0-3.452-2.792Z" fill="url(#i)"/><path opacity=".9" d="m151.917 103.284-7.499.792a3.14 3.14 0 0 0-2.792 3.452l.792 7.499a3.139 3.139 0 0 0 3.452 2.792l7.499-.792a3.14 3.14 0 0 0 2.792-3.452l-.792-7.498a3.14 3.14 0 0 0-3.452-2.793Z" fill="url(#j)"/><path opacity=".75" d="m74.576 134.615-7.498.792a3.14 3.14 0 0 0-2.793 3.453l.792 7.498a3.14 3.14 0 0 0 3.453 2.793l7.498-.792a3.14 3.14 0 0 0 2.792-3.453l-.791-7.498a3.14 3.14 0 0 0-3.453-2.793Z" fill="#fff"/><path opacity=".9" d="m101.164 131.807-7.499.792a3.14 3.14 0 0 0-2.792 3.453l.792 7.498a3.14 3.14 0 0 0 3.452 2.793l7.499-.792a3.14 3.14 0 0 0 2.792-3.453l-.792-7.498a3.14 3.14 0 0 0-3.452-2.793Z" fill="url(#k)"/><path opacity=".75" d="m127.752 129.001-7.498.792a3.14 3.14 0 0 0-2.793 3.452l.792 7.498a3.14 3.14 0 0 0 3.452 2.793l7.499-.792a3.14 3.14 0 0 0 2.792-3.452l-.792-7.499a3.139 3.139 0 0 0-3.452-2.792ZM154.34 126.193l-7.499.792a3.14 3.14 0 0 0-2.792 3.453l.792 7.498a3.14 3.14 0 0 0 3.452 2.793l7.498-.792a3.14 3.14 0 0 0 2.793-3.453l-.792-7.498a3.14 3.14 0 0 0-3.452-2.793Z" fill="#fff"/><path d="m154.39 147.74 13.57-22.93-7.15.76a8.688 8.688 0 0 0-5.863 3.181 8.707 8.707 0 0 0-1.887 6.399l1.33 12.59Z" fill="url(#l)"/><path d="m56.497 65.749 94.107-9.941a10 10 0 0 1 10.995 8.894l.713 6.752-113.777 12.02-.735-6.962a9.81 9.81 0 0 1 8.697-10.763Z" fill="url(#m)"/><path opacity=".75" d="M67.43 76.2a5.02 5.02 0 1 0 0-10.04 5.02 5.02 0 0 0 0 10.04Z" fill="url(#n)"/><path opacity=".75" d="M138.331 68.7a5.02 5.02 0 1 0 0-10.04 5.02 5.02 0 0 0 0 10.04Z" fill="url(#o)"/><path d="M66.254 59.833h-.01a3.02 3.02 0 0 0-2.685 3.321l.919 8.702a3.02 3.02 0 0 0 3.32 2.686l.01-.001a3.02 3.02 0 0 0 2.686-3.32l-.919-8.702a3.02 3.02 0 0 0-3.32-2.686Z" fill="url(#p)"/><path d="m137.166 52.345-.01.001a3.02 3.02 0 0 0-2.686 3.32l.919 8.702a3.02 3.02 0 0 0 3.32 2.687l.01-.002a3.02 3.02 0 0 0 2.686-3.32l-.919-8.702a3.02 3.02 0 0 0-3.32-2.686Z" fill="url(#q)"/><path opacity=".1" d="M92.187 56.194c9.767-2.305 15.816-12.09 13.51-21.858-2.305-9.766-12.091-15.815-21.858-13.51-9.766 2.305-15.815 12.091-13.51 21.858 2.305 9.767 12.091 15.816 21.858 13.51Z" fill="url(#r)"/><path d="M90.67 54.34c10.035 0 18.17-8.135 18.17-18.17 0-10.035-8.135-18.17-18.17-18.17-10.035 0-18.17 8.135-18.17 18.17 0 10.035 8.135 18.17 18.17 18.17Z" fill="#fff"/><path opacity=".9" d="M90.67 54.34c10.035 0 18.17-8.135 18.17-18.17 0-10.035-8.135-18.17-18.17-18.17-10.035 0-18.17 8.135-18.17 18.17 0 10.035 8.135 18.17 18.17 18.17Z" fill="url(#s)"/><path opacity=".75" d="M81.34 29.44h18.661a1.177 1.177 0 0 1 1.09.728c.059.143.09.297.09.452v3.93h-21v-3.94a1.18 1.18 0 0 1 1.16-1.17Z" fill="url(#t)"/><path opacity=".75" d="M101.38 34.55H79.96a1.01 1.01 0 0 0-1.01 1.01v5.07c0 .558.452 1.01 1.01 1.01h21.42a1.01 1.01 0 0 0 1.01-1.01v-5.07a1.01 1.01 0 0 0-1.01-1.01Z" fill="url(#u)"/><path d="M90.32 34.55a1.24 1.24 0 0 0 0-.33 1.34 1.34 0 0 0-1.33-1.33h-6a1.34 1.34 0 0 0-1.34 1.33c-.01.11-.01.22 0 .33h8.67ZM99.65 34.55c.014-.11.014-.22 0-.33a1.34 1.34 0 0 0-1.33-1.33h-6a1.34 1.34 0 0 0-1.34 1.33c-.01.11-.01.22 0 .33h8.67Z" fill="#F5F9FF"/><path opacity=".75" d="M80.17 41.63H83v.31a1 1 0 0 1-1 1h-.92a1 1 0 0 1-1-1v-.31h.09ZM98.67 41.63h2.86v.31a.998.998 0 0 1-1 1h-.92a1 1 0 0 1-1-1v-.31h.06Z" fill="#fff"/><path opacity=".1" d="m135.03 173.19-8-11.22-100.1-23.32-7.81-1.82a2.01 2.01 0 0 0-1.549.239 2 2 0 0 0-.901 1.281l-4 17.09a2.003 2.003 0 0 0 .794 2.133c.221.154.472.262.736.317l7.8 1.82.48.11 2.75.64.48.11 96.37 22.42 9.92-5.3 2.25-1.2a2.995 2.995 0 0 0 .78-3.3Z" fill="url(#v)"/><path d="m25.74 131.28 100.06 23.33 8 11.21a2.997 2.997 0 0 1-.78 3.34l-12.16 6.51-100.03-23.32 4.91-21.07Z" fill="url(#w)"/><path opacity=".75" d="m20.834 152.341 100.059 23.321 4.909-21.065-100.058-23.321-4.91 21.065Z" fill="url(#x)"/><path d="m20.862 152.345-7.79-1.816a2.001 2.001 0 0 1-1.495-2.402l3.982-17.082a1.998 1.998 0 0 1 2.401-1.494l7.792 1.816-4.91 21.065.02-.087Z" fill="url(#y)"/><path d="m132.381 163.79 1.45 2a2.997 2.997 0 0 1-.78 3.34l-2.25 1.2 1.58-6.54Z" fill="url(#z)"/><path opacity=".75" d="m25.147 150.6 94.351 21.991.252-1.081-94.351-21.991-.252 1.081ZM26.732 143.771l94.292 21.978.252-1.081-94.292-21.978-.252 1.081ZM28.33 136.935l94.233 21.964.252-1.081-94.234-21.964-.252 1.081Z" fill="#fff"/><path opacity=".75" d="m24.054 153.103.477.111 4.91-21.065-.477-.111-4.91 21.065ZM20.83 152.357l.477.111 4.91-21.066-.478-.111-4.91 21.066Z" fill="#fff"/></g><defs><linearGradient id="d" x1="95.53" y1="172.14" x2="131.33" y2="-271.61" gradientUnits="userSpaceOnUse"><stop offset=".19" stop-color="#202D66"/><stop offset=".31" stop-color="#1C357A"/><stop offset=".55" stop-color="#114BAE"/><stop offset=".88" stop-color="#006DFF"/></linearGradient><linearGradient id="e" x1="-154.939" y1="133.348" x2="485.122" y2="62.23" gradientUnits="userSpaceOnUse"><stop offset=".3" stop-color="#202D66"/><stop offset=".33" stop-color="#006DFF"/><stop offset=".36" stop-color="#338AFF"/><stop offset=".38" stop-color="#6EACFF"/><stop offset=".41" stop-color="#9EC7FF"/><stop offset=".44" stop-color="#C4DDFF"/><stop offset=".46" stop-color="#DFECFF"/><stop offset=".48" stop-color="#EFF6FF"/><stop offset=".5" stop-color="#F5F9FF"/></linearGradient><linearGradient id="f" x1="-156.91" y1="133.56" x2="483.168" y2="62.44" gradientUnits="userSpaceOnUse"><stop offset=".24" stop-color="#324075" stop-opacity=".9"/><stop offset=".48" stop-color="#006DFF"/><stop offset=".49" stop-color="#5CA2FF"/><stop offset=".5" stop-color="#85B9FF"/><stop offset=".51" stop-color="#C4DDFF"/><stop offset=".52" stop-color="#DAE9FF"/><stop offset=".53" stop-color="#E9F2FF"/><stop offset=".54" stop-color="#F2F7FF"/><stop offset=".56" stop-color="#F5F9FF"/></linearGradient><linearGradient id="g" x1="107.132" y1="184.938" x2="84.348" y2="-197.047" gradientUnits="userSpaceOnUse"><stop offset=".01" stop-color="#F5F9FF"/><stop offset=".07" stop-color="#E8F2FF"/><stop offset=".18" stop-color="#C6DEFF"/><stop offset=".33" stop-color="#8EBEFF"/><stop offset=".52" stop-color="#4393FF"/><stop offset=".67" stop-color="#006DFF"/></linearGradient><linearGradient id="h" x1="110.682" y1="166.932" x2="174.939" y2="24.635" gradientUnits="userSpaceOnUse"><stop offset=".5" stop-color="#202D66"/><stop offset=".54" stop-color="#183E8E"/><stop offset=".59" stop-color="#0F4FB6"/><stop offset=".63" stop-color="#095CD6"/><stop offset=".68" stop-color="#0465ED"/><stop offset=".72" stop-color="#016BFA"/><stop offset=".75" stop-color="#006DFF"/><stop offset=".76" stop-color="#96C3FF"/><stop offset=".77" stop-color="#fff"/></linearGradient><linearGradient id="j" x1="121.268" y1="171.732" x2="185.524" y2="29.425" gradientUnits="userSpaceOnUse"><stop offset=".39" stop-color="#202D66"/><stop offset=".41" stop-color="#183E8E"/><stop offset=".44" stop-color="#0F4FB6"/><stop offset=".47" stop-color="#095CD6"/><stop offset=".49" stop-color="#0465ED"/><stop offset=".52" stop-color="#016BFA"/><stop offset=".54" stop-color="#006DFF"/><stop offset=".56" stop-color="#0671FF"/><stop offset=".59" stop-color="#197BFF"/><stop offset=".62" stop-color="#378CFF"/><stop offset=".66" stop-color="#60A4FF"/><stop offset=".7" stop-color="#96C3FF"/><stop offset=".74" stop-color="#D6E8FF"/><stop offset=".77" stop-color="#fff"/></linearGradient><linearGradient id="l" x1="156.1" y1="145.518" x2="153.395" y2="55.869" gradientUnits="userSpaceOnUse"><stop stop-color="#F5F9FF"/><stop offset=".06" stop-color="#E8F2FF"/><stop offset=".17" stop-color="#C6DEFF"/><stop offset=".32" stop-color="#8EBEFF"/><stop offset=".49" stop-color="#4393FF"/><stop offset=".64" stop-color="#006DFF"/></linearGradient><linearGradient id="p" x1="67.235" y1="75.688" x2="65.777" y2="16.855" gradientUnits="userSpaceOnUse"><stop offset=".18" stop-color="#F5F9FF"/><stop offset=".22" stop-color="#E8F2FF"/><stop offset=".31" stop-color="#C6DEFF"/><stop offset=".42" stop-color="#8EBEFF"/><stop offset=".55" stop-color="#4393FF"/><stop offset=".67" stop-color="#006DFF"/></linearGradient><linearGradient id="q" x1="138.147" y1="68.2" x2="136.688" y2="9.368" gradientUnits="userSpaceOnUse"><stop offset=".09" stop-color="#F5F9FF"/><stop offset=".14" stop-color="#E8F2FF"/><stop offset=".24" stop-color="#C6DEFF"/><stop offset=".37" stop-color="#8EBEFF"/><stop offset=".53" stop-color="#4393FF"/><stop offset=".67" stop-color="#006DFF"/></linearGradient><linearGradient id="r" x1="69.827" y1="38.481" x2="106.177" y2="38.481" gradientUnits="userSpaceOnUse"><stop offset=".19" stop-color="#202D66"/><stop offset=".31" stop-color="#1C357A"/><stop offset=".55" stop-color="#114BAE"/><stop offset=".88" stop-color="#006DFF"/></linearGradient><linearGradient id="v" x1="14.703" y1="168.896" x2="131.356" y2="149.96" gradientUnits="userSpaceOnUse"><stop offset=".19" stop-color="#202D66"/><stop offset=".31" stop-color="#1C357A"/><stop offset=".55" stop-color="#114BAE"/><stop offset=".88" stop-color="#006DFF"/></linearGradient><linearGradient id="w" x1="22.34" y1="161.709" x2="130.415" y2="144.166" gradientUnits="userSpaceOnUse"><stop offset=".42" stop-color="#006DFF"/><stop offset=".48" stop-color="#1076FF"/><stop offset=".59" stop-color="#398EFF"/><stop offset=".74" stop-color="#7DB4FF"/><stop offset=".93" stop-color="#D8E8FF"/><stop offset=".99" stop-color="#F5F9FF"/></linearGradient><linearGradient id="z" x1="140.715" y1="180.657" x2="125.319" y2="177.047" gradientUnits="userSpaceOnUse"><stop offset=".22" stop-color="#202D66"/><stop offset=".41" stop-color="#154299"/><stop offset=".6" stop-color="#0C55C5"/><stop offset=".76" stop-color="#0562E5"/><stop offset=".9" stop-color="#016AF8"/><stop offset="1" stop-color="#006DFF"/></linearGradient><radialGradient id="b" cx="0" cy="0" r="1" gradientUnits="userSpaceOnUse" gradientTransform="rotate(-159.275 54.778 31.114) scale(180.426)"><stop offset=".26" stop-color="#fff"/><stop offset=".7" stop-color="#016BFA"/><stop offset=".71" stop-color="#0465ED"/><stop offset=".72" stop-color="#095CD6"/><stop offset=".73" stop-color="#0F4FB6"/><stop offset=".74" stop-color="#202D66"/></radialGradient><radialGradient id="c" cx="0" cy="0" r="1" gradientUnits="userSpaceOnUse" gradientTransform="rotate(26.819 -162.793 277.082) scale(126.339)"><stop stop-color="#E6F1FF"/><stop offset=".708" stop-color="#5599F5"/></radialGradient><radialGradient id="i" cx="0" cy="0" r="1" gradientUnits="userSpaceOnUse" gradientTransform="rotate(-6.03 1156.25 -745.917) scale(300.74)"><stop offset=".29" stop-color="#202D66"/><stop offset=".33" stop-color="#183E8E"/><stop offset=".37" stop-color="#0F4FB6"/><stop offset=".42" stop-color="#095CD6"/><stop offset=".46" stop-color="#0465ED"/><stop offset=".5" stop-color="#016BFA"/><stop offset=".54" stop-color="#006DFF"/><stop offset=".56" stop-color="#0671FF"/><stop offset=".59" stop-color="#197BFF"/><stop offset=".62" stop-color="#378CFF"/><stop offset=".66" stop-color="#60A4FF"/><stop offset=".7" stop-color="#96C3FF"/><stop offset=".74" stop-color="#D6E8FF"/><stop offset=".77" stop-color="#fff"/></radialGradient><radialGradient id="k" cx="0" cy="0" r="1" gradientUnits="userSpaceOnUse" gradientTransform="rotate(-6.03 1374.289 -767.562) scale(121.26)"><stop offset=".29" stop-color="#202D66"/><stop offset=".33" stop-color="#183E8E"/><stop offset=".37" stop-color="#0F4FB6"/><stop offset=".42" stop-color="#095CD6"/><stop offset=".46" stop-color="#0465ED"/><stop offset=".5" stop-color="#016BFA"/><stop offset=".54" stop-color="#006DFF"/><stop offset=".56" stop-color="#0671FF"/><stop offset=".59" stop-color="#197BFF"/><stop offset=".62" stop-color="#378CFF"/><stop offset=".66" stop-color="#60A4FF"/><stop offset=".7" stop-color="#96C3FF"/><stop offset=".74" stop-color="#D6E8FF"/><stop offset=".77" stop-color="#fff"/></radialGradient><radialGradient id="m" cx="0" cy="0" r="1" gradientUnits="userSpaceOnUse" gradientTransform="matrix(123.50048 -7.50002 7.49996 123.49948 55.75 70.5)"><stop offset=".21" stop-color="#202D66"/><stop offset=".4" stop-color="#154299"/><stop offset=".59" stop-color="#0C55C5"/><stop offset=".76" stop-color="#0562E5"/><stop offset=".9" stop-color="#016AF8"/><stop offset="1" stop-color="#006DFF"/></radialGradient><radialGradient id="n" cx="0" cy="0" r="1" gradientUnits="userSpaceOnUse" gradientTransform="rotate(-6.34 647.06 -530.143) scale(13.5469)"><stop stop-color="#006DFF"/><stop offset=".21" stop-color="#114BAE"/><stop offset=".37" stop-color="#1C357A"/><stop offset=".44" stop-color="#202D66"/></radialGradient><radialGradient id="o" cx="0" cy="0" r="1" gradientUnits="userSpaceOnUse" gradientTransform="rotate(-6.34 611.55 -1171.302) scale(13.5469)"><stop stop-color="#006DFF"/><stop offset=".21" stop-color="#114BAE"/><stop offset=".37" stop-color="#1C357A"/><stop offset=".44" stop-color="#202D66"/></radialGradient><radialGradient id="s" cx="0" cy="0" r="1" gradientUnits="userSpaceOnUse" gradientTransform="rotate(126.237 57.993 30.655) scale(90.5055)"><stop offset=".23" stop-color="#fff"/><stop offset=".26" stop-color="#D6E8FF"/><stop offset=".3" stop-color="#96C3FF"/><stop offset=".34" stop-color="#60A4FF"/><stop offset=".38" stop-color="#378CFF"/><stop offset=".41" stop-color="#197BFF"/><stop offset=".44" stop-color="#0671FF"/><stop offset=".46" stop-color="#006DFF"/><stop offset=".5" stop-color="#016BFA"/><stop offset=".54" stop-color="#0465ED"/><stop offset=".58" stop-color="#095CD6"/><stop offset=".63" stop-color="#0F4FB6"/><stop offset=".67" stop-color="#183E8E"/><stop offset=".71" stop-color="#202D66"/></radialGradient><radialGradient id="t" cx="0" cy="0" r="1" gradientUnits="userSpaceOnUse" gradientTransform="rotate(36.413 6.575 150.602) scale(24.0062)"><stop offset=".2" stop-color="#fff"/><stop offset=".28" stop-color="#E3EFFF"/><stop offset=".7" stop-color="#4192FF"/><stop offset=".89" stop-color="#016BFB"/><stop offset=".9" stop-color="#0466EE"/><stop offset=".91" stop-color="#085DD8"/><stop offset=".92" stop-color="#0F50BA"/><stop offset=".93" stop-color="#174093"/><stop offset=".94" stop-color="#202D66"/></radialGradient><radialGradient id="u" cx="0" cy="0" r="1" gradientUnits="userSpaceOnUse" gradientTransform="rotate(154.67 51.058 28.15) scale(41.4887)"><stop offset=".03" stop-color="#006DFF"/><stop offset=".04" stop-color="#0872FF"/><stop offset=".21" stop-color="#4F9AFF"/><stop offset=".38" stop-color="#8ABCFF"/><stop offset=".52" stop-color="#B8D6FF"/><stop offset=".65" stop-color="#D9E9FF"/><stop offset=".76" stop-color="#EEF5FF"/><stop offset=".83" stop-color="#F5F9FF"/></radialGradient><radialGradient id="x" cx="0" cy="0" r="1" gradientUnits="userSpaceOnUse" gradientTransform="matrix(-140.95719 -22.34308 48.03753 -303.05741 125.803 156.75)"><stop offset=".39" stop-color="#202D66"/><stop offset=".53" stop-color="#154299"/><stop offset=".68" stop-color="#0C55C5"/><stop offset=".81" stop-color="#0562E5"/><stop offset=".92" stop-color="#016AF8"/><stop offset="1" stop-color="#006DFF"/></radialGradient><radialGradient id="y" cx="0" cy="0" r="1" gradientUnits="userSpaceOnUse" gradientTransform="rotate(-166.88 17.41 70.058) scale(12.53 26.9395)"><stop offset=".39" stop-color="#202D66"/><stop offset=".53" stop-color="#154299"/><stop offset=".68" stop-color="#0C55C5"/><stop offset=".81" stop-color="#0562E5"/><stop offset=".92" stop-color="#016AF8"/><stop offset="1" stop-color="#006DFF"/></radialGradient><clipPath id="a"><path fill="#fff" transform="translate(11 18)" d="M0 0h177.58v165.04H0z"/></clipPath></defs></svg>