<svg width="200" height="200" viewBox="0 0 200 200" fill="none" xmlns="http://www.w3.org/2000/svg"><path d="M173.185 151.199H23.623v27.196h149.562v-27.196Z" fill="url(#a)" fill-opacity=".5"/><path opacity=".5" d="M84.135 151.199c35.743 0 64.718-29.011 64.718-64.798 0-35.787-28.975-64.797-64.719-64.797-35.742 0-64.718 29.01-64.718 64.797 0 35.787 28.976 64.798 64.719 64.798Z" fill="url(#b)"/><path d="m162.79 83.631-92.987.105c-5.694.006-10.306 4.628-10.3 10.322l.063 54.734c.006 5.694 4.627 10.305 10.322 10.299l92.986-.105c5.695-.006 10.306-4.628 10.3-10.322l-.062-54.734c-.006-5.694-4.628-10.305-10.322-10.299Z" fill="url(#c)"/><path d="m173.148 127.102-113.608.128.017 14.917 113.608-.128-.017-14.917Z" fill="url(#d)"/><path d="m156.097 100.919-10.482.012a4.21 4.21 0 0 0-4.206 4.215l.012 10.482a4.21 4.21 0 0 0 4.215 4.206l10.483-.012a4.21 4.21 0 0 0 4.205-4.215l-.012-10.483a4.21 4.21 0 0 0-4.215-4.205Z" fill="#fff"/><g clip-path="url(#e)"><path d="M28.731 151.837v9.708c.858.1 1.81.195 2.846.284v-9.992h-2.846Z" fill="url(#f)"/><path d="M35.767 151.837v10.288c1.709.097 3.557.18 5.51.245v-10.533h-5.51Z" fill="#B8D6FF"/><path d="M23.622 150.624v9.571c0 .255.487.5 1.386.731v-10.302h-1.386Z" fill="#A5CBFF"/><path d="M23.622 150.624v9.571c0 .255.487.5 1.386.731v-10.302h-1.386Z" fill="#A5CBFF"/><path d="M77.4 150.624v10.447c1.306-.269 2.027-.565 2.027-.876v-9.571H77.4Z" fill="url(#g)"/><path d="M59.265 150.624v11.817c1.7-.041 3.332-.094 4.884-.16v-11.657h-4.884Z" fill="url(#h)"/><path d="M68.332 150.624v11.436c1.813-.116 3.454-.249 4.884-.397v-11.039h-4.884Z" fill="url(#i)"/><path d="M25.008 150.624v10.302c.875.222 2.136.432 3.724.619v-9.708h2.845v9.992c1.276.109 2.68.207 4.19.296v-10.288h5.51v10.53c1.52.051 3.1.089 4.736.119v-11.862H25.008Z" fill="url(#j)"/><path d="M50.2 150.624v11.906h1.326c1.204 0 2.391-.006 3.557-.018v-11.888H50.2Z" fill="url(#k)"/><path d="M46.016 150.624v11.862c1.362.023 2.756.038 4.183.044v-11.906h-4.183Z" fill="url(#l)"/><path d="M55.08 150.624v11.888c1.43-.014 2.828-.038 4.184-.071v-11.817H55.08Z" fill="url(#m)"/><path d="M64.148 150.624v11.655a211.33 211.33 0 0 0 4.184-.219v-11.436h-4.184Z" fill="url(#n)"/><path d="M73.216 150.624v11.042c1.724-.178 3.142-.379 4.184-.595v-10.447h-4.184Z" fill="url(#o)"/><path d="M28.731 151.837v9.707c.858.101 1.81.196 2.846.284v-9.991h-2.846Z" fill="url(#p)"/><path d="M36.512 150.624v11.471c1.249.11 2.599.201 4.026.272v-11.743h-4.026Z" fill="url(#q)"/><path d="M46.016 150.624v11.862c1.362.023 2.756.038 4.183.044v-11.906h-4.183Z" fill="url(#r)"/><path d="M55.08 150.624v11.888c1.43-.014 2.828-.038 4.184-.071v-11.817H55.08Z" fill="url(#s)"/><path d="M64.148 150.624v11.655a211.33 211.33 0 0 0 4.184-.219v-11.436h-4.184Z" fill="url(#t)"/><path d="M73.216 150.624v11.042c1.724-.178 3.142-.379 4.184-.595v-10.447h-4.184Z" fill="url(#u)"/><path d="M51.526 152.826c15.41 0 27.903-1.046 27.903-2.335 0-1.29-12.493-2.335-27.903-2.335-15.411 0-27.904 1.045-27.904 2.335 0 1.289 12.493 2.335 27.904 2.335Z" fill="url(#v)"/><path d="M51.526 152.112c13.662 0 24.737-.826 24.737-1.846s-11.075-1.847-24.737-1.847c-13.663 0-24.738.827-24.738 1.847s11.076 1.846 24.738 1.846Z" fill="url(#w)"/></g><g clip-path="url(#x)"><path d="M34.77 140.392v9.707c.858.101 1.81.195 2.846.284v-9.991H34.77Z" fill="url(#y)"/><path d="M41.806 140.392v10.287c1.709.098 3.557.181 5.51.246v-10.533h-5.51Z" fill="#B8D6FF"/><path d="M29.661 139.178v9.571c0 .255.487.501 1.386.731v-10.302H29.66Z" fill="#A5CBFF"/><path d="M29.661 139.178v9.571c0 .255.487.501 1.386.731v-10.302H29.66Z" fill="#A5CBFF"/><path d="M83.44 139.178v10.447c1.305-.269 2.026-.565 2.026-.876v-9.571H83.44Z" fill="url(#z)"/><path d="M65.304 139.178v11.818c1.7-.042 3.332-.095 4.884-.16v-11.658h-4.884Z" fill="url(#A)"/><path d="M74.371 139.178v11.436c1.813-.115 3.454-.249 4.884-.397v-11.039h-4.884Z" fill="url(#B)"/><path d="M31.047 139.178v10.302c.875.222 2.136.433 3.724.619v-9.707h2.845v9.991c1.276.11 2.68.207 4.19.296v-10.287h5.51v10.53c1.52.05 3.1.089 4.736.118v-11.862H31.047Z" fill="url(#C)"/><path d="M56.238 139.178v11.907h1.327c1.204 0 2.391-.006 3.557-.018v-11.889h-4.884Z" fill="url(#D)"/><path d="M52.055 139.178v11.862c1.362.024 2.756.039 4.184.045v-11.907h-4.184Z" fill="url(#E)"/><path d="M61.12 139.178v11.889c1.43-.015 2.827-.039 4.183-.071v-11.818h-4.184Z" fill="url(#F)"/><path d="M70.188 139.178v11.655c1.474-.062 2.875-.136 4.183-.219v-11.436h-4.183Z" fill="url(#G)"/><path d="M79.255 139.178v11.042c1.724-.177 3.142-.378 4.184-.595v-10.447h-4.184Z" fill="url(#H)"/><path d="M34.77 140.391v9.708c.858.1 1.81.195 2.846.284v-9.992H34.77Z" fill="url(#I)"/><path d="M42.55 139.178v11.471c1.25.11 2.6.202 4.027.273v-11.744h-4.026Z" fill="url(#J)"/><path d="M52.055 139.178v11.862c1.362.024 2.756.039 4.184.045v-11.907h-4.184Z" fill="url(#K)"/><path d="M61.12 139.178v11.889c1.43-.015 2.827-.039 4.183-.071v-11.818h-4.184Z" fill="url(#L)"/><path d="M70.188 139.178v11.655c1.474-.062 2.875-.136 4.183-.219v-11.436h-4.183Z" fill="url(#M)"/><path d="M79.255 139.178v11.042c1.724-.177 3.142-.378 4.184-.595v-10.447h-4.184Z" fill="url(#N)"/><path d="M57.565 141.38c15.41 0 27.904-1.045 27.904-2.335s-12.493-2.335-27.904-2.335-27.904 1.045-27.904 2.335 12.493 2.335 27.904 2.335Z" fill="url(#O)"/><path d="M57.565 140.667c13.662 0 24.737-.827 24.737-1.847s-11.075-1.847-24.737-1.847c-13.662 0-24.738.827-24.738 1.847s11.076 1.847 24.738 1.847Z" fill="url(#P)"/></g><g clip-path="url(#Q)"><path d="M24.847 129.208v9.707c.857.101 1.81.195 2.845.284v-9.991h-2.845Z" fill="url(#R)"/><path d="M31.882 129.208v10.287c1.709.098 3.558.18 5.51.246v-10.533h-5.51Z" fill="#B8D6FF"/><path d="M19.737 127.994v9.571c0 .255.487.501 1.386.731v-10.302h-1.386Z" fill="#A5CBFF"/><path d="M19.737 127.994v9.571c0 .255.487.501 1.386.731v-10.302h-1.386Z" fill="#A5CBFF"/><path d="M73.516 127.994v10.447c1.305-.269 2.026-.565 2.026-.876v-9.571h-2.026Z" fill="url(#S)"/><path d="M55.38 127.994v11.818c1.7-.042 3.332-.095 4.884-.16v-11.658H55.38Z" fill="url(#T)"/><path d="M64.447 127.994v11.436c1.813-.116 3.454-.249 4.884-.397v-11.039h-4.884Z" fill="url(#U)"/><path d="M21.123 127.994v10.302c.875.222 2.136.432 3.724.619v-9.707h2.845v9.991c1.276.11 2.68.207 4.19.296v-10.287h5.51v10.53c1.52.05 3.101.088 4.736.118v-11.862H21.123Z" fill="url(#V)"/><path d="M46.315 127.994V139.9h1.326c1.205 0 2.391-.005 3.558-.017v-11.889h-4.884Z" fill="url(#W)"/><path d="M42.13 127.994v11.862c1.363.024 2.757.039 4.185.044v-11.906H42.13Z" fill="url(#X)"/><path d="M51.195 127.994v11.889c1.43-.015 2.828-.039 4.184-.071v-11.818h-4.184Z" fill="url(#Y)"/><path d="M60.264 127.994v11.655c1.474-.062 2.875-.136 4.183-.219v-11.436h-4.183Z" fill="url(#Z)"/><path d="M69.331 127.994v11.042c1.724-.177 3.142-.379 4.184-.595v-10.447H69.33Z" fill="url(#aa)"/><path d="M24.847 129.207v9.708c.857.1 1.81.195 2.845.284v-9.992h-2.845Z" fill="url(#ab)"/><path d="M32.627 127.994v11.471c1.25.11 2.6.202 4.026.273v-11.744h-4.026Z" fill="url(#ac)"/><path d="M42.13 127.994v11.862c1.363.024 2.757.039 4.185.044v-11.906H42.13Z" fill="url(#ad)"/><path d="M51.195 127.994v11.889c1.43-.015 2.828-.039 4.184-.071v-11.818h-4.184Z" fill="url(#ae)"/><path d="M60.264 127.994v11.655c1.474-.062 2.875-.136 4.183-.219v-11.436h-4.183Z" fill="url(#af)"/><path d="M69.331 127.994v11.042c1.724-.177 3.142-.379 4.184-.595v-10.447H69.33Z" fill="url(#ag)"/><path d="M47.641 130.196c15.41 0 27.904-1.045 27.904-2.335s-12.493-2.335-27.904-2.335c-15.41 0-27.904 1.045-27.904 2.335s12.493 2.335 27.904 2.335Z" fill="url(#ah)"/><path d="M47.641 129.483c13.662 0 24.738-.827 24.738-1.847s-11.076-1.847-24.738-1.847c-13.662 0-24.738.827-24.738 1.847s11.076 1.847 24.738 1.847Z" fill="url(#ai)"/></g><g clip-path="url(#aj)"><path d="M34.13 118.469v9.707c.857.101 1.81.195 2.845.284v-9.991H34.13Z" fill="url(#ak)"/><path d="M41.165 118.469v10.287c1.71.098 3.558.181 5.51.246v-10.533h-5.51Z" fill="#B8D6FF"/><path d="M29.02 117.255v9.572c0 .254.487.5 1.386.731v-10.303H29.02Z" fill="#A5CBFF"/><path d="M29.02 117.255v9.572c0 .254.487.5 1.386.731v-10.303H29.02Z" fill="#A5CBFF"/><path d="M82.799 117.255v10.448c1.305-.27 2.026-.566 2.026-.876v-9.572H82.8Z" fill="url(#al)"/><path d="M64.663 117.255v11.818c1.7-.042 3.332-.095 4.884-.16v-11.658h-4.884Z" fill="url(#am)"/><path d="M73.73 117.255v11.436c1.813-.115 3.454-.248 4.885-.396v-11.04H73.73Z" fill="url(#an)"/><path d="M30.406 117.255v10.303c.876.222 2.137.432 3.724.618v-9.707h2.846v9.991c1.276.11 2.68.207 4.19.296v-10.287h5.51v10.53c1.519.05 3.1.089 4.735.118v-11.862H30.406Z" fill="url(#ao)"/><path d="M55.598 117.255v11.907h1.326c1.205 0 2.392-.006 3.558-.018v-11.889h-4.884Z" fill="url(#ap)"/><path d="M51.414 117.255v11.862c1.362.024 2.757.039 4.184.045v-11.907h-4.184Z" fill="url(#aq)"/><path d="M60.478 117.255v11.889c1.43-.015 2.828-.039 4.184-.071v-11.818h-4.184Z" fill="url(#ar)"/><path d="M69.547 117.255v11.655c1.475-.062 2.875-.136 4.184-.219v-11.436h-4.184Z" fill="url(#as)"/><path d="M78.614 117.255v11.042c1.724-.177 3.142-.378 4.184-.594v-10.448h-4.184Z" fill="url(#at)"/><path d="M34.13 118.469v9.707c.857.1 1.81.195 2.845.284v-9.991H34.13Z" fill="url(#au)"/><path d="M41.91 117.255v11.472c1.25.109 2.6.201 4.027.272v-11.744H41.91Z" fill="url(#av)"/><path d="M51.414 117.255v11.862c1.362.024 2.757.039 4.184.045v-11.907h-4.184Z" fill="url(#aw)"/><path d="M60.478 117.255v11.889c1.43-.015 2.828-.039 4.184-.071v-11.818h-4.184Z" fill="url(#ax)"/><path d="M69.547 117.255v11.655c1.475-.062 2.875-.136 4.184-.219v-11.436h-4.184Z" fill="url(#ay)"/><path d="M78.614 117.255v11.042c1.724-.177 3.142-.378 4.184-.594v-10.448h-4.184Z" fill="url(#az)"/><path d="M56.924 119.457c15.411 0 27.904-1.045 27.904-2.335 0-1.289-12.493-2.335-27.904-2.335-15.41 0-27.904 1.046-27.904 2.335 0 1.29 12.493 2.335 27.904 2.335Z" fill="url(#aA)"/><path d="M56.924 118.744c13.662 0 24.738-.827 24.738-1.847s-11.076-1.846-24.738-1.846c-13.662 0-24.737.826-24.737 1.846s11.075 1.847 24.737 1.847Z" fill="url(#aB)"/></g><defs><linearGradient id="a" x1="97.79" y1="79.361" x2="99.834" y2="193.891" gradientUnits="userSpaceOnUse"><stop offset=".25" stop-color="#006DFF"/><stop offset=".44" stop-color="#4192FF" stop-opacity=".74"/><stop offset=".89" stop-color="#E2EEFF" stop-opacity=".11"/><stop offset=".97" stop-color="#fff" stop-opacity="0"/></linearGradient><linearGradient id="d" x1="59.548" y1="134.689" x2="227.598" y2="134.499" gradientUnits="userSpaceOnUse"><stop offset=".15" stop-color="#202D66"/><stop offset=".29" stop-color="#1B357A"/><stop offset=".59" stop-color="#104BAD"/><stop offset="1" stop-color="#006DFF"/></linearGradient><linearGradient id="f" x1="92.497" y1="126.929" x2="-7.176" y2="174.987" gradientUnits="userSpaceOnUse"><stop offset=".01" stop-color="#F5F9FF"/><stop offset=".12" stop-color="#F0F6FF"/><stop offset=".24" stop-color="#E3EEFF"/><stop offset=".36" stop-color="#CDE2FF"/><stop offset=".49" stop-color="#AED0FF"/><stop offset=".62" stop-color="#87BAFF"/><stop offset=".75" stop-color="#569EFF"/><stop offset=".88" stop-color="#1E7EFF"/><stop offset=".94" stop-color="#006DFF"/></linearGradient><linearGradient id="g" x1="103.642" y1="145.35" x2="-3.473" y2="188.802" gradientUnits="userSpaceOnUse"><stop offset=".01" stop-color="#F5F9FF"/><stop offset=".12" stop-color="#F0F6FF"/><stop offset=".24" stop-color="#E3EEFF"/><stop offset=".36" stop-color="#CDE2FF"/><stop offset=".49" stop-color="#AED0FF"/><stop offset=".62" stop-color="#87BAFF"/><stop offset=".75" stop-color="#569EFF"/><stop offset=".88" stop-color="#1E7EFF"/><stop offset=".94" stop-color="#006DFF"/></linearGradient><linearGradient id="h" x1="101.613" y1="140.345" x2="-5.503" y2="183.8" gradientUnits="userSpaceOnUse"><stop offset=".01" stop-color="#F5F9FF"/><stop offset=".12" stop-color="#F0F6FF"/><stop offset=".24" stop-color="#E3EEFF"/><stop offset=".36" stop-color="#CDE2FF"/><stop offset=".49" stop-color="#AED0FF"/><stop offset=".62" stop-color="#87BAFF"/><stop offset=".75" stop-color="#569EFF"/><stop offset=".88" stop-color="#1E7EFF"/><stop offset=".94" stop-color="#006DFF"/></linearGradient><linearGradient id="i" x1="102.781" y1="143.228" x2="-4.334" y2="186.68" gradientUnits="userSpaceOnUse"><stop offset=".01" stop-color="#F5F9FF"/><stop offset=".12" stop-color="#F0F6FF"/><stop offset=".24" stop-color="#E3EEFF"/><stop offset=".36" stop-color="#CDE2FF"/><stop offset=".49" stop-color="#AED0FF"/><stop offset=".62" stop-color="#87BAFF"/><stop offset=".75" stop-color="#569EFF"/><stop offset=".88" stop-color="#1E7EFF"/><stop offset=".94" stop-color="#006DFF"/></linearGradient><linearGradient id="j" x1="80.082" y1="137.501" x2="-6.354" y2="174.642" gradientUnits="userSpaceOnUse"><stop offset=".07" stop-color="#F0F6FF"/><stop offset=".208" stop-color="#E3EEFF"/><stop offset=".339" stop-color="#CDE2FF"/><stop offset=".644" stop-color="#AED0FF"/><stop offset=".824" stop-color="#87BAFF"/></linearGradient><linearGradient id="k" x1="100.378" y1="137.303" x2="-6.738" y2="180.755" gradientUnits="userSpaceOnUse"><stop offset=".01" stop-color="#F5F9FF"/><stop offset=".12" stop-color="#F0F6FF"/><stop offset=".24" stop-color="#E3EEFF"/><stop offset=".36" stop-color="#CDE2FF"/><stop offset=".49" stop-color="#AED0FF"/><stop offset=".62" stop-color="#87BAFF"/><stop offset=".75" stop-color="#569EFF"/><stop offset=".88" stop-color="#1E7EFF"/><stop offset=".94" stop-color="#006DFF"/></linearGradient><linearGradient id="l" x1="95.767" y1="133.713" x2="-3.903" y2="181.77" gradientUnits="userSpaceOnUse"><stop offset=".01" stop-color="#F5F9FF"/><stop offset=".12" stop-color="#F0F6FF"/><stop offset=".24" stop-color="#E3EEFF"/><stop offset=".36" stop-color="#CDE2FF"/><stop offset=".49" stop-color="#AED0FF"/><stop offset=".62" stop-color="#87BAFF"/><stop offset=".75" stop-color="#569EFF"/><stop offset=".88" stop-color="#1E7EFF"/><stop offset=".94" stop-color="#006DFF"/></linearGradient><linearGradient id="m" x1="97.455" y1="137.211" x2="-2.218" y2="185.268" gradientUnits="userSpaceOnUse"><stop offset=".01" stop-color="#F5F9FF"/><stop offset=".12" stop-color="#F0F6FF"/><stop offset=".24" stop-color="#E3EEFF"/><stop offset=".36" stop-color="#CDE2FF"/><stop offset=".49" stop-color="#AED0FF"/><stop offset=".62" stop-color="#87BAFF"/><stop offset=".75" stop-color="#569EFF"/><stop offset=".88" stop-color="#1E7EFF"/><stop offset=".94" stop-color="#006DFF"/></linearGradient><linearGradient id="n" x1="99.084" y1="140.588" x2="-.588" y2="188.645" gradientUnits="userSpaceOnUse"><stop offset=".01" stop-color="#F5F9FF"/><stop offset=".12" stop-color="#F0F6FF"/><stop offset=".24" stop-color="#E3EEFF"/><stop offset=".36" stop-color="#CDE2FF"/><stop offset=".49" stop-color="#AED0FF"/><stop offset=".62" stop-color="#87BAFF"/><stop offset=".75" stop-color="#569EFF"/><stop offset=".88" stop-color="#1E7EFF"/><stop offset=".94" stop-color="#006DFF"/></linearGradient><linearGradient id="o" x1="100.591" y1="143.719" x2=".922" y2="191.776" gradientUnits="userSpaceOnUse"><stop offset=".01" stop-color="#F5F9FF"/><stop offset=".12" stop-color="#F0F6FF"/><stop offset=".24" stop-color="#E3EEFF"/><stop offset=".36" stop-color="#CDE2FF"/><stop offset=".49" stop-color="#AED0FF"/><stop offset=".62" stop-color="#87BAFF"/><stop offset=".75" stop-color="#569EFF"/><stop offset=".88" stop-color="#1E7EFF"/><stop offset=".94" stop-color="#006DFF"/></linearGradient><linearGradient id="p" x1="43.211" y1="148.102" x2="15.418" y2="166.792" gradientUnits="userSpaceOnUse"><stop offset=".01" stop-color="#F5F9FF"/><stop offset=".12" stop-color="#F0F6FF"/><stop offset=".24" stop-color="#E3EEFF"/><stop offset=".331" stop-color="#CDE2FF"/><stop offset=".49" stop-color="#AED0FF"/><stop offset=".62" stop-color="#87BAFF"/><stop offset=".75" stop-color="#569EFF"/><stop offset=".88" stop-color="#1E7EFF"/><stop offset=".94" stop-color="#006DFF"/></linearGradient><linearGradient id="q" x1="49.168" y1="148.481" x2="23.095" y2="162.419" gradientUnits="userSpaceOnUse"><stop offset=".01" stop-color="#F5F9FF"/><stop offset=".12" stop-color="#F0F6FF"/><stop offset=".24" stop-color="#E3EEFF"/><stop offset=".341" stop-color="#CDE2FF"/><stop offset=".49" stop-color="#AED0FF"/><stop offset=".62" stop-color="#87BAFF"/><stop offset=".75" stop-color="#569EFF"/><stop offset=".88" stop-color="#1E7EFF"/><stop offset=".94" stop-color="#006DFF"/></linearGradient><linearGradient id="r" x1="62.056" y1="147.046" x2="34.09" y2="167.348" gradientUnits="userSpaceOnUse"><stop offset=".01" stop-color="#F5F9FF"/><stop offset=".103" stop-color="#F0F6FF"/><stop offset=".36" stop-color="#CDE2FF"/><stop offset=".544" stop-color="#AED0FF"/><stop offset=".674" stop-color="#87BAFF"/><stop offset=".75" stop-color="#569EFF"/><stop offset=".88" stop-color="#1E7EFF"/><stop offset=".94" stop-color="#006DFF"/></linearGradient><linearGradient id="s" x1="71.447" y1="148.203" x2="40.525" y2="170.207" gradientUnits="userSpaceOnUse"><stop offset=".01" stop-color="#F5F9FF"/><stop offset=".12" stop-color="#F0F6FF"/><stop offset=".24" stop-color="#E3EEFF"/><stop offset=".288" stop-color="#CDE2FF"/><stop offset=".49" stop-color="#AED0FF"/><stop offset=".62" stop-color="#87BAFF"/><stop offset=".75" stop-color="#569EFF"/><stop offset=".88" stop-color="#1E7EFF"/><stop offset=".94" stop-color="#006DFF"/></linearGradient><linearGradient id="t" x1="76.957" y1="150.268" x2="50.754" y2="165.977" gradientUnits="userSpaceOnUse"><stop offset=".01" stop-color="#F5F9FF"/><stop offset=".12" stop-color="#F0F6FF"/><stop offset=".24" stop-color="#E3EEFF"/><stop offset=".36" stop-color="#CDE2FF"/><stop offset=".49" stop-color="#AED0FF"/><stop offset=".62" stop-color="#87BAFF"/><stop offset=".75" stop-color="#569EFF"/><stop offset=".88" stop-color="#1E7EFF"/><stop offset=".94" stop-color="#006DFF"/></linearGradient><linearGradient id="u" x1="87.007" y1="146.587" x2="58.022" y2="170.02" gradientUnits="userSpaceOnUse"><stop offset=".01" stop-color="#F5F9FF"/><stop offset=".12" stop-color="#F0F6FF"/><stop offset=".24" stop-color="#E3EEFF"/><stop offset=".36" stop-color="#CDE2FF"/><stop offset=".49" stop-color="#AED0FF"/><stop offset=".62" stop-color="#87BAFF"/><stop offset=".75" stop-color="#569EFF"/><stop offset=".88" stop-color="#1E7EFF"/><stop offset=".94" stop-color="#006DFF"/></linearGradient><linearGradient id="v" x1="83.373" y1="137.88" x2="2.558" y2="170.046" gradientUnits="userSpaceOnUse"><stop stop-color="#F5F9FF"/><stop offset=".35" stop-color="#F3F7FF"/><stop offset=".48" stop-color="#ECF4FF"/><stop offset=".57" stop-color="#E0EDFF"/><stop offset=".64" stop-color="#CFE3FF"/><stop offset=".7" stop-color="#B9D7FF"/><stop offset=".76" stop-color="#9EC7FF"/><stop offset=".81" stop-color="#7DB4FF"/><stop offset=".85" stop-color="#589FFF"/><stop offset=".89" stop-color="#2F87FF"/><stop offset=".93" stop-color="#006DFF"/></linearGradient><linearGradient id="w" x1="51.259" y1="125.84" x2="51.893" y2="184.283" gradientUnits="userSpaceOnUse"><stop offset=".14" stop-color="#F5F9FF"/><stop offset=".42" stop-color="#83B8FF"/><stop offset=".67" stop-color="#2582FF"/><stop offset=".78" stop-color="#006DFF"/></linearGradient><linearGradient id="y" x1="98.536" y1="115.484" x2="-1.137" y2="163.541" gradientUnits="userSpaceOnUse"><stop offset=".01" stop-color="#F5F9FF"/><stop offset=".12" stop-color="#F0F6FF"/><stop offset=".24" stop-color="#E3EEFF"/><stop offset=".36" stop-color="#CDE2FF"/><stop offset=".49" stop-color="#AED0FF"/><stop offset=".62" stop-color="#87BAFF"/><stop offset=".75" stop-color="#569EFF"/><stop offset=".88" stop-color="#1E7EFF"/><stop offset=".94" stop-color="#006DFF"/></linearGradient><linearGradient id="z" x1="109.681" y1="133.904" x2="2.566" y2="177.357" gradientUnits="userSpaceOnUse"><stop offset=".01" stop-color="#F5F9FF"/><stop offset=".12" stop-color="#F0F6FF"/><stop offset=".24" stop-color="#E3EEFF"/><stop offset=".36" stop-color="#CDE2FF"/><stop offset=".49" stop-color="#AED0FF"/><stop offset=".62" stop-color="#87BAFF"/><stop offset=".75" stop-color="#569EFF"/><stop offset=".88" stop-color="#1E7EFF"/><stop offset=".94" stop-color="#006DFF"/></linearGradient><linearGradient id="A" x1="107.652" y1="128.9" x2=".536" y2="172.355" gradientUnits="userSpaceOnUse"><stop offset=".01" stop-color="#F5F9FF"/><stop offset=".12" stop-color="#F0F6FF"/><stop offset=".24" stop-color="#E3EEFF"/><stop offset=".36" stop-color="#CDE2FF"/><stop offset=".49" stop-color="#AED0FF"/><stop offset=".62" stop-color="#87BAFF"/><stop offset=".75" stop-color="#569EFF"/><stop offset=".88" stop-color="#1E7EFF"/><stop offset=".94" stop-color="#006DFF"/></linearGradient><linearGradient id="B" x1="108.82" y1="131.782" x2="1.705" y2="175.235" gradientUnits="userSpaceOnUse"><stop offset=".01" stop-color="#F5F9FF"/><stop offset=".12" stop-color="#F0F6FF"/><stop offset=".24" stop-color="#E3EEFF"/><stop offset=".36" stop-color="#CDE2FF"/><stop offset=".49" stop-color="#AED0FF"/><stop offset=".62" stop-color="#87BAFF"/><stop offset=".75" stop-color="#569EFF"/><stop offset=".88" stop-color="#1E7EFF"/><stop offset=".94" stop-color="#006DFF"/></linearGradient><linearGradient id="C" x1="86.121" y1="126.056" x2="-.315" y2="163.197" gradientUnits="userSpaceOnUse"><stop offset=".07" stop-color="#F0F6FF"/><stop offset=".208" stop-color="#E3EEFF"/><stop offset=".339" stop-color="#CDE2FF"/><stop offset=".644" stop-color="#AED0FF"/><stop offset=".824" stop-color="#87BAFF"/></linearGradient><linearGradient id="D" x1="106.417" y1="125.857" x2="-.699" y2="169.309" gradientUnits="userSpaceOnUse"><stop offset=".01" stop-color="#F5F9FF"/><stop offset=".12" stop-color="#F0F6FF"/><stop offset=".24" stop-color="#E3EEFF"/><stop offset=".36" stop-color="#CDE2FF"/><stop offset=".49" stop-color="#AED0FF"/><stop offset=".62" stop-color="#87BAFF"/><stop offset=".75" stop-color="#569EFF"/><stop offset=".88" stop-color="#1E7EFF"/><stop offset=".94" stop-color="#006DFF"/></linearGradient><linearGradient id="E" x1="101.806" y1="122.267" x2="2.136" y2="170.324" gradientUnits="userSpaceOnUse"><stop offset=".01" stop-color="#F5F9FF"/><stop offset=".12" stop-color="#F0F6FF"/><stop offset=".24" stop-color="#E3EEFF"/><stop offset=".36" stop-color="#CDE2FF"/><stop offset=".49" stop-color="#AED0FF"/><stop offset=".62" stop-color="#87BAFF"/><stop offset=".75" stop-color="#569EFF"/><stop offset=".88" stop-color="#1E7EFF"/><stop offset=".94" stop-color="#006DFF"/></linearGradient><linearGradient id="F" x1="103.494" y1="125.765" x2="3.821" y2="173.823" gradientUnits="userSpaceOnUse"><stop offset=".01" stop-color="#F5F9FF"/><stop offset=".12" stop-color="#F0F6FF"/><stop offset=".24" stop-color="#E3EEFF"/><stop offset=".36" stop-color="#CDE2FF"/><stop offset=".49" stop-color="#AED0FF"/><stop offset=".62" stop-color="#87BAFF"/><stop offset=".75" stop-color="#569EFF"/><stop offset=".88" stop-color="#1E7EFF"/><stop offset=".94" stop-color="#006DFF"/></linearGradient><linearGradient id="G" x1="105.123" y1="129.142" x2="5.451" y2="177.199" gradientUnits="userSpaceOnUse"><stop offset=".01" stop-color="#F5F9FF"/><stop offset=".12" stop-color="#F0F6FF"/><stop offset=".24" stop-color="#E3EEFF"/><stop offset=".36" stop-color="#CDE2FF"/><stop offset=".49" stop-color="#AED0FF"/><stop offset=".62" stop-color="#87BAFF"/><stop offset=".75" stop-color="#569EFF"/><stop offset=".88" stop-color="#1E7EFF"/><stop offset=".94" stop-color="#006DFF"/></linearGradient><linearGradient id="H" x1="106.63" y1="132.274" x2="6.961" y2="180.331" gradientUnits="userSpaceOnUse"><stop offset=".01" stop-color="#F5F9FF"/><stop offset=".12" stop-color="#F0F6FF"/><stop offset=".24" stop-color="#E3EEFF"/><stop offset=".36" stop-color="#CDE2FF"/><stop offset=".49" stop-color="#AED0FF"/><stop offset=".62" stop-color="#87BAFF"/><stop offset=".75" stop-color="#569EFF"/><stop offset=".88" stop-color="#1E7EFF"/><stop offset=".94" stop-color="#006DFF"/></linearGradient><linearGradient id="I" x1="49.25" y1="136.656" x2="21.457" y2="155.346" gradientUnits="userSpaceOnUse"><stop offset=".01" stop-color="#F5F9FF"/><stop offset=".12" stop-color="#F0F6FF"/><stop offset=".24" stop-color="#E3EEFF"/><stop offset=".331" stop-color="#CDE2FF"/><stop offset=".49" stop-color="#AED0FF"/><stop offset=".62" stop-color="#87BAFF"/><stop offset=".75" stop-color="#569EFF"/><stop offset=".88" stop-color="#1E7EFF"/><stop offset=".94" stop-color="#006DFF"/></linearGradient><linearGradient id="J" x1="55.207" y1="137.035" x2="29.134" y2="150.974" gradientUnits="userSpaceOnUse"><stop offset=".01" stop-color="#F5F9FF"/><stop offset=".12" stop-color="#F0F6FF"/><stop offset=".24" stop-color="#E3EEFF"/><stop offset=".341" stop-color="#CDE2FF"/><stop offset=".49" stop-color="#AED0FF"/><stop offset=".62" stop-color="#87BAFF"/><stop offset=".75" stop-color="#569EFF"/><stop offset=".88" stop-color="#1E7EFF"/><stop offset=".94" stop-color="#006DFF"/></linearGradient><linearGradient id="K" x1="68.095" y1="135.6" x2="40.129" y2="155.902" gradientUnits="userSpaceOnUse"><stop offset=".01" stop-color="#F5F9FF"/><stop offset=".103" stop-color="#F0F6FF"/><stop offset=".36" stop-color="#CDE2FF"/><stop offset=".544" stop-color="#AED0FF"/><stop offset=".674" stop-color="#87BAFF"/><stop offset=".75" stop-color="#569EFF"/><stop offset=".88" stop-color="#1E7EFF"/><stop offset=".94" stop-color="#006DFF"/></linearGradient><linearGradient id="L" x1="77.486" y1="136.758" x2="46.564" y2="158.762" gradientUnits="userSpaceOnUse"><stop offset=".01" stop-color="#F5F9FF"/><stop offset=".12" stop-color="#F0F6FF"/><stop offset=".24" stop-color="#E3EEFF"/><stop offset=".288" stop-color="#CDE2FF"/><stop offset=".49" stop-color="#AED0FF"/><stop offset=".62" stop-color="#87BAFF"/><stop offset=".75" stop-color="#569EFF"/><stop offset=".88" stop-color="#1E7EFF"/><stop offset=".94" stop-color="#006DFF"/></linearGradient><linearGradient id="M" x1="82.996" y1="138.822" x2="56.793" y2="154.532" gradientUnits="userSpaceOnUse"><stop offset=".01" stop-color="#F5F9FF"/><stop offset=".12" stop-color="#F0F6FF"/><stop offset=".24" stop-color="#E3EEFF"/><stop offset=".36" stop-color="#CDE2FF"/><stop offset=".49" stop-color="#AED0FF"/><stop offset=".62" stop-color="#87BAFF"/><stop offset=".75" stop-color="#569EFF"/><stop offset=".88" stop-color="#1E7EFF"/><stop offset=".94" stop-color="#006DFF"/></linearGradient><linearGradient id="N" x1="93.046" y1="135.142" x2="64.061" y2="158.574" gradientUnits="userSpaceOnUse"><stop offset=".01" stop-color="#F5F9FF"/><stop offset=".12" stop-color="#F0F6FF"/><stop offset=".24" stop-color="#E3EEFF"/><stop offset=".36" stop-color="#CDE2FF"/><stop offset=".49" stop-color="#AED0FF"/><stop offset=".62" stop-color="#87BAFF"/><stop offset=".75" stop-color="#569EFF"/><stop offset=".88" stop-color="#1E7EFF"/><stop offset=".94" stop-color="#006DFF"/></linearGradient><linearGradient id="O" x1="89.412" y1="126.434" x2="8.597" y2="158.6" gradientUnits="userSpaceOnUse"><stop stop-color="#F5F9FF"/><stop offset=".35" stop-color="#F3F7FF"/><stop offset=".48" stop-color="#ECF4FF"/><stop offset=".57" stop-color="#E0EDFF"/><stop offset=".64" stop-color="#CFE3FF"/><stop offset=".7" stop-color="#B9D7FF"/><stop offset=".76" stop-color="#9EC7FF"/><stop offset=".81" stop-color="#7DB4FF"/><stop offset=".85" stop-color="#589FFF"/><stop offset=".89" stop-color="#2F87FF"/><stop offset=".93" stop-color="#006DFF"/></linearGradient><linearGradient id="P" x1="57.298" y1="114.395" x2="57.932" y2="172.837" gradientUnits="userSpaceOnUse"><stop offset=".14" stop-color="#F5F9FF"/><stop offset=".42" stop-color="#83B8FF"/><stop offset=".67" stop-color="#2582FF"/><stop offset=".78" stop-color="#006DFF"/></linearGradient><linearGradient id="R" x1="88.612" y1="104.3" x2="-11.061" y2="152.357" gradientUnits="userSpaceOnUse"><stop offset=".01" stop-color="#F5F9FF"/><stop offset=".12" stop-color="#F0F6FF"/><stop offset=".24" stop-color="#E3EEFF"/><stop offset=".36" stop-color="#CDE2FF"/><stop offset=".49" stop-color="#AED0FF"/><stop offset=".62" stop-color="#87BAFF"/><stop offset=".75" stop-color="#569EFF"/><stop offset=".88" stop-color="#1E7EFF"/><stop offset=".94" stop-color="#006DFF"/></linearGradient><linearGradient id="S" x1="99.758" y1="122.72" x2="-7.358" y2="166.172" gradientUnits="userSpaceOnUse"><stop offset=".01" stop-color="#F5F9FF"/><stop offset=".12" stop-color="#F0F6FF"/><stop offset=".24" stop-color="#E3EEFF"/><stop offset=".36" stop-color="#CDE2FF"/><stop offset=".49" stop-color="#AED0FF"/><stop offset=".62" stop-color="#87BAFF"/><stop offset=".75" stop-color="#569EFF"/><stop offset=".88" stop-color="#1E7EFF"/><stop offset=".94" stop-color="#006DFF"/></linearGradient><linearGradient id="T" x1="97.728" y1="117.716" x2="-9.388" y2="161.171" gradientUnits="userSpaceOnUse"><stop offset=".01" stop-color="#F5F9FF"/><stop offset=".12" stop-color="#F0F6FF"/><stop offset=".24" stop-color="#E3EEFF"/><stop offset=".36" stop-color="#CDE2FF"/><stop offset=".49" stop-color="#AED0FF"/><stop offset=".62" stop-color="#87BAFF"/><stop offset=".75" stop-color="#569EFF"/><stop offset=".88" stop-color="#1E7EFF"/><stop offset=".94" stop-color="#006DFF"/></linearGradient><linearGradient id="U" x1="98.897" y1="120.598" x2="-8.219" y2="164.05" gradientUnits="userSpaceOnUse"><stop offset=".01" stop-color="#F5F9FF"/><stop offset=".12" stop-color="#F0F6FF"/><stop offset=".24" stop-color="#E3EEFF"/><stop offset=".36" stop-color="#CDE2FF"/><stop offset=".49" stop-color="#AED0FF"/><stop offset=".62" stop-color="#87BAFF"/><stop offset=".75" stop-color="#569EFF"/><stop offset=".88" stop-color="#1E7EFF"/><stop offset=".94" stop-color="#006DFF"/></linearGradient><linearGradient id="V" x1="76.198" y1="114.871" x2="-10.239" y2="152.013" gradientUnits="userSpaceOnUse"><stop offset=".07" stop-color="#F0F6FF"/><stop offset=".208" stop-color="#E3EEFF"/><stop offset=".339" stop-color="#CDE2FF"/><stop offset=".644" stop-color="#AED0FF"/><stop offset=".824" stop-color="#87BAFF"/></linearGradient><linearGradient id="W" x1="96.493" y1="114.673" x2="-10.623" y2="158.125" gradientUnits="userSpaceOnUse"><stop offset=".01" stop-color="#F5F9FF"/><stop offset=".12" stop-color="#F0F6FF"/><stop offset=".24" stop-color="#E3EEFF"/><stop offset=".36" stop-color="#CDE2FF"/><stop offset=".49" stop-color="#AED0FF"/><stop offset=".62" stop-color="#87BAFF"/><stop offset=".75" stop-color="#569EFF"/><stop offset=".88" stop-color="#1E7EFF"/><stop offset=".94" stop-color="#006DFF"/></linearGradient><linearGradient id="X" x1="91.882" y1="111.083" x2="-7.788" y2="159.14" gradientUnits="userSpaceOnUse"><stop offset=".01" stop-color="#F5F9FF"/><stop offset=".12" stop-color="#F0F6FF"/><stop offset=".24" stop-color="#E3EEFF"/><stop offset=".36" stop-color="#CDE2FF"/><stop offset=".49" stop-color="#AED0FF"/><stop offset=".62" stop-color="#87BAFF"/><stop offset=".75" stop-color="#569EFF"/><stop offset=".88" stop-color="#1E7EFF"/><stop offset=".94" stop-color="#006DFF"/></linearGradient><linearGradient id="Y" x1="93.57" y1="114.581" x2="-6.103" y2="162.639" gradientUnits="userSpaceOnUse"><stop offset=".01" stop-color="#F5F9FF"/><stop offset=".12" stop-color="#F0F6FF"/><stop offset=".24" stop-color="#E3EEFF"/><stop offset=".36" stop-color="#CDE2FF"/><stop offset=".49" stop-color="#AED0FF"/><stop offset=".62" stop-color="#87BAFF"/><stop offset=".75" stop-color="#569EFF"/><stop offset=".88" stop-color="#1E7EFF"/><stop offset=".94" stop-color="#006DFF"/></linearGradient><linearGradient id="Z" x1="95.2" y1="117.958" x2="-4.473" y2="166.015" gradientUnits="userSpaceOnUse"><stop offset=".01" stop-color="#F5F9FF"/><stop offset=".12" stop-color="#F0F6FF"/><stop offset=".24" stop-color="#E3EEFF"/><stop offset=".36" stop-color="#CDE2FF"/><stop offset=".49" stop-color="#AED0FF"/><stop offset=".62" stop-color="#87BAFF"/><stop offset=".75" stop-color="#569EFF"/><stop offset=".88" stop-color="#1E7EFF"/><stop offset=".94" stop-color="#006DFF"/></linearGradient><linearGradient id="aa" x1="96.707" y1="121.089" x2="-2.963" y2="169.147" gradientUnits="userSpaceOnUse"><stop offset=".01" stop-color="#F5F9FF"/><stop offset=".12" stop-color="#F0F6FF"/><stop offset=".24" stop-color="#E3EEFF"/><stop offset=".36" stop-color="#CDE2FF"/><stop offset=".49" stop-color="#AED0FF"/><stop offset=".62" stop-color="#87BAFF"/><stop offset=".75" stop-color="#569EFF"/><stop offset=".88" stop-color="#1E7EFF"/><stop offset=".94" stop-color="#006DFF"/></linearGradient><linearGradient id="ab" x1="39.326" y1="125.472" x2="11.534" y2="144.162" gradientUnits="userSpaceOnUse"><stop offset=".01" stop-color="#F5F9FF"/><stop offset=".12" stop-color="#F0F6FF"/><stop offset=".24" stop-color="#E3EEFF"/><stop offset=".331" stop-color="#CDE2FF"/><stop offset=".49" stop-color="#AED0FF"/><stop offset=".62" stop-color="#87BAFF"/><stop offset=".75" stop-color="#569EFF"/><stop offset=".88" stop-color="#1E7EFF"/><stop offset=".94" stop-color="#006DFF"/></linearGradient><linearGradient id="ac" x1="45.283" y1="125.851" x2="19.21" y2="139.79" gradientUnits="userSpaceOnUse"><stop offset=".01" stop-color="#F5F9FF"/><stop offset=".12" stop-color="#F0F6FF"/><stop offset=".24" stop-color="#E3EEFF"/><stop offset=".341" stop-color="#CDE2FF"/><stop offset=".49" stop-color="#AED0FF"/><stop offset=".62" stop-color="#87BAFF"/><stop offset=".75" stop-color="#569EFF"/><stop offset=".88" stop-color="#1E7EFF"/><stop offset=".94" stop-color="#006DFF"/></linearGradient><linearGradient id="ad" x1="58.171" y1="124.416" x2="30.205" y2="144.718" gradientUnits="userSpaceOnUse"><stop offset=".01" stop-color="#F5F9FF"/><stop offset=".103" stop-color="#F0F6FF"/><stop offset=".36" stop-color="#CDE2FF"/><stop offset=".544" stop-color="#AED0FF"/><stop offset=".674" stop-color="#87BAFF"/><stop offset=".75" stop-color="#569EFF"/><stop offset=".88" stop-color="#1E7EFF"/><stop offset=".94" stop-color="#006DFF"/></linearGradient><linearGradient id="ae" x1="67.562" y1="125.573" x2="36.64" y2="147.578" gradientUnits="userSpaceOnUse"><stop offset=".01" stop-color="#F5F9FF"/><stop offset=".12" stop-color="#F0F6FF"/><stop offset=".24" stop-color="#E3EEFF"/><stop offset=".288" stop-color="#CDE2FF"/><stop offset=".49" stop-color="#AED0FF"/><stop offset=".62" stop-color="#87BAFF"/><stop offset=".75" stop-color="#569EFF"/><stop offset=".88" stop-color="#1E7EFF"/><stop offset=".94" stop-color="#006DFF"/></linearGradient><linearGradient id="af" x1="73.072" y1="127.638" x2="46.869" y2="143.347" gradientUnits="userSpaceOnUse"><stop offset=".01" stop-color="#F5F9FF"/><stop offset=".12" stop-color="#F0F6FF"/><stop offset=".24" stop-color="#E3EEFF"/><stop offset=".36" stop-color="#CDE2FF"/><stop offset=".49" stop-color="#AED0FF"/><stop offset=".62" stop-color="#87BAFF"/><stop offset=".75" stop-color="#569EFF"/><stop offset=".88" stop-color="#1E7EFF"/><stop offset=".94" stop-color="#006DFF"/></linearGradient><linearGradient id="ag" x1="83.122" y1="123.958" x2="54.137" y2="147.39" gradientUnits="userSpaceOnUse"><stop offset=".01" stop-color="#F5F9FF"/><stop offset=".12" stop-color="#F0F6FF"/><stop offset=".24" stop-color="#E3EEFF"/><stop offset=".36" stop-color="#CDE2FF"/><stop offset=".49" stop-color="#AED0FF"/><stop offset=".62" stop-color="#87BAFF"/><stop offset=".75" stop-color="#569EFF"/><stop offset=".88" stop-color="#1E7EFF"/><stop offset=".94" stop-color="#006DFF"/></linearGradient><linearGradient id="ah" x1="79.488" y1="115.25" x2="-1.326" y2="147.416" gradientUnits="userSpaceOnUse"><stop stop-color="#F5F9FF"/><stop offset=".35" stop-color="#F3F7FF"/><stop offset=".48" stop-color="#ECF4FF"/><stop offset=".57" stop-color="#E0EDFF"/><stop offset=".64" stop-color="#CFE3FF"/><stop offset=".7" stop-color="#B9D7FF"/><stop offset=".76" stop-color="#9EC7FF"/><stop offset=".81" stop-color="#7DB4FF"/><stop offset=".85" stop-color="#589FFF"/><stop offset=".89" stop-color="#2F87FF"/><stop offset=".93" stop-color="#006DFF"/></linearGradient><linearGradient id="ai" x1="47.374" y1="103.211" x2="48.009" y2="161.653" gradientUnits="userSpaceOnUse"><stop offset=".14" stop-color="#F5F9FF"/><stop offset=".42" stop-color="#83B8FF"/><stop offset=".67" stop-color="#2582FF"/><stop offset=".78" stop-color="#006DFF"/></linearGradient><linearGradient id="ak" x1="97.895" y1="93.561" x2="-1.777" y2="141.618" gradientUnits="userSpaceOnUse"><stop offset=".01" stop-color="#F5F9FF"/><stop offset=".12" stop-color="#F0F6FF"/><stop offset=".24" stop-color="#E3EEFF"/><stop offset=".36" stop-color="#CDE2FF"/><stop offset=".49" stop-color="#AED0FF"/><stop offset=".62" stop-color="#87BAFF"/><stop offset=".75" stop-color="#569EFF"/><stop offset=".88" stop-color="#1E7EFF"/><stop offset=".94" stop-color="#006DFF"/></linearGradient><linearGradient id="al" x1="109.041" y1="111.981" x2="1.925" y2="155.434" gradientUnits="userSpaceOnUse"><stop offset=".01" stop-color="#F5F9FF"/><stop offset=".12" stop-color="#F0F6FF"/><stop offset=".24" stop-color="#E3EEFF"/><stop offset=".36" stop-color="#CDE2FF"/><stop offset=".49" stop-color="#AED0FF"/><stop offset=".62" stop-color="#87BAFF"/><stop offset=".75" stop-color="#569EFF"/><stop offset=".88" stop-color="#1E7EFF"/><stop offset=".94" stop-color="#006DFF"/></linearGradient><linearGradient id="am" x1="107.011" y1="106.977" x2="-.104" y2="150.432" gradientUnits="userSpaceOnUse"><stop offset=".01" stop-color="#F5F9FF"/><stop offset=".12" stop-color="#F0F6FF"/><stop offset=".24" stop-color="#E3EEFF"/><stop offset=".36" stop-color="#CDE2FF"/><stop offset=".49" stop-color="#AED0FF"/><stop offset=".62" stop-color="#87BAFF"/><stop offset=".75" stop-color="#569EFF"/><stop offset=".88" stop-color="#1E7EFF"/><stop offset=".94" stop-color="#006DFF"/></linearGradient><linearGradient id="an" x1="108.18" y1="109.859" x2="1.064" y2="153.312" gradientUnits="userSpaceOnUse"><stop offset=".01" stop-color="#F5F9FF"/><stop offset=".12" stop-color="#F0F6FF"/><stop offset=".24" stop-color="#E3EEFF"/><stop offset=".36" stop-color="#CDE2FF"/><stop offset=".49" stop-color="#AED0FF"/><stop offset=".62" stop-color="#87BAFF"/><stop offset=".75" stop-color="#569EFF"/><stop offset=".88" stop-color="#1E7EFF"/><stop offset=".94" stop-color="#006DFF"/></linearGradient><linearGradient id="ao" x1="85.481" y1="104.133" x2="-.956" y2="141.274" gradientUnits="userSpaceOnUse"><stop offset=".07" stop-color="#F0F6FF"/><stop offset=".208" stop-color="#E3EEFF"/><stop offset=".339" stop-color="#CDE2FF"/><stop offset=".644" stop-color="#AED0FF"/><stop offset=".824" stop-color="#87BAFF"/></linearGradient><linearGradient id="ap" x1="105.776" y1="103.934" x2="-1.339" y2="147.387" gradientUnits="userSpaceOnUse"><stop offset=".01" stop-color="#F5F9FF"/><stop offset=".12" stop-color="#F0F6FF"/><stop offset=".24" stop-color="#E3EEFF"/><stop offset=".36" stop-color="#CDE2FF"/><stop offset=".49" stop-color="#AED0FF"/><stop offset=".62" stop-color="#87BAFF"/><stop offset=".75" stop-color="#569EFF"/><stop offset=".88" stop-color="#1E7EFF"/><stop offset=".94" stop-color="#006DFF"/></linearGradient><linearGradient id="aq" x1="101.165" y1="100.344" x2="1.496" y2="148.402" gradientUnits="userSpaceOnUse"><stop offset=".01" stop-color="#F5F9FF"/><stop offset=".12" stop-color="#F0F6FF"/><stop offset=".24" stop-color="#E3EEFF"/><stop offset=".36" stop-color="#CDE2FF"/><stop offset=".49" stop-color="#AED0FF"/><stop offset=".62" stop-color="#87BAFF"/><stop offset=".75" stop-color="#569EFF"/><stop offset=".88" stop-color="#1E7EFF"/><stop offset=".94" stop-color="#006DFF"/></linearGradient><linearGradient id="ar" x1="102.853" y1="103.843" x2="3.181" y2="151.9" gradientUnits="userSpaceOnUse"><stop offset=".01" stop-color="#F5F9FF"/><stop offset=".12" stop-color="#F0F6FF"/><stop offset=".24" stop-color="#E3EEFF"/><stop offset=".36" stop-color="#CDE2FF"/><stop offset=".49" stop-color="#AED0FF"/><stop offset=".62" stop-color="#87BAFF"/><stop offset=".75" stop-color="#569EFF"/><stop offset=".88" stop-color="#1E7EFF"/><stop offset=".94" stop-color="#006DFF"/></linearGradient><linearGradient id="as" x1="104.483" y1="107.219" x2="4.81" y2="155.277" gradientUnits="userSpaceOnUse"><stop offset=".01" stop-color="#F5F9FF"/><stop offset=".12" stop-color="#F0F6FF"/><stop offset=".24" stop-color="#E3EEFF"/><stop offset=".36" stop-color="#CDE2FF"/><stop offset=".49" stop-color="#AED0FF"/><stop offset=".62" stop-color="#87BAFF"/><stop offset=".75" stop-color="#569EFF"/><stop offset=".88" stop-color="#1E7EFF"/><stop offset=".94" stop-color="#006DFF"/></linearGradient><linearGradient id="at" x1="105.99" y1="110.351" x2="6.32" y2="158.408" gradientUnits="userSpaceOnUse"><stop offset=".01" stop-color="#F5F9FF"/><stop offset=".12" stop-color="#F0F6FF"/><stop offset=".24" stop-color="#E3EEFF"/><stop offset=".36" stop-color="#CDE2FF"/><stop offset=".49" stop-color="#AED0FF"/><stop offset=".62" stop-color="#87BAFF"/><stop offset=".75" stop-color="#569EFF"/><stop offset=".88" stop-color="#1E7EFF"/><stop offset=".94" stop-color="#006DFF"/></linearGradient><linearGradient id="au" x1="48.61" y1="114.733" x2="20.817" y2="133.423" gradientUnits="userSpaceOnUse"><stop offset=".01" stop-color="#F5F9FF"/><stop offset=".12" stop-color="#F0F6FF"/><stop offset=".24" stop-color="#E3EEFF"/><stop offset=".331" stop-color="#CDE2FF"/><stop offset=".49" stop-color="#AED0FF"/><stop offset=".62" stop-color="#87BAFF"/><stop offset=".75" stop-color="#569EFF"/><stop offset=".88" stop-color="#1E7EFF"/><stop offset=".94" stop-color="#006DFF"/></linearGradient><linearGradient id="av" x1="54.566" y1="115.112" x2="28.493" y2="129.051" gradientUnits="userSpaceOnUse"><stop offset=".01" stop-color="#F5F9FF"/><stop offset=".12" stop-color="#F0F6FF"/><stop offset=".24" stop-color="#E3EEFF"/><stop offset=".341" stop-color="#CDE2FF"/><stop offset=".49" stop-color="#AED0FF"/><stop offset=".62" stop-color="#87BAFF"/><stop offset=".75" stop-color="#569EFF"/><stop offset=".88" stop-color="#1E7EFF"/><stop offset=".94" stop-color="#006DFF"/></linearGradient><linearGradient id="aw" x1="67.454" y1="113.677" x2="39.489" y2="133.98" gradientUnits="userSpaceOnUse"><stop offset=".01" stop-color="#F5F9FF"/><stop offset=".103" stop-color="#F0F6FF"/><stop offset=".36" stop-color="#CDE2FF"/><stop offset=".544" stop-color="#AED0FF"/><stop offset=".674" stop-color="#87BAFF"/><stop offset=".75" stop-color="#569EFF"/><stop offset=".88" stop-color="#1E7EFF"/><stop offset=".94" stop-color="#006DFF"/></linearGradient><linearGradient id="ax" x1="76.846" y1="114.835" x2="45.923" y2="136.839" gradientUnits="userSpaceOnUse"><stop offset=".01" stop-color="#F5F9FF"/><stop offset=".12" stop-color="#F0F6FF"/><stop offset=".24" stop-color="#E3EEFF"/><stop offset=".288" stop-color="#CDE2FF"/><stop offset=".49" stop-color="#AED0FF"/><stop offset=".62" stop-color="#87BAFF"/><stop offset=".75" stop-color="#569EFF"/><stop offset=".88" stop-color="#1E7EFF"/><stop offset=".94" stop-color="#006DFF"/></linearGradient><linearGradient id="ay" x1="82.356" y1="116.9" x2="56.153" y2="132.609" gradientUnits="userSpaceOnUse"><stop offset=".01" stop-color="#F5F9FF"/><stop offset=".12" stop-color="#F0F6FF"/><stop offset=".24" stop-color="#E3EEFF"/><stop offset=".36" stop-color="#CDE2FF"/><stop offset=".49" stop-color="#AED0FF"/><stop offset=".62" stop-color="#87BAFF"/><stop offset=".75" stop-color="#569EFF"/><stop offset=".88" stop-color="#1E7EFF"/><stop offset=".94" stop-color="#006DFF"/></linearGradient><linearGradient id="az" x1="92.405" y1="113.219" x2="63.42" y2="136.651" gradientUnits="userSpaceOnUse"><stop offset=".01" stop-color="#F5F9FF"/><stop offset=".12" stop-color="#F0F6FF"/><stop offset=".24" stop-color="#E3EEFF"/><stop offset=".36" stop-color="#CDE2FF"/><stop offset=".49" stop-color="#AED0FF"/><stop offset=".62" stop-color="#87BAFF"/><stop offset=".75" stop-color="#569EFF"/><stop offset=".88" stop-color="#1E7EFF"/><stop offset=".94" stop-color="#006DFF"/></linearGradient><linearGradient id="aA" x1="88.771" y1="104.512" x2="7.957" y2="136.677" gradientUnits="userSpaceOnUse"><stop stop-color="#F5F9FF"/><stop offset=".35" stop-color="#F3F7FF"/><stop offset=".48" stop-color="#ECF4FF"/><stop offset=".57" stop-color="#E0EDFF"/><stop offset=".64" stop-color="#CFE3FF"/><stop offset=".7" stop-color="#B9D7FF"/><stop offset=".76" stop-color="#9EC7FF"/><stop offset=".81" stop-color="#7DB4FF"/><stop offset=".85" stop-color="#589FFF"/><stop offset=".89" stop-color="#2F87FF"/><stop offset=".93" stop-color="#006DFF"/></linearGradient><linearGradient id="aB" x1="56.657" y1="92.472" x2="57.292" y2="150.915" gradientUnits="userSpaceOnUse"><stop offset=".14" stop-color="#F5F9FF"/><stop offset=".42" stop-color="#83B8FF"/><stop offset=".67" stop-color="#2582FF"/><stop offset=".78" stop-color="#006DFF"/></linearGradient><clipPath id="e"><path fill="#fff" transform="translate(23.622 148.156)" d="M0 0h55.804v14.377H0z"/></clipPath><clipPath id="x"><path fill="#fff" transform="translate(29.661 136.71)" d="M0 0h55.804v14.377H0z"/></clipPath><clipPath id="Q"><path fill="#fff" transform="translate(19.737 125.526)" d="M0 0h55.804v14.377H0z"/></clipPath><clipPath id="aj"><path fill="#fff" transform="translate(29.02 114.787)" d="M0 0h55.804v14.377H0z"/></clipPath><radialGradient id="b" cx="0" cy="0" r="1" gradientUnits="userSpaceOnUse" gradientTransform="rotate(-157.355 50.71 34.779) scale(161.297 161.436)"><stop offset=".26" stop-color="#fff"/><stop offset=".32" stop-color="#F6FAFF"/><stop offset=".4" stop-color="#E0EDFF"/><stop offset=".51" stop-color="#BCD8FF"/><stop offset=".63" stop-color="#89BBFF"/><stop offset=".77" stop-color="#4896FF"/><stop offset=".9" stop-color="#006DFF"/><stop offset=".92" stop-color="#006BFA"/><stop offset=".93" stop-color="#0365EC"/><stop offset=".94" stop-color="#085BD5"/><stop offset=".96" stop-color="#0F4EB6"/><stop offset=".97" stop-color="#173D8D"/><stop offset=".98" stop-color="#202D66"/></radialGradient><radialGradient id="c" cx="0" cy="0" r="1" gradientUnits="userSpaceOnUse" gradientTransform="rotate(-.065 163452.41 -2399.644) scale(277.499)"><stop offset=".11" stop-color="#006DFF"/><stop offset=".26" stop-color="#358BFF"/><stop offset=".46" stop-color="#7CB4FF"/><stop offset=".64" stop-color="#B4D4FF"/><stop offset=".8" stop-color="#DDEBFF"/><stop offset=".92" stop-color="#F5F9FF"/><stop offset="1" stop-color="#fff"/></radialGradient></defs></svg>