<svg width="200" height="200" viewBox="0 0 200 200" fill="none" xmlns="http://www.w3.org/2000/svg"><path d="M174.361 101.75c-5.1-34.05-36.84-57.51-70.89-52.41-34.05 5.1-57.52 36.85-52.42 70.9 5.1 34.05 36.85 57.52 70.9 52.41 34.05-5.1 57.52-36.85 52.41-70.9Zm-117.96 17.68c-4.66-31.1 16.77-60.09 47.87-64.75 31.1-4.66 60.09 16.77 64.75 47.87 4.66 31.1-16.77 60.09-47.87 64.75-31.1 4.66-60.09-16.77-64.75-47.87Z" fill="url(#a)"/><path d="M153.93 165.31c10.925 0 19.78-8.856 19.78-19.78 0-10.924-8.855-19.78-19.78-19.78-10.924 0-19.78 8.856-19.78 19.78 0 10.924 8.856 19.78 19.78 19.78Z" fill="url(#b)"/><path d="M164.625 143.68h-8.85v-8.85h-3.69v8.85h-8.85v3.7h8.85v8.85h3.69v-8.85h8.85v-3.7Z" fill="#fff"/><path d="m59.499 115.674 73.777-27.736c4.178-1.57 6.323-6.213 4.791-10.37l-16.078-43.623c-1.532-4.157-6.16-6.253-10.338-4.682L37.873 56.999c-4.177 1.57-6.322 6.213-4.79 10.37l16.078 43.623c1.532 4.156 6.16 6.252 10.338 4.682Z" fill="url(#c)"/><path d="M124.002 39.728 35.24 73.11l4.205 11.385 88.762-33.384-4.205-11.384Z" fill="url(#d)"/><path d="m61.028 102.334 8.62-3.24c1.707-.642 2.583-2.54 1.957-4.24l-3.163-8.583a3.266 3.266 0 0 0-4.227-1.916l-8.619 3.24c-1.707.642-2.584 2.54-1.957 4.24l3.163 8.583a3.266 3.266 0 0 0 4.226 1.916Z" fill="#fff"/><path d="m41.196 126.709 78.06-10.907c4.42-.617 7.53-4.678 6.945-9.069l-6.135-46.085c-.584-4.391-4.641-7.45-9.061-6.832L32.944 64.722c-4.42.618-7.53 4.678-6.945 9.07l6.135 46.085c.584 4.391 4.641 7.45 9.062 6.832Z" fill="url(#e)"/><path d="M120.765 66.732 26.847 79.867l1.61 12.03 93.918-13.136-1.61-12.03Z" fill="url(#f)"/><path d="m45.61 114.028 9.119-1.274c1.806-.253 3.077-1.913 2.838-3.71l-1.207-9.066a3.266 3.266 0 0 0-3.704-2.796l-9.12 1.275c-1.806.252-3.077 1.913-2.838 3.709l1.207 9.067a3.266 3.266 0 0 0 3.704 2.795Z" fill="#fff"/><defs><radialGradient id="a" cx="0" cy="0" r="1" gradientUnits="userSpaceOnUse" gradientTransform="rotate(81.47 -8.139 120.836) scale(155.34)"><stop offset=".232" stop-color="#fff"/><stop offset=".629" stop-color="#006DFF"/><stop offset=".971" stop-color="#202D66"/></radialGradient><radialGradient id="b" cx="0" cy="0" r="1" gradientUnits="userSpaceOnUse" gradientTransform="rotate(140.95 68.083 97.223) scale(91.2232)"><stop stop-color="#006DFF"/><stop offset=".39" stop-color="#104BAD"/><stop offset=".67" stop-color="#1B357A"/><stop offset=".81" stop-color="#202D66"/></radialGradient><radialGradient id="c" cx="0" cy="0" r="1" gradientUnits="userSpaceOnUse" gradientTransform="rotate(-37.935 210.652 190.542) scale(386.269 383.359)"><stop offset=".29" stop-color="#00033B"/><stop offset=".52" stop-color="#006DFF"/><stop offset=".64" stop-color="#7CB4FF"/><stop offset=".747" stop-color="#B4D4FF"/><stop offset=".8" stop-color="#DDEBFF"/><stop offset=".92" stop-color="#F5F9FF"/><stop offset="1" stop-color="#fff"/></radialGradient><radialGradient id="e" cx="0" cy="0" r="1" gradientUnits="userSpaceOnUse" gradientTransform="rotate(-19.031 399.3 372.29) scale(347.137 344.522)"><stop offset=".11" stop-color="#006DFF"/><stop offset=".26" stop-color="#358BFF"/><stop offset=".46" stop-color="#7CB4FF"/><stop offset=".64" stop-color="#B4D4FF"/><stop offset=".8" stop-color="#DDEBFF"/><stop offset=".92" stop-color="#F5F9FF"/><stop offset="1" stop-color="#fff"/></radialGradient><linearGradient id="d" x1="37.33" y1="78.808" x2="126.3" y2="45.948" gradientUnits="userSpaceOnUse"><stop offset=".15" stop-color="#202D66"/><stop offset=".29" stop-color="#1B357A"/><stop offset=".59" stop-color="#104BAD"/><stop offset="1" stop-color="#006DFF"/></linearGradient><linearGradient id="f" x1="27.638" y1="85.884" x2="121.644" y2="73.304" gradientUnits="userSpaceOnUse"><stop offset=".15" stop-color="#202D66"/><stop offset=".29" stop-color="#1B357A"/><stop offset=".59" stop-color="#104BAD"/><stop offset="1" stop-color="#006DFF"/></linearGradient></defs></svg>