<svg width="200" height="200" viewBox="0 0 200 200" fill="none" xmlns="http://www.w3.org/2000/svg"><path d="M26.67 101.168c4.77 30.16 33.08 50.74 63.24 45.97 30.159-4.77 50.739-33.08 45.969-63.24-4.77-30.16-33.09-50.74-63.25-45.97-30.15 4.77-50.73 33.08-45.96 63.24Zm104.469-16.52c4.36 27.54-14.44 53.4-41.98 57.76-27.54 4.36-53.4-14.44-57.76-41.98-4.35-27.55 14.44-53.41 41.98-57.77 27.54-4.36 53.4 14.44 57.76 41.98v.01Z" fill="url(#a)"/><path d="M30.419 84.148c9.29 0 16.82-7.53 16.82-16.82s-7.53-16.82-16.82-16.82-16.82 7.53-16.82 16.82 7.53 16.82 16.82 16.82Z" fill="url(#b)"/><path opacity=".1" d="m186.149 106.338-17.67-50.72c-.79-2.28-3.29-3.48-5.57-2.69l-92.95 32.38c-2.28.79-3.48 3.29-2.69 5.57l1.85 5.3c.27.77.75 1.42 1.35 1.92l.36 2.13h-2.04c-2.23 0-4.03 1.8-4.03 4.02v6.19c0 1.67 1.02 3.17 2.58 3.76 7.04 2.67 12.05 9.49 12.04 17.47 0 7.98-5.02 14.78-12.07 17.45a4.018 4.018 0 0 0-2.59 3.76v5.77c0 2.23 1.8 4.03 4.02 4.03l99.12.08c2.23 0 4.03-1.8 4.03-4.03l.02-20.58 9.37-1.59c2.38-.4 3.98-2.66 3.58-5.04l-3.22-18.98 1.83-.64c2.28-.79 3.48-3.29 2.69-5.57l-.01.01Z" fill="url(#c)"/><path d="m60.64 89.258 1.85 5.3a4.39 4.39 0 0 0 3.99 2.93c7.44.29 14.29 5.05 16.89 12.51 2.6 7.46.19 15.44-5.46 20.3-1.37 1.18-1.9 3.07-1.31 4.77l1.71 4.91c.79 2.28 3.29 3.48 5.57 2.69l92.959-32.38c2.28-.79 3.48-3.29 2.69-5.57l-17.67-50.72c-.79-2.28-3.29-3.48-5.57-2.69l-92.96 32.39c-2.28.79-3.48 3.29-2.69 5.57v-.01Z" fill="url(#d)"/><path d="m63.57 94.888.94 5.54c.3 1.78 1.68 3.18 3.45 3.55 7.29 1.53 13.25 7.36 14.57 15.15 1.32 7.79-2.39 15.26-8.76 19.11-1.55.93-2.39 2.71-2.08 4.49l.87 5.12c.4 2.38 2.66 3.98 5.04 3.58l97.049-16.47c2.38-.4 3.98-2.66 3.58-5.04l-8.99-52.96a4.372 4.372 0 0 0-5.04-3.58l-97.05 16.47c-2.38.4-3.98 2.66-3.58 5.04Z" fill="url(#e)"/><path d="M49.129 101.638v6.19c0 1.67 1.02 3.17 2.58 3.76 7.04 2.67 12.05 9.49 12.04 17.47 0 7.98-5.02 14.78-12.07 17.45a4.018 4.018 0 0 0-2.59 3.76v5.77c0 2.23 1.8 4.03 4.02 4.03l99.12.08c2.23 0 4.03-1.8 4.03-4.03l.05-54.4c0-2.23-1.8-4.03-4.03-4.03l-99.12-.08c-2.23 0-4.03 1.8-4.03 4.03Z" fill="url(#f)"/><path d="M83.47 97.638h-.85v1.71h.85v-1.71ZM83.47 154.908h-.85v-3.47h.85v3.47Zm0-6.95h-.85v-3.47h.85v3.47Zm0-6.95h-.85v-3.47h.85v3.47Zm0-6.95h-.85v-3.47h.85v3.47Zm0-6.94h-.85v-3.47h.85v3.47Zm0-6.95h-.85v-3.47h.85v3.47Zm0-6.95h-.85v-3.47h.85v3.47Zm0-6.95h-.85v-3.47h.85v3.47ZM83.47 158.378h-.85v1.71h.85v-1.71Z" fill="#202D66"/><path d="M119.778 147.368c10.129 0 18.34-8.211 18.34-18.34 0-10.128-8.211-18.34-18.34-18.34-10.128 0-18.34 8.212-18.34 18.34 0 10.129 8.212 18.34 18.34 18.34Z" fill="#fff"/><path d="M115.039 120.218c2.17 0 3.93 1.76 3.93 3.96s-1.76 3.93-3.93 3.93-3.96-1.76-3.96-3.93 1.79-3.96 3.96-3.96Zm0 6.1c1.14 0 2.1-.93 2.1-2.14s-.95-2.17-2.1-2.17c-1.15 0-2.1.95-2.1 2.17s.95 2.14 2.1 2.14Zm11.46-5.81-11.27 16.99h-2.12l11.27-16.99h2.12Zm-1.95 9.41c2.17 0 3.93 1.79 3.93 3.96s-1.76 3.96-3.93 3.96-3.93-1.76-3.93-3.96 1.76-3.96 3.93-3.96Zm0 6.12c1.17 0 2.1-.95 2.1-2.17s-.93-2.17-2.1-2.17-2.1.95-2.1 2.17.95 2.17 2.1 2.17Z" fill="url(#g)"/><defs><radialGradient id="a" cx="0" cy="0" r="1" gradientUnits="userSpaceOnUse" gradientTransform="rotate(-133.658 171.889 57.17) scale(398.762)"><stop offset=".469" stop-color="#fff"/><stop offset=".7" stop-color="#006BFA"/><stop offset=".704" stop-color="#0F4EB6"/><stop offset=".71" stop-color="#0365EC"/><stop offset=".72" stop-color="#085BD5"/><stop offset=".903" stop-color="#202D66"/></radialGradient><radialGradient id="b" cx="0" cy="0" r="1" gradientUnits="userSpaceOnUse" gradientTransform="rotate(154.016 33.522 26.094) scale(134.297)"><stop offset=".26" stop-color="#fff"/><stop offset=".7" stop-color="#006BFA"/><stop offset=".71" stop-color="#0365EC"/><stop offset=".72" stop-color="#085BD5"/><stop offset=".73" stop-color="#0F4EB6"/><stop offset=".74" stop-color="#202D66"/></radialGradient><radialGradient id="d" cx="0" cy="0" r="1" gradientUnits="userSpaceOnUse" gradientTransform="rotate(-29.358 266.573 -88.304) scale(305.495)"><stop offset=".04" stop-color="#202D66"/><stop offset=".22" stop-color="#0D51BD"/><stop offset=".33" stop-color="#0365EC"/><stop offset=".38" stop-color="#006DFF"/><stop offset=".58" stop-color="#62A5FF"/><stop offset=".76" stop-color="#B6D5FF"/><stop offset=".89" stop-color="#EAF3FF"/><stop offset=".95" stop-color="#fff"/></radialGradient><radialGradient id="e" cx="0" cy="0" r="1" gradientUnits="userSpaceOnUse" gradientTransform="rotate(135.931 77.986 63.392) scale(139.162)"><stop stop-color="#F5F9FF"/><stop offset=".18" stop-color="#BFDAFF"/><stop offset=".48" stop-color="#6EACFF"/><stop offset=".73" stop-color="#328AFF"/><stop offset=".91" stop-color="#0D74FF"/><stop offset="1" stop-color="#006DFF"/></radialGradient><radialGradient id="f" cx="0" cy="0" r="1" gradientUnits="userSpaceOnUse" gradientTransform="rotate(147.681 85.022 65.739) scale(307.659)"><stop stop-color="#F5F9FF"/><stop offset=".14" stop-color="#F1F7FF"/><stop offset=".26" stop-color="#E7F1FF"/><stop offset=".37" stop-color="#D5E7FF"/><stop offset=".48" stop-color="#BDD9FF"/><stop offset=".58" stop-color="#9DC7FF"/><stop offset=".68" stop-color="#76B0FF"/><stop offset=".78" stop-color="#4896FF"/><stop offset=".87" stop-color="#1478FF"/><stop offset=".9" stop-color="#006DFF"/></radialGradient><linearGradient id="c" x1="-47.591" y1="168.768" x2="670.269" y2="-36.332" gradientUnits="userSpaceOnUse"><stop offset=".19" stop-color="#00033B"/><stop offset=".31" stop-color="#1B357A"/><stop offset=".55" stop-color="#104BAD"/><stop offset=".88" stop-color="#006DFF"/></linearGradient><linearGradient id="g" x1="97.169" y1="135.488" x2="193.079" y2="108.088" gradientUnits="userSpaceOnUse"><stop offset=".06" stop-color="#202D66"/><stop offset=".28" stop-color="#193984" stop-opacity=".8"/><stop offset=".71" stop-color="#0959D1" stop-opacity=".3"/><stop offset=".95" stop-color="#006DFF" stop-opacity="0"/></linearGradient></defs></svg>