<svg width="200" height="200" viewBox="0 0 200 200" fill="none" xmlns="http://www.w3.org/2000/svg"><g opacity=".1"><path d="M115.946 59.35c-4.32 0-8.1 3.5-8.43 7.83l-6.96 91.22c-.33 4.33-4.11 7.83-8.43 7.83h67.92c4.32 0 8.1-3.5 8.43-7.83l6.96-91.22c.33-4.33 4.11-7.83 8.43-7.83h-67.92Z" fill="url(#a)"/><path d="M113.066 156.6c.25-3.33-.79-6.03-4.12-6.03h52.3c3.33 0 5.83 3.04 4.12 6.03h-52.3Z" fill="url(#b)"/><path d="M152.826 158.4c.33-4.33 4.11-7.83 8.43-7.83h-67.93c-4.32 0-8.1 3.5-8.43 7.83-.33 4.33 2.91 7.83 7.23 7.83h67.92c-4.32 0-7.56-3.5-7.23-7.83h.01Z" fill="url(#c)"/></g><path opacity=".5" d="M64.506 172.26c25.389 0 45.97-20.581 45.97-45.97 0-25.388-20.581-45.97-45.97-45.97-25.388 0-45.97 20.582-45.97 45.97 0 25.389 20.582 45.97 45.97 45.97Z" fill="url(#d)"/><path d="M184.656 53.48h-86.77a3.04 3.04 0 0 0-3.04 3.04v2.33a3.04 3.04 0 0 0 3.04 3.04h86.77a3.04 3.04 0 0 0 3.04-3.04v-2.33a3.04 3.04 0 0 0-3.04-3.04Z" fill="url(#e)"/><path d="M185.196 56.54h-87.23v2.34h87.23v-2.34Z" fill="url(#f)"/><path d="M114.415 58.88c.33-4.34-2.92-7.86-7.26-7.86h68.16c4.34 0 7.59 3.51 7.26 7.86h-68.16Z" fill="url(#g)"/><path d="M107.156 51.02c-4.34 0-8.13 3.51-8.46 7.86l-6.98 91.54c-.33 4.34-4.12 7.86-8.46 7.86h68.16c4.34 0 8.13-3.51 8.46-7.86l6.98-91.54c.33-4.34 4.12-7.86 8.46-7.86h-68.16Z" fill="url(#h)"/><path d="M104.266 148.61c.26-3.35-.79-6.05-4.13-6.05h52.49c3.34 0 5.85 3.06 4.13 6.05h-52.49Z" fill="url(#i)"/><path d="M144.166 150.42c.33-4.34 4.12-7.86 8.46-7.86h-68.17c-4.34 0-8.13 3.51-8.46 7.86-.33 4.34 2.92 7.86 7.26 7.86h68.16c-4.34 0-7.59-3.51-7.26-7.86h.01Z" fill="url(#j)"/><path opacity=".1" d="m121.206 116.19-14.61-28.3c-1.51-2.93-5.15-4.09-8.08-2.58l-3.35 1.73.25-.84c.93-3.17-.9-6.52-4.07-7.45l-2.32-.68 8.31-28.64c.55-1.9-.54-3.89-2.44-4.44l-10.98-3.19c-.2-1.63-1.5-2.97-3.2-3.14l-11.57-1.15-10.18-2.96c-1.57-.46-3.19.22-4.02 1.55l-11.46-1.14a3.58 3.58 0 0 0-3.92 3.21l-2.44 24.63-.86-.25c-3.17-.93-6.52.9-7.45 4.07l-.74 2.51-4.07 13.86c-2.38.32-4.46 2-5.18 4.45l-.53 1.82c-.72 2.45.13 4.99 1.95 6.54l-4.07 13.86c-.93 3.17.9 6.52 4.07 7.45l31.9 9.37 4.58 8.88 3.98 7.71 1.78 3.45c1.51 2.93 5.15 4.09 8.08 2.58l48.08-24.82c2.93-1.51 4.09-5.15 2.58-8.08l-.02-.01Z" fill="url(#k)"/><path d="m18.793 108.786 55.111 16.189a6 6 0 0 0 7.448-4.066L93.26 80.372a6 6 0 0 0-4.066-7.448L34.083 56.735a6 6 0 0 0-7.448 4.066l-11.908 40.537a6 6 0 0 0 4.066 7.448Z" fill="url(#l)"/><path d="m34.764 104.714 35.947 10.43a3.58 3.58 0 0 0 4.436-2.441l20.05-69.1a3.58 3.58 0 0 0-2.441-4.436l-35.948-10.43a3.58 3.58 0 0 0-4.435 2.441l-20.05 69.1a3.58 3.58 0 0 0 2.44 4.436Z" fill="url(#m)"/><path d="m62.856 32.35 22.69 6.58c-1.2 4.15 1.18 8.49 5.33 9.69.06.02.11.03.17.04l-16.62 57.28c-.06-.02-.11-.04-.17-.06-4.15-1.2-8.49 1.18-9.69 5.33-.03.09-.04.17-.06.26l-22.71-6.59c.03-.09.06-.17.09-.25 1.2-4.15-1.18-8.49-5.33-9.69l16.61-57.26c4.15 1.2 8.49-1.18 9.69-5.33Z" fill="url(#n)"/><path d="M63.756 80.4a8.46 8.46 0 1 0 0-16.92 8.46 8.46 0 0 0 0 16.92Z" fill="url(#o)"/><path d="m33.523 107.855 37.246 3.698a3.58 3.58 0 0 0 3.917-3.209l7.108-71.597a3.58 3.58 0 0 0-3.209-3.917L41.34 29.132a3.58 3.58 0 0 0-3.916 3.21l-7.11 71.597a3.58 3.58 0 0 0 3.21 3.916Z" fill="url(#p)"/><path d="m47.936 31.59 23.51 2.33a7.808 7.808 0 0 0 7.01 8.55h.18l-5.89 59.35c-.06 0-.11-.02-.17-.03a7.808 7.808 0 0 0-8.55 7.01c0 .09 0 .18-.01.27l-23.54-2.34c.01-.09.03-.18.04-.27.43-4.3-2.71-8.13-7.01-8.55l5.87-59.31c4.3.43 8.13-2.71 8.55-7.01h.01Z" fill="url(#q)"/><path d="M56.046 78.81a8.46 8.46 0 1 0 0-16.92 8.46 8.46 0 0 0 0 16.92Z" fill="url(#r)"/><path d="m18.06 111.286 55.112 16.189a6 6 0 0 0 7.448-4.066l11.907-40.537a6 6 0 0 0-4.065-7.448L33.35 59.235a6 6 0 0 0-7.448 4.066l-11.907 40.537a6 6 0 0 0 4.066 7.448Z" fill="url(#s)"/><path d="m20.384 91.227 17.807 5.23a6.28 6.28 0 0 0 7.796-4.255l.532-1.813a6.28 6.28 0 0 0-4.255-7.796l-17.808-5.23a6.28 6.28 0 0 0-7.795 4.255l-.533 1.813a6.28 6.28 0 0 0 4.256 7.796Z" fill="url(#t)"/><path d="M39.426 92.79a3.55 3.55 0 1 0 0-7.1 3.55 3.55 0 0 0 0 7.1Z" fill="#fff"/><path opacity=".2" d="M158.836 78.19h-56.55l.26-2.52h56.64l-.35 2.52Z" fill="url(#u)"/><path opacity=".2" d="M158.836 85.24h-56.55l.26-2.52h56.64l-.35 2.52Z" fill="url(#v)"/><path opacity=".2" d="M158.836 92.29h-56.55l.26-2.52h56.64l-.35 2.52Z" fill="url(#w)"/><path opacity=".2" d="M157.836 113.44h-56.55l.26-2.51h56.64l-.35 2.51Z" fill="url(#x)"/><path opacity=".2" d="M156.836 120.49h-56.55l.26-2.51h56.64l-.35 2.51Z" fill="url(#y)"/><path opacity=".2" d="M155.836 127.55h-56.55l.26-2.52h56.64l-.35 2.52Z" fill="url(#z)"/><path opacity=".2" d="M155.006 134.6h-56.72l.26-2.52h56.64l-.18 2.52Z" fill="url(#A)"/><path d="m99.5 81.49-48.082 24.817a6 6 0 0 0-2.58 8.084l14.608 28.302a6 6 0 0 0 8.083 2.58l48.083-24.818a6 6 0 0 0 2.58-8.083l-14.608-28.303a6 6 0 0 0-8.083-2.58Z" fill="url(#B)"/><path d="m116.438 101.222-58.747 30.321 3.981 7.713 58.747-30.321-3.981-7.713Z" fill="url(#C)"/><path d="m100.642 92.217-5.42 2.797a2.45 2.45 0 0 0-1.054 3.301l2.797 5.421a2.45 2.45 0 0 0 3.301 1.053l5.421-2.797a2.45 2.45 0 0 0 1.053-3.301l-2.798-5.42a2.45 2.45 0 0 0-3.3-1.054Z" fill="#fff"/><defs><linearGradient id="e" x1="141.266" y1="85.92" x2="141.266" y2="40.95" gradientUnits="userSpaceOnUse"><stop offset=".11" stop-color="#F5F9FF"/><stop offset=".21" stop-color="#DBEAFF"/><stop offset=".43" stop-color="#99C4FF"/><stop offset=".74" stop-color="#3088FF"/><stop offset=".87" stop-color="#006DFF"/></linearGradient><linearGradient id="f" x1="141.586" y1="65.57" x2="141.586" y2="53.05" gradientUnits="userSpaceOnUse"><stop offset=".48" stop-color="#202D66"/><stop offset=".56" stop-color="#1B357A"/><stop offset=".75" stop-color="#104BAD"/><stop offset="1" stop-color="#006DFF"/></linearGradient><linearGradient id="g" x1="144.885" y1="81.34" x2="144.885" y2="39.3" gradientUnits="userSpaceOnUse"><stop offset=".31" stop-color="#F5F9FF"/><stop offset=".39" stop-color="#DBEAFF"/><stop offset=".54" stop-color="#99C4FF"/><stop offset=".77" stop-color="#3088FF"/><stop offset=".87" stop-color="#006DFF"/></linearGradient><linearGradient id="h" x1="140.326" y1="-20.92" x2="113.116" y2="288.76" gradientUnits="userSpaceOnUse"><stop offset=".18" stop-color="#F5F9FF"/><stop offset=".31" stop-color="#F1F7FF"/><stop offset=".41" stop-color="#E7F1FF"/><stop offset=".51" stop-color="#D5E7FF"/><stop offset=".6" stop-color="#BDD9FF"/><stop offset=".69" stop-color="#9DC7FF"/><stop offset=".77" stop-color="#76B0FF"/><stop offset=".86" stop-color="#4896FF"/><stop offset=".94" stop-color="#1478FF"/><stop offset=".97" stop-color="#006DFF"/></linearGradient><linearGradient id="i" x1="128.716" y1="165.83" x2="128.716" y2="136.67" gradientUnits="userSpaceOnUse"><stop offset=".31" stop-color="#F5F9FF"/><stop offset=".4" stop-color="#DBEAFF"/><stop offset=".58" stop-color="#99C4FF"/><stop offset=".85" stop-color="#3088FF"/><stop offset=".97" stop-color="#006DFF"/></linearGradient><linearGradient id="j" x1="115.526" y1="105.87" x2="113.256" y2="181.48" gradientUnits="userSpaceOnUse"><stop offset=".45" stop-color="#F5F9FF"/><stop offset=".52" stop-color="#DBEAFF"/><stop offset=".66" stop-color="#99C4FF"/><stop offset=".87" stop-color="#3088FF"/><stop offset=".97" stop-color="#006DFF"/></linearGradient><linearGradient id="l" x1="166.252" y1="123.825" x2="10.637" y2="78.114" gradientUnits="userSpaceOnUse"><stop offset=".48" stop-color="#202D66"/><stop offset=".56" stop-color="#1B357A"/><stop offset=".75" stop-color="#104BAD"/><stop offset="1" stop-color="#006DFF"/></linearGradient><linearGradient id="s" x1="90.913" y1="129.91" x2="20.443" y2="61.49" gradientUnits="userSpaceOnUse"><stop offset=".42" stop-color="#202D66"/><stop offset=".52" stop-color="#1B357A"/><stop offset=".72" stop-color="#104BAD"/><stop offset="1" stop-color="#006DFF"/></linearGradient><linearGradient id="t" x1="52.738" y1="93.206" x2="22.879" y2="84.435" gradientUnits="userSpaceOnUse"><stop offset=".19" stop-color="#202D66"/><stop offset=".33" stop-color="#1B357A"/><stop offset=".61" stop-color="#104BAD"/><stop offset="1" stop-color="#006DFF"/></linearGradient><linearGradient id="u" x1="102.286" y1="76.93" x2="159.186" y2="76.93" gradientUnits="userSpaceOnUse"><stop offset=".07" stop-color="#202D66"/><stop offset=".23" stop-color="#1B357A"/><stop offset=".55" stop-color="#104BAD"/><stop offset="1" stop-color="#006DFF"/></linearGradient><linearGradient id="v" x1="13.766" y1="83.98" x2="14.766" y2="83.98" gradientUnits="userSpaceOnUse"><stop offset=".07" stop-color="#202D66"/><stop offset=".23" stop-color="#1B357A"/><stop offset=".55" stop-color="#104BAD"/><stop offset="1" stop-color="#006DFF"/></linearGradient><linearGradient id="w" x1="13.766" y1="91.03" x2="14.766" y2="91.03" gradientUnits="userSpaceOnUse"><stop offset=".07" stop-color="#202D66"/><stop offset=".23" stop-color="#1B357A"/><stop offset=".55" stop-color="#104BAD"/><stop offset="1" stop-color="#006DFF"/></linearGradient><linearGradient id="x" x1="101.286" y1="112.19" x2="158.186" y2="112.19" gradientUnits="userSpaceOnUse"><stop offset=".07" stop-color="#202D66"/><stop offset=".23" stop-color="#1B357A"/><stop offset=".55" stop-color="#104BAD"/><stop offset="1" stop-color="#006DFF"/></linearGradient><linearGradient id="y" x1="100.286" y1="119.24" x2="157.186" y2="119.24" gradientUnits="userSpaceOnUse"><stop offset=".07" stop-color="#202D66"/><stop offset=".23" stop-color="#1B357A"/><stop offset=".55" stop-color="#104BAD"/><stop offset="1" stop-color="#006DFF"/></linearGradient><linearGradient id="z" x1="99.286" y1="126.29" x2="156.186" y2="126.29" gradientUnits="userSpaceOnUse"><stop offset=".07" stop-color="#202D66"/><stop offset=".23" stop-color="#1B357A"/><stop offset=".55" stop-color="#104BAD"/><stop offset="1" stop-color="#006DFF"/></linearGradient><linearGradient id="A" x1="98.286" y1="133.34" x2="155.186" y2="133.34" gradientUnits="userSpaceOnUse"><stop offset=".07" stop-color="#202D66"/><stop offset=".23" stop-color="#1B357A"/><stop offset=".55" stop-color="#104BAD"/><stop offset="1" stop-color="#006DFF"/></linearGradient><linearGradient id="C" x1="59.682" y1="135.4" x2="146.58" y2="90.548" gradientUnits="userSpaceOnUse"><stop offset=".15" stop-color="#202D66"/><stop offset=".29" stop-color="#1B357A"/><stop offset=".59" stop-color="#104BAD"/><stop offset="1" stop-color="#006DFF"/></linearGradient><radialGradient id="a" cx="0" cy="0" r="1" gradientUnits="userSpaceOnUse" gradientTransform="matrix(49.8 0 0 49.8 138.006 112.79)"><stop offset=".12" stop-color="#006DFF"/><stop offset=".45" stop-color="#104BAD"/><stop offset=".69" stop-color="#1B357A"/><stop offset=".81" stop-color="#202D66"/></radialGradient><radialGradient id="b" cx="0" cy="0" r="1" gradientUnits="userSpaceOnUse" gradientTransform="translate(137.436 153.58) scale(20.26)"><stop offset=".12" stop-color="#006DFF"/><stop offset=".45" stop-color="#104BAD"/><stop offset=".69" stop-color="#1B357A"/><stop offset=".81" stop-color="#202D66"/></radialGradient><radialGradient id="c" cx="0" cy="0" r="1" gradientUnits="userSpaceOnUse" gradientTransform="translate(123.066 158.4) scale(27.56)"><stop offset=".12" stop-color="#006DFF"/><stop offset=".45" stop-color="#104BAD"/><stop offset=".69" stop-color="#1B357A"/><stop offset=".81" stop-color="#202D66"/></radialGradient><radialGradient id="d" cx="0" cy="0" r="1" gradientUnits="userSpaceOnUse" gradientTransform="rotate(-157.38 44.87 56.7) scale(114.55)"><stop offset=".26" stop-color="#fff"/><stop offset=".31" stop-color="#F6FAFF"/><stop offset=".38" stop-color="#E0EDFF"/><stop offset=".47" stop-color="#BCD8FF"/><stop offset=".57" stop-color="#89BBFF"/><stop offset=".68" stop-color="#4896FF"/><stop offset=".8" stop-color="#006DFF"/><stop offset=".81" stop-color="#006BFA"/><stop offset=".82" stop-color="#0365EC"/><stop offset=".84" stop-color="#085BD5"/><stop offset=".85" stop-color="#0F4EB6"/><stop offset=".87" stop-color="#173D8D"/><stop offset=".88" stop-color="#202D66"/></radialGradient><radialGradient id="k" cx="0" cy="0" r="1" gradientUnits="userSpaceOnUse" gradientTransform="translate(68.886 92.09) scale(55.38)"><stop offset=".12" stop-color="#006DFF"/><stop offset=".45" stop-color="#104BAD"/><stop offset=".69" stop-color="#1B357A"/><stop offset=".81" stop-color="#202D66"/></radialGradient><radialGradient id="m" cx="0" cy="0" r="1" gradientUnits="userSpaceOnUse" gradientTransform="rotate(-73.82 83.023 59.664) scale(216.29)"><stop offset=".23" stop-color="#006DFF"/><stop offset=".43" stop-color="#4594FF"/><stop offset=".71" stop-color="#A3CAFF"/><stop offset=".91" stop-color="#DEEBFF"/><stop offset="1" stop-color="#F5F9FF"/></radialGradient><radialGradient id="n" cx="0" cy="0" r="1" gradientUnits="userSpaceOnUse" gradientTransform="rotate(-73.82 69.535 53.293) scale(213.23)"><stop stop-color="#006DFF"/><stop offset=".05" stop-color="#1B7CFF"/><stop offset=".15" stop-color="#4D99FF"/><stop offset=".25" stop-color="#7AB2FF"/><stop offset=".36" stop-color="#A0C8FF"/><stop offset=".47" stop-color="#BFDAFF"/><stop offset=".58" stop-color="#D6E7FF"/><stop offset=".7" stop-color="#E7F1FF"/><stop offset=".83" stop-color="#F1F7FF"/><stop offset="1" stop-color="#F5F9FF"/></radialGradient><radialGradient id="o" cx="0" cy="0" r="1" gradientUnits="userSpaceOnUse" gradientTransform="rotate(-73.82 70.262 12.45) scale(55.15)"><stop offset=".31" stop-color="#006DFF"/><stop offset=".49" stop-color="#4594FF"/><stop offset=".74" stop-color="#A3CAFF"/><stop offset=".92" stop-color="#DEEBFF"/><stop offset="1" stop-color="#F5F9FF"/></radialGradient><radialGradient id="p" cx="0" cy="0" r="1" gradientUnits="userSpaceOnUse" gradientTransform="rotate(-84.33 75.18 62.891) scale(216.29)"><stop offset=".23" stop-color="#006DFF"/><stop offset=".43" stop-color="#4594FF"/><stop offset=".71" stop-color="#A3CAFF"/><stop offset=".91" stop-color="#DEEBFF"/><stop offset="1" stop-color="#F5F9FF"/></radialGradient><radialGradient id="q" cx="0" cy="0" r="1" gradientUnits="userSpaceOnUse" gradientTransform="rotate(-84.33 62.63 58.084) scale(213.23)"><stop stop-color="#006DFF"/><stop offset=".05" stop-color="#1B7CFF"/><stop offset=".15" stop-color="#4D99FF"/><stop offset=".25" stop-color="#7AB2FF"/><stop offset=".36" stop-color="#A0C8FF"/><stop offset=".47" stop-color="#BFDAFF"/><stop offset=".58" stop-color="#D6E7FF"/><stop offset=".7" stop-color="#E7F1FF"/><stop offset=".83" stop-color="#F1F7FF"/><stop offset="1" stop-color="#F5F9FF"/></radialGradient><radialGradient id="r" cx="0" cy="0" r="1" gradientUnits="userSpaceOnUse" gradientTransform="rotate(-84.33 59.937 21.644) scale(55.15)"><stop offset=".31" stop-color="#006DFF"/><stop offset=".49" stop-color="#4594FF"/><stop offset=".74" stop-color="#A3CAFF"/><stop offset=".92" stop-color="#DEEBFF"/><stop offset="1" stop-color="#F5F9FF"/></radialGradient><radialGradient id="B" cx="0" cy="0" r="1" gradientUnits="userSpaceOnUse" gradientTransform="rotate(-27.3 384.532 -1.555) scale(161.48)"><stop offset=".11" stop-color="#006DFF"/><stop offset=".26" stop-color="#358BFF"/><stop offset=".46" stop-color="#7CB4FF"/><stop offset=".64" stop-color="#B4D4FF"/><stop offset=".8" stop-color="#DDEBFF"/><stop offset=".92" stop-color="#F5F9FF"/><stop offset="1" stop-color="#fff"/></radialGradient></defs></svg>