<svg width="200" height="200" viewBox="0 0 200 200" fill="none" xmlns="http://www.w3.org/2000/svg"><path d="M176.447 103.736c-5.1-34.05-36.84-57.51-70.89-52.41-34.05 5.1-57.52 36.85-52.42 70.9 5.1 34.05 36.85 57.52 70.9 52.41 34.05-5.1 57.52-36.85 52.41-70.9Zm-117.96 17.68c-4.66-31.1 16.77-60.09 47.87-64.75 31.1-4.66 60.09 16.77 64.75 47.87 4.66 31.1-16.77 60.09-47.87 64.75-31.1 4.66-60.09-16.77-64.75-47.87Z" fill="url(#a)"/><path opacity=".1" d="M163.236 41.18 59.209 30.86a2.98 2.98 0 0 0-3.26 2.677l-4.2 42.283-21.118 4.805a2.985 2.985 0 0 0-2.242 3.57l14.128 62.029a2.985 2.985 0 0 0 3.57 2.243l101.933-23.213a2.985 2.985 0 0 0 2.243-3.569l-2.769-12.15 4.096.412 4.782.469a2.98 2.98 0 0 0 3.26-2.677l6.281-63.31a2.98 2.98 0 0 0-2.677-3.261v.011Z" fill="#00033B"/><path d="M127.698 51.5 25.766 74.713a2.986 2.986 0 0 0-2.248 3.574l14.124 62.02a2.987 2.987 0 0 0 3.575 2.249l101.932-23.215a2.986 2.986 0 0 0 2.248-3.574l-14.125-62.02a2.985 2.985 0 0 0-3.574-2.249Z" fill="url(#b)"/><path d="M158.375 35.29 54.345 24.96a2.986 2.986 0 0 0-3.267 2.677l-6.284 63.297a2.986 2.986 0 0 0 2.676 3.267l104.03 10.328a2.986 2.986 0 0 0 3.267-2.676l6.284-63.297a2.986 2.986 0 0 0-2.676-3.267Z" fill="url(#c)"/><path d="M154.26 38.582 57.232 28.95c-1.53-.152-2.889.911-3.034 2.375L48.59 87.792c-.145 1.464.978 2.774 2.508 2.926l97.028 9.633c1.531.152 2.889-.911 3.035-2.375l5.606-56.468c.145-1.464-.978-2.774-2.508-2.926Z" fill="url(#d)"/><path fill-rule="evenodd" clip-rule="evenodd" d="m86.287 61.422-35.133 29.31h-.011l45.995 4.565-.017.014 47.237 4.691-16.371-21.428c-2.288-2.997-6.624-3.478-9.519-1.064l-6.693 5.581L96.057 62.52c-2.345-3.077-6.795-3.58-9.77-1.098Z" fill="url(#e)"/><path d="M130.905 63.147c6.28 0 11.372-5.09 11.372-11.371 0-6.28-5.092-11.372-11.372-11.372-6.281 0-11.372 5.091-11.372 11.372 0 6.28 5.091 11.371 11.372 11.371Z" fill="url(#f)"/><path d="M156.017 167.296c10.924 0 19.78-8.856 19.78-19.78 0-10.925-8.856-19.78-19.78-19.78-10.924 0-19.78 8.855-19.78 19.78 0 10.924 8.856 19.78 19.78 19.78Z" fill="url(#g)"/><path d="M166.712 145.666h-8.85v-8.85h-3.69v8.85h-8.85v3.7h8.85v8.85h3.69v-8.85h8.85v-3.7Z" fill="#fff"/><defs><radialGradient id="a" cx="0" cy="0" r="1" gradientUnits="userSpaceOnUse" gradientTransform="rotate(81.47 -8.249 123.04) scale(155.34)"><stop offset=".232" stop-color="#fff"/><stop offset=".629" stop-color="#006DFF"/><stop offset=".971" stop-color="#202D66"/></radialGradient><radialGradient id="b" cx="0" cy="0" r="1" gradientUnits="userSpaceOnUse" gradientTransform="rotate(-31.09 372.059 47.421) scale(417.863)"><stop offset=".087" stop-color="#006DFF"/><stop offset=".293" stop-color="#1C367B"/><stop offset=".93" stop-color="#F5F9FF"/></radialGradient><radialGradient id="c" cx="0" cy="0" r="1" gradientUnits="userSpaceOnUse" gradientTransform="rotate(139.703 58.397 52.437) scale(472.959)"><stop stop-color="#F5F9FF"/><stop offset=".11" stop-color="#F0F6FF"/><stop offset=".24" stop-color="#E4EFFF"/><stop offset=".36" stop-color="#CEE3FF"/><stop offset=".49" stop-color="#B1D2FF"/><stop offset=".61" stop-color="#8BBCFF"/><stop offset=".74" stop-color="#5CA1FF"/><stop offset=".87" stop-color="#2682FF"/><stop offset=".95" stop-color="#006DFF"/></radialGradient><radialGradient id="d" cx="0" cy="0" r="1" gradientUnits="userSpaceOnUse" gradientTransform="matrix(-106.68845 111.8305 -112.27186 -107.10951 140.13 31.724)"><stop offset=".049" stop-color="#fff"/><stop offset=".242" stop-color="#F0F6FF"/><stop offset=".314" stop-color="#E4EFFF"/><stop offset=".421" stop-color="#CEE3FF"/><stop offset=".49" stop-color="#B1D2FF"/><stop offset=".61" stop-color="#8BBCFF"/><stop offset=".74" stop-color="#5CA1FF"/><stop offset=".87" stop-color="#2682FF"/><stop offset=".95" stop-color="#006DFF"/></radialGradient><radialGradient id="f" cx="0" cy="0" r="1" gradientUnits="userSpaceOnUse" gradientTransform="rotate(5.67 -692.45 1035.586) scale(57.808)"><stop stop-color="#202D66"/><stop offset=".11" stop-color="#1B357A"/><stop offset=".33" stop-color="#104BAD"/><stop offset=".63" stop-color="#006DFF"/><stop offset=".97" stop-color="#fff"/></radialGradient><radialGradient id="g" cx="0" cy="0" r="1" gradientUnits="userSpaceOnUse" gradientTransform="rotate(140.95 68.775 98.586) scale(91.2232)"><stop stop-color="#006DFF"/><stop offset=".39" stop-color="#104BAD"/><stop offset=".67" stop-color="#1B357A"/><stop offset=".81" stop-color="#202D66"/></radialGradient><linearGradient id="e" x1="120.308" y1="124.626" x2="125.197" y2="77.47" gradientUnits="userSpaceOnUse"><stop offset=".26" stop-color="#202D66"/><stop offset=".39" stop-color="#1B357A"/><stop offset=".65" stop-color="#104BAD"/><stop offset="1" stop-color="#006DFF"/></linearGradient></defs></svg>