<svg width="200" height="200" viewBox="0 0 200 200" fill="none" xmlns="http://www.w3.org/2000/svg"><path d="M104.301 172.02c-36.284 0-65.803-29.519-65.803-65.803s29.52-65.814 65.803-65.814c36.284 0 65.803 29.52 65.803 65.803 0 36.284-29.519 65.804-65.803 65.804v.01Zm0-125.056c-32.666 0-59.253 26.576-59.253 59.253s26.576 59.253 59.253 59.253 59.253-26.576 59.253-59.253-26.576-59.253-59.253-59.253Z" fill="url(#a)" opacity=".5"/><path opacity=".1" d="m147.359 124.128.301-79.056c.017-3.754-3.049-6.845-6.804-6.852l-110.11-.424c-3.753-.017-6.844 3.049-6.861 6.803l-.032 7.316h.01l-.269 71.741c-.017 3.754 3.05 6.845 6.804 6.852l110.11.413c3.754.017 6.846-3.049 6.852-6.804l-.001.011Z" fill="#00033B"/><path d="m136.022 33.622-110.103-.407a6.829 6.829 0 0 0-6.853 6.803l-.293 79.053a6.828 6.828 0 0 0 6.804 6.854l110.103.407a6.828 6.828 0 0 0 6.853-6.803l.293-79.053a6.829 6.829 0 0 0-6.804-6.854Z" fill="url(#b)"/><path d="m25.909 33.216 110.113.407a6.834 6.834 0 0 1 6.804 6.854l-.027 7.31-123.771-.457.027-7.31a6.834 6.834 0 0 1 6.854-6.804Z" fill="url(#c)"/><path d="M27.618 43.337a2.547 2.547 0 1 0 .358-5.082 2.547 2.547 0 0 0-.358 5.082ZM35.717 43.37a2.547 2.547 0 1 0 .357-5.082 2.547 2.547 0 0 0-.357 5.082ZM43.805 43.402a2.547 2.547 0 1 0 .357-5.082 2.547 2.547 0 0 0-.357 5.082Z" fill="#fff"/><path d="M35.793 69.599a5.544 5.544 0 1 0 .778-11.062 5.544 5.544 0 0 0-.778 11.062Z" fill="url(#d)"/><path d="m128.264 61.312-76.902-.284a2.812 2.812 0 0 0-2.826 2.799 2.812 2.812 0 0 0 2.805 2.82l76.902.284a2.813 2.813 0 0 0 2.825-2.8 2.812 2.812 0 0 0-2.804-2.82Z" fill="url(#e)"/><path d="M35.73 85.141a5.544 5.544 0 1 0 .778-11.061 5.544 5.544 0 0 0-.778 11.061Z" fill="url(#f)"/><path d="m128.213 76.848-76.902-.284a2.812 2.812 0 0 0-2.825 2.799 2.812 2.812 0 0 0 2.804 2.82l76.902.284a2.811 2.811 0 0 0 2.825-2.799 2.812 2.812 0 0 0-2.804-2.82Z" fill="url(#g)"/><path d="M35.678 100.695a5.544 5.544 0 1 0 .777-11.06 5.544 5.544 0 0 0-.777 11.06Z" fill="url(#h)"/><path d="m128.15 92.395-76.901-.284a2.812 2.812 0 0 0-2.826 2.8 2.812 2.812 0 0 0 2.805 2.82l76.902.284a2.813 2.813 0 0 0 2.825-2.8 2.812 2.812 0 0 0-2.805-2.82Z" fill="url(#i)"/><path d="M36.102 116.927a5.544 5.544 0 1 0 .779-11.06 5.544 5.544 0 0 0-.779 11.06Z" fill="url(#j)"/><path d="m128.576 108.627-76.902-.284a2.812 2.812 0 0 0-2.825 2.799 2.812 2.812 0 0 0 2.805 2.82l76.901.284a2.812 2.812 0 0 0 2.826-2.799 2.813 2.813 0 0 0-2.805-2.82Z" fill="url(#k)"/><path opacity=".1" fill-rule="evenodd" clip-rule="evenodd" d="M182.826 145.985c-4.692 17.513-22.694 27.906-40.208 23.214-17.513-4.693-27.907-22.695-23.214-40.208 4.693-17.514 22.695-27.907 40.208-23.215 17.514 4.693 27.907 22.695 23.214 40.209Z" fill="#00033B"/><g clip-path="url(#l)"><path d="M138.683 166.493c17.514 4.693 35.515-5.701 40.208-23.214 4.693-17.514-5.701-35.516-23.214-40.208-17.514-4.693-35.515 5.7-40.208 23.214-4.693 17.513 5.7 35.515 23.214 40.208Z" fill="url(#m)"/><path d="m168.853 127.395-5.591-6.71-20.443 17.039-6.186-7.426-6.721 5.597 11.784 14.138.002-.009.007.011 27.148-22.64Z" fill="#fff"/></g><defs><linearGradient id="a" x1="-66.05" y1="67.642" x2="190.922" y2="106.217" gradientUnits="userSpaceOnUse"><stop offset=".42" stop-color="#006DFF"/><stop offset=".48" stop-color="#0F76FF"/><stop offset=".59" stop-color="#398DFF"/><stop offset=".74" stop-color="#7CB4FF"/><stop offset=".93" stop-color="#D7E8FF"/><stop offset=".99" stop-color="#F5F9FF"/></linearGradient><linearGradient id="c" x1="-11.772" y1="69.3" x2="-1.197" y2="20.418" gradientUnits="userSpaceOnUse"><stop offset=".19" stop-color="#202D66"/><stop offset=".33" stop-color="#1B357A"/><stop offset=".61" stop-color="#104BAD"/><stop offset="1" stop-color="#006DFF"/></linearGradient><linearGradient id="d" x1="31.889" y1="67.594" x2="40.456" y2="60.541" gradientUnits="userSpaceOnUse"><stop offset=".19" stop-color="#202D66"/><stop offset=".33" stop-color="#1B357A"/><stop offset=".61" stop-color="#104BAD"/><stop offset="1" stop-color="#006DFF"/></linearGradient><linearGradient id="e" x1="64.793" y1="84.582" x2="114.812" y2="43.377" gradientUnits="userSpaceOnUse"><stop offset=".19" stop-color="#202D66"/><stop offset=".33" stop-color="#1B357A"/><stop offset=".61" stop-color="#104BAD"/><stop offset="1" stop-color="#006DFF"/></linearGradient><linearGradient id="f" x1="31.832" y1="83.135" x2="40.399" y2="76.081" gradientUnits="userSpaceOnUse"><stop offset=".19" stop-color="#202D66"/><stop offset=".33" stop-color="#1B357A"/><stop offset=".61" stop-color="#104BAD"/><stop offset="1" stop-color="#006DFF"/></linearGradient><linearGradient id="g" x1="64.731" y1="100.118" x2="114.75" y2="58.913" gradientUnits="userSpaceOnUse"><stop offset=".19" stop-color="#202D66"/><stop offset=".33" stop-color="#1B357A"/><stop offset=".61" stop-color="#104BAD"/><stop offset="1" stop-color="#006DFF"/></linearGradient><linearGradient id="h" x1="31.774" y1="98.687" x2="40.342" y2="91.633" gradientUnits="userSpaceOnUse"><stop offset=".19" stop-color="#202D66"/><stop offset=".33" stop-color="#1B357A"/><stop offset=".61" stop-color="#104BAD"/><stop offset="1" stop-color="#006DFF"/></linearGradient><linearGradient id="i" x1="64.68" y1="115.665" x2="114.698" y2="74.461" gradientUnits="userSpaceOnUse"><stop offset=".19" stop-color="#202D66"/><stop offset=".33" stop-color="#1B357A"/><stop offset=".61" stop-color="#104BAD"/><stop offset="1" stop-color="#006DFF"/></linearGradient><linearGradient id="j" x1="32.206" y1="114.914" x2="40.774" y2="107.861" gradientUnits="userSpaceOnUse"><stop offset=".19" stop-color="#202D66"/><stop offset=".33" stop-color="#1B357A"/><stop offset=".61" stop-color="#104BAD"/><stop offset="1" stop-color="#006DFF"/></linearGradient><linearGradient id="k" x1="65.105" y1="131.897" x2="115.124" y2="90.692" gradientUnits="userSpaceOnUse"><stop offset=".19" stop-color="#202D66"/><stop offset=".33" stop-color="#1B357A"/><stop offset=".61" stop-color="#104BAD"/><stop offset="1" stop-color="#006DFF"/></linearGradient><radialGradient id="b" cx="0" cy="0" r="1" gradientUnits="userSpaceOnUse" gradientTransform="rotate(-17.953 305.89 551.555) scale(433.52)"><stop stop-color="#046FFF"/><stop offset=".488" stop-color="#E9F2FF"/><stop offset=".746" stop-color="#fff"/><stop offset=".843" stop-color="#F5F9FF"/></radialGradient><radialGradient id="m" cx="0" cy="0" r="1" gradientUnits="userSpaceOnUse" gradientTransform="rotate(32.69 -154.161 319.377) scale(82.063)"><stop stop-color="#006DFF"/><stop offset=".39" stop-color="#104BAD"/><stop offset=".67" stop-color="#1B357A"/><stop offset=".81" stop-color="#202D66"/></radialGradient><clipPath id="l"><path fill="#fff" transform="rotate(15 -297.158 518.066)" d="M0 0h65.686v65.686H0z"/></clipPath></defs></svg>