<svg width="200" height="200" viewBox="0 0 200 200" fill="none" xmlns="http://www.w3.org/2000/svg"><g clip-path="url(#a)"><path d="M59.32 41.22a60.698 60.698 0 0 0 35.329 94.556 60.686 60.686 0 0 0 45.855-7.457 60.703 60.703 0 0 0 17.326-16.149 60.695 60.695 0 0 0-13.78-84.71 60.701 60.701 0 0 0-84.73 13.76Zm94.24 67.88a55.44 55.44 0 0 1-77.38 12.58A55.431 55.431 0 0 1 63.65 44.3a55.43 55.43 0 0 1 77.369-12.58 55.43 55.43 0 0 1 12.541 77.38Z" fill="url(#b)"/><path opacity=".1" d="m108.13 89.34-.13.27c-.47 1-11.36 23.67-10 34.8a60.326 60.326 0 0 0 2.49 10.55c1.73 5.7 3.37 11.1 1.41 18.78-.49 2-1 4-1.42 5.9-2 8.35-3.81 16.24-7.24 18.14a3.171 3.171 0 0 1-2.2.35c-6.86-1-11.9-1.13-12.11-.29l35.12 6.37c.22-.84-4.45-2.43-11.17-3.93a2.814 2.814 0 0 1-1.83-1.08c-2.2-2.93-.05-10.76 2.24-19 .53-1.93 1.08-3.92 1.58-5.87 2-7.69 6.08-12 10.45-16.64a71.192 71.192 0 0 0 7.4-8.75c6.68-9.67 7.82-34.15 7.86-35.18v-.29l-22.45-4.13Z" fill="url(#c)"/><path d="M116.87 182.6c.21-.84-4.46-2.43-11.18-3.93a2.81 2.81 0 0 1-1.83-1.08c-2.2-2.93 0-10.76 2.24-19.05.53-1.93 1.08-3.92 1.58-5.87 2-7.69 6.08-12 10.45-16.63a70.476 70.476 0 0 0 7.41-8.76c6.67-9.67 7.81-34.14 7.85-35.18v-.29l-22.48-4.08-.13.27c-.47 1-11.36 23.67-10 34.8a60.352 60.352 0 0 0 2.49 10.55c1.74 5.7 3.38 11.1 1.42 18.78-.5 2-1 4-1.43 5.9-2 8.35-3.81 16.24-7.24 18.14a3.23 3.23 0 0 1-2.2.36c-6.86-1-11.89-1.13-12.11-.29" fill="url(#d)"/><path d="M106.22 100.91c-2.71 7.29-5.29 16.1-4.59 21.8a60.421 60.421 0 0 0 2.47 10.44c.19.62.37 1.24.56 1.85.28 1 .56 1.95.8 2.94a5.142 5.142 0 0 0 3.53 3.19c2.11.39 4.12-1 5.45-2.27.49-.55 1-1.1 1.5-1.64l1.54-1.64a70.367 70.367 0 0 0 7.34-8.67c3.42-4.94 5.36-13.87 6.45-21.46l-25.05-4.54Z" fill="url(#e)"/><path opacity=".15" d="m113.39 52.46-8.1-6.29a2.611 2.611 0 0 0-3.65.46l-5 6.43.26.2a1.78 1.78 0 0 0-2.42.37 1.78 1.78 0 0 0 .33 2.48l.13.1c-3.6 4.49-15.4 18.7-25.48 24.65-1.11.66-2.2 1.32-3.28 2l-.47.29.39.34c-10.62 6.53-19.56 13.17-23 17.53l-28.57 36.79a2.827 2.827 0 0 0 .5 4l28.3 22a2.836 2.836 0 0 0 2.103.596 2.835 2.835 0 0 0 1.897-1.086l28.57-36.79c3.39-4.37 7.6-14.67 11.3-26.57l.43.29.16-.53c.37-1.21.74-2.43 1.1-3.67 3.27-11.24 14.11-26.2 17.58-30.79l.12.1a1.766 1.766 0 0 0 1.977.14 1.78 1.78 0 0 0 .523-.46 1.749 1.749 0 0 0-.25-2.41l5-6.43a2.619 2.619 0 0 0 .572-1.966 2.604 2.604 0 0 0-1.022-1.774Z" fill="url(#f)"/><g opacity=".1"><path d="M182.97 169.32c-.21-.84-5.25-.7-12.11.23a3.208 3.208 0 0 1-2.2-.36c-3.42-1.92-5.22-9.82-7.12-18.18-.44-1.94-.9-3.95-1.38-5.9-1.91-7.7-.23-13.08 1.54-18.78a60.52 60.52 0 0 0 2.56-10.54c1.45-11.12-9.29-33.88-9.75-34.85l-.13-.27-22.5 4v.29c0 1 1 25.52 7.62 35.23a70.387 70.387 0 0 0 7.34 8.78c4.34 4.63 8.43 9 10.34 16.69.48 2 1 3.94 1.54 5.88 2.22 8.3 4.33 16.14 2.11 19.05a2.811 2.811 0 0 1-1.84 1.08c-6.73 1.46-11.41 3-11.2 3.88" fill="url(#g)"/><path d="M133.92 98.3c1 7.59 2.92 16.52 6.3 21.49 2.189 3.091 4.624 6 7.28 8.7l1.4 1.5c.73.79 1.45 1.59 2.15 2.41a6.1 6.1 0 0 0 4.77 1.71c2.1-.37 3.27-2.34 3.88-3.94.18-.68.38-1.35.58-2 .2-.65.41-1.34.62-2a59.194 59.194 0 0 0 2.54-10.43c.74-5.69-1.78-14.52-4.44-21.82l-25.08 4.38Z" fill="url(#h)"/></g><path d="M185.19 167.69c-.21-.85-5.25-.7-12.11.22a3.19 3.19 0 0 1-2.19-.36c-3.42-1.92-5.22-9.82-7.12-18.18-.44-1.94-.9-4-1.38-5.9-1.91-7.7-.24-13.08 1.54-18.79a60.704 60.704 0 0 0 2.56-10.53c1.44-11.12-9.29-33.88-9.75-34.85l-.13-.27-22.51 4v.29c0 1 1 25.52 7.62 35.23a70.387 70.387 0 0 0 7.34 8.78c4.34 4.63 8.43 9 10.34 16.69.48 2 1 3.94 1.54 5.88 2.22 8.3 4.33 16.14 2.11 19.05a2.811 2.811 0 0 1-1.84 1.08c-6.73 1.46-11.41 3-11.2 3.87" fill="url(#i)"/><path d="M136.14 96.67c1 7.59 2.92 16.52 6.3 21.49 2.189 3.09 4.623 6 7.28 8.7l1.4 1.5c.73.79 1.45 1.59 2.15 2.41a6.11 6.11 0 0 0 4.77 1.71c2.1-.37 3.27-2.34 3.88-3.94.18-.68.38-1.35.58-2 .2-.65.41-1.34.62-2a59.283 59.283 0 0 0 2.54-10.43c.74-5.7-1.78-14.52-4.44-21.82l-25.08 4.38Z" fill="url(#j)"/><path d="M20.72 140.04a2.818 2.818 0 0 1-.5-4l28.56-36.78c3.78-4.86 14.42-12.54 26.61-19.74 12.19-7.2 26.68-26.14 26.68-26.14l4.91 3.82.9.69 4.91 3.81S98.03 80.43 94.07 94.03c-3.96 13.6-8.76 25.8-12.53 30.66l-28.57 36.79a2.82 2.82 0 0 1-1.895 1.087 2.816 2.816 0 0 1-2.105-.587l-28.25-21.94Z" fill="url(#k)"/><path d="M102.541 51.55a1.78 1.78 0 0 0-2.42.37 1.754 1.754 0 0 0-.129 1.963c.117.201.273.377.459.517l.13.1c-3.6 4.5-15.41 18.7-25.48 24.66-1.11.65-2.2 1.31-3.28 2l-.47.29.47.43c2.15 1.92 5.66 4.95 10.19 8.47 4.53 3.52 8.33 6.17 10.73 7.78l.53.35.16-.53c.38-1.21.75-2.43 1.11-3.67 3.27-11.23 14.11-26.19 17.57-30.79l.13.1a1.776 1.776 0 0 0 1.975.138c.204-.117.382-.272.525-.458a1.762 1.762 0 0 0-.26-2.41" fill="url(#l)"/><path d="m110.928 44.46 8.095 6.286a2.6 2.6 0 0 1 .459 3.648l-4.992 6.43-12.211-9.483 4.993-6.429a2.596 2.596 0 0 1 3.648-.459l.008.006Z" fill="url(#m)"/><path d="M81.88 99.29a8.63 8.63 0 1 0 0-17.26 8.63 8.63 0 0 0 0 17.26Z" fill="#fff"/></g><defs><linearGradient id="c" x1="144.6" y1="-68.06" x2="40.75" y2="472.95" gradientUnits="userSpaceOnUse"><stop offset=".19" stop-color="#202D66"/><stop offset=".31" stop-color="#1C357A"/><stop offset=".55" stop-color="#114BAE"/><stop offset=".88" stop-color="#006DFF"/></linearGradient><linearGradient id="e" x1="149.51" y1="34.34" x2="52.767" y2="262.201" gradientUnits="userSpaceOnUse"><stop offset=".27" stop-color="#F5F9FF"/><stop offset=".66" stop-color="#006DFF"/></linearGradient><linearGradient id="f" x1="14" y1="104.94" x2="114.39" y2="104.94" gradientUnits="userSpaceOnUse"><stop offset=".19" stop-color="#202D66"/><stop offset=".31" stop-color="#1C357A"/><stop offset=".55" stop-color="#114BAE"/><stop offset=".88" stop-color="#006DFF"/></linearGradient><linearGradient id="g" x1="138.556" y1="130.974" x2="173.491" y2="123.67" gradientUnits="userSpaceOnUse"><stop offset=".19" stop-color="#202D66"/><stop offset=".31" stop-color="#1C357A"/><stop offset=".55" stop-color="#114BAE"/><stop offset=".88" stop-color="#006DFF"/></linearGradient><linearGradient id="h" x1="147.477" y1="24.127" x2="151.413" y2="263.212" gradientUnits="userSpaceOnUse"><stop offset=".19" stop-color="#202D66"/><stop offset=".31" stop-color="#1C357A"/><stop offset=".55" stop-color="#114BAE"/><stop offset=".88" stop-color="#006DFF"/></linearGradient><linearGradient id="j" x1="149.69" y1="22.499" x2="153.636" y2="261.582" gradientUnits="userSpaceOnUse"><stop offset=".27" stop-color="#F5F9FF"/><stop offset=".66" stop-color="#006DFF"/></linearGradient><linearGradient id="l" x1="191.728" y1="101.538" x2="-154.408" y2="47.972" gradientUnits="userSpaceOnUse"><stop offset=".24" stop-color="#F5F9FF"/><stop offset=".43" stop-color="#006DFF"/></linearGradient><radialGradient id="b" cx="0" cy="0" r="1" gradientUnits="userSpaceOnUse" gradientTransform="rotate(-60.154 173.842 4.41) scale(234.743)"><stop stop-color="#fff"/><stop offset=".7" stop-color="#016BFA"/><stop offset=".71" stop-color="#0465ED"/><stop offset=".72" stop-color="#095CD6"/><stop offset=".73" stop-color="#0F4FB6"/><stop offset=".74" stop-color="#202D66"/></radialGradient><radialGradient id="d" cx="0" cy="0" r="1" gradientUnits="userSpaceOnUse" gradientTransform="matrix(210.86446 38.17383 -32.66915 180.45771 198.458 70.412)"><stop offset=".38" stop-color="#F5F9FF"/><stop offset=".44" stop-color="#F1F7FF"/><stop offset=".52" stop-color="#E4EFFF"/><stop offset=".59" stop-color="#CFE3FF"/><stop offset=".66" stop-color="#B1D2FF"/><stop offset=".74" stop-color="#8BBCFF"/><stop offset=".81" stop-color="#5CA2FF"/><stop offset=".89" stop-color="#2682FF"/><stop offset=".94" stop-color="#006DFF"/></radialGradient><radialGradient id="i" cx="0" cy="0" r="1" gradientUnits="userSpaceOnUse" gradientTransform="matrix(210.86482 -36.35594 31.0873 180.30669 204.915 31.94)"><stop offset=".38" stop-color="#F5F9FF"/><stop offset=".44" stop-color="#F1F7FF"/><stop offset=".52" stop-color="#E4EFFF"/><stop offset=".59" stop-color="#CFE3FF"/><stop offset=".66" stop-color="#B1D2FF"/><stop offset=".74" stop-color="#8BBCFF"/><stop offset=".81" stop-color="#5CA2FF"/><stop offset=".89" stop-color="#2682FF"/><stop offset=".94" stop-color="#006DFF"/></radialGradient><radialGradient id="k" cx="0" cy="0" r="1" gradientUnits="userSpaceOnUse" gradientTransform="matrix(116.87293 90.48225 -76.78549 99.18127 -2.199 148.497)"><stop offset=".21" stop-color="#202D66"/><stop offset=".4" stop-color="#154299"/><stop offset=".59" stop-color="#0C55C5"/><stop offset=".76" stop-color="#0562E5"/><stop offset=".9" stop-color="#016AF8"/><stop offset="1" stop-color="#006DFF"/></radialGradient><radialGradient id="m" cx="0" cy="0" r="1" gradientUnits="userSpaceOnUse" gradientTransform="matrix(79.6498 0 0 79.6499 73.264 70.699)"><stop offset=".12" stop-color="#202D66"/><stop offset=".22" stop-color="#154299"/><stop offset=".31" stop-color="#0C55C5"/><stop offset=".4" stop-color="#0562E5"/><stop offset=".47" stop-color="#016AF8"/><stop offset=".52" stop-color="#006DFF"/><stop offset=".61" stop-color="#63A6FF"/><stop offset=".68" stop-color="#B7D6FF"/><stop offset=".74" stop-color="#EBF3FF"/><stop offset=".76" stop-color="#fff"/></radialGradient><clipPath id="a"><path fill="#fff" transform="translate(14 16)" d="M0 0h171.19v168.24H0z"/></clipPath></defs></svg>