<svg width="200" height="201" viewBox="0 0 200 201" fill="none" xmlns="http://www.w3.org/2000/svg"><g clip-path="url(#a)"><path d="M120.917 146.534a49.61 49.61 0 0 1-16.269 4.369v23.489a73.15 73.15 0 0 0 28.044-7.499l-11.745-20.359h-.03Z" fill="url(#b)"/><path d="M95.352 174.392v-23.489c-5.764-.527-11.249-2.076-16.269-4.369L67.34 166.893a72.997 72.997 0 0 0 28.044 7.499h-.031Z" fill="#77B1FF"/><path d="M79.083 55.43a49.603 49.603 0 0 1 16.269-4.37V27.572a73.136 73.136 0 0 0-28.044 7.499L79.052 55.43h.031Z" fill="url(#c)"/><path d="M26.59 96.334h23.488c.527-5.764 2.077-11.248 4.37-16.268L34.088 68.32a72.69 72.69 0 0 0-7.498 28.013Z" fill="url(#d)"/><path d="M104.648 27.572V51.06c5.764.527 11.248 2.077 16.269 4.37l11.744-20.36a72.838 72.838 0 0 0-28.013-7.498Z" fill="url(#e)"/><path d="M54.448 121.898a49.597 49.597 0 0 1-4.37-16.268H26.59a73.14 73.14 0 0 0 7.499 28.044l20.359-11.745v-.031Z" fill="#006DFF"/><path d="M71.026 141.886a50.717 50.717 0 0 1-11.93-11.93L38.736 141.7c5.424 8.119 12.396 15.122 20.515 20.514l11.744-20.359.031.031Z" fill="url(#f)"/><path d="M140.903 129.956a50.704 50.704 0 0 1-11.93 11.93l11.744 20.359c8.119-5.423 15.122-12.395 20.514-20.514l-20.359-11.744.031-.031Z" fill="#AACEFF"/><path d="M59.096 72.008a50.708 50.708 0 0 1 11.93-11.93L59.282 39.72c-8.119 5.423-15.122 12.395-20.514 20.514l20.359 11.745-.031.03Z" fill="url(#g)"/><path d="M173.41 105.63h-23.489c-.527 5.764-2.076 11.249-4.369 16.269l20.359 11.744a73 73 0 0 0 7.499-28.044v.031Z" fill="url(#h)"/><path d="M145.552 80.065a49.609 49.609 0 0 1 4.369 16.269h23.489a73.147 73.147 0 0 0-7.499-28.044l-20.359 11.744v.031Z" fill="#DAEAFF"/><path d="M128.973 60.078a50.696 50.696 0 0 1 11.93 11.93l20.359-11.744c-5.423-8.118-12.395-15.122-20.514-20.514l-11.744 20.36-.031-.032Z" fill="url(#i)"/><path d="M100 138.166c20.536 0 37.184-16.648 37.184-37.184 0-20.537-16.648-37.185-37.184-37.185-20.537 0-37.185 16.648-37.185 37.185 0 20.536 16.648 37.184 37.185 37.184Z" fill="url(#j)"/><path d="m122.963 90.53-7.335-7.26-22.117 22.358-8.117-8.033-7.271 7.344 15.463 15.295.002-.01.008.012 29.367-29.706Z" fill="url(#k)"/></g><defs><linearGradient id="b" x1="100.162" y1="160.463" x2="126.142" y2="155.658" gradientUnits="userSpaceOnUse"><stop stop-color="#87BAFF"/><stop offset="1" stop-color="#AED0FF"/></linearGradient><linearGradient id="c" x1="121.219" y1="1.899" x2="48.498" y2="73.357" gradientUnits="userSpaceOnUse"><stop stop-color="#00033B"/><stop offset="1" stop-color="#006DFF"/></linearGradient><linearGradient id="d" x1="40.519" y1="68.321" x2="40.519" y2="99.271" gradientUnits="userSpaceOnUse"><stop stop-color="#0147B8"/><stop offset="1" stop-color="#006DFF"/></linearGradient><linearGradient id="e" x1="107.63" y1="27.572" x2="136.922" y2="55.43" gradientUnits="userSpaceOnUse"><stop stop-color="#fff"/><stop offset="1" stop-color="#E3EEFF"/></linearGradient><linearGradient id="f" x1="44.489" y1="129.956" x2="54.881" y2="162.214" gradientUnits="userSpaceOnUse"><stop stop-color="#006DFF"/><stop offset="1" stop-color="#87BAFF"/></linearGradient><linearGradient id="g" x1="54.897" y1="39.719" x2="27.363" y2="86.898" gradientUnits="userSpaceOnUse"><stop stop-color="#01287F"/><stop offset="1" stop-color="#006DFF"/></linearGradient><linearGradient id="h" x1="159.481" y1="105.599" x2="159.481" y2="133.643" gradientUnits="userSpaceOnUse"><stop stop-color="#D9E9FF"/><stop offset="1" stop-color="#CDE2FF"/></linearGradient><linearGradient id="i" x1="123.35" y1="31.723" x2="145.118" y2="72.009" gradientUnits="userSpaceOnUse"><stop stop-color="#fff"/><stop offset="1" stop-color="#DAEAFF"/></linearGradient><linearGradient id="k" x1="132.825" y1="18.956" x2="91.352" y2="136.744" gradientUnits="userSpaceOnUse"><stop stop-color="#006DFF"/><stop offset=".39" stop-color="#104BAD"/><stop offset=".67" stop-color="#1B357A"/><stop offset=".81" stop-color="#00033B"/></linearGradient><radialGradient id="j" cx="0" cy="0" r="1" gradientUnits="userSpaceOnUse" gradientTransform="matrix(-180.33566 195.59906 -215.74824 -198.91251 161.953 37.91)"><stop stop-color="#F5F9FF"/><stop offset=".14" stop-color="#F1F7FF"/><stop offset=".26" stop-color="#E7F1FF"/><stop offset=".682" stop-color="#D5E7FF"/></radialGradient><clipPath id="a"><path fill="#fff" d="M26.59 27.572h146.82v146.82H26.59z"/></clipPath></defs></svg>