<svg width="201" height="201" viewBox="0 0 201 201" fill="none" xmlns="http://www.w3.org/2000/svg"><path opacity=".1" d="M109.509 31.41H39.19c-4.316 0-7.814 4.686-7.814 10.47v59.195c0 5.783 3.498 10.47 7.814 10.47h9.156l14.476 19.197c1.187.963-6.696-17.161-6.696-19.197h53.383c4.317 0 7.815-4.687 7.815-10.47V41.88c0-5.784-3.498-10.47-7.815-10.47Z" fill="#00033B"/><path d="M104.935 35.793H34.616c-4.317 0-7.814 4.686-7.814 10.47v59.195c0 5.783 3.497 10.469 7.814 10.469h9.156l19.745 16.074c1.187.963 2.558-.8 1.89-2.424l-5.621-13.65h45.149c4.317 0 7.815-4.686 7.815-10.469V46.263c0-5.784-3.498-10.47-7.815-10.47Z" fill="url(#a)"/><path d="M76.957 65.371C73.007 77.76 64.837 84.79 51.688 88.248c.913 1.102 2.357 3.305 2.889 4.445C68.18 88.439 77.034 80.457 81.82 66.779l-4.864-1.407Zm-14.667.305-4.56 1.367c4.75 13.148 12.578 21.85 26.828 25.575.721-1.33 2.203-3.496 3.305-4.56-13.528-3.04-21.736-11.135-25.574-22.383ZM52.37 62.9v4.484H87.18v-4.484H52.37Zm14.934-6.004v8.74h4.712v-8.74h-4.712Z" fill="#fff"/><path opacity=".1" d="M97.066 70.012h70.319c4.316 0 7.814 4.686 7.814 10.47v59.195c0 5.783-3.498 10.469-7.814 10.469h-9.156l-21.727 16.04c-1.187.963-2.558-.8-1.889-2.424l7.602-13.616h-45.15c-4.316 0-7.814-4.686-7.814-10.469V80.481c0-5.783 3.498-10.47 7.815-10.47Z" fill="#00033B"/><path d="M92.217 73.86h70.319c5.002 0 7.815 3.672 7.815 10.47v59.195c0 5.784-3.498 10.47-7.815 10.47h-9.156l-19.745 16.074c-1.187.963-2.558-.801-1.889-2.425l5.621-13.649h-45.15c-4.317 0-7.814-4.686-7.814-10.47V84.33c0-5.784 3.497-10.47 7.814-10.47Z" fill="url(#b)"/><path d="M139.636 131.511h7.393l-15.603-38.818h-8.1l-15.603 38.818h7.067l3.697-9.514h17.506l3.643 9.514ZM127.24 99.652h.163l6.415 16.745h-13.102l6.524-16.745Z" fill="#00033B"/><defs><radialGradient id="a" cx="0" cy="0" r="1" gradientUnits="userSpaceOnUse" gradientTransform="matrix(194.98028 -113.66627 137.30224 235.52482 -23.85 149.459)"><stop offset=".255" stop-color="#00033B"/><stop offset=".693" stop-color="#006DFF"/><stop offset="1" stop-color="#fff"/></radialGradient><radialGradient id="b" cx="0" cy="0" r="1" gradientUnits="userSpaceOnUse" gradientTransform="matrix(259.81785 -174.3627 210.62032 313.84533 -63.324 229.911)"><stop stop-color="#87BAFF"/><stop offset=".784" stop-color="#F5F9FF"/><stop offset="1" stop-color="#fff"/></radialGradient></defs></svg>