<svg width="200" height="200" viewBox="0 0 200 200" fill="none" xmlns="http://www.w3.org/2000/svg">
<path d="M170.204 71.4716C164.397 32.6993 128.255 5.98568 89.4828 11.793C50.7104 17.6003 23.9854 53.7536 29.7927 92.5259C35.6 131.298 71.7534 158.023 110.526 152.204C149.298 146.397 176.023 110.244 170.204 71.4716ZM35.8847 91.6035C30.5784 56.1904 54.9805 23.1798 90.3937 17.8736C125.807 12.5673 158.818 36.9693 164.124 72.3825C169.43 107.796 145.028 140.806 109.615 146.112C74.2016 151.419 41.191 127.017 35.8847 91.6035Z" fill="url(#paint0_radial_16642_160146)"/>
<path d="M85.7909 33.9481C77.9593 35.5767 72.9345 43.2449 74.5624 51.0729C76.1903 58.9009 83.8592 63.9293 91.6872 62.3014C99.5152 60.6735 104.544 53.0046 102.916 45.1766C101.288 37.3487 93.6225 32.3195 85.7909 33.9481ZM89.9892 54.1362C86.668 54.8269 83.4182 52.6961 82.7276 49.3749C82.0369 46.0537 84.1677 42.8039 87.4889 42.1133C90.8101 41.4226 94.0599 43.5535 94.7505 46.8746C95.4412 50.1958 93.3104 53.4456 89.9892 54.1362Z" fill="url(#paint1_linear_16642_160146)"/>
<path d="M116.705 184.809C128.91 182.271 136.747 170.319 134.208 158.114C131.67 145.909 119.719 138.073 107.514 140.611C95.3091 143.149 87.4726 155.101 90.0107 167.305C92.5488 179.51 104.5 187.347 116.705 184.809Z" fill="url(#paint2_linear_16642_160146)"/>
<path d="M165.113 125.142C149.326 115.78 145.59 96.0702 140.071 79.9732C126.047 39.0727 88.297 48.2205 88.297 48.2205C88.297 48.2205 50.0297 54.881 53.4741 97.9817C54.8304 114.944 59.2621 134.509 48.5161 149.389C45.5164 153.553 42.7783 157.557 44.0397 162.949C45.6119 169.673 52.0357 172.952 58.5164 173.14C60.7162 173.205 62.9301 172.937 65.0801 172.49L112.11 162.71L159.139 152.93C161.289 152.483 163.426 151.845 165.418 150.909C171.286 148.153 175.867 142.586 174.632 135.792C173.639 130.344 169.531 127.76 165.113 125.142Z" fill="url(#paint3_radial_16642_160146)"/>
<path d="M52.6878 141.637L158.204 119.694C154.215 115.629 151.27 110.704 148.893 105.403L55.5335 124.818C55.4631 130.628 54.7287 136.318 52.6914 141.636L52.6878 141.637Z" fill="url(#paint4_linear_16642_160146)"/>
<path opacity="0.2" d="M125.964 73C135.885 73 143.927 64.8028 143.927 54.6909C143.927 44.5791 135.885 36.3818 125.964 36.3818C116.043 36.3818 108 44.5791 108 54.6909C108 64.8028 116.043 73 125.964 73Z" fill="#00033B"/>
<path d="M128.036 71.6182C137.957 71.6182 146 63.4209 146 53.3091C146 43.1973 137.957 35 128.036 35C118.115 35 110.072 43.1973 110.072 53.3091C110.072 63.4209 118.115 71.6182 128.036 71.6182Z" fill="url(#paint5_linear_16642_160146)"/>
<defs>
<radialGradient id="paint0_radial_16642_160146" cx="0" cy="0" r="1" gradientUnits="userSpaceOnUse" gradientTransform="translate(99.8416 81.9611) rotate(117.94) scale(233.025 233.026)">
<stop offset="0.202405" stop-color="white"/>
<stop offset="0.629023" stop-color="#006DFF"/>
<stop offset="0.970545" stop-color="#202D66"/>
</radialGradient>
<linearGradient id="paint1_linear_16642_160146" x1="98.1196" y1="83.7378" x2="120.659" y2="31.1279" gradientUnits="userSpaceOnUse">
<stop offset="0.32042" stop-color="#62A5FF"/>
<stop offset="1" stop-color="white"/>
</linearGradient>
<linearGradient id="paint2_linear_16642_160146" x1="98.1191" y1="146.27" x2="122" y2="194" gradientUnits="userSpaceOnUse">
<stop offset="0.223458" stop-color="#006DFF" stop-opacity="0.96381"/>
<stop offset="1" stop-color="white"/>
</linearGradient>
<radialGradient id="paint3_radial_16642_160146" cx="0" cy="0" r="1" gradientUnits="userSpaceOnUse" gradientTransform="translate(-13 159) rotate(-23.0771) scale(357.378 407.65)">
<stop offset="0.102348" stop-color="#006ADD"/>
<stop offset="0.380326" stop-color="#B0D2F8"/>
<stop offset="0.634167" stop-color="white"/>
</radialGradient>
<linearGradient id="paint4_linear_16642_160146" x1="56.3692" y1="140.476" x2="161.881" y2="110.918" gradientUnits="userSpaceOnUse">
<stop stop-color="#00033B"/>
<stop offset="1" stop-color="#006DFF"/>
</linearGradient>
<linearGradient id="paint5_linear_16642_160146" x1="236.874" y1="-62.3606" x2="70.5049" y2="97.5152" gradientUnits="userSpaceOnUse">
<stop offset="0.528774" stop-color="white"/>
<stop offset="0.622412" stop-color="#006BFA"/>
<stop offset="0.771348" stop-color="#202D66"/>
</linearGradient>
</defs>
</svg>
