<svg width="200" height="200" viewBox="0 0 200 200" fill="none" xmlns="http://www.w3.org/2000/svg"><path d="M90.137 35.096C71.084 62.015 77.085 99.562 103.54 118.95c26.455 19.387 63.355 13.281 82.409-13.638 19.053-26.918 13.052-64.466-13.403-83.853C146.091 2.07 109.2 8.177 90.137 35.096Zm91.649 67.168c-17.4 24.583-51.101 30.155-75.26 12.45-24.16-17.705-29.635-51.996-12.236-76.58 17.41-24.583 51.101-30.155 75.261-12.45 24.159 17.705 29.635 51.997 12.235 76.58Z" fill="url(#a)"/><path d="M131.085 182.855c8.917-1.359 36.641-11.554 47.321-15.555 2.267-.851 2.33-4.021.11-4.977-2.113-.913-5.188-1.499-9.536-.875-10.703 1.528-38.063 8.499-38.063 8.499l.168 12.913v-.005Z" fill="url(#b)"/><path d="M141.444 161.168c2.806-.178 4.338-3.348 2.757-5.673-2.214-3.258-6.73-6.89-15.916-7.308-13.168-.595-17.501-7.816-28.378-8.834-10.487-.985-21.239 4.247-21.239 4.247s-5.303 2.128-10.588 2.647c-10.286 1.008-18.13-3.671-18.13-3.671l.167 36.363s27.696-2.378 33.476-1.019c5.779 1.36 32.797 13.087 43.924 11.386 8.849-1.35 36.232-11.405 47.08-15.469 2.657-.995 2.82-4.665.279-5.929-2.003-.994-4.886-1.619-8.955-1.037-10.704 1.527-20.221 4.929-23.449 5.097-3.228.168-6.116-1.019-6.116-1.019l-25.659-10.703c10.81 1.114 21.134 1.528 30.747.913v.009Z" fill="url(#c)"/><path d="M55.555 144.653c-.51-3.877-3.613-6.894-7.504-7.249l-1.763-.164-2.916-.264-1.336-.125-38.044-3.517H3.95c0 .063-.01.125-.01.188-.019.408-.043.821-.062 1.239a303.583 303.583 0 0 0-.37 5.367c0 .062-.01.115-.01.168a326.897 326.897 0 0 0-.581 19.384c0 9.407.39 18.453 1.124 26.87.01.072.01.134.02.192.086.99.177 1.97.264 2.945l.187-.019c.01.072.01.134.02.201l37.049-3.819 1.518-.158 2.714-.274 2.282-.236c3.867-.398 6.928-3.42 7.418-7.278.072-.552.134-1.1.197-1.652 1.277-10.858 1.2-21.456-.154-31.804v.005Z" fill="url(#d)"/><path opacity=".1" fill-rule="evenodd" clip-rule="evenodd" d="M61.365 81.228a4.875 4.875 0 0 0 .112 1.995l12.497 46.723c.662 2.474 3.102 3.914 5.45 3.217l85.294-25.305c2.348-.697 3.716-3.267 3.054-5.74l-6.54-24.453 1.974-1.278c1.994-1.292 2.617-4.041 1.391-6.142l-23.163-39.683c-1.227-2.1-3.838-2.756-5.832-1.465L63.163 75.998c-1.716 1.111-2.416 3.302-1.798 5.23Z" fill="#00033B"/><g clip-path="url(#e)"><path d="m54.609 76.031 23.163 37.678a4.24 4.24 0 0 0 5.832 1.392l72.438-44.533a4.24 4.24 0 0 0 1.392-5.832L134.27 27.058a4.239 4.239 0 0 0-5.831-1.391L56 70.199a4.24 4.24 0 0 0-1.391 5.832Z" fill="url(#f)"/><path d="m136.675 35.035 14.632 23.785c-4.344 2.676-5.702 8.368-3.035 12.714.034.06.077.116.12.173l-60.056 36.918c-.034-.059-.059-.121-.102-.178-2.676-4.344-8.368-5.702-12.714-3.034-.094.052-.173.119-.264.18l-14.64-23.82c.093-.052.188-.095.28-.155 4.343-2.677 5.701-8.369 3.034-12.715l60.031-36.902c2.676 4.344 8.368 5.702 12.714 3.035Z" fill="url(#g)"/><path d="M96.3 72.785c1.318 5.366 6.736 8.647 12.102 7.33 5.365-1.32 8.647-6.737 7.328-12.103-1.318-5.366-6.736-8.647-12.102-7.329-5.365 1.318-8.647 6.736-7.329 12.102Z" fill="url(#h)"/></g><g clip-path="url(#i)"><path d="m59.28 82.029 12.499 44.364a4.418 4.418 0 0 0 5.45 3.055l85.293-24.028a4.418 4.418 0 0 0 3.054-5.45l-12.497-44.365a4.419 4.419 0 0 0-5.451-3.054L62.335 76.578a4.418 4.418 0 0 0-3.054 5.45Z" fill="url(#j)"/><path d="m153.22 64.287 7.899 28.008c-5.117 1.447-8.098 6.766-6.661 11.882.017.069.044.138.071.208l-70.713 19.918c-.017-.069-.024-.138-.05-.207-1.448-5.117-6.767-8.098-11.883-6.661-.109.026-.208.071-.316.106l-7.898-28.046c.108-.026.216-.041.325-.077 5.116-1.447 8.097-6.766 6.66-11.882l70.683-19.91c1.447 5.117 6.766 8.099 11.883 6.661Z" fill="url(#k)"/><path d="M99.964 90.563c-.246 6.884 5.135 12.664 12.02 12.91 6.884.246 12.664-5.135 12.91-12.02.246-6.883-5.135-12.664-12.019-12.91-6.884-.246-12.665 5.135-12.91 12.02Z" fill="url(#l)"/><path d="M116.491 91.958c.185.762.058 1.442-.381 2.04-.439.594-1.144 1.056-2.114 1.387l.357 1.474-.985.239-.35-1.445c-1.175.259-2.25.301-3.226.127l-.459-1.898a8.542 8.542 0 0 0 1.634.183 8.355 8.355 0 0 0 1.642-.101l-.539-2.228-.527-.07c-1.039-.145-1.811-.386-2.314-.726-.5-.346-.828-.842-.985-1.489-.168-.695-.035-1.33.398-1.907.437-.583 1.131-1.04 2.08-1.372l-.266-1.1.985-.238.259 1.071c1.109-.218 2.154-.237 3.136-.06l-.268 1.846a7.994 7.994 0 0 0-2.436-.003l.513 2.12c1.022.133 1.761.284 2.218.452.461.167.821.387 1.08.66a2.2 2.2 0 0 1 .548 1.038Zm-2.137.632a.665.665 0 0 0-.368-.451c-.197-.1-.476-.184-.838-.254l.434 1.79c.625-.268.882-.63.772-1.085Zm-3.946-3.663c.051.21.165.368.343.472.181.099.451.18.812.245l-.409-1.69c-.596.242-.845.566-.746.973Z" fill="#fff"/></g><defs><radialGradient id="a" cx="0" cy="0" r="1" gradientUnits="userSpaceOnUse" gradientTransform="rotate(-54.711 136.807 -98.31) scale(148.8 147.963)"><stop offset=".29" stop-color="#fff"/><stop offset=".7" stop-color="#006BFA"/><stop offset=".71" stop-color="#0365EC"/><stop offset=".72" stop-color="#085BD5"/><stop offset=".73" stop-color="#0F4EB6"/><stop offset=".74" stop-color="#202D66"/></radialGradient><radialGradient id="d" cx="0" cy="0" r="1" gradientUnits="userSpaceOnUse" gradientTransform="translate(61.248 114.666) scale(194.116)"><stop offset=".05" stop-color="#006DFF"/><stop offset=".22" stop-color="#104BAD"/><stop offset=".34" stop-color="#1B357A"/><stop offset=".4" stop-color="#202D66"/></radialGradient><radialGradient id="f" cx="0" cy="0" r="1" gradientUnits="userSpaceOnUse" gradientTransform="rotate(-19.952 300.232 592.707) scale(693.215)"><stop offset=".274" stop-color="#00033B"/><stop offset=".535" stop-color="#006DFF"/><stop offset=".603" stop-color="#4594FF"/><stop offset=".71" stop-color="#A3CAFF"/><stop offset=".91" stop-color="#DEEBFF"/><stop offset="1" stop-color="#F5F9FF"/></radialGradient><radialGradient id="g" cx="0" cy="0" r="1" gradientUnits="userSpaceOnUse" gradientTransform="rotate(-64.924 164.442 46.435) scale(441.616)"><stop stop-color="#006DFF"/><stop offset=".015" stop-color="#1B7CFF"/><stop offset=".099" stop-color="#4D99FF"/><stop offset=".147" stop-color="#7AB2FF"/><stop offset=".253" stop-color="#A0C8FF"/><stop offset=".421" stop-color="#F5F9FF"/></radialGradient><radialGradient id="h" cx="0" cy="0" r="1" gradientUnits="userSpaceOnUse" gradientTransform="rotate(-48.4 139.175 -39.505) scale(131.057)"><stop offset=".121" stop-color="#00033B"/><stop offset=".41" stop-color="#006DFF"/><stop offset=".603" stop-color="#4594FF"/><stop offset=".74" stop-color="#A3CAFF"/><stop offset=".92" stop-color="#DEEBFF"/><stop offset="1" stop-color="#F5F9FF"/></radialGradient><radialGradient id="j" cx="0" cy="0" r="1" gradientUnits="userSpaceOnUse" gradientTransform="rotate(-4.103 964.745 2798.981) scale(722.403)"><stop offset=".291" stop-color="#00033B"/><stop offset=".551" stop-color="#006DFF"/><stop offset=".626" stop-color="#4594FF"/><stop offset=".71" stop-color="#A3CAFF"/><stop offset=".91" stop-color="#DEEBFF"/><stop offset="1" stop-color="#F5F9FF"/></radialGradient><radialGradient id="k" cx="0" cy="0" r="1" gradientUnits="userSpaceOnUse" gradientTransform="rotate(-15.733 180.915 -106.585) scale(262.649)"><stop offset=".091" stop-color="#A0C8FF"/><stop offset=".622" stop-color="#fff"/></radialGradient><radialGradient id="l" cx="0" cy="0" r="1" gradientUnits="userSpaceOnUse" gradientTransform="rotate(-34.805 217.366 10.99) scale(355.864)"><stop offset=".121" stop-color="#00033B"/><stop offset=".358" stop-color="#006DFF"/><stop offset=".458" stop-color="#4594FF"/><stop offset=".74" stop-color="#A3CAFF"/><stop offset=".92" stop-color="#DEEBFF"/><stop offset="1" stop-color="#F5F9FF"/></radialGradient><linearGradient id="b" x1="159.318" y1="-27.318" x2="145.901" y2="294.332" gradientUnits="userSpaceOnUse"><stop stop-color="#F5F9FF"/><stop offset=".047" stop-color="#F2F7FF"/><stop offset=".243" stop-color="#E9F2FF"/><stop offset=".477" stop-color="#D9E9FF"/><stop offset=".568" stop-color="#C3DCFF"/><stop offset=".79" stop-color="#5BA1FF"/><stop offset=".86" stop-color="#2D86FF"/><stop offset=".93" stop-color="#006DFF"/></linearGradient><linearGradient id="c" x1="186.998" y1="71.334" x2="62.474" y2="241.08" gradientUnits="userSpaceOnUse"><stop stop-color="#F5F9FF"/><stop offset=".18" stop-color="#F2F7FF"/><stop offset=".522" stop-color="#E9F2FF"/><stop offset=".654" stop-color="#C3DCFF"/><stop offset=".865" stop-color="#5BA1FF"/><stop offset="1" stop-color="#2D86FF"/></linearGradient><clipPath id="e"><path fill="#fff" transform="rotate(76.198 60.088 104.13)" d="M0 0h76.563v102.954H0z"/></clipPath><clipPath id="i"><path fill="#fff" transform="rotate(92.047 58.133 107.318)" d="M0 0h79.786v107.289H0z"/></clipPath></defs></svg>