<svg width="200" height="200" viewBox="0 0 200 200" fill="none" xmlns="http://www.w3.org/2000/svg"><path fill-rule="evenodd" clip-rule="evenodd" d="M56.262 46.587c-3.53 0-6.393 2.836-6.393 6.335v73.287c0 3.5 2.862 6.336 6.393 6.336H159.26c3.531 0 6.393-2.836 6.393-6.336V59.696h.011v-6.774c0-3.496-2.865-6.335-6.393-6.335H56.262Z" fill="#DEDFE8"/><path d="M152.198 89.857c-5.591-37.323-40.382-63.038-77.705-57.448-37.323 5.59-63.05 40.392-57.46 77.716 5.59 37.323 40.393 63.049 77.716 57.448 37.324-5.591 63.05-40.393 57.449-77.716Zm-129.3 19.38C17.79 75.147 41.28 43.37 75.37 38.262c34.089-5.108 65.866 18.382 70.974 52.472 5.108 34.09-18.382 65.867-52.472 70.974-34.09 5.108-65.866-18.382-70.974-52.471Z" fill="url(#a)"/><path d="M154.59 41.917H52.518a6.336 6.336 0 0 0-6.335 6.336v73.287a6.336 6.336 0 0 0 6.335 6.336H154.59a6.336 6.336 0 0 0 6.336-6.336V48.253a6.336 6.336 0 0 0-6.336-6.336Z" fill="url(#b)"/><path d="M52.518 41.917h102.083a6.339 6.339 0 0 1 6.336 6.336v6.774H46.183v-6.774a6.339 6.339 0 0 1 6.335-6.336Z" fill="url(#c)"/><path d="M54.294 51.3a2.357 2.357 0 1 0 0-4.714 2.357 2.357 0 0 0 0 4.714ZM61.791 51.3a2.357 2.357 0 1 0 0-4.714 2.357 2.357 0 0 0 0 4.714ZM69.29 51.3a2.357 2.357 0 1 0 0-4.714 2.357 2.357 0 0 0 0 4.714Z" fill="#fff"/><path d="M126.357 169.615c23.052 6.177 46.746-7.503 52.923-30.555s-7.503-46.747-30.555-52.924c-23.052-6.176-46.747 7.504-52.924 30.556-6.176 23.052 7.504 46.746 30.556 52.923Z" fill="url(#d)"/><path d="M132.88 142.403h9.386v9.138h-9.386v-9.138Zm9.386-35.852-1.383 30.242h-6.558l-1.383-30.242h9.324Z" fill="#fff"/><defs><radialGradient id="a" cx="0" cy="0" r="1" gradientUnits="userSpaceOnUse" gradientTransform="rotate(117.94 12.167 75.383) scale(224.317)"><stop offset=".202" stop-color="#fff"/><stop offset=".629" stop-color="#006DFF"/><stop offset=".971" stop-color="#202D66"/></radialGradient><radialGradient id="b" cx="0" cy="0" r="1" gradientUnits="userSpaceOnUse" gradientTransform="rotate(-13.805 702.4 472.233) scale(403.772)"><stop stop-color="#046FFF"/><stop offset=".06" stop-color="#368BFF"/><stop offset=".12" stop-color="#63A5FF"/><stop offset=".18" stop-color="#8ABCFF"/><stop offset=".25" stop-color="#ABCFFF"/><stop offset=".31" stop-color="#C6DEFF"/><stop offset=".362" stop-color="#DBEAFF"/><stop offset=".438" stop-color="#E9F2FF"/><stop offset=".528" stop-color="#F2F7FF"/><stop offset=".74" stop-color="#F5F9FF"/></radialGradient><radialGradient id="d" cx="0" cy="0" r="1" gradientUnits="userSpaceOnUse" gradientTransform="rotate(32.69 -146.562 299.825) scale(108.014)"><stop stop-color="#006DFF"/><stop offset=".39" stop-color="#104BAD"/><stop offset=".67" stop-color="#1B357A"/><stop offset=".81" stop-color="#202D66"/></radialGradient><linearGradient id="c" x1="26.376" y1="48.472" x2="45.083" y2="7.718" gradientUnits="userSpaceOnUse"><stop offset=".404" stop-color="#202D66"/><stop offset="1" stop-color="#006DFF"/></linearGradient></defs></svg>