<svg width="200" height="200" viewBox="0 0 200 200" fill="none" xmlns="http://www.w3.org/2000/svg"><path opacity=".2" fill-rule="evenodd" clip-rule="evenodd" d="M167.658 67.404c0 10.56-8.56 19.12-19.12 19.12-10.559 0-19.119-8.56-19.119-19.12 0-10.559 8.56-19.119 19.119-19.119 10.56 0 19.12 8.56 19.12 19.12Z" fill="#00033B"/><path d="M165.868 97.72c-4.213-28.131-30.435-47.512-58.565-43.299-28.13 4.213-47.52 30.443-43.306 58.573 4.213 28.131 30.443 47.52 58.573 43.299 28.131-4.214 47.52-30.444 43.298-58.574Zm-97.451 14.605c-3.85-25.693 13.854-49.643 39.547-53.492 25.693-3.85 49.643 13.854 53.493 39.547 3.85 25.693-13.854 49.643-39.547 53.493-25.694 3.849-49.643-13.855-53.493-39.548Z" fill="url(#a)"/><path opacity=".2" d="M111.029 66.93s.01-.04.02-.07c4.11-15.79-5.58-31.98-21.64-36.17-16.08-4.18-32.44 5.23-36.55 21.02v.02s-.01.03-.02.05c-.09.21-.18.44-.24.67 0 0-.4 1.52-1.1 4.21-.62 2.37.82 4.79 3.2 5.41l3.65.95c2.39.62 4.82-.79 5.44-3.16l.09-.34c2.44-9.36 11.97-14.99 21.28-12.56 9.31 2.43 14.28 11.85 12.44 21.35-4.26 22.06-24.34 16.32-33.33 13.98-3.5-.91-13.99-3.65-13.99-3.65-2.33-.61-4.71.8-5.32 3.14l-19.9 76.38c-.61 2.34.78 4.729 3.11 5.339l49.87 12.99c2.33.61 4.71-.8 5.32-3.14l19.9-76.38 7.64-29.33c.06-.23.1-.47.12-.7l.01-.01Z" fill="#00033B"/><path d="M49.803 45.391a4.7 4.7 0 0 0-.24.66l-.02.06c.06-.23.14-.46.24-.67 0-.02 0-.03.01-.05h.01Z" fill="url(#b)"/><path d="M107.983 60.601s.01-.04.02-.07c4.11-15.79-5.58-31.98-21.64-36.17-16.08-4.18-32.44 5.23-36.55 21.02v.02s-.01.03-.02.05c-.09.21-.18.44-.24.67 0 0-.4 1.52-1.1 4.21-.62 2.37.82 4.79 3.2 5.41l3.65.95c2.39.62 4.82-.79 5.44-3.16l.09-.34c2.44-9.36 11.97-14.99 21.28-12.56 9.31 2.43 14.28 11.85 12.44 21.35-4.26 22.06-24.34 16.32-33.33 13.98-3.5-.91-13.99-3.65-13.99-3.65-2.33-.61-4.71.8-5.32 3.14l-19.9 76.38c-.61 2.34.78 4.73 3.11 5.34l49.87 12.99c2.33.61 4.71-.8 5.32-3.14l19.9-76.38 7.64-29.33c.06-.23.1-.47.12-.7l.01-.01Z" fill="url(#c)"/><path d="M58.243 156.361c13.365 0 24.2-10.834 24.2-24.2 0-13.365-10.835-24.2-24.2-24.2-13.365 0-24.2 10.835-24.2 24.2 0 13.366 10.835 24.2 24.2 24.2Z" fill="#fff"/><path d="M58.243 156.361c13.365 0 24.2-10.834 24.2-24.2 0-13.365-10.835-24.2-24.2-24.2-13.365 0-24.2 10.835-24.2 24.2 0 13.366 10.835 24.2 24.2 24.2Z" fill="url(#d)"/><path d="m47.873 120.329 25.076 6.238c.573.142.923.724.78 1.297l-1.386 5.57-27.142-6.752 1.385-5.571a1.072 1.072 0 0 1 1.297-.78l-.01-.002Z" fill="url(#e)"/><path d="m73.03 133.6-28.52-7.096a.91.91 0 0 0-1.103.664l-1.837 7.385a.91.91 0 0 0 .663 1.102l28.521 7.096a.91.91 0 0 0 1.103-.664l1.837-7.385a.91.91 0 0 0-.663-1.102Z" fill="url(#f)"/><path d="M58.273 129.931c.07-.13.12-.26.16-.41.24-.95-.35-1.92-1.3-2.16l-7.77-1.93c-.95-.24-1.92.35-2.16 1.3-.04.14-.05.29-.05.43l11.11 2.76.01.01ZM70.373 132.942c.07-.13.12-.26.16-.41.24-.95-.35-1.92-1.3-2.16l-7.77-1.93c-.95-.24-1.92.35-2.16 1.3-.04.14-.05.29-.05.43l11.11 2.76.01.01Z" fill="#F5F9FF"/><path d="m42.916 135.829 3.688.917-.2.806a.88.88 0 0 1-1.067.641l-1.99-.494a.882.882 0 0 1-.641-1.067l.2-.805.01.002ZM66.822 141.773l3.688.917-.2.806a.882.882 0 0 1-1.067.641l-1.99-.495a.881.881 0 0 1-.64-1.066l.2-.806.01.003Z" fill="#fff"/><path opacity=".1" fill-rule="evenodd" clip-rule="evenodd" d="M157.41 94.068h.007a2.028 2.028 0 0 1 2.229 1.803l.129 1.225 6.677-.705a6.784 6.784 0 0 1 1.024-.03c3.26.146 6.031 2.673 6.384 6.012l4.27 40.371-2.023 3.419.607 5.738a5.398 5.398 0 0 1-2.909 5.374c-.41.273-.89.453-1.415.508l-.31.033a8.481 8.481 0 0 1-.167.02l-5.25.557-.004-.004-1.762.186-.006-.006-59.975 6.338a5.855 5.855 0 0 1-6.44-5.21l-5.155-48.817c-.39-3.679 2.303-7.003 5.982-7.392l1.567-.166.192-.023 2.102-.222.106-.012 4.864-.514-.129-1.228a2.027 2.027 0 0 1 1.803-2.229h.007a2.028 2.028 0 0 1 2.229 1.803l.13 1.228 43.562-4.602-.129-1.225a2.027 2.027 0 0 1 1.803-2.23Z" fill="#00033B"/><path opacity=".75" d="m161.102 155.087-59.976 6.338a5.853 5.853 0 0 1-6.438-5.21l-5.156-48.817c-.39-3.679 2.303-7.002 5.982-7.392l63.05-6.66c3.679-.39 7.002 2.303 7.392 5.982l5.445 51.516a3.144 3.144 0 0 1-2.8 3.457l-7.493.793-.006-.007Z" fill="url(#g)"/><path opacity=".75" d="m162.86 154.899-59.975 6.338a5.853 5.853 0 0 1-6.438-5.21L91.29 107.21c-.389-3.679 2.303-7.003 5.982-7.392l63.05-6.66c3.68-.39 7.003 2.303 7.392 5.982l5.21 49.28a5.396 5.396 0 0 1-4.8 5.935l-5.25.557-.014-.013Z" fill="url(#h)"/><path d="m165.217 154.65-59.975 6.338a5.853 5.853 0 0 1-6.439-5.21l-5.156-48.816c-.39-3.68 2.303-7.003 5.982-7.392l63.05-6.66c3.679-.39 7.002 2.302 7.392 5.982l4.27 40.37-9.111 15.395-.013-.007Z" fill="url(#i)"/><path opacity=".75" d="m108.374 115.072-5.034.531a2.108 2.108 0 0 0-1.875 2.318l.531 5.035a2.11 2.11 0 0 0 2.318 1.875l5.035-.532a2.109 2.109 0 0 0 1.875-2.318l-.532-5.034a2.107 2.107 0 0 0-2.318-1.875ZM126.224 113.186l-5.034.532a2.109 2.109 0 0 0-1.875 2.318l.532 5.034a2.107 2.107 0 0 0 2.318 1.875l5.034-.531a2.108 2.108 0 0 0 1.875-2.318l-.532-5.035a2.109 2.109 0 0 0-2.318-1.875ZM144.068 111.295l-5.034.532a2.108 2.108 0 0 0-1.875 2.318l.532 5.034a2.108 2.108 0 0 0 2.318 1.875l5.034-.532a2.108 2.108 0 0 0 1.875-2.318l-.532-5.034a2.108 2.108 0 0 0-2.318-1.875Z" fill="#fff"/><path opacity=".9" d="m161.912 109.411-5.034.532a2.107 2.107 0 0 0-1.875 2.318l.531 5.034a2.11 2.11 0 0 0 2.318 1.875l5.035-.532a2.108 2.108 0 0 0 1.875-2.318l-.532-5.034a2.108 2.108 0 0 0-2.318-1.875Z" fill="url(#j)"/><path opacity=".75" d="m109.993 130.446-5.034.532a2.107 2.107 0 0 0-1.875 2.317l.532 5.035a2.108 2.108 0 0 0 2.318 1.875l5.034-.532a2.108 2.108 0 0 0 1.875-2.318l-.532-5.034a2.107 2.107 0 0 0-2.318-1.875ZM127.844 128.561l-5.035.532a2.108 2.108 0 0 0-1.875 2.317l.532 5.035a2.108 2.108 0 0 0 2.318 1.875l5.034-.532a2.107 2.107 0 0 0 1.875-2.318l-.531-5.034a2.108 2.108 0 0 0-2.318-1.875Z" fill="#fff"/><path opacity=".9" d="m145.694 126.67-5.034.531a2.109 2.109 0 0 0-1.875 2.318l.532 5.035a2.109 2.109 0 0 0 2.318 1.875l5.034-.532a2.108 2.108 0 0 0 1.875-2.318l-.532-5.034a2.107 2.107 0 0 0-2.318-1.875Z" fill="url(#k)"/><path opacity=".9" d="m163.538 124.785-5.034.532a2.107 2.107 0 0 0-1.875 2.318l.531 5.034a2.108 2.108 0 0 0 2.318 1.875l5.035-.531a2.11 2.11 0 0 0 1.875-2.318l-.532-5.035a2.108 2.108 0 0 0-2.318-1.875Z" fill="url(#l)"/><path opacity=".75" d="m111.619 145.82-5.034.532a2.107 2.107 0 0 0-1.875 2.318l.532 5.034a2.108 2.108 0 0 0 2.317 1.875l5.035-.532a2.108 2.108 0 0 0 1.875-2.318l-.532-5.034a2.108 2.108 0 0 0-2.318-1.875Z" fill="#fff"/><path opacity=".9" d="m129.47 143.935-5.035.532a2.108 2.108 0 0 0-1.875 2.318l.532 5.034a2.108 2.108 0 0 0 2.318 1.875l5.034-.532a2.107 2.107 0 0 0 1.875-2.318l-.531-5.034a2.11 2.11 0 0 0-2.318-1.875Z" fill="url(#m)"/><path opacity=".75" d="m147.314 142.051-5.034.531a2.11 2.11 0 0 0-1.875 2.318l.532 5.035a2.108 2.108 0 0 0 2.318 1.875l5.034-.532a2.108 2.108 0 0 0 1.875-2.318l-.532-5.034a2.107 2.107 0 0 0-2.318-1.875ZM165.165 140.159l-5.034.532a2.107 2.107 0 0 0-1.875 2.318l.531 5.034a2.11 2.11 0 0 0 2.318 1.875l5.035-.532a2.109 2.109 0 0 0 1.875-2.318l-.532-5.034a2.108 2.108 0 0 0-2.318-1.875Z" fill="#fff"/><path d="m165.217 154.651 9.111-15.395-4.8.51a5.85 5.85 0 0 0-5.204 6.432l.893 8.453Z" fill="url(#n)"/><path d="m99.481 99.584 63.182-6.674a6.73 6.73 0 0 1 7.397 5.983l.479 4.534-76.422 8.072-.493-4.673a6.593 6.593 0 0 1 5.858-7.242Z" fill="url(#o)"/><path opacity=".75" d="M106.833 106.619a3.37 3.37 0 1 0 .001-6.74 3.37 3.37 0 0 0-.001 6.74Z" fill="url(#p)"/><path opacity=".75" d="M154.435 101.584a3.37 3.37 0 1 0 0-6.74 3.37 3.37 0 0 0 0 6.74Z" fill="url(#q)"/><path d="M106.026 95.612h-.007a2.027 2.027 0 0 0-1.803 2.23l.617 5.842a2.028 2.028 0 0 0 2.229 1.804l.007-.001a2.027 2.027 0 0 0 1.803-2.23l-.617-5.842a2.027 2.027 0 0 0-2.229-1.803Z" fill="url(#r)"/><path d="M153.628 90.586h-.007a2.028 2.028 0 0 0-1.804 2.23l.618 5.842a2.026 2.026 0 0 0 2.229 1.803h.007a2.028 2.028 0 0 0 1.803-2.23l-.617-5.842a2.028 2.028 0 0 0-2.229-1.803Z" fill="url(#s)"/><path d="M139.832 83.631c10.56 0 19.12-8.56 19.12-19.119 0-10.56-8.56-19.12-19.12-19.12-10.559 0-19.119 8.56-19.119 19.12s8.56 19.12 19.119 19.12Z" fill="url(#t)"/><path d="M146.447 67.947c0 1.396-.505 2.52-1.515 3.373-1.01.843-2.425 1.348-4.243 1.515v2.701h-1.805v-2.648c-2.144-.044-4.024-.422-5.64-1.133v-3.479c.764.378 1.682.712 2.754 1.001 1.081.29 2.042.462 2.886.514v-4.084l-.883-.343c-1.739-.685-2.974-1.428-3.703-2.227-.72-.808-1.08-1.805-1.08-2.991 0-1.274.496-2.32 1.489-3.136 1.001-.826 2.394-1.327 4.177-1.502v-2.016h1.805v1.963c2.012.088 3.83.492 5.455 1.212l-1.238 3.084a14.246 14.246 0 0 0-4.217-1.028v3.887c1.713.659 2.93 1.23 3.65 1.713.729.483 1.26 1.015 1.594 1.594.343.58.514 1.257.514 2.03Zm-3.966.197c0-.369-.149-.68-.448-.935-.299-.255-.747-.519-1.344-.79v3.28c1.195-.202 1.792-.72 1.792-1.555Zm-5.297-7.998c0 .386.132.707.395.962.273.246.707.5 1.305.764v-3.096c-1.133.166-1.7.623-1.7 1.37Z" fill="#fff"/><defs><radialGradient id="a" cx="0" cy="0" r="1" gradientUnits="userSpaceOnUse" gradientTransform="rotate(117.94 25.728 87.2) scale(169.065)"><stop offset=".202" stop-color="#fff"/><stop offset=".629" stop-color="#006DFF"/><stop offset=".971" stop-color="#202D66"/></radialGradient><radialGradient id="b" cx="0" cy="0" r="1" gradientUnits="userSpaceOnUse" gradientTransform="rotate(14.6 -153.797 216.796) scale(.27)"><stop stop-color="#fff"/><stop offset=".22" stop-color="#016AF8"/><stop offset=".58" stop-color="#104BAE"/><stop offset=".86" stop-color="#1B357A"/><stop offset="1" stop-color="#202D66"/></radialGradient><radialGradient id="c" cx="0" cy="0" r="1" gradientUnits="userSpaceOnUse" gradientTransform="rotate(140.442 72.684 26.545) scale(661.153 661.152)"><stop offset=".032" stop-color="#fff"/><stop offset=".546" stop-color="#90C0FF"/><stop offset=".96" stop-color="#006DFF"/></radialGradient><radialGradient id="d" cx="0" cy="0" r="1" gradientUnits="userSpaceOnUse" gradientTransform="rotate(155.158 60.216 63.498) scale(126.738)"><stop offset=".23" stop-color="#fff"/><stop offset=".26" stop-color="#D6E7FF"/><stop offset=".3" stop-color="#95C2FF"/><stop offset=".34" stop-color="#60A4FF"/><stop offset=".38" stop-color="#368CFF"/><stop offset=".41" stop-color="#187BFF"/><stop offset=".44" stop-color="#0670FF"/><stop offset=".46" stop-color="#006DFF"/><stop offset=".5" stop-color="#006BFA"/><stop offset=".54" stop-color="#0365EC"/><stop offset=".58" stop-color="#085BD5"/><stop offset=".63" stop-color="#0F4EB6"/><stop offset=".67" stop-color="#173D8D"/><stop offset=".71" stop-color="#202D66"/></radialGradient><radialGradient id="e" cx="0" cy="0" r="1" gradientUnits="userSpaceOnUse" gradientTransform="matrix(-92.36704 26.75995 -26.75992 -92.36694 113.934 110.708)"><stop offset=".2" stop-color="#fff"/><stop offset=".28" stop-color="#E2EEFF"/><stop offset=".555" stop-color="#4192FF"/><stop offset=".684" stop-color="#006BFA"/><stop offset=".9" stop-color="#0365ED"/><stop offset=".91" stop-color="#085CD7"/><stop offset=".92" stop-color="#0E4FB9"/><stop offset=".93" stop-color="#163F93"/><stop offset=".94" stop-color="#202D66"/></radialGradient><radialGradient id="f" cx="0" cy="0" r="1" gradientUnits="userSpaceOnUse" gradientTransform="rotate(-6.212 1331.472 -189.685) scale(90.236)"><stop offset=".03" stop-color="#006DFF"/><stop offset=".158" stop-color="#0771FF"/><stop offset=".331" stop-color="#4E9AFF"/><stop offset=".447" stop-color="#8ABBFF"/><stop offset=".608" stop-color="#B8D6FF"/><stop offset=".65" stop-color="#D9E9FF"/><stop offset=".76" stop-color="#EDF4FF"/><stop offset=".83" stop-color="#F5F9FF"/></radialGradient><radialGradient id="k" cx="0" cy="0" r="1" gradientUnits="userSpaceOnUse" gradientTransform="rotate(-6.03 1333.303 -1057.37) scale(201.913)"><stop offset=".29" stop-color="#202D66"/><stop offset=".33" stop-color="#173D8D"/><stop offset=".37" stop-color="#0F4EB6"/><stop offset=".42" stop-color="#085BD5"/><stop offset=".46" stop-color="#0365EC"/><stop offset=".5" stop-color="#006BFA"/><stop offset=".54" stop-color="#006DFF"/><stop offset=".56" stop-color="#0670FF"/><stop offset=".59" stop-color="#187BFF"/><stop offset=".62" stop-color="#368CFF"/><stop offset=".66" stop-color="#60A4FF"/><stop offset=".7" stop-color="#95C2FF"/><stop offset=".74" stop-color="#D6E7FF"/><stop offset=".77" stop-color="#fff"/></radialGradient><radialGradient id="m" cx="0" cy="0" r="1" gradientUnits="userSpaceOnUse" gradientTransform="rotate(-6.03 1479.762 -1071.903) scale(81.4125)"><stop offset=".29" stop-color="#202D66"/><stop offset=".33" stop-color="#173D8D"/><stop offset=".37" stop-color="#0F4EB6"/><stop offset=".42" stop-color="#085BD5"/><stop offset=".46" stop-color="#0365EC"/><stop offset=".5" stop-color="#006BFA"/><stop offset=".54" stop-color="#006DFF"/><stop offset=".56" stop-color="#0670FF"/><stop offset=".59" stop-color="#187BFF"/><stop offset=".62" stop-color="#368CFF"/><stop offset=".66" stop-color="#60A4FF"/><stop offset=".7" stop-color="#95C2FF"/><stop offset=".74" stop-color="#D6E7FF"/><stop offset=".77" stop-color="#fff"/></radialGradient><radialGradient id="o" cx="0" cy="0" r="1" gradientUnits="userSpaceOnUse" gradientTransform="rotate(-5.268 1140.553 -678.176) scale(169.113)"><stop offset=".21" stop-color="#202D66"/><stop offset=".4" stop-color="#154299"/><stop offset=".59" stop-color="#0C54C5"/><stop offset=".76" stop-color="#0562E4"/><stop offset=".9" stop-color="#016AF8"/><stop offset="1" stop-color="#006DFF"/></radialGradient><radialGradient id="p" cx="0" cy="0" r="1" gradientUnits="userSpaceOnUse" gradientTransform="rotate(-6.03 1033.664 -962.518) scale(9.13088)"><stop stop-color="#006DFF"/><stop offset=".21" stop-color="#104BAD"/><stop offset=".37" stop-color="#1B357A"/><stop offset=".44" stop-color="#202D66"/></radialGradient><radialGradient id="q" cx="0" cy="0" r="1" gradientUnits="userSpaceOnUse" gradientTransform="rotate(-6.03 1009.725 -1416.948) scale(9.13088)"><stop stop-color="#006DFF"/><stop offset=".21" stop-color="#104BAD"/><stop offset=".37" stop-color="#1B357A"/><stop offset=".44" stop-color="#202D66"/></radialGradient><radialGradient id="t" cx="0" cy="0" r="1" gradientUnits="userSpaceOnUse" gradientTransform="rotate(140.95 74.834 54.31) scale(88.1765)"><stop stop-color="#006DFF"/><stop offset=".39" stop-color="#104BAD"/><stop offset=".67" stop-color="#1B357A"/><stop offset=".81" stop-color="#202D66"/></radialGradient><linearGradient id="g" x1="-43.31" y1="145.679" x2="386.757" y2="100.25" gradientUnits="userSpaceOnUse"><stop offset=".3" stop-color="#202D66"/><stop offset=".33" stop-color="#006DFF"/><stop offset=".36" stop-color="#338AFF"/><stop offset=".38" stop-color="#6DABFF"/><stop offset=".41" stop-color="#9EC7FF"/><stop offset=".44" stop-color="#C3DCFF"/><stop offset=".46" stop-color="#DEECFF"/><stop offset=".48" stop-color="#EFF5FF"/><stop offset=".5" stop-color="#F5F9FF"/></linearGradient><linearGradient id="h" x1="-44.634" y1="145.819" x2="385.445" y2="100.388" gradientUnits="userSpaceOnUse"><stop offset=".24" stop-color="#324075" stop-opacity=".9"/><stop offset=".48" stop-color="#006DFF"/><stop offset=".49" stop-color="#5CA1FF"/><stop offset=".5" stop-color="#85B9FF"/><stop offset=".51" stop-color="#C4DDFF"/><stop offset=".52" stop-color="#D9E9FF"/><stop offset=".53" stop-color="#E9F2FF"/><stop offset=".54" stop-color="#F2F7FF"/><stop offset=".56" stop-color="#F5F9FF"/></linearGradient><linearGradient id="i" x1="196.559" y1="114.428" x2="-15.009" y2="167.126" gradientUnits="userSpaceOnUse"><stop stop-color="#F5F9FF"/><stop offset=".25" stop-color="#E8F1FF"/><stop offset=".459" stop-color="#C5DEFF"/></linearGradient><linearGradient id="j" x1="135.847" y1="167.524" x2="178.988" y2="71.981" gradientUnits="userSpaceOnUse"><stop offset=".5" stop-color="#202D66"/><stop offset=".54" stop-color="#173D8D"/><stop offset=".59" stop-color="#0F4EB6"/><stop offset=".63" stop-color="#085BD5"/><stop offset=".68" stop-color="#0365EC"/><stop offset=".72" stop-color="#006BFA"/><stop offset=".75" stop-color="#006DFF"/><stop offset=".76" stop-color="#95C2FF"/><stop offset=".77" stop-color="#fff"/></linearGradient><linearGradient id="l" x1="142.967" y1="170.74" x2="186.108" y2="75.197" gradientUnits="userSpaceOnUse"><stop offset=".39" stop-color="#202D66"/><stop offset=".41" stop-color="#173D8D"/><stop offset=".44" stop-color="#0F4EB6"/><stop offset=".47" stop-color="#085BD5"/><stop offset=".49" stop-color="#0365EC"/><stop offset=".52" stop-color="#006BFA"/><stop offset=".54" stop-color="#006DFF"/><stop offset=".56" stop-color="#0670FF"/><stop offset=".59" stop-color="#187BFF"/><stop offset=".62" stop-color="#368CFF"/><stop offset=".66" stop-color="#60A4FF"/><stop offset=".7" stop-color="#95C2FF"/><stop offset=".74" stop-color="#D6E7FF"/><stop offset=".77" stop-color="#fff"/></linearGradient><linearGradient id="n" x1="169.635" y1="155.706" x2="168.139" y2="95.271" gradientUnits="userSpaceOnUse"><stop stop-color="#F5F9FF"/><stop offset=".06" stop-color="#E8F1FF"/><stop offset=".17" stop-color="#C5DEFF"/><stop offset=".32" stop-color="#8EBEFF"/><stop offset=".49" stop-color="#4293FF"/><stop offset=".64" stop-color="#006DFF"/></linearGradient><linearGradient id="r" x1="106.685" y1="106.257" x2="105.705" y2="66.757" gradientUnits="userSpaceOnUse"><stop offset=".18" stop-color="#F5F9FF"/><stop offset=".22" stop-color="#E8F1FF"/><stop offset=".31" stop-color="#C5DEFF"/><stop offset=".42" stop-color="#8EBEFF"/><stop offset=".55" stop-color="#4293FF"/><stop offset=".67" stop-color="#006DFF"/></linearGradient><linearGradient id="s" x1="154.293" y1="101.23" x2="153.314" y2="61.73" gradientUnits="userSpaceOnUse"><stop offset=".09" stop-color="#F5F9FF"/><stop offset=".14" stop-color="#E8F1FF"/><stop offset=".24" stop-color="#C5DEFF"/><stop offset=".37" stop-color="#8EBEFF"/><stop offset=".53" stop-color="#4293FF"/><stop offset=".67" stop-color="#006DFF"/></linearGradient></defs></svg>