<svg width="200" height="200" viewBox="0 0 200 200" fill="none" xmlns="http://www.w3.org/2000/svg"><path d="M99.168 175.308c-38.363 0-69.574-31.211-69.574-69.574s31.21-69.585 69.574-69.585c38.363 0 69.574 31.211 69.574 69.574s-31.211 69.574-69.574 69.574v.011Zm0-132.222c-34.538 0-62.649 28.1-62.649 62.648 0 34.55 28.1 62.649 62.649 62.649s62.648-28.099 62.648-62.649c0-34.549-28.099-62.648-62.648-62.648Z" fill="url(#a)" opacity=".5"/><path opacity=".15" d="m141.88 123.018-.286-83.586c-.011-3.97-3.276-7.215-7.246-7.193l-116.42.394c-3.969.01-7.214 3.275-7.203 7.245l.023 7.734.011.001.264 75.852c.01 3.969 3.275 7.214 7.245 7.192l116.42-.405c3.97-.01 7.214-3.275 7.193-7.245l-.001.011Z" fill="url(#b)"/><path d="m132.301 28.66-116.412.412a7.22 7.22 0 0 0-7.195 7.246L8.99 119.9a7.22 7.22 0 0 0 7.245 7.194l116.412-.411a7.22 7.22 0 0 0 7.195-7.246l-.296-83.583a7.22 7.22 0 0 0-7.245-7.194Z" fill="url(#c)"/><path d="m15.877 29.076 116.424-.411a7.225 7.225 0 0 1 7.245 7.194l.027 7.73L8.71 44.05l-.027-7.73a7.225 7.225 0 0 1 7.194-7.245Z" fill="url(#d)"/><path d="M17.762 39.76a2.693 2.693 0 1 0 .34-5.376 2.693 2.693 0 0 0-.34 5.376ZM26.325 39.735a2.693 2.693 0 1 0 .339-5.376 2.693 2.693 0 0 0-.34 5.376ZM34.876 39.707a2.693 2.693 0 1 0 .34-5.377 2.693 2.693 0 0 0-.34 5.377Z" fill="#fff"/><path d="M26.606 67.467a5.862 5.862 0 1 0 .737-11.7 5.862 5.862 0 0 0-.737 11.7Z" fill="url(#e)"/><path d="m124.309 58-81.308.286a2.973 2.973 0 0 0-2.966 2.981 2.973 2.973 0 0 0 2.987 2.96l81.308-.287a2.973 2.973 0 0 0 2.966-2.98 2.974 2.974 0 0 0-2.987-2.96Z" fill="url(#f)"/><g opacity=".75"><path d="M26.659 83.896a5.862 5.862 0 1 0 .737-11.7 5.862 5.862 0 0 0-.738 11.7Z" fill="url(#g)"/><path d="m124.375 74.424-81.309.287a2.973 2.973 0 0 0-2.966 2.981 2.973 2.973 0 0 0 2.987 2.96l81.309-.287a2.973 2.973 0 0 0 2.965-2.98 2.973 2.973 0 0 0-2.986-2.96Z" fill="url(#h)"/></g><g opacity=".5"><path d="M26.722 100.342a5.861 5.861 0 1 0 .738-11.7 5.862 5.862 0 0 0-.738 11.7Z" fill="url(#i)"/><path d="m124.428 90.862-81.308.287a2.974 2.974 0 0 0-2.966 2.981 2.973 2.973 0 0 0 2.987 2.96l81.308-.287a2.973 2.973 0 0 0 2.966-2.98 2.974 2.974 0 0 0-2.987-2.96Z" fill="url(#j)"/></g><g opacity=".25"><path d="M27.295 117.499a5.861 5.861 0 1 0 .738-11.701 5.863 5.863 0 0 0-.738 11.701Z" fill="url(#k)"/><path d="m125.002 108.019-81.309.287a2.973 2.973 0 0 0-2.966 2.981 2.973 2.973 0 0 0 2.987 2.96l81.309-.287a2.974 2.974 0 0 0 2.965-2.981 2.972 2.972 0 0 0-2.986-2.96Z" fill="url(#l)"/></g><path opacity=".1" fill-rule="evenodd" clip-rule="evenodd" d="m195.475 65.368-3.949-.765c.95.185 1.9-.444 2.085-1.407.185-.95-.456-1.9-1.407-2.086l-58.721-11.317a1.79 1.79 0 0 0-2.085 1.407c-.185.963.444 1.9 1.407 2.086l49.267 9.49-53.217-10.255c-2.505-.482-4.949 1.172-5.43 3.677-.481 2.518 1.173 4.962 3.666 5.443l2.369.457a28.723 28.723 0 0 0-.913 3.48c-4.085 21.19 20.598 33.285 20.376 46.429-.037 2.974-.198 3.801-1.271 6.59-4.69 12.28-32.088 14.341-36.173 35.531a26.721 26.721 0 0 0-.432 3.394l-2.358-.457c-2.505-.481-4.949 1.173-5.43 3.678-.481 2.518 1.173 4.961 3.666 5.443l32.124 6.195-28.175-5.43a1.782 1.782 0 0 0-2.086 1.407 1.788 1.788 0 0 0 1.407 2.086l58.721 11.317a1.798 1.798 0 0 0 2.086-1.407 1.792 1.792 0 0 0-1.407-2.086l3.949.765c2.505.482 4.949-1.172 5.43-3.69a4.65 4.65 0 0 0-3.678-5.43l-2.357-.457c.346-1.073.63-2.184.839-3.32 4.086-21.19-20.585-33.272-20.363-46.428.049-2.987.197-3.814 1.271-6.591 4.69-12.279 32.076-14.34 36.161-35.53.234-1.198.382-2.395.469-3.568l2.369.457a4.65 4.65 0 0 0 5.431-3.69c.481-2.505-1.173-4.949-3.678-5.43l.037.012Z" fill="#00033B"/><path fill-rule="evenodd" clip-rule="evenodd" d="m124.106 50.93 66.631 12.848a4.65 4.65 0 0 1 3.678 5.43 4.65 4.65 0 0 1-5.43 3.69l-66.632-12.847a4.639 4.639 0 0 1-3.665-5.443c.481-2.505 2.925-4.159 5.43-3.677h-.012Z" fill="url(#m)"/><path d="M186.603 72.442a27.327 27.327 0 0 1-.469 3.567c-4.085 21.19-31.471 23.239-36.161 35.531-1.061 2.777-1.221 3.604-1.271 6.59-.222 13.144 24.449 25.226 20.364 46.429a31.3 31.3 0 0 1-.889 3.48l-61.88-11.922c.074-1.184.222-2.382.457-3.566 4.085-21.191 31.483-23.239 36.172-35.532 1.074-2.789 1.222-3.616 1.272-6.59.222-13.144-24.461-25.238-20.376-46.429.234-1.197.543-2.357.913-3.48l61.88 11.922h-.012Z" fill="url(#n)"/><path fill-rule="evenodd" clip-rule="evenodd" d="M177.68 85.94c-6.06 9.886-21.19 12.996-26.485 19.636-2.678 2.925-3.727 5.936-4.739 8.293.074-9.873-1.617-12.354-4.258-15.649-4.171-5.196-11.564-15.6-13.896-21.795l49.378 9.515Z" fill="url(#o)"/><path fill-rule="evenodd" clip-rule="evenodd" d="M113.505 153.18c6.06-9.886 21.19-12.996 26.485-19.636 2.678-2.924 3.727-5.936 4.739-8.293-.074 9.873 1.617 12.354 4.258 15.649 4.171 5.196 11.564 15.6 13.896 21.795l-49.378-9.515Z" fill="url(#p)"/><path fill-rule="evenodd" clip-rule="evenodd" d="m128.055 51.696 58.721 11.317a1.788 1.788 0 0 0 2.086-1.407c.185-.95-.457-1.9-1.407-2.086l-58.721-11.317a1.79 1.79 0 0 0-2.085 1.407c-.186.963.444 1.9 1.406 2.086Z" fill="url(#q)"/><path fill-rule="evenodd" clip-rule="evenodd" d="m102.2 164.596 66.631 12.848a4.651 4.651 0 0 0 5.431-3.69 4.652 4.652 0 0 0-3.678-5.431l-66.632-12.847c-2.505-.481-4.949 1.172-5.43 3.678-.482 2.517 1.172 4.961 3.665 5.442h.013Z" fill="url(#r)"/><path fill-rule="evenodd" clip-rule="evenodd" d="m106.148 165.349 58.721 11.317c.95.185 1.605 1.123 1.407 2.086a1.798 1.798 0 0 1-2.086 1.407l-58.72-11.318a1.787 1.787 0 0 1-1.407-2.085 1.772 1.772 0 0 1 2.085-1.407Z" fill="url(#s)"/><defs><linearGradient id="a" x1="-80.946" y1="64.949" x2="190.752" y2="105.734" gradientUnits="userSpaceOnUse"><stop offset=".42" stop-color="#006DFF"/><stop offset=".48" stop-color="#0F76FF"/><stop offset=".59" stop-color="#398DFF"/><stop offset=".74" stop-color="#7CB4FF"/><stop offset=".93" stop-color="#D7E8FF"/><stop offset=".99" stop-color="#F5F9FF"/></linearGradient><linearGradient id="b" x1="12.569" y1="127.894" x2="140.037" y2="34.991" gradientUnits="userSpaceOnUse"><stop offset=".19" stop-color="#202D66"/><stop offset=".31" stop-color="#1B357A"/><stop offset=".55" stop-color="#104BAD"/><stop offset=".88" stop-color="#006DFF"/></linearGradient><linearGradient id="d" x1="-23.686" y1="67.515" x2="-12.879" y2="15.752" gradientUnits="userSpaceOnUse"><stop offset=".19" stop-color="#202D66"/><stop offset=".33" stop-color="#1B357A"/><stop offset=".61" stop-color="#104BAD"/><stop offset="1" stop-color="#006DFF"/></linearGradient><linearGradient id="e" x1="22.463" y1="65.378" x2="31.467" y2="57.854" gradientUnits="userSpaceOnUse"><stop offset=".19" stop-color="#202D66"/><stop offset=".33" stop-color="#1B357A"/><stop offset=".61" stop-color="#104BAD"/><stop offset="1" stop-color="#006DFF"/></linearGradient><linearGradient id="f" x1="57.381" y1="83.087" x2="109.95" y2="39.14" gradientUnits="userSpaceOnUse"><stop offset=".19" stop-color="#202D66"/><stop offset=".33" stop-color="#1B357A"/><stop offset=".61" stop-color="#104BAD"/><stop offset="1" stop-color="#006DFF"/></linearGradient><linearGradient id="g" x1="22.521" y1="81.805" x2="31.526" y2="74.281" gradientUnits="userSpaceOnUse"><stop offset=".19" stop-color="#202D66"/><stop offset=".33" stop-color="#1B357A"/><stop offset=".61" stop-color="#104BAD"/><stop offset="1" stop-color="#006DFF"/></linearGradient><linearGradient id="h" x1="57.435" y1="99.512" x2="110.004" y2="55.565" gradientUnits="userSpaceOnUse"><stop offset=".19" stop-color="#202D66"/><stop offset=".33" stop-color="#1B357A"/><stop offset=".61" stop-color="#104BAD"/><stop offset="1" stop-color="#006DFF"/></linearGradient><linearGradient id="i" x1="22.58" y1="98.249" x2="31.584" y2="90.725" gradientUnits="userSpaceOnUse"><stop offset=".19" stop-color="#202D66"/><stop offset=".33" stop-color="#1B357A"/><stop offset=".61" stop-color="#104BAD"/><stop offset="1" stop-color="#006DFF"/></linearGradient><linearGradient id="j" x1="57.5" y1="115.95" x2="110.069" y2="72.003" gradientUnits="userSpaceOnUse"><stop offset=".19" stop-color="#202D66"/><stop offset=".33" stop-color="#1B357A"/><stop offset=".61" stop-color="#104BAD"/><stop offset="1" stop-color="#006DFF"/></linearGradient><linearGradient id="k" x1="23.161" y1="115.401" x2="32.165" y2="107.877" gradientUnits="userSpaceOnUse"><stop offset=".19" stop-color="#202D66"/><stop offset=".33" stop-color="#1B357A"/><stop offset=".61" stop-color="#104BAD"/><stop offset="1" stop-color="#006DFF"/></linearGradient><linearGradient id="l" x1="58.074" y1="133.106" x2="110.642" y2="89.159" gradientUnits="userSpaceOnUse"><stop offset=".19" stop-color="#202D66"/><stop offset=".33" stop-color="#1B357A"/><stop offset=".61" stop-color="#104BAD"/><stop offset="1" stop-color="#006DFF"/></linearGradient><linearGradient id="n" x1="45.268" y1="114.267" x2="248.138" y2="114.267" gradientUnits="userSpaceOnUse"><stop stop-color="#046FFF"/><stop offset=".06" stop-color="#368BFF"/><stop offset=".12" stop-color="#63A5FF"/><stop offset=".18" stop-color="#8ABCFF"/><stop offset=".25" stop-color="#ABCFFF"/><stop offset=".31" stop-color="#C6DEFF"/><stop offset=".39" stop-color="#DBEAFF"/><stop offset=".48" stop-color="#E9F2FF"/><stop offset=".58" stop-color="#F2F7FF"/><stop offset=".74" stop-color="#F5F9FF"/></linearGradient><linearGradient id="o" x1="32.075" y1="144.883" x2="257.962" y2="38.166" gradientUnits="userSpaceOnUse"><stop offset=".05" stop-color="#202D66"/><stop offset=".11" stop-color="#1B357A"/><stop offset=".23" stop-color="#104BAD"/><stop offset=".39" stop-color="#006DFF"/><stop offset=".4" stop-color="#1378FF"/><stop offset=".44" stop-color="#509BFF"/><stop offset=".49" stop-color="#85B9FF"/><stop offset=".53" stop-color="#B1D2FF"/><stop offset=".57" stop-color="#D3E5FF"/><stop offset=".61" stop-color="#EBF3FF"/><stop offset=".64" stop-color="#F9FCFF"/><stop offset=".67" stop-color="#fff"/></linearGradient><linearGradient id="p" x1="53.932" y1="191.155" x2="279.819" y2="84.438" gradientUnits="userSpaceOnUse"><stop offset=".02" stop-color="#202D66"/><stop offset=".05" stop-color="#1B357A"/><stop offset=".1" stop-color="#104BAD"/><stop offset=".16" stop-color="#006DFF"/><stop offset=".5" stop-color="#fff"/></linearGradient><radialGradient id="c" cx="0" cy="0" r="1" gradientUnits="userSpaceOnUse" gradientTransform="rotate(-18.367 294.28 602.447) scale(458.362)"><stop stop-color="#046FFF"/><stop offset=".488" stop-color="#E9F2FF"/><stop offset=".746" stop-color="#fff"/><stop offset=".843" stop-color="#F5F9FF"/></radialGradient><radialGradient id="m" cx="0" cy="0" r="1" gradientUnits="userSpaceOnUse" gradientTransform="translate(45.404 155.562) scale(316.202)"><stop offset=".21" stop-color="#202D66"/><stop offset=".4" stop-color="#154299"/><stop offset=".59" stop-color="#0C54C5"/><stop offset=".76" stop-color="#0562E4"/><stop offset=".9" stop-color="#016AF8"/><stop offset="1" stop-color="#006DFF"/></radialGradient><radialGradient id="q" cx="0" cy="0" r="1" gradientUnits="userSpaceOnUse" gradientTransform="translate(-40.011 174.284) scale(321.286)"><stop offset=".21" stop-color="#202D66"/><stop offset=".4" stop-color="#154299"/><stop offset=".59" stop-color="#0C54C5"/><stop offset=".76" stop-color="#0562E4"/><stop offset=".9" stop-color="#016AF8"/><stop offset="1" stop-color="#006DFF"/></radialGradient><radialGradient id="r" cx="0" cy="0" r="1" gradientUnits="userSpaceOnUse" gradientTransform="translate(45.404 155.562) scale(316.202)"><stop offset=".21" stop-color="#202D66"/><stop offset=".4" stop-color="#154299"/><stop offset=".59" stop-color="#0C54C5"/><stop offset=".76" stop-color="#0562E4"/><stop offset=".9" stop-color="#016AF8"/><stop offset="1" stop-color="#006DFF"/></radialGradient><radialGradient id="s" cx="0" cy="0" r="1" gradientUnits="userSpaceOnUse" gradientTransform="translate(-40.012 174.284) scale(321.286)"><stop offset=".21" stop-color="#202D66"/><stop offset=".4" stop-color="#154299"/><stop offset=".59" stop-color="#0C54C5"/><stop offset=".76" stop-color="#0562E4"/><stop offset=".9" stop-color="#016AF8"/><stop offset="1" stop-color="#006DFF"/></radialGradient></defs></svg>