<svg width="200" height="200" viewBox="0 0 200 200" fill="none" xmlns="http://www.w3.org/2000/svg"><path opacity=".5" d="M134.639 145.99c24.08 0 43.6-19.52 43.6-43.6 0-24.08-19.52-43.6-43.6-43.6-24.08 0-43.6 19.52-43.6 43.6 0 24.08 19.52 43.6 43.6 43.6Z" fill="url(#a)"/><path d="m93.89 62.57-5.76-.6c-.83-4.25-2.48-8.22-4.78-11.73l3.75-4.15a3.174 3.174 0 0 0-.05-4.31l-3.76-3.97a3.178 3.178 0 0 0-4.3-.28l-4.47 3.62a32.776 32.776 0 0 0-11.72-5.13l-.28-5.35a3.18 3.18 0 0 0-3.09-3.01l-5.46-.14a3.169 3.169 0 0 0-3.24 2.84l-.56 5.32a32.96 32.96 0 0 0-12.34 4.71l-3.59-3.24a3.174 3.174 0 0 0-4.31.05l-3.97 3.76a3.178 3.178 0 0 0-.28 4.3L28.71 49a33.06 33.06 0 0 0-5.51 12.49l-4.09.21a3.487 3.487 0 0 0-3.31 3.39l-.13 4.88a3.484 3.484 0 0 0 3.12 3.56l4.17.44c.81 4.69 2.6 9.06 5.17 12.87l-2.84 3.15a3.174 3.174 0 0 0 .05 4.31l3.76 3.97a3.178 3.178 0 0 0 4.3.28l3.51-2.84c3.75 2.57 8.06 4.37 12.72 5.21l.23 4.48a3.18 3.18 0 0 0 3.09 3.01l5.46.14c1.66.04 3.07-1.19 3.24-2.84l.51-4.9c4.48-.9 8.63-2.72 12.27-5.24l3.7 3.34a3.174 3.174 0 0 0 4.31-.05l3.97-3.76c1.2-1.14 1.32-3.01.28-4.3l-3.44-4.25a32.8 32.8 0 0 0 4.85-11.93l5.44-.28a3.18 3.18 0 0 0 3.01-3.09l.14-5.46a3.169 3.169 0 0 0-2.84-3.24l.04.02Zm-24.04 0c5.21 12.71-7.14 24.98-19.58 20.23-4.4-1.68-7.88-5.35-9.33-9.83-4.09-12.67 8.82-24.37 21.24-18.49a15.55 15.55 0 0 1 7.68 8.09h-.01Z" fill="url(#b)"/><path d="m61.939 59.51-5.89-1.75c-1.54-.46-3.2-.06-4.37 1.05l-4.46 4.23a4.488 4.488 0 0 0-1.27 4.31l1.43 5.97c.37 1.56 1.55 2.8 3.09 3.26l5.89 1.75c1.54.46 3.2.06 4.37-1.05l4.46-4.23a4.494 4.494 0 0 0 1.28-4.31l-1.43-5.98a4.489 4.489 0 0 0-3.09-3.26l-.01.01Zm-4.97 12.05a3.596 3.596 0 0 1-4.23-4.46 3.568 3.568 0 0 1 2.62-2.55 3.605 3.605 0 0 1 4.3 4.53c-.35 1.24-1.42 2.22-2.68 2.48h-.01Z" fill="url(#c)"/><path d="m69.09 126.39-3.95-.41c-.57-2.92-1.7-5.64-3.27-8.04l2.57-2.85c.76-.84.74-2.13-.04-2.96l-2.58-2.72c-.78-.82-2.07-.91-2.95-.19l-3.07 2.48c-2.38-1.66-5.1-2.87-8.03-3.52l-.19-3.67a2.178 2.178 0 0 0-2.12-2.06l-3.75-.1c-1.14-.03-2.1.82-2.22 1.95l-.38 3.65c-3.06.51-5.93 1.62-8.46 3.23l-2.46-2.22c-.84-.76-2.13-.74-2.96.04l-2.72 2.58c-.82.78-.91 2.07-.19 2.95l2.08 2.57a22.542 22.542 0 0 0-3.77 8.57l-2.81.14a2.397 2.397 0 0 0-2.27 2.33l-.09 3.35c-.03 1.25.9 2.31 2.14 2.44l2.86.3a22.81 22.81 0 0 0 3.54 8.83l-1.94 2.16c-.76.84-.74 2.13.04 2.96l2.58 2.72c.78.82 2.07.91 2.95.19l2.41-1.95a22.72 22.72 0 0 0 8.72 3.58l.16 3.07c.06 1.13.98 2.03 2.12 2.06l3.75.1c1.14.03 2.1-.82 2.22-1.95l.35-3.36c3.07-.62 5.92-1.86 8.41-3.59l2.54 2.29c.84.76 2.13.74 2.96-.04l2.72-2.58c.82-.78.91-2.07.19-2.95l-2.36-2.91a22.5 22.5 0 0 0 3.33-8.18l3.73-.19c1.13-.06 2.03-.98 2.06-2.12l.1-3.75c.03-1.14-.82-2.1-1.95-2.22v-.01Zm-16.48 0c3.57 8.72-4.9 17.13-13.43 13.87a10.83 10.83 0 0 1-6.4-6.74c-2.8-8.69 6.05-16.71 14.56-12.68a10.6 10.6 0 0 1 5.26 5.55h.01Z" fill="url(#d)"/><path d="m47.18 124.29-4.04-1.2c-1.06-.31-2.2-.04-3 .72l-3.06 2.9c-.8.76-1.13 1.88-.87 2.95l.98 4.1a3.067 3.067 0 0 0 2.12 2.23l4.04 1.2c1.05.31 2.2.04 2.99-.72l3.06-2.9c.8-.76 1.13-1.88.88-2.95l-.98-4.1a3.067 3.067 0 0 0-2.12-2.23Zm-3.41 8.26a2.464 2.464 0 0 1-2.9-3.06c.22-.86.93-1.55 1.79-1.75a2.474 2.474 0 0 1 2.95 3.11 2.43 2.43 0 0 1-1.84 1.7Z" fill="url(#e)"/><path opacity=".2" d="m155.15 160.18-25.77-41.24c-.36-.57-1.11-.74-1.68-.39l-1.61 1.01-2.06-3.29c-.36-.58-1.12-.75-1.7-.39l-2.68 1.68L90.12 70.3c.11-.36.17-.75.11-1.14l-.37-2.55a2.59 2.59 0 0 0-.86-1.59c-1.72-1.51-5.94-5.19-6.13-5.07l-1.15.72h-.02l-1.15.73c-.18.11 1.27 5.52 1.87 7.73.16.6.54 1.12 1.05 1.47l2.13 1.46c.31.21.66.32 1.01.39l29.56 47.29 1.29-.81-3.98 2.49a1.23 1.23 0 0 0-.39 1.69l2.06 3.3-1.6 1c-.58.36-.75 1.12-.39 1.69l25.77 41.23a5.639 5.639 0 0 0 7.77 1.79l6.66-4.16a5.639 5.639 0 0 0 1.79-7.77v-.01Z" fill="url(#f)"/><path d="m149.825 166.103-6.666 4.165a5.646 5.646 0 0 1-7.771-1.794l-25.765-41.232a1.23 1.23 0 0 1 .391-1.695l14.146-8.839a1.225 1.225 0 0 1 1.681.388l25.77 41.241a5.646 5.646 0 0 1-1.794 7.771l.008-.005Z" fill="url(#g)"/><path d="m122.554 117.725-10.931 6.831-2.062-3.299a1.23 1.23 0 0 1 .392-1.695l8.845-5.527a1.238 1.238 0 0 1 1.708.394l2.056 3.291-.008.005Z" fill="url(#h)"/><path d="m112.638 117.889 3.468-2.168-30.147-48.245-3.468 2.167 30.147 48.246Z" fill="url(#i)"/><path d="M79.939 68.77c-.52-.35-.89-.87-1.05-1.47-.6-2.21-2.06-7.62-1.87-7.73l1.15-.72h.02l1.15-.73c.18-.11 4.41 3.56 6.13 5.07.47.41.77.97.86 1.59l.37 2.55c.15 1.03-.32 2.06-1.21 2.61l-.53.33c-.89.55-2.02.53-2.88-.06l-2.13-1.46-.01.02Z" fill="url(#j)"/><path d="m146.417 159.748 2.832-1.77-22.723-36.365-2.832 1.77 22.723 36.365Z" fill="url(#k)"/><path d="m141.15 163.044 2.832-1.77-22.723-36.364-2.832 1.77 22.723 36.364Z" fill="url(#l)"/><path d="m135.893 166.343 2.833-1.77-22.73-36.361-2.832 1.771 22.729 36.36Z" fill="url(#m)"/><path opacity=".2" d="m129.11 49.53-5.67 11.78-7.5-.81-5.31-5.36 5.66-11.77c-6.6.09-12.88 4.29-15.06 11.3-1.38 4.43-.13 10.26 2.73 14.33l-27.43 57.031c-5.86.09-11.45 3.39-14.16 9.03a15.944 15.944 0 0 0 1.78 16.71l5.67-11.78 7.5.81 5.31 5.35-5.66 11.77c5.61-.08 10.99-3.13 13.82-8.35 3.04-5.62 2.2-12.46-1.47-17.32l27.41-56.99c5.86-.09 11.45-3.4 14.16-9.03a15.944 15.944 0 0 0-1.78-16.71v.01Z" fill="url(#n)"/><path d="m127.26 46.09-5.67 11.78-7.5-.81-5.31-5.35 5.66-11.77c-6.6.09-12.88 4.29-15.06 11.3-1.38 4.43-.13 10.26 2.73 14.33L74.68 122.6c-5.86.09-11.45 3.39-14.16 9.03a15.944 15.944 0 0 0 1.78 16.71l5.67-11.78 7.5.81 5.31 5.35-5.66 11.77c5.61-.08 10.99-3.13 13.82-8.35 3.04-5.62 2.2-12.46-1.47-17.32l27.41-56.99c5.86-.09 11.45-3.4 14.16-9.03a15.944 15.944 0 0 0-1.78-16.71Z" fill="url(#o)"/><path d="m102.327 85.143-2.82-1.357a1.36 1.36 0 0 0-1.815.636l-12.676 26.35a1.36 1.36 0 0 0 .636 1.815l2.82 1.357a1.36 1.36 0 0 0 1.816-.636l12.675-26.35a1.36 1.36 0 0 0-.636-1.815Z" fill="url(#p)"/><defs><radialGradient id="a" cx="0" cy="0" r="1" gradientUnits="userSpaceOnUse" gradientTransform="rotate(22.62 -188.643 387.78) scale(108.63)"><stop offset=".26" stop-color="#fff"/><stop offset=".32" stop-color="#F6FAFF"/><stop offset=".4" stop-color="#E0EDFF"/><stop offset=".51" stop-color="#BCD8FF"/><stop offset=".63" stop-color="#89BBFF"/><stop offset=".77" stop-color="#4896FF"/><stop offset=".9" stop-color="#006DFF"/><stop offset=".92" stop-color="#006BFA"/><stop offset=".93" stop-color="#0365EC"/><stop offset=".94" stop-color="#085BD5"/><stop offset=".96" stop-color="#0F4EB6"/><stop offset=".97" stop-color="#173D8D"/><stop offset=".98" stop-color="#202D66"/></radialGradient><radialGradient id="f" cx="0" cy="0" r="1" gradientUnits="userSpaceOnUse" gradientTransform="rotate(-6.1 -1065.086 -1546.549) scale(445.79)"><stop offset=".12" stop-color="#006DFF"/><stop offset=".45" stop-color="#104BAD"/><stop offset=".69" stop-color="#1B357A"/><stop offset=".81" stop-color="#202D66"/></radialGradient><radialGradient id="g" cx="0" cy="0" r="1" gradientUnits="userSpaceOnUse" gradientTransform="rotate(-62.32 122.673 -50.23) scale(73.33)"><stop offset=".11" stop-color="#fff"/><stop offset=".13" stop-color="#D6E7FF"/><stop offset=".16" stop-color="#95C2FF"/><stop offset=".19" stop-color="#60A4FF"/><stop offset=".22" stop-color="#368CFF"/><stop offset=".24" stop-color="#187BFF"/><stop offset=".26" stop-color="#0670FF"/><stop offset=".28" stop-color="#006DFF"/><stop offset=".34" stop-color="#006BFA"/><stop offset=".41" stop-color="#0365EC"/><stop offset=".49" stop-color="#085BD5"/><stop offset=".56" stop-color="#0F4EB6"/><stop offset=".64" stop-color="#173D8D"/><stop offset=".71" stop-color="#202D66"/></radialGradient><radialGradient id="h" cx="0" cy="0" r="1" gradientUnits="userSpaceOnUse" gradientTransform="rotate(-62.32 178.034 41.326) scale(73.33)"><stop offset=".11" stop-color="#fff"/><stop offset=".13" stop-color="#D6E7FF"/><stop offset=".16" stop-color="#95C2FF"/><stop offset=".19" stop-color="#60A4FF"/><stop offset=".22" stop-color="#368CFF"/><stop offset=".24" stop-color="#187BFF"/><stop offset=".26" stop-color="#0670FF"/><stop offset=".28" stop-color="#006DFF"/><stop offset=".34" stop-color="#006BFA"/><stop offset=".41" stop-color="#0365EC"/><stop offset=".49" stop-color="#085BD5"/><stop offset=".56" stop-color="#0F4EB6"/><stop offset=".64" stop-color="#173D8D"/><stop offset=".71" stop-color="#202D66"/></radialGradient><radialGradient id="k" cx="0" cy="0" r="1" gradientUnits="userSpaceOnUse" gradientTransform="rotate(-6.09 700.95 -1276.67) scale(150.13)"><stop offset=".11" stop-color="#fff"/><stop offset=".13" stop-color="#D6E7FF"/><stop offset=".16" stop-color="#95C2FF"/><stop offset=".19" stop-color="#60A4FF"/><stop offset=".22" stop-color="#368CFF"/><stop offset=".24" stop-color="#187BFF"/><stop offset=".26" stop-color="#0670FF"/><stop offset=".28" stop-color="#006DFF"/><stop offset=".34" stop-color="#006BFA"/><stop offset=".41" stop-color="#0365EC"/><stop offset=".49" stop-color="#085BD5"/><stop offset=".56" stop-color="#0F4EB6"/><stop offset=".64" stop-color="#173D8D"/><stop offset=".71" stop-color="#202D66"/></radialGradient><radialGradient id="l" cx="0" cy="0" r="1" gradientUnits="userSpaceOnUse" gradientTransform="rotate(-6.09 701 -1276.658) scale(150.13)"><stop offset=".11" stop-color="#fff"/><stop offset=".13" stop-color="#D6E7FF"/><stop offset=".16" stop-color="#95C2FF"/><stop offset=".19" stop-color="#60A4FF"/><stop offset=".22" stop-color="#368CFF"/><stop offset=".24" stop-color="#187BFF"/><stop offset=".26" stop-color="#0670FF"/><stop offset=".28" stop-color="#006DFF"/><stop offset=".34" stop-color="#006BFA"/><stop offset=".41" stop-color="#0365EC"/><stop offset=".49" stop-color="#085BD5"/><stop offset=".56" stop-color="#0F4EB6"/><stop offset=".64" stop-color="#173D8D"/><stop offset=".71" stop-color="#202D66"/></radialGradient><radialGradient id="m" cx="0" cy="0" r="1" gradientUnits="userSpaceOnUse" gradientTransform="rotate(-6.1 700.028 -1274.428) scale(150.13)"><stop offset=".11" stop-color="#fff"/><stop offset=".13" stop-color="#D6E7FF"/><stop offset=".16" stop-color="#95C2FF"/><stop offset=".19" stop-color="#60A4FF"/><stop offset=".22" stop-color="#368CFF"/><stop offset=".24" stop-color="#187BFF"/><stop offset=".26" stop-color="#0670FF"/><stop offset=".28" stop-color="#006DFF"/><stop offset=".34" stop-color="#006BFA"/><stop offset=".41" stop-color="#0365EC"/><stop offset=".49" stop-color="#085BD5"/><stop offset=".56" stop-color="#0F4EB6"/><stop offset=".64" stop-color="#173D8D"/><stop offset=".71" stop-color="#202D66"/></radialGradient><radialGradient id="n" cx="0" cy="0" r="1" gradientUnits="userSpaceOnUse" gradientTransform="translate(166.99 -36.41) scale(304.92)"><stop offset=".12" stop-color="#006DFF"/><stop offset=".45" stop-color="#104BAD"/><stop offset=".69" stop-color="#1B357A"/><stop offset=".81" stop-color="#202D66"/></radialGradient><radialGradient id="o" cx="0" cy="0" r="1" gradientUnits="userSpaceOnUse" gradientTransform="rotate(-4.05 -388.108 -3038.728) scale(231.4)"><stop offset=".11" stop-color="#fff"/><stop offset=".13" stop-color="#D6E7FF"/><stop offset=".16" stop-color="#95C2FF"/><stop offset=".19" stop-color="#60A4FF"/><stop offset=".22" stop-color="#368CFF"/><stop offset=".24" stop-color="#187BFF"/><stop offset=".26" stop-color="#0670FF"/><stop offset=".28" stop-color="#006DFF"/><stop offset=".34" stop-color="#006BFA"/><stop offset=".41" stop-color="#0365EC"/><stop offset=".49" stop-color="#085BD5"/><stop offset=".56" stop-color="#0F4EB6"/><stop offset=".64" stop-color="#173D8D"/><stop offset=".71" stop-color="#202D66"/></radialGradient><radialGradient id="p" cx="0" cy="0" r="1" gradientUnits="userSpaceOnUse" gradientTransform="rotate(64.55 -16.8 158.536) scale(74.06)"><stop offset=".11" stop-color="#fff"/><stop offset=".13" stop-color="#D6E7FF"/><stop offset=".16" stop-color="#95C2FF"/><stop offset=".19" stop-color="#60A4FF"/><stop offset=".22" stop-color="#368CFF"/><stop offset=".24" stop-color="#187BFF"/><stop offset=".26" stop-color="#0670FF"/><stop offset=".28" stop-color="#006DFF"/><stop offset=".34" stop-color="#006BFA"/><stop offset=".41" stop-color="#0365EC"/><stop offset=".49" stop-color="#085BD5"/><stop offset=".56" stop-color="#0F4EB6"/><stop offset=".64" stop-color="#173D8D"/><stop offset=".71" stop-color="#202D66"/></radialGradient><linearGradient id="b" x1="154.669" y1="-31.86" x2="-60.971" y2="186.93" gradientUnits="userSpaceOnUse"><stop offset=".2" stop-color="#F5F9FF"/><stop offset=".26" stop-color="#EDF4FF"/><stop offset=".36" stop-color="#D9E9FF"/><stop offset=".47" stop-color="#B8D6FF"/><stop offset=".61" stop-color="#8ABBFF"/><stop offset=".75" stop-color="#4E9AFF"/><stop offset=".91" stop-color="#0771FF"/><stop offset=".92" stop-color="#006DFF"/></linearGradient><linearGradient id="c" x1="154.669" y1="-31.86" x2="-60.971" y2="186.93" gradientUnits="userSpaceOnUse"><stop stop-color="#F5F9FF"/><stop offset=".18" stop-color="#F2F7FF"/><stop offset=".31" stop-color="#E9F2FF"/><stop offset=".42" stop-color="#D9E9FF"/><stop offset=".52" stop-color="#C3DCFF"/><stop offset=".61" stop-color="#A7CCFF"/><stop offset=".7" stop-color="#85B9FF"/><stop offset=".79" stop-color="#5BA1FF"/><stop offset=".86" stop-color="#2D86FF"/><stop offset=".93" stop-color="#006DFF"/></linearGradient><linearGradient id="d" x1="110.77" y1="61.64" x2="-37.09" y2="211.66" gradientUnits="userSpaceOnUse"><stop offset=".2" stop-color="#F5F9FF"/><stop offset=".26" stop-color="#EDF4FF"/><stop offset=".36" stop-color="#D9E9FF"/><stop offset=".47" stop-color="#B8D6FF"/><stop offset=".61" stop-color="#8ABBFF"/><stop offset=".75" stop-color="#4E9AFF"/><stop offset=".91" stop-color="#0771FF"/><stop offset=".92" stop-color="#006DFF"/></linearGradient><linearGradient id="e" x1="110.769" y1="61.64" x2="-37.091" y2="211.66" gradientUnits="userSpaceOnUse"><stop stop-color="#F5F9FF"/><stop offset=".18" stop-color="#F2F7FF"/><stop offset=".31" stop-color="#E9F2FF"/><stop offset=".42" stop-color="#D9E9FF"/><stop offset=".52" stop-color="#C3DCFF"/><stop offset=".61" stop-color="#A7CCFF"/><stop offset=".7" stop-color="#85B9FF"/><stop offset=".79" stop-color="#5BA1FF"/><stop offset=".86" stop-color="#2D86FF"/><stop offset=".93" stop-color="#006DFF"/></linearGradient><linearGradient id="i" x1="35.944" y1="44.746" x2="173.91" y2="149.161" gradientUnits="userSpaceOnUse"><stop offset=".18" stop-color="#F5F9FF"/><stop offset=".33" stop-color="#F2F7FF"/><stop offset=".43" stop-color="#E9F2FF"/><stop offset=".52" stop-color="#D9E9FF"/><stop offset=".6" stop-color="#C3DCFF"/><stop offset=".68" stop-color="#A7CCFF"/><stop offset=".75" stop-color="#85B9FF"/><stop offset=".81" stop-color="#5BA1FF"/><stop offset=".88" stop-color="#2D86FF"/><stop offset=".93" stop-color="#006DFF"/></linearGradient><linearGradient id="j" x1="46.496" y1="38.598" x2="175.796" y2="136.448" gradientUnits="userSpaceOnUse"><stop offset=".16" stop-color="#F5F9FF"/><stop offset=".31" stop-color="#F2F7FF"/><stop offset=".42" stop-color="#E9F2FF"/><stop offset=".51" stop-color="#D9E9FF"/><stop offset=".59" stop-color="#C3DCFF"/><stop offset=".67" stop-color="#A7CCFF"/><stop offset=".74" stop-color="#85B9FF"/><stop offset=".81" stop-color="#5BA1FF"/><stop offset=".88" stop-color="#2D86FF"/><stop offset=".93" stop-color="#006DFF"/></linearGradient></defs></svg>