<svg width="200" height="200" viewBox="0 0 200 200" fill="none" xmlns="http://www.w3.org/2000/svg"><path opacity=".5" d="M96.27 153.592c29.55 0 53.505-24.273 53.505-54.214S125.82 45.164 96.27 45.164c-29.55 0-53.505 24.273-53.505 54.214s23.955 54.214 53.505 54.214Z" fill="url(#a)"/><path d="M103.789 155.408H35.665v-11.463c0-1.746 1.606-3.173 3.562-3.173h60.989c1.967 0 3.562 1.427 3.562 3.173v11.463h.011Z" fill="url(#b)"/><path d="M113.857 155.148H25.608c-1.955 0-3.55 1.616-3.55 3.597v16.157c0 1.981 1.595 3.597 3.55 3.597h88.249c1.955 0 3.55-1.616 3.55-3.597v-16.157c0-1.981-1.595-3.597-3.55-3.597Z" fill="url(#c)"/><path d="M103.789 150.03H35.665v5.119h68.124v-5.119Z" fill="url(#d)"/><path d="M145.375 59.316 121.026 32.24c-1.338-1.498-3.364-1.863-4.481-.837l-13.804 12.736-20.287 18.728-13.758 12.701c-1.117 1.038-.942 3.102.408 4.6l24.349 27.077c1.338 1.498 3.364 1.864 4.481.838l13.758-12.702 20.287-18.727 13.804-12.737c1.117-1.038.943-3.102-.408-4.6Z" fill="url(#e)"/><path d="m64.216 79.357.516-.477a2.586 2.586 0 0 1 3.683.175l26.084 29.015a2.67 2.67 0 0 1-.172 3.732l-.516.476a2.586 2.586 0 0 1-3.683-.174L64.036 83.08a2.67 2.67 0 0 1 .172-3.732l.008.009Z" fill="url(#f)"/><path d="m60.36 82.908-.507.468a2.666 2.666 0 0 0-.171 3.732l26.081 29.002a2.584 2.584 0 0 0 3.683.174l.508-.469a2.666 2.666 0 0 0 .171-3.732L64.044 83.081a2.583 2.583 0 0 0-3.683-.173Z" fill="url(#g)"/><path d="m124.698 23.765.516-.477a2.586 2.586 0 0 1 3.683.174l26.089 29.01a2.669 2.669 0 0 1-.171 3.732l-.516.477a2.586 2.586 0 0 1-3.683-.173l-26.097-29.02a2.669 2.669 0 0 1 .171-3.732l.008.01Z" fill="url(#h)"/><path d="m120.348 27.777.517-.476a2.586 2.586 0 0 1 3.683.174l26.084 29.015a2.67 2.67 0 0 1-.172 3.732l-.516.476a2.586 2.586 0 0 1-3.683-.174L120.177 31.51a2.67 2.67 0 0 1 .171-3.732Z" fill="url(#i)"/><path d="m138.799 97.043-7.728 7.135a3.355 3.355 0 0 1-4.784-.224l-10.824-12.041 12.733-11.746 10.825 12.04c1.257 1.404 1.164 3.574-.222 4.848v-.012Z" fill="url(#j)"/><path d="m138.702 97.14-7.692 7.1 38.672 43.017 7.692-7.1-38.672-43.017Z" fill="url(#k)"/><path d="m176.836 144.629-2.688 2.476a3.354 3.354 0 0 1-4.784-.224l-1.63-1.816 7.694-7.099 1.629 1.816c1.257 1.403 1.164 3.573-.221 4.847Z" fill="url(#l)"/><path d="m135.044 74.204-29.557-32.877-24.42 22.538 29.557 32.878 24.42-22.538Z" fill="url(#m)"/><path opacity=".5" d="m65.042 84.2 23.837 26.512M125.565 28.335l23.837 26.512" stroke="#fff" stroke-width=".75" stroke-miterlimit="10"/><defs><radialGradient id="a" cx="0" cy="0" r="1" gradientUnits="userSpaceOnUse" gradientTransform="matrix(-133.09914 -7.89356 7.99734 -134.84906 96.141 99.26)"><stop offset=".26" stop-color="#fff"/><stop offset=".91" stop-color="#006DFF"/><stop offset=".92" stop-color="#006BFA"/><stop offset=".93" stop-color="#0365EC"/><stop offset=".94" stop-color="#085BD5"/><stop offset=".96" stop-color="#0F4EB6"/><stop offset=".97" stop-color="#173D8D"/><stop offset=".98" stop-color="#202D66"/></radialGradient><radialGradient id="b" cx="0" cy="0" r="1" gradientUnits="userSpaceOnUse" gradientTransform="matrix(82.6499 0 0 83.7442 26.808 153.486)"><stop offset=".21" stop-color="#202D66"/><stop offset=".4" stop-color="#154299"/><stop offset=".59" stop-color="#0C54C5"/><stop offset=".76" stop-color="#0562E4"/><stop offset=".9" stop-color="#016AF8"/><stop offset="1" stop-color="#006DFF"/></radialGradient><radialGradient id="c" cx="0" cy="0" r="1" gradientUnits="userSpaceOnUse" gradientTransform="matrix(132.873 0 0 134.632 25.271 190.316)"><stop offset=".21" stop-color="#202D66"/><stop offset=".4" stop-color="#154299"/><stop offset=".59" stop-color="#0C54C5"/><stop offset=".76" stop-color="#0562E4"/><stop offset=".9" stop-color="#016AF8"/><stop offset="1" stop-color="#006DFF"/></radialGradient><radialGradient id="d" cx="0" cy="0" r="1" gradientUnits="userSpaceOnUse" gradientTransform="matrix(393.358 0 0 398.566 -64.967 211.662)"><stop stop-color="#202D66"/><stop offset=".03" stop-color="#154299"/><stop offset=".06" stop-color="#0C54C5"/><stop offset=".09" stop-color="#0562E4"/><stop offset=".11" stop-color="#016AF8"/><stop offset=".13" stop-color="#006DFF"/><stop offset=".15" stop-color="#0972FF"/><stop offset=".29" stop-color="#4997FF"/><stop offset=".42" stop-color="#81B6FF"/><stop offset=".56" stop-color="#AED0FF"/><stop offset=".68" stop-color="#D1E4FF"/><stop offset=".8" stop-color="#EAF3FF"/><stop offset=".91" stop-color="#F9FBFF"/><stop offset=".99" stop-color="#fff"/></radialGradient><radialGradient id="e" cx="0" cy="0" r="1" gradientUnits="userSpaceOnUse" gradientTransform="matrix(125.121 0 0 126.778 112.262 130.925)"><stop offset=".21" stop-color="#202D66"/><stop offset=".4" stop-color="#154299"/><stop offset=".59" stop-color="#0C54C5"/><stop offset=".76" stop-color="#0562E4"/><stop offset=".9" stop-color="#016AF8"/><stop offset="1" stop-color="#006DFF"/></radialGradient><radialGradient id="f" cx="0" cy="0" r="1" gradientUnits="userSpaceOnUse" gradientTransform="matrix(77.3307 0 0 78.3546 79.55 130.082)"><stop offset=".21" stop-color="#202D66"/><stop offset=".4" stop-color="#154299"/><stop offset=".59" stop-color="#0C54C5"/><stop offset=".76" stop-color="#0562E4"/><stop offset=".9" stop-color="#016AF8"/><stop offset="1" stop-color="#006DFF"/></radialGradient><radialGradient id="g" cx="0" cy="0" r="1" gradientUnits="userSpaceOnUse" gradientTransform="matrix(77.3308 0 0 78.3546 79.548 130.074)"><stop offset=".21" stop-color="#202D66"/><stop offset=".4" stop-color="#154299"/><stop offset=".59" stop-color="#0C54C5"/><stop offset=".76" stop-color="#0562E4"/><stop offset=".9" stop-color="#016AF8"/><stop offset="1" stop-color="#006DFF"/></radialGradient><radialGradient id="h" cx="0" cy="0" r="1" gradientUnits="userSpaceOnUse" gradientTransform="matrix(98.13 0 0 99.4292 123.507 93.484)"><stop offset=".21" stop-color="#202D66"/><stop offset=".4" stop-color="#154299"/><stop offset=".59" stop-color="#0C54C5"/><stop offset=".76" stop-color="#0562E4"/><stop offset=".9" stop-color="#016AF8"/><stop offset="1" stop-color="#006DFF"/></radialGradient><radialGradient id="i" cx="0" cy="0" r="1" gradientUnits="userSpaceOnUse" gradientTransform="matrix(98.13 0 0 99.4292 123.511 93.477)"><stop offset=".21" stop-color="#202D66"/><stop offset=".4" stop-color="#154299"/><stop offset=".59" stop-color="#0C54C5"/><stop offset=".76" stop-color="#0562E4"/><stop offset=".9" stop-color="#016AF8"/><stop offset="1" stop-color="#006DFF"/></radialGradient><radialGradient id="j" cx="0" cy="0" r="1" gradientUnits="userSpaceOnUse" gradientTransform="matrix(101.412 0 0 102.755 129.418 149.016)"><stop stop-color="#202D66"/><stop offset=".03" stop-color="#154299"/><stop offset=".06" stop-color="#0C54C5"/><stop offset=".09" stop-color="#0562E4"/><stop offset=".11" stop-color="#016AF8"/><stop offset=".13" stop-color="#006DFF"/><stop offset=".15" stop-color="#0972FF"/><stop offset=".29" stop-color="#4997FF"/><stop offset=".42" stop-color="#81B6FF"/><stop offset=".56" stop-color="#AED0FF"/><stop offset=".68" stop-color="#D1E4FF"/><stop offset=".8" stop-color="#EAF3FF"/><stop offset=".91" stop-color="#F9FBFF"/><stop offset=".99" stop-color="#fff"/></radialGradient><radialGradient id="k" cx="0" cy="0" r="1" gradientUnits="userSpaceOnUse" gradientTransform="matrix(113.971 0 0 115.48 154.251 177.821)"><stop offset=".21" stop-color="#202D66"/><stop offset=".4" stop-color="#154299"/><stop offset=".59" stop-color="#0C54C5"/><stop offset=".76" stop-color="#0562E4"/><stop offset=".9" stop-color="#016AF8"/><stop offset="1" stop-color="#006DFF"/></radialGradient><radialGradient id="l" cx="0" cy="0" r="1" gradientUnits="userSpaceOnUse" gradientTransform="matrix(49.0359 0 0 49.6851 172.774 167.862)"><stop stop-color="#202D66"/><stop offset=".03" stop-color="#154299"/><stop offset=".06" stop-color="#0C54C5"/><stop offset=".09" stop-color="#0562E4"/><stop offset=".11" stop-color="#016AF8"/><stop offset=".13" stop-color="#006DFF"/><stop offset=".15" stop-color="#0972FF"/><stop offset=".29" stop-color="#4997FF"/><stop offset=".42" stop-color="#81B6FF"/><stop offset=".56" stop-color="#AED0FF"/><stop offset=".68" stop-color="#D1E4FF"/><stop offset=".8" stop-color="#EAF3FF"/><stop offset=".91" stop-color="#F9FBFF"/><stop offset=".99" stop-color="#fff"/></radialGradient><radialGradient id="m" cx="0" cy="0" r="1" gradientUnits="userSpaceOnUse" gradientTransform="matrix(146.805 0 0 148.749 118.625 132.962)"><stop stop-color="#202D66"/><stop offset=".03" stop-color="#154299"/><stop offset=".06" stop-color="#0C54C5"/><stop offset=".09" stop-color="#0562E4"/><stop offset=".11" stop-color="#016AF8"/><stop offset=".13" stop-color="#006DFF"/><stop offset=".15" stop-color="#0972FF"/><stop offset=".29" stop-color="#4997FF"/><stop offset=".42" stop-color="#81B6FF"/><stop offset=".56" stop-color="#AED0FF"/><stop offset=".68" stop-color="#D1E4FF"/><stop offset=".8" stop-color="#EAF3FF"/><stop offset=".91" stop-color="#F9FBFF"/><stop offset=".99" stop-color="#fff"/></radialGradient></defs></svg>