<svg width="200" height="200" viewBox="0 0 200 200" fill="none" xmlns="http://www.w3.org/2000/svg"><path d="M61.84 129.91c20.672 0 37.43-16.758 37.43-37.43S82.512 55.05 61.84 55.05 24.41 71.808 24.41 92.48s16.758 37.43 37.43 37.43Z" stroke="url(#a)" stroke-miterlimit="10"/><path d="M61.84 129.91c20.672 0 37.43-16.758 37.43-37.43S82.512 55.05 61.84 55.05 24.41 71.808 24.41 92.48s16.758 37.43 37.43 37.43Z" stroke="url(#b)" stroke-miterlimit="10"/><path opacity=".1" d="m162.54 101.06-19.3-12.19.12-.45c1.66-6.18-2.03-12.59-8.21-14.25l-27.81-7.48v-7.17c0-6.4-5.23-11.63-11.63-11.63H39.63c-6.4 0-11.63 5.23-11.63 11.63v83.82c0 6.18 5.06 11.24 11.24 11.24h18.6c.96.63 2.03 1.12 3.19 1.43l7.67 2.06 41.81 26.41c5.23 3.3 12.21 1.73 15.51-3.5l10.06-15.92-.15-.09 30.24-47.87c3.42-5.41 1.79-12.63-3.62-16.04h-.01Z" fill="#00033B"/><path d="M112.8 15c-39.42 0-71.38 31.96-71.38 71.39s31.96 71.39 71.39 71.39 71.39-31.96 71.39-71.39S152.23 15 112.8 15Zm0 136.58c-36.01 0-65.19-29.19-65.19-65.19s29.19-65.2 65.19-65.2 65.19 29.19 65.19 65.19-29.19 65.19-65.19 65.19v.01Z" fill="url(#c)"/><path d="m162.823 92.74-43.465-27.456c-5.603-3.54-13.014-1.867-16.554 3.736l-41.336 65.438c-3.54 5.603-1.866 13.015 3.737 16.554l43.464 27.456c5.603 3.539 13.015 1.866 16.554-3.737l41.336-65.437c3.54-5.603 1.867-13.015-3.736-16.554Z" fill="url(#d)"/><path d="m71.76 118.521 63.756 40.274-10.377 16.427c-3.418 5.41-10.591 7.03-16.002 3.612l-44.14-27.883c-5.412-3.418-7.031-10.592-3.613-16.003l10.377-16.427Z" fill="url(#e)"/><path d="M134.571 65 84.924 51.65c-6.4-1.72-12.983 2.073-14.704 8.473l-20.098 74.745c-1.72 6.4 2.072 12.984 8.473 14.705l49.646 13.349c6.4 1.721 12.984-2.073 14.705-8.473l20.097-74.745c1.721-6.4-2.072-12.983-8.472-14.704Z" fill="url(#f)"/><path d="m54.945 116.468 72.949 19.615-5.045 18.763c-1.662 6.181-8.034 9.852-14.214 8.19l-50.545-13.59c-6.18-1.662-9.852-8.034-8.19-14.214l5.045-18.764Z" fill="url(#g)"/><path opacity=".75" d="M134.571 65 84.924 51.65c-6.4-1.72-12.983 2.073-14.704 8.473l-20.098 74.745c-1.72 6.4 2.072 12.984 8.473 14.705l49.646 13.349c6.4 1.721 12.984-2.073 14.705-8.473l20.097-74.745c1.721-6.4-2.072-12.983-8.472-14.704Z" fill="url(#h)"/><path d="M93.86 37.89H36c-6.627 0-12 5.373-12 12v86.08c0 6.627 5.373 12 12 12h57.86c6.627 0 12-5.373 12-12V49.89c0-6.627-5.373-12-12-12Z" fill="url(#i)"/><path d="M40.87 72.3h44.81c1.57 0 2.84 1.27 2.84 2.84v9.44h-50.5v-9.44c0-1.57 1.27-2.84 2.84-2.84h.01Z" fill="url(#j)"/><path d="M88.6 84.58H37.95a2.84 2.84 0 0 0-2.84 2.84v11.35a2.84 2.84 0 0 0 2.84 2.84H88.6a2.84 2.84 0 0 0 2.84-2.84V87.42a2.84 2.84 0 0 0-2.84-2.84Z" fill="url(#k)"/><path d="M62.36 84.58c.06-.25.1-.51.1-.78a3.22 3.22 0 0 0-3.21-3.21H44.8a3.22 3.22 0 0 0-3.21 3.21c0 .27.04.53.1.78h20.67ZM84.86 84.58c.06-.25.1-.51.1-.78a3.22 3.22 0 0 0-3.21-3.21H67.3a3.22 3.22 0 0 0-3.21 3.21c0 .27.04.53.1.78h20.67Z" fill="#F5F9FF"/><path d="M38.02 101.61h6.87v.24c0 1.57-1.27 2.84-2.84 2.84h-1.18c-1.57 0-2.84-1.27-2.84-2.84v-.24h-.01ZM82.49 101.61h6.87v.24c0 1.57-1.27 2.84-2.84 2.84h-1.18c-1.57 0-2.84-1.27-2.84-2.84v-.24h-.01Z" fill="#202D66"/><path d="M24 114.29h81.86v22.08c0 6.4-5.2 11.6-11.6 11.6H35.6c-6.4 0-11.6-5.2-11.6-11.6v-22.08Z" fill="url(#l)"/><path d="M91.44 124.93H35.11v1.57h56.33v-1.57ZM91.44 131.63H35.11v1.57h56.33v-1.57Z" fill="#fff"/><path d="M167.45 58.42c8.721 0 15.79-7.07 15.79-15.79 0-8.72-7.069-15.79-15.79-15.79-8.72 0-15.79 7.07-15.79 15.79 0 8.72 7.07 15.79 15.79 15.79Z" fill="url(#m)"/><defs><radialGradient id="c" cx="0" cy="0" r="1" gradientUnits="userSpaceOnUse" gradientTransform="rotate(156.857 77.877 30.663) scale(429.883)"><stop stop-color="#fff"/><stop offset=".7" stop-color="#006BFA"/><stop offset=".71" stop-color="#0365EC"/><stop offset=".72" stop-color="#085BD5"/><stop offset=".73" stop-color="#0F4EB6"/><stop offset=".74" stop-color="#202D66"/></radialGradient><radialGradient id="e" cx="0" cy="0" r="1" gradientUnits="userSpaceOnUse" gradientTransform="rotate(-137.889 106.364 61.266) scale(88.7605)"><stop offset=".05" stop-color="#006DFF"/><stop offset=".22" stop-color="#104BAD"/><stop offset=".34" stop-color="#1B357A"/><stop offset=".4" stop-color="#202D66"/></radialGradient><radialGradient id="g" cx="0" cy="0" r="1" gradientUnits="userSpaceOnUse" gradientTransform="rotate(-150.255 83.381 59.612) scale(95.8524)"><stop offset=".12" stop-color="#006DFF"/><stop offset=".31" stop-color="#104BAD"/><stop offset=".44" stop-color="#1B357A"/><stop offset=".51" stop-color="#202D66"/></radialGradient><radialGradient id="j" cx="0" cy="0" r="1" gradientUnits="userSpaceOnUse" gradientTransform="rotate(-15.798 345.216 62.474) scale(174.152)"><stop offset=".21" stop-color="#202D66"/><stop offset=".24" stop-color="#163F93"/><stop offset=".26" stop-color="#0E4FB9"/><stop offset=".29" stop-color="#085CD7"/><stop offset=".31" stop-color="#0365ED"/><stop offset=".33" stop-color="#006BFA"/><stop offset=".35" stop-color="#006DFF"/><stop offset=".47" stop-color="#4192FF"/><stop offset=".75" stop-color="#E2EEFF"/><stop offset=".8" stop-color="#fff"/></radialGradient><radialGradient id="k" cx="0" cy="0" r="1" gradientUnits="userSpaceOnUse" gradientTransform="rotate(-14.598 372.747 98.827) scale(174.901)"><stop offset=".26" stop-color="#202D66"/><stop offset=".29" stop-color="#183B88"/><stop offset=".33" stop-color="#0F4DB2"/><stop offset=".37" stop-color="#085BD3"/><stop offset=".41" stop-color="#0464EB"/><stop offset=".45" stop-color="#016AFA"/><stop offset=".48" stop-color="#006DFF"/><stop offset=".59" stop-color="#59A0FF"/><stop offset=".71" stop-color="#ACCFFF"/><stop offset=".79" stop-color="#E0EDFF"/><stop offset=".83" stop-color="#F5F9FF"/></radialGradient><radialGradient id="l" cx="0" cy="0" r="1" gradientUnits="userSpaceOnUse" gradientTransform="rotate(-9.542 887.602 -124.477) scale(71.7168)"><stop offset=".03" stop-color="#202D66"/><stop offset=".26" stop-color="#154299"/><stop offset=".5" stop-color="#0C54C5"/><stop offset=".7" stop-color="#0562E4"/><stop offset=".88" stop-color="#016AF8"/><stop offset="1" stop-color="#006DFF"/></radialGradient><radialGradient id="m" cx="0" cy="0" r="1" gradientUnits="userSpaceOnUse" gradientTransform="rotate(135.595 92.98 45.637) scale(100.476)"><stop offset=".169" stop-color="#fff"/><stop offset=".331" stop-color="#006BFA"/><stop offset=".523" stop-color="#202D66"/></radialGradient><linearGradient id="a" x1="24.61" y1="85.23" x2="99.08" y2="99.74" gradientUnits="userSpaceOnUse"><stop stop-color="#F5F9FF"/><stop offset=".18" stop-color="#F2F7FF"/><stop offset=".31" stop-color="#E9F2FF"/><stop offset=".42" stop-color="#D9E9FF"/><stop offset=".52" stop-color="#C3DCFF"/><stop offset=".61" stop-color="#A7CCFF"/><stop offset=".7" stop-color="#85B9FF"/><stop offset=".79" stop-color="#5BA1FF"/><stop offset=".86" stop-color="#2D86FF"/><stop offset=".93" stop-color="#006DFF"/></linearGradient><linearGradient id="b" x1="24.61" y1="85.23" x2="99.08" y2="99.74" gradientUnits="userSpaceOnUse"><stop stop-color="#F5F9FF"/><stop offset=".18" stop-color="#F2F7FF"/><stop offset=".31" stop-color="#E9F2FF"/><stop offset=".42" stop-color="#D9E9FF"/><stop offset=".52" stop-color="#C3DCFF"/><stop offset=".61" stop-color="#A7CCFF"/><stop offset=".7" stop-color="#85B9FF"/><stop offset=".79" stop-color="#5BA1FF"/><stop offset=".86" stop-color="#2D86FF"/><stop offset=".93" stop-color="#006DFF"/></linearGradient><linearGradient id="d" x1="151.513" y1="237.633" x2="24.228" y2="-155.221" gradientUnits="userSpaceOnUse"><stop offset=".1" stop-color="#F5F9FF"/><stop offset=".419" stop-color="#006DFF"/></linearGradient><linearGradient id="f" x1="190.355" y1="208.839" x2="-89.995" y2="-94.772" gradientUnits="userSpaceOnUse"><stop offset=".19" stop-color="#F5F9FF"/><stop offset=".56" stop-color="#006DFF"/></linearGradient><linearGradient id="h" x1="74.986" y1="137.801" x2="143.576" y2="120.425" gradientUnits="userSpaceOnUse"><stop offset=".06" stop-color="#202D66"/><stop offset=".28" stop-color="#193984" stop-opacity=".8"/><stop offset=".71" stop-color="#0959D1" stop-opacity=".3"/><stop offset=".95" stop-color="#006DFF" stop-opacity="0"/></linearGradient><linearGradient id="i" x1="59.63" y1="158.61" x2="96.32" y2="-296.2" gradientUnits="userSpaceOnUse"><stop offset=".09" stop-color="#F5F9FF"/><stop offset=".14" stop-color="#E8F1FF"/><stop offset=".24" stop-color="#C5DEFF"/><stop offset=".37" stop-color="#8EBEFF"/><stop offset=".53" stop-color="#4293FF"/><stop offset=".67" stop-color="#006DFF"/></linearGradient></defs></svg>