<svg width="200" height="200" viewBox="0 0 200 200" fill="none" xmlns="http://www.w3.org/2000/svg"><path d="M113.488 162.658c-32.546 0-59.025-26.479-59.025-59.025 0-32.547 26.479-59.026 59.025-59.026 32.547 0 59.025 26.48 59.025 59.026 0 32.546-26.478 59.025-59.025 59.025Zm0-112.16c-29.3 0-53.134 23.835-53.134 53.135 0 29.3 23.834 53.134 53.134 53.134s53.135-23.834 53.135-53.134-23.835-53.135-53.135-53.135Z" fill="url(#a)" opacity=".5"/><path d="M144.021 81.061H38.883a5.017 5.017 0 0 0-5.017 5.017v69.689a5.017 5.017 0 0 0 5.017 5.017h105.138a5.017 5.017 0 0 0 5.017-5.017V86.078a5.017 5.017 0 0 0-5.017-5.017Z" fill="url(#b)"/><path d="M27.72 161.569h129.734a1.98 1.98 0 0 1 1.978 1.979v3.43a5.41 5.41 0 0 1-5.409 5.409H31.147a5.41 5.41 0 0 1-5.409-5.409v-3.426c0-1.093.888-1.983 1.983-1.983Z" fill="url(#c)"/><path d="M140.264 85.979H42.619a4.482 4.482 0 0 0-4.482 4.482v59.637a4.482 4.482 0 0 0 4.482 4.482h97.645a4.482 4.482 0 0 0 4.482-4.482V90.461a4.482 4.482 0 0 0-4.482-4.482Z" fill="#E4F0FF"/><path d="M42.617 85.979h97.647a4.484 4.484 0 0 1 4.482 4.482v5.98H38.136v-5.98a4.484 4.484 0 0 1 4.483-4.482h-.002Z" fill="url(#d)"/><path d="M44.607 93.466a1.883 1.883 0 1 0 0-3.765 1.883 1.883 0 0 0 0 3.765ZM50.593 93.466a1.883 1.883 0 1 0 0-3.765 1.883 1.883 0 0 0 0 3.765ZM56.58 93.466a1.883 1.883 0 1 0 0-3.765 1.883 1.883 0 0 0 0 3.765ZM144.746 96.442H38.136v8.514h106.61v-8.514Z" fill="#fff"/><path d="M144.746 104.956H38.136v1.461h106.61v-1.461Z" fill="url(#e)"/><path opacity=".5" d="M54.7 100.699H40.182v1.461H54.7v-1.461Z" fill="url(#f)"/><path opacity=".5" d="M72.98 100.699H58.464v1.461H72.98v-1.461Z" fill="url(#g)"/><path opacity=".5" d="M91.262 100.699H76.744v1.461h14.518v-1.461Z" fill="url(#h)"/><path opacity=".5" d="M109.543 100.699H95.025v1.461h14.518v-1.461Z" fill="url(#i)"/><path opacity=".5" d="M127.827 100.699h-14.518v1.461h14.518v-1.461Z" fill="url(#j)"/><path d="M104.815 110.236H45.05a3.086 3.086 0 0 0-3.085 3.086v34.679a3.086 3.086 0 0 0 3.085 3.086h59.765a3.086 3.086 0 0 0 3.085-3.086v-34.679a3.086 3.086 0 0 0-3.085-3.086ZM137.782 110.236h-25.154a3.086 3.086 0 0 0-3.085 3.086v14.253a3.086 3.086 0 0 0 3.085 3.086h25.154a3.086 3.086 0 0 0 3.085-3.086v-14.253a3.086 3.086 0 0 0-3.085-3.086ZM137.782 131.978h-25.154a3.085 3.085 0 0 0-3.085 3.085V148a3.085 3.085 0 0 0 3.085 3.085h25.154a3.085 3.085 0 0 0 3.085-3.085v-12.937a3.085 3.085 0 0 0-3.085-3.085Z" fill="#fff"/><path opacity=".5" d="M99.717 115.791H46.488v1.461h53.23v-1.461Z" fill="url(#k)"/><path opacity=".5" d="M136.665 115.791h-23.356v1.461h23.356v-1.461Z" fill="url(#l)"/><path opacity=".5" d="M136.665 120.923h-23.356v1.461h23.356v-1.461Z" fill="url(#m)"/><path opacity=".5" d="M136.665 136.174h-23.356v1.461h23.356v-1.461Z" fill="url(#n)"/><path opacity=".5" d="M136.665 140.07h-23.356v1.462h23.356v-1.462Z" fill="url(#o)"/><path opacity=".5" d="M99.717 120.923H46.488v1.461h53.23v-1.461Z" fill="url(#p)"/><path opacity=".5" d="M99.717 126.054H46.488v1.461h53.23v-1.461Z" fill="url(#q)"/><path opacity=".5" d="M99.717 131.184H46.488v1.462h53.23v-1.462Z" fill="url(#r)"/><path opacity=".2" fill-rule="evenodd" clip-rule="evenodd" d="M171.703 60.708c-3.132 11.689-15.147 18.626-26.837 15.494-11.689-3.132-18.626-15.148-15.494-26.837 3.132-11.689 15.147-18.626 26.837-15.494 11.689 3.132 18.626 15.147 15.494 26.837Z" fill="#00033B"/><g clip-path="url(#s)"><path d="M141.741 75.374c11.689 3.133 23.704-3.804 26.836-15.494 3.132-11.689-3.804-23.704-15.494-26.836-11.689-3.132-23.704 3.805-26.836 15.494-3.132 11.69 3.805 23.704 15.494 26.836Z" fill="url(#t)"/><path d="m161.877 49.28-3.731-4.48-13.645 11.373-4.129-4.956-4.486 3.735 7.865 9.436.002-.005.004.007 18.12-15.11Z" fill="#fff"/></g><defs><linearGradient id="a" x1="-205.805" y1="356.112" x2="257.652" y2="10.054" gradientUnits="userSpaceOnUse"><stop offset=".42" stop-color="#006DFF"/><stop offset=".48" stop-color="#0F76FF"/><stop offset=".557" stop-color="#7CB4FF"/><stop offset=".93" stop-color="#D7E8FF"/><stop offset=".99" stop-color="#F5F9FF"/></linearGradient><linearGradient id="b" x1="321.968" y1="-78.571" x2="-208.364" y2="380.39" gradientUnits="userSpaceOnUse"><stop offset=".26" stop-color="#fff"/><stop offset=".37" stop-color="#006DFF"/><stop offset=".42" stop-color="#0C53C2"/><stop offset=".49" stop-color="#1A3780"/><stop offset=".52" stop-color="#202D66"/></linearGradient><linearGradient id="c" x1="234.104" y1="43.569" x2="-62.143" y2="299.949" gradientUnits="userSpaceOnUse"><stop offset=".19" stop-color="#fff"/><stop offset=".2" stop-color="#E8F2FF"/><stop offset=".27" stop-color="#97C3FF"/><stop offset=".33" stop-color="#569EFF"/><stop offset=".38" stop-color="#2783FF"/><stop offset=".42" stop-color="#0A73FF"/><stop offset=".44" stop-color="#006DFF"/><stop offset=".52" stop-color="#0C53C2"/><stop offset=".62" stop-color="#1A3780"/><stop offset=".66" stop-color="#202D66"/></linearGradient><linearGradient id="d" x1="15.232" y1="111.63" x2="171.003" y2="96.442" gradientUnits="userSpaceOnUse"><stop offset=".01" stop-color="#271A6B"/><stop offset=".51" stop-color="#026DFE"/><stop offset=".984" stop-color="#fff"/></linearGradient><linearGradient id="e" x1="38.137" y1="105.686" x2="149.927" y2="105.686" gradientUnits="userSpaceOnUse"><stop offset=".01" stop-color="#271A6B"/><stop offset=".51" stop-color="#026DFE"/><stop offset=".984" stop-color="#fff"/></linearGradient><linearGradient id="f" x1="40.182" y1="101.429" x2="54.7" y2="101.429" gradientUnits="userSpaceOnUse"><stop offset=".19" stop-color="#202D66"/><stop offset=".33" stop-color="#1B357A"/><stop offset=".61" stop-color="#104BAD"/><stop offset="1" stop-color="#006DFF"/></linearGradient><linearGradient id="g" x1="58.463" y1="72.292" x2="72.981" y2="72.292" gradientUnits="userSpaceOnUse"><stop offset=".19" stop-color="#202D66"/><stop offset=".33" stop-color="#1B357A"/><stop offset=".61" stop-color="#104BAD"/><stop offset="1" stop-color="#006DFF"/></linearGradient><linearGradient id="h" x1="76.744" y1="72.292" x2="91.262" y2="72.292" gradientUnits="userSpaceOnUse"><stop offset=".19" stop-color="#202D66"/><stop offset=".33" stop-color="#1B357A"/><stop offset=".61" stop-color="#104BAD"/><stop offset="1" stop-color="#006DFF"/></linearGradient><linearGradient id="i" x1="95.025" y1="72.292" x2="109.543" y2="72.292" gradientUnits="userSpaceOnUse"><stop offset=".19" stop-color="#202D66"/><stop offset=".33" stop-color="#1B357A"/><stop offset=".61" stop-color="#104BAD"/><stop offset="1" stop-color="#006DFF"/></linearGradient><linearGradient id="j" x1="113.309" y1="72.292" x2="127.825" y2="72.292" gradientUnits="userSpaceOnUse"><stop offset=".19" stop-color="#202D66"/><stop offset=".33" stop-color="#1B357A"/><stop offset=".61" stop-color="#104BAD"/><stop offset="1" stop-color="#006DFF"/></linearGradient><linearGradient id="k" x1="46.488" y1="116.522" x2="99.717" y2="116.522" gradientUnits="userSpaceOnUse"><stop offset=".19" stop-color="#202D66"/><stop offset=".33" stop-color="#1B357A"/><stop offset=".61" stop-color="#104BAD"/><stop offset="1" stop-color="#006DFF"/></linearGradient><linearGradient id="l" x1="113.309" y1="116.522" x2="136.665" y2="116.522" gradientUnits="userSpaceOnUse"><stop offset=".19" stop-color="#202D66"/><stop offset=".33" stop-color="#1B357A"/><stop offset=".61" stop-color="#104BAD"/><stop offset="1" stop-color="#006DFF"/></linearGradient><linearGradient id="m" x1="113.309" y1="121.654" x2="136.665" y2="121.654" gradientUnits="userSpaceOnUse"><stop offset=".19" stop-color="#202D66"/><stop offset=".33" stop-color="#1B357A"/><stop offset=".61" stop-color="#104BAD"/><stop offset="1" stop-color="#006DFF"/></linearGradient><linearGradient id="n" x1="113.309" y1="136.904" x2="136.665" y2="136.904" gradientUnits="userSpaceOnUse"><stop offset=".19" stop-color="#202D66"/><stop offset=".33" stop-color="#1B357A"/><stop offset=".61" stop-color="#104BAD"/><stop offset="1" stop-color="#006DFF"/></linearGradient><linearGradient id="o" x1="113.309" y1="140.801" x2="136.665" y2="140.801" gradientUnits="userSpaceOnUse"><stop offset=".19" stop-color="#202D66"/><stop offset=".33" stop-color="#1B357A"/><stop offset=".61" stop-color="#104BAD"/><stop offset="1" stop-color="#006DFF"/></linearGradient><linearGradient id="p" x1="46.488" y1="121.654" x2="99.717" y2="121.654" gradientUnits="userSpaceOnUse"><stop offset=".19" stop-color="#202D66"/><stop offset=".33" stop-color="#1B357A"/><stop offset=".61" stop-color="#104BAD"/><stop offset="1" stop-color="#006DFF"/></linearGradient><linearGradient id="q" x1="46.488" y1="126.784" x2="99.717" y2="126.784" gradientUnits="userSpaceOnUse"><stop offset=".19" stop-color="#202D66"/><stop offset=".33" stop-color="#1B357A"/><stop offset=".61" stop-color="#104BAD"/><stop offset="1" stop-color="#006DFF"/></linearGradient><linearGradient id="r" x1="46.488" y1="131.917" x2="99.717" y2="131.917" gradientUnits="userSpaceOnUse"><stop offset=".19" stop-color="#202D66"/><stop offset=".33" stop-color="#1B357A"/><stop offset=".61" stop-color="#104BAD"/><stop offset="1" stop-color="#006DFF"/></linearGradient><radialGradient id="t" cx="0" cy="0" r="1" gradientUnits="userSpaceOnUse" gradientTransform="rotate(32.69 -17.354 279.135) scale(54.7722)"><stop stop-color="#006DFF"/><stop offset=".39" stop-color="#104BAD"/><stop offset=".67" stop-color="#1B357A"/><stop offset=".81" stop-color="#202D66"/></radialGradient><clipPath id="s"><path fill="#fff" transform="rotate(15 -37.973 514.676)" d="M0 0h43.842v43.842H0z"/></clipPath></defs></svg>