<svg width="200" height="200" viewBox="0 0 200 200" fill="none" xmlns="http://www.w3.org/2000/svg"><g clip-path="url(#a)"><path d="M171.368 97.717c-4.214-28.13-30.436-47.511-58.566-43.298-28.13 4.213-47.52 30.443-43.306 58.573 4.213 28.131 30.443 47.52 58.573 43.299 28.131-4.214 47.52-30.444 43.299-58.574Zm-97.452 14.606c-3.85-25.693 13.854-49.642 39.547-53.492 25.693-3.85 49.643 13.854 53.493 39.547 3.85 25.693-13.854 49.643-39.547 53.493-25.693 3.85-49.643-13.855-53.493-39.548Z" fill="url(#b)"/><path opacity=".1" d="M117.529 66.929s.01-.04.02-.07c4.11-15.79-5.58-31.98-21.64-36.17-16.08-4.18-32.44 5.23-36.55 21.02v.02s-.01.03-.02.05c-.09.21-.18.44-.24.67 0 0-.4 1.52-1.1 4.21-.62 2.37.82 4.79 3.2 5.41l3.65.95c2.39.62 4.82-.79 5.44-3.16l.09-.34c2.44-9.36 11.97-14.99 21.28-12.56 9.31 2.43 14.28 11.85 12.44 21.35-4.26 22.06-24.34 16.32-33.33 13.98-3.5-.91-13.99-3.65-13.99-3.65-2.33-.61-4.71.8-5.32 3.14l-19.9 76.38c-.61 2.34.78 4.73 3.11 5.34l49.87 12.99c2.33.61 4.71-.8 5.32-3.14l19.9-76.38 7.64-29.33c.06-.23.1-.47.12-.7l.01-.01Z" fill="#00033B"/><path d="M55.303 45.39a4.7 4.7 0 0 0-.24.66l-.02.06c.06-.23.14-.46.24-.67 0-.02 0-.03.01-.05h.01Z" fill="url(#c)"/><path d="M113.483 60.6s.01-.04.02-.07c4.11-15.79-5.58-31.98-21.64-36.17-16.08-4.18-32.44 5.23-36.55 21.02v.02s-.01.03-.02.05c-.09.21-.18.44-.24.67 0 0-.4 1.52-1.1 4.21-.62 2.37.82 4.79 3.2 5.41l3.65.95c2.39.62 4.82-.79 5.44-3.16l.09-.34c2.44-9.36 11.97-14.99 21.28-12.56 9.31 2.43 14.28 11.85 12.44 21.35-4.26 22.06-24.34 16.32-33.33 13.98-3.5-.91-13.99-3.65-13.99-3.65-2.33-.61-4.71.8-5.32 3.14l-19.9 76.38c-.61 2.34.78 4.73 3.11 5.34l49.87 12.99c2.33.61 4.71-.8 5.32-3.14l19.9-76.38 7.64-29.33c.06-.23.1-.47.12-.7l.01-.01Z" fill="url(#d)"/><path d="M63.743 156.36c13.365 0 24.2-10.834 24.2-24.2 0-13.365-10.835-24.2-24.2-24.2-13.365 0-24.2 10.835-24.2 24.2 0 13.366 10.835 24.2 24.2 24.2Z" fill="#fff"/><path d="M63.743 156.36c13.365 0 24.2-10.834 24.2-24.2 0-13.365-10.835-24.2-24.2-24.2-13.365 0-24.2 10.835-24.2 24.2 0 13.366 10.835 24.2 24.2 24.2Z" fill="url(#e)"/><path d="m53.373 120.328 25.076 6.238c.573.142.923.724.78 1.297l-1.386 5.57-27.142-6.752 1.385-5.571a1.072 1.072 0 0 1 1.297-.78l-.01-.002Z" fill="url(#f)"/><path d="m78.53 133.599-28.52-7.096a.91.91 0 0 0-1.103.664l-1.837 7.385a.91.91 0 0 0 .663 1.102l28.521 7.096a.91.91 0 0 0 1.103-.664l1.837-7.385a.91.91 0 0 0-.663-1.102Z" fill="url(#g)"/><path d="M63.773 129.931c.07-.13.12-.26.16-.41.24-.95-.35-1.92-1.3-2.16l-7.77-1.93c-.95-.24-1.92.35-2.16 1.3-.04.14-.05.29-.05.43l11.11 2.76.01.01ZM75.873 132.941c.07-.13.12-.26.16-.41.24-.95-.35-1.92-1.3-2.16l-7.77-1.93c-.95-.24-1.92.35-2.16 1.3-.04.14-.05.29-.05.43l11.11 2.76.01.01Z" fill="#F5F9FF"/><path d="m48.416 135.828 3.688.917-.2.806a.88.88 0 0 1-1.067.641l-1.99-.494a.882.882 0 0 1-.641-1.067l.2-.805.01.002ZM72.322 141.772l3.688.917-.2.806a.882.882 0 0 1-1.067.641l-1.99-.495a.881.881 0 0 1-.64-1.066l.2-.806.01.003Z" fill="#fff"/><path fill-rule="evenodd" clip-rule="evenodd" d="m99.748 110.872.921-.127-7.884-23.51a3.583 3.583 0 0 1 2.257-4.537l10.91-3.658a3.585 3.585 0 0 1 3.049-3.052l10.442-1.473 11.117-3.728a3.584 3.584 0 0 1 4.219 1.565l11.316-1.597a3.583 3.583 0 0 1 4.048 3.048l4.17 29.556 2.386-.329a6.006 6.006 0 0 1 6.768 5.13l.336 2.442.021.142 5.768 41.89a6.006 6.006 0 0 1-5.13 6.768l-56.951 7.841a6.005 6.005 0 0 1-6.768-5.129l-.336-2.442c-.007-.047-.015-.094-.021-.142l-1.617-11.746a6.286 6.286 0 0 1-4.454-5.174l-.258-1.874a6.286 6.286 0 0 1 2.89-6.185l-2.329-16.911a6.005 6.005 0 0 1 5.13-6.768Z" fill="#00033B" fill-opacity=".1"/><path d="m103.939 162.312 56.951-7.842a6.005 6.005 0 0 0 5.13-6.768l-5.768-41.89a6.005 6.005 0 0 0-6.768-5.129l-56.951 7.841a6.006 6.006 0 0 0-5.13 6.768l5.768 41.89a6.004 6.004 0 0 0 6.768 5.13Z" fill="url(#h)"/><path d="m116.845 152.041 37.094-5.233a3.584 3.584 0 0 0 3.048-4.049l-10.059-71.304a3.584 3.584 0 0 0-4.049-3.047l-37.094 5.233a3.583 3.583 0 0 0-3.047 4.048l10.059 71.304a3.583 3.583 0 0 0 4.048 3.048Z" fill="url(#i)"/><path d="m112.789 74.457 23.413-3.307c.607 4.281 4.561 7.266 8.842 6.658.063-.006.113-.018.171-.033l8.339 59.107-.18.015c-4.281.608-7.266 4.562-6.658 8.842.01.095.033.172.052.262l-23.435 3.305a6.948 6.948 0 0 1-.02-.265c-.608-4.28-4.562-7.265-8.842-6.657l-8.339-59.085c4.28-.608 7.265-4.562 6.657-8.842Z" fill="url(#j)"/><path d="M133.332 117.948a8.467 8.467 0 1 0-6.945-15.445 8.467 8.467 0 0 0 6.945 15.445Z" fill="url(#k)"/><path d="m117.003 155.418 35.517-11.912a3.583 3.583 0 0 0 2.258-4.536l-22.897-68.273a3.583 3.583 0 0 0-4.536-2.258L91.828 80.351a3.583 3.583 0 0 0-2.258 4.536l22.896 68.273a3.585 3.585 0 0 0 4.537 2.258Z" fill="url(#l)"/><path d="m98.858 79.886 22.417-7.522a7.814 7.814 0 0 0 9.908 4.927l.164-.073 18.982 56.592c-.054.025-.108.027-.167.043a7.814 7.814 0 0 0-4.928 9.908c.037.082.074.164.102.25l-22.448 7.526c-.028-.087-.046-.177-.074-.263a7.815 7.815 0 0 0-9.908-4.928L93.922 89.798a7.814 7.814 0 0 0 4.927-9.908l.01-.004Z" fill="url(#m)"/><path d="M125.641 119.661a8.467 8.467 0 1 0-11.194-4.25 8.467 8.467 0 0 0 11.194 4.25Z" fill="url(#n)"/><path d="m104.297 164.896 56.95-7.842a6.004 6.004 0 0 0 5.13-6.768l-5.768-41.89a6.005 6.005 0 0 0-6.768-5.13l-56.95 7.842a6.005 6.005 0 0 0-5.13 6.768l5.768 41.89a6.006 6.006 0 0 0 6.768 5.13Z" fill="url(#o)"/><path d="m98.184 145.631 18.402-2.534a6.284 6.284 0 0 0 5.369-7.084l-.258-1.873a6.286 6.286 0 0 0-7.084-5.37l-18.402 2.534a6.286 6.286 0 0 0-5.369 7.084l.258 1.874a6.285 6.285 0 0 0 7.084 5.369Z" fill="url(#p)"/><path d="M116.208 139.243a3.554 3.554 0 0 0-2.914-6.481 3.553 3.553 0 0 0 2.914 6.481Z" fill="#fff"/></g><defs><radialGradient id="b" cx="0" cy="0" r="1" gradientUnits="userSpaceOnUse" gradientTransform="rotate(117.94 28.478 88.854) scale(169.065)"><stop offset=".202" stop-color="#fff"/><stop offset=".629" stop-color="#006DFF"/><stop offset=".971" stop-color="#202D66"/></radialGradient><radialGradient id="c" cx="0" cy="0" r="1" gradientUnits="userSpaceOnUse" gradientTransform="rotate(14.6 -151.043 238.263) scale(.27)"><stop stop-color="#fff"/><stop offset=".22" stop-color="#016AF8"/><stop offset=".58" stop-color="#104BAE"/><stop offset=".86" stop-color="#1B357A"/><stop offset="1" stop-color="#202D66"/></radialGradient><radialGradient id="d" cx="0" cy="0" r="1" gradientUnits="userSpaceOnUse" gradientTransform="rotate(136.534 88.524 29.877) scale(571.436)"><stop offset=".085" stop-color="#fff"/><stop offset=".677" stop-color="#87BAFF"/><stop offset="1" stop-color="#006DFF"/></radialGradient><radialGradient id="e" cx="0" cy="0" r="1" gradientUnits="userSpaceOnUse" gradientTransform="rotate(150.576 74.972 58.119) scale(157.058)"><stop offset=".23" stop-color="#fff"/><stop offset=".26" stop-color="#D6E7FF"/><stop offset=".3" stop-color="#95C2FF"/><stop offset=".34" stop-color="#60A4FF"/><stop offset=".38" stop-color="#368CFF"/><stop offset=".41" stop-color="#187BFF"/><stop offset=".44" stop-color="#0670FF"/><stop offset=".46" stop-color="#006DFF"/><stop offset=".5" stop-color="#006BFA"/><stop offset=".54" stop-color="#0365EC"/><stop offset=".58" stop-color="#085BD5"/><stop offset=".63" stop-color="#0F4EB6"/><stop offset=".67" stop-color="#173D8D"/><stop offset=".71" stop-color="#202D66"/></radialGradient><radialGradient id="f" cx="0" cy="0" r="1" gradientUnits="userSpaceOnUse" gradientTransform="matrix(-92.36704 26.75995 -26.75992 -92.36694 119.434 110.707)"><stop offset=".2" stop-color="#fff"/><stop offset=".28" stop-color="#E2EEFF"/><stop offset=".555" stop-color="#4192FF"/><stop offset=".684" stop-color="#006BFA"/><stop offset=".9" stop-color="#0365ED"/><stop offset=".91" stop-color="#085CD7"/><stop offset=".92" stop-color="#0E4FB9"/><stop offset=".93" stop-color="#163F93"/><stop offset=".94" stop-color="#202D66"/></radialGradient><radialGradient id="g" cx="0" cy="0" r="1" gradientUnits="userSpaceOnUse" gradientTransform="rotate(-6.212 1334.213 -240.362) scale(90.236)"><stop offset=".03" stop-color="#006DFF"/><stop offset=".158" stop-color="#0771FF"/><stop offset=".331" stop-color="#4E9AFF"/><stop offset=".447" stop-color="#8ABBFF"/><stop offset=".608" stop-color="#B8D6FF"/><stop offset=".65" stop-color="#D9E9FF"/><stop offset=".76" stop-color="#EDF4FF"/><stop offset=".83" stop-color="#F5F9FF"/></radialGradient><radialGradient id="i" cx="0" cy="0" r="1" gradientUnits="userSpaceOnUse" gradientTransform="rotate(-98.03 126.39 49.646) scale(216.471)"><stop offset=".23" stop-color="#006DFF"/><stop offset=".43" stop-color="#4594FF"/><stop offset=".71" stop-color="#A3CAFF"/><stop offset=".91" stop-color="#DEEBFF"/><stop offset="1" stop-color="#F5F9FF"/></radialGradient><radialGradient id="j" cx="0" cy="0" r="1" gradientUnits="userSpaceOnUse" gradientTransform="rotate(-98.03 114.825 46.937) scale(213.409)"><stop stop-color="#006DFF"/><stop offset=".05" stop-color="#1B7CFF"/><stop offset=".15" stop-color="#4D99FF"/><stop offset=".25" stop-color="#7AB2FF"/><stop offset=".36" stop-color="#A0C8FF"/><stop offset=".47" stop-color="#BFDAFF"/><stop offset=".58" stop-color="#D6E7FF"/><stop offset=".7" stop-color="#E7F1FF"/><stop offset=".83" stop-color="#F1F7FF"/><stop offset="1" stop-color="#F5F9FF"/></radialGradient><radialGradient id="k" cx="0" cy="0" r="1" gradientUnits="userSpaceOnUse" gradientTransform="rotate(-98.03 108.572 15.018) scale(55.1962)"><stop offset=".31" stop-color="#006DFF"/><stop offset=".49" stop-color="#4594FF"/><stop offset=".74" stop-color="#A3CAFF"/><stop offset=".92" stop-color="#DEEBFF"/><stop offset="1" stop-color="#F5F9FF"/></radialGradient><radialGradient id="l" cx="0" cy="0" r="1" gradientUnits="userSpaceOnUse" gradientTransform="rotate(-108.54 118.257 58.05) scale(216.471)"><stop offset=".23" stop-color="#006DFF"/><stop offset=".43" stop-color="#4594FF"/><stop offset=".71" stop-color="#A3CAFF"/><stop offset=".91" stop-color="#DEEBFF"/><stop offset="1" stop-color="#F5F9FF"/></radialGradient><radialGradient id="m" cx="0" cy="0" r="1" gradientUnits="userSpaceOnUse" gradientTransform="rotate(-108.54 107.268 56.339) scale(213.409)"><stop stop-color="#006DFF"/><stop offset=".05" stop-color="#1B7CFF"/><stop offset=".15" stop-color="#4D99FF"/><stop offset=".25" stop-color="#7AB2FF"/><stop offset=".36" stop-color="#A0C8FF"/><stop offset=".47" stop-color="#BFDAFF"/><stop offset=".58" stop-color="#D6E7FF"/><stop offset=".7" stop-color="#E7F1FF"/><stop offset=".83" stop-color="#F1F7FF"/><stop offset="1" stop-color="#F5F9FF"/></radialGradient><radialGradient id="n" cx="0" cy="0" r="1" gradientUnits="userSpaceOnUse" gradientTransform="rotate(-52.845 182.586 -40.096) scale(117.97)"><stop offset=".138" stop-color="#00033B"/><stop offset=".41" stop-color="#006DFF"/><stop offset=".49" stop-color="#4594FF"/><stop offset=".74" stop-color="#A3CAFF"/><stop offset=".92" stop-color="#DEEBFF"/><stop offset="1" stop-color="#F5F9FF"/></radialGradient><linearGradient id="h" x1="244.714" y1="115.52" x2="83.906" y2="137.662" gradientUnits="userSpaceOnUse"><stop offset=".48" stop-color="#202D66"/><stop offset=".56" stop-color="#1B357A"/><stop offset=".75" stop-color="#104BAD"/><stop offset="1" stop-color="#006DFF"/></linearGradient><linearGradient id="o" x1="9.817" y1="189.413" x2="201.639" y2="62.773" gradientUnits="userSpaceOnUse"><stop offset=".42" stop-color="#202D66"/><stop offset=".52" stop-color="#1B357A"/><stop offset=".72" stop-color="#104BAD"/><stop offset="1" stop-color="#006DFF"/></linearGradient><linearGradient id="p" x1="46.476" y1="168.339" x2="130.704" y2="113.31" gradientUnits="userSpaceOnUse"><stop offset=".19" stop-color="#202D66"/><stop offset=".33" stop-color="#1B357A"/><stop offset=".61" stop-color="#104BAD"/><stop offset="1" stop-color="#006DFF"/></linearGradient><clipPath id="a"><path fill="#fff" d="M0 0h200v200H0z"/></clipPath></defs></svg>