<svg width="200" height="200" viewBox="0 0 200 200" fill="none" xmlns="http://www.w3.org/2000/svg"><path d="M177.511 93.775c-5.59-37.323-40.381-63.038-77.705-57.448-37.323 5.59-63.05 40.392-57.459 77.716 5.59 37.323 40.393 63.049 77.716 57.448 37.323-5.59 63.049-40.392 57.448-77.716Zm-129.3 19.38c-5.108-34.09 18.383-65.867 52.472-70.975 34.09-5.108 65.867 18.383 70.975 52.472 5.108 34.09-18.382 65.867-52.472 70.975-34.09 5.108-65.867-18.382-70.975-52.472Z" fill="url(#a)"/><path opacity=".1" fill-rule="evenodd" clip-rule="evenodd" d="M111.849 30.798h.009a2.604 2.604 0 0 1 2.581 2.625l-.013 1.582 8.62.072c.446.004.883.042 1.31.11 4.138.662 7.305 4.289 7.27 8.6l-.431 52.124-3.079 4.067-.062 7.409a6.928 6.928 0 0 1-4.493 6.432 4.022 4.022 0 0 1-1.879.442l-.4-.003c-.072.002-.144.002-.216.002l-6.779-.054-.005-.006-2.274-.019-.007-.01-77.435-.647a7.516 7.516 0 0 1-7.455-7.584l.53-63.027c.039-4.75 3.958-8.598 8.708-8.56l2.023.018c.083-.002.165-.003.248-.002l2.714.023h.138l6.28.053.013-1.586a2.604 2.604 0 0 1 2.625-2.581h.009a2.603 2.603 0 0 1 2.581 2.625l-.013 1.586 56.244.472.013-1.582a2.603 2.603 0 0 1 2.625-2.581Z" fill="#00033B"/><path opacity=".75" d="m107.673 109.178-77.434-.647a7.516 7.516 0 0 1-7.456-7.584l.53-63.028c.04-4.75 3.958-8.598 8.708-8.559l81.404.684c4.751.04 8.598 3.958 8.56 8.708l-.555 66.513a4.038 4.038 0 0 1-4.075 4.003l-9.674-.08-.008-.01Z" fill="url(#b)"/><path opacity=".75" d="m109.945 109.194-77.435-.647a7.516 7.516 0 0 1-7.455-7.584l.53-63.028c.039-4.75 3.957-8.598 8.708-8.559l81.404.684c4.75.04 8.598 3.958 8.559 8.708l-.529 63.626c-.029 3.823-3.157 6.902-6.988 6.873l-6.779-.054-.015-.019Z" fill="url(#c)"/><path d="m112.988 109.22-77.435-.647a7.516 7.516 0 0 1-7.455-7.584l.53-63.027c.039-4.75 3.958-8.599 8.708-8.56l81.404.685c4.75.038 8.598 3.957 8.559 8.707l-.431 52.124-13.864 18.313-.016-.011Z" fill="url(#d)"/><path opacity=".75" d="m46.234 50.452-6.5-.054a2.707 2.707 0 0 0-2.73 2.683l-.054 6.5a2.707 2.707 0 0 0 2.684 2.73l6.5.054a2.707 2.707 0 0 0 2.73-2.684l.054-6.5a2.707 2.707 0 0 0-2.684-2.729ZM69.28 50.646l-6.499-.055a2.707 2.707 0 0 0-2.73 2.684l-.054 6.5a2.707 2.707 0 0 0 2.684 2.73l6.5.054a2.707 2.707 0 0 0 2.73-2.684l.054-6.5a2.707 2.707 0 0 0-2.684-2.73ZM92.32 50.832l-6.5-.055a2.707 2.707 0 0 0-2.73 2.684l-.054 6.5a2.707 2.707 0 0 0 2.684 2.73l6.5.054a2.707 2.707 0 0 0 2.73-2.684l.054-6.5a2.707 2.707 0 0 0-2.684-2.73Z" fill="#fff"/><path d="m115.358 51.026-6.5-.055a2.706 2.706 0 0 0-2.729 2.685l-.055 6.5a2.707 2.707 0 0 0 2.684 2.729l6.5.054a2.706 2.706 0 0 0 2.729-2.684l.055-6.5a2.707 2.707 0 0 0-2.684-2.729Z" fill="url(#e)"/><path opacity=".75" d="m46.061 70.3-6.5-.054a2.707 2.707 0 0 0-2.73 2.684l-.054 6.5a2.707 2.707 0 0 0 2.684 2.73l6.5.054a2.707 2.707 0 0 0 2.73-2.684l.054-6.5a2.707 2.707 0 0 0-2.684-2.73ZM69.108 70.495l-6.5-.055a2.707 2.707 0 0 0-2.73 2.684l-.054 6.5a2.707 2.707 0 0 0 2.684 2.73l6.5.054a2.707 2.707 0 0 0 2.73-2.684l.054-6.5a2.707 2.707 0 0 0-2.684-2.729Z" fill="#fff"/><path d="m92.156 70.682-6.5-.055a2.707 2.707 0 0 0-2.73 2.684l-.054 6.5a2.707 2.707 0 0 0 2.684 2.73l6.5.054a2.707 2.707 0 0 0 2.73-2.684l.054-6.5a2.707 2.707 0 0 0-2.684-2.729Z" fill="url(#f)"/><path d="m115.194 70.876-6.5-.054a2.706 2.706 0 0 0-2.729 2.684l-.055 6.5a2.706 2.706 0 0 0 2.684 2.73l6.5.054a2.706 2.706 0 0 0 2.729-2.684l.055-6.5a2.707 2.707 0 0 0-2.684-2.73Z" fill="url(#g)"/><path opacity=".75" d="m45.897 90.15-6.5-.054a2.707 2.707 0 0 0-2.73 2.684l-.054 6.5a2.707 2.707 0 0 0 2.684 2.73l6.5.054a2.707 2.707 0 0 0 2.73-2.684l.054-6.5a2.707 2.707 0 0 0-2.684-2.73Z" fill="#fff"/><path d="m68.944 90.345-6.5-.054a2.707 2.707 0 0 0-2.73 2.684l-.054 6.5a2.706 2.706 0 0 0 2.684 2.729l6.5.055a2.707 2.707 0 0 0 2.73-2.684l.054-6.5a2.707 2.707 0 0 0-2.684-2.73Z" fill="url(#h)"/><path opacity=".75" d="m91.982 90.54-6.5-.055a2.707 2.707 0 0 0-2.73 2.684l-.054 6.5a2.706 2.706 0 0 0 2.684 2.729l6.5.055a2.707 2.707 0 0 0 2.73-2.684l.054-6.5a2.707 2.707 0 0 0-2.684-2.73ZM115.031 90.726l-6.5-.055a2.707 2.707 0 0 0-2.73 2.684l-.054 6.5a2.707 2.707 0 0 0 2.684 2.73l6.5.054a2.706 2.706 0 0 0 2.729-2.684l.055-6.5a2.707 2.707 0 0 0-2.684-2.73Z" fill="#fff"/><path d="m112.987 109.22 13.864-18.313-6.198-.048c-4.152-.031-7.544 3.304-7.574 7.448l-.092 10.913Z" fill="url(#i)"/><path d="m37.145 29.399 81.574.685c4.767.04 8.605 3.944 8.565 8.71l-.049 5.854-98.668-.83.05-6.034c.04-4.663 3.864-8.424 8.528-8.385Z" fill="url(#j)"/><path opacity=".75" d="M45.5 39.444a4.327 4.327 0 1 0 .982-8.599 4.327 4.327 0 0 0-.982 8.6Z" fill="url(#k)"/><path opacity=".75" d="M106.959 39.952a4.328 4.328 0 1 0 .98-8.6 4.328 4.328 0 0 0-.98 8.6Z" fill="url(#l)"/><path d="M46.072 25.285h-.009a2.603 2.603 0 0 0-2.625 2.581l-.063 7.543a2.603 2.603 0 0 0 2.581 2.625h.009a2.603 2.603 0 0 0 2.625-2.581l.063-7.543a2.603 2.603 0 0 0-2.581-2.625Z" fill="url(#m)"/><path d="M107.531 25.804h-.009a2.604 2.604 0 0 0-2.625 2.582l-.063 7.542a2.603 2.603 0 0 0 2.581 2.626h.009a2.603 2.603 0 0 0 2.625-2.582l.063-7.543a2.603 2.603 0 0 0-2.581-2.625Z" fill="url(#n)"/><path opacity=".1" fill-rule="evenodd" clip-rule="evenodd" d="M112.665 147.574c0-20.007 16.217-36.229 36.224-36.229 20.006 0 36.224 16.22 36.224 36.229 0 20.01-16.218 36.232-36.224 36.232-20.007 0-36.224-16.224-36.224-36.232Z" fill="#00033B"/><path d="M144.19 108.971c-20.007 0-36.224 16.222-36.224 36.229 0 20.008 16.217 36.232 36.224 36.232 20.006 0 36.223-16.222 36.223-36.232 0-20.009-16.217-36.229-36.223-36.229Z" fill="url(#o)"/><path d="M144.189 112.258c-18.192 0-32.939 14.749-32.939 32.944s14.747 32.947 32.939 32.947c18.193 0 32.94-14.75 32.94-32.947 0-18.197-14.747-32.944-32.94-32.944Z" fill="#fff"/><path d="M144.192 113.588h-.002c-.677 0-1.225.548-1.225 1.225v6.401c0 .676.548 1.225 1.225 1.225h.002c.677 0 1.225-.549 1.225-1.225v-6.401c0-.677-.548-1.225-1.225-1.225ZM144.192 167.463h-.002c-.677 0-1.225.549-1.225 1.225v6.399c0 .677.548 1.225 1.225 1.225h.002c.677 0 1.225-.548 1.225-1.225v-6.399c0-.676-.548-1.225-1.225-1.225ZM155.441 125.455c.585.34 1.335.14 1.673-.448l3.202-5.543a1.224 1.224 0 0 0-.45-1.673h-.004a1.222 1.222 0 0 0-1.673.448l-3.2 5.543a1.226 1.226 0 0 0 .448 1.673h.004ZM128.507 172.109h.002c.585.341 1.335.14 1.675-.445l3.2-5.544a1.225 1.225 0 0 0-2.12-1.225l-3.202 5.543a1.226 1.226 0 0 0 .447 1.674l-.002-.003ZM163.679 133.692a1.226 1.226 0 0 0 1.675.454l5.543-3.199a1.227 1.227 0 0 0 .449-1.673v-.004a1.226 1.226 0 0 0-1.674-.45l-5.543 3.201a1.225 1.225 0 0 0-.45 1.671ZM117.031 160.63a1.224 1.224 0 0 0 1.673.45l5.543-3.198a1.225 1.225 0 0 0-1.226-2.123l-5.542 3.2a1.225 1.225 0 0 0-.448 1.673v-.002ZM167.919 146.175h6.4a1.225 1.225 0 0 0 0-2.451h-6.4a1.226 1.226 0 0 0 0 2.451ZM120.453 143.724h-6.398a1.226 1.226 0 0 0 0 2.451h6.398a1.226 1.226 0 0 0 0-2.451ZM164.126 157.88l5.543 3.201a1.226 1.226 0 0 0 1.673-.448v-.005a1.222 1.222 0 0 0-.446-1.675l-5.542-3.2a1.225 1.225 0 1 0-1.225 2.123l-.003.004ZM117.477 130.941l5.543 3.201a1.224 1.224 0 0 0 1.672-.448 1.228 1.228 0 0 0-.447-1.676l-5.543-3.198a1.226 1.226 0 0 0-1.225 2.123v-.002ZM154.989 166.117l3.2 5.543a1.225 1.225 0 0 0 1.671.45h.002c.587-.34.788-1.09.45-1.675l-3.2-5.543a1.226 1.226 0 0 0-1.671-.45h-.002a1.227 1.227 0 0 0-.45 1.675ZM128.057 119.46l3.2 5.543a1.225 1.225 0 1 0 2.12-1.225l-3.197-5.543a1.228 1.228 0 0 0-1.673-.45h-.002a1.226 1.226 0 0 0-.45 1.675h.002Z" fill="#CDE2FF"/><path d="M158.347 136.121a1.02 1.02 0 0 0-1.411-.264l-11.558 7.814-.336-22.53a.781.781 0 0 0-1.563-.004l-.477 23.201a2.013 2.013 0 0 0 1.259 3.583c1.111 0 1.968-.86 2.009-1.935l11.832-8.452c.456-.325.564-.955.245-1.415v.002Z" fill="url(#p)"/><path d="M150.828 177.477Z" fill="#F1EFF4"/><defs><linearGradient id="b" x1="-151.73" y1="67.413" x2="403.532" y2="72.079" gradientUnits="userSpaceOnUse"><stop offset=".3" stop-color="#202D66"/><stop offset=".33" stop-color="#006DFF"/><stop offset=".36" stop-color="#338AFF"/><stop offset=".38" stop-color="#6DABFF"/><stop offset=".41" stop-color="#9EC7FF"/><stop offset=".44" stop-color="#C3DCFF"/><stop offset=".46" stop-color="#DEECFF"/><stop offset=".48" stop-color="#EFF5FF"/><stop offset=".5" stop-color="#F5F9FF"/></linearGradient><linearGradient id="c" x1="-153.438" y1="67.398" x2="401.837" y2="72.064" gradientUnits="userSpaceOnUse"><stop offset=".24" stop-color="#324075" stop-opacity=".9"/><stop offset=".48" stop-color="#006DFF"/><stop offset=".49" stop-color="#5CA1FF"/><stop offset=".5" stop-color="#85B9FF"/><stop offset=".51" stop-color="#C4DDFF"/><stop offset=".52" stop-color="#D9E9FF"/><stop offset=".53" stop-color="#E9F2FF"/><stop offset=".54" stop-color="#F2F7FF"/><stop offset=".56" stop-color="#F5F9FF"/></linearGradient><linearGradient id="d" x1="158.828" y1="62.472" x2="-118.747" y2="98.893" gradientUnits="userSpaceOnUse"><stop stop-color="#F5F9FF"/><stop offset=".235" stop-color="#E8F1FF"/><stop offset=".574" stop-color="#C5DEFF"/></linearGradient><linearGradient id="e" x1="73.645" y1="121.367" x2="142.592" y2="5.762" gradientUnits="userSpaceOnUse"><stop offset=".5" stop-color="#202D66"/><stop offset=".54" stop-color="#173D8D"/><stop offset=".59" stop-color="#0F4EB6"/><stop offset=".63" stop-color="#085BD5"/><stop offset=".68" stop-color="#0365EC"/><stop offset=".72" stop-color="#006BFA"/><stop offset=".75" stop-color="#006DFF"/><stop offset=".76" stop-color="#95C2FF"/><stop offset=".77" stop-color="#fff"/></linearGradient><linearGradient id="g" x1="82.26" y1="126.507" x2="151.208" y2="10.901" gradientUnits="userSpaceOnUse"><stop offset=".39" stop-color="#202D66"/><stop offset=".41" stop-color="#173D8D"/><stop offset=".44" stop-color="#0F4EB6"/><stop offset=".47" stop-color="#085BD5"/><stop offset=".49" stop-color="#0365EC"/><stop offset=".52" stop-color="#006BFA"/><stop offset=".54" stop-color="#006DFF"/><stop offset=".56" stop-color="#0670FF"/><stop offset=".59" stop-color="#187BFF"/><stop offset=".62" stop-color="#368CFF"/><stop offset=".66" stop-color="#60A4FF"/><stop offset=".7" stop-color="#95C2FF"/><stop offset=".74" stop-color="#D6E7FF"/><stop offset=".77" stop-color="#fff"/></linearGradient><linearGradient id="i" x1="118.469" y1="111.21" x2="125.361" y2="33.895" gradientUnits="userSpaceOnUse"><stop stop-color="#F5F9FF"/><stop offset=".06" stop-color="#E8F1FF"/><stop offset=".17" stop-color="#C5DEFF"/><stop offset=".32" stop-color="#8EBEFF"/><stop offset=".49" stop-color="#4293FF"/><stop offset=".64" stop-color="#006DFF"/></linearGradient><linearGradient id="m" x1="45.362" y1="38.96" x2="49.864" y2="-11.572" gradientUnits="userSpaceOnUse"><stop offset=".18" stop-color="#F5F9FF"/><stop offset=".22" stop-color="#E8F1FF"/><stop offset=".31" stop-color="#C5DEFF"/><stop offset=".42" stop-color="#8EBEFF"/><stop offset=".55" stop-color="#4293FF"/><stop offset=".67" stop-color="#006DFF"/></linearGradient><linearGradient id="n" x1="106.83" y1="39.48" x2="111.332" y2="-11.053" gradientUnits="userSpaceOnUse"><stop offset=".09" stop-color="#F5F9FF"/><stop offset=".14" stop-color="#E8F1FF"/><stop offset=".24" stop-color="#C5DEFF"/><stop offset=".37" stop-color="#8EBEFF"/><stop offset=".53" stop-color="#4293FF"/><stop offset=".67" stop-color="#006DFF"/></linearGradient><linearGradient id="o" x1="64.269" y1="190.697" x2="205.393" y2="105.25" gradientUnits="userSpaceOnUse"><stop offset=".218" stop-color="#271A6B"/><stop offset=".597" stop-color="#026DFE"/><stop offset="1" stop-color="#fff"/></linearGradient><radialGradient id="a" cx="0" cy="0" r="1" gradientUnits="userSpaceOnUse" gradientTransform="rotate(117.94 23.645 84.956) scale(224.317)"><stop offset=".202" stop-color="#fff"/><stop offset=".629" stop-color="#006DFF"/><stop offset=".971" stop-color="#202D66"/></radialGradient><radialGradient id="f" cx="0" cy="0" r="1" gradientUnits="userSpaceOnUse" gradientTransform="rotate(.481 -9056.573 6738.892) scale(259.257)"><stop offset=".29" stop-color="#202D66"/><stop offset=".33" stop-color="#173D8D"/><stop offset=".37" stop-color="#0F4EB6"/><stop offset=".42" stop-color="#085BD5"/><stop offset=".46" stop-color="#0365EC"/><stop offset=".5" stop-color="#006BFA"/><stop offset=".54" stop-color="#006DFF"/><stop offset=".56" stop-color="#0670FF"/><stop offset=".59" stop-color="#187BFF"/><stop offset=".62" stop-color="#368CFF"/><stop offset=".66" stop-color="#60A4FF"/><stop offset=".7" stop-color="#95C2FF"/><stop offset=".74" stop-color="#D6E7FF"/><stop offset=".77" stop-color="#fff"/></radialGradient><radialGradient id="h" cx="0" cy="0" r="1" gradientUnits="userSpaceOnUse" gradientTransform="rotate(.481 -11420.23 6838.388) scale(104.534)"><stop offset=".29" stop-color="#202D66"/><stop offset=".33" stop-color="#173D8D"/><stop offset=".37" stop-color="#0F4EB6"/><stop offset=".42" stop-color="#085BD5"/><stop offset=".46" stop-color="#0365EC"/><stop offset=".5" stop-color="#006BFA"/><stop offset=".54" stop-color="#006DFF"/><stop offset=".56" stop-color="#0670FF"/><stop offset=".59" stop-color="#187BFF"/><stop offset=".62" stop-color="#368CFF"/><stop offset=".66" stop-color="#60A4FF"/><stop offset=".7" stop-color="#95C2FF"/><stop offset=".74" stop-color="#D6E7FF"/><stop offset=".77" stop-color="#fff"/></radialGradient><radialGradient id="j" cx="0" cy="0" r="1" gradientUnits="userSpaceOnUse" gradientTransform="rotate(1.244 -1272.548 -194.396) scale(217.141)"><stop offset=".21" stop-color="#202D66"/><stop offset=".4" stop-color="#154299"/><stop offset=".59" stop-color="#0C54C5"/><stop offset=".76" stop-color="#0562E4"/><stop offset=".9" stop-color="#016AF8"/><stop offset="1" stop-color="#006DFF"/></radialGradient><radialGradient id="k" cx="0" cy="0" r="1" gradientUnits="userSpaceOnUse" gradientTransform="rotate(.481 -4161.082 5490.235) scale(11.7241)"><stop stop-color="#006DFF"/><stop offset=".21" stop-color="#104BAD"/><stop offset=".37" stop-color="#1B357A"/><stop offset=".44" stop-color="#202D66"/></radialGradient><radialGradient id="l" cx="0" cy="0" r="1" gradientUnits="userSpaceOnUse" gradientTransform="rotate(.481 -4191.77 12804.887) scale(11.7241)"><stop stop-color="#006DFF"/><stop offset=".21" stop-color="#104BAD"/><stop offset=".37" stop-color="#1B357A"/><stop offset=".44" stop-color="#202D66"/></radialGradient><radialGradient id="p" cx="0" cy="0" r="1" gradientUnits="userSpaceOnUse" gradientTransform="rotate(-17.386 601.716 -392.86) scale(78.0016 78.0135)"><stop offset=".21" stop-color="#202D66"/><stop offset=".479" stop-color="#006DFF"/><stop offset=".974" stop-color="#fff"/></radialGradient></defs></svg>