<svg width="200" height="200" viewBox="0 0 200 200" fill="none" xmlns="http://www.w3.org/2000/svg"><path opacity=".5" d="M157.336 117.917c15.974 0 28.923-12.966 28.923-28.959S173.31 60 157.336 60c-15.974 0-28.923 12.965-28.923 28.958 0 15.993 12.949 28.959 28.923 28.959Z" fill="url(#a)"/><path d="M136.249 123.239c-5.207-34.764-37.612-58.716-72.376-53.51-34.764 5.207-58.727 37.623-53.52 72.387 5.207 34.764 37.623 58.727 72.387 53.509 34.764-5.206 58.726-37.622 53.509-72.386Zm-120.433 18.05c-4.758-31.752 17.121-61.35 48.873-66.107 31.753-4.758 61.351 17.121 66.108 48.873 4.758 31.753-17.121 61.351-48.874 66.108-31.752 4.758-61.35-17.121-66.108-48.874Z" fill="url(#b)"/><path d="M173.403 36.146H61.448c-2.407 0-4.358 2.275-4.358 5.082v2.575c0 2.807 1.95 5.082 4.358 5.082h111.955c2.406 0 4.358-2.275 4.358-5.082v-2.575c0-2.807-1.952-5.082-4.358-5.082Z" fill="url(#c)"/><path d="M174.535 40.046H61.161v4.936h113.374v-4.936Z" fill="url(#d)"/><path opacity=".1" fill-rule="evenodd" clip-rule="evenodd" d="M66.793 49.322c.43-5.626 5.361-10.192 10.995-10.192h88.589c-5.634 0-10.565 4.552-10.995 10.192l-9.074 118.806c-.43 5.625-5.361 10.191-10.995 10.191H46.724h.06-.06c-5.634 0-9.863-4.552-9.433-10.191.43-5.626 5.361-10.192 10.995-10.192h10.211l8.296-108.614Z" fill="#00033B"/><path d="M83.839 44.983c.43-5.64-3.8-10.192-9.433-10.192h88.59c5.633 0 9.862 4.566 9.432 10.192h-88.59Z" fill="url(#e)"/><path d="M74.406 34.775c-5.633 0-10.564 4.567-10.994 10.192l-9.074 118.806c-.43 5.639-5.362 10.191-10.995 10.191h88.589c5.634 0 10.565-4.566 10.995-10.191l9.074-118.806c.43-5.64 5.361-10.192 10.995-10.192h-88.59Z" fill="url(#f)"/><path d="M70.635 161.423c.33-4.337-1.032-7.859-5.375-7.859h68.219c4.344 0 7.598 3.965 5.376 7.859h-68.22Z" fill="url(#g)"/><path d="M122.499 163.773c.43-5.64 5.362-10.192 10.995-10.192h-88.59c-5.633 0-10.564 4.566-10.994 10.192-.43 5.639 3.799 10.191 9.432 10.191h88.59c-5.634 0-9.863-4.566-9.433-10.191Z" fill="url(#h)"/><path d="M140.275 70.032H66.78l.33-3.264h73.609l-.444 3.264Z" fill="url(#i)"/><path d="M140.275 79.19H66.78l.33-3.263h73.609l-.444 3.264Z" fill="url(#j)"/><path d="M140.275 88.338H66.78l.33-3.263h73.609l-.444 3.263Z" fill="url(#k)"/><path d="M138.97 115.792H65.475l.33-3.263h73.609l-.444 3.263Z" fill="url(#l)"/><path d="M137.665 124.94H64.171l.33-3.264h73.623l-.459 3.264Z" fill="url(#m)"/><path d="M136.375 134.087H62.88l.33-3.263h73.609l-.444 3.263Z" fill="url(#n)"/><path d="M135.285 143.246h-73.71l.33-3.263h73.609l-.229 3.263Z" fill="url(#o)"/><defs><linearGradient id="c" x1="117.425" y1="85.314" x2="117.425" y2="17.137" gradientUnits="userSpaceOnUse"><stop offset=".11" stop-color="#F5F9FF"/><stop offset=".21" stop-color="#DBEAFF"/><stop offset=".43" stop-color="#99C4FF"/><stop offset=".74" stop-color="#3088FF"/><stop offset=".87" stop-color="#006DFF"/></linearGradient><linearGradient id="d" x1="117.841" y1="59.115" x2="117.841" y2="32.689" gradientUnits="userSpaceOnUse"><stop offset=".48" stop-color="#202D66"/><stop offset=".56" stop-color="#1B357A"/><stop offset=".75" stop-color="#104BAD"/><stop offset="1" stop-color="#006DFF"/></linearGradient><linearGradient id="e" x1="123.431" y1="74.14" x2="123.431" y2="19.576" gradientUnits="userSpaceOnUse"><stop offset=".31" stop-color="#F5F9FF"/><stop offset=".39" stop-color="#DBEAFF"/><stop offset=".54" stop-color="#99C4FF"/><stop offset=".77" stop-color="#3088FF"/><stop offset=".87" stop-color="#006DFF"/></linearGradient><linearGradient id="f" x1="117.497" y1="-58.58" x2="82.249" y2="343.322" gradientUnits="userSpaceOnUse"><stop offset=".18" stop-color="#F5F9FF"/><stop offset=".28" stop-color="#F1F6FF"/><stop offset=".38" stop-color="#E4EFFF"/><stop offset=".48" stop-color="#D0E4FF"/><stop offset=".59" stop-color="#B4D4FF"/><stop offset=".69" stop-color="#90BFFF"/><stop offset=".79" stop-color="#63A6FF"/><stop offset=".89" stop-color="#3088FF"/><stop offset=".97" stop-color="#006DFF"/></linearGradient><linearGradient id="g" x1="102.43" y1="183.781" x2="102.43" y2="145.935" gradientUnits="userSpaceOnUse"><stop offset=".31" stop-color="#F5F9FF"/><stop offset=".4" stop-color="#DBEAFF"/><stop offset=".58" stop-color="#99C4FF"/><stop offset=".85" stop-color="#3088FF"/><stop offset=".97" stop-color="#006DFF"/></linearGradient><linearGradient id="h" x1="85.272" y1="105.959" x2="82.327" y2="204.095" gradientUnits="userSpaceOnUse"><stop offset=".45" stop-color="#F5F9FF"/><stop offset=".52" stop-color="#DBEAFF"/><stop offset=".66" stop-color="#99C4FF"/><stop offset=".87" stop-color="#3088FF"/><stop offset=".97" stop-color="#006DFF"/></linearGradient><linearGradient id="i" x1="41.254" y1="143.246" x2="148.078" y2="133.778" gradientUnits="userSpaceOnUse"><stop stop-color="#00033B"/><stop offset="1" stop-color="#006DFF"/></linearGradient><linearGradient id="j" x1="41.254" y1="143.246" x2="148.078" y2="133.778" gradientUnits="userSpaceOnUse"><stop stop-color="#00033B"/><stop offset="1" stop-color="#006DFF"/></linearGradient><linearGradient id="k" x1="41.254" y1="143.246" x2="148.078" y2="133.778" gradientUnits="userSpaceOnUse"><stop stop-color="#00033B"/><stop offset="1" stop-color="#006DFF"/></linearGradient><linearGradient id="l" x1="41.254" y1="143.246" x2="148.078" y2="133.778" gradientUnits="userSpaceOnUse"><stop stop-color="#00033B"/><stop offset="1" stop-color="#006DFF"/></linearGradient><linearGradient id="m" x1="41.254" y1="143.246" x2="148.078" y2="133.778" gradientUnits="userSpaceOnUse"><stop stop-color="#00033B"/><stop offset="1" stop-color="#006DFF"/></linearGradient><linearGradient id="n" x1="41.254" y1="143.246" x2="148.078" y2="133.778" gradientUnits="userSpaceOnUse"><stop stop-color="#00033B"/><stop offset="1" stop-color="#006DFF"/></linearGradient><linearGradient id="o" x1="41.254" y1="143.246" x2="148.078" y2="133.778" gradientUnits="userSpaceOnUse"><stop stop-color="#00033B"/><stop offset="1" stop-color="#006DFF"/></linearGradient><radialGradient id="a" cx="0" cy="0" r="1" gradientUnits="userSpaceOnUse" gradientTransform="matrix(-66.52718 -27.75392 27.77783 -66.5845 157.33 88.958)"><stop offset=".26" stop-color="#fff"/><stop offset=".32" stop-color="#F6FAFF"/><stop offset=".4" stop-color="#E0EDFF"/><stop offset=".51" stop-color="#BCD8FF"/><stop offset=".63" stop-color="#89BBFF"/><stop offset=".77" stop-color="#4896FF"/><stop offset=".9" stop-color="#006DFF"/><stop offset=".92" stop-color="#006BFA"/><stop offset=".93" stop-color="#0365EC"/><stop offset=".94" stop-color="#085BD5"/><stop offset=".96" stop-color="#0F4EB6"/><stop offset=".97" stop-color="#173D8D"/><stop offset=".98" stop-color="#202D66"/></radialGradient><radialGradient id="b" cx="0" cy="0" r="1" gradientUnits="userSpaceOnUse" gradientTransform="rotate(117.94 -3.317 88.328) scale(208.936)"><stop offset=".202" stop-color="#fff"/><stop offset=".629" stop-color="#006DFF"/><stop offset=".971" stop-color="#202D66"/></radialGradient></defs></svg>