<svg width="200" height="200" viewBox="0 0 200 200" fill="none" xmlns="http://www.w3.org/2000/svg"><g opacity=".2"><path opacity=".75" d="m132.122 22.85-27.743.18 19.951 74.674 27.755-.19-19.963-74.664Z" fill="url(#a)"/></g><path d="m52.843 113.962-28.047.191L4.633 38.715l28.046-.18 20.165 75.427ZM57.03 24.568 32.645 38.401l20.165 75.427 24.386-13.822-20.164-75.438Z" fill="#fff"/><path d="m105.264 99.95-28.035.18-20.164-75.427 28.035-.19 20.164 75.437ZM157.698 85.927l-28.035.19-20.165-75.426 28.035-.191 20.165 75.427Z" fill="#fff"/><path d="M109.464 10.556 85.066 24.39l20.165 75.426 24.398-13.832-20.165-75.427Z" fill="#fff"/><path opacity=".75" d="m52.843 113.962-28.047.191L4.633 38.715l28.046-.18 20.165 75.427Z" fill="#fff"/><path opacity=".5" d="m105.264 99.95-28.035.18-20.164-75.427 28.035-.19 20.164 75.437Z" fill="#fff"/><path opacity=".25" d="m157.698 85.927-28.035.19-20.165-75.426 28.035-.191 20.165 75.427Z" fill="#fff"/><path d="m52.843 113.962-28.047.191L4.633 38.715l28.046-.18 20.165 75.427Z" fill="url(#b)"/><path d="M57.03 24.568 32.645 38.401l20.165 75.427 24.386-13.822-20.164-75.438Z" fill="url(#c)"/><path d="m105.264 99.95-28.035.18-20.164-75.427 28.035-.19 20.164 75.437Z" fill="url(#d)"/><path d="m157.698 85.927-28.035.19-20.165-75.426 28.035-.191 20.165 75.427Z" fill="url(#e)"/><path d="M109.464 10.556 85.066 24.39l20.165 75.426 24.398-13.832-20.165-75.427Z" fill="url(#f)"/><path opacity=".75" d="m52.843 113.962-28.047.191L4.633 38.715l28.046-.18 20.165 75.427Z" fill="url(#g)"/><path opacity=".5" d="m105.264 99.95-28.035.18-20.164-75.427 28.035-.19 20.164 75.437Z" fill="url(#h)"/><path opacity=".25" d="m157.698 85.927-28.035.19-20.165-75.426 28.035-.191 20.165 75.427Z" fill="url(#i)"/><path fill-rule="evenodd" clip-rule="evenodd" d="m75.61 73.114-4.165 3.014a3.33 3.33 0 0 0-1.274 3.566c1.383 5.117.049 10.705-3.663 14.65l-10.544-10.13a3.342 3.342 0 0 0-4.732.1l-3.558 3.71a3.33 3.33 0 0 0-.616 3.736 15.492 15.492 0 0 1 1.482 5.972 15.48 15.48 0 0 1-1.878-1.057 3.337 3.337 0 0 0-3.79.088l-3.882 2.81a3.34 3.34 0 0 0-.755 4.666l4.525 6.263c-4.514 3.637-10.622 4.372-15.795 2.169a3.337 3.337 0 0 0-3.714.765l-3.317 3.458a3.34 3.34 0 0 0 .093 4.726l59.36 57.031c.082.08.168.154.257.224l16.994 16.328a3.341 3.341 0 0 0 4.732-.099l3.559-3.71c.123-.128.235-.265.334-.408l4.029-2.915a3.328 3.328 0 0 0 1.273-3.566c-1.631-6.037.518-12.728 5.892-16.606a15.423 15.423 0 0 1 4.697-2.31c1.53.158 3.043.544 4.483 1.157a3.337 3.337 0 0 0 3.714-.764l.412-.43c1.516.43 2.972 1.09 4.311 1.972a3.338 3.338 0 0 0 3.791-.088l3.882-2.81a3.34 3.34 0 0 0 .754-4.666L94.297 93.233a3.42 3.42 0 0 0-.213-.266L80.283 73.863a3.342 3.342 0 0 0-4.674-.749Z" fill="#00033B" fill-opacity=".1"/><path d="M70.351 84.21c-4.83 0-9.178-3.66-10.375-9.083l-.634-2.874c-.694-3.133-.232-6.366 1.278-9.106 1.52-2.75 3.905-4.66 6.722-5.378l12.62-3.312 1.016 4.817-12.63 3.312c-1.66.426-3.059 1.538-3.944 3.155a7.596 7.596 0 0 0-.745 5.333l.634 2.874c.795 3.627 3.995 5.906 7.286 5.187l96.889-21.456c2.858-.628 5.756.056 8.151 1.898 2.396 1.841 3.975 4.637 4.459 7.837.966 6.433-2.768 12.451-8.504 13.697l-8.191 2.089-.987-4.828 8.262-2.1c3.432-.752 5.616-4.266 5.042-8.028-.282-1.874-1.208-3.502-2.616-4.592-1.399-1.089-3.1-1.47-4.77-1.111l-96.89 21.456a9.373 9.373 0 0 1-2.073.224v-.01Z" fill="url(#j)"/><path fill-rule="evenodd" clip-rule="evenodd" d="m44.327 84.87 3.559-3.71a3.342 3.342 0 0 1 4.732-.099l16.995 16.328c.088.07.174.144.257.223l59.36 57.031a3.342 3.342 0 0 1 .092 4.727l-3.317 3.458a3.335 3.335 0 0 1-3.714.764c-5.76-2.452-12.678-1.263-17.266 3.52-4.593 4.777-5.511 11.744-2.827 17.392a3.328 3.328 0 0 1-.615 3.736l-3.559 3.71a3.342 3.342 0 0 1-4.732.099l-16.995-16.328a3.693 3.693 0 0 1-.257-.223l-59.36-57.032a3.34 3.34 0 0 1-.092-4.726l3.317-3.458a3.337 3.337 0 0 1 3.714-.765c5.76 2.453 12.678 1.264 17.266-3.519 4.593-4.777 5.511-11.745 2.827-17.392a3.33 3.33 0 0 1 .615-3.737Z" fill="url(#k)"/><path fill-rule="evenodd" clip-rule="evenodd" d="m67.099 73.974 4.164-3.014a3.342 3.342 0 0 1 4.674.75l13.8 19.103c.075.084.146.173.214.266l48.204 66.727a3.341 3.341 0 0 1-.754 4.667l-3.882 2.809a3.338 3.338 0 0 1-3.791.088c-5.229-3.443-12.248-3.51-17.617.375-5.374 3.878-7.523 10.57-5.892 16.606a3.328 3.328 0 0 1-1.273 3.566l-4.165 3.014a3.342 3.342 0 0 1-4.674-.749l-13.8-19.104a3.4 3.4 0 0 1-.214-.266L33.89 102.085a3.34 3.34 0 0 1 .754-4.666l3.883-2.81a3.337 3.337 0 0 1 3.79-.088c5.229 3.444 12.248 3.51 17.617-.375 5.374-3.878 7.523-10.57 5.892-16.606a3.33 3.33 0 0 1 1.273-3.566Z" fill="url(#l)"/><path fill="#CDE2FF" d="m61.52 111.15 4.228-2.933L99 156.13l-4.228 2.934zM71.969 102.444l4.228-2.934 33.253 47.915-4.228 2.934z"/><path d="M95.846 31.181c-.281 7.455-10.745 20.277-15.191 25.397-1.033 1.201-2.886 1.179-3.908-.023C72.2 51.166 61.242 37.39 61.523 29.88c.36-9.476 8.342-16.875 17.818-16.505 9.476.36 16.875 8.342 16.505 17.818v-.01Z" fill="url(#m)"/><path opacity=".5" d="M95.846 31.181c-.281 7.455-10.745 20.277-15.191 25.397-1.033 1.201-2.886 1.179-3.908-.023C72.2 51.166 61.242 37.39 61.523 29.88c.36-9.476 8.342-16.875 17.818-16.505 9.476.36 16.875 8.342 16.505 17.818v-.01Z" fill="url(#n)"/><path d="M78.69 40.096a9.353 9.353 0 1 0 0-18.705 9.353 9.353 0 0 0 0 18.705Z" fill="#fff"/><path d="m153.461 52.759-55.24 8.285a9.263 9.263 0 0 0-7.786 10.534l15.861 105.749a9.262 9.262 0 0 0 10.534 7.786l55.24-8.285a9.262 9.262 0 0 0 7.786-10.534L163.995 60.545a9.263 9.263 0 0 0-10.534-7.786Z" fill="#00033B" opacity=".2"/><path d="M149.369 49.034 94.13 57.32a9.263 9.263 0 0 0-7.786 10.535l15.86 105.748a9.263 9.263 0 0 0 10.535 7.786l55.239-8.285c5.059-.758 8.545-5.475 7.786-10.534L159.903 56.821c-.758-5.06-5.475-8.545-10.534-7.787Z" fill="url(#o)"/><path d="m148.36 55.476-51.375 7.706a6.243 6.243 0 0 0-5.248 7.099L106.65 169.7a6.242 6.242 0 0 0 7.099 5.248l51.376-7.706a6.241 6.241 0 0 0 5.247-7.099l-14.911-99.42a6.243 6.243 0 0 0-7.1-5.247Z" fill="#fff"/><path d="M130.744 131.682c10.182 0 18.436-8.254 18.436-18.436s-8.254-18.435-18.436-18.435c-10.181 0-18.435 8.253-18.435 18.435 0 10.182 8.254 18.436 18.435 18.436Z" fill="url(#p)"/><path d="m140.502 104.827-4.323-2.313-7.04 13.181-4.794-2.56-2.313 4.334 9.117 4.861 9.353-17.503Z" fill="#fff"/><defs><linearGradient id="a" x1="626.079" y1="-152.906" x2="-531.64" y2="342.836" gradientUnits="userSpaceOnUse"><stop offset=".19" stop-color="#202D66"/><stop offset=".31" stop-color="#1B357A"/><stop offset=".55" stop-color="#104BAD"/><stop offset=".88" stop-color="#006DFF"/></linearGradient><linearGradient id="b" x1="265.051" y1="-93.996" x2="-613.279" y2="539.04" gradientUnits="userSpaceOnUse"><stop offset=".04" stop-color="#F5F9FF"/><stop offset=".1" stop-color="#E8F1FF"/><stop offset=".21" stop-color="#C5DEFF"/><stop offset=".35" stop-color="#8EBEFF"/><stop offset=".52" stop-color="#4293FF"/><stop offset=".67" stop-color="#006DFF"/></linearGradient><linearGradient id="c" x1="270.612" y1="-86.279" x2="-607.717" y2="546.758" gradientUnits="userSpaceOnUse"><stop offset=".04" stop-color="#F5F9FF"/><stop offset=".1" stop-color="#E8F1FF"/><stop offset=".21" stop-color="#C5DEFF"/><stop offset=".35" stop-color="#8EBEFF"/><stop offset=".52" stop-color="#4293FF"/><stop offset=".67" stop-color="#006DFF"/></linearGradient><linearGradient id="d" x1="276.335" y1="-78.349" x2="-602.008" y2="554.68" gradientUnits="userSpaceOnUse"><stop offset=".04" stop-color="#F5F9FF"/><stop offset=".1" stop-color="#E8F1FF"/><stop offset=".21" stop-color="#C5DEFF"/><stop offset=".35" stop-color="#8EBEFF"/><stop offset=".52" stop-color="#4293FF"/><stop offset=".67" stop-color="#006DFF"/></linearGradient><linearGradient id="e" x1="287.607" y1="-62.709" x2="-590.736" y2="570.319" gradientUnits="userSpaceOnUse"><stop offset=".04" stop-color="#F5F9FF"/><stop offset=".1" stop-color="#E8F1FF"/><stop offset=".21" stop-color="#C5DEFF"/><stop offset=".35" stop-color="#8EBEFF"/><stop offset=".52" stop-color="#4293FF"/><stop offset=".67" stop-color="#006DFF"/></linearGradient><linearGradient id="f" x1="281.898" y1="-70.631" x2="-596.446" y2="562.397" gradientUnits="userSpaceOnUse"><stop offset=".04" stop-color="#F5F9FF"/><stop offset=".1" stop-color="#E8F1FF"/><stop offset=".21" stop-color="#C5DEFF"/><stop offset=".35" stop-color="#8EBEFF"/><stop offset=".52" stop-color="#4293FF"/><stop offset=".67" stop-color="#006DFF"/></linearGradient><linearGradient id="g" x1="-17.222" y1="88.612" x2="98.587" y2="57.646" gradientUnits="userSpaceOnUse"><stop offset=".21" stop-color="#1F2D66" stop-opacity=".99"/><stop offset=".46" stop-color="#1248A8" stop-opacity=".57"/><stop offset=".68" stop-color="#085CD7" stop-opacity=".26"/><stop offset=".87" stop-color="#0268F4" stop-opacity=".07"/><stop offset="1" stop-color="#006DFF" stop-opacity="0"/></linearGradient><linearGradient id="h" x1="-42.875" y1="-217.44" x2="72.933" y2="-248.405" gradientUnits="userSpaceOnUse"><stop offset=".21" stop-color="#1F2D66" stop-opacity=".99"/><stop offset=".46" stop-color="#1248A8" stop-opacity=".57"/><stop offset=".68" stop-color="#085CD7" stop-opacity=".26"/><stop offset=".87" stop-color="#0268F4" stop-opacity=".07"/><stop offset="1" stop-color="#006DFF" stop-opacity="0"/></linearGradient><linearGradient id="i" x1="87.643" y1="60.572" x2="203.452" y2="29.606" gradientUnits="userSpaceOnUse"><stop offset=".21" stop-color="#1F2D66" stop-opacity=".99"/><stop offset=".46" stop-color="#1248A8" stop-opacity=".57"/><stop offset=".68" stop-color="#085CD7" stop-opacity=".26"/><stop offset=".87" stop-color="#0268F4" stop-opacity=".07"/><stop offset="1" stop-color="#006DFF" stop-opacity="0"/></linearGradient><linearGradient id="j" x1="59.03" y1="69.334" x2="181.228" y2="69.334" gradientUnits="userSpaceOnUse"><stop offset=".09" stop-color="#1479FF" stop-opacity=".3"/><stop offset=".51" stop-color="#202D66"/><stop offset=".78" stop-color="#1E306E" stop-opacity=".96"/><stop offset=".89" stop-color="#173E8F" stop-opacity=".81"/><stop offset=".96" stop-color="#0B55C7" stop-opacity=".55"/><stop offset="1" stop-color="#006DFF" stop-opacity=".3"/></linearGradient><linearGradient id="k" x1="-426.139" y1="116.315" x2="256.459" y2="171.442" gradientUnits="userSpaceOnUse"><stop stop-color="#F5F9FF"/><stop offset=".14" stop-color="#F1F7FF"/><stop offset=".26" stop-color="#E7F1FF"/><stop offset=".37" stop-color="#D5E7FF"/><stop offset=".48" stop-color="#BDD9FF"/><stop offset=".604" stop-color="#76B0FF"/><stop offset=".666" stop-color="#4896FF"/><stop offset=".723" stop-color="#00033B"/></linearGradient><linearGradient id="o" x1="264.274" y1="190.018" x2="-157.154" y2="51.159" gradientUnits="userSpaceOnUse"><stop offset=".19" stop-color="#F5F9FF"/><stop offset=".56" stop-color="#006DFF"/></linearGradient><radialGradient id="l" cx="0" cy="0" r="1" gradientUnits="userSpaceOnUse" gradientTransform="matrix(237.25918 94.84455 -94.84566 237.26196 13.852 105.354)"><stop stop-color="#F5F9FF"/><stop offset=".14" stop-color="#F1F7FF"/><stop offset=".26" stop-color="#E7F1FF"/><stop offset=".37" stop-color="#D5E7FF"/><stop offset=".48" stop-color="#BDD9FF"/><stop offset=".58" stop-color="#9DC7FF"/><stop offset=".68" stop-color="#76B0FF"/><stop offset=".78" stop-color="#4896FF"/><stop offset=".87" stop-color="#1478FF"/><stop offset=".9" stop-color="#006DFF"/></radialGradient><radialGradient id="m" cx="0" cy="0" r="1" gradientUnits="userSpaceOnUse" gradientTransform="rotate(2.18 -821.161 2113.652) scale(49.6676)"><stop stop-color="#006DFF"/><stop offset=".39" stop-color="#104BAD"/><stop offset=".67" stop-color="#1B357A"/><stop offset=".81" stop-color="#202D66"/></radialGradient><radialGradient id="n" cx="0" cy="0" r="1" gradientUnits="userSpaceOnUse" gradientTransform="rotate(2.18 -821.161 2113.652) scale(49.6676)"><stop stop-color="#006DFF"/><stop offset=".39" stop-color="#104BAD"/><stop offset=".67" stop-color="#1B357A"/><stop offset=".81" stop-color="#202D66"/></radialGradient><radialGradient id="p" cx="0" cy="0" r="1" gradientUnits="userSpaceOnUse" gradientTransform="rotate(9.31 -614.602 865.529) scale(46.0788)"><stop stop-color="#006DFF"/><stop offset=".39" stop-color="#104BAD"/><stop offset=".67" stop-color="#1B357A"/><stop offset=".81" stop-color="#202D66"/></radialGradient></defs></svg>