<svg width="200" height="200" viewBox="0 0 200 200" fill="none" xmlns="http://www.w3.org/2000/svg"><path d="M104.292 171.921c-36.283 0-65.803-29.519-65.803-65.803s29.52-65.814 65.803-65.814c36.284 0 65.804 29.52 65.804 65.803 0 36.284-29.52 65.804-65.804 65.804v.01Zm0-125.056c-32.666 0-59.252 26.576-59.252 59.253s26.576 59.253 59.252 59.253c32.677 0 59.253-26.576 59.253-59.253s-26.576-59.253-59.253-59.253Z" fill="url(#a)" opacity=".5"/><path opacity=".1" d="m148.453 124.828.191-79.057c.012-3.754-3.058-6.84-6.813-6.842l-110.11-.27c-3.755-.012-6.841 3.058-6.853 6.812l-.022 7.315.011.001-.17 71.741c-.011 3.754 3.059 6.841 6.814 6.842l110.111.26c3.754.012 6.841-3.058 6.842-6.813l-.001.011Z" fill="#00033B"/><path d="m135.902 33.562-110.104-.254a6.829 6.829 0 0 0-6.844 6.813l-.182 79.054a6.829 6.829 0 0 0 6.813 6.844l110.103.253a6.827 6.827 0 0 0 6.844-6.812l.183-79.054a6.83 6.83 0 0 0-6.813-6.844Z" fill="url(#b)"/><path d="m25.789 33.31 110.114.253a6.833 6.833 0 0 1 6.812 6.845l-.016 7.31-123.772-.285.017-7.31a6.834 6.834 0 0 1 6.845-6.813Z" fill="url(#c)"/><path d="M27.511 43.428a2.548 2.548 0 1 0 .35-5.083 2.548 2.548 0 0 0-.35 5.083ZM35.61 43.45a2.547 2.547 0 1 0 .35-5.083 2.547 2.547 0 0 0-.35 5.083ZM43.698 43.47a2.547 2.547 0 1 0 .35-5.082 2.547 2.547 0 0 0-.35 5.083Z" fill="#fff"/><g opacity=".25"><path d="M35.724 69.678a5.544 5.544 0 1 0 .762-11.062 5.544 5.544 0 0 0-.762 11.062Z" fill="url(#d)"/><path d="m128.183 61.263-76.902-.177a2.812 2.812 0 0 0-2.822 2.803 2.812 2.812 0 0 0 2.809 2.816l76.902.177a2.811 2.811 0 0 0 2.821-2.803 2.811 2.811 0 0 0-2.808-2.816Z" fill="url(#e)"/></g><g opacity=".25"><path d="M35.681 85.221a5.544 5.544 0 1 0 .762-11.062 5.544 5.544 0 0 0-.762 11.062Z" fill="url(#f)"/><path d="m128.153 76.8-76.902-.178a2.812 2.812 0 0 0-2.822 2.803 2.812 2.812 0 0 0 2.808 2.816l76.903.177a2.812 2.812 0 0 0 2.821-2.803 2.812 2.812 0 0 0-2.808-2.816Z" fill="url(#g)"/></g><g opacity=".25"><path d="M35.65 100.775a5.544 5.544 0 1 0 .764-11.061 5.544 5.544 0 0 0-.763 11.061Z" fill="url(#h)"/><path d="m128.112 92.347-76.903-.177a2.812 2.812 0 0 0-2.82 2.803 2.812 2.812 0 0 0 2.807 2.816l76.903.177a2.813 2.813 0 0 0 2.821-2.803 2.812 2.812 0 0 0-2.808-2.816Z" fill="url(#i)"/></g><g opacity=".25"><path d="M36.099 117.006a5.544 5.544 0 1 0 .762-11.062 5.544 5.544 0 1 0-.762 11.062Z" fill="url(#j)"/><path d="m128.561 108.577-76.902-.177a2.812 2.812 0 0 0-2.822 2.803 2.812 2.812 0 0 0 2.809 2.816l76.902.177a2.81 2.81 0 0 0 2.821-2.803 2.813 2.813 0 0 0-2.808-2.816Z" fill="url(#k)"/></g><path opacity=".1" fill-rule="evenodd" clip-rule="evenodd" d="M182.818 145.885c-4.693 17.514-22.695 27.907-40.209 23.215-17.513-4.693-27.906-22.695-23.214-40.209 4.693-17.513 22.695-27.906 40.208-23.214 17.514 4.693 27.907 22.695 23.215 40.208Z" fill="#00033B"/><g clip-path="url(#l)"><path d="M138.674 166.394c17.514 4.692 35.516-5.701 40.208-23.214 4.693-17.514-5.7-35.516-23.214-40.208-17.513-4.693-35.515 5.7-40.208 23.214-4.693 17.513 5.701 35.515 23.214 40.208Z" fill="url(#m)"/><path d="M142.27 137.738c0-.986.115-1.873.345-2.661.263-.822.707-1.594 1.331-2.317.657-.723 1.561-1.446 2.711-2.169 1.084-.69 1.889-1.281 2.415-1.774.526-.526.854-1.002.986-1.429.164-.427.246-.855.246-1.282 0-.657-.312-1.183-.936-1.577-.592-.394-1.38-.591-2.366-.591-1.216 0-2.53.213-3.943.64-1.413.428-2.925 1.068-4.535 1.923l-3.351-6.556a25.373 25.373 0 0 1 5.816-2.464c2.07-.624 4.304-.937 6.703-.937 3.647 0 6.473.805 8.477 2.416 2.005 1.61 3.007 3.729 3.007 6.358 0 1.248-.197 2.398-.591 3.45-.362 1.051-.97 2.037-1.824 2.957-.822.887-1.922 1.774-3.302 2.662a39.704 39.704 0 0 0-2.268 1.577c-.558.427-.952.838-1.182 1.232-.231.394-.346.854-.346 1.38v1.232h-7.393v-2.07Zm-1.035 10.499c0-1.709.493-2.908 1.479-3.598.986-.691 2.185-1.036 3.598-1.036 1.347 0 2.514.345 3.499 1.036.986.69 1.479 1.889 1.479 3.598 0 1.61-.493 2.776-1.479 3.499-.985.723-2.152 1.084-3.499 1.084-1.413 0-2.612-.361-3.598-1.084-.986-.723-1.479-1.889-1.479-3.499Z" fill="#fff"/></g><defs><linearGradient id="a" x1="-66.059" y1="67.543" x2="190.913" y2="106.118" gradientUnits="userSpaceOnUse"><stop offset=".42" stop-color="#006DFF"/><stop offset=".48" stop-color="#0F76FF"/><stop offset=".59" stop-color="#398DFF"/><stop offset=".74" stop-color="#7CB4FF"/><stop offset=".93" stop-color="#D7E8FF"/><stop offset=".99" stop-color="#F5F9FF"/></linearGradient><linearGradient id="c" x1="-11.841" y1="69.446" x2="-1.335" y2="20.55" gradientUnits="userSpaceOnUse"><stop offset=".19" stop-color="#202D66"/><stop offset=".33" stop-color="#1B357A"/><stop offset=".61" stop-color="#104BAD"/><stop offset="1" stop-color="#006DFF"/></linearGradient><linearGradient id="d" x1="31.817" y1="67.679" x2="40.375" y2="60.614" gradientUnits="userSpaceOnUse"><stop offset=".19" stop-color="#202D66"/><stop offset=".33" stop-color="#1B357A"/><stop offset=".61" stop-color="#104BAD"/><stop offset="1" stop-color="#006DFF"/></linearGradient><linearGradient id="e" x1="64.745" y1="84.621" x2="114.706" y2="43.347" gradientUnits="userSpaceOnUse"><stop offset=".19" stop-color="#202D66"/><stop offset=".33" stop-color="#1B357A"/><stop offset=".61" stop-color="#104BAD"/><stop offset="1" stop-color="#006DFF"/></linearGradient><linearGradient id="f" x1="31.78" y1="83.22" x2="40.337" y2="76.154" gradientUnits="userSpaceOnUse"><stop offset=".19" stop-color="#202D66"/><stop offset=".33" stop-color="#1B357A"/><stop offset=".61" stop-color="#104BAD"/><stop offset="1" stop-color="#006DFF"/></linearGradient><linearGradient id="g" x1="64.704" y1="100.157" x2="114.665" y2="58.883" gradientUnits="userSpaceOnUse"><stop offset=".19" stop-color="#202D66"/><stop offset=".33" stop-color="#1B357A"/><stop offset=".61" stop-color="#104BAD"/><stop offset="1" stop-color="#006DFF"/></linearGradient><linearGradient id="h" x1="31.745" y1="98.772" x2="40.302" y2="91.706" gradientUnits="userSpaceOnUse"><stop offset=".19" stop-color="#202D66"/><stop offset=".33" stop-color="#1B357A"/><stop offset=".61" stop-color="#104BAD"/><stop offset="1" stop-color="#006DFF"/></linearGradient><linearGradient id="i" x1="64.673" y1="115.705" x2="114.635" y2="74.431" gradientUnits="userSpaceOnUse"><stop offset=".19" stop-color="#202D66"/><stop offset=".33" stop-color="#1B357A"/><stop offset=".61" stop-color="#104BAD"/><stop offset="1" stop-color="#006DFF"/></linearGradient><linearGradient id="j" x1="32.2" y1="114.999" x2="40.758" y2="107.933" gradientUnits="userSpaceOnUse"><stop offset=".19" stop-color="#202D66"/><stop offset=".33" stop-color="#1B357A"/><stop offset=".61" stop-color="#104BAD"/><stop offset="1" stop-color="#006DFF"/></linearGradient><linearGradient id="k" x1="65.123" y1="131.935" x2="115.084" y2="90.661" gradientUnits="userSpaceOnUse"><stop offset=".19" stop-color="#202D66"/><stop offset=".33" stop-color="#1B357A"/><stop offset=".61" stop-color="#104BAD"/><stop offset="1" stop-color="#006DFF"/></linearGradient><radialGradient id="b" cx="0" cy="0" r="1" gradientUnits="userSpaceOnUse" gradientTransform="rotate(-18.033 305.256 549.513) scale(433.52)"><stop stop-color="#046FFF"/><stop offset=".488" stop-color="#E9F2FF"/><stop offset=".746" stop-color="#fff"/><stop offset=".843" stop-color="#F5F9FF"/></radialGradient><radialGradient id="m" cx="0" cy="0" r="1" gradientUnits="userSpaceOnUse" gradientTransform="rotate(32.69 -153.997 319.312) scale(82.063)"><stop stop-color="#006DFF"/><stop offset=".39" stop-color="#104BAD"/><stop offset=".67" stop-color="#1B357A"/><stop offset=".81" stop-color="#202D66"/></radialGradient><clipPath id="l"><path fill="#fff" transform="rotate(15 -296.786 517.982)" d="M0 0h65.686v65.686H0z"/></clipPath></defs></svg>