<svg width="200" height="200" viewBox="0 0 200 200" fill="none" xmlns="http://www.w3.org/2000/svg"><path opacity=".1" d="M121.48 44.917H24.73c-3.3 0-6 2.7-6 6v69.47c0 3.3 2.7 6 6 6h96.75c3.3 0 6-2.7 6-6v-69.47c0-3.3-2.7-6-6-6Z" fill="url(#a)"/><path d="M93.77 161.507c-27.57 0-50-22.43-50-50s22.43-50 50-50 50 22.43 50 50-22.43 50-50 50Zm0-95.01c-24.82 0-45.01 20.19-45.01 45.01 0 24.82 20.19 45.01 45.01 45.01 24.82 0 45.01-20.19 45.01-45.01 0-24.82-20.19-45.01-45.01-45.01Z" fill="url(#b)" opacity=".5"/><path d="M125.1 41.597H28.35a6 6 0 0 0-6 6v69.47a6 6 0 0 0 6 6h96.75a6 6 0 0 0 6-6v-69.47a6 6 0 0 0-6-6Z" fill="url(#c)"/><path d="M28.35 41.597h96.75c3.31 0 6 2.69 6 6v6.42H22.35v-6.42c0-3.31 2.69-6 6-6Z" fill="url(#d)"/><path d="M30.03 50.487a2.23 2.23 0 1 0 0-4.46 2.23 2.23 0 0 0 0 4.46ZM37.14 50.487a2.23 2.23 0 1 0 0-4.46 2.23 2.23 0 0 0 0 4.46ZM44.25 50.487a2.23 2.23 0 1 0 0-4.46 2.23 2.23 0 0 0 0 4.46Z" fill="#fff"/><path opacity=".5" d="M124.41 67.797H82.05v2.01h42.36v-2.01Z" fill="url(#e)"/><path opacity=".5" d="M124.41 75.157H82.05v2.01h42.36v-2.01Z" fill="url(#f)"/><path opacity=".5" d="M124.41 83.327H82.05v2.01h42.36v-2.01Z" fill="url(#g)"/><path opacity=".5" d="M124.41 90.698H82.05v2.01h42.36v-2.01Z" fill="url(#h)"/><g opacity=".75"><path d="M38.53 88.018h-4.59v21.17h4.59v-21.17Z" fill="url(#i)"/><path d="M45.7 81.258h-4.59v27.94h4.59v-27.94Z" fill="url(#j)"/><path d="M52.88 72.357h-4.59v36.83h4.59v-36.83Z" fill="url(#k)"/><path d="M60.049 69.288h-4.59v39.9h4.59v-39.9Z" fill="url(#l)"/><path d="M67.22 67.718h-4.59v41.47h4.59v-41.47Z" fill="url(#m)"/><path d="M74.39 67.718H69.8v41.47h4.59v-41.47Z" fill="url(#n)"/></g><path opacity=".1" d="M171.811 84.397h-73.42c-3.3 0-6 2.7-6 6v81.73c0 3.3 2.7 6 6 6h73.42c3.3 0 6-2.7 6-6v-81.73c0-3.3-2.7-6-6-6Z" fill="url(#o)"/><path d="M176.3 79.647h-73.42a6 6 0 0 0-6 6v81.73a6 6 0 0 0 6 6h73.42a6 6 0 0 0 6-6v-81.73a6 6 0 0 0-6-6Z" fill="url(#p)"/><path d="M102.88 79.647h73.42c3.31 0 6 2.69 6 6v8.3H96.88v-8.3c0-3.31 2.69-6 6-6Z" fill="url(#q)"/><path d="M105.719 89.877a2.57 2.57 0 1 0 0-5.139 2.57 2.57 0 0 0 0 5.14ZM113.9 89.877a2.57 2.57 0 1 0 0-5.14 2.57 2.57 0 0 0 0 5.14ZM122.08 89.877a2.57 2.57 0 1 0 0-5.14 2.57 2.57 0 0 0 0 5.14ZM172.51 99.287h-66.07a3.29 3.29 0 0 0-3.29 3.29v38.33a3.29 3.29 0 0 0 3.29 3.29h66.07a3.29 3.29 0 0 0 3.29-3.29v-38.33a3.29 3.29 0 0 0-3.29-3.29Z" fill="#fff"/><path opacity=".5" d="M155.157 61.507c11.697 0 21.179-9.482 21.179-21.18 0-11.696-9.482-21.179-21.179-21.179s-21.179 9.483-21.179 21.18 9.482 21.179 21.179 21.179Z" fill="url(#r)"/><path d="M154.75 54.867h-.24l-14.63-.33 6.53 9.84c.3.46.49.98.54 1.53l.55 5.94a3.332 3.332 0 0 0 3.03 3.01l3.53.3h.24l3.54-.14a3.317 3.317 0 0 0 3.16-2.87l.81-5.91c.07-.54.28-1.06.6-1.5l6.97-9.54-14.63-.32v-.01Z" fill="url(#s)"/><path opacity=".75" d="M161.37 40.057c-.5-.93-1.64-1.45-2.77-1.28-.57.09-1.14.35-1.64.74-.68-.55-1.51-.89-2.37-.97-.52-.05-.98.01-1.37.17-.31.13-.56.31-.78.53-.64-.38-1.37-.53-2.04-.37-1.3.32-2.02 1.42-1.86 2.79l2.12 13.14.41-.07-2.08-12.88c-.25-1.26.36-2.3 1.51-2.58.58-.14 1.16 0 1.67.29-.58.79-.76 1.84-.81 2.37-.09.91-.06 1.83.1 2.72.15.88.5 1.42 1.03 1.6.1.03.21.05.31.05.51.01 1-.34 1.24-.75.3-.5.35-1.08.36-1.64.03-1.5-.23-2.65-.79-3.54-.22-.35-.5-.66-.81-.9.17-.16.36-.29.59-.38.33-.14.72-.19 1.18-.14.75.07 1.48.36 2.09.83-.22.21-.43.44-.61.7a5.627 5.627 0 0 0-1.03 3.62c.07 1.02.58 2.11 1.56 2.25.53.08 1.1-.17 1.5-.64.31-.36.52-.86.62-1.48a5.13 5.13 0 0 0-.81-3.77c-.17-.25-.37-.48-.59-.69.43-.32.91-.53 1.39-.61.95-.15 1.94.3 2.35 1.07.33.62.43.86.28 1.63l-2.7 13.03.4.08 2.7-13.04-.2-.04.2.04c.17-.88.05-1.2-.32-1.9l-.03.02Zm-8.12.55c.52.82.76 1.9.73 3.32 0 .5-.05 1.02-.3 1.43-.21.36-.67.65-1.07.52-.37-.12-.63-.55-.75-1.28a9.51 9.51 0 0 1-.09-2.61c.05-.49.21-1.47.74-2.18.3.23.55.51.74.81v-.01Zm4.28.11c.68.98.96 2.24.74 3.46-.09.54-.27.97-.53 1.28-.3.36-.74.55-1.13.49-.76-.11-1.16-1.05-1.21-1.87-.08-1.18.27-2.4.96-3.35.18-.25.38-.48.59-.67.21.2.4.42.57.66h.01Z" fill="url(#t)"/><path opacity=".75" d="M168.119 109.357a3.092 3.092 0 0 0-2.54 4.85l-12.82 14.72c-.42-.21-.89-.34-1.39-.34-1.03 0-1.94.51-2.5 1.28l-13.42-5.31c.02-.13.04-.25.04-.39 0-1.71-1.39-3.09-3.09-3.09s-3.09 1.39-3.09 3.09c0 .2.02.4.06.6l-16.88 8.03a3.077 3.077 0 0 0-2.37-1.12c-1.71 0-3.09 1.39-3.09 3.09s1.39 3.09 3.09 3.09 3.09-1.39 3.09-3.09c0-.2-.02-.4-.06-.6l16.88-8.03c.57.68 1.41 1.12 2.37 1.12 1.03 0 1.94-.51 2.5-1.28l13.42 5.31c-.02.13-.04.26-.04.39 0 1.71 1.39 3.09 3.09 3.09s3.09-1.39 3.09-3.09c0-.65-.21-1.26-.55-1.76l12.82-14.72c.42.21.88.34 1.39.34 1.71 0 3.09-1.39 3.09-3.09s-1.39-3.09-3.09-3.09Z" fill="url(#u)"/><path opacity=".5" d="M175.8 152.617h-72.65v2.31h72.65v-2.31Z" fill="url(#v)"/><path opacity=".5" d="M175.8 161.087h-72.65v2.31h72.65v-2.31Z" fill="url(#w)"/><path d="m31.18 119.817-12.27 20.01c-1.38 2.25-.67 5.23 1.58 6.61l.34.21c2.25 1.38 5.23.67 6.61-1.58l12.29-20.04c-1.55-.68-3.07-1.47-4.55-2.38-1.41-.87-2.74-1.82-4-2.83Z" fill="url(#x)"/><path d="M75.01 57.707c-17.93-11-41.39-5.38-52.39 12.56-10.13 16.52-6.15 37.71 8.56 49.55 1.26 1.01 2.59 1.97 4 2.83 1.48.91 3 1.69 4.55 2.38 17.18 7.6 37.75 1.52 47.84-14.93 11-17.94 5.38-41.39-12.56-52.39Zm6.54 48.7c-8.05 13.12-24.28 18.15-38.09 12.54-1.56-.64-3.1-1.4-4.59-2.31a31.28 31.28 0 0 1-3.97-2.89c-11.4-9.74-14.35-26.6-6.26-39.79 8.96-14.61 28.06-19.19 42.67-10.23 14.61 8.96 19.19 28.06 10.23 42.67l.01.01Z" fill="url(#y)"/><path opacity=".6" d="M55.1 121.577c17.138 0 31.03-13.892 31.03-31.03 0-17.137-13.892-31.03-31.03-31.03-17.137 0-31.03 13.893-31.03 31.03 0 17.138 13.893 31.03 31.03 31.03Z" fill="url(#z)"/><defs><linearGradient id="b" x1="43.779" y1="111.507" x2="159.58" y2="111.507" gradientUnits="userSpaceOnUse"><stop offset=".42" stop-color="#006DFF"/><stop offset=".48" stop-color="#0F76FF"/><stop offset=".59" stop-color="#398DFF"/><stop offset=".74" stop-color="#7CB4FF"/><stop offset=".93" stop-color="#D7E8FF"/><stop offset=".99" stop-color="#F5F9FF"/></linearGradient><linearGradient id="d" x1="-4.64" y1="83.537" x2="7.736" y2="21.526" gradientUnits="userSpaceOnUse"><stop offset=".19" stop-color="#202D66"/><stop offset=".33" stop-color="#1B357A"/><stop offset=".61" stop-color="#104BAD"/><stop offset="1" stop-color="#006DFF"/></linearGradient><linearGradient id="e" x1="82.05" y1="68.797" x2="124.41" y2="68.797" gradientUnits="userSpaceOnUse"><stop offset=".07" stop-color="#202D66"/><stop offset=".23" stop-color="#1B357A"/><stop offset=".55" stop-color="#104BAD"/><stop offset="1" stop-color="#006DFF"/></linearGradient><linearGradient id="f" x1="17" y1="76.168" x2="18" y2="76.168" gradientUnits="userSpaceOnUse"><stop offset=".07" stop-color="#202D66"/><stop offset=".23" stop-color="#1B357A"/><stop offset=".55" stop-color="#104BAD"/><stop offset="1" stop-color="#006DFF"/></linearGradient><linearGradient id="g" x1="17" y1="84.337" x2="18" y2="84.337" gradientUnits="userSpaceOnUse"><stop offset=".07" stop-color="#202D66"/><stop offset=".23" stop-color="#1B357A"/><stop offset=".55" stop-color="#104BAD"/><stop offset="1" stop-color="#006DFF"/></linearGradient><linearGradient id="h" x1="17" y1="91.698" x2="18" y2="91.698" gradientUnits="userSpaceOnUse"><stop offset=".07" stop-color="#202D66"/><stop offset=".23" stop-color="#1B357A"/><stop offset=".55" stop-color="#104BAD"/><stop offset="1" stop-color="#006DFF"/></linearGradient><linearGradient id="i" x1="-.931" y1="129.448" x2="91.609" y2="52.648" gradientUnits="userSpaceOnUse"><stop offset=".19" stop-color="#202D66"/><stop offset=".33" stop-color="#1B357A"/><stop offset=".61" stop-color="#104BAD"/><stop offset="1" stop-color="#006DFF"/></linearGradient><linearGradient id="j" x1=".339" y1="130.978" x2="92.869" y2="54.168" gradientUnits="userSpaceOnUse"><stop offset=".19" stop-color="#202D66"/><stop offset=".33" stop-color="#1B357A"/><stop offset=".61" stop-color="#104BAD"/><stop offset="1" stop-color="#006DFF"/></linearGradient><linearGradient id="k" x1="1.079" y1="131.867" x2="93.609" y2="55.057" gradientUnits="userSpaceOnUse"><stop offset=".19" stop-color="#202D66"/><stop offset=".33" stop-color="#1B357A"/><stop offset=".61" stop-color="#104BAD"/><stop offset="1" stop-color="#006DFF"/></linearGradient><linearGradient id="l" x1="3.249" y1="134.478" x2="95.779" y2="57.678" gradientUnits="userSpaceOnUse"><stop offset=".19" stop-color="#202D66"/><stop offset=".33" stop-color="#1B357A"/><stop offset=".61" stop-color="#104BAD"/><stop offset="1" stop-color="#006DFF"/></linearGradient><linearGradient id="m" x1="5.79" y1="137.538" x2="98.32" y2="60.737" gradientUnits="userSpaceOnUse"><stop offset=".19" stop-color="#202D66"/><stop offset=".33" stop-color="#1B357A"/><stop offset=".61" stop-color="#104BAD"/><stop offset="1" stop-color="#006DFF"/></linearGradient><linearGradient id="n" x1="8.71" y1="141.068" x2="101.25" y2="64.257" gradientUnits="userSpaceOnUse"><stop offset=".19" stop-color="#202D66"/><stop offset=".33" stop-color="#1B357A"/><stop offset=".61" stop-color="#104BAD"/><stop offset="1" stop-color="#006DFF"/></linearGradient><linearGradient id="q" x1="65.57" y1="121.103" x2="70.933" y2="60.202" gradientUnits="userSpaceOnUse"><stop offset=".19" stop-color="#202D66"/><stop offset=".33" stop-color="#1B357A"/><stop offset=".61" stop-color="#104BAD"/><stop offset="1" stop-color="#006DFF"/></linearGradient><linearGradient id="r" x1="261.345" y1="-28.195" x2="112.305" y2="67.979" gradientUnits="userSpaceOnUse"><stop offset=".53" stop-color="#fff"/><stop offset=".62" stop-color="#EEF5FF"/><stop offset=".76" stop-color="#CBE1FF"/><stop offset=".79" stop-color="#C0DAFD"/><stop offset=".83" stop-color="#A4C8FA"/><stop offset=".88" stop-color="#77ABF5"/><stop offset=".95" stop-color="#3983EE"/><stop offset=".99" stop-color="#0764E9"/></linearGradient><linearGradient id="u" x1="227.349" y1="49.627" x2="45.149" y2="207.297" gradientUnits="userSpaceOnUse"><stop stop-color="#006DFF"/><stop offset=".45" stop-color="#104BAD"/><stop offset=".77" stop-color="#1B357A"/><stop offset=".93" stop-color="#202D66"/></linearGradient><linearGradient id="v" x1="103.15" y1="153.777" x2="175.8" y2="153.777" gradientUnits="userSpaceOnUse"><stop offset=".07" stop-color="#202D66"/><stop offset=".23" stop-color="#1B357A"/><stop offset=".55" stop-color="#104BAD"/><stop offset="1" stop-color="#006DFF"/></linearGradient><linearGradient id="w" x1="103.15" y1="162.247" x2="175.8" y2="162.247" gradientUnits="userSpaceOnUse"><stop offset=".07" stop-color="#202D66"/><stop offset=".23" stop-color="#1B357A"/><stop offset=".55" stop-color="#104BAD"/><stop offset="1" stop-color="#006DFF"/></linearGradient><linearGradient id="x" x1="-.852" y1="187.362" x2="68.068" y2="74.982" gradientUnits="userSpaceOnUse"><stop stop-color="#006DFF"/><stop offset=".39" stop-color="#104BAD"/><stop offset=".67" stop-color="#1B357A"/><stop offset=".81" stop-color="#202D66"/></linearGradient><linearGradient id="y" x1="-15.58" y1="133.967" x2="117.1" y2="51.767" gradientUnits="userSpaceOnUse"><stop stop-color="#006DFF"/><stop offset=".39" stop-color="#104BAD"/><stop offset=".67" stop-color="#1B357A"/><stop offset=".81" stop-color="#202D66"/></linearGradient><radialGradient id="a" cx="0" cy="0" r="1" gradientUnits="userSpaceOnUse" gradientTransform="translate(73.1 85.647) scale(48.04)"><stop offset=".12" stop-color="#006DFF"/><stop offset=".45" stop-color="#104BAD"/><stop offset=".69" stop-color="#1B357A"/><stop offset=".81" stop-color="#202D66"/></radialGradient><radialGradient id="c" cx="0" cy="0" r="1" gradientUnits="userSpaceOnUse" gradientTransform="rotate(-12.219 664.547 202.603) scale(297.198)"><stop stop-color="#046FFF"/><stop offset=".06" stop-color="#368BFF"/><stop offset=".12" stop-color="#63A5FF"/><stop offset=".18" stop-color="#8ABCFF"/><stop offset=".25" stop-color="#ABCFFF"/><stop offset=".31" stop-color="#C6DEFF"/><stop offset=".39" stop-color="#DBEAFF"/><stop offset=".48" stop-color="#E9F2FF"/><stop offset=".58" stop-color="#F2F7FF"/><stop offset=".74" stop-color="#F5F9FF"/></radialGradient><radialGradient id="o" cx="0" cy="0" r="1" gradientUnits="userSpaceOnUse" gradientTransform="translate(135.101 131.267) scale(44.84)"><stop offset=".12" stop-color="#006DFF"/><stop offset=".45" stop-color="#104BAD"/><stop offset=".69" stop-color="#1B357A"/><stop offset=".81" stop-color="#202D66"/></radialGradient><radialGradient id="p" cx="0" cy="0" r="1" gradientUnits="userSpaceOnUse" gradientTransform="rotate(-16.011 769.794 112.258) scale(326.892)"><stop stop-color="#046FFF"/><stop offset=".06" stop-color="#368BFF"/><stop offset=".12" stop-color="#63A5FF"/><stop offset=".18" stop-color="#8ABCFF"/><stop offset=".25" stop-color="#ABCFFF"/><stop offset=".31" stop-color="#C6DEFF"/><stop offset=".39" stop-color="#DBEAFF"/><stop offset=".48" stop-color="#E9F2FF"/><stop offset=".632" stop-color="#F2F7FF"/><stop offset=".74" stop-color="#F5F9FF"/></radialGradient><radialGradient id="s" cx="0" cy="0" r="1" gradientUnits="userSpaceOnUse" gradientTransform="rotate(1.27 -2849.832 7018.182) scale(31.3)"><stop offset=".15" stop-color="#006DFF"/><stop offset=".49" stop-color="#104BAD"/><stop offset=".73" stop-color="#1B357A"/><stop offset=".85" stop-color="#202D66"/></radialGradient><radialGradient id="t" cx="0" cy="0" r="1" gradientUnits="userSpaceOnUse" gradientTransform="rotate(1.27 -2030.453 7016.952) scale(7.44)"><stop stop-color="#006DFF"/><stop offset=".39" stop-color="#104BAD"/><stop offset=".67" stop-color="#1B357A"/><stop offset=".81" stop-color="#202D66"/></radialGradient><radialGradient id="z" cx="0" cy="0" r="1" gradientUnits="userSpaceOnUse" gradientTransform="translate(55.1 90.547) scale(44.56)"><stop stop-color="#fff" stop-opacity="0"/><stop offset=".06" stop-color="#fff" stop-opacity=".17"/><stop offset=".14" stop-color="#fff" stop-opacity=".39"/><stop offset=".22" stop-color="#fff" stop-opacity=".58"/><stop offset=".31" stop-color="#fff" stop-opacity=".73"/><stop offset=".39" stop-color="#fff" stop-opacity=".85"/><stop offset=".46" stop-color="#fff" stop-opacity=".93"/><stop offset=".54" stop-color="#fff" stop-opacity=".98"/><stop offset=".61" stop-color="#fff"/></radialGradient></defs></svg>