<svg width="200" height="200" viewBox="0 0 200 200" fill="none" xmlns="http://www.w3.org/2000/svg"><path d="M139.52 158.82c31.75-18.74 42.29-59.67 23.55-91.42S103.4 25.11 71.65 43.85s-42.29 59.67-23.55 91.42 59.67 42.29 91.42 23.55ZM74.6 48.84c28.99-17.12 66.37-7.49 83.49 21.51 17.12 28.99 7.49 66.37-21.51 83.49-28.99 17.12-66.37 7.49-83.49-21.51-17.12-28.99-7.49-66.37 21.51-83.49Z" fill="url(#a)"/><path d="m107.599 152.4-76.64-16.58c-2.7-.58-4.43-3.39-3.84-6.23l20.46-96.37L65.18 21l66.43 14.65c2.7.58 4.43 3.39 3.84 6.23l-21.89 106.42c-.58 2.84-3.27 4.69-5.97 4.1h.01Z" fill="url(#b)"/><path d="m65.18 21-17.6 12.22 7.33 1.73c3.24.98 6.64-.99 7.61-4.4L65.18 21Z" fill="url(#c)"/><path d="M80.63 101.85c11.023 0 19.96-8.936 19.96-19.96 0-11.024-8.937-19.96-19.96-19.96-11.024 0-19.96 8.936-19.96 19.96 0 11.023 8.936 19.96 19.96 19.96Z" fill="#fff"/><path d="M77.94 71.34c2.29.57 3.69 2.9 3.11 5.21a4.278 4.278 0 0 1-5.19 3.12c-2.29-.57-3.71-2.9-3.14-5.19.57-2.29 2.93-3.71 5.22-3.14Zm-1.6 6.44c1.21.3 2.46-.43 2.78-1.71.32-1.28-.44-2.54-1.64-2.84-1.2-.3-2.47.46-2.78 1.74-.31 1.28.44 2.52 1.65 2.82l-.01-.01Zm13.63-3.13L73.6 89.63l-2.24-.56 16.37-14.98 2.24.56Zm-4.54 9.43c2.29.57 3.68 2.92 3.11 5.21-.57 2.29-2.9 3.71-5.19 3.14-2.29-.57-3.69-2.9-3.11-5.21.58-2.31 2.9-3.71 5.19-3.14Zm-1.61 6.47c1.23.31 2.47-.46 2.78-1.74.31-1.28-.41-2.53-1.64-2.84-1.21-.3-2.47.46-2.78 1.74-.31 1.28.44 2.54 1.65 2.84h-.01Z" fill="url(#d)" opacity=".75"/><path d="m164.519 141.59-5.65-57.43c-.09-.88-.52-1.69-1.2-2.25-.49-.41-1.09-.65-1.71-.73-.02 0-.04 0-.06-.01-.22-.02-.44-.02-.67 0l-65.76 6.47a3.332 3.332 0 0 0-2.99 3.64l8.29 84.18c.09.88.52 1.69 1.2 2.25.68.56 1.56.83 2.44.74l65.76-6.47c.23-.02.45-.07.66-.13a3.334 3.334 0 0 0 2.26-2.51c.07-.32.1-.66.07-1l-2.63-26.75h-.01Z" fill="url(#e)"/><path d="m155.133 84.167-65.016 6.398 1.632 16.58 65.016-6.398-1.632-16.58Z" fill="url(#f)"/><path d="M103.929 119.38c.06.61-.39 1.16-.99 1.22l-8.66.85a1.11 1.11 0 0 1-1.21-1l-.66-6.68c-.06-.61.39-1.15.99-1.22l8.66-.85c.61-.06 1.15.39 1.21 1l.65 6.68h.01Z" fill="url(#g)"/><path d="M117.468 118.05c.06.61-.39 1.16-1 1.21l-8.66.85a1.12 1.12 0 0 1-1.22-1l-.66-6.69a1.11 1.11 0 0 1 1-1.21l8.65-.85c.61-.06 1.16.39 1.22.99l.66 6.69.01.01Z" fill="url(#h)"/><path d="M131.009 116.72c.06.61-.39 1.15-.99 1.21l-8.66.85c-.6.06-1.15-.38-1.21-.99l-.66-6.68a1.11 1.11 0 0 1 1-1.21l8.66-.85c.61-.06 1.15.38 1.21 1l.66 6.68-.01-.01Z" fill="url(#i)"/><path d="M144.549 115.38c.06.61-.39 1.16-.99 1.21l-8.66.85c-.61.06-1.16-.39-1.22-.99l-.66-6.69a1.11 1.11 0 0 1 1-1.21l8.66-.85c.61-.06 1.15.39 1.22.99l.66 6.68-.01.01Z" fill="url(#j)"/><path d="M158.089 114.05c.06.61-.39 1.16-1 1.22l-8.66.85a1.11 1.11 0 0 1-1.21-1l-.66-6.68a1.11 1.11 0 0 1 1-1.21l8.66-.85c.61-.06 1.15.39 1.21.99l.66 6.68Z" fill="url(#k)"/><path d="M105.199 132.22c.06.61-.39 1.15-1 1.21l-8.66.86c-.61.05-1.15-.39-1.21-1l-.66-6.68c-.06-.61.39-1.15.99-1.22l8.66-.85c.61-.06 1.15.39 1.21 1l.66 6.68h.01Z" fill="url(#l)"/><path d="M118.739 130.88c.06.61-.39 1.16-1 1.21l-8.66.85c-.61.06-1.16-.39-1.21-1l-.66-6.68c-.06-.61.39-1.16 1-1.21l8.65-.85c.61-.06 1.16.39 1.22 1l.66 6.68Z" fill="url(#m)"/><path d="M132.27 129.55c.06.61-.39 1.15-.99 1.22l-8.66.85c-.6.06-1.15-.39-1.21-1l-.66-6.68c-.06-.61.39-1.15.99-1.21l8.66-.86c.61-.06 1.15.39 1.21 1l.66 6.68Z" fill="url(#n)"/><path d="M145.81 128.22c.06.61-.39 1.16-1 1.21l-8.66.85a1.11 1.11 0 0 1-1.21-1l-.66-6.68a1.12 1.12 0 0 1 1-1.22l8.66-.85c.6-.06 1.15.39 1.21 1l.66 6.68v.01Z" fill="url(#o)"/><path d="M159.35 126.89c.06.61-.39 1.15-1 1.21l-8.66.86a1.11 1.11 0 0 1-1.21-1l-.66-6.69c-.06-.61.38-1.16.99-1.21l8.66-.86c.61-.06 1.15.39 1.21 1l.66 6.68.01.01Z" fill="url(#p)"/><path d="M106.459 145.05c.06.61-.39 1.15-1 1.21l-8.66.85c-.6.06-1.15-.38-1.21-.99l-.66-6.68c-.06-.61.39-1.15.99-1.22l8.66-.85c.61-.06 1.15.39 1.21.99l.66 6.68.01.01Z" fill="url(#q)"/><path d="M119.999 143.72c.06.61-.39 1.15-1 1.21l-8.65.85c-.61.06-1.16-.39-1.22-.99l-.66-6.68c-.06-.6.39-1.15.99-1.22l8.66-.85c.61-.06 1.16.39 1.22 1l.66 6.68Z" fill="url(#r)"/><path d="M133.539 142.38c.06.61-.39 1.16-.99 1.22l-8.66.85c-.6.06-1.15-.39-1.21-1l-.66-6.68c-.06-.61.38-1.15.99-1.22l8.66-.85c.61-.06 1.16.39 1.21 1l.66 6.68Z" fill="url(#s)"/><path d="M147.079 141.05c.06.61-.39 1.16-1 1.22l-8.66.85a1.11 1.11 0 0 1-1.21-1l-.66-6.68c-.06-.61.39-1.15 1-1.22l8.65-.85c.61-.06 1.16.39 1.22 1l.66 6.68Z" fill="url(#t)"/><path d="M160.61 139.72c.06.61-.39 1.15-1 1.21l-8.66.85a1.11 1.11 0 0 1-1.21-.99l-.66-6.69c-.06-.6.39-1.15 1-1.21l8.66-.85c.61-.05 1.15.39 1.21 1l.66 6.69v-.01Z" fill="url(#u)"/><path d="M107.719 157.89c.06.61-.38 1.15-.99 1.21l-8.66.85c-.6.06-1.15-.39-1.21-.99l-.66-6.69c-.05-.61.39-1.15 1-1.21l8.66-.86c.61-.06 1.15.39 1.21 1l.66 6.69h-.01Z" fill="url(#v)"/><path d="M121.259 156.55c.06.61-.39 1.15-1 1.21l-8.66.85c-.61.06-1.16-.39-1.22-.99l-.66-6.69c-.06-.61.39-1.16 1-1.21l8.65-.86c.61-.06 1.16.39 1.22 1l.66 6.69h.01Z" fill="url(#w)"/><path d="M134.799 155.22c.06.61-.39 1.15-1 1.21l-8.66.85a1.11 1.11 0 0 1-1.21-1l-.66-6.69c-.06-.61.38-1.15.99-1.21l8.66-.85c.61-.06 1.15.39 1.21.99l.66 6.69.01.01Z" fill="url(#x)"/><path d="M148.339 153.89c.06.61-.39 1.15-.99 1.21l-8.66.85a1.11 1.11 0 0 1-1.21-.99l-.66-6.69a1.11 1.11 0 0 1 1-1.21l8.65-.85c.61-.06 1.16.39 1.22.99l.66 6.69h-.01Z" fill="url(#y)"/><path d="M108.989 170.72c.06.6-.39 1.15-1 1.21l-8.66.85a1.11 1.11 0 0 1-1.21-1l-.66-6.68c-.06-.61.39-1.16.99-1.22l8.66-.86c.61-.05 1.15.39 1.21 1l.66 6.68.01.02Z" fill="url(#z)"/><path d="M122.53 169.38c.06.61-.39 1.16-1 1.22l-8.66.85c-.61.06-1.16-.39-1.21-1l-.66-6.68c-.05-.61.39-1.16 1-1.21l8.65-.85c.61-.06 1.16.39 1.22 1l.66 6.68v-.01Z" fill="url(#A)"/><path d="M136.07 168.05c.06.61-.39 1.16-1 1.22l-8.66.85c-.6.06-1.15-.39-1.21-1l-.66-6.68a1.12 1.12 0 0 1 1-1.22l8.66-.85c.61-.06 1.15.39 1.21 1l.66 6.68Z" fill="url(#B)"/><path d="M149.61 166.72c.06.61-.39 1.16-1 1.22l-8.66.85a1.11 1.11 0 0 1-1.21-1l-.66-6.68c-.06-.61.39-1.16.99-1.22l8.66-.85c.6-.06 1.15.39 1.21 1l.66 6.68h.01Z" fill="url(#C)"/><path d="M163.139 165.39c.06.61-.39 1.16-1 1.22l-8.66.85a1.11 1.11 0 0 1-1.21-1l-1.92-19.52a1.11 1.11 0 0 1 1-1.21l8.66-.85c.61-.06 1.15.39 1.22.99l1.92 19.52h-.01Z" fill="url(#D)"/><defs><radialGradient id="a" cx="0" cy="0" r="1" gradientUnits="userSpaceOnUse" gradientTransform="rotate(59.26 49.357 -58.628) scale(380.023)"><stop offset=".54" stop-color="#fff"/><stop offset=".7" stop-color="#006BFA"/><stop offset=".71" stop-color="#0365EC"/><stop offset=".72" stop-color="#085BD5"/><stop offset=".73" stop-color="#0F4EB6"/><stop offset=".74" stop-color="#202D66"/></radialGradient><radialGradient id="b" cx="0" cy="0" r="1" gradientUnits="userSpaceOnUse" gradientTransform="rotate(12.21 -360.13 435.135) scale(282.254 297.11)"><stop stop-color="#F5F9FF"/><stop offset=".1" stop-color="#F0F6FF"/><stop offset=".21" stop-color="#E3EFFF"/><stop offset=".32" stop-color="#CEE3FF"/><stop offset=".44" stop-color="#B1D2FF"/><stop offset=".55" stop-color="#8ABCFF"/><stop offset=".67" stop-color="#5BA1FF"/><stop offset=".79" stop-color="#2582FF"/><stop offset=".86" stop-color="#006DFF"/></radialGradient><radialGradient id="e" cx="0" cy="0" r="1" gradientUnits="userSpaceOnUse" gradientTransform="rotate(-6.03 2131.755 -503.917) scale(251.18)"><stop stop-color="#202D66"/><stop offset=".03" stop-color="#154299"/><stop offset=".06" stop-color="#0C54C5"/><stop offset=".09" stop-color="#0562E4"/><stop offset=".11" stop-color="#016AF8"/><stop offset=".13" stop-color="#006DFF"/><stop offset=".15" stop-color="#0972FF"/><stop offset=".29" stop-color="#4997FF"/><stop offset=".42" stop-color="#81B6FF"/><stop offset=".56" stop-color="#AED0FF"/><stop offset=".68" stop-color="#D1E4FF"/><stop offset=".8" stop-color="#EAF3FF"/><stop offset=".91" stop-color="#F9FBFF"/><stop offset=".99" stop-color="#fff"/></radialGradient><radialGradient id="f" cx="0" cy="0" r="1" gradientUnits="userSpaceOnUse" gradientTransform="rotate(-6.03 1144.48 -527.142) scale(168.65)"><stop stop-color="#202D66"/><stop offset=".1" stop-color="#154299"/><stop offset=".2" stop-color="#0C54C5"/><stop offset=".29" stop-color="#0562E4"/><stop offset=".37" stop-color="#016AF8"/><stop offset=".42" stop-color="#006DFF"/><stop offset=".63" stop-color="#63A5FF"/><stop offset=".88" stop-color="#D2E5FF"/><stop offset=".99" stop-color="#fff"/></radialGradient><radialGradient id="g" cx="0" cy="0" r="1" gradientUnits="userSpaceOnUse" gradientTransform="translate(86.869 166.45) scale(129.64)"><stop offset=".21" stop-color="#202D66"/><stop offset=".4" stop-color="#154299"/><stop offset=".59" stop-color="#0C54C5"/><stop offset=".76" stop-color="#0562E4"/><stop offset=".9" stop-color="#016AF8"/><stop offset="1" stop-color="#006DFF"/></radialGradient><radialGradient id="h" cx="0" cy="0" r="1" gradientUnits="userSpaceOnUse" gradientTransform="rotate(-6.03 1761.09 -899.33) scale(166.82)"><stop offset=".21" stop-color="#202D66"/><stop offset=".4" stop-color="#154299"/><stop offset=".59" stop-color="#0C54C5"/><stop offset=".76" stop-color="#0562E4"/><stop offset=".9" stop-color="#016AF8"/><stop offset="1" stop-color="#006DFF"/></radialGradient><radialGradient id="i" cx="0" cy="0" r="1" gradientUnits="userSpaceOnUse" gradientTransform="rotate(-6.03 1761.09 -899.34) scale(166.82)"><stop offset=".21" stop-color="#202D66"/><stop offset=".4" stop-color="#154299"/><stop offset=".59" stop-color="#0C54C5"/><stop offset=".76" stop-color="#0562E4"/><stop offset=".9" stop-color="#016AF8"/><stop offset="1" stop-color="#006DFF"/></radialGradient><radialGradient id="j" cx="0" cy="0" r="1" gradientUnits="userSpaceOnUse" gradientTransform="rotate(-6.03 1761.09 -899.34) scale(166.82)"><stop offset=".21" stop-color="#202D66"/><stop offset=".4" stop-color="#154299"/><stop offset=".59" stop-color="#0C54C5"/><stop offset=".76" stop-color="#0562E4"/><stop offset=".9" stop-color="#016AF8"/><stop offset="1" stop-color="#006DFF"/></radialGradient><radialGradient id="k" cx="0" cy="0" r="1" gradientUnits="userSpaceOnUse" gradientTransform="rotate(-6.03 1761.09 -899.34) scale(166.82)"><stop offset=".21" stop-color="#202D66"/><stop offset=".4" stop-color="#154299"/><stop offset=".59" stop-color="#0C54C5"/><stop offset=".76" stop-color="#0562E4"/><stop offset=".9" stop-color="#016AF8"/><stop offset="1" stop-color="#006DFF"/></radialGradient><radialGradient id="l" cx="0" cy="0" r="1" gradientUnits="userSpaceOnUse" gradientTransform="rotate(-6.03 1761.09 -899.35) scale(166.82)"><stop offset=".21" stop-color="#202D66"/><stop offset=".4" stop-color="#154299"/><stop offset=".59" stop-color="#0C54C5"/><stop offset=".76" stop-color="#0562E4"/><stop offset=".9" stop-color="#016AF8"/><stop offset="1" stop-color="#006DFF"/></radialGradient><radialGradient id="m" cx="0" cy="0" r="1" gradientUnits="userSpaceOnUse" gradientTransform="rotate(-6.03 1635.524 -1047.611) scale(269.74)"><stop offset=".21" stop-color="#202D66"/><stop offset=".4" stop-color="#154299"/><stop offset=".59" stop-color="#0C54C5"/><stop offset=".76" stop-color="#0562E4"/><stop offset=".9" stop-color="#016AF8"/><stop offset="1" stop-color="#006DFF"/></radialGradient><radialGradient id="n" cx="0" cy="0" r="1" gradientUnits="userSpaceOnUse" gradientTransform="rotate(-6.03 1635.524 -1047.611) scale(269.74)"><stop offset=".21" stop-color="#202D66"/><stop offset=".4" stop-color="#154299"/><stop offset=".59" stop-color="#0C54C5"/><stop offset=".76" stop-color="#0562E4"/><stop offset=".9" stop-color="#016AF8"/><stop offset="1" stop-color="#006DFF"/></radialGradient><radialGradient id="o" cx="0" cy="0" r="1" gradientUnits="userSpaceOnUse" gradientTransform="rotate(-6.03 1635.524 -1047.611) scale(269.74)"><stop offset=".21" stop-color="#202D66"/><stop offset=".4" stop-color="#154299"/><stop offset=".59" stop-color="#0C54C5"/><stop offset=".76" stop-color="#0562E4"/><stop offset=".9" stop-color="#016AF8"/><stop offset="1" stop-color="#006DFF"/></radialGradient><radialGradient id="p" cx="0" cy="0" r="1" gradientUnits="userSpaceOnUse" gradientTransform="rotate(-6.03 1761.09 -899.35) scale(166.82)"><stop offset=".21" stop-color="#202D66"/><stop offset=".4" stop-color="#154299"/><stop offset=".59" stop-color="#0C54C5"/><stop offset=".76" stop-color="#0562E4"/><stop offset=".9" stop-color="#016AF8"/><stop offset="1" stop-color="#006DFF"/></radialGradient><radialGradient id="q" cx="0" cy="0" r="1" gradientUnits="userSpaceOnUse" gradientTransform="rotate(-6.03 1761.09 -899.34) scale(166.82)"><stop offset=".21" stop-color="#202D66"/><stop offset=".4" stop-color="#154299"/><stop offset=".59" stop-color="#0C54C5"/><stop offset=".76" stop-color="#0562E4"/><stop offset=".9" stop-color="#016AF8"/><stop offset="1" stop-color="#006DFF"/></radialGradient><radialGradient id="r" cx="0" cy="0" r="1" gradientUnits="userSpaceOnUse" gradientTransform="rotate(-6.03 1635.524 -1047.611) scale(269.74)"><stop offset=".21" stop-color="#202D66"/><stop offset=".4" stop-color="#154299"/><stop offset=".59" stop-color="#0C54C5"/><stop offset=".76" stop-color="#0562E4"/><stop offset=".9" stop-color="#016AF8"/><stop offset="1" stop-color="#006DFF"/></radialGradient><radialGradient id="s" cx="0" cy="0" r="1" gradientUnits="userSpaceOnUse" gradientTransform="rotate(-6.03 1635.524 -1047.611) scale(269.74)"><stop offset=".21" stop-color="#202D66"/><stop offset=".4" stop-color="#154299"/><stop offset=".59" stop-color="#0C54C5"/><stop offset=".76" stop-color="#0562E4"/><stop offset=".9" stop-color="#016AF8"/><stop offset="1" stop-color="#006DFF"/></radialGradient><radialGradient id="t" cx="0" cy="0" r="1" gradientUnits="userSpaceOnUse" gradientTransform="rotate(-6.03 1635.524 -1047.611) scale(269.74)"><stop offset=".21" stop-color="#202D66"/><stop offset=".4" stop-color="#154299"/><stop offset=".59" stop-color="#0C54C5"/><stop offset=".76" stop-color="#0562E4"/><stop offset=".9" stop-color="#016AF8"/><stop offset="1" stop-color="#006DFF"/></radialGradient><radialGradient id="u" cx="0" cy="0" r="1" gradientUnits="userSpaceOnUse" gradientTransform="rotate(-6.03 1761.09 -899.35) scale(166.82)"><stop offset=".21" stop-color="#202D66"/><stop offset=".4" stop-color="#154299"/><stop offset=".59" stop-color="#0C54C5"/><stop offset=".76" stop-color="#0562E4"/><stop offset=".9" stop-color="#016AF8"/><stop offset="1" stop-color="#006DFF"/></radialGradient><radialGradient id="v" cx="0" cy="0" r="1" gradientUnits="userSpaceOnUse" gradientTransform="rotate(-6.03 1761.09 -899.34) scale(166.82)"><stop offset=".21" stop-color="#202D66"/><stop offset=".4" stop-color="#154299"/><stop offset=".59" stop-color="#0C54C5"/><stop offset=".76" stop-color="#0562E4"/><stop offset=".9" stop-color="#016AF8"/><stop offset="1" stop-color="#006DFF"/></radialGradient><radialGradient id="w" cx="0" cy="0" r="1" gradientUnits="userSpaceOnUse" gradientTransform="rotate(-6.03 1635.524 -1047.611) scale(269.74)"><stop offset=".21" stop-color="#202D66"/><stop offset=".4" stop-color="#154299"/><stop offset=".59" stop-color="#0C54C5"/><stop offset=".76" stop-color="#0562E4"/><stop offset=".9" stop-color="#016AF8"/><stop offset="1" stop-color="#006DFF"/></radialGradient><radialGradient id="x" cx="0" cy="0" r="1" gradientUnits="userSpaceOnUse" gradientTransform="rotate(-6.03 1635.524 -1047.611) scale(269.74)"><stop offset=".21" stop-color="#202D66"/><stop offset=".4" stop-color="#154299"/><stop offset=".59" stop-color="#0C54C5"/><stop offset=".76" stop-color="#0562E4"/><stop offset=".9" stop-color="#016AF8"/><stop offset="1" stop-color="#006DFF"/></radialGradient><radialGradient id="y" cx="0" cy="0" r="1" gradientUnits="userSpaceOnUse" gradientTransform="rotate(-6.03 1635.524 -1047.611) scale(269.74)"><stop offset=".21" stop-color="#202D66"/><stop offset=".4" stop-color="#154299"/><stop offset=".59" stop-color="#0C54C5"/><stop offset=".76" stop-color="#0562E4"/><stop offset=".9" stop-color="#016AF8"/><stop offset="1" stop-color="#006DFF"/></radialGradient><radialGradient id="z" cx="0" cy="0" r="1" gradientUnits="userSpaceOnUse" gradientTransform="rotate(-6.03 1761.09 -899.35) scale(166.82)"><stop offset=".21" stop-color="#202D66"/><stop offset=".4" stop-color="#154299"/><stop offset=".59" stop-color="#0C54C5"/><stop offset=".76" stop-color="#0562E4"/><stop offset=".9" stop-color="#016AF8"/><stop offset="1" stop-color="#006DFF"/></radialGradient><radialGradient id="A" cx="0" cy="0" r="1" gradientUnits="userSpaceOnUse" gradientTransform="rotate(-6.03 1635.524 -1047.62) scale(269.74)"><stop offset=".21" stop-color="#202D66"/><stop offset=".4" stop-color="#154299"/><stop offset=".59" stop-color="#0C54C5"/><stop offset=".76" stop-color="#0562E4"/><stop offset=".9" stop-color="#016AF8"/><stop offset="1" stop-color="#006DFF"/></radialGradient><radialGradient id="B" cx="0" cy="0" r="1" gradientUnits="userSpaceOnUse" gradientTransform="rotate(-6.03 1635.524 -1047.611) scale(269.74)"><stop offset=".21" stop-color="#202D66"/><stop offset=".4" stop-color="#154299"/><stop offset=".59" stop-color="#0C54C5"/><stop offset=".76" stop-color="#0562E4"/><stop offset=".9" stop-color="#016AF8"/><stop offset="1" stop-color="#006DFF"/></radialGradient><radialGradient id="C" cx="0" cy="0" r="1" gradientUnits="userSpaceOnUse" gradientTransform="rotate(-6.03 1761.09 -899.35) scale(166.82)"><stop offset=".21" stop-color="#202D66"/><stop offset=".4" stop-color="#154299"/><stop offset=".59" stop-color="#0C54C5"/><stop offset=".76" stop-color="#0562E4"/><stop offset=".9" stop-color="#016AF8"/><stop offset="1" stop-color="#006DFF"/></radialGradient><radialGradient id="D" cx="0" cy="0" r="1" gradientUnits="userSpaceOnUse" gradientTransform="rotate(-6.03 1761.09 -899.34) scale(166.82)"><stop offset=".21" stop-color="#202D66"/><stop offset=".4" stop-color="#154299"/><stop offset=".59" stop-color="#0C54C5"/><stop offset=".76" stop-color="#0562E4"/><stop offset=".9" stop-color="#016AF8"/><stop offset="1" stop-color="#006DFF"/></radialGradient><linearGradient id="c" x1="60.504" y1="17.774" x2="35.216" y2="83.71" gradientUnits="userSpaceOnUse"><stop stop-color="#F5F9FF"/><stop offset=".06" stop-color="#E8F1FF"/><stop offset=".17" stop-color="#C5DEFF"/><stop offset=".32" stop-color="#8EBEFF"/><stop offset=".49" stop-color="#4293FF"/><stop offset=".64" stop-color="#006DFF"/></linearGradient><linearGradient id="d" x1="55.04" y1="82.77" x2="163.554" y2="79.026" gradientUnits="userSpaceOnUse"><stop offset=".06" stop-color="#202D66"/><stop offset=".28" stop-color="#193984" stop-opacity=".8"/><stop offset=".71" stop-color="#0959D1" stop-opacity=".3"/><stop offset=".95" stop-color="#006DFF" stop-opacity="0"/></linearGradient></defs></svg>