<svg width="200" height="200" viewBox="0 0 200 200" fill="none" xmlns="http://www.w3.org/2000/svg">
<path d="M181.387 101.955C175.855 65.0193 141.425 39.5708 104.489 45.1031C67.5524 50.6354 42.093 85.0766 47.6253 122.013C53.1576 158.949 87.5988 184.408 124.535 178.865C161.471 173.333 186.93 138.892 181.387 101.955ZM53.4288 121.134C48.3738 87.398 71.6202 55.9507 105.356 50.8957C139.092 45.8407 170.54 69.0872 175.595 102.823C180.65 136.559 157.403 168.007 123.667 173.062C89.931 178.117 58.4838 154.87 53.4288 121.134Z" fill="url(#paint0_radial_25067_3898)"/>
<path d="M159.226 170.901C171.076 170.901 180.682 161.295 180.682 149.445C180.682 137.595 171.076 127.988 159.226 127.988C147.375 127.988 137.769 137.595 137.769 149.445C137.769 161.295 147.375 170.901 159.226 170.901Z" fill="url(#paint1_radial_25067_3898)"/>
<path d="M170.827 147.44H161.227V137.84H157.224V147.44H147.624V151.454H157.224V161.054H161.227V151.454H170.827V147.44Z" fill="white"/>
<path d="M31.9101 160.699L116.035 169.666C118.995 169.982 121.688 167.656 122.019 164.495L132.543 57.1197L118.471 38.3626L45.4599 30.875C42.5001 30.5589 39.807 32.8846 39.4759 36.0459L27.1234 154.378C26.7926 157.537 28.9478 160.38 31.9076 160.696L31.9101 160.699Z" fill="#E5E6EB"/>
<path d="M118.487 38.0195L132.545 56.7623L124.46 56.0587C120.82 55.9736 117.965 52.7603 118.086 48.8797L118.487 38.0195Z" fill="#E5E6EB"/>
<path d="M36.0693 161.199L120.193 170.166C123.153 170.482 125.846 168.156 126.177 164.995L136.702 57.6197L122.63 38.8626L49.619 31.375C46.6592 31.0589 43.9661 33.3846 43.635 36.5459L31.2825 154.878C30.9517 158.037 33.1069 160.88 36.0667 161.196L36.0693 161.199Z" fill="#E5E6EB"/>
<path d="M122.646 38.5195L136.703 57.2623L128.619 56.5587C124.978 56.4736 122.124 53.2603 122.244 49.3797L122.646 38.5195Z" fill="#E5E6EB"/>
<path d="M35.7764 160.781L119.901 169.748C122.861 170.064 125.554 167.738 125.885 164.577L136.409 57.2017L122.338 38.4446L49.3261 30.957C46.3663 30.6409 43.6732 32.9666 43.3421 36.128L30.9896 154.46C30.6588 157.619 32.814 160.462 35.7738 160.778L35.7764 160.781Z" fill="#E5E6EB"/>
<path d="M122.353 38.1016L136.411 56.8444L128.326 56.1407C124.686 56.0556 121.832 52.8424 121.952 48.9618L122.353 38.1016Z" fill="#E5E6EB"/>
<path d="M39.6591 161.477L123.784 170.443C126.744 170.759 129.437 168.434 129.768 165.272L140.292 57.8969L126.22 39.1399L53.2088 31.6523C50.249 31.3361 47.5559 33.6618 47.2248 36.8232L34.8724 155.156C34.5416 158.314 36.6967 161.157 39.6565 161.473L39.6591 161.477Z" fill="#E5E6EB"/>
<path d="M89.7821 56.7531L52.0527 52.6445L50.7956 64.7642L88.525 68.8728L89.7821 56.7531Z" fill="#E5E6EB"/>
<path d="M88.0512 73.052L50.3184 68.9414L48.9564 82.0777L86.6892 86.1883L88.0512 73.052Z" fill="#E5E6EB"/>
<path d="M86.3182 89.3507L48.582 85.2383L47.1152 99.3913L84.8513 103.504L86.3182 89.3507Z" fill="#E5E6EB"/>
<path d="M84.4779 106.666L46.7451 102.555L45.3831 115.691L83.116 119.802L84.4779 106.666Z" fill="#E5E6EB"/>
<path d="M82.6376 123.98L44.9082 119.871L43.6511 131.991L81.3805 136.099L82.6376 123.98Z" fill="#E5E6EB"/>
<path d="M80.9061 140.277L43.1768 136.168L41.9197 148.288L79.6491 152.396L80.9061 140.277Z" fill="#E5E6EB"/>
<path d="M131.545 61.1906L93.8154 57.082L92.5583 69.2017L130.288 73.3103L131.545 61.1906Z" fill="#E5E6EB"/>
<path d="M129.813 77.4895L92.0801 73.3789L90.7181 86.5152L128.451 90.6258L129.813 77.4895Z" fill="#E5E6EB"/>
<path d="M128.08 93.7882L90.3438 89.6758L88.8769 103.829L126.613 107.941L128.08 93.7882Z" fill="#E5E6EB"/>
<path d="M126.24 111.103L88.5068 106.992L87.1449 120.128L124.878 124.239L126.24 111.103Z" fill="#E5E6EB"/>
<path d="M124.4 128.418L86.6709 124.309L85.4138 136.429L123.143 140.537L124.4 128.418Z" fill="#E5E6EB"/>
<path d="M122.668 144.714L84.9385 140.605L83.6814 152.725L121.411 156.833L122.668 144.714Z" fill="#E5E6EB"/>
<path d="M126.236 38.7969L140.294 57.5397L132.209 56.836C128.569 56.7509 125.714 53.5377 125.835 49.6571L126.236 38.7969Z" fill="#E5E6EB"/>
<path d="M87.4721 77.6842L51.273 73.3429C50.5034 73.2502 49.9458 72.5393 50.0299 71.7571L54.236 32.4591C54.3201 31.6768 55.0138 31.1159 55.7833 31.2085L91.9825 35.5499C92.752 35.6426 93.3097 36.3535 93.2256 37.1357L89.0194 76.4337C88.9353 77.2159 88.2417 77.7769 87.4721 77.6842Z" fill="#E5E6EB"/>
<path d="M65.667 58.8297C65.3954 58.8491 65.1178 58.8414 64.8372 58.8069L64.2953 58.7459C61.4135 58.3982 59.3259 55.7417 59.6396 52.8203L60.4476 45.2932C60.5094 44.7065 61.036 44.2837 61.6117 44.3543C62.1906 44.4224 62.6097 44.9545 62.5476 45.5441L61.7396 53.0712C61.5525 54.8194 62.802 56.4089 64.5267 56.6147L65.0686 56.6756C66.4089 56.8411 67.6172 55.8661 67.7624 54.5069L69.8089 35.4542C69.9585 34.0514 68.9556 32.7777 67.5749 32.6106L66.6466 32.5003C65.1738 32.3258 62.6985 32.0298 62.6985 32.0298C63.6867 30.8507 65.2272 30.1775 66.8688 30.3739L67.7971 30.4843C70.3384 30.7877 72.1793 33.1286 71.9032 35.7044L69.8567 54.7572C69.6136 57.0047 67.8122 58.6889 65.6641 58.8294L65.667 58.8297Z" fill="#E5E6EB"/>
<path d="M27.5028 156.234L111.627 165.201C114.587 165.517 117.28 163.192 117.611 160.03L128.135 52.6547L114.064 33.8977L41.0526 26.4101C38.0928 26.0939 35.3996 28.4196 35.0685 31.581L22.7161 149.913C22.3853 153.072 24.5405 155.915 27.5003 156.231L27.5028 156.234Z" fill="url(#paint2_radial_25067_3898)"/>
<path d="M114.079 33.5547L128.137 52.2975L120.052 51.5938C116.412 51.5087 113.558 48.2955 113.678 44.4149L114.079 33.5547Z" fill="url(#paint3_radial_25067_3898)"/>
<path d="M31.662 156.738L115.786 165.705C118.746 166.021 121.439 163.695 121.77 160.534L132.295 53.1586L118.223 34.4016L45.2117 26.914C42.2519 26.5978 39.5588 28.9235 39.2277 32.0849L26.8753 150.417C26.5445 153.576 28.6997 156.419 31.6594 156.735L31.662 156.738Z" fill="url(#paint4_radial_25067_3898)"/>
<path d="M118.238 34.0586L132.296 52.8014L124.212 52.0977C120.571 52.0126 117.717 48.7994 117.837 44.9188L118.238 34.0586Z" fill="url(#paint5_radial_25067_3898)"/>
<path d="M31.3692 156.316L115.493 165.283C118.453 165.599 121.146 163.274 121.477 160.112L132.002 52.7369L117.93 33.9798L44.9189 26.4922C41.9591 26.176 39.266 28.5018 38.9349 31.6631L26.5824 149.995C26.2516 153.154 28.4068 155.997 31.3666 156.313L31.3692 156.316Z" fill="url(#paint6_radial_25067_3898)"/>
<path d="M117.945 33.6367L132.003 52.3795L123.919 51.6759C120.278 51.5907 117.424 48.3775 117.544 44.4969L117.945 33.6367Z" fill="url(#paint7_radial_25067_3898)"/>
<path d="M35.2519 157.016L119.377 165.982C122.336 166.298 125.029 163.973 125.361 160.811L135.885 53.4361L121.813 34.679L48.8017 27.1914C45.8419 26.8753 43.1487 29.201 42.8177 32.3623L30.4652 150.695C30.1344 153.853 32.2896 156.696 35.2494 157.012L35.2519 157.016Z" fill="url(#paint8_radial_25067_3898)"/>
<path d="M85.3759 52.4015L47.6465 48.293L46.3894 60.4127L84.1188 64.5212L85.3759 52.4015Z" fill="white"/>
<path d="M83.6439 68.7005L45.9111 64.5898L44.5492 77.7261L82.282 81.8368L83.6439 68.7005Z" fill="white"/>
<path d="M81.9119 84.9992L44.1758 80.8867L42.7089 95.0397L80.4451 99.1522L81.9119 84.9992Z" fill="white"/>
<path d="M80.0717 102.314L42.3389 98.2031L40.9769 111.339L78.7097 115.45L80.0717 102.314Z" fill="white"/>
<path d="M78.2313 119.629L40.502 115.52L39.2449 127.64L76.9742 131.748L78.2313 119.629Z" fill="white"/>
<path d="M76.4989 135.925L38.7695 131.816L37.5124 143.936L75.2418 148.044L76.4989 135.925Z" fill="white"/>
<path d="M127.139 56.839L89.4092 52.7305L88.1521 64.8502L125.881 68.9587L127.139 56.839Z" fill="white"/>
<path d="M125.406 73.138L87.6729 69.0273L86.3109 82.1636L124.044 86.2743L125.406 73.138Z" fill="white"/>
<path d="M123.674 89.4367L85.9375 85.3242L84.4706 99.4772L122.207 103.59L123.674 89.4367Z" fill="white"/>
<path d="M121.832 106.752L84.0996 102.641L82.7376 115.777L120.47 119.888L121.832 106.752Z" fill="white"/>
<path d="M119.994 124.066L82.2646 119.957L81.0076 132.077L118.737 136.185L119.994 124.066Z" fill="white"/>
<path d="M118.261 140.363L80.5312 136.254L79.2742 148.374L117.004 152.482L118.261 140.363Z" fill="white"/>
<path d="M121.829 34.3359L135.886 53.0787L127.802 52.3751C124.161 52.29 121.307 49.0767 121.428 45.1961L121.829 34.3359Z" fill="url(#paint9_linear_25067_3898)"/>
<path d="M83.0648 73.2272L46.8657 68.8859C46.0961 68.7932 45.5385 68.0823 45.6226 67.3001L49.8287 28.002C49.9128 27.2198 50.6065 26.6588 51.376 26.7515L87.5753 31.0929C88.3448 31.1855 88.9024 31.8964 88.8183 32.6787L84.6121 71.9767C84.528 72.7589 83.8344 73.3199 83.0648 73.2272Z" fill="url(#paint10_linear_25067_3898)"/>
<path d="M61.2598 54.3726C60.9882 54.3921 60.7106 54.3843 60.43 54.3498L59.8881 54.2889C57.0062 53.9412 54.9187 51.2846 55.2324 48.3632L56.0404 40.8362C56.1022 40.2494 56.6288 39.8267 57.2045 39.8973C57.7833 39.9653 58.2025 40.4974 58.1404 41.0871L57.3324 48.6142C57.1453 50.3624 58.3947 51.9519 60.1195 52.1577L60.6614 52.2186C62.0016 52.3841 63.21 51.409 63.3552 50.0499L65.4017 30.9971C65.5512 29.5944 64.5484 28.3207 63.1677 28.1536L62.2393 28.0433C60.7666 27.8688 58.2913 27.5727 58.2913 27.5727C59.2795 26.3937 60.8199 25.7205 62.4616 25.9169L63.3899 26.0272C65.9311 26.3307 67.772 28.6715 67.496 31.2474L65.4495 50.3002C65.2064 52.5477 63.405 54.2319 61.2569 54.3723L61.2598 54.3726Z" fill="url(#paint11_radial_25067_3898)"/>
<defs>
<radialGradient id="paint0_radial_25067_3898" cx="0" cy="0" r="1" gradientUnits="userSpaceOnUse" gradientTransform="translate(114.357 111.948) rotate(81.47) scale(168.507 168.507)">
<stop offset="0.232019" stop-color="white"/>
<stop offset="0.629023" stop-color="#006DFF"/>
<stop offset="0.970545" stop-color="#202D66"/>
</radialGradient>
<radialGradient id="paint1_radial_25067_3898" cx="0" cy="0" r="1" gradientUnits="userSpaceOnUse" gradientTransform="translate(189.899 132.419) rotate(140.95) scale(98.9555 98.9555)">
<stop stop-color="#006DFF"/>
<stop offset="0.39" stop-color="#104BAD"/>
<stop offset="0.67" stop-color="#1B357A"/>
<stop offset="0.81" stop-color="#202D66"/>
</radialGradient>
<radialGradient id="paint2_radial_25067_3898" cx="0" cy="0" r="1" gradientUnits="userSpaceOnUse" gradientTransform="translate(70.2982 19.3664) rotate(6.43367) scale(151.759 154.017)">
<stop stop-color="#F5F9FF"/>
<stop offset="0.13" stop-color="#CAE0FF"/>
<stop offset="0.4" stop-color="#74AFFF"/>
<stop offset="0.62" stop-color="#358BFF"/>
<stop offset="0.78" stop-color="#0E75FF"/>
<stop offset="0.86" stop-color="#006DFF"/>
</radialGradient>
<radialGradient id="paint3_radial_25067_3898" cx="0" cy="0" r="1" gradientUnits="userSpaceOnUse" gradientTransform="translate(70.3577 19.0316) rotate(6.43516) scale(151.609 153.9)">
<stop stop-color="#F5F9FF"/>
<stop offset="0.1" stop-color="#F0F6FF"/>
<stop offset="0.21" stop-color="#E3EFFF"/>
<stop offset="0.32" stop-color="#CEE3FF"/>
<stop offset="0.44" stop-color="#B1D2FF"/>
<stop offset="0.55" stop-color="#8ABCFF"/>
<stop offset="0.67" stop-color="#5BA1FF"/>
<stop offset="0.79" stop-color="#2582FF"/>
<stop offset="0.86" stop-color="#006DFF"/>
</radialGradient>
<radialGradient id="paint4_radial_25067_3898" cx="0" cy="0" r="1" gradientUnits="userSpaceOnUse" gradientTransform="translate(114.68 25.2013) rotate(6.43367) scale(230.225 233.65)">
<stop stop-color="#F5F9FF"/>
<stop offset="0.1" stop-color="#F0F6FF"/>
<stop offset="0.21" stop-color="#E3EFFF"/>
<stop offset="0.32" stop-color="#CEE3FF"/>
<stop offset="0.44" stop-color="#B1D2FF"/>
<stop offset="0.55" stop-color="#8ABCFF"/>
<stop offset="0.67" stop-color="#5BA1FF"/>
<stop offset="0.79" stop-color="#2582FF"/>
<stop offset="0.86" stop-color="#006DFF"/>
</radialGradient>
<radialGradient id="paint5_radial_25067_3898" cx="0" cy="0" r="1" gradientUnits="userSpaceOnUse" gradientTransform="translate(114.7 24.8624) rotate(6.43516) scale(229.996 233.472)">
<stop stop-color="#F5F9FF"/>
<stop offset="0.1" stop-color="#F0F6FF"/>
<stop offset="0.21" stop-color="#E3EFFF"/>
<stop offset="0.32" stop-color="#CEE3FF"/>
<stop offset="0.44" stop-color="#B1D2FF"/>
<stop offset="0.55" stop-color="#8ABCFF"/>
<stop offset="0.67" stop-color="#5BA1FF"/>
<stop offset="0.79" stop-color="#2582FF"/>
<stop offset="0.86" stop-color="#006DFF"/>
</radialGradient>
<radialGradient id="paint6_radial_25067_3898" cx="0" cy="0" r="1" gradientUnits="userSpaceOnUse" gradientTransform="translate(114.387 24.7824) rotate(6.43367) scale(230.225 233.65)">
<stop stop-color="#F5F9FF"/>
<stop offset="0.1" stop-color="#F0F6FF"/>
<stop offset="0.21" stop-color="#E3EFFF"/>
<stop offset="0.32" stop-color="#CEE3FF"/>
<stop offset="0.44" stop-color="#B1D2FF"/>
<stop offset="0.55" stop-color="#8ABCFF"/>
<stop offset="0.67" stop-color="#5BA1FF"/>
<stop offset="0.79" stop-color="#2582FF"/>
<stop offset="0.86" stop-color="#006DFF"/>
</radialGradient>
<radialGradient id="paint7_radial_25067_3898" cx="0" cy="0" r="1" gradientUnits="userSpaceOnUse" gradientTransform="translate(114.406 24.4434) rotate(6.43516) scale(229.997 233.472)">
<stop stop-color="#F5F9FF"/>
<stop offset="0.1" stop-color="#F0F6FF"/>
<stop offset="0.21" stop-color="#E3EFFF"/>
<stop offset="0.32" stop-color="#CEE3FF"/>
<stop offset="0.44" stop-color="#B1D2FF"/>
<stop offset="0.55" stop-color="#8ABCFF"/>
<stop offset="0.67" stop-color="#5BA1FF"/>
<stop offset="0.79" stop-color="#2582FF"/>
<stop offset="0.86" stop-color="#006DFF"/>
</radialGradient>
<radialGradient id="paint8_radial_25067_3898" cx="0" cy="0" r="1" gradientUnits="userSpaceOnUse" gradientTransform="translate(87.9457 64.2882) rotate(-173.911) scale(304.512 325.357)">
<stop offset="0.11" stop-color="#F5F9FF"/>
<stop offset="0.23" stop-color="#F1F7FF"/>
<stop offset="0.33" stop-color="#E7F1FF"/>
<stop offset="0.42" stop-color="#D5E6FF"/>
<stop offset="0.51" stop-color="#BCD8FF"/>
<stop offset="0.59" stop-color="#9CC6FF"/>
<stop offset="0.68" stop-color="#74AFFF"/>
<stop offset="0.76" stop-color="#4594FF"/>
<stop offset="0.84" stop-color="#1076FF"/>
<stop offset="0.86" stop-color="#006DFF"/>
</radialGradient>
<linearGradient id="paint9_linear_25067_3898" x1="127.597" y1="32.6063" x2="131.435" y2="109.914" gradientUnits="userSpaceOnUse">
<stop stop-color="#F5F9FF"/>
<stop offset="0.06" stop-color="#E8F1FF"/>
<stop offset="0.17" stop-color="#C5DEFF"/>
<stop offset="0.32" stop-color="#8EBEFF"/>
<stop offset="0.49" stop-color="#4293FF"/>
<stop offset="0.64" stop-color="#006DFF"/>
</linearGradient>
<linearGradient id="paint10_linear_25067_3898" x1="-14.1662" y1="83.2951" x2="146.173" y2="18.7269" gradientUnits="userSpaceOnUse">
<stop offset="0.235905" stop-color="#271A6B"/>
<stop offset="0.715389" stop-color="#026DFE"/>
<stop offset="0.994792" stop-color="white"/>
</linearGradient>
<radialGradient id="paint11_radial_25067_3898" cx="0" cy="0" r="1" gradientUnits="userSpaceOnUse" gradientTransform="translate(65.0082 53.0779) rotate(6.41801) scale(41.3804 41.8904)">
<stop stop-color="#F5F9FF"/>
<stop offset="0.1" stop-color="#F0F6FF"/>
<stop offset="0.21" stop-color="#E3EFFF"/>
<stop offset="0.32" stop-color="#CEE3FF"/>
<stop offset="0.44" stop-color="#B1D2FF"/>
<stop offset="0.55" stop-color="#8ABCFF"/>
<stop offset="0.67" stop-color="#5BA1FF"/>
<stop offset="0.79" stop-color="#2582FF"/>
<stop offset="0.86" stop-color="#006DFF"/>
</radialGradient>
</defs>
</svg>
