<svg width="200" height="200" viewBox="0 0 200 200" fill="none" xmlns="http://www.w3.org/2000/svg"><rect opacity=".1" x="59.975" y="36.025" width="125.073" height="56.706" rx="5.886" fill="#00033B"/><rect x="57.256" y="33.29" width="125.073" height="56.706" rx="5.886" fill="url(#a)"/><path fill="#CDE2FF" d="M113.226 72.453h58.312v2.804h-58.312zM113.226 63.762h58.312v2.804h-58.312zM113.226 55.072h58.312v2.804h-58.312zM113.226 46.381h58.312v2.804h-58.312z"/><path opacity=".2" fill="#87BAFF" d="M67.636 42.789h39.057v35.327H67.636z"/><rect opacity=".1" x="17.67" y="110.004" width="125.073" height="56.706" rx="5.886" fill="#00033B"/><rect x="14.952" y="107.269" width="125.073" height="56.706" rx="5.886" fill="url(#b)"/><path fill="#CDE2FF" d="M70.844 149.271h58.312v2.804H70.844zM70.844 140.581h58.312v2.804H70.844zM70.844 131.89h58.312v2.804H70.844zM70.844 123.199h58.312v2.804H70.844z"/><path opacity=".2" fill="#87BAFF" d="M25.254 119.606h39.057v35.327H25.254z"/><rect opacity=".1" x="27.84" y="63.894" width="146.097" height="66.238" rx="5.886" fill="#00033B"/><rect x="24.666" y="60.7" width="146.097" height="66.238" rx="5.886" fill="url(#c)"/><path d="M40.957 79.14h42.008c.656 0 1.186.53 1.186 1.186v9.608H39.767v-9.608c0-.656.53-1.187 1.186-1.187h.004Z" fill="url(#d)"/><path d="M85.533 89.935h-47.14c-.655 0-1.186.531-1.186 1.186v12.6c0 .655.531 1.187 1.186 1.187h47.14c.655 0 1.186-.532 1.186-1.187v-12.6c0-.655-.53-1.186-1.186-1.186Z" fill="url(#e)"/><path d="M61.153 89.934a2.85 2.85 0 0 0 .087-.685 2.83 2.83 0 0 0-2.823-2.824H45.722a2.83 2.83 0 0 0-2.823 2.824c0 .238.033.463.088.685h18.166ZM80.931 89.934a2.85 2.85 0 0 0 .088-.686 2.83 2.83 0 0 0-2.823-2.824H65.5a2.83 2.83 0 0 0-2.823 2.824c0 .239.034.464.088.686H80.93Z" fill="#F5F9FF"/><path d="M39.767 104.906h6.035v1.521c0 .656-.53 1.186-1.186 1.186h-3.659c-.655 0-1.186-.53-1.186-1.186v-1.521h-.004ZM78.847 104.906h6.035v1.521c0 .656-.53 1.186-1.186 1.186h-3.659c-.655 0-1.186-.53-1.186-1.186v-1.521h-.004Z" fill="#00033B"/><path fill="#CDE2FF" d="M100.47 79.833h58.312v2.804H100.47zM100.47 96.022h58.312v2.804H100.47zM100.47 87.927h58.312v2.804H100.47zM100.47 104.115h58.312v2.804H100.47z"/><path fill-rule="evenodd" clip-rule="evenodd" d="M166.002 132.58v12.874a7.064 7.064 0 0 1-7.064 7.064h-10.302l5.483 5.482a1.177 1.177 0 1 1-1.665 1.665l-7.492-7.492a1.177 1.177 0 0 1 0-1.665l7.492-7.492a1.177 1.177 0 1 1 1.665 1.665l-5.483 5.482h10.302a4.709 4.709 0 0 0 4.709-4.709V132.58h2.355ZM32.481 56.793V43.919a7.064 7.064 0 0 1 7.064-7.064h10.302l-5.482-5.482a1.177 1.177 0 1 1 1.665-1.665l7.492 7.492c.46.46.46 1.205 0 1.665l-7.492 7.492a1.177 1.177 0 0 1-1.665-1.665l5.482-5.482H39.545a4.71 4.71 0 0 0-4.709 4.709v12.874h-2.355Z" fill="#006DFF" fill-opacity=".964"/><defs><radialGradient id="a" cx="0" cy="0" r="1" gradientUnits="userSpaceOnUse" gradientTransform="matrix(335.60987 -126.06858 346.41633 922.20233 -32.632 111.313)"><stop offset=".231" stop-color="#CDE2FF"/><stop offset=".854" stop-color="#fff"/><stop offset="1" stop-color="#CDE2FF"/></radialGradient><radialGradient id="b" cx="0" cy="0" r="1" gradientUnits="userSpaceOnUse" gradientTransform="matrix(335.60987 -126.06858 346.41633 922.20233 -74.937 185.293)"><stop offset=".185" stop-color="#CDE2FF"/><stop offset=".872" stop-color="#fff"/></radialGradient><radialGradient id="c" cx="0" cy="0" r="1" gradientUnits="userSpaceOnUse" gradientTransform="rotate(-20.588 377.834 297.069) scale(418.77 1150.71)"><stop stop-color="#CDE2FF"/><stop offset=".493" stop-color="#fff"/><stop offset="1" stop-color="#CDE2FF"/></radialGradient><radialGradient id="d" cx="0" cy="0" r="1" gradientUnits="userSpaceOnUse" gradientTransform="matrix(-68.32237 41.6289 -41.64446 -68.3479 80.048 70.251)"><stop offset=".05" stop-color="#006DFF"/><stop offset=".22" stop-color="#104BAD"/><stop offset=".34" stop-color="#1B357A"/><stop offset=".4" stop-color="#202D66"/></radialGradient><radialGradient id="e" cx="0" cy="0" r="1" gradientUnits="userSpaceOnUse" gradientTransform="rotate(138.468 36.287 46.12) scale(104.003 104.042)"><stop offset=".18" stop-color="#F5F9FF"/><stop offset=".37" stop-color="#006DFF"/><stop offset=".49" stop-color="#104BAD"/><stop offset=".58" stop-color="#1B357A"/><stop offset=".63" stop-color="#202D66"/></radialGradient></defs></svg>