<svg width="200" height="200" viewBox="0 0 200 200" fill="none" xmlns="http://www.w3.org/2000/svg"><path opacity=".1" fill-rule="evenodd" clip-rule="evenodd" d="M32.815 102.351c0-39.683 32.165-71.857 71.846-71.857 39.681 0 71.846 32.17 71.846 71.857s-32.165 71.861-71.846 71.861c-39.681 0-71.846-32.178-71.846-71.861Z" fill="#00033B"/><path d="M95.34 25.789c-39.68 0-71.846 32.174-71.846 71.857s32.166 71.862 71.847 71.862c39.68 0 71.846-32.175 71.846-71.862S135.021 25.79 95.34 25.79Z" fill="url(#a)"/><path d="M95.34 32.303c-36.082 0-65.331 29.254-65.331 65.342 0 36.088 29.25 65.346 65.332 65.346 36.082 0 65.332-29.254 65.332-65.346s-29.25-65.342-65.332-65.342Z" fill="#fff"/><path d="M95.344 34.943h-.004a2.43 2.43 0 0 0-2.43 2.43V50.07a2.43 2.43 0 0 0 2.43 2.43h.004a2.43 2.43 0 0 0 2.43-2.43V37.373a2.43 2.43 0 0 0-2.43-2.43ZM95.344 141.801h-.004a2.43 2.43 0 0 0-2.43 2.43v12.691a2.43 2.43 0 0 0 2.43 2.43h.004a2.43 2.43 0 0 0 2.43-2.43v-12.691a2.43 2.43 0 0 0-2.43-2.43ZM117.658 58.49a2.423 2.423 0 0 0 3.318-.889l6.351-10.994a2.429 2.429 0 0 0-.893-3.318h-.008a2.423 2.423 0 0 0-3.318.888l-6.347 10.994a2.432 2.432 0 0 0 .888 3.319h.009ZM64.236 151.02h.004a2.431 2.431 0 0 0 3.322-.885l6.347-10.994a2.43 2.43 0 0 0-4.206-2.43l-6.351 10.994a2.432 2.432 0 0 0 .888 3.319l-.004-.004ZM133.996 74.822a2.43 2.43 0 0 0 3.322.901l10.992-6.344a2.435 2.435 0 0 0 .893-3.318v-.008a2.434 2.434 0 0 0-3.322-.893l-10.993 6.348a2.43 2.43 0 0 0-.892 3.314ZM41.475 128.249a2.428 2.428 0 0 0 3.318.892l10.993-6.343a2.432 2.432 0 0 0-2.43-4.211l-10.993 6.347a2.43 2.43 0 0 0-.888 3.319v-.004ZM142.406 99.577H155.1a2.431 2.431 0 0 0 0-4.86h-12.694a2.431 2.431 0 0 0 0 4.86ZM48.26 94.717H35.572a2.43 2.43 0 0 0 0 4.86h12.69a2.43 2.43 0 0 0 0-4.86ZM134.882 122.798l10.993 6.347a2.43 2.43 0 0 0 3.318-.888v-.008a2.423 2.423 0 0 0-.884-3.323l-10.993-6.348a2.43 2.43 0 0 0-2.429 4.211l-.005.009ZM42.358 69.367l10.993 6.348a2.43 2.43 0 0 0 2.43-4.211L44.788 65.16a2.43 2.43 0 0 0-2.43 4.211v-.004ZM116.76 139.128l6.347 10.995a2.43 2.43 0 0 0 3.313.892h.005a2.434 2.434 0 0 0 .892-3.322l-6.347-10.995a2.43 2.43 0 0 0-3.313-.892h-.005a2.434 2.434 0 0 0-.892 3.322ZM63.342 46.592l6.347 10.994a2.43 2.43 0 0 0 3.318.888 2.432 2.432 0 0 0 .888-3.318L67.552 44.16a2.434 2.434 0 0 0-3.317-.892h-.005a2.434 2.434 0 0 0-.892 3.323h.004Z" fill="#CDE2FF"/><path d="M123.422 79.64a2.024 2.024 0 0 0-2.798-.524L97.7 94.615l-.666-44.686a1.55 1.55 0 0 0-1.55-1.525c-.847 0-1.534.675-1.55 1.517l-.947 46.018a3.99 3.99 0 0 0-1.496 3.113 3.994 3.994 0 0 0 3.993 3.993c2.203 0 3.904-1.705 3.984-3.838l23.468-16.764a2.026 2.026 0 0 0 .486-2.807v.004Z" fill="url(#b)"/><path d="M108.507 161.669Z" fill="#F1EFF4"/><defs><radialGradient id="b" cx="0" cy="0" r="1" gradientUnits="userSpaceOnUse" gradientTransform="matrix(147.64054 -46.22926 46.23613 147.6625 96.72 130.675)"><stop offset=".21" stop-color="#202D66"/><stop offset=".479" stop-color="#006DFF"/><stop offset=".974" stop-color="#fff"/></radialGradient><linearGradient id="a" x1="-63.175" y1="187.885" x2="216.731" y2="18.408" gradientUnits="userSpaceOnUse"><stop offset=".218" stop-color="#271A6B"/><stop offset=".597" stop-color="#026DFE"/><stop offset="1" stop-color="#fff"/></linearGradient></defs></svg>