<svg width="200" height="200" viewBox="0 0 200 200" fill="none" xmlns="http://www.w3.org/2000/svg"><path opacity=".75" d="M129.61 116.99c23.975 0 43.41-19.435 43.41-43.41 0-23.975-19.435-43.41-43.41-43.41-23.974 0-43.41 19.435-43.41 43.41 0 23.975 19.436 43.41 43.41 43.41Z" fill="url(#a)"/><g opacity=".15"><path d="M61.164 67.101c-.19-16.871 11.03-25.932 25.008-26.093 13.977-.16 25.405 8.816 25.595 25.687L111.944 82l9.646-.113-.177-15.394c-.216-19.294-16.047-34.765-35.339-34.538-19.292.226-34.774 16.048-34.548 35.34l.177 15.394 9.646-.113-.175-15.475-.01.001Z" fill="url(#b)"/><path d="m124.153 82.86-74.801.853c-4.23.047-7.619 3.52-7.574 7.742l.59 50.804c.046 4.23 3.52 7.618 7.741 7.573l74.801-.854c4.231-.046 7.619-3.52 7.573-7.741l-.579-50.805c-.046-4.231-3.52-7.619-7.741-7.574l-.01.001Z" fill="url(#c)"/></g><path d="M82.468 29.82c-19.303.227-34.765 16.046-34.547 35.35l.177 15.394 9.646-.113-.176-15.475c-.19-16.872 11.031-25.933 25.008-26.093 13.978-.16 25.406 8.815 25.595 25.687l.177 15.304 9.646-.114-.176-15.394c-.238-19.301-16.057-34.763-35.35-34.546Z" fill="url(#d)"/><path d="m120.435 79.731-74.8.854c-4.231.047-7.62 3.52-7.574 7.742l.58 50.805c.045 4.231 3.52 7.618 7.74 7.573l74.801-.854c4.231-.046 7.619-3.52 7.574-7.741l-.579-50.805c-.047-4.23-3.521-7.619-7.742-7.574Z" fill="url(#e)"/><path d="M90.735 104.332a6.797 6.797 0 0 1-3.44 5.996 1.254 1.254 0 0 0-.602 1.475l3.779 11.946a1.254 1.254 0 0 1-1.178 1.63l-10.239.118a1.256 1.256 0 0 1-1.224-1.604l3.506-12.03c.167-.582-.11-1.185-.645-1.468a6.773 6.773 0 0 1-3.559-5.602c-.213-3.739 2.782-7.039 6.517-7.191a6.81 6.81 0 0 1 7.085 6.73Z" fill="#fff"/><path opacity=".15" d="M153.009 118.11c-1.91-.51-4.59-1.23-8.23-2.16-6.8-1.75-10.98-2.71-12.83-3.11a5.24 5.24 0 0 0-2.23 0c-1.85.4-6.04 1.36-12.83 3.11-3.64.94-6.32 1.65-8.23 2.16-2.39.64-4 2.87-3.86 5.34.25 4.28 1.06 11.7 3.54 21.89 2.89 11.89 12.68 19.13 19.7 23.61 1.72 1.1 3.91 1.1 5.62 0 7.01-4.48 16.81-11.72 19.7-23.61 2.48-10.18 3.28-17.61 3.54-21.89.15-2.47-1.47-4.69-3.86-5.34h-.03Z" fill="url(#f)"/><path d="M127.14 110.13c.74-.16 1.5-.16 2.23 0 1.85.4 6.04 1.36 12.83 3.11 3.64.94 6.32 1.65 8.23 2.16 2.39.64 4 2.87 3.86 5.34-.25 4.28-1.06 11.7-3.54 21.89-2.89 11.89-12.68 19.13-19.7 23.61a5.198 5.198 0 0 1-5.62 0c-7.01-4.48-16.81-11.72-19.7-23.61-2.48-10.18-3.28-17.61-3.54-21.89-.15-2.47 1.47-4.69 3.86-5.34 1.91-.51 4.59-1.23 8.23-2.16 6.8-1.75 10.98-2.71 12.83-3.11h.03Z" fill="url(#g)"/><path d="M125.24 146.16h6.04v5.88h-6.04v-5.88Zm6.04-23.07-.89 19.46h-4.22l-.89-19.46h6Z" fill="#fff"/><defs><linearGradient id="b" x1="49.506" y1="62.86" x2="120.312" y2="55.013" gradientUnits="userSpaceOnUse"><stop offset=".19" stop-color="#202D66"/><stop offset=".31" stop-color="#1B357A"/><stop offset=".55" stop-color="#104BAD"/><stop offset=".88" stop-color="#006DFF"/></linearGradient><linearGradient id="c" x1="40.034" y1="121.56" x2="134.227" y2="111.122" gradientUnits="userSpaceOnUse"><stop offset=".19" stop-color="#202D66"/><stop offset=".31" stop-color="#1B357A"/><stop offset=".55" stop-color="#104BAD"/><stop offset=".88" stop-color="#006DFF"/></linearGradient><linearGradient id="f" x1="104.779" y1="141.24" x2="156.879" y2="141.24" gradientUnits="userSpaceOnUse"><stop offset=".19" stop-color="#202D66"/><stop offset=".31" stop-color="#1B357A"/><stop offset=".55" stop-color="#104BAD"/><stop offset=".88" stop-color="#006DFF"/></linearGradient><linearGradient id="g" x1="57.9" y1="196.43" x2="257.63" y2="14.54" gradientUnits="userSpaceOnUse"><stop offset=".161" stop-color="#202D66"/><stop offset=".477" stop-color="#006DFF"/><stop offset=".773" stop-color="#fff"/></linearGradient><radialGradient id="a" cx="0" cy="0" r="1" gradientUnits="userSpaceOnUse" gradientTransform="rotate(177.81 128.502 39.26) scale(398.538)"><stop offset=".152" stop-color="#fff"/><stop offset=".554" stop-color="#006DFF"/><stop offset=".783" stop-color="#202D66"/></radialGradient><radialGradient id="d" cx="0" cy="0" r="1" gradientUnits="userSpaceOnUse" gradientTransform="rotate(87.076 31.51 71.24) scale(234.663)"><stop stop-color="#F5F9FF"/><stop offset=".07" stop-color="#ECF4FF"/><stop offset=".262" stop-color="#D6E7FF"/><stop offset=".31" stop-color="#B1D2FF"/><stop offset=".46" stop-color="#7EB5FF"/><stop offset=".63" stop-color="#3E90FF"/><stop offset=".78" stop-color="#006DFF"/></radialGradient><radialGradient id="e" cx="0" cy="0" r="1" gradientUnits="userSpaceOnUse" gradientTransform="rotate(12.166 -691.496 183.888) scale(338.9)"><stop offset=".21" stop-color="#202D66"/><stop offset=".4" stop-color="#154299"/><stop offset=".59" stop-color="#0C54C5"/><stop offset=".76" stop-color="#0562E4"/><stop offset=".9" stop-color="#016AF8"/><stop offset="1" stop-color="#006DFF"/></radialGradient></defs></svg>