<svg width="200" height="200" viewBox="0 0 200 200" fill="none" xmlns="http://www.w3.org/2000/svg"><path d="M180.264 90c-5.445-36.357-39.336-61.407-75.693-55.962-36.357 5.446-61.418 39.347-55.972 75.705 5.445 36.357 39.347 61.417 75.704 55.961 36.357-5.445 61.418-39.347 55.961-75.704ZM54.311 108.878c-4.975-33.207 17.907-64.162 51.114-69.138 33.207-4.975 64.162 17.907 69.138 51.114 4.975 33.207-17.907 64.162-51.114 69.138-33.207 4.975-64.162-17.907-69.138-51.114Z" fill="url(#a)"/><path d="m26.936 125.596 67.49 19.825a7.346 7.346 0 0 0 9.12-4.979L118.129 90.8a7.349 7.349 0 0 0-4.979-9.12L45.66 61.855a7.348 7.348 0 0 0-9.12 4.979l-14.583 49.642a7.347 7.347 0 0 0 4.979 9.12Z" fill="url(#b)"/><path d="m46.494 120.611 44.021 12.773a4.385 4.385 0 0 0 5.432-2.989l24.553-84.62a4.385 4.385 0 0 0-2.989-5.433L73.49 27.57a4.384 4.384 0 0 0-5.433 2.988L43.505 115.18a4.384 4.384 0 0 0 2.989 5.432Z" fill="url(#c)"/><path d="m80.896 31.991 27.786 8.058c-1.47 5.083 1.445 10.397 6.527 11.867.074.024.135.037.208.049L95.064 122.11c-.073-.024-.134-.049-.208-.073-5.082-1.47-10.397 1.445-11.866 6.527-.037.11-.05.208-.074.318l-27.81-8.07c.036-.11.073-.208.11-.306 1.47-5.082-1.445-10.397-6.528-11.866L69.03 38.519c5.082 1.47 10.397-1.445 11.867-6.527Z" fill="url(#d)"/><path d="M81.998 90.838c5.722 0 10.36-4.639 10.36-10.36 0-5.722-4.638-10.36-10.36-10.36-5.722 0-10.36 4.638-10.36 10.36 0 5.721 4.638 10.36 10.36 10.36Z" fill="url(#e)"/><path d="m44.973 124.458 45.613 4.529a4.384 4.384 0 0 0 4.795-3.929l8.706-87.68a4.385 4.385 0 0 0-3.93-4.795l-45.613-4.53a4.384 4.384 0 0 0-4.795 3.93l-8.706 87.68a4.384 4.384 0 0 0 3.93 4.795Z" fill="url(#f)"/><path d="m62.623 31.064 28.79 2.853c-.526 5.266 3.32 9.957 8.585 10.47h.221l-7.213 72.681c-.074 0-.135-.024-.209-.036-5.265-.527-9.956 3.318-10.47 8.584 0 .11 0 .22-.012.331l-28.827-2.866c.012-.11.036-.22.049-.331.526-5.265-3.319-9.956-8.585-10.47l7.189-72.631c5.265.526 9.956-3.319 10.47-8.585h.012Z" fill="url(#g)"/><path d="M72.555 88.89c5.722 0 10.36-4.638 10.36-10.36 0-5.721-4.638-10.36-10.36-10.36-5.721 0-10.36 4.639-10.36 10.36 0 5.722 4.639 10.36 10.36 10.36Z" fill="url(#h)"/><path d="m26.04 128.658 67.49 19.825a7.347 7.347 0 0 0 9.12-4.979l14.582-49.642a7.347 7.347 0 0 0-4.979-9.12l-67.49-19.826a7.348 7.348 0 0 0-9.12 4.98L21.06 119.537a7.347 7.347 0 0 0 4.979 9.12Z" fill="url(#i)"/><path d="m28.883 104.094 21.808 6.406a7.69 7.69 0 0 0 9.546-5.212l.652-2.22a7.69 7.69 0 0 0-5.211-9.546L33.87 87.115a7.69 7.69 0 0 0-9.547 5.211l-.652 2.22a7.69 7.69 0 0 0 5.211 9.547Z" fill="url(#j)"/><path d="M52.204 106.007a4.348 4.348 0 1 0-.001-8.696 4.348 4.348 0 0 0 0 8.696Z" fill="#fff"/><path d="m140.771 82.173-58.882 30.391a7.349 7.349 0 0 0-3.16 9.9l17.89 34.659a7.348 7.348 0 0 0 9.899 3.159L165.4 129.89a7.348 7.348 0 0 0 3.16-9.899l-17.889-34.66a7.349 7.349 0 0 0-9.9-3.158Z" fill="url(#k)"/><path d="m161.513 106.337-71.942 37.132 4.876 9.446 71.941-37.132-4.875-9.446Z" fill="url(#l)"/><path d="m142.169 95.313-6.638 3.426a3 3 0 0 0-1.29 4.042l3.426 6.638a3 3 0 0 0 4.043 1.29l6.638-3.426a3 3 0 0 0 1.29-4.042l-3.426-6.638a3.001 3.001 0 0 0-4.043-1.29Z" fill="#fff"/><defs><radialGradient id="a" cx="0" cy="0" r="1" gradientUnits="userSpaceOnUse" gradientTransform="rotate(117.94 27.113 84.293) scale(218.511)"><stop offset=".202" stop-color="#fff"/><stop offset=".629" stop-color="#006DFF"/><stop offset=".971" stop-color="#202D66"/></radialGradient><radialGradient id="c" cx="0" cy="0" r="1" gradientUnits="userSpaceOnUse" gradientTransform="rotate(-73.82 98.557 66.643) scale(264.87)"><stop offset=".23" stop-color="#006DFF"/><stop offset=".43" stop-color="#4594FF"/><stop offset=".71" stop-color="#A3CAFF"/><stop offset=".91" stop-color="#DEEBFF"/><stop offset="1" stop-color="#F5F9FF"/></radialGradient><radialGradient id="d" cx="0" cy="0" r="1" gradientUnits="userSpaceOnUse" gradientTransform="rotate(-73.82 82.038 58.839) scale(261.123)"><stop stop-color="#006DFF"/><stop offset=".05" stop-color="#1B7CFF"/><stop offset=".15" stop-color="#4D99FF"/><stop offset=".25" stop-color="#7AB2FF"/><stop offset=".36" stop-color="#A0C8FF"/><stop offset=".47" stop-color="#BFDAFF"/><stop offset=".58" stop-color="#D6E7FF"/><stop offset=".7" stop-color="#E7F1FF"/><stop offset=".83" stop-color="#F1F7FF"/><stop offset="1" stop-color="#F5F9FF"/></radialGradient><radialGradient id="e" cx="0" cy="0" r="1" gradientUnits="userSpaceOnUse" gradientTransform="rotate(-73.82 82.931 8.825) scale(67.537)"><stop offset=".31" stop-color="#006DFF"/><stop offset=".49" stop-color="#4594FF"/><stop offset=".74" stop-color="#A3CAFF"/><stop offset=".92" stop-color="#DEEBFF"/><stop offset="1" stop-color="#F5F9FF"/></radialGradient><radialGradient id="f" cx="0" cy="0" r="1" gradientUnits="userSpaceOnUse" gradientTransform="rotate(-84.33 89.818 71.041) scale(264.87)"><stop offset=".23" stop-color="#006DFF"/><stop offset=".43" stop-color="#4594FF"/><stop offset=".71" stop-color="#A3CAFF"/><stop offset=".91" stop-color="#DEEBFF"/><stop offset="1" stop-color="#F5F9FF"/></radialGradient><radialGradient id="g" cx="0" cy="0" r="1" gradientUnits="userSpaceOnUse" gradientTransform="rotate(-84.33 74.45 65.155) scale(261.123)"><stop stop-color="#006DFF"/><stop offset=".05" stop-color="#1B7CFF"/><stop offset=".15" stop-color="#4D99FF"/><stop offset=".25" stop-color="#7AB2FF"/><stop offset=".36" stop-color="#A0C8FF"/><stop offset=".47" stop-color="#BFDAFF"/><stop offset=".58" stop-color="#D6E7FF"/><stop offset=".7" stop-color="#E7F1FF"/><stop offset=".83" stop-color="#F1F7FF"/><stop offset="1" stop-color="#F5F9FF"/></radialGradient><radialGradient id="h" cx="0" cy="0" r="1" gradientUnits="userSpaceOnUse" gradientTransform="rotate(-84.33 71.153 20.53) scale(67.537)"><stop offset=".31" stop-color="#006DFF"/><stop offset=".49" stop-color="#4594FF"/><stop offset=".74" stop-color="#A3CAFF"/><stop offset=".92" stop-color="#DEEBFF"/><stop offset="1" stop-color="#F5F9FF"/></radialGradient><radialGradient id="k" cx="0" cy="0" r="1" gradientUnits="userSpaceOnUse" gradientTransform="rotate(-27.3 444.084 -49.673) scale(197.749)"><stop offset=".11" stop-color="#006DFF"/><stop offset=".26" stop-color="#358BFF"/><stop offset=".46" stop-color="#7CB4FF"/><stop offset=".64" stop-color="#B4D4FF"/><stop offset=".8" stop-color="#DDEBFF"/><stop offset=".92" stop-color="#F5F9FF"/><stop offset="1" stop-color="#fff"/></radialGradient><linearGradient id="b" x1="207.515" y1="144.014" x2="16.948" y2="88.035" gradientUnits="userSpaceOnUse"><stop offset=".48" stop-color="#202D66"/><stop offset=".56" stop-color="#1B357A"/><stop offset=".75" stop-color="#104BAD"/><stop offset="1" stop-color="#006DFF"/></linearGradient><linearGradient id="i" x1="115.255" y1="151.465" x2="28.957" y2="67.677" gradientUnits="userSpaceOnUse"><stop offset=".42" stop-color="#202D66"/><stop offset=".52" stop-color="#1B357A"/><stop offset=".72" stop-color="#104BAD"/><stop offset="1" stop-color="#006DFF"/></linearGradient><linearGradient id="j" x1="68.504" y1="106.517" x2="31.939" y2="95.776" gradientUnits="userSpaceOnUse"><stop offset=".19" stop-color="#202D66"/><stop offset=".33" stop-color="#1B357A"/><stop offset=".61" stop-color="#104BAD"/><stop offset="1" stop-color="#006DFF"/></linearGradient><linearGradient id="l" x1="92.009" y1="148.192" x2="198.425" y2="93.267" gradientUnits="userSpaceOnUse"><stop offset=".15" stop-color="#202D66"/><stop offset=".29" stop-color="#1B357A"/><stop offset=".59" stop-color="#104BAD"/><stop offset="1" stop-color="#006DFF"/></linearGradient></defs></svg>