<svg width="200" height="200" viewBox="0 0 200 200" fill="none" xmlns="http://www.w3.org/2000/svg"><path fill-rule="evenodd" clip-rule="evenodd" d="m40.264 57.409.047 32.257-4.296.032a8.893 8.893 0 0 0-8.827 8.957l.185 25.226a9.31 9.31 0 0 0-5.424 8.529l.02 2.757a9.31 9.31 0 0 0 5.548 8.449l.128 17.48c.001.083.003.165.006.247l.026 3.625a8.893 8.893 0 0 0 8.958 8.828l84.909-.623a8.893 8.893 0 0 0 8.828-8.958l-.458-62.44a10.073 10.073 0 0 0-.005-.247l-.027-3.625a8.892 8.892 0 0 0-8.957-8.828l-4.956.037-.046-31.322c-.008-5.4-4.359-9.8-9.718-9.827l-56.25-.283c-5.36-.027-9.698 4.329-9.69 9.729Z" fill="#DEDFE8"/><path d="M174.152 81.752c-4.885-32.619-35.291-55.093-67.911-50.207-32.619 4.885-55.102 35.301-50.217 67.92 4.886 32.619 35.302 55.103 67.921 50.208 32.619-4.886 55.103-35.302 50.207-67.92ZM61.15 98.69c-4.465-29.793 16.065-57.565 45.858-62.029 29.793-4.464 57.565 16.065 62.029 45.859 4.464 29.793-16.065 57.564-45.858 62.029-29.794 4.464-57.565-16.066-62.03-45.859Z" fill="url(#a)"/><path d="m31.637 165.186 84.91-.623a8.892 8.892 0 0 0 8.827-8.957l-.457-62.441a8.893 8.893 0 0 0-8.958-8.827l-84.91.622a8.893 8.893 0 0 0-8.827 8.958l.458 62.441a8.893 8.893 0 0 0 8.957 8.827Z" fill="url(#b)"/><path d="m35.298 52.671.138 95.364c.008 5.4 4.359 9.8 9.718 9.827l56.251.283c5.359.027 9.698-4.329 9.69-9.729l-.138-95.364c-.008-5.4-4.359-9.8-9.718-9.826l-56.251-.283c-5.36-.027-9.698 4.328-9.69 9.728Z" fill="url(#c)"/><path d="m79.159 43.168.128 114.738 14.683.071-.128-114.739-14.683-.07Z" fill="url(#d)"/><path d="m52.69 60.057.017 11.141c.003 2.207 1.783 4.006 3.976 4.017l11.066.055c2.192.011 3.967-1.769 3.964-3.976l-.016-11.141c-.004-2.207-1.784-4.005-3.976-4.017l-11.066-.055c-2.193-.011-3.968 1.769-3.964 3.976Z" fill="#fff"/><path d="m31.669 169.058 84.909-.622a8.894 8.894 0 0 0 8.828-8.958l-.458-62.441a8.893 8.893 0 0 0-8.958-8.827l-84.91.622a8.893 8.893 0 0 0-8.827 8.958l.458 62.441a8.893 8.893 0 0 0 8.958 8.827Z" fill="url(#e)"/><path d="m26.38 139.669 27.403-.201a9.308 9.308 0 0 0 9.24-9.376l-.02-2.757a9.308 9.308 0 0 0-9.376-9.239l-27.404.201a9.308 9.308 0 0 0-9.24 9.376l.02 2.756a9.308 9.308 0 0 0 9.376 9.24Z" fill="url(#f)"/><path d="M52.46 133.955a5.247 5.247 0 1 0 0-10.493 5.247 5.247 0 0 0 0 10.493Z" fill="#fff"/><path fill-rule="evenodd" clip-rule="evenodd" d="M186.474 61.698c0 13.502-10.946 24.447-24.448 24.447S137.579 75.2 137.579 61.698c0-13.502 10.945-24.447 24.447-24.447 13.502 0 24.448 10.945 24.448 24.447Z" fill="#DEDFE8"/><path d="M158.637 84.296c13.501 0 24.447-10.945 24.447-24.447 0-13.502-10.946-24.447-24.447-24.447-13.502 0-24.448 10.945-24.448 24.447 0 13.502 10.946 24.447 24.448 24.447Z" fill="url(#g)"/><path d="m174.077 54.542-4.275-5.132-15.633 13.03-4.73-5.678-5.14 4.28 9.011 10.81.002-.006.005.008 20.76-17.312Z" fill="#fff"/><defs><radialGradient id="a" cx="0" cy="0" r="1" gradientUnits="userSpaceOnUse" gradientTransform="rotate(117.94 30.234 79.866) scale(196.044)"><stop offset=".202" stop-color="#fff"/><stop offset=".629" stop-color="#006DFF"/><stop offset=".971" stop-color="#202D66"/></radialGradient><radialGradient id="c" cx="0" cy="0" r="1" gradientUnits="userSpaceOnUse" gradientTransform="matrix(-.40665 -280.7137 278.5987 -.40358 136.439 215.796)"><stop offset=".11" stop-color="#006DFF"/><stop offset=".26" stop-color="#358BFF"/><stop offset=".46" stop-color="#7CB4FF"/><stop offset=".64" stop-color="#B4D4FF"/><stop offset=".8" stop-color="#DDEBFF"/><stop offset=".92" stop-color="#F5F9FF"/><stop offset="1" stop-color="#fff"/></radialGradient><radialGradient id="e" cx="0" cy="0" r="1" gradientUnits="userSpaceOnUse" gradientTransform="translate(122.808 91.26) scale(106.358)"><stop stop-color="#006DFF"/><stop offset=".41" stop-color="#104BAD"/><stop offset=".71" stop-color="#1B357A"/><stop offset=".85" stop-color="#202D66"/></radialGradient><radialGradient id="g" cx="0" cy="0" r="1" gradientUnits="userSpaceOnUse" gradientTransform="rotate(140.741 79.938 53.964) scale(135.431)"><stop stop-color="#87BAFF"/><stop offset=".227" stop-color="#006DFF"/><stop offset=".39" stop-color="#104BAD"/><stop offset=".67" stop-color="#1B357A"/><stop offset=".81" stop-color="#202D66"/></radialGradient><linearGradient id="b" x1="246.84" y1="123.486" x2="6.963" y2="125.244" gradientUnits="userSpaceOnUse"><stop offset=".48" stop-color="#202D66"/><stop offset=".56" stop-color="#1B357A"/><stop offset=".75" stop-color="#104BAD"/><stop offset="1" stop-color="#006DFF"/></linearGradient><linearGradient id="d" x1="86.629" y1="157.958" x2="87.182" y2="43.206" gradientUnits="userSpaceOnUse"><stop offset=".15" stop-color="#202D66"/><stop offset=".29" stop-color="#1B357A"/><stop offset=".59" stop-color="#104BAD"/><stop offset="1" stop-color="#006DFF"/></linearGradient><linearGradient id="f" x1="2.143" y1="134.192" x2="87.692" y2="122.186" gradientUnits="userSpaceOnUse"><stop offset=".19" stop-color="#202D66"/><stop offset=".33" stop-color="#1B357A"/><stop offset=".61" stop-color="#104BAD"/><stop offset="1" stop-color="#006DFF"/></linearGradient></defs></svg>