<svg width="200" height="200" viewBox="0 0 200 200" fill="none" xmlns="http://www.w3.org/2000/svg"><rect x="25.449" y="103.552" width="9.335" height="48.533" rx="2" fill="url(#a)" fill-opacity=".5"/><rect x="45.546" y="92.201" width="9.335" height="59.885" rx="2" fill="url(#b)"/><rect x="65.642" y="73.22" width="9.335" height="78.865" rx="2" fill="url(#c)" fill-opacity=".5"/><rect x="105.834" y="85.129" width="9.335" height="66.956" rx="2" fill="url(#d)" fill-opacity=".5"/><rect x="146.026" y="69.871" width="9.335" height="82.214" rx="2" fill="url(#e)" fill-opacity=".5"/><rect x="165.216" y="47.914" width="9.335" height="104.172" rx="2" fill="url(#f)" fill-opacity=".5"/><rect x="125.931" y="100.388" width="9.335" height="51.697" rx="2" fill="url(#g)"/><rect x="85.738" y="53.124" width="9.335" height="98.961" rx="2" fill="url(#h)" fill-opacity=".5"/><defs><linearGradient id="a" x1="30.117" y1="103.552" x2="30.117" y2="152.084" gradientUnits="userSpaceOnUse"><stop stop-color="#CDE2FF"/><stop offset="1" stop-color="#006DFF"/></linearGradient><linearGradient id="b" x1="50.214" y1="61.358" x2="50.214" y2="152.086" gradientUnits="userSpaceOnUse"><stop stop-color="#F6FAFF"/><stop offset="1" stop-color="#CDE2FF"/></linearGradient><linearGradient id="c" x1="70.309" y1="73.22" x2="70.309" y2="152.085" gradientUnits="userSpaceOnUse"><stop stop-color="#CDE2FF"/><stop offset="1" stop-color="#006DFF"/></linearGradient><linearGradient id="d" x1="110.502" y1="85.129" x2="110.502" y2="152.085" gradientUnits="userSpaceOnUse"><stop stop-color="#CDE2FF"/><stop offset="1" stop-color="#006DFF"/></linearGradient><linearGradient id="e" x1="150.694" y1="69.871" x2="150.694" y2="152.085" gradientUnits="userSpaceOnUse"><stop stop-color="#CDE2FF"/><stop offset="1" stop-color="#006DFF"/></linearGradient><linearGradient id="f" x1="169.883" y1="47.914" x2="169.883" y2="189.524" gradientUnits="userSpaceOnUse"><stop offset=".094" stop-color="#006DFF"/><stop offset="1" stop-color="#00033B"/></linearGradient><linearGradient id="g" x1="130.598" y1="44.062" x2="130.598" y2="152.085" gradientUnits="userSpaceOnUse"><stop stop-color="#F6FAFF"/><stop offset="1" stop-color="#CDE2FF"/></linearGradient><linearGradient id="h" x1="90.406" y1="53.124" x2="90.406" y2="193.454" gradientUnits="userSpaceOnUse"><stop offset=".094" stop-color="#006DFF"/><stop offset="1" stop-color="#00033B"/></linearGradient></defs></svg>