<svg width="200" height="200" viewBox="0 0 200 200" fill="none" xmlns="http://www.w3.org/2000/svg"><path d="M196.018 133.843c-3.889-25.97-28.097-43.862-54.067-39.972-25.969 3.89-43.87 28.105-39.98 54.074 3.89 25.97 28.105 43.87 54.075 39.973 25.969-3.89 43.87-28.105 39.972-54.075Zm-89.966 13.484c-3.554-23.719 12.79-45.83 36.51-49.384 23.719-3.554 45.83 12.791 49.384 36.51 3.554 23.72-12.791 45.83-36.51 49.384-23.72 3.554-45.83-12.79-49.384-36.51Z" fill="url(#a)"/><path d="m116.855 76.39-4.966-2.98a32.905 32.905 0 0 0 .629-12.651l5.153-2.175a3.174 3.174 0 0 0 1.777-3.927l-1.729-5.188a3.177 3.177 0 0 0-3.778-2.072l-5.581 1.39a32.795 32.795 0 0 0-8.452-9.604l2.009-4.967a3.18 3.18 0 0 0-1.527-4.034l-4.889-2.436a3.169 3.169 0 0 0-4.137 1.204l-2.757 4.584a32.96 32.96 0 0 0-13.174-.95L73.55 28.13a3.174 3.174 0 0 0-3.927-1.777l-5.188 1.728a3.178 3.178 0 0 0-2.072 3.779l1.165 4.67a33.062 33.062 0 0 0-10.275 8.988l-3.795-1.539a3.487 3.487 0 0 0-4.433 1.672l-2.182 4.368a3.484 3.484 0 0 0 1.322 4.545l3.593 2.162a33.061 33.061 0 0 0-.757 13.849l-3.906 1.654a3.174 3.174 0 0 0-1.777 3.927l1.729 5.187a3.178 3.178 0 0 0 3.778 2.072l4.381-1.09a32.73 32.73 0 0 0 9.324 10.1l-1.686 4.158a3.18 3.18 0 0 0 1.527 4.034l4.89 2.436a3.169 3.169 0 0 0 4.136-1.204l2.534-4.224a32.947 32.947 0 0 0 13.335.44l1.94 4.591a3.174 3.174 0 0 0 3.927 1.777l5.188-1.728a3.179 3.179 0 0 0 2.072-3.779l-1.32-5.306a32.808 32.808 0 0 0 9.44-8.76l5.048 2.047a3.18 3.18 0 0 0 4.034-1.527l2.436-4.889a3.169 3.169 0 0 0-1.204-4.137l.028.035ZM95.07 66.223c-.653 13.72-17.033 19.617-26.298 10.052-3.276-3.383-4.878-8.18-4.298-12.853 1.652-13.211 18.298-18.354 27.066-7.774a15.55 15.55 0 0 1 3.54 10.579l-.01-.004Z" fill="url(#b)"/><path d="m89.196 60.105-4.598-4.076a4.477 4.477 0 0 0-4.404-.896l-5.83 1.947a4.489 4.489 0 0 0-2.974 3.369l-1.228 6.014a4.49 4.49 0 0 0 1.421 4.261l4.598 4.076a4.476 4.476 0 0 0 4.404.897l5.83-1.947a4.494 4.494 0 0 0 2.983-3.365l1.233-6.023a4.489 4.489 0 0 0-1.422-4.261l-.013.005Zm-9.6 8.819a3.596 3.596 0 0 1-1.947-5.83 3.568 3.568 0 0 1 3.453-1.204 3.605 3.605 0 0 1 1.98 5.924c-.84.975-2.225 1.411-3.476 1.114l-.01-.004Z" fill="url(#c)"/><path d="m65.394 121.736-3.406-2.042c.718-2.887.844-5.83.436-8.668l3.534-1.496a2.186 2.186 0 0 0 1.216-2.7l-1.188-3.555a2.177 2.177 0 0 0-2.593-1.42l-3.83.949a22.571 22.571 0 0 0-5.789-6.585l1.38-3.406a2.179 2.179 0 0 0-1.05-2.764l-3.356-1.676a2.174 2.174 0 0 0-2.837.828l-1.887 3.147a22.693 22.693 0 0 0-9.032-.65L35.7 88.646a2.186 2.186 0 0 0-2.7-1.216l-3.555 1.188a2.177 2.177 0 0 0-1.42 2.593l.798 3.209a22.54 22.54 0 0 0-7.04 6.172L19.18 99.53a2.397 2.397 0 0 0-3.043 1.152l-1.498 2.997a2.392 2.392 0 0 0 .908 3.117l2.464 1.481a22.809 22.809 0 0 0-.526 9.498l-2.67 1.137a2.186 2.186 0 0 0-1.216 2.7l1.188 3.555a2.177 2.177 0 0 0 2.592 1.42l3.009-.748a22.723 22.723 0 0 0 6.388 6.932l-1.153 2.849a2.18 2.18 0 0 0 1.05 2.764l3.356 1.676c1.02.509 2.25.145 2.836-.828l1.738-2.897c3.044.736 6.151.818 9.14.303l1.333 3.149a2.185 2.185 0 0 0 2.699 1.215l3.556-1.187a2.177 2.177 0 0 0 1.42-2.593l-.909-3.635a22.503 22.503 0 0 0 6.477-6.005l3.46 1.405a2.177 2.177 0 0 0 2.764-1.05l1.676-3.356a2.174 2.174 0 0 0-.828-2.836l.004-.009Zm-14.934-6.969c-.452 9.412-11.684 13.451-18.035 6.89a10.829 10.829 0 0 1-2.95-8.814c1.137-9.059 12.548-12.584 18.556-5.334a10.6 10.6 0 0 1 2.42 7.254l.009.004Z" fill="url(#d)"/><path d="m46.427 110.568-3.154-2.796a3.09 3.09 0 0 0-3.023-.616l-3.999 1.334a3.063 3.063 0 0 0-2.036 2.306l-.845 4.13a3.067 3.067 0 0 0 .978 2.917l3.153 2.796c.82.725 1.977.966 3.014.612l4-1.335a3.089 3.089 0 0 0 2.045-2.301l.845-4.129a3.068 3.068 0 0 0-.978-2.918Zm-6.583 6.043a2.463 2.463 0 0 1-1.334-3.999 2.446 2.446 0 0 1 2.362-.829 2.474 2.474 0 0 1 1.358 4.066 2.43 2.43 0 0 1-2.386.762Z" fill="url(#e)"/><path opacity=".1" d="m174.731 68.454-107.748.099a6.683 6.683 0 0 0-6.676 6.688l.07 77.363a6.683 6.683 0 0 0 6.69 6.676l107.748-.099a6.682 6.682 0 0 0 6.676-6.688l-.071-77.363a6.682 6.682 0 0 0-6.689-6.676Z" fill="#00033B"/><path d="m170.393 72.18-107.749.098a6.683 6.683 0 0 0-6.676 6.689l.071 77.362a6.683 6.683 0 0 0 6.689 6.677l107.748-.099a6.683 6.683 0 0 0 6.676-6.689l-.071-77.362a6.682 6.682 0 0 0-6.688-6.677Z" fill="url(#f)"/><path d="m62.635 72.28 107.758-.098a6.687 6.687 0 0 1 6.689 6.676l.006 7.154-121.123.111-.007-7.154a6.687 6.687 0 0 1 6.677-6.688Z" fill="url(#g)"/><path d="M64.353 82.177a2.493 2.493 0 1 0 .327-4.976 2.493 2.493 0 0 0-.327 4.976ZM72.278 82.172a2.493 2.493 0 1 0 .327-4.975 2.493 2.493 0 0 0-.327 4.975ZM80.193 82.166a2.493 2.493 0 1 0 .327-4.975 2.493 2.493 0 0 0-.327 4.975Z" fill="#fff"/><path d="M72.471 107.839a5.425 5.425 0 1 0 .712-10.828 5.426 5.426 0 0 0-.712 10.828Z" fill="url(#h)"/><path d="m162.926 99.312-75.257.07a2.752 2.752 0 0 0-2.752 2.751 2.751 2.751 0 0 0 2.757 2.747l75.257-.069a2.751 2.751 0 0 0 2.752-2.752 2.752 2.752 0 0 0-2.757-2.747Z" fill="url(#i)"/><path d="M72.48 123.049a5.426 5.426 0 1 0 .71-10.83 5.426 5.426 0 0 0-.71 10.83Z" fill="url(#j)"/><path d="m162.945 114.516-75.257.069a2.752 2.752 0 0 0-2.752 2.752 2.753 2.753 0 0 0 2.757 2.747l75.257-.069a2.753 2.753 0 0 0 2.753-2.752 2.752 2.752 0 0 0-2.758-2.747Z" fill="url(#k)"/><path d="M72.499 138.27a5.425 5.425 0 1 0 .71-10.828 5.426 5.426 0 0 0-.71 10.828Z" fill="url(#l)"/><path d="m162.955 129.731-75.257.069a2.753 2.753 0 0 0-2.752 2.752 2.751 2.751 0 0 0 2.757 2.747l75.257-.069a2.75 2.75 0 1 0-.005-5.499Z" fill="url(#m)"/><path d="M72.988 154.152a5.425 5.425 0 1 0 .711-10.828 5.425 5.425 0 0 0-.711 10.828Z" fill="url(#n)"/><path d="m163.444 145.612-75.257.069a2.753 2.753 0 0 0-2.752 2.752 2.751 2.751 0 0 0 2.757 2.747l75.257-.069a2.752 2.752 0 0 0 2.753-2.752 2.753 2.753 0 0 0-2.758-2.747Z" fill="url(#o)"/><defs><linearGradient id="b" x1="211.864" y1="16.519" x2="-118.665" y2="175.046" gradientUnits="userSpaceOnUse"><stop offset=".066" stop-color="#F5F9FF"/><stop offset=".139" stop-color="#EDF4FF"/><stop offset=".351" stop-color="#D9E9FF"/><stop offset=".555" stop-color="#8ABBFF"/><stop offset=".75" stop-color="#4E9AFF"/><stop offset=".91" stop-color="#0771FF"/><stop offset=".92" stop-color="#006DFF"/></linearGradient><linearGradient id="c" x1="211.864" y1="16.518" x2="-76.066" y2="123.599" gradientUnits="userSpaceOnUse"><stop stop-color="#F5F9FF"/><stop offset=".18" stop-color="#F2F7FF"/><stop offset=".31" stop-color="#E9F2FF"/><stop offset=".42" stop-color="#D9E9FF"/><stop offset=".52" stop-color="#C3DCFF"/><stop offset=".61" stop-color="#A7CCFF"/><stop offset=".7" stop-color="#85B9FF"/><stop offset=".79" stop-color="#5BA1FF"/><stop offset=".86" stop-color="#2D86FF"/><stop offset=".93" stop-color="#006DFF"/></linearGradient><linearGradient id="d" x1="175.785" y1="64.924" x2="-125.178" y2="198.923" gradientUnits="userSpaceOnUse"><stop offset=".2" stop-color="#F5F9FF"/><stop offset=".26" stop-color="#EDF4FF"/><stop offset=".36" stop-color="#D9E9FF"/><stop offset=".47" stop-color="#B8D6FF"/><stop offset=".614" stop-color="#8ABBFF"/><stop offset=".681" stop-color="#4E9AFF"/><stop offset=".91" stop-color="#0771FF"/><stop offset=".92" stop-color="#006DFF"/></linearGradient><linearGradient id="e" x1="130.544" y1="80.685" x2="-66.883" y2="154.108" gradientUnits="userSpaceOnUse"><stop stop-color="#F5F9FF"/><stop offset=".18" stop-color="#F2F7FF"/><stop offset=".31" stop-color="#E9F2FF"/><stop offset=".42" stop-color="#D9E9FF"/><stop offset=".52" stop-color="#C3DCFF"/><stop offset=".61" stop-color="#A7CCFF"/><stop offset=".7" stop-color="#85B9FF"/><stop offset=".79" stop-color="#5BA1FF"/><stop offset=".86" stop-color="#2D86FF"/><stop offset=".93" stop-color="#006DFF"/></linearGradient><linearGradient id="g" x1="25.924" y1="107.763" x2="36.051" y2="59.879" gradientUnits="userSpaceOnUse"><stop offset=".19" stop-color="#202D66"/><stop offset=".33" stop-color="#1B357A"/><stop offset=".61" stop-color="#104BAD"/><stop offset="1" stop-color="#006DFF"/></linearGradient><linearGradient id="h" x1="68.642" y1="105.895" x2="76.994" y2="98.954" gradientUnits="userSpaceOnUse"><stop offset=".19" stop-color="#202D66"/><stop offset=".33" stop-color="#1B357A"/><stop offset=".61" stop-color="#104BAD"/><stop offset="1" stop-color="#006DFF"/></linearGradient><linearGradient id="i" x1="100.919" y1="122.37" x2="149.681" y2="81.822" gradientUnits="userSpaceOnUse"><stop offset=".19" stop-color="#202D66"/><stop offset=".33" stop-color="#1B357A"/><stop offset=".61" stop-color="#104BAD"/><stop offset="1" stop-color="#006DFF"/></linearGradient><linearGradient id="j" x1="68.656" y1="121.103" x2="77.008" y2="114.162" gradientUnits="userSpaceOnUse"><stop offset=".19" stop-color="#202D66"/><stop offset=".33" stop-color="#1B357A"/><stop offset=".61" stop-color="#104BAD"/><stop offset="1" stop-color="#006DFF"/></linearGradient><linearGradient id="k" x1="100.928" y1="137.574" x2="149.69" y2="97.026" gradientUnits="userSpaceOnUse"><stop offset=".19" stop-color="#202D66"/><stop offset=".33" stop-color="#1B357A"/><stop offset=".61" stop-color="#104BAD"/><stop offset="1" stop-color="#006DFF"/></linearGradient><linearGradient id="l" x1="68.67" y1="136.322" x2="77.022" y2="129.381" gradientUnits="userSpaceOnUse"><stop offset=".19" stop-color="#202D66"/><stop offset=".33" stop-color="#1B357A"/><stop offset=".61" stop-color="#104BAD"/><stop offset="1" stop-color="#006DFF"/></linearGradient><linearGradient id="m" x1="100.948" y1="152.79" x2="149.71" y2="112.241" gradientUnits="userSpaceOnUse"><stop offset=".19" stop-color="#202D66"/><stop offset=".33" stop-color="#1B357A"/><stop offset=".61" stop-color="#104BAD"/><stop offset="1" stop-color="#006DFF"/></linearGradient><linearGradient id="n" x1="69.166" y1="152.2" x2="77.518" y2="145.258" gradientUnits="userSpaceOnUse"><stop offset=".19" stop-color="#202D66"/><stop offset=".33" stop-color="#1B357A"/><stop offset=".61" stop-color="#104BAD"/><stop offset="1" stop-color="#006DFF"/></linearGradient><linearGradient id="o" x1="101.437" y1="168.671" x2="150.199" y2="128.122" gradientUnits="userSpaceOnUse"><stop offset=".19" stop-color="#202D66"/><stop offset=".33" stop-color="#1B357A"/><stop offset=".61" stop-color="#104BAD"/><stop offset="1" stop-color="#006DFF"/></linearGradient><radialGradient id="a" cx="0" cy="0" r="1" gradientUnits="userSpaceOnUse" gradientTransform="matrix(-73.1303 137.88623 -137.88712 -73.13077 148.89 140.869)"><stop offset=".202" stop-color="#fff"/><stop offset=".629" stop-color="#006DFF"/><stop offset=".971" stop-color="#202D66"/></radialGradient><radialGradient id="f" cx="0" cy="0" r="1" gradientUnits="userSpaceOnUse" gradientTransform="rotate(-18.217 439.236 435.46) scale(424.245)"><stop stop-color="#046FFF"/><stop offset=".43" stop-color="#E9F2FF"/><stop offset=".746" stop-color="#fff"/><stop offset=".843" stop-color="#F5F9FF"/></radialGradient></defs></svg>