<svg width="201" height="201" viewBox="0 0 201 201" fill="none" xmlns="http://www.w3.org/2000/svg"><g opacity=".75"><rect opacity=".1" x="55.13" y="111.895" width="139.602" height="58.329" rx="5.886" fill="#00033B"/><rect x="52.096" y="108.864" width="139.602" height="58.329" rx="5.886" fill="url(#a)"/><path opacity=".3" d="M134.56 144.095c0 1.236-.447 2.231-1.341 2.985-.894.746-2.145 1.193-3.754 1.341v2.389h-1.597v-2.343c-1.896-.039-3.56-.373-4.99-1.002v-3.078c.676.334 1.489.629 2.437.886.956.256 1.807.408 2.553.454v-3.614l-.781-.303c-1.539-.606-2.631-1.263-3.276-1.97-.637-.715-.956-1.597-.956-2.646 0-1.127.439-2.052 1.317-2.775.886-.731 2.118-1.174 3.696-1.329v-1.784h1.597v1.737c1.78.078 3.389.435 4.827 1.073l-1.096 2.728a12.595 12.595 0 0 0-3.731-.91v3.44c1.516.583 2.592 1.088 3.23 1.515.645.428 1.115.898 1.41 1.411.303.513.455 1.111.455 1.795Zm-3.509.175c0-.326-.132-.602-.397-.828-.264-.225-.66-.458-1.189-.699v2.903c1.057-.179 1.586-.637 1.586-1.376Zm-4.687-7.076c0 .342.117.625.35.851.241.217.626.443 1.154.676v-2.74c-1.003.148-1.504.552-1.504 1.213ZM151.292 144.095c0 1.236-.447 2.231-1.34 2.985-.894.746-2.146 1.193-3.754 1.341v2.389H144.6v-2.343c-1.896-.039-3.559-.373-4.989-1.002v-3.078c.676.334 1.488.629 2.436.886.956.256 1.807.408 2.553.454v-3.614l-.781-.303c-1.539-.606-2.631-1.263-3.276-1.97-.637-.715-.956-1.597-.956-2.646 0-1.127.44-2.052 1.318-2.775.886-.731 2.118-1.174 3.695-1.329v-1.784h1.598v1.737c1.779.078 3.388.435 4.826 1.073l-1.096 2.728a12.588 12.588 0 0 0-3.73-.91v3.44c1.515.583 2.592 1.088 3.229 1.515.645.428 1.115.898 1.411 1.411.303.513.454 1.111.454 1.795Zm-3.509.175a1.05 1.05 0 0 0-.396-.828c-.264-.225-.661-.458-1.189-.699v2.903c1.057-.179 1.585-.637 1.585-1.376Zm-4.686-7.076c0 .342.116.625.349.851.241.217.626.443 1.154.676v-2.74c-1.002.148-1.503.552-1.503 1.213ZM168.025 144.095c0 1.236-.447 2.231-1.341 2.985-.894.746-2.145 1.193-3.754 1.341v2.389h-1.597v-2.343c-1.897-.039-3.56-.373-4.99-1.002v-3.078c.676.334 1.489.629 2.437.886.956.256 1.807.408 2.553.454v-3.614l-.781-.303c-1.539-.606-2.631-1.263-3.276-1.97-.638-.715-.956-1.597-.956-2.646 0-1.127.439-2.052 1.317-2.775.886-.731 2.118-1.174 3.696-1.329v-1.784h1.597v1.737c1.78.078 3.389.435 4.827 1.073l-1.096 2.728a12.595 12.595 0 0 0-3.731-.91v3.44c1.516.583 2.592 1.088 3.229 1.515.646.428 1.116.898 1.411 1.411.303.513.455 1.111.455 1.795Zm-3.509.175c0-.326-.133-.602-.397-.828-.264-.225-.66-.458-1.189-.699v2.903c1.057-.179 1.586-.637 1.586-1.376Zm-4.687-7.076c0 .342.117.625.35.851.241.217.625.443 1.154.676v-2.74c-1.003.148-1.504.552-1.504 1.213Z" fill="#00033B"/><rect opacity=".1" x="42.531" y="81.553" width="135.671" height="58.329" rx="5.886" fill="#00033B"/><rect x="39.583" y="78.307" width="135.671" height="58.329" rx="5.886" fill="url(#b)"/><g opacity=".3" fill="#00033B"><path d="M124.523 113.539c0 1.235-.447 2.23-1.341 2.984-.894.746-2.145 1.193-3.754 1.341v2.39h-1.597v-2.343c-1.896-.039-3.56-.374-4.99-1.003v-3.078c.676.334 1.489.63 2.437.886.956.257 1.807.408 2.553.455v-3.614l-.781-.303c-1.539-.607-2.631-1.263-3.276-1.971-.637-.715-.956-1.597-.956-2.646 0-1.127.439-2.052 1.317-2.775.886-.73 2.118-1.173 3.696-1.329v-1.783h1.597v1.737c1.78.077 3.389.435 4.827 1.072l-1.096 2.728a12.624 12.624 0 0 0-3.731-.909v3.439c1.516.583 2.592 1.088 3.229 1.516.646.427 1.116.897 1.411 1.41.303.513.455 1.112.455 1.796Zm-3.509.175c0-.327-.132-.603-.397-.828-.264-.226-.66-.459-1.189-.7v2.903c1.057-.179 1.586-.637 1.586-1.375Zm-4.687-7.077c0 .342.117.626.35.851.241.218.625.443 1.154.676v-2.74c-1.003.148-1.504.552-1.504 1.213ZM141.255 113.539c0 1.235-.447 2.23-1.34 2.984-.894.746-2.146 1.193-3.754 1.341v2.39h-1.598v-2.343c-1.896-.039-3.559-.374-4.989-1.003v-3.078c.676.334 1.488.63 2.436.886.956.257 1.807.408 2.553.455v-3.614l-.781-.303c-1.539-.607-2.631-1.263-3.276-1.971-.637-.715-.956-1.597-.956-2.646 0-1.127.439-2.052 1.318-2.775.886-.73 2.118-1.173 3.695-1.329v-1.783h1.598v1.737c1.779.077 3.388.435 4.826 1.072l-1.096 2.728a12.618 12.618 0 0 0-3.73-.909v3.439c1.515.583 2.592 1.088 3.229 1.516.645.427 1.115.897 1.411 1.41.303.513.454 1.112.454 1.796Zm-3.509.175c0-.327-.132-.603-.396-.828-.265-.226-.661-.459-1.189-.7v2.903c1.057-.179 1.585-.637 1.585-1.375Zm-4.687-7.077c0 .342.117.626.35.851.241.218.626.443 1.154.676v-2.74c-1.002.148-1.504.552-1.504 1.213Z"/></g></g><rect opacity=".1" x="10.401" y="33.772" width="154.387" height="69.997" rx="5.886" fill="#00033B"/><rect x="7.046" y="30.396" width="154.387" height="69.997" rx="5.886" fill="url(#c)"/><path d="M130.428 70.773c0 2.189-.791 3.95-2.374 5.285-1.583 1.321-3.798 2.113-6.647 2.374v4.232h-2.828v-4.15c-3.359-.068-6.304-.66-8.836-1.775v-5.45c1.197.592 2.635 1.115 4.315 1.57 1.692.454 3.199.722 4.521.804v-6.4l-1.384-.536c-2.725-1.073-4.658-2.236-5.801-3.489-1.128-1.266-1.692-2.828-1.692-4.686 0-1.995.777-3.633 2.332-4.913 1.569-1.294 3.751-2.078 6.545-2.354v-3.158h2.828v3.076c3.151.137 6 .77 8.546 1.9l-1.94 4.83a22.313 22.313 0 0 0-6.606-1.61v6.09c2.683 1.032 4.59 1.926 5.718 2.683 1.142.757 1.975 1.59 2.498 2.498.537.909.805 1.968.805 3.18Zm-6.214.31c0-.578-.234-1.067-.702-1.466-.468-.399-1.169-.812-2.105-1.238v5.14c1.871-.317 2.807-1.129 2.807-2.436Zm-8.299-12.53c0 .605.207 1.107.62 1.506.426.386 1.108.785 2.044 1.198v-4.852c-1.776.262-2.664.977-2.664 2.147Z" fill="#00033B"/><path d="M35.442 50.361h44.391c.693 0 1.253.561 1.253 1.254V61.77H34.184V51.615c0-.693.56-1.254 1.253-1.254h.005Z" fill="url(#d)"/><path d="M82.547 61.77H32.732c-.692 0-1.253.561-1.253 1.254v13.315c0 .692.561 1.254 1.253 1.254h49.815c.693 0 1.254-.562 1.254-1.254V63.024c0-.693-.561-1.254-1.254-1.254Z" fill="url(#e)"/><path d="M56.784 61.768c.057-.233.092-.472.092-.724a2.991 2.991 0 0 0-2.983-2.984H40.477a2.991 2.991 0 0 0-2.983 2.984c0 .252.035.49.093.724h19.197ZM77.684 61.768c.058-.233.093-.472.093-.724a2.991 2.991 0 0 0-2.983-2.984H61.378a2.991 2.991 0 0 0-2.983 2.984c0 .252.035.49.092.724h19.197Z" fill="#F5F9FF"/><path d="M34.184 77.59h6.377v1.608c0 .693-.56 1.254-1.253 1.254h-3.866c-.693 0-1.254-.561-1.254-1.254V77.59h-.004ZM75.482 77.59h6.377v1.608c0 .693-.56 1.254-1.253 1.254H76.74c-.693 0-1.254-.561-1.254-1.254V77.59h-.004Z" fill="#00033B"/><path fill-rule="evenodd" clip-rule="evenodd" d="M16.17 105.746v11.681a7.064 7.064 0 0 0 7.063 7.064h9.093l-5.483 5.482a1.177 1.177 0 1 0 1.665 1.665L36 124.146c.46-.46.46-1.205 0-1.665l-7.492-7.492a1.177 1.177 0 1 0-1.665 1.665l5.483 5.482h-9.093c-2.6 0-4.709-2.108-4.709-4.709v-11.681H16.17Z" fill="#006DFF" fill-opacity=".964"/><defs><radialGradient id="a" cx="0" cy="0" r="1" gradientUnits="userSpaceOnUse" gradientTransform="matrix(323.10745 156.53102 -403.91166 833.74443 10.2 124.75)"><stop offset=".262" stop-color="#CDE2FF"/><stop offset=".61" stop-color="#fff"/></radialGradient><radialGradient id="b" cx="0" cy="0" r="1" gradientUnits="userSpaceOnUse" gradientTransform="rotate(26.095 -152.55 109.923) scale(385.88 1018.17)"><stop offset=".072" stop-color="#CDE2FF"/><stop offset=".501" stop-color="#fff"/><stop offset="1" stop-color="#CDE2FF"/></radialGradient><radialGradient id="c" cx="0" cy="0" r="1" gradientUnits="userSpaceOnUse" gradientTransform="matrix(414.26836 -155.61587 427.60853 1138.34585 -103.91 126.706)"><stop stop-color="#CDE2FF"/><stop offset=".493" stop-color="#fff"/><stop offset="1" stop-color="#CDE2FF"/></radialGradient><radialGradient id="d" cx="0" cy="0" r="1" gradientUnits="userSpaceOnUse" gradientTransform="rotate(148.646 32.626 31.255) scale(84.5453 84.5769)"><stop offset=".05" stop-color="#006DFF"/><stop offset=".22" stop-color="#104BAD"/><stop offset=".34" stop-color="#1B357A"/><stop offset=".4" stop-color="#202D66"/></radialGradient><radialGradient id="e" cx="0" cy="0" r="1" gradientUnits="userSpaceOnUse" gradientTransform="matrix(-82.2733 72.87122 -72.8984 -82.30398 91.527 26.53)"><stop offset=".18" stop-color="#F5F9FF"/><stop offset=".37" stop-color="#006DFF"/><stop offset=".49" stop-color="#104BAD"/><stop offset=".58" stop-color="#1B357A"/><stop offset=".63" stop-color="#202D66"/></radialGradient></defs></svg>